<?xml version="1.0" encoding="utf-8"?>
<!-- Generator: Adobe Illustrator 22.1.0, SVG Export Plug-In . SVG Version: 6.00 Build 0)  -->
<svg version="1.1" id="Ebene_1" xmlns="http://www.w3.org/2000/svg" xmlns:xlink="http://www.w3.org/1999/xlink" x="0px" y="0px"
	 width="48px" height="48px" viewBox="0 0 48 48" style="enable-background:new 0 0 48 48;" xml:space="preserve">
<style type="text/css">
	.st0{fill:#FFFFFF;}
</style>
<polygon class="st0" points="44,11.4 34.8,3.7 32.2,6.8 41.4,14.5 "/>
<polygon class="st0" points="15.8,6.8 13.2,3.7 4,11.4 6.6,14.5 "/>
<path class="st0" d="M24,8C14.1,8,6,16.1,6,26s8.1,18,18,18s18-8.1,18-18S33.9,8,24,8z M24,40c-7.7,0-14-6.3-14-14s6.3-14,14-14
	s14,6.3,14,14S31.7,40,24,40z"/>
<polygon class="st0" points="25,16 22,16 22,28 31.5,33.7 33,31.2 25,26.5 "/>
</svg>
