<?xml version="1.0" encoding="utf-8"?>
<!-- Generator: Adobe Illustrator 22.1.0, SVG Export Plug-In . SVG Version: 6.00 Build 0)  -->
<svg version="1.1" id="Ebene_1" xmlns="http://www.w3.org/2000/svg" xmlns:xlink="http://www.w3.org/1999/xlink" x="0px" y="0px"
	 width="24px" height="24px" viewBox="0 0 24 24" style="enable-background:new 0 0 24 24;" xml:space="preserve">
<style type="text/css">
	.st0{fill:none;}
	.st1{fill:#FFFFFF;}
</style>
<path class="st0" d="M0,0h24v24H0V0z"/>
<path class="st1" d="M20,6h-2V4c0-1.1-0.9-2-2-2H4C2.9,2,2,2.9,2,4v14l4-4v2c0,1.1,0.9,2,2,2h10l4,4V8C22,6.9,21.1,6,20,6z M6,8v4
	H5.2l-0.6,0.6L4,13.2V4h12v2H8C6.9,6,6,6.9,6,8z M20,17.2l-0.6-0.6L18.8,16H18H8V8h12V17.2z"/>
</svg>
