<?xml version="1.0" encoding="utf-8"?>
<!-- Generator: Adobe Illustrator 22.1.0, SVG Export Plug-In . SVG Version: 6.00 Build 0)  -->
<svg version="1.1" id="Ebene_1" xmlns="http://www.w3.org/2000/svg" xmlns:xlink="http://www.w3.org/1999/xlink" x="0px" y="0px"
	 width="24px" height="24px" viewBox="0 0 24 24" style="enable-background:new 0 0 24 24;" xml:space="preserve">
<style type="text/css">
	.st0{fill:none;}
	.st1{fill:#FFFFFF;}
</style>
<path class="st0" d="M0,0h24v24H0V0z"/>
<g>
	<path class="st1" d="M12,3.2l7,3.1V11c0,4.5-3,8.7-7,9.9c-4-1.3-7-5.4-7-9.9V6.3L12,3.2 M12,1L3,5v6c0,5.6,3.8,10.7,9,12
		c5.2-1.3,9-6.5,9-12V5L12,1L12,1z"/>
</g>
<polygon class="st1" points="10,17 6,13 7.4,11.6 10,14.2 16.6,7.6 18,9 "/>
</svg>
