<?xml version="1.0" encoding="utf-8"?>
<!-- Generator: Adobe Illustrator 22.1.0, SVG Export Plug-In . SVG Version: 6.00 Build 0)  -->
<svg version="1.1" id="Ebene_1" xmlns="http://www.w3.org/2000/svg" xmlns:xlink="http://www.w3.org/1999/xlink" x="0px" y="0px"
	 width="24px" height="24px" viewBox="0 0 24 24" style="enable-background:new 0 0 24 24;" xml:space="preserve">
<style type="text/css">
	.st0{fill:none;}
	.st1{fill:#FFFFFF;}
	.st2{fill:#2878F0;}
</style>
<path class="st0" d="M0,0h24v24H0V0z"/>
<path class="st1" d="M16,4H4C2.9,4,2,4.9,2,6v12c0,1.1,0.9,2,2,2h16c1.1,0,2-0.9,2-2v-8L16,4z M6.5,7C7.3,7,8,7.7,8,8.5
	S7.3,10,6.5,10S5,9.3,5,8.5S5.7,7,6.5,7z M5,17l3.5-4.5l2.5,3l3.5-4.5l4.5,6H5z"/>
<circle class="st2" cx="18" cy="18" r="6"/>
<path class="st1" d="M21,18c0-0.2,0-0.4-0.1-0.5l1-0.6L21,15.1l-1.1,0.6c-0.3-0.2-0.6-0.4-0.9-0.5V14h-2v1.2c-0.4,0.1-0.7,0.3-1,0.5
	l-1-0.6l-1,1.8l1,0.6c0,0.1,0,0.3,0,0.5s0,0.4,0.1,0.5L14,19.1l1,1.7l1-0.6c0.3,0.2,0.6,0.4,1,0.5V22h2v-1.2
	c0.3-0.1,0.6-0.3,0.9-0.5l1.1,0.6l1-1.7l-1-0.6C21,18.4,21,18.2,21,18z M18,19c-0.6,0-1-0.5-1-1s0.4-1,1-1c0.5,0,1,0.5,1,1
	S18.5,19,18,19z"/>
</svg>
