<?xml version="1.0" encoding="utf-8"?>
<!-- Generator: Adobe Illustrator 22.1.0, SVG Export Plug-In . SVG Version: 6.00 Build 0)  -->
<svg version="1.1" id="Ebene_1" xmlns="http://www.w3.org/2000/svg" xmlns:xlink="http://www.w3.org/1999/xlink" x="0px" y="0px"
	 width="24px" height="24px" viewBox="0 0 24 24" style="enable-background:new 0 0 24 24;" xml:space="preserve">
<style type="text/css">
	.st0{fill:#FFFFFF;}
</style>
<path class="st0" d="M20,18v2H4v-2c0-1.5,1.6-2.8,4-3.5c0.2,2,1.3,3.6,2.8,4.2l0.7-2.8l-1-1.9c0.5,0,1-0.1,1.5-0.1s1,0,1.5,0.1
	l-1,1.9l0.7,2.8c1.5-0.6,2.6-2.2,2.8-4.2C18.4,15.2,20,16.5,20,18z M12,4C9.8,4,8,5.8,8,8s1.8,4,4,4s4-1.8,4-4S14.2,4,12,4z"/>
</svg>
