<?xml version="1.0" encoding="utf-8"?>
<!-- Generator: Adobe Illustrator 22.1.0, SVG Export Plug-In . SVG Version: 6.00 Build 0)  -->
<svg version="1.1" id="Ebene_1" xmlns="http://www.w3.org/2000/svg" xmlns:xlink="http://www.w3.org/1999/xlink" x="0px" y="0px"
	 width="24px" height="24px" viewBox="0 0 24 24" style="enable-background:new 0 0 24 24;" xml:space="preserve">
<style type="text/css">
	.st0{fill:#FFFFFF;}
</style>
<path class="st0" d="M18,2H6C4.9,2,4,2.9,4,4v2c0,1.1,0.9,2,2,2h2.2v6.6l-1.8-1c-0.2-0.1-0.5-0.2-0.7-0.2c-0.4,0-0.7,0.1-1.1,0.4
	L3,15.2l5.6,5.8C9.2,21.7,10,22,10.8,22h5.1c1.7,0,3.1-1.4,3.1-3.1v-5v-0.8c0-1-0.8-1.8-1.9-1.8c-0.2,0-0.5,0.1-0.7,0.2
	c-0.3-0.5-0.9-0.9-1.6-0.9c-0.5,0-0.8,0.2-1.2,0.4c-0.3-0.2-0.7-0.4-1.2-0.4c-0.2,0-0.2,0-0.4,0.1V8H18c1.1,0,2-0.9,2-2V4
	C20,2.9,19.1,2,18,2z M12.1,12c0.2,0,0.3,0,0.4-0.1c0.1,0,0.2,0,0.3,0.1c0.2,0.2,0.5,0.3,0.8,0.3c0.3,0,0.6-0.1,0.8-0.3
	c0.1-0.1,0.2-0.1,0.3-0.1c0.2,0,0.3,0.1,0.4,0.2c0.3,0.4,0.7,0.7,1.2,0.7c0.1,0,0.3,0,0.4-0.1c0.1,0,0.2-0.1,0.2-0.1
	c0.3,0,0.5,0.2,0.5,0.4v0.8v5c0,0.9-0.8,1.7-1.7,1.7h-5.1c-0.5,0-0.9-0.2-1.2-0.5L5,15.3l0.5-0.4c0.1,0,0.1-0.1,0.2-0.1c0,0,0,0,0,0
	l1.8,1C7.8,16,8,16,8.2,16c0.2,0,0.5-0.1,0.7-0.2c0.4-0.3,0.7-0.7,0.7-1.2V6.9c0-0.3,0.2-0.5,0.5-0.5s0.5,0.2,0.5,0.5v3.7
	c0,0.5,0.3,0.9,0.7,1.2C11.6,11.9,11.8,12,12.1,12z M18,6h-6.2c0,0,0,0,0,0c-0.3-0.6-0.9-1-1.7-1C9.4,5,8.8,5.4,8.5,6c0,0,0,0,0,0H6
	V4h12V6z M12,6.5C12,6.4,12,6.4,12,6.5C12,6.4,12,6.4,12,6.5z M8.3,6.5C8.3,6.4,8.3,6.4,8.3,6.5C8.3,6.4,8.3,6.4,8.3,6.5z"/>
</svg>
