<?xml version="1.0" encoding="utf-8"?>
<!-- Generator: Adobe Illustrator 22.1.0, SVG Export Plug-In . SVG Version: 6.00 Build 0)  -->
<svg version="1.1" id="Ebene_1" xmlns="http://www.w3.org/2000/svg" xmlns:xlink="http://www.w3.org/1999/xlink" x="0px" y="0px"
	 width="24px" height="24px" viewBox="0 0 24 24" enable-background="new 0 0 24 24" xml:space="preserve">
<path fill="#FFFFFF" d="M9,2H4C2.9,2,2,2.9,2,4v5c0,1.1,0.9,2,2,2h5c1.1,0,2-0.9,2-2V4C11,2.9,10.1,2,9,2 M9,7H4V6h5V7 M20,13h-5
	c-1.1,0-2,0.9-2,2v5c0,1.1,0.9,2,2,2h5c1.1,0,2-0.9,2-2v-5C22,13.9,21.1,13,20,13 M20,19h-5v-1h5V19 M20,17h-5v-1h5V17 M20,2h-5
	c-1.1,0-2,0.9-2,2v5c0,1.1,0.9,2,2,2h5c1.1,0,2-0.9,2-2V4C22,2.9,21.1,2,20,2 M20,7h-2v2h-1V7h-2V6h2V4h1v2h2V7 M9,13H4
	c-1.1,0-2,0.9-2,2v5c0,1.1,0.9,2,2,2h5c1.1,0,2-0.9,2-2v-5C11,13.9,10.1,13,9,13 M8.6,18.9l-0.7,0.7l-1.4-1.4l-1.4,1.4l-0.7-0.7
	l1.4-1.4l-1.4-1.4l0.7-0.7l1.4,1.4l1.4-1.4l0.7,0.7l-1.4,1.4L8.6,18.9z"/>
</svg>
