<?xml version="1.0" encoding="utf-8"?>
<!-- Generator: Adobe Illustrator 22.1.0, SVG Export Plug-In . SVG Version: 6.00 Build 0)  -->
<svg version="1.1" id="Ebene_1" xmlns="http://www.w3.org/2000/svg" xmlns:xlink="http://www.w3.org/1999/xlink" x="0px" y="0px"
	 width="24px" height="24px" viewBox="0 0 24 24" enable-background="new 0 0 24 24" xml:space="preserve">
<path fill="#FFFFFF" d="M14.2,4l1.4,1.4L16.2,6H17h3v12H4V6h3h0.8l0.6-0.6L9.8,4H14.2 M15,2H9L7,4H4C2.9,4,2,4.9,2,6v12
	c0,1.1,0.9,2,2,2h16c1.1,0,2-0.9,2-2V6c0-1.1-0.9-2-2-2h-3L15,2L15,2z"/>
<path fill="#FFFFFF" d="M12,7c-2.8,0-5,2.2-5,5s2.2,5,5,5s5-2.2,5-5S14.8,7,12,7z M12,15c-1.7,0-3-1.3-3-3s1.3-3,3-3s3,1.3,3,3
	S13.7,15,12,15z"/>
<circle fill="#2878F0" cx="18" cy="18" r="6"/>
<path fill="#FFFFFF" d="M19,15v-1c0-0.6-0.4-1-1-1s-1,0.4-1,1v1h-2v2h1c0.6,0,1,0.4,1,1s-0.4,1-1,1h-1v2h6v-6H19z"/>
</svg>
