<?xml version="1.0" encoding="utf-8"?>
<!-- Generator: Adobe Illustrator 22.1.0, SVG Export Plug-In . SVG Version: 6.00 Build 0)  -->
<svg version="1.1" id="Ebene_1" xmlns="http://www.w3.org/2000/svg" xmlns:xlink="http://www.w3.org/1999/xlink" x="0px" y="0px"
	 width="24px" height="24px" viewBox="0 0 24 24" enable-background="new 0 0 24 24" xml:space="preserve">
<g>
	<path fill="#FFFFFF" d="M16.9,5l-4.5,5.8L12,11.3V12v5.6V12v-0.7l-0.4-0.5L7.1,5H16.9 M19,3H5C4.8,3,4.6,3.1,4.4,3.2
		C4,3.5,3.9,4.2,4.2,4.6L10,12v7.9c0,0.3,0.1,0.6,0.3,0.8c0.2,0.2,0.4,0.3,0.7,0.3s0.5-0.1,0.7-0.3l2-2c0.2-0.2,0.3-0.5,0.3-0.8V12
		l5.8-7.4c0.3-0.4,0.2-1-0.2-1.4C19.4,3.1,19.2,3,19,3L19,3z"/>
</g>
<circle fill="#F44336" cx="18" cy="18" r="6"/>
<polygon fill="#FFFFFF" points="20.1,14.5 18,16.6 15.9,14.5 14.5,15.9 16.6,18 14.5,20.1 15.9,21.5 18,19.4 20.1,21.5 21.5,20.1 
	19.4,18 21.5,15.9 "/>
</svg>
