<?xml version="1.0" encoding="utf-8"?>
<!-- Generator: Adobe Illustrator 22.1.0, SVG Export Plug-In . SVG Version: 6.00 Build 0)  -->
<svg version="1.1" id="Ebene_1" xmlns="http://www.w3.org/2000/svg" xmlns:xlink="http://www.w3.org/1999/xlink" x="0px" y="0px"
	 width="24px" height="24px" viewBox="0 0 24 24" enable-background="new 0 0 24 24" xml:space="preserve">
<path fill="#FFFFFF" d="M19,12.4c0-0.1,0-0.3,0-0.4c0-3.9-3.1-7-7-7c-0.1,0-0.3,0-0.4,0C10.8,3.2,9.1,2,7,2C4.2,2,2,4.2,2,7
	c0,2.1,1.2,3.8,3,4.6c0,0.1,0,0.3,0,0.4c0,3.9,3.1,7,7,7c0.1,0,0.3,0,0.4,0c0.8,1.8,2.5,3,4.6,3c2.8,0,5-2.2,5-5
	C22,14.9,20.8,13.2,19,12.4z M19,15c0,1.1-0.9,2-2,2s-2-0.9-2-2s0.9-2,2-2S19,13.9,19,15z M7,3c1.1,0,2,0.9,2,2S8.1,7,7,7S5,6.1,5,5
	S5.9,3,7,3z M4,9.1C4,8.4,6,8,7,8s3,0.4,3,1.1V10H4V9.1z M12,17c0,0.3,0,0.7,0.1,1c0,0-0.1,0-0.1,0c-3.3,0-6-2.7-6-6
	c0,0,0-0.1,0-0.1C6.3,12,6.7,12,7,12c2.8,0,5-2.2,5-5c0-0.3,0-0.7-0.1-1c0,0,0.1,0,0.1,0c3.3,0,6,2.7,6,6c0,0,0,0.1,0,0.1
	C17.7,12,17.3,12,17,12C14.2,12,12,14.2,12,17z M20,20h-6v-0.9c0-0.7,2-1.1,3-1.1s3,0.4,3,1.1V20z"/>
</svg>
