<?xml version="1.0" encoding="utf-8"?>
<!-- Generator: Adobe Illustrator 22.1.0, SVG Export Plug-In . SVG Version: 6.00 Build 0)  -->
<svg version="1.1" id="Ebene_1" xmlns="http://www.w3.org/2000/svg" xmlns:xlink="http://www.w3.org/1999/xlink" x="0px" y="0px"
	 width="24px" height="24px" viewBox="0 0 24 24" enable-background="new 0 0 24 24" xml:space="preserve">
<g>
	<path fill="#FFFFFF" d="M17,6h-4h-1c-1.1,0-2,0.9-2,2v0.4V16v2v1.6v0.9c0,0.8,0.7,1.5,1.5,1.5h9c0.8,0,1.5-0.7,1.5-1.5V11L17,6z
		 M20,20h-8v-4V8h4.2H17v3h3V20z"/>
	<path fill="#FFFFFF" d="M8,16H4V4h1.1h3.1H11L9,2H3.5C2.7,2,2,2.7,2,3.5v13C2,17.3,2.7,18,3.5,18H8V16z"/>
</g>
</svg>
