<?xml version="1.0" encoding="utf-8"?>
<!-- Generator: Adobe Illustrator 22.1.0, SVG Export Plug-In . SVG Version: 6.00 Build 0)  -->
<svg version="1.1" id="Ebene_1" xmlns="http://www.w3.org/2000/svg" xmlns:xlink="http://www.w3.org/1999/xlink" x="0px" y="0px"
	 width="24px" height="24px" viewBox="0 0 24 24" enable-background="new 0 0 24 24" xml:space="preserve">
<g>
	<path fill="#FFFFFF" d="M16,9c-0.4,0-0.7,0-1.1,0.1C15,8.7,15,8.4,15,8c0-3.9-3.1-7-7-7S1,4.1,1,8s3.1,7,7,7c0.4,0,0.7,0,1.1-0.1
		C9,15.3,9,15.6,9,16c0,3.9,3.1,7,7,7s7-3.1,7-7S19.9,9,16,9z M8,13c-2.8,0-5-2.2-5-5s2.2-5,5-5s5,2.2,5,5c0,0.7-0.1,1.3-0.4,1.9
		c-1.2,0.6-2.1,1.6-2.8,2.8C9.3,12.9,8.7,13,8,13z M16,21c-2.8,0-5-2.2-5-5s2.2-5,5-5s5,2.2,5,5S18.8,21,16,21z"/>
	<path fill="#FFFFFF" d="M8.1,5.5c0.3,0,0.5,0.1,0.7,0.3C8.9,6,9,6.3,9,6.8h1.5c0-0.7-0.1-1.2-0.5-1.6C9.6,4.8,9.2,4.6,8.6,4.5V3.4
		H7.8v1C7.2,4.4,6.7,4.6,6.4,5C6.1,5.4,5.9,5.8,5.9,6.4c0,0.3,0,0.6,0.1,0.8s0.3,0.4,0.4,0.6C6.6,8,6.8,8.2,7.1,8.3
		C7.4,8.4,7.6,8.4,8,8.6c0.4,0.2,0.6,0.3,0.8,0.5C8.9,9.2,9,9.4,9,9.7s0,0.6-0.2,0.7c-0.2,0.1-0.4,0.2-0.7,0.2
		c-0.4,0-0.6-0.1-0.8-0.3S7,9.8,7,9.4H5.6c0,0.6,0.2,1.2,0.5,1.6c0.4,0.4,0.9,0.6,1.6,0.7v1h0.8v-1c0.6-0.1,1.1-0.3,1.4-0.6
		c0.3-0.3,0.5-0.7,0.5-1.3c0-0.3,0-0.6-0.1-0.8C10.2,8.8,10,8.6,9.9,8.4C9.8,8.2,9.6,8,9.3,7.9C9,7.8,8.7,7.7,8.3,7.5
		C7.9,7.3,7.6,7.2,7.5,7S7.3,6.6,7.3,6.4c0-0.3,0.1-0.6,0.2-0.7C7.6,5.6,7.8,5.5,8.1,5.5z"/>
	<path fill="#FFFFFF" d="M16.9,13.6c0.3,0,0.6,0.1,0.9,0.2l0.2-1.2c-0.5-0.1-0.9-0.2-1.2-0.2c-0.9,0-1.6,0.2-2.1,0.7
		c-0.6,0.4-0.8,1.1-0.9,1.9H13v0.7h0.8v0.6H13V17h0.8c0,0.8,0.3,1.4,0.8,1.9s1.1,0.7,2,0.7c0.5,0,0.9,0,1.3-0.1l-0.2-1.2
		c-0.2,0.1-0.6,0.2-0.9,0.2c-0.5,0-0.9-0.2-1.1-0.4c-0.3-0.3-0.4-0.6-0.4-1.1h1.6H17v-0.7h-1.6v-0.6H17V15h-1.6
		C15.5,14.1,16,13.6,16.9,13.6z"/>
</g>
</svg>
