<?xml version="1.0" encoding="utf-8"?>
<!-- Generator: Adobe Illustrator 22.1.0, SVG Export Plug-In . SVG Version: 6.00 Build 0)  -->
<svg version="1.1" id="Ebene_1" xmlns="http://www.w3.org/2000/svg" xmlns:xlink="http://www.w3.org/1999/xlink" x="0px" y="0px"
	 width="24px" height="24px" viewBox="0 0 24 24" enable-background="new 0 0 24 24" xml:space="preserve">
<path fill="none" d="M0,0h24v24H0V0z"/>
<path fill="#FFFFFF" d="M3,20h18v-4H3V20z M4,17h2v2H4V17z M3,4v4h18V4H3z M6,7H4V5h2V7z M3,14h18v-4H3V14z M4,11h2v2H4V11z"/>
<circle fill="#F03C28" cx="18" cy="18" r="6"/>
<g>
	<path fill="#FFFFFF" d="M20,17v-1c0-1.1-0.9-2-2-2s-2,0.9-2,2v1c-0.6,0-1,0.4-1,1v3c0,0.6,0.4,1,1,1h4c0.6,0,1-0.4,1-1v-3
		C21,17.4,20.6,17,20,17z M17,16c0-0.6,0.4-1,1-1s1,0.4,1,1v1h-2V16z"/>
</g>
<circle fill="#F03C28" cx="18" cy="19" r="1"/>
</svg>
