<?xml version="1.0" encoding="utf-8"?>
<!-- Generator: Adobe Illustrator 22.1.0, SVG Export Plug-In . SVG Version: 6.00 Build 0)  -->
<svg version="1.1" id="Ebene_1" xmlns="http://www.w3.org/2000/svg" xmlns:xlink="http://www.w3.org/1999/xlink" x="0px" y="0px"
	 width="24px" height="24px" viewBox="0 0 24 24" enable-background="new 0 0 24 24" xml:space="preserve">
<path fill="#FFFFFF" d="M18,3H6L2,9l8.6,12h2.9L22,9L18,3z M17,5l2,3h-3l-1-3H17z M11,5h2l1,3h-4L11,5z M7,5h2L8,8H5L7,5z M5,10h3
	l2,7L5,10z M12,18l-2-8h4L12,18z M14,17l2-7h3L14,17z"/>
</svg>
