<?xml version="1.0" encoding="utf-8"?>
<!-- Generator: Adobe Illustrator 22.1.0, SVG Export Plug-In . SVG Version: 6.00 Build 0)  -->
<svg version="1.1" id="Ebene_1" xmlns="http://www.w3.org/2000/svg" xmlns:xlink="http://www.w3.org/1999/xlink" x="0px" y="0px"
	 width="24px" height="24px" viewBox="0 0 24 24" enable-background="new 0 0 24 24" xml:space="preserve">
<path fill="#FFFFFF" d="M12.6,9.3c0-0.2,0-0.3-0.1-0.5c-0.1-0.1-0.3-0.2-0.5-0.3s-0.5-0.2-0.7-0.3S10.9,8,10.8,7.9
	c-0.1-0.1-0.3-0.3-0.3-0.5c-0.1-0.2-0.1-0.4-0.1-0.6c0-0.4,0.1-0.8,0.4-1c0.3-0.3,0.7-0.4,1.1-0.5V4.5h0.6v0.8
	c0.4,0.1,0.8,0.3,1.1,0.6S14,6.6,14,7.1h-1.2c0-0.3,0-0.5-0.1-0.6s-0.2-0.2-0.4-0.2S12,6.4,11.9,6.5s-0.1,0.2-0.1,0.4
	c0,0.2,0.1,0.3,0.2,0.4c0.1,0.1,0.3,0.2,0.5,0.3c0.2,0.1,0.4,0.2,0.6,0.3c0.2,0.1,0.4,0.2,0.5,0.4c0.1,0.1,0.3,0.3,0.3,0.5
	C14,9,14,9.2,14,9.4c0,0.4-0.1,0.8-0.4,1s-0.6,0.4-1.1,0.5v0.7h-0.6v-0.7c-0.5-0.1-0.9-0.2-1.2-0.5s-0.4-0.7-0.4-1.2h1.2
	c0,0.3,0.1,0.5,0.2,0.6S12,10,12.2,10s0.3,0,0.4-0.1S12.6,9.5,12.6,9.3z"/>
<path fill="#FFFFFF" d="M18,13h-0.7l-2,2h1.9l1.8,2H5l1.8-2h2.1l-2-2H6l-3,3v4c0,1.1,0.9,2,2,2h14c1.1,0,2-0.9,2-2v-4L18,13z M19,20
	H5v-1h14V20z"/>
<path fill="#FFFFFF" d="M12,14c-3.3,0-6-2.7-6-6s2.7-6,6-6s6,2.7,6,6S15.3,14,12,14z M12,4C9.8,4,8,5.8,8,8s1.8,4,4,4
	c2.2,0,4-1.8,4-4S14.2,4,12,4z"/>
</svg>
