<?xml version="1.0" encoding="utf-8"?>
<!-- Generator: Adobe Illustrator 22.1.0, SVG Export Plug-In . SVG Version: 6.00 Build 0)  -->
<svg version="1.1" id="Ebene_1" xmlns="http://www.w3.org/2000/svg" xmlns:xlink="http://www.w3.org/1999/xlink" x="0px" y="0px"
	 width="24px" height="24px" viewBox="0 0 24 24" enable-background="new 0 0 24 24" xml:space="preserve">
<path fill="#FFFFFF" d="M20,12v-2h1.8L21,2h-2v2h-1.2L17,12l-2.5-2H12v2L7,8v2v2H5v-1.6L2,8v14h20V12H20z M8,20H4v-2h4V20z M14,20
	h-4v-2h4V20z M14,16H4v-2h10V16z M20,20h-4v-2h4V20z M20,16h-4v-2h4V16z"/>
</svg>
