<?xml version="1.0" encoding="utf-8"?>
<!-- Generator: Adobe Illustrator 22.1.0, SVG Export Plug-In . SVG Version: 6.00 Build 0)  -->
<svg version="1.1" id="Ebene_1" xmlns="http://www.w3.org/2000/svg" xmlns:xlink="http://www.w3.org/1999/xlink" x="0px" y="0px"
	 width="24px" height="24px" viewBox="0 0 24 24" enable-background="new 0 0 24 24" xml:space="preserve">
<path display="none" fill="none" d="M0,0h24v24H0V0z"/>
<g>
	<path fill="#FFFFFF" d="M17.6,13.8h-2.2L15,15h-1.3l2.2-6H17l2.2,6H18L17.6,13.8z M15.9,12.8h1.5l-0.8-2.3L15.9,12.8z"/>
	<path fill="#FFFFFF" d="M9,9.2c0,0.6,0,1-0.2,1.5c-0.2,0.4-0.4,0.7-0.8,1l1,0.8l-0.8,0.7l-1.3-1c-0.1,0-0.3,0-0.5,0
		c-0.5,0-0.9-0.1-1.3-0.4s-0.7-0.6-0.9-1C4.1,10.3,4,9.8,4,9.2V8.9c0-0.6,0.1-1.1,0.3-1.6c0.2-0.4,0.5-0.8,0.9-1S6,5.9,6.5,5.9
		S7.4,6,7.8,6.3c0.4,0.2,0.7,0.6,0.9,1S9,8.3,9,8.9V9.2L9,9.2z M7.9,8.9c0-0.6-0.1-1.1-0.3-1.4C7.3,7.1,7,7,6.6,7s-0.7,0.2-1,0.5
		S5.3,8.2,5.3,8.9v0.3c0,0.6,0.1,1.1,0.3,1.4s0.5,0.5,1,0.5c0.4,0,0.7-0.2,1-0.5c0.2-0.3,0.3-0.8,0.3-1.4L7.9,8.9z"/>
</g>
<path fill="#FFFFFF" d="M21,5h-7V4c0-1.1-0.9-2-2-2H3C1.9,2,1,2.9,1,4v16l4-4h5v1c0,1.1,0.9,2,2,2h7l4,4V7C23,5.9,22.1,5,21,5z
	 M10,7v7H5H4.2l-0.6,0.6L3,15.2V4h9v1C10.9,5,10,5.9,10,7z M21,18.2l-0.6-0.6L19.8,17H19h-7V7h9V18.2z"/>
</svg>
