<?xml version="1.0" encoding="utf-8"?>
<!-- Generator: Adobe Illustrator 22.1.0, SVG Export Plug-In . SVG Version: 6.00 Build 0)  -->
<svg version="1.1" id="Ebene_1" xmlns="http://www.w3.org/2000/svg" xmlns:xlink="http://www.w3.org/1999/xlink" x="0px" y="0px"
	 width="24px" height="24px" viewBox="0 0 24 24" enable-background="new 0 0 24 24" xml:space="preserve">
<g>
	<path fill="#FFFFFF" d="M18,2H6C4.9,2,4,2.9,4,4v16c0,1.1,0.9,2,2,2h12c1.1,0,2-0.9,2-2V4C20,2.9,19.1,2,18,2z M18,20H6v-7h12V20z
		 M18,11H6V4h12V11z"/>
	<polygon fill="#FFFFFF" points="14,15 13,15 13,16 11,16 11,15 10,15 10,17 14,17 	"/>
	<polygon fill="#FFFFFF" points="14,6 13,6 13,7 11,7 11,6 10,6 10,8 14,8 	"/>
</g>
</svg>
