<?xml version="1.0" encoding="utf-8"?>
<!-- Generator: Adobe Illustrator 22.1.0, SVG Export Plug-In . SVG Version: 6.00 Build 0)  -->
<svg version="1.1" id="Ebene_1" xmlns="http://www.w3.org/2000/svg" xmlns:xlink="http://www.w3.org/1999/xlink" x="0px" y="0px"
	 width="24px" height="24px" viewBox="0 0 24 24" enable-background="new 0 0 24 24" xml:space="preserve">
<path fill="#FFFFFF" d="M19,3v2h-2V3H7v2H5V3H3v18h2v-2h2v2h10v-2h2v2h2V3H19z M7,17H5v-2h2V17z M7,13H5v-2h2V13z M7,9H5V7h2V9z
	 M15,19H9V5h6V19z M19,17h-2v-2h2V17z M19,13h-2v-2h2V13z M19,9h-2V7h2V9z"/>
</svg>
