<?xml version="1.0" encoding="utf-8"?>
<!-- Generator: Adobe Illustrator 22.1.0, SVG Export Plug-In . SVG Version: 6.00 Build 0)  -->
<svg version="1.1" id="Ebene_1" xmlns="http://www.w3.org/2000/svg" xmlns:xlink="http://www.w3.org/1999/xlink" x="0px" y="0px"
	 width="24px" height="24px" viewBox="0 0 24 24" enable-background="new 0 0 24 24" xml:space="preserve">
<path fill="#FFFFFF" d="M12,2C6.5,2,2,6.5,2,12s4.5,10,10,10s10-4.5,10-10S17.5,2,12,2z M12,4c1.4,0,2.5,1.1,2.5,2.5S13.4,9,12,9
	S9.5,7.9,9.5,6.5S10.6,4,12,4z M4.4,9.5c0.4-1.3,1.8-2,3.1-1.5c1.3,0.4,2,1.8,1.6,3.1c-0.4,1.3-1.8,2-3.1,1.6
	C4.7,12.3,4,10.8,4.4,9.5z M10.8,18c-0.8,1.1-2.4,1.3-3.5,0.5c-1.1-0.8-1.4-2.4-0.6-3.4c0.8-1.2,2.4-1.4,3.5-0.6
	C11.4,15.3,11.6,16.9,10.8,18z M12,13c-0.6,0-1-0.4-1-1s0.4-1,1-1s1,0.4,1,1S12.6,13,12,13z M16.7,18.5c-1.1,0.8-2.7,0.5-3.5-0.6
	c-0.8-1.1-0.5-2.7,0.6-3.5c1.1-0.8,2.7-0.5,3.5,0.6S17.8,17.7,16.7,18.5z M17.9,12.6c-1.3,0.4-2.7-0.3-3.1-1.6
	c-0.4-1.3,0.3-2.7,1.6-3.1c1.4-0.4,2.8,0.3,3.2,1.6C20,10.8,19.3,12.3,17.9,12.6z"/>
</svg>
