<?xml version="1.0" encoding="utf-8"?>
<!-- Generator: Adobe Illustrator 22.1.0, SVG Export Plug-In . SVG Version: 6.00 Build 0)  -->
<svg version="1.1" id="Ebene_1" xmlns="http://www.w3.org/2000/svg" xmlns:xlink="http://www.w3.org/1999/xlink" x="0px" y="0px"
	 width="24px" height="24px" viewBox="0 0 24 24" enable-background="new 0 0 24 24" xml:space="preserve">
<path fill="#FFFFFF" d="M16,4v12H4V4H16 M16,2H4C2.9,2,2,2.9,2,4v12c0,1.1,0.9,2,2,2h12c1.1,0,2-0.9,2-2V4C18,2.9,17.1,2,16,2z
	 M7.5,10.7l1.7,2.3l2.5-3.1L15,14H5L7.5,10.7z M20,6v14H6v2h14c1.1,0,2-0.9,2-2V6H20z"/>
<circle fill="#FFFFFF" cx="6" cy="7" r="1"/>
</svg>
