<?xml version="1.0" encoding="utf-8"?>
<!-- Generator: Adobe Illustrator 22.1.0, SVG Export Plug-In . SVG Version: 6.00 Build 0)  -->
<svg version="1.1" id="Ebene_1" xmlns="http://www.w3.org/2000/svg" xmlns:xlink="http://www.w3.org/1999/xlink" x="0px" y="0px"
	 width="24px" height="24px" viewBox="0 0 24 24" enable-background="new 0 0 24 24" xml:space="preserve">
<path fill="#FFFFFF" d="M12,2C6.5,2,2,6.5,2,12c0,4.4,2.8,8.1,6.9,9.5c0.5,0.1,0.7-0.2,0.7-0.5s0-1,0-1.9c-2.8,0.6-3.3-1.2-3.3-1.2
	c-0.4-1.1-1.1-1.5-1.1-1.5c-0.9-0.6,0.1-0.6,0.1-0.6c1,0.1,1.6,1,1.6,1c0.9,1.5,2.4,1.1,2.9,0.9c0.1-0.6,0.4-1.1,0.6-1.4
	c-2.2-0.3-4.6-1.1-4.6-4.9c0-1.1,0.4-2,1.1-2.7C6.7,8.5,6.3,7.5,6.8,6.1c0,0,0.8-0.3,2.8,1c0.8-0.2,1.6-0.3,2.5-0.3s1.7,0.1,2.5,0.3
	C16.5,5.8,17.4,6,17.4,6c0.5,1.4,0.2,2.4,0.1,2.7c0.6,0.7,1,1.6,1,2.7c0,3.8-2.4,4.7-4.6,4.9c0.4,0.3,0.7,0.9,0.7,1.9
	c0,1.4,0,2.4,0,2.8c0,0.3,0.2,0.6,0.7,0.5c3.8-1.4,6.7-5.1,6.7-9.5C22,6.5,17.5,2,12,2z"/>
</svg>
