<?xml version="1.0" encoding="utf-8"?>
<!-- Generator: Adobe Illustrator 22.1.0, SVG Export Plug-In . SVG Version: 6.00 Build 0)  -->
<svg version="1.1" id="Ebene_1" xmlns="http://www.w3.org/2000/svg" xmlns:xlink="http://www.w3.org/1999/xlink" x="0px" y="0px"
	 width="24px" height="24px" viewBox="0 0 24 24" enable-background="new 0 0 24 24" xml:space="preserve">
<path fill="#FFFFFF" d="M22,12c0-4.5-3-8.4-7.2-9.6c-0.2-0.1-0.5-0.1-0.7-0.2c-0.1,0-0.2,0-0.3-0.1c-0.2,0-0.4-0.1-0.6-0.1
	c-0.1,0-0.2,0-0.3,0c-0.3,0-0.6,0-0.9,0c-0.3,0-0.6,0-0.9,0c-0.1,0-0.2,0-0.3,0c-0.2,0-0.4,0.1-0.6,0.1c-0.1,0-0.2,0-0.3,0.1
	c-0.2,0-0.4,0.1-0.6,0.2C9.1,2.4,9,2.4,9,2.5C8.7,2.6,8.4,2.7,8.2,2.8C8.1,2.8,8,2.9,7.8,2.9C7.7,3,7.5,3.1,7.4,3.1
	C7.3,3.2,7.1,3.3,7,3.3C6.9,3.4,6.8,3.5,6.7,3.6C6.5,3.6,6.4,3.7,6.3,3.8C6.2,3.9,6.1,3.9,6,4C5.5,4.4,5,4.8,4.6,5.3
	c0,0-0.1,0.1-0.1,0.1C4.4,5.6,4.2,5.7,4.1,5.9c0,0,0,0,0,0c-1.3,1.7-2,3.8-2,6c0,5.2,3.9,9.4,9,9.9l0,0c0.3,0,0.7,0.1,1,0.1
	c0.3,0,0.6,0,0.9,0c0.1,0,0.2,0,0.3,0c0.2,0,0.4-0.1,0.6-0.1c0.1,0,0.3-0.1,0.4-0.1c0.1,0,0.3-0.1,0.4-0.1c0.2,0,0.3-0.1,0.5-0.1
	c0.1,0,0.1-0.1,0.2-0.1c0.7-0.2,1.3-0.5,1.9-0.9c0,0,0,0,0,0c0.2-0.1,0.4-0.3,0.6-0.4c0,0,0,0,0,0l0,0C20.4,18.2,22,15.3,22,12z
	 M20,12c0,2.1-0.8,4-2.1,5.4c0-0.9-1-1.4-1.9-1.4h-1v-3c0-0.6-0.4-1-1-1H8v-2h2c0.6,0,1-0.4,1-1V7h2c1.1,0,2-0.9,2-2V4.6
	C17.9,5.8,20,8.6,20,12z M4,12c0-0.6,0.1-1.2,0.2-1.8L9,15v1c0,1.1,0.9,2,2,2v1.9C7.1,19.4,4,16.1,4,12z"/>
</svg>
