<?xml version="1.0" encoding="utf-8"?>
<!-- Generator: Adobe Illustrator 22.1.0, SVG Export Plug-In . SVG Version: 6.00 Build 0)  -->
<svg version="1.1" id="Ebene_1" xmlns="http://www.w3.org/2000/svg" xmlns:xlink="http://www.w3.org/1999/xlink" x="0px" y="0px"
	 width="24px" height="24px" viewBox="0 0 24 24" enable-background="new 0 0 24 24" xml:space="preserve">
<path fill="#FFFFFF" d="M21.8,10.2h-9.6v3.7h5.7c-0.1,0.9-0.7,2.3-2.1,3.3c-0.9,0.6-2,1-3.5,1c-2.7,0-5.1-1.8-5.9-4.2
	C6.2,13.4,6,12.7,6,12s0-1.3,0.3-2c0.9-2.4,3.2-4.1,5.9-4.1c1.9,0,3.2,0.8,3.9,1.5L19,4.6C17.3,3,14.9,2,12.2,2
	c-4,0-7.5,2.2-9.1,5.5C2.4,8.9,2,10.4,2,12s0.4,3.1,1.1,4.5c1.6,3.2,5.1,5.5,9.1,5.5c2.8,0,5.1-0.9,6.8-2.4c1.9-1.7,3-4.3,3-7.4
	C22,11.4,21.9,10.8,21.8,10.2z"/>
</svg>
