<?xml version="1.0" encoding="utf-8"?>
<!-- Generator: Adobe Illustrator 22.1.0, SVG Export Plug-In . SVG Version: 6.00 Build 0)  -->
<svg version="1.1" id="Ebene_1" xmlns="http://www.w3.org/2000/svg" xmlns:xlink="http://www.w3.org/1999/xlink" x="0px" y="0px"
	 width="24px" height="24px" viewBox="0 0 24 24" enable-background="new 0 0 24 24" xml:space="preserve">
<path fill="#FFFFFF" d="M12.2,3C7.2,2.9,3,7.3,3,12.3V19c0,1.1,0.9,2,2,2h2c1.1,0,2-0.9,2-2v-4c0-1.1-0.9-2-2-2H5v-0.7
	C5,8.4,8,5.1,11.9,5c4-0.1,7.1,3.1,7.1,7v1h-2c-1.1,0-2,0.9-2,2v4c0,1.1,0.9,2,2,2h2c1.1,0,2-0.9,2-2v-7C21,7.1,17.1,3.1,12.2,3z"/>
</svg>
