<?xml version="1.0" encoding="utf-8"?>
<!-- Generator: Adobe Illustrator 22.1.0, SVG Export Plug-In . SVG Version: 6.00 Build 0)  -->
<svg version="1.1" id="Ebene_1" xmlns="http://www.w3.org/2000/svg" xmlns:xlink="http://www.w3.org/1999/xlink" x="0px" y="0px"
	 width="24px" height="24px" viewBox="0 0 24 24" enable-background="new 0 0 24 24" xml:space="preserve">
<path fill="none" d="M0,0h24v24H0V0z"/>
<path fill="#FFFFFF" d="M17.1,15.1L14,12l3.1-3.1C17.7,8.3,18,7.6,18,6.8V5c0-1.7-1.3-3-3-3H9C7.3,2,6,3.3,6,5v1.8
	c0,0.8,0.3,1.6,0.9,2.1L10,12l-3.1,3.1C6.3,15.7,6,16.4,6,17.2V19c0,1.7,1.3,3,3,3h6c1.7,0,3-1.3,3-3v-1.8
	C18,16.4,17.7,15.7,17.1,15.1z M16,17.5V19c0,0.6-0.4,1-1,1H9c-0.6,0-1-0.4-1-1v-1.5c0-0.5,0.2-1,0.6-1.4l3.4-3.4l3.4,3.4
	C15.8,16.5,16,17,16,17.5z M12,11.3L8.6,7.9C8.2,7.5,8,7,8,6.5V5c0-0.6,0.4-1,1-1h6c0.6,0,1,0.4,1,1v1.5c0,0.5-0.2,1-0.6,1.4
	L12,11.3z"/>
</svg>
