<?xml version="1.0" encoding="utf-8"?>
<!-- Generator: Adobe Illustrator 22.1.0, SVG Export Plug-In . SVG Version: 6.00 Build 0)  -->
<svg version="1.1" id="Ebene_1" xmlns="http://www.w3.org/2000/svg" xmlns:xlink="http://www.w3.org/1999/xlink" x="0px" y="0px"
	 width="24px" height="24px" viewBox="0 0 24 24" enable-background="new 0 0 24 24" xml:space="preserve">
<path fill="#FFFFFF" d="M20,11h3v2h-3V11 M1,11h3v2H1V11 M13,1v3h-2V1H13 M4.9,3.5L7,5.6L5.6,7.1L3.5,4.9L4.9,3.5 M17,5.6l2.1-2.1
	l1.4,1.4L18.4,7L17,5.6 M12,6c3.3,0,6,2.7,6,6c0,2.2-1.2,4.2-3,5.2V19c0,0.5-0.4,1-1,1h-4c-0.6,0-1-0.5-1-1v-1.8c-1.8-1-3-3-3-5.2
	C6,8.7,8.7,6,12,6 M14,21v1c0,0.5-0.4,1-1,1h-2c-0.6,0-1-0.5-1-1v-1H14 M11,18h2v-2.1c1.7-0.4,3-2,3-3.9c0-2.2-1.8-4-4-4s-4,1.8-4,4
	c0,1.9,1.3,3.4,3,3.9V18z"/>
</svg>
