<?xml version="1.0" encoding="utf-8"?>
<!-- Generator: Adobe Illustrator 22.1.0, SVG Export Plug-In . SVG Version: 6.00 Build 0)  -->
<svg version="1.1" id="Ebene_1" xmlns="http://www.w3.org/2000/svg" xmlns:xlink="http://www.w3.org/1999/xlink" x="0px" y="0px"
	 width="24px" height="24px" viewBox="0 0 24 24" enable-background="new 0 0 24 24" xml:space="preserve">
<path fill="#FFFFFF" d="M6.5,2c2,0,3.6,1.3,4.2,3H22v3h-4v3h-3V8h-4.3c-0.6,1.8-2.3,3-4.2,3C4,11,2,9,2,6.5S4,2,6.5,2 M6.5,5
	C5.7,5,5,5.7,5,6.5S5.7,8,6.5,8S8,7.3,8,6.5S7.3,5,6.5,5 M6.5,13c2,0,3.6,1.3,4.2,3H22v3h-2v3h-2v-3h-2v3h-3v-3h-2.3
	c-0.6,1.8-2.3,3-4.2,3C4,22,2,20,2,17.5S4,13,6.5,13 M6.5,16C5.7,16,5,16.7,5,17.5S5.7,19,6.5,19S8,18.3,8,17.5S7.3,16,6.5,16z"/>
</svg>
