<?xml version="1.0" encoding="utf-8"?>
<!-- Generator: Adobe Illustrator 22.1.0, SVG Export Plug-In . SVG Version: 6.00 Build 0)  -->
<svg version="1.1" id="Ebene_1" xmlns="http://www.w3.org/2000/svg" xmlns:xlink="http://www.w3.org/1999/xlink" x="0px" y="0px"
	 width="24px" height="24px" viewBox="0 0 24 24" enable-background="new 0 0 24 24" xml:space="preserve">
<path fill="#FFFFFF" d="M11,4L11,4l9,9l-7,7l-9-9l0,0V4H11 M11,2H4C2.9,2,2,2.9,2,4v7c0,0.6,0.2,1.1,0.6,1.4l9,9
	C12,21.8,12.5,22,13,22s1.1-0.2,1.4-0.6l7-7C21.8,14,22,13.5,22,13s-0.2-1.1-0.6-1.4l-9-9C12.1,2.2,11.6,2,11,2L11,2z"/>
<circle fill="#FFFFFF" cx="7.5" cy="7.5" r="1.5"/>
</svg>
