<?xml version="1.0" encoding="utf-8"?>
<!-- Generator: Adobe Illustrator 22.1.0, SVG Export Plug-In . SVG Version: 6.00 Build 0)  -->
<svg version="1.1" id="Ebene_1" xmlns="http://www.w3.org/2000/svg" xmlns:xlink="http://www.w3.org/1999/xlink" x="0px" y="0px"
	 width="24px" height="24px" viewBox="0 0 24 24" enable-background="new 0 0 24 24" xml:space="preserve">
<path fill="#FFFFFF" d="M3,14l0.5,0.1l4.6-4.6c-0.2-0.6,0-1.4,0.5-1.9c0.8-0.8,2-0.8,2.8,0c0.5,0.5,0.7,1.3,0.5,1.9l2.6,2.6L15,12
	c0.2,0,0.4,0,0.5,0.1l3.6-3.6C19,8.4,19,8.2,19,8c0-1.1,0.9-2,2-2s2,0.9,2,2s-0.9,2-2,2c-0.2,0-0.4,0-0.5-0.1l-3.6,3.6
	C17,13.7,17,13.8,17,14c0,1.1-0.9,2-2,2s-2-0.9-2-2l0.1-0.5l-2.6-2.6c-0.3,0.1-0.7,0.1-1,0l-4.6,4.6L5,16c0,1.1-0.9,2-2,2
	s-2-0.9-2-2S1.9,14,3,14z"/>
</svg>
