<?xml version="1.0" encoding="utf-8"?>
<!-- Generator: Adobe Illustrator 22.1.0, SVG Export Plug-In . SVG Version: 6.00 Build 0)  -->
<svg version="1.1" id="Ebene_1" xmlns="http://www.w3.org/2000/svg" xmlns:xlink="http://www.w3.org/1999/xlink" x="0px" y="0px"
	 width="24px" height="24px" viewBox="0 0 24 24" enable-background="new 0 0 24 24" xml:space="preserve">
<path fill="#FFFFFF" d="M20.5,3l-0.2,0L15,5.1L9,3L3.4,4.9C3.1,5,3,5.2,3,5.4v15.1C3,20.8,3.2,21,3.5,21l0.2,0L9,18.9l6,2.1l5.6-1.9
	c0.2-0.1,0.4-0.3,0.4-0.5V3.5C21,3.2,20.8,3,20.5,3z M10,5.5l4,1.4v11.7l-4-1.4V5.5z M5,6.5l3-1v11.7l-3,1.2V6.5z M19,17.5l-3,1V6.9
	l3-1.2V17.5z"/>
</svg>
