<?xml version="1.0" encoding="utf-8"?>
<!-- Generator: Adobe Illustrator 22.1.0, SVG Export Plug-In . SVG Version: 6.00 Build 0)  -->
<svg version="1.1" id="Ebene_1" xmlns="http://www.w3.org/2000/svg" xmlns:xlink="http://www.w3.org/1999/xlink" x="0px" y="0px"
	 width="24px" height="24px" viewBox="0 0 24 24" enable-background="new 0 0 24 24" xml:space="preserve">
<path fill="#FFFFFF" d="M16,11H8v-1h8V11z M16,7H8v2h8V7z M16,12H8v1h8V12z M20,3v18c0,1.1-0.9,2-2,2H6c-1.1,0-2-0.9-2-2V3
	c0-1.1,0.9-2,2-2h12C19.1,1,20,1.9,20,3z M14,22c0-1.1-0.9-2-2-2s-2,0.9-2,2h1c0-0.6,0.4-1,1-1s1,0.4,1,1H14z M18,3H6v16h12V3z
	 M14,14H8v1h6V14z"/>
</svg>
