<?xml version="1.0" encoding="utf-8"?>
<!-- Generator: Adobe Illustrator 22.1.0, SVG Export Plug-In . SVG Version: 6.00 Build 0)  -->
<svg version="1.1" id="Ebene_1" xmlns="http://www.w3.org/2000/svg" xmlns:xlink="http://www.w3.org/1999/xlink" x="0px" y="0px"
	 width="24px" height="24px" viewBox="0 0 24 24" enable-background="new 0 0 24 24" xml:space="preserve">
<g>
	<polygon fill="#FFFFFF" points="14,8 14,8 14,10 14,12 14,14 18,14 18,12 18,10 18,8 18,8 20,8 18,6 16,4 14,6 12,8 	"/>
	<path fill="#FFFFFF" d="M19,10v2h1.6L19,18H6l1.6-6H13v-2H6.1L4,18V8h6l0.7-0.7L12,6l0,0l-2-2H4C2.9,4,2,4.9,2,6v12
		c0,1.1,0.9,2,2,2h15c0.9,0,1.7-0.6,1.9-1.5l2.3-8.5H19z"/>
</g>
</svg>
