<?xml version="1.0" encoding="utf-8"?>
<!-- Generator: Adobe Illustrator 22.1.0, SVG Export Plug-In . SVG Version: 6.00 Build 0)  -->
<svg version="1.1" id="Ebene_1" xmlns="http://www.w3.org/2000/svg" xmlns:xlink="http://www.w3.org/1999/xlink" x="0px" y="0px"
	 width="12px" height="12px" viewBox="0 0 12 12" enable-background="new 0 0 12 12" xml:space="preserve">
<circle fill="#C1C3C5" cx="6" cy="6" r="6"/>
<g>
	<path fill="#2878F0" d="M10,6.1c0-0.3,0-0.6-0.1-0.8H6.1v1.5h2.3c0,0.4-0.3,0.9-0.8,1.3v0L8.7,9h0.1C9.6,8.4,10,7.3,10,6.1"/>
	<path fill="#28A050" d="M6.1,10c1.1,0,2-0.4,2.7-1l-1.3-1C7.2,8.3,6.7,8.5,6.1,8.5c-1.1,0-2-0.7-2.4-1.7H3.6L2.5,7.6L2.4,7.8
		C3.1,9.1,4.5,10,6.1,10"/>
	<path fill="#FBBC05" d="M3.8,6.8C3.7,6.6,3.6,6.3,3.6,6s0-0.5,0.1-0.8l0-0.1L2.5,4.2h0C2.2,4.8,2,5.4,2,6s0.2,1.2,0.4,1.8L3.8,6.8"
		/>
	<path fill="#F03C28" d="M6.1,3.6c0.8,0,1.3,0.3,1.6,0.6L8.8,3C8.1,2.4,7.2,2,6.1,2c-1.6,0-3,0.9-3.6,2.2l1.3,1
		C4.1,4.2,5,3.6,6.1,3.6"/>
</g>
</svg>
