<?xml version="1.0" encoding="utf-8"?>
<!-- Generator: Adobe Illustrator 22.1.0, SVG Export Plug-In . SVG Version: 6.00 Build 0)  -->
<svg version="1.1" id="Ebene_2_1_" xmlns="http://www.w3.org/2000/svg" xmlns:xlink="http://www.w3.org/1999/xlink" x="0px" y="0px"
	 width="24px" height="24px" viewBox="0 0 24 24" enable-background="new 0 0 24 24" xml:space="preserve">
<g>
	<path fill="#FFFFFF" d="M24,10c-0.1-0.1-2.7-2.7-3-3c0,0,0,0,0,0l-8.3-4.6c-0.2-0.1-0.4-0.2-0.7-0.2c-0.2,0-0.5,0-0.7,0.2L3,7
		C2.9,7,2.9,7,3,7l-3,3l3,1.7v4.5c0,0.5,0.3,1,0.7,1.2l7.6,4.2c0.2,0.1,0.4,0.2,0.7,0.2s0.5-0.1,0.7-0.2l7.6-4.2
		c0.4-0.2,0.7-0.7,0.7-1.2v-4.5L24,10z M5,15.8v-3L9,15l2-2v6.1L5,15.8z M5.1,8.2L12,4.3l6.9,3.9L12,12L5.1,8.2z M19,15.8l-6,3.3V13
		l2,2l4-2.2V15.8z"/>
</g>
</svg>
