<?xml version="1.0" encoding="utf-8"?>
<!-- Generator: Adobe Illustrator 22.1.0, SVG Export Plug-In . SVG Version: 6.00 Build 0)  -->
<svg version="1.1" id="Ebene_1" xmlns="http://www.w3.org/2000/svg" xmlns:xlink="http://www.w3.org/1999/xlink" x="0px" y="0px"
	 width="24px" height="24px" viewBox="0 0 24 24" enable-background="new 0 0 24 24" xml:space="preserve">
<g>
	<path fill="#FFFFFF" d="M12,6c1.1,0,2,0.9,2,2s-0.9,2-2,2s-2-0.9-2-2S10.9,6,12,6 M12,15c2.9,0,6,1.4,6,2v1H6v-1
		C6,16.4,9.1,15,12,15 M12,4C9.8,4,8,5.8,8,8s1.8,4,4,4s4-1.8,4-4S14.2,4,12,4L12,4z M12,13c-2.7,0-8,1.3-8,4v3h16v-3
		C20,14.3,14.7,13,12,13L12,13z"/>
</g>
</svg>
