<?xml version="1.0" encoding="utf-8"?>
<!-- Generator: Adobe Illustrator 22.1.0, SVG Export Plug-In . SVG Version: 6.00 Build 0)  -->
<svg version="1.1" id="Ebene_1" xmlns="http://www.w3.org/2000/svg" xmlns:xlink="http://www.w3.org/1999/xlink" x="0px" y="0px"
	 width="24px" height="24px" viewBox="0 0 24 24" enable-background="new 0 0 24 24" xml:space="preserve">
<path fill="#FFFFFF" d="M14,5c0-1.1-0.9-2-2-2h-1V2c0-0.6-0.4-1-1-1H6C5.4,1,5,1.5,5,2v1H4C2.9,3,2,3.9,2,5v15c0,1.1,0.9,2,2,2h8
	c1.1,0,2-0.9,2-2v-1h8V5H14z M12,17h-2v-2h2V17z M12,9h-2V7h2V9z M16,17h-2v-2h2V17z M16,9h-2V7h2V9z M20,17h-2v-2h2V17z M20,9h-2V7
	h2V9z"/>
</svg>
