<?xml version="1.0" encoding="utf-8"?>
<!-- Generator: Adobe Illustrator 22.1.0, SVG Export Plug-In . SVG Version: 6.00 Build 0)  -->
<svg version="1.1" id="Ebene_1" xmlns="http://www.w3.org/2000/svg" xmlns:xlink="http://www.w3.org/1999/xlink" x="0px" y="0px"
	 width="30px" height="30px" viewBox="0 0 30 30" enable-background="new 0 0 30 30" xml:space="preserve">
<path fill="#FFFFFF" d="M22,15H8c-0.6,0-1-0.4-1-1s0.4-1,1-1h14c0.6,0,1,0.4,1,1S22.6,15,22,15z"/>
<path fill="#FFFFFF" d="M22,19H8c-0.6,0-1-0.4-1-1s0.4-1,1-1h14c0.6,0,1,0.4,1,1S22.6,19,22,19z"/>
<path fill="#FFFFFF" d="M15,23H8c-0.6,0-1-0.4-1-1s0.4-1,1-1h7c0.6,0,1,0.4,1,1S15.6,23,15,23z"/>
<path fill="#FFFFFF" d="M24,30H6c-1.7,0-3-1.3-3-3V4l0,0c0,0,0,0,0,0c0-2.2,1.8-4,4-4h19c0.6,0,1,0.4,1,1s-0.4,1-1,1H7
	C5.9,2,5,2.9,5,4s0.9,2,2,2h19c0.6,0,1,0.4,1,1v20C27,28.7,25.7,30,24,30z M5,7.5V27c0,0.6,0.4,1,1,1h18c0.6,0,1-0.4,1-1V8H7
	C6.3,8,5.6,7.8,5,7.5z"/>
</svg>
