<?xml version="1.0" encoding="utf-8"?>
<!-- Generator: Adobe Illustrator 22.1.0, SVG Export Plug-In . SVG Version: 6.00 Build 0)  -->
<svg version="1.1" id="Ebene_1" xmlns="http://www.w3.org/2000/svg" xmlns:xlink="http://www.w3.org/1999/xlink" x="0px" y="0px"
	 width="30px" height="30px" viewBox="0 0 30 30" enable-background="new 0 0 30 30" xml:space="preserve">
<g>
	<circle fill="#FFFFFF" cx="24" cy="13" r="1"/>
	<path fill="#FFFFFF" d="M25,8h-1V0H6v8H5c-2.2,0-4,1.8-4,4v9c0,0.6,0.4,1,1,1h4v8h18v-8h4c0.6,0,1-0.4,1-1v-9C29,9.8,27.2,8,25,8z
		 M8,2h14v6H8V2z M22,28H8V18h14V28z M27,20h-3v-4H6v4H3v-8c0-1.1,0.9-2,2-2h20c1.1,0,2,0.9,2,2V20z"/>
</g>
</svg>
