<?xml version="1.0" encoding="utf-8"?>
<!-- Generator: Adobe Illustrator 22.1.0, SVG Export Plug-In . SVG Version: 6.00 Build 0)  -->
<svg version="1.1" id="Ebene_1" xmlns="http://www.w3.org/2000/svg" xmlns:xlink="http://www.w3.org/1999/xlink" x="0px" y="0px"
	 width="30px" height="30px" viewBox="0 0 30 30" enable-background="new 0 0 30 30" xml:space="preserve">
<path fill="#FFFFFF" d="M28,6.8L16,0.2C15.7,0.1,15.3,0,15,0s-0.7,0.1-1,0.2L2,6.8c-0.6,0.4-1,1-1,1.8v12.9c0,0.7,0.4,1.4,1,1.8
	l12,6.5c0.3,0.2,0.6,0.2,1,0.2s0.7-0.1,1-0.2l12-6.5c0.6-0.4,1-1,1-1.8V8.6C29,7.8,28.6,7.1,28,6.8z M15,2l10.9,5.9L15,13.9L4.1,7.9
	L15,2z M3,9.6l11,6v11.9l-11-6V9.6z M16,27.5V15.6l11-6v11.9L16,27.5z"/>
</svg>
