<?xml version="1.0" encoding="utf-8"?>
<!-- Generator: Adobe Illustrator 22.1.0, SVG Export Plug-In . SVG Version: 6.00 Build 0)  -->
<svg version="1.1" id="Ebene_1" xmlns="http://www.w3.org/2000/svg" xmlns:xlink="http://www.w3.org/1999/xlink" x="0px" y="0px"
	 width="30px" height="30px" viewBox="0 0 30 30" enable-background="new 0 0 30 30" xml:space="preserve">
<path display="none" d="M26.7,8.3l-8-8C18.5,0.1,18.3,0,18,0H6C4.3,0,3,1.3,3,3v24c0,1.7,1.3,3,3,3h18c1.7,0,3-1.3,3-3V9
	C27,8.7,26.9,8.5,26.7,8.3z M23.6,8H19V3.4L23.6,8z M24,28H6c-0.6,0-1-0.4-1-1V3c0-0.6,0.4-1,1-1h11l0,0v7c0,0.6,0.4,1,1,1h7v17
	C25,27.6,24.6,28,24,28z M22,16H8c-0.6,0-1-0.4-1-1s0.4-1,1-1h14c0.6,0,1,0.4,1,1S22.6,16,22,16z M22,20H8c-0.6,0-1-0.4-1-1
	s0.4-1,1-1h14c0.6,0,1,0.4,1,1S22.6,20,22,20z M15,24H8c-0.6,0-1-0.4-1-1s0.4-1,1-1h7c0.6,0,1,0.4,1,1S15.6,24,15,24z"/>
<path fill="#FFFFFF" d="M27,27H3c-1.1,0-2-0.9-2-2V7c0-1.1,0.9-2,2-2h4.6l3.7-3.7C11.5,1.1,11.7,1,12,1h6c0.3,0,0.5,0.1,0.7,0.3
	L22.4,5H27c1.1,0,2,0.9,2,2v18C29,26.1,28.1,27,27,27z M3.8,25h22.4c0.4,0,0.8-0.4,0.8-0.8V7.8C27,7.4,26.6,7,26.2,7H22
	c-0.3,0-0.5-0.1-0.7-0.3l-3.5-3.5C17.7,3.1,17.5,3,17.4,3h-4.7c-0.2,0-0.3,0.1-0.4,0.2L8.7,6.7C8.5,6.9,8.3,7,8,7H3.5
	C3.2,7,3,7.2,3,7.5v16.7C3,24.6,3.4,25,3.8,25z"/>
<path fill="#FFFFFF" d="M15,22c-3.9,0-7-3.1-7-7s3.1-7,7-7s7,3.1,7,7S18.9,22,15,22z M15,10c-2.8,0-5,2.2-5,5s2.2,5,5,5s5-2.2,5-5
	S17.8,10,15,10z"/>
</svg>
