<?xml version="1.0" encoding="utf-8"?>
<!-- Generator: Adobe Illustrator 22.1.0, SVG Export Plug-In . SVG Version: 6.00 Build 0)  -->
<svg version="1.1" id="Ebene_1" xmlns="http://www.w3.org/2000/svg" xmlns:xlink="http://www.w3.org/1999/xlink" x="0px" y="0px"
	 width="30px" height="30px" viewBox="0 0 30 30" enable-background="new 0 0 30 30" xml:space="preserve">
<path fill="#FFFFFF" d="M23,18c0.4,0,0.7-0.2,0.9-0.6l5-10c0.2-0.3,0.1-0.7,0-1C28.7,6.2,28.3,6,28,6H6.6L4.9,2.6C4.7,2.2,4.4,2,4,2
	H1C0.4,2,0,2.4,0,3s0.4,1,1,1h2.4l1.7,3.4c0,0,0,0,0,0L9.9,17l-1.5,3c-0.1,0-0.2,0-0.4,0c-2.2,0-4,1.8-4,4s1.8,4,4,4
	c1.9,0,3.4-1.3,3.9-3h8.3c0.4,1.7,2,3,3.9,3c2.2,0,4-1.8,4-4s-1.8-4-4-4c-1.9,0-3.4,1.3-3.9,3h-8.3c-0.2-0.9-0.8-1.8-1.6-2.3
	l1.4-2.7H23z M24,22c1.1,0,2,0.9,2,2s-0.9,2-2,2s-2-0.9-2-2S22.9,22,24,22z M8,26c-1.1,0-2-0.9-2-2s0.9-2,2-2s2,0.9,2,2S9.1,26,8,26
	z M26.4,8l-4,8H11.6l-4-8H26.4z"/>
</svg>
