<?xml version="1.0" encoding="utf-8"?>
<!-- Generator: Adobe Illustrator 22.1.0, SVG Export Plug-In . SVG Version: 6.00 Build 0)  -->
<svg version="1.1" id="Ebene_1" xmlns="http://www.w3.org/2000/svg" xmlns:xlink="http://www.w3.org/1999/xlink" x="0px" y="0px"
	 viewBox="0 0 24 24" enable-background="new 0 0 24 24" xml:space="preserve">
<path fill="#28A050" d="M21.4,12.6l-8,8c-0.8,0.8-2,0.8-2.8,0l-8-8C2.2,12.2,2,11.7,2,11.2V4c0-1.1,0.9-2,2-2h16c1.1,0,2,0.9,2,2
	v7.2C22,11.7,21.8,12.2,21.4,12.6z"/>
<polygon fill="#FFFFFF" points="13,9 13,5 11,5 11,9 7,9 7,11 11,11 11,15 13,15 13,11 17,11 17,9 "/>
</svg>
