<?xml version="1.0" encoding="utf-8"?>
<!-- Generator: Adobe Illustrator 22.1.0, SVG Export Plug-In . SVG Version: 6.00 Build 0)  -->
<svg version="1.1" id="Ebene_1" xmlns="http://www.w3.org/2000/svg" xmlns:xlink="http://www.w3.org/1999/xlink" x="0px" y="0px"
	 width="24px" height="24px" viewBox="0 0 24 24" enable-background="new 0 0 24 24" xml:space="preserve">
<path fill="#FFFFFF" d="M6,4h12v16H6V4 M4,4v16c0,1.1,0.9,2,2,2h12c1.1,0,2-0.9,2-2V4c0-1.1-0.9-2-2-2H6C4.9,2,4,2.9,4,4L4,4z"/>
<path fill="#FFFFFF" d="M9.5,9.5c0,1.4,1.1,2.5,2.5,2.5s2.5-1.1,2.5-2.5S13.4,7,12,7S9.5,8.1,9.5,9.5z M11,9.5c0-0.5,0.5-1,1-1
	s1,0.5,1,1s-0.5,1-1,1S11,10,11,9.5z"/>
<path fill="#FFFFFF" d="M7,16v1h10v-1c0-2.1-3.3-3-5-3S7,13.9,7,16z M8.8,15.5c0.6-0.5,2-1,3.2-1s2.6,0.5,3.2,1H8.8z"/>
</svg>
