<?xml version="1.0" encoding="utf-8"?>
<!-- Generator: Adobe Illustrator 22.1.0, SVG Export Plug-In . SVG Version: 6.00 Build 0)  -->
<svg version="1.1" id="Ebene_1" xmlns="http://www.w3.org/2000/svg" xmlns:xlink="http://www.w3.org/1999/xlink" x="0px" y="0px"
	 width="24px" height="24px" viewBox="0 0 24 24" enable-background="new 0 0 24 24" xml:space="preserve">
<path fill="none" d="M0,0h24v24H0V0z"/>
<path fill="#FFFFFF" d="M19,8h-1V3H6v5H5c-1.7,0-3,1.3-3,3v6h4v4h12v-4h4v-6C22,9.3,20.7,8,19,8z M8,5h8v3H8V5z M16,17v2H8v-4h8V17z
	 M18,15v-2H6v2H4v-4c0-0.6,0.4-1,1-1h14c0.5,0,1,0.4,1,1v4H18z"/>
<circle fill="#FFFFFF" cx="18" cy="11.5" r="1"/>
</svg>
