<?xml version="1.0" encoding="utf-8"?>
<!-- Generator: Adobe Illustrator 22.1.0, SVG Export Plug-In . SVG Version: 6.00 Build 0)  -->
<svg version="1.1" id="Ebene_1" xmlns="http://www.w3.org/2000/svg" xmlns:xlink="http://www.w3.org/1999/xlink" x="0px" y="0px"
	 width="24px" height="24px" viewBox="0 0 24 24" enable-background="new 0 0 24 24" xml:space="preserve">
<path fill="#FFFFFF" d="M8.2,6.2L6.7,4.7C3,7.4,1.9,12.5,4.2,16.5l-1.7,1l4.1,1.1l1.1-4.1l-1.7,1C4.1,12.3,5.1,8.2,8.2,6.2z"/>
<path fill="#FFFFFF" d="M19,11.6l2-0.5C20.5,6.5,16.7,3,12,3V1L9,4l3,3V5C15.7,5,18.8,7.9,19,11.6z"/>
<path fill="#FFFFFF" d="M20.4,13.4l-4.1,1.1l1.7,1c-1.9,3.2-5.9,4.4-9.2,2.8l-0.5,2c4.2,1.8,9.1,0.3,11.4-3.7l1.7,1L20.4,13.4z"/>
</svg>
