<?xml version="1.0" encoding="utf-8"?>
<!-- Generator: Adobe Illustrator 22.1.0, SVG Export Plug-In . SVG Version: 6.00 Build 0)  -->
<svg version="1.1" id="Ebene_1" xmlns="http://www.w3.org/2000/svg" xmlns:xlink="http://www.w3.org/1999/xlink" x="0px" y="0px"
	 width="24px" height="24px" viewBox="0 0 24 24" enable-background="new 0 0 24 24" xml:space="preserve">
<path fill="#FFFFFF" d="M20.5,14.1V9.9C21.4,9.7,22,8.9,22,8c0-1.1-0.9-2-2-2c-0.6,0-1.1,0.2-1.4,0.6l-3.6-2.1C15,4.4,15,4.2,15,4
	c0-1.1-0.9-2-2-2c-1.1,0-2,0.9-2,1.9L5.8,5.1C5.4,4.4,4.8,4,4,4C2.9,4,2,4.9,2,6c0,1.1,0.9,2,2,2c0.4,0,0.7-0.1,1-0.3L7.3,10
	C7.1,10.3,7,10.6,7,11c0,0.6,0.3,1.2,0.8,1.6L6.3,16c-0.1,0-0.2,0-0.3,0c-1.1,0-2,0.9-2,2c0,1.1,0.9,2,2,2c0.7,0,1.4-0.4,1.7-1
	l3.3,0.9c0,0,0,0,0,0c0,1.1,0.9,2,2,2c1.1,0,2-0.9,2-2c0-0.2,0-0.4-0.1-0.5l3.6-2.1c0.4,0.4,0.9,0.6,1.4,0.6c1.1,0,2-0.9,2-2
	C22,15.1,21.4,14.3,20.5,14.1z M14.4,18.6C14.1,18.2,13.6,18,13,18c-0.7,0-1.4,0.4-1.7,1L8,18.1c0,0,0,0,0,0c0-0.6-0.3-1.2-0.8-1.6
	L8.7,13c0.1,0,0.2,0,0.3,0c1.1,0,2-0.9,2-2s-0.9-2-2-2C8.6,9,8.3,9.1,8,9.3L5.7,7C5.9,6.7,6,6.4,6,6.1l5.2-1.2C11.6,5.6,12.2,6,13,6
	c0.6,0,1.1-0.2,1.4-0.6l3.6,2.1C18,7.6,18,7.8,18,8c0,0.9,0.6,1.7,1.5,1.9v4.1c-0.9,0.2-1.5,1-1.5,1.9c0,0.2,0,0.4,0.1,0.5
	L14.4,18.6z"/>
</svg>
