<?xml version="1.0" encoding="utf-8"?>
<!-- Generator: Adobe Illustrator 22.1.0, SVG Export Plug-In . SVG Version: 6.00 Build 0)  -->
<svg version="1.1" id="Ebene_1" xmlns="http://www.w3.org/2000/svg" xmlns:xlink="http://www.w3.org/1999/xlink" x="0px" y="0px"
	 width="24px" height="24px" viewBox="0 0 24 24" enable-background="new 0 0 24 24" xml:space="preserve">
<path fill="none" d="M0,0h24v24H0V0z"/>
<path fill="#FFFFFF" d="M21,6H3C1.9,6,1,6.9,1,8v8c0,1.1,0.9,2,2,2h18c1.1,0,2-0.9,2-2V8C23,6.9,22.1,6,21,6z M21,16H3V8h2v4h2V8h2
	v4h2V8h2v4h2V8h2v4h2V8h2V16z"/>
</svg>
