<?xml version="1.0" encoding="utf-8"?>
<!-- Generator: Adobe Illustrator 22.1.0, SVG Export Plug-In . SVG Version: 6.00 Build 0)  -->
<svg version="1.1" id="Ebene_1" xmlns="http://www.w3.org/2000/svg" xmlns:xlink="http://www.w3.org/1999/xlink" x="0px" y="0px"
	 width="24px" height="24px" viewBox="0 0 24 24" enable-background="new 0 0 24 24" xml:space="preserve">
<path fill="none" d="M0,0h24v24H0V0z"/>
<path fill="#FFFFFF" d="M19.4,13c0-0.3,0.1-0.6,0.1-1c0-0.3,0-0.7-0.1-1l2.1-1.6c0.2-0.1,0.2-0.4,0.1-0.6l-2-3.5
	C19.6,5.1,19.4,5,19.2,5c-0.1,0-0.1,0-0.2,0l-2.5,1c-0.5-0.4-1.1-0.7-1.7-1l-0.4-2.7C14.5,2.2,14.3,2,14,2h-4C9.8,2,9.5,2.2,9.5,2.4
	L9.1,5.1C8.5,5.3,8,5.7,7.4,6.1l-2.5-1C4.9,5,4.8,5,4.8,5C4.6,5,4.4,5.1,4.3,5.3l-2,3.5C2.2,8.9,2.3,9.2,2.5,9.4L4.6,11
	c0,0.3-0.1,0.6-0.1,1c0,0.3,0,0.7,0.1,1l-2.1,1.6c-0.2,0.1-0.2,0.4-0.1,0.6l2,3.5C4.4,18.9,4.6,19,4.8,19c0.1,0,0.1,0,0.2,0l2.5-1
	c0.5,0.4,1.1,0.7,1.7,1l0.4,2.6c0,0.2,0.2,0.4,0.5,0.4h4c0.3,0,0.5-0.2,0.5-0.4l0.4-2.6c0.6-0.3,1.2-0.6,1.7-1l2.5,1
	c0.1,0,0.1,0,0.2,0c0.2,0,0.3-0.1,0.4-0.3l2-3.5c0.1-0.2,0.1-0.5-0.1-0.6L19.4,13z M17.5,11.3c0,0.3,0,0.5,0,0.7c0,0.2,0,0.4,0,0.7
	l-0.1,1.1l0.9,0.7l1.1,0.8l-0.7,1.2l-1.3-0.5l-1-0.4l-0.9,0.7c-0.4,0.3-0.8,0.6-1.3,0.7l-1.1,0.4l-0.2,1.1L12.7,20h-1.4l-0.2-1.4
	L11,17.5l-1.1-0.4c-0.4-0.2-0.8-0.4-1.2-0.7l-0.9-0.7l-1.1,0.4l-1.3,0.5l-0.7-1.2l1.1-0.8l0.9-0.7l-0.1-1.1c0-0.3-0.1-0.5-0.1-0.7
	s0-0.4,0.1-0.7l0.1-1.1L5.8,9.4L4.7,8.6l0.7-1.2l1.3,0.5l1,0.4l0.9-0.7c0.4-0.3,0.8-0.6,1.3-0.7l1.1-0.4l0.2-1.1L11.3,4h1.4l0.2,1.3
	L13,6.5l1.1,0.4c0.4,0.2,0.8,0.4,1.2,0.7l0.9,0.7l1.1-0.4l1.3-0.5l0.7,1.2l-1.1,0.9l-0.9,0.7C17.3,10.1,17.5,11.3,17.5,11.3z M12,8
	c-2.2,0-4,1.8-4,4s1.8,4,4,4s4-1.8,4-4S14.2,8,12,8z M12,14c-1.1,0-2-0.9-2-2s0.9-2,2-2s2,0.9,2,2S13.1,14,12,14z"/>
</svg>
