<?xml version="1.0" encoding="utf-8"?>
<!-- Generator: Adobe Illustrator 22.1.0, SVG Export Plug-In . SVG Version: 6.00 Build 0)  -->
<svg version="1.1" id="Ebene_1" xmlns="http://www.w3.org/2000/svg" xmlns:xlink="http://www.w3.org/1999/xlink" x="0px" y="0px"
	 width="24px" height="24px" viewBox="0 0 24 24" enable-background="new 0 0 24 24" xml:space="preserve">
<path fill="#FFFFFF" d="M6,4c0-1.1,0.9-2,2-2c1.1,0,2,0.9,2,2S9.1,6,8,6C6.9,6,6,5.1,6,4z M11,22l0-15H1v2h4v13h2v-6h2v6H11z M18,4
	c0-1.1-0.9-2-2-2c-1.1,0-2,0.9-2,2s0.9,2,2,2C17.1,6,18,5.1,18,4z M15,22v-6h2v6h2V9h4V7H13l0,15H15z"/>
</svg>
