<?xml version="1.0" encoding="utf-8"?>
<!-- Generator: Adobe Illustrator 22.1.0, SVG Export Plug-In . SVG Version: 6.00 Build 0)  -->
<svg version="1.1" id="Ebene_1" xmlns="http://www.w3.org/2000/svg" xmlns:xlink="http://www.w3.org/1999/xlink" x="0px" y="0px"
	 width="24px" height="24px" viewBox="0 0 24 24" enable-background="new 0 0 24 24" xml:space="preserve">
<path fill="#FFFFFF" d="M20,4H4C2.9,4,2,4.9,2,6v11c0,1.1,0.9,2,2,2h16c1.1,0,2-0.9,2-2V6C22,4.9,21.1,4,20,4z M9,17H5
	c-0.6,0-1-0.4-1-1v-2h5V17z M9,13H4v-3h5V13z M14,17h-4V9H4V7c0-0.6,0.4-1,1-1h9V17z M20,16c0,0.6-0.4,1-1,1h-4v-3h5V16z M20,13h-5
	v-3h5V13z M20,9h-5V6h4c0.6,0,1,0.4,1,1V9z"/>
</svg>
