<?xml version="1.0" encoding="utf-8"?>
<!-- Generator: Adobe Illustrator 22.1.0, SVG Export Plug-In . SVG Version: 6.00 Build 0)  -->
<svg version="1.1" id="Ebene_1" xmlns="http://www.w3.org/2000/svg" xmlns:xlink="http://www.w3.org/1999/xlink" x="0px" y="0px"
	 width="24px" height="24px" viewBox="0 0 24 24" enable-background="new 0 0 24 24" xml:space="preserve">
<path fill="#FFFFFF" d="M18,2h-8L4,8v12c0,1.1,0.9,2,2,2h12c1.1,0,2-0.9,2-2V4C20,2.9,19.1,2,18,2z M10,18H8v-2h2V18z M10,15H8v-4h2
	V15z M13,18h-2v-4h2V18z M13,13h-2v-2h2V13z M16,18h-2v-2h2V18z M16,15h-2v-4h2V15z"/>
</svg>
