<?xml version="1.0" encoding="utf-8"?>
<!-- Generator: Adobe Illustrator 22.1.0, SVG Export Plug-In . SVG Version: 6.00 Build 0)  -->
<svg version="1.1" id="Ebene_1" xmlns="http://www.w3.org/2000/svg" xmlns:xlink="http://www.w3.org/1999/xlink" x="0px" y="0px"
	 width="24px" height="24px" viewBox="0 0 24 24" enable-background="new 0 0 24 24" xml:space="preserve">
<path fill="#FFFFFF" d="M20,4h-3l-2-2H9L7,4H4C2.9,4,2,4.9,2,6v12c0,1.1,0.9,2,2,2h16c1.1,0,2-0.9,2-2V6C22,4.9,21.1,4,20,4z M16,17
	H4V7h12V17z M20,14c0,0.6-0.4,1-1,1c-0.6,0-1-0.4-1-1v0c0-0.6,0.4-1,1-1C19.6,13,20,13.5,20,14L20,14z M20,11c0,0.6-0.4,1-1,1
	c-0.6,0-1-0.4-1-1v0c0-0.6,0.4-1,1-1C19.6,10,20,10.4,20,11L20,11z M20,8c0,0.6-0.4,1-1,1c-0.6,0-1-0.4-1-1v0c0-0.6,0.4-1,1-1
	C19.6,7,20,7.4,20,8L20,8z M11.8,11l3.2,4H5l2.5-3L9,14L11.8,11z M6,9c0.6,0,1,0.4,1,1s-0.4,1-1,1s-1-0.4-1-1S5.4,9,6,9z"/>
</svg>
