<?xml version="1.0" encoding="utf-8"?>
<!-- Generator: Adobe Illustrator 22.1.0, SVG Export Plug-In . SVG Version: 6.00 Build 0)  -->
<svg version="1.1" id="Ebene_1" xmlns="http://www.w3.org/2000/svg" xmlns:xlink="http://www.w3.org/1999/xlink" x="0px" y="0px"
	 width="24px" height="24px" viewBox="0 0 24 24" enable-background="new 0 0 24 24" xml:space="preserve">
<path fill="#FFFFFF" d="M5.6,18C4.7,18,4,17.3,4,16.5V8H3.6C2.7,8,2,8.7,2,9.5v8.9C2,19.3,2.7,20,3.6,20h12.8c0.9,0,1.6-0.7,1.6-1.5
	V18H5.6z"/>
<path fill="#FFFFFF" d="M20.4,4H7.6C6.7,4,6,4.7,6,5.5v8.9C6,15.3,6.7,16,7.6,16h12.8c0.9,0,1.6-0.7,1.6-1.5V5.5
	C22,4.7,21.3,4,20.4,4z M9.5,6C10.3,6,11,6.7,11,7.5S10.3,9,9.5,9S8,8.3,8,7.5S8.7,6,9.5,6z M8,14l3-4l2.1,3l3-4l3.9,5H8z"/>
</svg>
