<?xml version="1.0" encoding="utf-8"?>
<!-- Generator: Adobe Illustrator 22.1.0, SVG Export Plug-In . SVG Version: 6.00 Build 0)  -->
<svg version="1.1" id="Ebene_1" xmlns="http://www.w3.org/2000/svg" xmlns:xlink="http://www.w3.org/1999/xlink" x="0px" y="0px"
	 width="24px" height="24px" viewBox="0 0 24 24" enable-background="new 0 0 24 24" xml:space="preserve">
<path fill="#FFFFFF" d="M14.2,4l1.4,1.4L16.2,6H17h3v12H4V6h3h0.8l0.6-0.6L9.8,4H14.2 M15,2H9L7,4H4C2.9,4,2,4.9,2,6v12
	c0,1.1,0.9,2,2,2h16c1.1,0,2-0.9,2-2V6c0-1.1-0.9-2-2-2h-3L15,2L15,2z"/>
<path fill="#FFFFFF" d="M8.1,11c0.5-1.7,2.1-3,3.9-3c1.1,0,2,0.4,2.7,1.1L15.9,8v3h-3L14,9.8C13.5,9.3,12.8,9,12,9
	c-1.3,0-2.4,0.8-2.8,2H8.1z M14.8,13c-0.4,1.2-1.5,2-2.8,2c-0.8,0-1.5-0.3-2-0.8l1.1-1.2h-3v3l1.2-1.1C10,15.6,10.9,16,12,16
	c1.9,0,3.5-1.3,3.9-3H14.8z"/>
</svg>
