<?xml version="1.0" encoding="utf-8"?>
<!-- Generator: Adobe Illustrator 22.1.0, SVG Export Plug-In . SVG Version: 6.00 Build 0)  -->
<svg version="1.1" id="Ebene_1" xmlns="http://www.w3.org/2000/svg" xmlns:xlink="http://www.w3.org/1999/xlink" x="0px" y="0px"
	 width="24px" height="24px" viewBox="0 0 24 24" enable-background="new 0 0 24 24" xml:space="preserve">
<path fill="#FFFFFF" d="M9,6v1v2h2h9v9H4V6H9 M9,4H4C2.9,4,2,4.9,2,6v12c0,1.1,0.9,2,2,2h16c1.1,0,2-0.9,2-2V7H11V6
	C11,4.9,10.1,4,9,4L9,4z"/>
<path fill="#FFFFFF" d="M22,6h-9v0c0-1.1,0.9-2,2-2h5C21.1,4,22,4.9,22,6L22,6z"/>
</svg>
