<?xml version="1.0" encoding="utf-8"?>
<!-- Generator: Adobe Illustrator 22.1.0, SVG Export Plug-In . SVG Version: 6.00 Build 0)  -->
<svg version="1.1" id="Ebene_1" xmlns="http://www.w3.org/2000/svg" xmlns:xlink="http://www.w3.org/1999/xlink" x="0px" y="0px"
	 width="24px" height="24px" viewBox="0 0 24 24" enable-background="new 0 0 24 24" xml:space="preserve">
<path fill="#FFFFFF" d="M19.4,6.2l0.9-1.5l-1.5,0.9C16.9,3.9,14.5,3,12,3C9.3,3,6.8,4,4.9,5.9C3,7.8,2,10.3,2,13
	c0,2.7,1,5.2,2.9,7.1c0.2,0.2,0.5,0.3,0.7,0.3s0.5-0.1,0.7-0.3c0.4-0.4,0.4-1,0-1.4C5,17.3,4.1,15.4,4,13.5h1.5
	C5.8,13.5,6,13.3,6,13s-0.2-0.5-0.5-0.5H4c0.1-1.8,0.8-3.4,2-4.8l1,1c0.1,0.1,0.2,0.1,0.4,0.1s0.3,0,0.4-0.1C8,8.6,8,8.2,7.8,8.1
	l-1-1c1.3-1.2,3-1.9,4.8-2v1.5C11.5,6.8,11.7,7,12,7s0.5-0.2,0.5-0.5V5c1.6,0.1,3.1,0.7,4.4,1.7l-6.4,3.7C9.6,10.9,9,11.9,9,13
	c0,1.7,1.3,3,3,3c1.2,0,2.2-0.7,2.7-1.7l3.6-6.3c1,1.3,1.6,2.8,1.7,4.4h-1.5c-0.3,0-0.5,0.2-0.5,0.5s0.2,0.5,0.5,0.5H20
	c-0.1,1.9-0.9,3.7-2.3,5.2c-0.4,0.4-0.4,1,0,1.4s1,0.4,1.4,0C21,18.2,22,15.7,22,13C22,10.5,21.1,8.1,19.4,6.2z"/>
</svg>
