<?xml version="1.0" encoding="utf-8"?>
<!-- Generator: Adobe Illustrator 22.1.0, SVG Export Plug-In . SVG Version: 6.00 Build 0)  -->
<svg version="1.1" id="Ebene_1" xmlns="http://www.w3.org/2000/svg" xmlns:xlink="http://www.w3.org/1999/xlink" x="0px" y="0px"
	 width="24px" height="24px" viewBox="0 0 24 24" enable-background="new 0 0 24 24" xml:space="preserve">
<g>
	<path fill="#FFFFFF" d="M8,15H6V4h6v1h2V4c0-1.1-0.9-2-2-2H6C4.9,2,4,2.9,4,4v11c0,1.1,0.9,2,2,2h2V15z"/>
	<path fill="#FFFFFF" d="M18,7h-4h-2c-1.1,0-2,0.9-2,2v8v1v2c0,1.1,0.9,2,2,2h6c1.1,0,2-0.9,2-2V9C20,7.9,19.1,7,18,7z M16,21h-2v-1
		h2V21z M18,19h-6V9h6V19z"/>
</g>
</svg>
