<?xml version="1.0" encoding="utf-8"?>
<!-- Generator: Adobe Illustrator 22.1.0, SVG Export Plug-In . SVG Version: 6.00 Build 0)  -->
<svg version="1.1" id="Ebene_1" xmlns="http://www.w3.org/2000/svg" xmlns:xlink="http://www.w3.org/1999/xlink" x="0px" y="0px"
	 width="48px" height="48px" viewBox="0 0 48 48" enable-background="new 0 0 48 48" xml:space="preserve">
<path fill="#FFFFFF" d="M24,4C13,4,4,13,4,24s9,20,20,20s20-9,20-20S35,4,24,4z M24,40c-8.8,0-16-7.2-16-16S15.2,8,24,8
	s16,7.2,16,16S32.8,40,24,40z"/>
<g>
	<path fill="#FFFFFF" d="M22,27.6c0-1.3,0.1-2.3,0.4-3.1c0.3-0.8,0.8-1.4,1.4-2c0.7-0.6,1.2-1.1,1.5-1.5c0.3-0.5,0.5-1,0.5-1.5
		c0-1.4-0.6-2-1.7-2c-0.5,0-1,0.2-1.3,0.6c-0.3,0.4-0.5,0.9-0.5,1.6h-4.5c0-1.8,0.6-3.2,1.7-4.2c1.1-1,2.7-1.5,4.7-1.5
		c2,0,3.5,0.5,4.6,1.4s1.6,2.2,1.6,3.9c0,0.7-0.1,1.4-0.4,2c-0.3,0.6-0.8,1.2-1.4,1.9l-1.5,1.4c-0.4,0.4-0.7,0.8-0.8,1.3
		c-0.2,0.4-0.2,1-0.2,1.7H22z"/>
</g>
<rect x="22" y="30" fill="#FFFFFF" width="4" height="4"/>
</svg>
