<?xml version="1.0" encoding="utf-8"?>
<!-- Generator: Adobe Illustrator 22.1.0, SVG Export Plug-In . SVG Version: 6.00 Build 0)  -->
<svg version="1.1" id="Ebene_1" xmlns="http://www.w3.org/2000/svg" xmlns:xlink="http://www.w3.org/1999/xlink" x="0px" y="0px"
	 width="24px" height="24px" viewBox="0 0 24 24" enable-background="new 0 0 24 24" xml:space="preserve">
<path fill="#FFFFFF" d="M18,8h-1V6c0-2.8-2.2-5-5-5S7,3.2,7,6h2c0-1.7,1.3-3,3-3s3,1.3,3,3v2H6c-1.1,0-2,0.9-2,2v10c0,1.1,0.9,2,2,2
	h12c1.1,0,2-0.9,2-2V10C20,8.9,19.1,8,18,8z M18,20H6V10h9h2h1V20z M14,15c0,1.1-0.9,2-2,2s-2-0.9-2-2s0.9-2,2-2S14,13.9,14,15z"/>
</svg>
