<?xml version="1.0" encoding="utf-8"?>
<!-- Generator: Adobe Illustrator 22.1.0, SVG Export Plug-In . SVG Version: 6.00 Build 0)  -->
<svg version="1.1" id="Ebene_1" xmlns="http://www.w3.org/2000/svg" xmlns:xlink="http://www.w3.org/1999/xlink" x="0px" y="0px"
	 width="24px" height="24px" viewBox="0 0 24 24" enable-background="new 0 0 24 24" xml:space="preserve">
<path fill="#FFFFFF" d="M12,8c-2.2,0-4,1.8-4,4s1.8,4,4,4s4-1.8,4-4S14.2,8,12,8z M10.8,14.7V9.3l3.6,2.7L10.8,14.7z M16,4H4
	C2.9,4,2,4.9,2,6v12c0,1.1,0.9,2,2,2h16c1.1,0,2-0.9,2-2v-8L16,4z M4,18V6h11.2H16v4h4v8H4z"/>
</svg>
