<?xml version="1.0" encoding="utf-8"?>
<!-- Generator: Adobe Illustrator 22.1.0, SVG Export Plug-In . SVG Version: 6.00 Build 0)  -->
<svg version="1.1" id="Ebene_1" xmlns="http://www.w3.org/2000/svg" xmlns:xlink="http://www.w3.org/1999/xlink" x="0px" y="0px"
	 width="24px" height="24px" viewBox="0 0 24 24" enable-background="new 0 0 24 24" xml:space="preserve">
<g>
	<circle fill="#FFFFFF" cx="12" cy="9" r="3"/>
	<path fill="#FFFFFF" d="M19.8,19.5l-3.1-5.3C18.1,12.9,19,11.1,19,9c0-3.9-3.1-7-7-7S5,5.1,5,9c0,2.1,0.9,3.9,2.3,5.2l-3.1,5.3
		C3.6,20.6,4.4,22,5.7,22h12.6C19.6,22,20.4,20.6,19.8,19.5z M7,9c0-2.8,2.2-5,5-5s5,2.2,5,5s-2.2,5-5,5S7,11.8,7,9z M6.2,20L9,15.3
		c0.9,0.4,1.9,0.7,3,0.7c1.1,0,2.1-0.2,3-0.7l2.7,4.7H6.2z"/>
</g>
</svg>
