<?xml version="1.0" encoding="utf-8"?>
<!-- Generator: Adobe Illustrator 24.1.3, SVG Export Plug-In . SVG Version: 6.00 Build 0)  -->
<svg version="1.1" xmlns="http://www.w3.org/2000/svg" xmlns:xlink="http://www.w3.org/1999/xlink" x="0px" y="0px" width="3200px"
	 height="1800px" viewBox="0 0 3200 1800" enable-background="new 0 0 3200 1800" xml:space="preserve">
<g id="BACKGROUND">
	
		<radialGradient id="SPACE_1_" cx="1740.0322" cy="1005.6584" r="649.0377" gradientTransform="matrix(2 0 0 3 -1880.0643 -2116.9751)" gradientUnits="userSpaceOnUse">
		<stop  offset="0" style="stop-color:#6428B4"/>
		<stop  offset="0.8" style="stop-color:#4B1E87"/>
	</radialGradient>
	<rect id="SPACE" fill="url(#SPACE_1_)" width="3200" height="1800"/>
	<path opacity="0.2" fill="#32195A" d="M3200,1800h-820c-21.9-37.3-56-72-113.1-94.5c-275.3-108.2-356.1-156-492.4-289.8
		c-136.3-133.8-216.6-55.7-370.4,107.7c-55.1,58.6-99.3,171.8-147.1,276.5H622.7c342.6-229.7,818-573.5,670.5-611.5
		c-192.9-49.7-229.3-371.6-482.1-129.8c-143.3,137.1-326.7,226.9-627.9,260.3c-23.5,3.6-57.6,5.9-57.6,5.9c-9,0.6-44.9-0.1-59.7-0.5
		c-4.2-0.1-8.4-0.3-12.6-0.7c-18.2-1.6-36-3.4-53.4-5.4V967.9c23,2.7,46.5,5.2,70.5,7.4c16,1.5,32,1.5,48,0
		c199.6-18.4,367.9-53.8,416.1-118.7C673.8,669,855,757.4,1141.8,755.9c286.8-1.5,53.4-114.4,135.1-143.4
		c81.8-29,735.2-14.4,637.3-45.9c-97.8-31.4-726.5-195.7-709.2-132.1c17.3,63.5,42.7,32.5-237,53.1s-314.6,22.3-490,6.7
		c-61.6-5.5-65.1-5.2-124.5-15.3C285,467.4,233,444.5,197.4,421.4c-38.4-24.9-86-26.6-125.8-4.3c-24.2,13.6-47.9,23-71.6,30.2V0
		h555.4c157.1,103.6,441.1,267.5,663.5,266.1c325-2.1,347,173.1,734.3,161.7c225.3-6.6,412.9,10.9,530.3,26.8
		c83.9,11.3,163,47.9,228.2,105.2c0.5,0.4,0.9,0.8,1.4,1.2c10.7,9.4,23.1,14.8,37,17.7c-98.5,12-191.4,27.7-207.3,33.8
		c-39.2,15-97.8,46.2-184.4,108.7c-223.3,161.3-1016.7,127.4-874,309.8c198.5,253.6,492.8,147.1,608.1,254.8
		c67,62.6,206.7,173.6,337.4,273.7c94.7,72.5,219.3,86.1,324.8,32.9c32-16.1,68.6-29.4,108.8-35.5c86.2-13,207,71.4,336.6,131.9
		V1800z M3038.3,652c57.8,63.4,112.3,94.6,161.7,117.1V664.7c-97.6-32.4-194-65-194-88c0-22.5-132.4-13.1-256,2
		C2823.6,594.3,2937.4,541.2,3038.3,652z M2656.5,1098.1c27.4-8.4,60-22.8,94-47.4c91-66,185.5-2.7,300.7-95.6
		c39.9-32.2,95.8-48.1,148.8-57.9V789.6c-207.8,19-503.1,32.2-517,42.2c-91,66-367.1-14.4-482.3,78.6
		c-115.2,93-364.1,50.4-288.6,114.4c75.6,64,181.5,57,301.5,188.7c120,131.7,258,31.9,325.3,91.1c38.3,33.7,58.1,52.1,68,61.7
		c4,3.9,7.6,8.1,10.8,12.8c13,18.6,97.2,92.5,582.3,65.3v-406.8c-126.9,24.4-242.2,56.2-306.5,106.8
		c-75.7,59.6-132.6,90.8-174.5,106.1c-50.4,18.5-157.9-44.5-157.9-101.1C2561.1,1122.8,2632.6,1105.5,2656.5,1098.1z M1613.7,1675.8
		c-53.5,16.1-89.2,63.5-116.4,124.2h614.5C2016.9,1696.1,1777.2,1626.6,1613.7,1675.8z M3110.5,22.5c15.9,33.8,47.8,65.4,89.5,92.6
		V0h-100.2C3105.5,11.9,3109.7,20.8,3110.5,22.5z M369.8,1649.8c-69.8,22.8-148.3,37.8-230.6,47.1c-29.7,3.3-59.6,3.3-89.2,0
		c-16.8-1.9-33.5-4-50-6.4V1800h396.5C596,1688.8,741.1,1528.3,369.8,1649.8z M1770.4,128c220.9-61.1,470.2,202.9,618,180.6
		c66.2-10,118.8-40.5,156.7-71.2c49.8-40.2,118.6-41,170-3.1c158,116.3,364.2,270.6,444.3,345.4c11.8,11,25.4,19.7,40.6,26.9V268.7
		c-58.1-28.2-127.1-61.4-215-108.8c-50.3-27.2-90-97.9-117.8-160H1184.3C1365.2,74.3,1632.3,166.2,1770.4,128z M91,864.8
		c84-13.4,168.7-22.9,251.5-50.1C469.5,773.1,541,680.1,596,641.8c55-38.3-190.2,5.1-369.5,0c0,0-141.9-1.4-226.5-0.6V860
		c7.7,1.5,16,3,25.4,4.5C47.1,868.2,69.3,868.3,91,864.8z"/>
	<path opacity="0.3" fill="#C08AFF" d="M194.5,1595.4v1.2c0,1.3,1.4,2.4,3.1,2.4c1.7,0,3.1-1.2,3.1-2.4v-1.2c0-1.3-1.4-2.4-3.1-2.4
		C195.9,1593,194.5,1594.1,194.5,1595.4z M557.8,1617.8v1.2c0,1.3,1.4,2.4,3.1,2.4s3.1-1.2,3.1-2.4v-1.2c0-1.3-1.4-2.4-3.1-2.4
		S557.8,1616.5,557.8,1617.8z M203.7,1484.9v1.2c0,1.3,1.4,2.4,3.1,2.4s3.1-1.2,3.1-2.4v-1.2c0-1.3-1.4-2.4-3.1-2.4
		S203.7,1483.6,203.7,1484.9z M260.2,1628.5v1.2c0,1.3,1.4,2.4,3.1,2.4c1.7,0,3.1-1.2,3.1-2.4v-1.2c0-1.3-1.4-2.4-3.1-2.4
		C261.6,1626,260.2,1627.2,260.2,1628.5z M198.1,1727.6v1.2c0,1.3,1.4,2.4,3.1,2.4c1.7,0,3.1-1.2,3.1-2.4v-1.2
		c0-1.3-1.4-2.4-3.1-2.4C199.4,1725.2,198.1,1726.3,198.1,1727.6z M150.5,1303.5v1.2c0,1.3,1.4,2.4,3.1,2.4s3.1-1.2,3.1-2.4v-1.2
		c0-1.3-1.4-2.4-3.1-2.4S150.5,1302.2,150.5,1303.5z M117.9,925.3v1.2c0,1.3,1.4,2.4,3.1,2.4c1.7,0,3.1-1.2,3.1-2.4v-1.2
		c0-1.3-1.4-2.4-3.1-2.4C119.3,922.8,117.9,924,117.9,925.3z M592.5,1725.5v1.2c0,1.3,1.4,2.4,3.1,2.4s3.1-1.2,3.1-2.4v-1.2
		c0-1.3-1.4-2.4-3.1-2.4S592.5,1724.2,592.5,1725.5z M269.2,1566.7v1.2c0,1.3,1.4,2.4,3.1,2.4c1.7,0,3.1-1.2,3.1-2.4v-1.2
		c0-1.3-1.4-2.4-3.1-2.4C270.6,1564.3,269.2,1565.4,269.2,1566.7z M182.8,1399.4v1.2c0,1.3,1.4,2.4,3.1,2.4c1.7,0,3.1-1.2,3.1-2.4
		v-1.2c0-1.3-1.4-2.4-3.1-2.4C184.1,1396.9,182.8,1398.1,182.8,1399.4z M224.5,1432.1v1.2c0,1.3,1.4,2.4,3.1,2.4
		c1.7,0,3.1-1.2,3.1-2.4v-1.2c0-1.3-1.4-2.4-3.1-2.4C225.9,1429.7,224.5,1430.8,224.5,1432.1z M515.2,1521v1.2
		c0,1.3,1.4,2.4,3.1,2.4c1.7,0,3.1-1.2,3.1-2.4v-1.2c0-1.3-1.4-2.4-3.1-2.4C516.6,1518.5,515.2,1519.7,515.2,1521z M520.4,1439v1.2
		c0,1.3,1.4,2.4,3.1,2.4c1.7,0,3.1-1.2,3.1-2.4v-1.2c0-1.3-1.4-2.4-3.1-2.4C521.7,1436.5,520.4,1437.7,520.4,1439z M575,1481.5v1.2
		c0,1.3,1.4,2.4,3.1,2.4c1.7,0,3.1-1.2,3.1-2.4v-1.2c0-1.3-1.4-2.4-3.1-2.4C576.4,1479.1,575,1480.2,575,1481.5z M651.4,1647.6v1.2
		c0,1.3,1.4,2.4,3.1,2.4c1.7,0,3.1-1.2,3.1-2.4v-1.2c0-1.3-1.4-2.4-3.1-2.4C652.7,1645.2,651.4,1646.3,651.4,1647.6z M24.5,1251.5
		v1.2c0,1.3,1.4,2.4,3.1,2.4c1.7,0,3.1-1.2,3.1-2.4v-1.2c0-1.3-1.4-2.4-3.1-2.4C25.9,1249,24.5,1250.2,24.5,1251.5z M5,1334.6v1.2
		c0,1.3,1.4,2.4,3.1,2.4c1.7,0,3.1-1.2,3.1-2.4v-1.2c0-1.3-1.4-2.4-3.1-2.4C6.4,1332.2,5,1333.3,5,1334.6z M97.7,1228.3v1.2
		c0,1.3,1.4,2.4,3.1,2.4c1.7,0,3.1-1.2,3.1-2.4v-1.2c0-1.3-1.4-2.4-3.1-2.4C99.1,1225.8,97.7,1227,97.7,1228.3z M22.8,965.7v1.2
		c0,1.3,1.4,2.4,3.1,2.4c1.7,0,3.1-1.2,3.1-2.4v-1.2c0-1.3-1.4-2.4-3.1-2.4C24.2,963.3,22.8,964.4,22.8,965.7z M57.7,1094.9v1.2
		c0,1.3,1.4,2.4,3.1,2.4c1.7,0,3.1-1.2,3.1-2.4v-1.2c0-1.3-1.4-2.4-3.1-2.4C59,1092.4,57.7,1093.6,57.7,1094.9z M105.5,1544.9v1.2
		c0,1.3,1.4,2.4,3.1,2.4c1.7,0,3.1-1.2,3.1-2.4v-1.2c0-1.3-1.4-2.4-3.1-2.4C106.9,1542.4,105.5,1543.6,105.5,1544.9z M893.1,957.3
		c1.7,0,3.1,1.2,3.1,2.4v1.2c0,1.3-1.4,2.4-3.1,2.4s-3.1-1.2-3.1-2.4v-1.2C890,958.5,891.3,957.3,893.1,957.3z M802.2,1065.6v1.2
		c0,1.3,1.4,2.4,3.1,2.4s3.1-1.2,3.1-2.4v-1.2c0-1.3-1.4-2.4-3.1-2.4S802.2,1064.3,802.2,1065.6z M990.4,1129.7v1.2
		c0,1.3,1.4,2.4,3.1,2.4c1.7,0,3.1-1.2,3.1-2.4v-1.2c0-1.3-1.4-2.4-3.1-2.4C991.8,1127.3,990.4,1128.4,990.4,1129.7z M1181.2,1075.5
		v1.2c0,1.3,1.4,2.4,3.1,2.4c1.7,0,3.1-1.2,3.1-2.4v-1.2c0-1.3-1.4-2.4-3.1-2.4C1182.6,1073,1181.2,1074.2,1181.2,1075.5z
		 M832.4,1103.2v1.2c0,1.3,1.4,2.4,3.1,2.4c1.7,0,3.1-1.2,3.1-2.4v-1.2c0-1.3-1.4-2.4-3.1-2.4
		C833.8,1100.8,832.4,1101.9,832.4,1103.2z M677,1522.7v1.2c0,1.3,1.4,2.4,3.1,2.4s3.1-1.2,3.1-2.4v-1.2c0-1.3-1.4-2.4-3.1-2.4
		S677,1521.4,677,1522.7z M889.7,1290.8v1.2c0,1.3,1.4,2.4,3.1,2.4c1.7,0,3.1-1.2,3.1-2.4v-1.2c0-1.3-1.4-2.4-3.1-2.4
		C891.1,1288.3,889.7,1289.5,889.7,1290.8z M1231.3,1576.8v1.2c0,1.3,1.4,2.4,3.1,2.4c1.7,0,3.1-1.2,3.1-2.4v-1.2
		c0-1.3-1.4-2.4-3.1-2.4C1232.6,1574.4,1231.3,1575.5,1231.3,1576.8z M1006.9,1245.1v1.2c0,1.3,1.4,2.4,3.1,2.4s3.1-1.2,3.1-2.4
		v-1.2c0-1.3-1.4-2.4-3.1-2.4S1006.9,1243.8,1006.9,1245.1z M1418.5,1717.2v1.2c0,1.3,1.4,2.4,3.1,2.4s3.1-1.2,3.1-2.4v-1.2
		c0-1.3-1.4-2.4-3.1-2.4S1418.5,1715.9,1418.5,1717.2z M1240.5,1466.3v1.2c0,1.3,1.4,2.4,3.1,2.4c1.7,0,3.1-1.2,3.1-2.4v-1.2
		c0-1.3-1.4-2.4-3.1-2.4C1241.9,1463.9,1240.5,1465,1240.5,1466.3z M1297,1609.9v1.2c0,1.3,1.4,2.4,3.1,2.4c1.7,0,3.1-1.2,3.1-2.4
		v-1.2c0-1.3-1.4-2.4-3.1-2.4C1298.4,1607.4,1297,1608.6,1297,1609.9z M1326.7,1696v1.2c0,1.3,1.4,2.4,3.1,2.4s3.1-1.2,3.1-2.4v-1.2
		c0-1.3-1.4-2.4-3.1-2.4S1326.7,1694.7,1326.7,1696z M1155.6,1739.8v1.2c0,1.3,1.4,2.4,3.1,2.4c1.7,0,3.1-1.2,3.1-2.4v-1.2
		c0-1.3-1.4-2.4-3.1-2.4C1157,1737.4,1155.6,1738.6,1155.6,1739.8z M816.4,1734.5v1.2c0,1.3,1.4,2.4,3.1,2.4s3.1-1.2,3.1-2.4v-1.2
		c0-1.3-1.4-2.4-3.1-2.4S816.4,1733.2,816.4,1734.5z M952.3,1627.9v1.2c0,1.3,1.4,2.4,3.1,2.4c1.7,0,3.1-1.2,3.1-2.4v-1.2
		c0-1.3-1.4-2.4-3.1-2.4C953.7,1625.4,952.3,1626.6,952.3,1627.9z M798.8,1308.9v1.2c0,1.3,1.4,2.4,3.1,2.4c1.7,0,3.1-1.2,3.1-2.4
		v-1.2c0-1.3-1.4-2.4-3.1-2.4C800.2,1306.4,798.8,1307.6,798.8,1308.9z M1425.6,1371.9v1.2c0,1.3,1.4,2.4,3.1,2.4
		c1.7,0,3.1-1.2,3.1-2.4v-1.2c0-1.3-1.4-2.4-3.1-2.4C1426.9,1369.5,1425.6,1370.7,1425.6,1371.9z M1429.5,1006v1.2
		c0,1.3,1.4,2.4,3.1,2.4c1.7,0,3.1-1.2,3.1-2.4v-1.2c0-1.3-1.4-2.4-3.1-2.4C1430.9,1003.6,1429.5,1004.7,1429.5,1006z M1249.5,987.3
		v1.2c0,1.3,1.4,2.4,3.1,2.4c1.7,0,3.1-1.2,3.1-2.4v-1.2c0-1.3-1.4-2.4-3.1-2.4C1250.8,984.9,1249.5,986,1249.5,987.3z
		 M1169.5,959.2v1.2c0,1.3,1.4,2.4,3.1,2.4c1.7,0,3.1-1.2,3.1-2.4v-1.2c0-1.3-1.4-2.4-3.1-2.4
		C1170.9,956.7,1169.5,957.9,1169.5,959.2z M1289.9,958.2v1.2c0,1.3,1.4,2.4,3.1,2.4s3.1-1.2,3.1-2.4v-1.2c0-1.3-1.4-2.4-3.1-2.4
		S1289.9,956.9,1289.9,958.2z M1291.4,1049v1.2c0,1.3,1.4,2.4,3.1,2.4c1.7,0,3.1-1.2,3.1-2.4v-1.2c0-1.3-1.4-2.4-3.1-2.4
		C1292.7,1046.6,1291.4,1047.7,1291.4,1049z M978.8,988.9v1.2c0,1.3,1.4,2.4,3.1,2.4c1.7,0,3.1-1.2,3.1-2.4v-1.2
		c0-1.3-1.4-2.4-3.1-2.4C980.2,986.5,978.8,987.6,978.8,988.9z M826.3,944.6v1.2c0,1.3,1.4,2.4,3.1,2.4c1.7,0,3.1-1.2,3.1-2.4v-1.2
		c0-1.3-1.4-2.4-3.1-2.4C827.6,942.2,826.3,943.3,826.3,944.6z M993.8,915.6v1.2c0,1.3,1.4,2.4,3.1,2.4c1.7,0,3.1-1.2,3.1-2.4v-1.2
		c0-1.3-1.4-2.4-3.1-2.4C995.1,913.2,993.8,914.3,993.8,915.6z M881.2,1355.5v1.2c0,1.3,1.4,2.4,3.1,2.4c1.7,0,3.1-1.2,3.1-2.4v-1.2
		c0-1.3-1.4-2.4-3.1-2.4C882.6,1353.1,881.2,1354.2,881.2,1355.5z M825.4,1432.6v1.2c0,1.3,1.4,2.4,3.1,2.4c1.7,0,3.1-1.2,3.1-2.4
		v-1.2c0-1.3-1.4-2.4-3.1-2.4C826.8,1430.1,825.4,1431.3,825.4,1432.6z M811.8,1659.7v1.2c0,1.3,1.4,2.4,3.1,2.4
		c1.7,0,3.1-1.2,3.1-2.4v-1.2c0-1.3-1.4-2.4-3.1-2.4C813.1,1657.2,811.8,1658.4,811.8,1659.7z M934.8,1687.7v1.2
		c0,1.3,1.4,2.4,3.1,2.4c1.7,0,3.1-1.2,3.1-2.4v-1.2c0-1.3-1.4-2.4-3.1-2.4C936.2,1685.2,934.8,1686.4,934.8,1687.7z M1247.7,1769.2
		v1.2c0,1.3,1.4,2.4,3.1,2.4s3.1-1.2,3.1-2.4v-1.2c0-1.3-1.4-2.4-3.1-2.4S1247.7,1767.9,1247.7,1769.2z M1306,1548.1v1.2
		c0,1.3,1.4,2.4,3.1,2.4c1.7,0,3.1-1.2,3.1-2.4v-1.2c0-1.3-1.4-2.4-3.1-2.4C1307.3,1545.7,1306,1546.8,1306,1548.1z M1219.5,1380.8
		v1.2c0,1.3,1.4,2.4,3.1,2.4s3.1-1.2,3.1-2.4v-1.2c0-1.3-1.4-2.4-3.1-2.4S1219.5,1379.5,1219.5,1380.8z M1261.3,1413.5v1.2
		c0,1.3,1.4,2.4,3.1,2.4c1.7,0,3.1-1.2,3.1-2.4v-1.2c0-1.3-1.4-2.4-3.1-2.4C1262.6,1411.1,1261.3,1412.3,1261.3,1413.5z
		 M1320,1301.6v1.2c0,1.3,1.4,2.4,3.1,2.4c1.7,0,3.1-1.2,3.1-2.4v-1.2c0-1.3-1.4-2.4-3.1-2.4C1321.4,1299.2,1320,1300.3,1320,1301.6
		z M1094.6,1312.7v1.2c0,1.3,1.4,2.4,3.1,2.4c1.7,0,3.1-1.2,3.1-2.4v-1.2c0-1.3-1.4-2.4-3.1-2.4
		C1096,1310.3,1094.6,1311.4,1094.6,1312.7z M988.6,1291.6v1.2c0,1.3,1.4,2.4,3.1,2.4c1.7,0,3.1-1.2,3.1-2.4v-1.2
		c0-1.3-1.4-2.4-3.1-2.4C989.9,1289.2,988.6,1290.3,988.6,1291.6z M1040.7,1516.3v1.2c0,1.3,1.4,2.4,3.1,2.4s3.1-1.2,3.1-2.4v-1.2
		c0-1.3-1.4-2.4-3.1-2.4S1040.7,1515,1040.7,1516.3z M1185.5,1238.3v1.2c0,1.3,1.4,2.4,3.1,2.4c1.7,0,3.1-1.2,3.1-2.4v-1.2
		c0-1.3-1.4-2.4-3.1-2.4C1186.9,1235.8,1185.5,1237,1185.5,1238.3z M1377.7,1145.7v1.2c0,1.3,1.4,2.4,3.1,2.4c1.7,0,3.1-1.2,3.1-2.4
		v-1.2c0-1.3-1.4-2.4-3.1-2.4C1379,1143.2,1377.7,1144.4,1377.7,1145.7z M1325.2,1219.6v1.2c0,1.3,1.4,2.4,3.1,2.4s3.1-1.2,3.1-2.4
		v-1.2c0-1.3-1.4-2.4-3.1-2.4S1325.2,1218.3,1325.2,1219.6z M1379.8,1262.2v1.2c0,1.3,1.4,2.4,3.1,2.4c1.7,0,3.1-1.2,3.1-2.4v-1.2
		c0-1.3-1.4-2.4-3.1-2.4C1381.2,1259.8,1379.8,1260.9,1379.8,1262.2z M1465.7,1415.5v1.2c0,1.3,1.4,2.4,3.1,2.4
		c1.7,0,3.1-1.2,3.1-2.4v-1.2c0-1.3-1.4-2.4-3.1-2.4C1467.1,1413.1,1465.7,1414.2,1465.7,1415.5z M1465.3,951.5v1.2
		c0,1.3,1.4,2.4,3.1,2.4c1.7,0,3.1-1.2,3.1-2.4v-1.2c0-1.3-1.4-2.4-3.1-2.4C1466.7,949,1465.3,950.2,1465.3,951.5z M1355.8,1013.2
		v1.2c0,1.3,1.4,2.4,3.1,2.4c1.7,0,3.1-1.2,3.1-2.4v-1.2c0-1.3-1.4-2.4-3.1-2.4C1357.1,1010.7,1355.8,1011.9,1355.8,1013.2z
		 M1001.5,956v1.2c0,1.3,1.4,2.4,3.1,2.4c1.7,0,3.1-1.2,3.1-2.4V956c0-1.3-1.4-2.4-3.1-2.4C1002.9,953.6,1001.5,954.7,1001.5,956z
		 M1070.8,1700.5c-0.6,1.8,2.7,3.4,5.1,3c1.9-0.3,2.5-1.6,2.3-2.9c-0.4-2.2-4.5-2.6-6.4-1.2
		C1071.3,1699.7,1071,1700.1,1070.8,1700.5z M1093.9,1798.2v1.2c0,1.3,1.4,2.4,3.1,2.4c1.7,0,3.1-1.2,3.1-2.4v-1.2
		c0-1.3-1.4-2.4-3.1-2.4C1095.3,1795.8,1093.9,1796.9,1093.9,1798.2z M452.9,976.4c1.7,0,3.1-1.2,3.1-2.4v-1.2
		c0-1.3-1.4-2.4-3.1-2.4c-1.7,0-3.1,1.2-3.1,2.4v1.2C449.8,975.2,451.2,976.4,452.9,976.4z M722.7,942.2c1.7,0,3.1-1.2,3.1-2.4v-1.2
		c0-1.3-1.4-2.4-3.1-2.4c-1.7,0-3.1,1.2-3.1,2.4v1.2C719.6,941,720.9,942.2,722.7,942.2z M649.4,1100.2c1.7,0,3.1-1.2,3.1-2.4v-1.2
		c0-1.3-1.4-2.4-3.1-2.4s-3.1,1.2-3.1,2.4v1.2C646.3,1099.1,647.6,1100.2,649.4,1100.2z M751.1,1039.7c1.7,0,3.1-1.2,3.1-2.4v-1.2
		c0-1.3-1.4-2.4-3.1-2.4s-3.1,1.2-3.1,2.4v1.2C748,1038.6,749.3,1039.7,751.1,1039.7z M715.4,1188.3c1.7,0,3.1-1.2,3.1-2.4v-1.2
		c0-1.3-1.4-2.4-3.1-2.4c-1.7,0-3.1,1.2-3.1,2.4v1.2C712.3,1187.1,713.7,1188.3,715.4,1188.3z M789.1,1297.7c1.7,0,3.1-1.2,3.1-2.4
		v-1.2c0-1.3-1.4-2.4-3.1-2.4c-1.7,0-3.1,1.2-3.1,2.4v1.2C786,1296.5,787.4,1297.7,789.1,1297.7z M439,1253.9c1.7,0,3.1-1.2,3.1-2.4
		v-1.2c0-1.3-1.4-2.4-3.1-2.4s-3.1,1.2-3.1,2.4v1.2C435.9,1252.7,437.3,1253.9,439,1253.9z M588.7,1336.1c1.7,0,3.1-1.2,3.1-2.4
		v-1.2c0-1.3-1.4-2.4-3.1-2.4c-1.7,0-3.1,1.2-3.1,2.4v1.2C585.6,1334.9,586.9,1336.1,588.7,1336.1z M741.6,1721.8
		c1.7,0,3.1-1.2,3.1-2.4v-1.2c0-1.3-1.4-2.4-3.1-2.4c-1.7,0-3.1,1.2-3.1,2.4v1.2C738.5,1720.6,739.9,1721.8,741.6,1721.8z
		 M383.3,1769.2c1.7,0,3.1-1.2,3.1-2.4v-1.2c0-1.3-1.4-2.4-3.1-2.4c-1.7,0-3.1,1.2-3.1,2.4v1.2
		C380.2,1768,381.5,1769.2,383.3,1769.2z M320.8,1674.6c1.7,0,3.1-1.2,3.1-2.4v-1.2c0-1.3-1.4-2.4-3.1-2.4c-1.7,0-3.1,1.2-3.1,2.4
		v1.2C317.7,1673.5,319.1,1674.6,320.8,1674.6z M280.4,1728.7c1.7,0,3.1-1.2,3.1-2.4v-1.2c0-1.3-1.4-2.4-3.1-2.4
		c-1.7,0-3.1,1.2-3.1,2.4v1.2C277.3,1727.5,278.6,1728.7,280.4,1728.7z M601.9,1188.3c1.7,0,3.1-1.2,3.1-2.4v-1.2
		c0-1.3-1.4-2.4-3.1-2.4c-1.7,0-3.1,1.2-3.1,2.4v1.2C598.8,1187.1,600.1,1188.3,601.9,1188.3z M511.1,1112.2c1.7,0,3.1-1.2,3.1-2.4
		v-1.2c0-1.3-1.4-2.4-3.1-2.4c-1.7,0-3.1,1.2-3.1,2.4v1.2C508,1111.1,509.4,1112.2,511.1,1112.2z M391.9,1021.8
		c1.7,0,3.1-1.2,3.1-2.4v-1.2c0-1.3-1.4-2.4-3.1-2.4c-1.7,0-3.1,1.2-3.1,2.4v1.2C388.8,1020.6,390.2,1021.8,391.9,1021.8z
		 M497.2,1781.8c1.7,0,3.1-1.2,3.1-2.4v-1.2c0-1.3-1.4-2.4-3.1-2.4c-1.7,0-3.1,1.2-3.1,2.4v1.2
		C494.1,1780.6,495.5,1781.8,497.2,1781.8z M477.7,1698.6c1.7,0,3.1-1.2,3.1-2.4v-1.2c0-1.3-1.4-2.4-3.1-2.4c-1.7,0-3.1,1.2-3.1,2.4
		v1.2C474.6,1697.5,476,1698.6,477.7,1698.6z M688.8,1797c1.7,0,3.1-1.2,3.1-2.4v-1.2c0-1.3-1.4-2.4-3.1-2.4c-1.7,0-3.1,1.2-3.1,2.4
		v1.2C685.7,1795.9,687,1797,688.8,1797z M400.2,1632.6c1.7,0,3.1-1.2,3.1-2.4v-1.2c0-1.3-1.4-2.4-3.1-2.4c-1.7,0-3.1,1.2-3.1,2.4
		v1.2C397.1,1631.5,398.5,1632.6,400.2,1632.6z M335.4,1477.1v1.2c0,1.3,1.4,2.4,3.1,2.4c1.7,0,3.1-1.2,3.1-2.4v-1.2
		c0-1.3-1.4-2.4-3.1-2.4C336.8,1474.6,335.4,1475.8,335.4,1477.1z M270.9,1343.2v1.2c0,1.3,1.4,2.4,3.1,2.4c1.7,0,3.1-1.2,3.1-2.4
		v-1.2c0-1.3-1.4-2.4-3.1-2.4C272.2,1340.8,270.9,1341.9,270.9,1343.2z M328.5,1187.3v1.2c0,1.3,1.4,2.4,3.1,2.4
		c1.7,0,3.1-1.2,3.1-2.4v-1.2c0-1.3-1.4-2.4-3.1-2.4C329.9,1184.8,328.5,1186,328.5,1187.3z M276.1,1261.2v1.2
		c0,1.3,1.4,2.4,3.1,2.4c1.7,0,3.1-1.2,3.1-2.4v-1.2c0-1.3-1.4-2.4-3.1-2.4C277.4,1258.8,276.1,1259.9,276.1,1261.2z M330.7,1303.8
		v1.2c0,1.3,1.4,2.4,3.1,2.4c1.7,0,3.1-1.2,3.1-2.4v-1.2c0-1.3-1.4-2.4-3.1-2.4C332,1301.4,330.7,1302.5,330.7,1303.8z
		 M375.6,1520.6v1.2c0,1.3,1.4,2.4,3.1,2.4c1.7,0,3.1-1.2,3.1-2.4v-1.2c0-1.3-1.4-2.4-3.1-2.4
		C376.9,1518.2,375.6,1519.3,375.6,1520.6z M1516.9,1075.5v1.2c0,1.3,1.4,2.4,3.1,2.4c1.7,0,3.1-1.2,3.1-2.4v-1.2
		c0-1.3-1.4-2.4-3.1-2.4C1518.3,1073,1516.9,1074.2,1516.9,1075.5z M1567,1576.8v1.2c0,1.3,1.4,2.4,3.1,2.4c1.7,0,3.1-1.2,3.1-2.4
		v-1.2c0-1.3-1.4-2.4-3.1-2.4C1568.3,1574.4,1567,1575.5,1567,1576.8z M1754.3,1717.2v1.2c0,1.3,1.4,2.4,3.1,2.4s3.1-1.2,3.1-2.4
		v-1.2c0-1.3-1.4-2.4-3.1-2.4S1754.3,1715.9,1754.3,1717.2z M1576.2,1466.3v1.2c0,1.3,1.4,2.4,3.1,2.4c1.7,0,3.1-1.2,3.1-2.4v-1.2
		c0-1.3-1.4-2.4-3.1-2.4C1577.6,1463.9,1576.2,1465,1576.2,1466.3z M1632.7,1609.9v1.2c0,1.3,1.4,2.4,3.1,2.4c1.7,0,3.1-1.2,3.1-2.4
		v-1.2c0-1.3-1.4-2.4-3.1-2.4C1634.1,1607.4,1632.7,1608.6,1632.7,1609.9z M1662.4,1696v1.2c0,1.3,1.4,2.4,3.1,2.4s3.1-1.2,3.1-2.4
		v-1.2c0-1.3-1.4-2.4-3.1-2.4S1662.4,1694.7,1662.4,1696z M2309.8,1727.6v1.2c0,1.3,1.4,2.4,3.1,2.4s3.1-1.2,3.1-2.4v-1.2
		c0-1.3-1.4-2.4-3.1-2.4S2309.8,1726.3,2309.8,1727.6z M2037,1715.9v1.2c0,1.3,1.4,2.4,3.1,2.4c1.7,0,3.1-1.2,3.1-2.4v-1.2
		c0-1.3-1.4-2.4-3.1-2.4C2038.4,1713.4,2037,1714.6,2037,1715.9z M2109.4,1689.2v1.2c0,1.3,1.4,2.4,3.1,2.4c1.7,0,3.1-1.2,3.1-2.4
		v-1.2c0-1.3-1.4-2.4-3.1-2.4C2110.7,1686.7,2109.4,1687.9,2109.4,1689.2z M2262.3,1303.5v1.2c0,1.3,1.4,2.4,3.1,2.4
		s3.1-1.2,3.1-2.4v-1.2c0-1.3-1.4-2.4-3.1-2.4S2262.3,1302.2,2262.3,1303.5z M1761.3,1371.9v1.2c0,1.3,1.4,2.4,3.1,2.4
		c1.7,0,3.1-1.2,3.1-2.4v-1.2c0-1.3-1.4-2.4-3.1-2.4C1762.6,1369.5,1761.3,1370.7,1761.3,1371.9z M1765.3,1006v1.2
		c0,1.3,1.4,2.4,3.1,2.4c1.7,0,3.1-1.2,3.1-2.4v-1.2c0-1.3-1.4-2.4-3.1-2.4C1766.6,1003.6,1765.3,1004.7,1765.3,1006z M2229.7,925.3
		v1.2c0,1.3,1.4,2.4,3.1,2.4c1.7,0,3.1-1.2,3.1-2.4v-1.2c0-1.3-1.4-2.4-3.1-2.4C2231,922.8,2229.7,924,2229.7,925.3z M1585.2,987.3
		v1.2c0,1.3,1.4,2.4,3.1,2.4c1.7,0,3.1-1.2,3.1-2.4v-1.2c0-1.3-1.4-2.4-3.1-2.4C1586.5,984.9,1585.2,986,1585.2,987.3z
		 M1625.6,958.2v1.2c0,1.3,1.4,2.4,3.1,2.4s3.1-1.2,3.1-2.4v-1.2c0-1.3-1.4-2.4-3.1-2.4S1625.6,956.9,1625.6,958.2z M1627.1,1049
		v1.2c0,1.3,1.4,2.4,3.1,2.4c1.7,0,3.1-1.2,3.1-2.4v-1.2c0-1.3-1.4-2.4-3.1-2.4C1628.5,1046.6,1627.1,1047.7,1627.1,1049z
		 M1583.4,1769.2v1.2c0,1.3,1.4,2.4,3.1,2.4s3.1-1.2,3.1-2.4v-1.2c0-1.3-1.4-2.4-3.1-2.4S1583.4,1767.9,1583.4,1769.2z
		 M1641.7,1548.1v1.2c0,1.3,1.4,2.4,3.1,2.4c1.7,0,3.1-1.2,3.1-2.4v-1.2c0-1.3-1.4-2.4-3.1-2.4
		C1643.1,1545.7,1641.7,1546.8,1641.7,1548.1z M1555.3,1380.8v1.2c0,1.3,1.4,2.4,3.1,2.4s3.1-1.2,3.1-2.4v-1.2
		c0-1.3-1.4-2.4-3.1-2.4S1555.3,1379.5,1555.3,1380.8z M1597,1413.5v1.2c0,1.3,1.4,2.4,3.1,2.4c1.7,0,3.1-1.2,3.1-2.4v-1.2
		c0-1.3-1.4-2.4-3.1-2.4C1598.4,1411.1,1597,1412.3,1597,1413.5z M1655.7,1301.6v1.2c0,1.3,1.4,2.4,3.1,2.4c1.7,0,3.1-1.2,3.1-2.4
		v-1.2c0-1.3-1.4-2.4-3.1-2.4C1657.1,1299.2,1655.7,1300.3,1655.7,1301.6z M1521.3,1238.3v1.2c0,1.3,1.4,2.4,3.1,2.4
		c1.7,0,3.1-1.2,3.1-2.4v-1.2c0-1.3-1.4-2.4-3.1-2.4C1522.6,1235.8,1521.3,1237,1521.3,1238.3z M1713.4,1145.7v1.2
		c0,1.3,1.4,2.4,3.1,2.4c1.7,0,3.1-1.2,3.1-2.4v-1.2c0-1.3-1.4-2.4-3.1-2.4C1714.7,1143.2,1713.4,1144.4,1713.4,1145.7z
		 M1660.9,1219.6v1.2c0,1.3,1.4,2.4,3.1,2.4s3.1-1.2,3.1-2.4v-1.2c0-1.3-1.4-2.4-3.1-2.4S1660.9,1218.3,1660.9,1219.6z
		 M1715.5,1262.2v1.2c0,1.3,1.4,2.4,3.1,2.4c1.7,0,3.1-1.2,3.1-2.4v-1.2c0-1.3-1.4-2.4-3.1-2.4
		C1716.9,1259.8,1715.5,1260.9,1715.5,1262.2z M1990.9,1162.8v1.2c0,1.3,1.4,2.4,3.1,2.4c1.7,0,3.1-1.2,3.1-2.4v-1.2
		c0-1.3-1.4-2.4-3.1-2.4C1992.2,1160.3,1990.9,1161.5,1990.9,1162.8z M2017.8,1222.1v1.2c0,1.3,1.4,2.4,3.1,2.4
		c1.7,0,3.1-1.2,3.1-2.4v-1.2c0-1.3-1.4-2.4-3.1-2.4C2019.2,1219.7,2017.8,1220.8,2017.8,1222.1z M1801.5,1415.5v1.2
		c0,1.3,1.4,2.4,3.1,2.4c1.7,0,3.1-1.2,3.1-2.4v-1.2c0-1.3-1.4-2.4-3.1-2.4C1802.8,1413.1,1801.5,1414.2,1801.5,1415.5z
		 M1872.7,1114.4v1.2c0,1.3,1.4,2.4,3.1,2.4c1.7,0,3.1-1.2,3.1-2.4v-1.2c0-1.3-1.4-2.4-3.1-2.4
		C1874,1112,1872.7,1113.1,1872.7,1114.4z M1879.6,1547.8v1.2c0,1.3,1.4,2.4,3.1,2.4c1.7,0,3.1-1.2,3.1-2.4v-1.2
		c0-1.3-1.4-2.4-3.1-2.4C1880.9,1545.3,1879.6,1546.5,1879.6,1547.8z M1948,1276.1v1.2c0,1.3,1.4,2.4,3.1,2.4c1.7,0,3.1-1.2,3.1-2.4
		v-1.2c0-1.3-1.4-2.4-3.1-2.4C1949.3,1273.6,1948,1274.8,1948,1276.1z M1979.4,983.9v1.2c0,1.3,1.4,2.4,3.1,2.4
		c1.7,0,3.1-1.2,3.1-2.4v-1.2c0-1.3-1.4-2.4-3.1-2.4C1980.8,981.4,1979.4,982.6,1979.4,983.9z M1801.1,951.5v1.2
		c0,1.3,1.4,2.4,3.1,2.4c1.7,0,3.1-1.2,3.1-2.4v-1.2c0-1.3-1.4-2.4-3.1-2.4C1802.4,949,1801.1,950.2,1801.1,951.5z M1691.5,1013.2
		v1.2c0,1.3,1.4,2.4,3.1,2.4c1.7,0,3.1-1.2,3.1-2.4v-1.2c0-1.3-1.4-2.4-3.1-2.4C1692.8,1010.7,1691.5,1011.9,1691.5,1013.2z
		 M1872.6,942.5v1.2c0,1.3,1.4,2.4,3.1,2.4c1.7,0,3.1-1.2,3.1-2.4v-1.2c0-1.3-1.4-2.4-3.1-2.4
		C1873.9,940.1,1872.6,941.2,1872.6,942.5z M1847.8,1747v1.2c0,1.3,1.4,2.4,3.1,2.4s3.1-1.2,3.1-2.4v-1.2c0-1.3-1.4-2.4-3.1-2.4
		S1847.8,1745.7,1847.8,1747z M2136.3,1251.5v1.2c0,1.3,1.4,2.4,3.1,2.4c1.7,0,3.1-1.2,3.1-2.4v-1.2c0-1.3-1.4-2.4-3.1-2.4
		C2137.6,1249,2136.3,1250.2,2136.3,1251.5z M2116.8,1334.6v1.2c0,1.3,1.4,2.4,3.1,2.4c1.7,0,3.1-1.2,3.1-2.4v-1.2
		c0-1.3-1.4-2.4-3.1-2.4C2118.2,1332.2,2116.8,1333.3,2116.8,1334.6z M2209.5,1228.3v1.2c0,1.3,1.4,2.4,3.1,2.4
		c1.7,0,3.1-1.2,3.1-2.4v-1.2c0-1.3-1.4-2.4-3.1-2.4C2210.8,1225.8,2209.5,1227,2209.5,1228.3z M2039.3,1400.6v1.2
		c0,1.3,1.4,2.4,3.1,2.4c1.7,0,3.1-1.2,3.1-2.4v-1.2c0-1.3-1.4-2.4-3.1-2.4C2040.7,1398.2,2039.3,1399.3,2039.3,1400.6z
		 M2134.6,965.7v1.2c0,1.3,1.4,2.4,3.1,2.4c1.7,0,3.1-1.2,3.1-2.4v-1.2c0-1.3-1.4-2.4-3.1-2.4C2136,963.3,2134.6,964.4,2134.6,965.7
		z M2169.5,1094.9v1.2c0,1.3,1.4,2.4,3.1,2.4s3.1-1.2,3.1-2.4v-1.2c0-1.3-1.4-2.4-3.1-2.4S2169.5,1093.6,2169.5,1094.9z
		 M2217.3,1544.9v1.2c0,1.3,1.4,2.4,3.1,2.4c1.7,0,3.1-1.2,3.1-2.4v-1.2c0-1.3-1.4-2.4-3.1-2.4
		C2218.6,1542.4,2217.3,1543.6,2217.3,1544.9z M1948,1592.6v1.2c0,1.3,1.4,2.4,3.1,2.4c1.7,0,3.1-1.2,3.1-2.4v-1.2
		c0-1.3-1.4-2.4-3.1-2.4C1949.3,1590.1,1948,1591.3,1948,1592.6z M2060.3,1559.7v1.2c0,1.3,1.4,2.4,3.1,2.4s3.1-1.2,3.1-2.4v-1.2
		c0-1.3-1.4-2.4-3.1-2.4S2060.3,1558.4,2060.3,1559.7z M3004.8,957.3c1.7,0,3.1,1.2,3.1,2.4v1.2c0,1.3-1.4,2.4-3.1,2.4
		c-1.7,0-3.1-1.2-3.1-2.4v-1.2C3001.7,958.5,3003.1,957.3,3004.8,957.3z M2914,1065.6v1.2c0,1.3,1.4,2.4,3.1,2.4s3.1-1.2,3.1-2.4
		v-1.2c0-1.3-1.4-2.4-3.1-2.4S2914,1064.3,2914,1065.6z M3102.2,1129.7v1.2c0,1.3,1.4,2.4,3.1,2.4c1.7,0,3.1-1.2,3.1-2.4v-1.2
		c0-1.3-1.4-2.4-3.1-2.4C3103.5,1127.3,3102.2,1128.4,3102.2,1129.7z M2944.2,1103.2v1.2c0,1.3,1.4,2.4,3.1,2.4
		c1.7,0,3.1-1.2,3.1-2.4v-1.2c0-1.3-1.4-2.4-3.1-2.4C2945.5,1100.8,2944.2,1101.9,2944.2,1103.2z M2788.8,1522.7v1.2
		c0,1.3,1.4,2.4,3.1,2.4c1.7,0,3.1-1.2,3.1-2.4v-1.2c0-1.3-1.4-2.4-3.1-2.4C2790.1,1520.3,2788.8,1521.4,2788.8,1522.7z
		 M3001.5,1290.8v1.2c0,1.3,1.4,2.4,3.1,2.4c1.7,0,3.1-1.2,3.1-2.4v-1.2c0-1.3-1.4-2.4-3.1-2.4
		C3002.9,1288.3,3001.5,1289.5,3001.5,1290.8z M3118.7,1245.1v1.2c0,1.3,1.4,2.4,3.1,2.4c1.7,0,3.1-1.2,3.1-2.4v-1.2
		c0-1.3-1.4-2.4-3.1-2.4C3120.1,1242.6,3118.7,1243.8,3118.7,1245.1z M2358.8,1472.6v1.2c0,1.3,1.4,2.4,3.1,2.4
		c1.7,0,3.1-1.2,3.1-2.4v-1.2c0-1.3-1.4-2.4-3.1-2.4C2360.1,1470.2,2358.8,1471.3,2358.8,1472.6z M2928.1,1734.5v1.2
		c0,1.3,1.4,2.4,3.1,2.4s3.1-1.2,3.1-2.4v-1.2c0-1.3-1.4-2.4-3.1-2.4S2928.1,1733.2,2928.1,1734.5z M3064.1,1627.9v1.2
		c0,1.3,1.4,2.4,3.1,2.4c1.7,0,3.1-1.2,3.1-2.4v-1.2c0-1.3-1.4-2.4-3.1-2.4C3065.4,1625.4,3064.1,1626.6,3064.1,1627.9z
		 M2910.6,1308.9v1.2c0,1.3,1.4,2.4,3.1,2.4c1.7,0,3.1-1.2,3.1-2.4v-1.2c0-1.3-1.4-2.4-3.1-2.4
		C2912,1306.4,2910.6,1307.6,2910.6,1308.9z M2756.5,1453v1.2c0,1.3,1.4,2.4,3.1,2.4c1.7,0,3.1-1.2,3.1-2.4v-1.2
		c0-1.3-1.4-2.4-3.1-2.4C2757.9,1450.5,2756.5,1451.7,2756.5,1453z M2576.5,1434.3v1.2c0,1.3,1.4,2.4,3.1,2.4s3.1-1.2,3.1-2.4v-1.2
		c0-1.3-1.4-2.4-3.1-2.4S2576.5,1433,2576.5,1434.3z M2616.9,1405.2v1.2c0,1.3,1.4,2.4,3.1,2.4c1.7,0,3.1-1.2,3.1-2.4v-1.2
		c0-1.3-1.4-2.4-3.1-2.4C2618.3,1402.7,2616.9,1403.9,2616.9,1405.2z M2618.4,1496v1.2c0,1.3,1.4,2.4,3.1,2.4c1.7,0,3.1-1.2,3.1-2.4
		v-1.2c0-1.3-1.4-2.4-3.1-2.4C2619.7,1493.5,2618.4,1494.7,2618.4,1496z M3090.6,988.9v1.2c0,1.3,1.4,2.4,3.1,2.4s3.1-1.2,3.1-2.4
		v-1.2c0-1.3-1.4-2.4-3.1-2.4S3090.6,987.6,3090.6,988.9z M2938.1,944.6v1.2c0,1.3,1.4,2.4,3.1,2.4c1.7,0,3.1-1.2,3.1-2.4v-1.2
		c0-1.3-1.4-2.4-3.1-2.4C2939.4,942.2,2938.1,943.3,2938.1,944.6z M3105.6,915.6v1.2c0,1.3,1.4,2.4,3.1,2.4c1.7,0,3.1-1.2,3.1-2.4
		v-1.2c0-1.3-1.4-2.4-3.1-2.4C3106.9,913.2,3105.6,914.3,3105.6,915.6z M2993,1355.5v1.2c0,1.3,1.4,2.4,3.1,2.4
		c1.7,0,3.1-1.2,3.1-2.4v-1.2c0-1.3-1.4-2.4-3.1-2.4C2994.3,1353.1,2993,1354.2,2993,1355.5z M2937.2,1432.6v1.2
		c0,1.3,1.4,2.4,3.1,2.4c1.7,0,3.1-1.2,3.1-2.4v-1.2c0-1.3-1.4-2.4-3.1-2.4C2938.6,1430.1,2937.2,1431.3,2937.2,1432.6z
		 M2923.5,1659.7v1.2c0,1.3,1.4,2.4,3.1,2.4c1.7,0,3.1-1.2,3.1-2.4v-1.2c0-1.3-1.4-2.4-3.1-2.4
		C2924.9,1657.2,2923.5,1658.4,2923.5,1659.7z M3046.6,1687.7v1.2c0,1.3,1.4,2.4,3.1,2.4s3.1-1.2,3.1-2.4v-1.2
		c0-1.3-1.4-2.4-3.1-2.4S3046.6,1686.4,3046.6,1687.7z M2331.2,1795.8v1.2c0,1.3,1.4,2.4,3.1,2.4c1.7,0,3.1-1.2,3.1-2.4v-1.2
		c0-1.3-1.4-2.4-3.1-2.4C2332.5,1793.4,2331.2,1794.5,2331.2,1795.8z M2308.8,1136.8v1.2c0,1.3,1.4,2.4,3.1,2.4
		c1.7,0,3.1-1.2,3.1-2.4v-1.2c0-1.3-1.4-2.4-3.1-2.4C2310.1,1134.4,2308.8,1135.6,2308.8,1136.8z M3100.3,1291.6v1.2
		c0,1.3,1.4,2.4,3.1,2.4c1.7,0,3.1-1.2,3.1-2.4v-1.2c0-1.3-1.4-2.4-3.1-2.4C3101.7,1289.2,3100.3,1290.3,3100.3,1291.6z
		 M3152.4,1516.3v1.2c0,1.3,1.4,2.4,3.1,2.4c1.7,0,3.1-1.2,3.1-2.4v-1.2c0-1.3-1.4-2.4-3.1-2.4
		C3153.8,1513.8,3152.4,1515,3152.4,1516.3z M2314,1054.8v1.2c0,1.3,1.4,2.4,3.1,2.4c1.7,0,3.1-1.2,3.1-2.4v-1.2
		c0-1.3-1.4-2.4-3.1-2.4C2315.3,1052.4,2314,1053.6,2314,1054.8z M2368.6,1097.4v1.2c0,1.3,1.4,2.4,3.1,2.4c1.7,0,3.1-1.2,3.1-2.4
		v-1.2c0-1.3-1.4-2.4-3.1-2.4C2369.9,1095,2368.6,1096.1,2368.6,1097.4z M2792.4,1398.5v1.2c0,1.3,1.4,2.4,3.1,2.4
		c1.7,0,3.1-1.2,3.1-2.4v-1.2c0-1.3-1.4-2.4-3.1-2.4C2793.7,1396,2792.4,1397.2,2792.4,1398.5z M2682.8,1460.2v1.2
		c0,1.3,1.4,2.4,3.1,2.4c1.7,0,3.1-1.2,3.1-2.4v-1.2c0-1.3-1.4-2.4-3.1-2.4C2684.1,1457.7,2682.8,1458.9,2682.8,1460.2z M3113.3,956
		v1.2c0,1.3,1.4,2.4,3.1,2.4s3.1-1.2,3.1-2.4V956c0-1.3-1.4-2.4-3.1-2.4S3113.3,954.7,3113.3,956z M2274,1433.3
		c-0.6,1.8,2.7,3.4,5.1,3c1.9-0.3,2.5-1.6,2.3-2.9c-0.4-2.2-4.5-2.6-6.4-1.2C2274.4,1432.5,2274.1,1432.9,2274,1433.3z M2297.1,1531
		v1.2c0,1.3,1.4,2.4,3.1,2.4c1.7,0,3.1-1.2,3.1-2.4v-1.2c0-1.3-1.4-2.4-3.1-2.4C2298.4,1528.5,2297.1,1529.7,2297.1,1531z
		 M2564.7,976.4c1.7,0,3.1-1.2,3.1-2.4v-1.2c0-1.3-1.4-2.4-3.1-2.4s-3.1,1.2-3.1,2.4v1.2C2561.6,975.2,2563,976.4,2564.7,976.4z
		 M2834.4,942.2c1.7,0,3.1-1.2,3.1-2.4v-1.2c0-1.3-1.4-2.4-3.1-2.4s-3.1,1.2-3.1,2.4v1.2C2831.3,941,2832.7,942.2,2834.4,942.2z
		 M2761.1,1100.2c1.7,0,3.1-1.2,3.1-2.4v-1.2c0-1.3-1.4-2.4-3.1-2.4s-3.1,1.2-3.1,2.4v1.2C2758,1099.1,2759.4,1100.2,2761.1,1100.2z
		 M2862.8,1039.7c1.7,0,3.1-1.2,3.1-2.4v-1.2c0-1.3-1.4-2.4-3.1-2.4c-1.7,0-3.1,1.2-3.1,2.4v1.2
		C2859.7,1038.6,2861.1,1039.7,2862.8,1039.7z M2827.2,1188.3c1.7,0,3.1-1.2,3.1-2.4v-1.2c0-1.3-1.4-2.4-3.1-2.4
		c-1.7,0-3.1,1.2-3.1,2.4v1.2C2824.1,1187.1,2825.4,1188.3,2827.2,1188.3z M2900.9,1297.7c1.7,0,3.1-1.2,3.1-2.4v-1.2
		c0-1.3-1.4-2.4-3.1-2.4c-1.7,0-3.1,1.2-3.1,2.4v1.2C2897.8,1296.5,2899.2,1297.7,2900.9,1297.7z M2550.8,1253.9
		c1.7,0,3.1-1.2,3.1-2.4v-1.2c0-1.3-1.4-2.4-3.1-2.4c-1.7,0-3.1,1.2-3.1,2.4v1.2C2547.7,1252.7,2549,1253.9,2550.8,1253.9z
		 M2700.4,1336.1c1.7,0,3.1-1.2,3.1-2.4v-1.2c0-1.3-1.4-2.4-3.1-2.4c-1.7,0-3.1,1.2-3.1,2.4v1.2
		C2697.3,1334.9,2698.7,1336.1,2700.4,1336.1z M2853.4,1721.8c1.7,0,3.1-1.2,3.1-2.4v-1.2c0-1.3-1.4-2.4-3.1-2.4s-3.1,1.2-3.1,2.4
		v1.2C2850.3,1720.6,2851.6,1721.8,2853.4,1721.8z M2495,1769.2c1.7,0,3.1-1.2,3.1-2.4v-1.2c0-1.3-1.4-2.4-3.1-2.4
		c-1.7,0-3.1,1.2-3.1,2.4v1.2C2491.9,1768,2493.3,1769.2,2495,1769.2z M2432.6,1674.6c1.7,0,3.1-1.2,3.1-2.4v-1.2
		c0-1.3-1.4-2.4-3.1-2.4c-1.7,0-3.1,1.2-3.1,2.4v1.2C2429.5,1673.5,2430.8,1674.6,2432.6,1674.6z M2392.1,1728.7
		c1.7,0,3.1-1.2,3.1-2.4v-1.2c0-1.3-1.4-2.4-3.1-2.4c-1.7,0-3.1,1.2-3.1,2.4v1.2C2389,1727.5,2390.4,1728.7,2392.1,1728.7z
		 M2713.6,1188.3c1.7,0,3.1-1.2,3.1-2.4v-1.2c0-1.3-1.4-2.4-3.1-2.4c-1.7,0-3.1,1.2-3.1,2.4v1.2
		C2710.5,1187.1,2711.9,1188.3,2713.6,1188.3z M2622.9,1112.2c1.7,0,3.1-1.2,3.1-2.4v-1.2c0-1.3-1.4-2.4-3.1-2.4
		c-1.7,0-3.1,1.2-3.1,2.4v1.2C2619.8,1111.1,2621.1,1112.2,2622.9,1112.2z M2503.7,1021.8c1.7,0,3.1-1.2,3.1-2.4v-1.2
		c0-1.3-1.4-2.4-3.1-2.4c-1.7,0-3.1,1.2-3.1,2.4v1.2C2500.6,1020.6,2501.9,1021.8,2503.7,1021.8z M2609,1781.8
		c1.7,0,3.1-1.2,3.1-2.4v-1.2c0-1.3-1.4-2.4-3.1-2.4c-1.7,0-3.1,1.2-3.1,2.4v1.2C2605.9,1780.6,2607.2,1781.8,2609,1781.8z
		 M2589.5,1698.6c1.7,0,3.1-1.2,3.1-2.4v-1.2c0-1.3-1.4-2.4-3.1-2.4c-1.7,0-3.1,1.2-3.1,2.4v1.2
		C2586.4,1697.5,2587.8,1698.6,2589.5,1698.6z M2800.6,1797c1.7,0,3.1-1.2,3.1-2.4v-1.2c0-1.3-1.4-2.4-3.1-2.4
		c-1.7,0-3.1,1.2-3.1,2.4v1.2C2797.5,1795.9,2798.8,1797,2800.6,1797z M2512,1632.6c1.7,0,3.1-1.2,3.1-2.4v-1.2
		c0-1.3-1.4-2.4-3.1-2.4c-1.7,0-3.1,1.2-3.1,2.4v1.2C2508.9,1631.5,2510.3,1632.6,2512,1632.6z M2350.1,1604.2v1.2
		c0,1.3,1.4,2.4,3.1,2.4s3.1-1.2,3.1-2.4v-1.2c0-1.3-1.4-2.4-3.1-2.4S2350.1,1602.9,2350.1,1604.2z M2447.2,1477.1v1.2
		c0,1.3,1.4,2.4,3.1,2.4c1.7,0,3.1-1.2,3.1-2.4v-1.2c0-1.3-1.4-2.4-3.1-2.4C2448.5,1474.6,2447.2,1475.8,2447.2,1477.1z
		 M2382.6,1343.2v1.2c0,1.3,1.4,2.4,3.1,2.4c1.7,0,3.1-1.2,3.1-2.4v-1.2c0-1.3-1.4-2.4-3.1-2.4
		C2384,1340.8,2382.6,1341.9,2382.6,1343.2z M2440.3,1187.3v1.2c0,1.3,1.4,2.4,3.1,2.4c1.7,0,3.1-1.2,3.1-2.4v-1.2
		c0-1.3-1.4-2.4-3.1-2.4C2441.7,1184.8,2440.3,1186,2440.3,1187.3z M2387.8,1261.2v1.2c0,1.3,1.4,2.4,3.1,2.4c1.7,0,3.1-1.2,3.1-2.4
		v-1.2c0-1.3-1.4-2.4-3.1-2.4C2389.2,1258.8,2387.8,1259.9,2387.8,1261.2z M2442.4,1303.8v1.2c0,1.3,1.4,2.4,3.1,2.4
		c1.7,0,3.1-1.2,3.1-2.4v-1.2c0-1.3-1.4-2.4-3.1-2.4C2443.8,1301.4,2442.4,1302.5,2442.4,1303.8z M2487.3,1520.6v1.2
		c0,1.3,1.4,2.4,3.1,2.4s3.1-1.2,3.1-2.4v-1.2c0-1.3-1.4-2.4-3.1-2.4S2487.3,1519.3,2487.3,1520.6z M405.6,382.2v1.2
		c0,1.3,1.4,2.4,3.1,2.4c1.7,0,3.1-1.2,3.1-2.4v-1.2c0-1.3-1.4-2.4-3.1-2.4C407,379.8,405.6,380.9,405.6,382.2z M768.9,404.6v1.2
		c0,1.3,1.4,2.4,3.1,2.4s3.1-1.2,3.1-2.4v-1.2c0-1.3-1.4-2.4-3.1-2.4S768.9,403.3,768.9,404.6z M414.9,271.7v1.2
		c0,1.3,1.4,2.4,3.1,2.4c1.7,0,3.1-1.2,3.1-2.4v-1.2c0-1.3-1.4-2.4-3.1-2.4C416.2,269.3,414.9,270.4,414.9,271.7z M471.4,415.3v1.2
		c0,1.3,1.4,2.4,3.1,2.4c1.7,0,3.1-1.2,3.1-2.4v-1.2c0-1.3-1.4-2.4-3.1-2.4C472.7,412.8,471.4,414,471.4,415.3z M130.1,778.7v1.2
		c0,1.3,1.4,2.4,3.1,2.4s3.1-1.2,3.1-2.4v-1.2c0-1.3-1.4-2.4-3.1-2.4S130.1,777.4,130.1,778.7z M342.7,869.9v1.2
		c0,1.3,1.4,2.4,3.1,2.4c1.7,0,3.1-1.2,3.1-2.4v-1.2c0-1.3-1.4-2.4-3.1-2.4C344.1,867.5,342.7,868.6,342.7,869.9z M269.4,711.9v1.2
		c0,1.3,1.4,2.4,3.1,2.4s3.1-1.2,3.1-2.4v-1.2c0-1.3-1.4-2.4-3.1-2.4S269.4,710.6,269.4,711.9z M371.1,772.4v1.2
		c0,1.3,1.4,2.4,3.1,2.4c1.7,0,3.1-1.2,3.1-2.4v-1.2c0-1.3-1.4-2.4-3.1-2.4C372.5,769.9,371.1,771.1,371.1,772.4z M335.5,623.8v1.2
		c0,1.3,1.4,2.4,3.1,2.4c1.7,0,3.1-1.2,3.1-2.4v-1.2c0-1.3-1.4-2.4-3.1-2.4C336.8,621.4,335.5,622.5,335.5,623.8z M409.2,514.4v1.2
		c0,1.3,1.4,2.4,3.1,2.4c1.7,0,3.1-1.2,3.1-2.4v-1.2c0-1.3-1.4-2.4-3.1-2.4C410.6,512,409.2,513.1,409.2,514.4z M136.4,502.7v1.2
		c0,1.3,1.4,2.4,3.1,2.4c1.7,0,3.1-1.2,3.1-2.4v-1.2c0-1.3-1.4-2.4-3.1-2.4C137.7,500.2,136.4,501.4,136.4,502.7z M208.7,476v1.2
		c0,1.3,1.4,2.4,3.1,2.4c1.7,0,3.1-1.2,3.1-2.4V476c0-1.3-1.4-2.4-3.1-2.4C210.1,473.6,208.7,474.7,208.7,476z M361.7,90.3v1.2
		c0,1.3,1.4,2.4,3.1,2.4c1.7,0,3.1-1.2,3.1-2.4v-1.2c0-1.3-1.4-2.4-3.1-2.4C363,87.9,361.7,89,361.7,90.3z M803.7,512.3v1.2
		c0,1.3,1.4,2.4,3.1,2.4s3.1-1.2,3.1-2.4v-1.2c0-1.3-1.4-2.4-3.1-2.4S803.7,511,803.7,512.3z M480.3,353.5v1.2
		c0,1.3,1.4,2.4,3.1,2.4c1.7,0,3.1-1.2,3.1-2.4v-1.2c0-1.3-1.4-2.4-3.1-2.4C481.7,351.1,480.3,352.2,480.3,353.5z M393.9,186.2v1.2
		c0,1.3,1.4,2.4,3.1,2.4c1.7,0,3.1-1.2,3.1-2.4v-1.2c0-1.3-1.4-2.4-3.1-2.4C395.3,183.8,393.9,184.9,393.9,186.2z M435.6,218.9v1.2
		c0,1.3,1.4,2.4,3.1,2.4c1.7,0,3.1-1.2,3.1-2.4v-1.2c0-1.3-1.4-2.4-3.1-2.4C437,216.5,435.6,217.7,435.6,218.9z M726.3,307.8v1.2
		c0,1.3,1.4,2.4,3.1,2.4c1.7,0,3.1-1.2,3.1-2.4v-1.2c0-1.3-1.4-2.4-3.1-2.4C727.7,305.3,726.3,306.5,726.3,307.8z M731.5,225.8v1.2
		c0,1.3,1.4,2.4,3.1,2.4c1.7,0,3.1-1.2,3.1-2.4v-1.2c0-1.3-1.4-2.4-3.1-2.4C732.9,223.3,731.5,224.5,731.5,225.8z M786.1,268.4v1.2
		c0,1.3,1.4,2.4,3.1,2.4c1.7,0,3.1-1.2,3.1-2.4v-1.2c0-1.3-1.4-2.4-3.1-2.4C787.5,265.9,786.1,267.1,786.1,268.4z M117.2,8.9v1.2
		c0,1.3,1.4,2.4,3.1,2.4c1.7,0,3.1-1.2,3.1-2.4V8.9c0-1.3-1.4-2.4-3.1-2.4C118.6,6.5,117.2,7.6,117.2,8.9z M47.3,62.9v1.2
		c0,1.3,1.4,2.4,3.1,2.4c1.7,0,3.1-1.2,3.1-2.4v-1.2c0-1.3-1.4-2.4-3.1-2.4C48.7,60.4,47.3,61.6,47.3,62.9z M862.5,434.4v1.2
		c0,1.3,1.4,2.4,3.1,2.4c1.7,0,3.1-1.2,3.1-2.4v-1.2c0-1.3-1.4-2.4-3.1-2.4C863.8,432,862.5,433.1,862.5,434.4z M221.9,623.8v1.2
		c0,1.3,1.4,2.4,3.1,2.4c1.7,0,3.1-1.2,3.1-2.4v-1.2c0-1.3-1.4-2.4-3.1-2.4C223.3,621.4,221.9,622.5,221.9,623.8z M199.2,876.7v1.2
		c0,1.3,1.4,2.4,3.1,2.4c1.7,0,3.1-1.2,3.1-2.4v-1.2c0-1.3-1.4-2.4-3.1-2.4C200.6,874.3,199.2,875.4,199.2,876.7z M12,847.4v1.2
		c0,1.3,1.4,2.4,3.1,2.4c1.7,0,3.1-1.2,3.1-2.4v-1.2c0-1.3-1.4-2.4-3.1-2.4C13.3,844.9,12,846.1,12,847.4z M235.6,38.3v1.2
		c0,1.3,1.4,2.4,3.1,2.4c1.7,0,3.1-1.2,3.1-2.4v-1.2c0-1.3-1.4-2.4-3.1-2.4C237,35.8,235.6,37,235.6,38.3z M216.2,121.4v1.2
		c0,1.3,1.4,2.4,3.1,2.4c1.7,0,3.1-1.2,3.1-2.4v-1.2c0-1.3-1.4-2.4-3.1-2.4C217.5,119,216.2,120.1,216.2,121.4z M308.8,15.1v1.2
		c0,1.3,1.4,2.4,3.1,2.4c1.7,0,3.1-1.2,3.1-2.4v-1.2c0-1.3-1.4-2.4-3.1-2.4C310.2,12.6,308.8,13.8,308.8,15.1z M138.7,187.4v1.2
		c0,1.3,1.4,2.4,3.1,2.4c1.7,0,3.1-1.2,3.1-2.4v-1.2c0-1.3-1.4-2.4-3.1-2.4C140,185,138.7,186.1,138.7,187.4z M58.1,685.4v1.2
		c0,1.3,1.4,2.4,3.1,2.4c1.7,0,3.1-1.2,3.1-2.4v-1.2c0-1.3-1.4-2.4-3.1-2.4C59.5,683,58.1,684.1,58.1,685.4z M316.6,331.7v1.2
		c0,1.3,1.4,2.4,3.1,2.4c1.7,0,3.1-1.2,3.1-2.4v-1.2c0-1.3-1.4-2.4-3.1-2.4C318,329.3,316.6,330.4,316.6,331.7z M47.3,379.4v1.2
		c0,1.3,1.4,2.4,3.1,2.4c1.7,0,3.1-1.2,3.1-2.4v-1.2c0-1.3-1.4-2.4-3.1-2.4C48.7,376.9,47.3,378.1,47.3,379.4z M159.6,346.5v1.2
		c0,1.3,1.4,2.4,3.1,2.4c1.7,0,3.1-1.2,3.1-2.4v-1.2c0-1.3-1.4-2.4-3.1-2.4C161,344.1,159.6,345.2,159.6,346.5z M888.1,309.5v1.2
		c0,1.3,1.4,2.4,3.1,2.4s3.1-1.2,3.1-2.4v-1.2c0-1.3-1.4-2.4-3.1-2.4S888.1,308.2,888.1,309.5z M1100.9,77.6v1.2
		c0,1.3,1.4,2.4,3.1,2.4c1.7,0,3.1-1.2,3.1-2.4v-1.2c0-1.3-1.4-2.4-3.1-2.4C1102.2,75.2,1100.9,76.3,1100.9,77.6z M1442.4,363.6v1.2
		c0,1.3,1.4,2.4,3.1,2.4c1.7,0,3.1-1.2,3.1-2.4v-1.2c0-1.3-1.4-2.4-3.1-2.4C1443.7,361.2,1442.4,362.3,1442.4,363.6z M1218.1,31.9
		v1.2c0,1.3,1.4,2.4,3.1,2.4c1.7,0,3.1-1.2,3.1-2.4v-1.2c0-1.3-1.4-2.4-3.1-2.4C1219.4,29.4,1218.1,30.6,1218.1,31.9z M1629.6,504
		v1.2c0,1.3,1.4,2.4,3.1,2.4s3.1-1.2,3.1-2.4V504c0-1.3-1.4-2.4-3.1-2.4S1629.6,502.8,1629.6,504z M1460.1,799.3v1.2
		c0,1.3,1.4,2.4,3.1,2.4c1.7,0,3.1-1.2,3.1-2.4v-1.2c0-1.3-1.4-2.4-3.1-2.4C1461.5,796.8,1460.1,798,1460.1,799.3z M1451.6,253.1
		v1.2c0,1.3,1.4,2.4,3.1,2.4c1.7,0,3.1-1.2,3.1-2.4v-1.2c0-1.3-1.4-2.4-3.1-2.4C1453,250.7,1451.6,251.8,1451.6,253.1z
		 M1508.1,396.7v1.2c0,1.3,1.4,2.4,3.1,2.4c1.7,0,3.1-1.2,3.1-2.4v-1.2c0-1.3-1.4-2.4-3.1-2.4
		C1509.5,394.2,1508.1,395.4,1508.1,396.7z M1537.8,482.8v1.2c0,1.3,1.4,2.4,3.1,2.4s3.1-1.2,3.1-2.4v-1.2c0-1.3-1.4-2.4-3.1-2.4
		S1537.8,481.5,1537.8,482.8z M1366.8,526.7v1.2c0,1.3,1.4,2.4,3.1,2.4c1.7,0,3.1-1.2,3.1-2.4v-1.2c0-1.3-1.4-2.4-3.1-2.4
		C1368.1,524.2,1366.8,525.4,1366.8,526.7z M1027.5,521.3v1.2c0,1.3,1.4,2.4,3.1,2.4c1.7,0,3.1-1.2,3.1-2.4v-1.2
		c0-1.3-1.4-2.4-3.1-2.4C1028.9,518.9,1027.5,520,1027.5,521.3z M1163.4,414.7v1.2c0,1.3,1.4,2.4,3.1,2.4c1.7,0,3.1-1.2,3.1-2.4
		v-1.2c0-1.3-1.4-2.4-3.1-2.4C1164.8,412.2,1163.4,413.4,1163.4,414.7z M1010,95.7v1.2c0,1.3,1.4,2.4,3.1,2.4c1.7,0,3.1-1.2,3.1-2.4
		v-1.2c0-1.3-1.4-2.4-3.1-2.4C1011.3,93.2,1010,94.4,1010,95.7z M1015,781.7v1.2c0,1.3,1.4,2.4,3.1,2.4c1.7,0,3.1-1.2,3.1-2.4v-1.2
		c0-1.3-1.4-2.4-3.1-2.4C1016.3,779.3,1015,780.4,1015,781.7z M1234.9,850v1.2c0,1.3,1.4,2.4,3.1,2.4c1.7,0,3.1-1.2,3.1-2.4V850
		c0-1.3-1.4-2.4-3.1-2.4C1236.3,847.5,1234.9,848.7,1234.9,850z M1136.7,651.6v1.2c0,1.3,1.4,2.4,3.1,2.4c1.7,0,3.1-1.2,3.1-2.4
		v-1.2c0-1.3-1.4-2.4-3.1-2.4C1138.1,649.2,1136.7,650.4,1136.7,651.6z M1373.2,855.9v1.2c0,1.3,1.4,2.4,3.1,2.4
		c1.7,0,3.1-1.2,3.1-2.4v-1.2c0-1.3-1.4-2.4-3.1-2.4C1374.5,853.5,1373.2,854.6,1373.2,855.9z M1721.9,718.3v1.2
		c0,1.3,1.4,2.4,3.1,2.4s3.1-1.2,3.1-2.4v-1.2c0-1.3-1.4-2.4-3.1-2.4S1721.9,717,1721.9,718.3z M1571.7,827.8v1.2
		c0,1.3,1.4,2.4,3.1,2.4c1.7,0,3.1-1.2,3.1-2.4v-1.2c0-1.3-1.4-2.4-3.1-2.4C1573.1,825.4,1571.7,826.5,1571.7,827.8z M1687.4,882.4
		v1.2c0,1.3,1.4,2.4,3.1,2.4c1.7,0,3.1-1.2,3.1-2.4v-1.2c0-1.3-1.4-2.4-3.1-2.4C1688.8,879.9,1687.4,881.1,1687.4,882.4z
		 M1636.7,158.8v1.2c0,1.3,1.4,2.4,3.1,2.4c1.7,0,3.1-1.2,3.1-2.4v-1.2c0-1.3-1.4-2.4-3.1-2.4C1638,156.3,1636.7,157.5,1636.7,158.8
		z M1092.3,142.3v1.2c0,1.3,1.4,2.4,3.1,2.4c1.7,0,3.1-1.2,3.1-2.4v-1.2c0-1.3-1.4-2.4-3.1-2.4
		C1093.7,139.9,1092.3,141.1,1092.3,142.3z M1036.6,219.4v1.2c0,1.3,1.4,2.4,3.1,2.4c1.7,0,3.1-1.2,3.1-2.4v-1.2
		c0-1.3-1.4-2.4-3.1-2.4C1037.9,216.9,1036.6,218.1,1036.6,219.4z M1022.9,446.5v1.2c0,1.3,1.4,2.4,3.1,2.4c1.7,0,3.1-1.2,3.1-2.4
		v-1.2c0-1.3-1.4-2.4-3.1-2.4C1024.2,444,1022.9,445.2,1022.9,446.5z M1146,474.5v1.2c0,1.3,1.4,2.4,3.1,2.4c1.7,0,3.1-1.2,3.1-2.4
		v-1.2c0-1.3-1.4-2.4-3.1-2.4C1147.3,472.1,1146,473.2,1146,474.5z M1068.3,621.3v1.2c0,1.3,1.4,2.4,3.1,2.4c1.7,0,3.1-1.2,3.1-2.4
		v-1.2c0-1.3-1.4-2.4-3.1-2.4C1069.7,618.8,1068.3,620,1068.3,621.3z M1045.6,853.5v1.2c0,1.3,1.4,2.4,3.1,2.4
		c1.7,0,3.1-1.2,3.1-2.4v-1.2c0-1.3-1.4-2.4-3.1-2.4C1047,851,1045.6,852.2,1045.6,853.5z M1458.8,556v1.2c0,1.3,1.4,2.4,3.1,2.4
		s3.1-1.2,3.1-2.4V556c0-1.3-1.4-2.4-3.1-2.4S1458.8,554.7,1458.8,556z M1505.4,643.4v1.2c0,1.3,1.4,2.4,3.1,2.4
		c1.7,0,3.1-1.2,3.1-2.4v-1.2c0-1.3-1.4-2.4-3.1-2.4C1506.8,641,1505.4,642.1,1505.4,643.4z M1664.4,611.7v1.2
		c0,1.3,1.4,2.4,3.1,2.4s3.1-1.2,3.1-2.4v-1.2c0-1.3-1.4-2.4-3.1-2.4S1664.4,610.4,1664.4,611.7z M1517.1,334.9v1.2
		c0,1.3,1.4,2.4,3.1,2.4c1.7,0,3.1-1.2,3.1-2.4v-1.2c0-1.3-1.4-2.4-3.1-2.4C1518.5,332.5,1517.1,333.6,1517.1,334.9z M1430.7,167.6
		v1.2c0,1.3,1.4,2.4,3.1,2.4s3.1-1.2,3.1-2.4v-1.2c0-1.3-1.4-2.4-3.1-2.4S1430.7,166.3,1430.7,167.6z M1472.4,200.4v1.2
		c0,1.3,1.4,2.4,3.1,2.4c1.7,0,3.1-1.2,3.1-2.4v-1.2c0-1.3-1.4-2.4-3.1-2.4C1473.7,197.9,1472.4,199.1,1472.4,200.4z M1531.1,88.4
		v1.2c0,1.3,1.4,2.4,3.1,2.4c1.7,0,3.1-1.2,3.1-2.4v-1.2c0-1.3-1.4-2.4-3.1-2.4C1532.5,86,1531.1,87.2,1531.1,88.4z M1305.8,99.5
		v1.2c0,1.3,1.4,2.4,3.1,2.4c1.7,0,3.1-1.2,3.1-2.4v-1.2c0-1.3-1.4-2.4-3.1-2.4C1307.1,97.1,1305.8,98.2,1305.8,99.5z M1199.7,78.4
		v1.2c0,1.3,1.4,2.4,3.1,2.4c1.7,0,3.1-1.2,3.1-2.4v-1.2c0-1.3-1.4-2.4-3.1-2.4C1201,76,1199.7,77.1,1199.7,78.4z M1251.8,303.1v1.2
		c0,1.3,1.4,2.4,3.1,2.4s3.1-1.2,3.1-2.4v-1.2c0-1.3-1.4-2.4-3.1-2.4S1251.8,301.8,1251.8,303.1z M1396.7,25.1v1.2
		c0,1.3,1.4,2.4,3.1,2.4c1.7,0,3.1-1.2,3.1-2.4v-1.2c0-1.3-1.4-2.4-3.1-2.4C1398,22.6,1396.7,23.8,1396.7,25.1z M1536.3,6.4v1.2
		c0,1.3,1.4,2.4,3.1,2.4s3.1-1.2,3.1-2.4V6.4c0-1.3-1.4-2.4-3.1-2.4S1536.3,5.1,1536.3,6.4z M1590.9,49v1.2c0,1.3,1.4,2.4,3.1,2.4
		c1.7,0,3.1-1.2,3.1-2.4V49c0-1.3-1.4-2.4-3.1-2.4C1592.3,46.6,1590.9,47.7,1590.9,49z M1676.9,202.3v1.2c0,1.3,1.4,2.4,3.1,2.4
		c1.7,0,3.1-1.2,3.1-2.4v-1.2c0-1.3-1.4-2.4-3.1-2.4C1678.2,199.9,1676.9,201,1676.9,202.3z M1282,487.3c-0.6,1.8,2.7,3.4,5.1,3
		c1.9-0.3,2.5-1.6,2.3-2.9c-0.4-2.2-4.5-2.6-6.4-1.2C1282.4,486.6,1282.1,486.9,1282,487.3z M1305,585v1.2c0,1.3,1.4,2.4,3.1,2.4
		c1.7,0,3.1-1.2,3.1-2.4V585c0-1.3-1.4-2.4-3.1-2.4C1306.4,582.6,1305,583.8,1305,585z M1000.3,84.5c1.7,0,3.1-1.2,3.1-2.4v-1.2
		c0-1.3-1.4-2.4-3.1-2.4c-1.7,0-3.1,1.2-3.1,2.4V82C997.2,83.3,998.5,84.5,1000.3,84.5z M650.1,40.7c1.7,0,3.1-1.2,3.1-2.4V37
		c0-1.3-1.4-2.4-3.1-2.4c-1.7,0-3.1,1.2-3.1,2.4v1.2C647,39.5,648.4,40.7,650.1,40.7z M799.8,122.9c1.7,0,3.1-1.2,3.1-2.4v-1.2
		c0-1.3-1.4-2.4-3.1-2.4c-1.7,0-3.1,1.2-3.1,2.4v1.2C796.7,121.8,798.1,122.9,799.8,122.9z M952.7,508.6c1.7,0,3.1-1.2,3.1-2.4v-1.2
		c0-1.3-1.4-2.4-3.1-2.4c-1.7,0-3.1,1.2-3.1,2.4v1.2C949.6,507.5,951,508.6,952.7,508.6z M920.1,886.8c1.7,0,3.1-1.2,3.1-2.4v-1.2
		c0-1.3-1.4-2.4-3.1-2.4s-3.1,1.2-3.1,2.4v1.2C917,885.7,918.4,886.8,920.1,886.8z M563,657.3c1.7,0,3.1-1.2,3.1-2.4v-1.2
		c0-1.3-1.4-2.4-3.1-2.4c-1.7,0-3.1,1.2-3.1,2.4v1.2C559.8,656.1,561.2,657.3,563,657.3z M589.9,597.9c1.7,0,3.1-1.2,3.1-2.4v-1.2
		c0-1.3-1.4-2.4-3.1-2.4c-1.7,0-3.1,1.2-3.1,2.4v1.2C586.8,596.8,588.2,597.9,589.9,597.9z M594.4,556c1.7,0,3.1-1.2,3.1-2.4v-1.2
		c0-1.3-1.4-2.4-3.1-2.4s-3.1,1.2-3.1,2.4v1.2C591.3,554.9,592.7,556,594.4,556z M531.9,461.4c1.7,0,3.1-1.2,3.1-2.4v-1.2
		c0-1.3-1.4-2.4-3.1-2.4c-1.7,0-3.1,1.2-3.1,2.4v1.2C528.8,460.3,530.2,461.4,531.9,461.4z M491.5,515.5c1.7,0,3.1-1.2,3.1-2.4v-1.2
		c0-1.3-1.4-2.4-3.1-2.4c-1.7,0-3.1,1.2-3.1,2.4v1.2C488.4,514.3,489.8,515.5,491.5,515.5z M669.8,828.2c1.7,0,3.1-1.2,3.1-2.4v-1.2
		c0-1.3-1.4-2.4-3.1-2.4c-1.7,0-3.1,1.2-3.1,2.4v1.2C666.7,827.1,668.1,828.2,669.8,828.2z M563,869.6c1.7,0,3.1-1.2,3.1-2.4v-1.2
		c0-1.3-1.4-2.4-3.1-2.4c-1.7,0-3.1,1.2-3.1,2.4v1.2C559.9,868.4,561.2,869.6,563,869.6z M708.3,568.6c1.7,0,3.1-1.2,3.1-2.4v-1.2
		c0-1.3-1.4-2.4-3.1-2.4c-1.7,0-3.1,1.2-3.1,2.4v1.2C705.2,567.4,706.6,568.6,708.3,568.6z M688.9,485.4c1.7,0,3.1-1.2,3.1-2.4v-1.2
		c0-1.3-1.4-2.4-3.1-2.4c-1.7,0-3.1,1.2-3.1,2.4v1.2C685.8,484.3,687.1,485.4,688.9,485.4z M899.9,583.8c1.7,0,3.1-1.2,3.1-2.4v-1.2
		c0-1.3-1.4-2.4-3.1-2.4c-1.7,0-3.1,1.2-3.1,2.4v1.2C896.8,582.7,898.2,583.8,899.9,583.8z M611.4,419.4c1.7,0,3.1-1.2,3.1-2.4v-1.2
		c0-1.3-1.4-2.4-3.1-2.4c-1.7,0-3.1,1.2-3.1,2.4v1.2C608.3,418.3,609.6,419.4,611.4,419.4z M825,846.4c1.7,0,3.1-1.2,3.1-2.4v-1.2
		c0-1.3-1.4-2.4-3.1-2.4c-1.7,0-3.1,1.2-3.1,2.4v1.2C821.9,845.2,823.3,846.4,825,846.4z M859.9,717.2c1.7,0,3.1-1.2,3.1-2.4v-1.2
		c0-1.3-1.4-2.4-3.1-2.4c-1.7,0-3.1,1.2-3.1,2.4v1.2C856.8,716.1,858.1,717.2,859.9,717.2z M1249.2,753.4v1.2c0,1.3,1.4,2.4,3.1,2.4
		s3.1-1.2,3.1-2.4v-1.2c0-1.3-1.4-2.4-3.1-2.4S1249.2,752.2,1249.2,753.4z M1358,658.2v1.2c0,1.3,1.4,2.4,3.1,2.4s3.1-1.2,3.1-2.4
		v-1.2c0-1.3-1.4-2.4-3.1-2.4S1358,656.9,1358,658.2z M546.5,263.9v1.2c0,1.3,1.4,2.4,3.1,2.4c1.7,0,3.1-1.2,3.1-2.4v-1.2
		c0-1.3-1.4-2.4-3.1-2.4C547.9,261.4,546.5,262.6,546.5,263.9z M482,130v1.2c0,1.3,1.4,2.4,3.1,2.4c1.7,0,3.1-1.2,3.1-2.4V130
		c0-1.3-1.4-2.4-3.1-2.4C483.4,127.6,482,128.8,482,130z M487.2,48v1.2c0,1.3,1.4,2.4,3.1,2.4c1.7,0,3.1-1.2,3.1-2.4V48
		c0-1.3-1.4-2.4-3.1-2.4C488.5,45.6,487.2,46.8,487.2,48z M541.8,90.6v1.2c0,1.3,1.4,2.4,3.1,2.4c1.7,0,3.1-1.2,3.1-2.4v-1.2
		c0-1.3-1.4-2.4-3.1-2.4C543.2,88.2,541.8,89.3,541.8,90.6z M586.7,307.4v1.2c0,1.3,1.4,2.4,3.1,2.4s3.1-1.2,3.1-2.4v-1.2
		c0-1.3-1.4-2.4-3.1-2.4S586.7,306.1,586.7,307.4z M1778.1,363.6v1.2c0,1.3,1.4,2.4,3.1,2.4c1.7,0,3.1-1.2,3.1-2.4v-1.2
		c0-1.3-1.4-2.4-3.1-2.4C1779.5,361.2,1778.1,362.3,1778.1,363.6z M1965.4,504v1.2c0,1.3,1.4,2.4,3.1,2.4s3.1-1.2,3.1-2.4V504
		c0-1.3-1.4-2.4-3.1-2.4S1965.4,502.8,1965.4,504z M1795.9,799.3v1.2c0,1.3,1.4,2.4,3.1,2.4c1.7,0,3.1-1.2,3.1-2.4v-1.2
		c0-1.3-1.4-2.4-3.1-2.4C1797.2,796.8,1795.9,798,1795.9,799.3z M1787.3,253.1v1.2c0,1.3,1.4,2.4,3.1,2.4c1.7,0,3.1-1.2,3.1-2.4
		v-1.2c0-1.3-1.4-2.4-3.1-2.4C1788.7,250.7,1787.3,251.8,1787.3,253.1z M1843.8,396.7v1.2c0,1.3,1.4,2.4,3.1,2.4
		c1.7,0,3.1-1.2,3.1-2.4v-1.2c0-1.3-1.4-2.4-3.1-2.4C1845.2,394.2,1843.8,395.4,1843.8,396.7z M1873.5,482.8v1.2
		c0,1.3,1.4,2.4,3.1,2.4s3.1-1.2,3.1-2.4v-1.2c0-1.3-1.4-2.4-3.1-2.4S1873.5,481.5,1873.5,482.8z M2057.6,718.3v1.2
		c0,1.3,1.4,2.4,3.1,2.4c1.7,0,3.1-1.2,3.1-2.4v-1.2c0-1.3-1.4-2.4-3.1-2.4C2058.9,715.8,2057.6,717,2057.6,718.3z M1907.4,827.8
		v1.2c0,1.3,1.4,2.4,3.1,2.4c1.7,0,3.1-1.2,3.1-2.4v-1.2c0-1.3-1.4-2.4-3.1-2.4C1908.8,825.4,1907.4,826.5,1907.4,827.8z
		 M2023.2,882.4v1.2c0,1.3,1.4,2.4,3.1,2.4c1.7,0,3.1-1.2,3.1-2.4v-1.2c0-1.3-1.4-2.4-3.1-2.4
		C2024.5,879.9,2023.2,881.1,2023.2,882.4z M2241.8,778.7v1.2c0,1.3,1.4,2.4,3.1,2.4s3.1-1.2,3.1-2.4v-1.2c0-1.3-1.4-2.4-3.1-2.4
		S2241.8,777.4,2241.8,778.7z M2454.5,869.9v1.2c0,1.3,1.4,2.4,3.1,2.4c1.7,0,3.1-1.2,3.1-2.4v-1.2c0-1.3-1.4-2.4-3.1-2.4
		C2455.9,867.5,2454.5,868.6,2454.5,869.9z M2381.2,711.9v1.2c0,1.3,1.4,2.4,3.1,2.4s3.1-1.2,3.1-2.4v-1.2c0-1.3-1.4-2.4-3.1-2.4
		S2381.2,710.6,2381.2,711.9z M2482.9,772.4v1.2c0,1.3,1.4,2.4,3.1,2.4c1.7,0,3.1-1.2,3.1-2.4v-1.2c0-1.3-1.4-2.4-3.1-2.4
		C2484.3,769.9,2482.9,771.1,2482.9,772.4z M2447.3,623.8v1.2c0,1.3,1.4,2.4,3.1,2.4c1.7,0,3.1-1.2,3.1-2.4v-1.2
		c0-1.3-1.4-2.4-3.1-2.4C2448.6,621.4,2447.3,622.5,2447.3,623.8z M2521,514.4v1.2c0,1.3,1.4,2.4,3.1,2.4c1.7,0,3.1-1.2,3.1-2.4
		v-1.2c0-1.3-1.4-2.4-3.1-2.4C2522.3,512,2521,513.1,2521,514.4z M2248.1,502.7v1.2c0,1.3,1.4,2.4,3.1,2.4s3.1-1.2,3.1-2.4v-1.2
		c0-1.3-1.4-2.4-3.1-2.4S2248.1,501.4,2248.1,502.7z M2320.5,476v1.2c0,1.3,1.4,2.4,3.1,2.4c1.7,0,3.1-1.2,3.1-2.4V476
		c0-1.3-1.4-2.4-3.1-2.4C2321.9,473.6,2320.5,474.7,2320.5,476z M2473.4,90.3v1.2c0,1.3,1.4,2.4,3.1,2.4c1.7,0,3.1-1.2,3.1-2.4v-1.2
		c0-1.3-1.4-2.4-3.1-2.4C2474.8,87.9,2473.4,89,2473.4,90.3z M1972.4,158.8v1.2c0,1.3,1.4,2.4,3.1,2.4c1.7,0,3.1-1.2,3.1-2.4v-1.2
		c0-1.3-1.4-2.4-3.1-2.4C1973.8,156.3,1972.4,157.5,1972.4,158.8z M1794.5,556v1.2c0,1.3,1.4,2.4,3.1,2.4s3.1-1.2,3.1-2.4V556
		c0-1.3-1.4-2.4-3.1-2.4S1794.5,554.7,1794.5,556z M1841.2,643.4v1.2c0,1.3,1.4,2.4,3.1,2.4c1.7,0,3.1-1.2,3.1-2.4v-1.2
		c0-1.3-1.4-2.4-3.1-2.4C1842.5,641,1841.2,642.1,1841.2,643.4z M2000.1,611.7v1.2c0,1.3,1.4,2.4,3.1,2.4c1.7,0,3.1-1.2,3.1-2.4
		v-1.2c0-1.3-1.4-2.4-3.1-2.4C2001.5,609.3,2000.1,610.4,2000.1,611.7z M1852.8,334.9v1.2c0,1.3,1.4,2.4,3.1,2.4
		c1.7,0,3.1-1.2,3.1-2.4v-1.2c0-1.3-1.4-2.4-3.1-2.4C1854.2,332.5,1852.8,333.6,1852.8,334.9z M1766.4,167.6v1.2
		c0,1.3,1.4,2.4,3.1,2.4s3.1-1.2,3.1-2.4v-1.2c0-1.3-1.4-2.4-3.1-2.4S1766.4,166.3,1766.4,167.6z M1808.1,200.4v1.2
		c0,1.3,1.4,2.4,3.1,2.4c1.7,0,3.1-1.2,3.1-2.4v-1.2c0-1.3-1.4-2.4-3.1-2.4C1809.5,197.9,1808.1,199.1,1808.1,200.4z M1866.9,88.4
		v1.2c0,1.3,1.4,2.4,3.1,2.4c1.7,0,3.1-1.2,3.1-2.4v-1.2c0-1.3-1.4-2.4-3.1-2.4C1868.2,86,1866.9,87.2,1866.9,88.4z M1732.4,25.1
		v1.2c0,1.3,1.4,2.4,3.1,2.4c1.7,0,3.1-1.2,3.1-2.4v-1.2c0-1.3-1.4-2.4-3.1-2.4C1733.7,22.6,1732.4,23.8,1732.4,25.1z M1872,6.4v1.2
		c0,1.3,1.4,2.4,3.1,2.4s3.1-1.2,3.1-2.4V6.4c0-1.3-1.4-2.4-3.1-2.4S1872,5.2,1872,6.4z M1926.7,49v1.2c0,1.3,1.4,2.4,3.1,2.4
		c1.7,0,3.1-1.2,3.1-2.4V49c0-1.3-1.4-2.4-3.1-2.4C1928,46.6,1926.7,47.7,1926.7,49z M2229,8.9v1.2c0,1.3,1.4,2.4,3.1,2.4
		c1.7,0,3.1-1.2,3.1-2.4V8.9c0-1.3-1.4-2.4-3.1-2.4C2230.3,6.5,2229,7.6,2229,8.9z M2012.6,202.3v1.2c0,1.3,1.4,2.4,3.1,2.4
		c1.7,0,3.1-1.2,3.1-2.4v-1.2c0-1.3-1.4-2.4-3.1-2.4C2013.9,199.9,2012.6,201,2012.6,202.3z M2090.7,334.6v1.2
		c0,1.3,1.4,2.4,3.1,2.4c1.7,0,3.1-1.2,3.1-2.4v-1.2c0-1.3-1.4-2.4-3.1-2.4C2092.1,332.1,2090.7,333.3,2090.7,334.6z M2159.1,62.9
		v1.2c0,1.3,1.4,2.4,3.1,2.4c1.7,0,3.1-1.2,3.1-2.4v-1.2c0-1.3-1.4-2.4-3.1-2.4C2160.4,60.4,2159.1,61.6,2159.1,62.9z M2059,533.8
		v1.2c0,1.3,1.4,2.4,3.1,2.4c1.7,0,3.1-1.2,3.1-2.4v-1.2c0-1.3-1.4-2.4-3.1-2.4C2060.3,531.4,2059,532.5,2059,533.8z M2333.7,623.8
		v1.2c0,1.3,1.4,2.4,3.1,2.4s3.1-1.2,3.1-2.4v-1.2c0-1.3-1.4-2.4-3.1-2.4S2333.7,622.5,2333.7,623.8z M2311,876.7v1.2
		c0,1.3,1.4,2.4,3.1,2.4c1.7,0,3.1-1.2,3.1-2.4v-1.2c0-1.3-1.4-2.4-3.1-2.4C2312.3,874.3,2311,875.4,2311,876.7z M2123.7,847.4v1.2
		c0,1.3,1.4,2.4,3.1,2.4s3.1-1.2,3.1-2.4v-1.2c0-1.3-1.4-2.4-3.1-2.4S2123.7,846.1,2123.7,847.4z M2347.4,38.3v1.2
		c0,1.3,1.4,2.4,3.1,2.4c1.7,0,3.1-1.2,3.1-2.4v-1.2c0-1.3-1.4-2.4-3.1-2.4C2348.8,35.8,2347.4,37,2347.4,38.3z M2327.9,121.4v1.2
		c0,1.3,1.4,2.4,3.1,2.4c1.7,0,3.1-1.2,3.1-2.4v-1.2c0-1.3-1.4-2.4-3.1-2.4C2329.3,119,2327.9,120.1,2327.9,121.4z M2420.6,15.1v1.2
		c0,1.3,1.4,2.4,3.1,2.4s3.1-1.2,3.1-2.4v-1.2c0-1.3-1.4-2.4-3.1-2.4S2420.6,13.8,2420.6,15.1z M2250.4,187.4v1.2
		c0,1.3,1.4,2.4,3.1,2.4c1.7,0,3.1-1.2,3.1-2.4v-1.2c0-1.3-1.4-2.4-3.1-2.4C2251.8,185,2250.4,186.1,2250.4,187.4z M2169.9,685.4
		v1.2c0,1.3,1.4,2.4,3.1,2.4c1.7,0,3.1-1.2,3.1-2.4v-1.2c0-1.3-1.4-2.4-3.1-2.4C2171.3,683,2169.9,684.1,2169.9,685.4z
		 M2428.4,331.7v1.2c0,1.3,1.4,2.4,3.1,2.4c1.7,0,3.1-1.2,3.1-2.4v-1.2c0-1.3-1.4-2.4-3.1-2.4
		C2429.8,329.3,2428.4,330.4,2428.4,331.7z M2159.1,379.4v1.2c0,1.3,1.4,2.4,3.1,2.4c1.7,0,3.1-1.2,3.1-2.4v-1.2
		c0-1.3-1.4-2.4-3.1-2.4C2160.4,376.9,2159.1,378.1,2159.1,379.4z M2271.4,346.5v1.2c0,1.3,1.4,2.4,3.1,2.4c1.7,0,3.1-1.2,3.1-2.4
		v-1.2c0-1.3-1.4-2.4-3.1-2.4C2272.8,344.1,2271.4,345.2,2271.4,346.5z M2999.9,309.5v1.2c0,1.3,1.4,2.4,3.1,2.4s3.1-1.2,3.1-2.4
		v-1.2c0-1.3-1.4-2.4-3.1-2.4S2999.9,308.2,2999.9,309.5z M2569.9,259.4v1.2c0,1.3,1.4,2.4,3.1,2.4c1.7,0,3.1-1.2,3.1-2.4v-1.2
		c0-1.3-1.4-2.4-3.1-2.4C2571.3,257,2569.9,258.1,2569.9,259.4z M3139.3,521.3v1.2c0,1.3,1.4,2.4,3.1,2.4s3.1-1.2,3.1-2.4v-1.2
		c0-1.3-1.4-2.4-3.1-2.4S3139.3,520,3139.3,521.3z M3121.7,95.7v1.2c0,1.3,1.4,2.4,3.1,2.4c1.7,0,3.1-1.2,3.1-2.4v-1.2
		c0-1.3-1.4-2.4-3.1-2.4C3123.1,93.2,3121.7,94.4,3121.7,95.7z M3126.7,781.7v1.2c0,1.3,1.4,2.4,3.1,2.4c1.7,0,3.1-1.2,3.1-2.4v-1.2
		c0-1.3-1.4-2.4-3.1-2.4C3128.1,779.3,3126.7,780.4,3126.7,781.7z M2599.7,689.2v1.2c0,1.3,1.4,2.4,3.1,2.4c1.7,0,3.1-1.2,3.1-2.4
		v-1.2c0-1.3-1.4-2.4-3.1-2.4C2601.1,686.8,2599.7,687.9,2599.7,689.2z M2565.3,853.3v1.2c0,1.3,1.4,2.4,3.1,2.4
		c1.7,0,3.1-1.2,3.1-2.4v-1.2c0-1.3-1.4-2.4-3.1-2.4C2566.7,850.9,2565.3,852,2565.3,853.3z M2967.7,239.8v1.2
		c0,1.3,1.4,2.4,3.1,2.4s3.1-1.2,3.1-2.4v-1.2c0-1.3-1.4-2.4-3.1-2.4S2967.7,238.5,2967.7,239.8z M2787.6,221.1v1.2
		c0,1.3,1.4,2.4,3.1,2.4c1.7,0,3.1-1.2,3.1-2.4v-1.2c0-1.3-1.4-2.4-3.1-2.4C2789,218.7,2787.6,219.8,2787.6,221.1z M2828,192v1.2
		c0,1.3,1.4,2.4,3.1,2.4s3.1-1.2,3.1-2.4V192c0-1.3-1.4-2.4-3.1-2.4S2828,190.7,2828,192z M2829.5,282.8v1.2c0,1.3,1.4,2.4,3.1,2.4
		s3.1-1.2,3.1-2.4v-1.2c0-1.3-1.4-2.4-3.1-2.4S2829.5,281.5,2829.5,282.8z M3148.3,219.4v1.2c0,1.3,1.4,2.4,3.1,2.4
		c1.7,0,3.1-1.2,3.1-2.4v-1.2c0-1.3-1.4-2.4-3.1-2.4C3149.7,216.9,3148.3,218.1,3148.3,219.4z M3134.6,446.5v1.2
		c0,1.3,1.4,2.4,3.1,2.4c1.7,0,3.1-1.2,3.1-2.4v-1.2c0-1.3-1.4-2.4-3.1-2.4C3136,444,3134.6,445.2,3134.6,446.5z M3180.1,621.3v1.2
		c0,1.3,1.4,2.4,3.1,2.4c1.7,0,3.1-1.2,3.1-2.4v-1.2c0-1.3-1.4-2.4-3.1-2.4C3181.5,618.8,3180.1,620,3180.1,621.3z M3157.4,853.5
		v1.2c0,1.3,1.4,2.4,3.1,2.4c1.7,0,3.1-1.2,3.1-2.4v-1.2c0-1.3-1.4-2.4-3.1-2.4C3158.7,851,3157.4,852.2,3157.4,853.5z
		 M2542.3,582.6v1.2c0,1.3,1.4,2.4,3.1,2.4s3.1-1.2,3.1-2.4v-1.2c0-1.3-1.4-2.4-3.1-2.4S2542.3,581.3,2542.3,582.6z M3003.5,185.3
		v1.2c0,1.3,1.4,2.4,3.1,2.4s3.1-1.2,3.1-2.4v-1.2c0-1.3-1.4-2.4-3.1-2.4S3003.5,184,3003.5,185.3z M2893.9,247v1.2
		c0,1.3,1.4,2.4,3.1,2.4c1.7,0,3.1-1.2,3.1-2.4V247c0-1.3-1.4-2.4-3.1-2.4C2895.3,244.5,2893.9,245.7,2893.9,247z M2485.1,220.1
		c-0.6,1.8,2.7,3.4,5.1,3c1.9-0.3,2.5-1.6,2.3-2.9c-0.4-2.2-4.5-2.6-6.4-1.2C2485.5,219.3,2485.2,219.7,2485.1,220.1z M2508.2,317.8
		v1.2c0,1.3,1.4,2.4,3.1,2.4s3.1-1.2,3.1-2.4v-1.2c0-1.3-1.4-2.4-3.1-2.4S2508.2,316.5,2508.2,317.8z M3112,84.5
		c1.7,0,3.1-1.2,3.1-2.4v-1.2c0-1.3-1.4-2.4-3.1-2.4c-1.7,0-3.1,1.2-3.1,2.4V82C3108.9,83.3,3110.3,84.5,3112,84.5z M2761.9,40.7
		c1.7,0,3.1-1.2,3.1-2.4V37c0-1.3-1.4-2.4-3.1-2.4s-3.1,1.2-3.1,2.4v1.2C2758.8,39.5,2760.1,40.7,2761.9,40.7z M2911.6,122.9
		c1.7,0,3.1-1.2,3.1-2.4v-1.2c0-1.3-1.4-2.4-3.1-2.4c-1.7,0-3.1,1.2-3.1,2.4v1.2C2908.5,121.8,2909.8,122.9,2911.6,122.9z
		 M3064.5,508.6c1.7,0,3.1-1.2,3.1-2.4v-1.2c0-1.3-1.4-2.4-3.1-2.4c-1.7,0-3.1,1.2-3.1,2.4v1.2
		C3061.4,507.5,3062.7,508.6,3064.5,508.6z M3031.9,886.8c1.7,0,3.1-1.2,3.1-2.4v-1.2c0-1.3-1.4-2.4-3.1-2.4c-1.7,0-3.1,1.2-3.1,2.4
		v1.2C3028.8,885.7,3030.1,886.8,3031.9,886.8z M2674.7,657.3c1.7,0,3.1-1.2,3.1-2.4v-1.2c0-1.3-1.4-2.4-3.1-2.4
		c-1.7,0-3.1,1.2-3.1,2.4v1.2C2671.6,656.1,2673,657.3,2674.7,657.3z M2701.7,597.9c1.7,0,3.1-1.2,3.1-2.4v-1.2
		c0-1.3-1.4-2.4-3.1-2.4c-1.7,0-3.1,1.2-3.1,2.4v1.2C2698.6,596.8,2699.9,597.9,2701.7,597.9z M2706.2,556c1.7,0,3.1-1.2,3.1-2.4
		v-1.2c0-1.3-1.4-2.4-3.1-2.4s-3.1,1.2-3.1,2.4v1.2C2703.1,554.9,2704.4,556,2706.2,556z M2643.7,461.4c1.7,0,3.1-1.2,3.1-2.4v-1.2
		c0-1.3-1.4-2.4-3.1-2.4c-1.7,0-3.1,1.2-3.1,2.4v1.2C2640.6,460.3,2642,461.4,2643.7,461.4z M2603.3,515.5c1.7,0,3.1-1.2,3.1-2.4
		v-1.2c0-1.3-1.4-2.4-3.1-2.4c-1.7,0-3.1,1.2-3.1,2.4v1.2C2600.2,514.3,2601.5,515.5,2603.3,515.5z M2781.6,828.2
		c1.7,0,3.1-1.2,3.1-2.4v-1.2c0-1.3-1.4-2.4-3.1-2.4c-1.7,0-3.1,1.2-3.1,2.4v1.2C2778.5,827.1,2779.9,828.2,2781.6,828.2z
		 M2674.8,869.6c1.7,0,3.1-1.2,3.1-2.4v-1.2c0-1.3-1.4-2.4-3.1-2.4c-1.7,0-3.1,1.2-3.1,2.4v1.2
		C2671.6,868.4,2673,869.6,2674.8,869.6z M2820.1,568.6c1.7,0,3.1-1.2,3.1-2.4v-1.2c0-1.3-1.4-2.4-3.1-2.4s-3.1,1.2-3.1,2.4v1.2
		C2817,567.4,2818.4,568.6,2820.1,568.6z M2800.6,485.4c1.7,0,3.1-1.2,3.1-2.4v-1.2c0-1.3-1.4-2.4-3.1-2.4c-1.7,0-3.1,1.2-3.1,2.4
		v1.2C2797.5,484.3,2798.9,485.4,2800.6,485.4z M3011.7,583.8c1.7,0,3.1-1.2,3.1-2.4v-1.2c0-1.3-1.4-2.4-3.1-2.4
		c-1.7,0-3.1,1.2-3.1,2.4v1.2C3008.6,582.7,3009.9,583.8,3011.7,583.8z M2723.1,419.4c1.7,0,3.1-1.2,3.1-2.4v-1.2
		c0-1.3-1.4-2.4-3.1-2.4c-1.7,0-3.1,1.2-3.1,2.4v1.2C2720,418.3,2721.4,419.4,2723.1,419.4z M2936.8,846.4c1.7,0,3.1-1.2,3.1-2.4
		v-1.2c0-1.3-1.4-2.4-3.1-2.4c-1.7,0-3.1,1.2-3.1,2.4v1.2C2933.7,845.2,2935,846.4,2936.8,846.4z M2971.6,717.2
		c1.7,0,3.1-1.2,3.1-2.4v-1.2c0-1.3-1.4-2.4-3.1-2.4c-1.7,0-3.1,1.2-3.1,2.4v1.2C2968.5,716.1,2969.9,717.2,2971.6,717.2z
		 M2561.2,391v1.2c0,1.3,1.4,2.4,3.1,2.4c1.7,0,3.1-1.2,3.1-2.4V391c0-1.3-1.4-2.4-3.1-2.4C2562.5,388.5,2561.2,389.7,2561.2,391z
		 M2658.3,263.9v1.2c0,1.3,1.4,2.4,3.1,2.4c1.7,0,3.1-1.2,3.1-2.4v-1.2c0-1.3-1.4-2.4-3.1-2.4
		C2659.6,261.4,2658.3,262.6,2658.3,263.9z M2593.8,130v1.2c0,1.3,1.4,2.4,3.1,2.4c1.7,0,3.1-1.2,3.1-2.4V130c0-1.3-1.4-2.4-3.1-2.4
		C2595.1,127.6,2593.8,128.8,2593.8,130z M2599,48v1.2c0,1.3,1.4,2.4,3.1,2.4c1.7,0,3.1-1.2,3.1-2.4V48c0-1.3-1.4-2.4-3.1-2.4
		C2600.3,45.6,2599,46.8,2599,48z M2653.6,90.6v1.2c0,1.3,1.4,2.4,3.1,2.4c1.7,0,3.1-1.2,3.1-2.4v-1.2c0-1.3-1.4-2.4-3.1-2.4
		C2654.9,88.2,2653.6,89.3,2653.6,90.6z M2698.5,307.4v1.2c0,1.3,1.4,2.4,3.1,2.4c1.7,0,3.1-1.2,3.1-2.4v-1.2c0-1.3-1.4-2.4-3.1-2.4
		C2699.8,305,2698.5,306.1,2698.5,307.4z"/>
</g>
<g id="VISUALS_DARK_Kopie">
	<g id="SHINE_1_">
		<g id="SHINE_2_">
			<radialGradient id="SVGID_1_" cx="1600" cy="900" r="1000" gradientUnits="userSpaceOnUse">
				<stop  offset="0" style="stop-color:#C855EB"/>
				<stop  offset="1" style="stop-color:#6428B4;stop-opacity:0"/>
			</radialGradient>
			<circle fill="url(#SVGID_1_)" cx="1600" cy="900" r="999.8"/>
			<radialGradient id="SVGID_2_" cx="1600" cy="900" r="600" gradientUnits="userSpaceOnUse">
				<stop  offset="0" style="stop-color:#C855EB"/>
				<stop  offset="1" style="stop-color:#6428B4;stop-opacity:0"/>
			</radialGradient>
			<circle fill="url(#SVGID_2_)" cx="1600" cy="900" r="599.9"/>
			<radialGradient id="SVGID_3_" cx="1600" cy="900" r="900" gradientUnits="userSpaceOnUse">
				<stop  offset="0" style="stop-color:#C855EB"/>
				<stop  offset="1" style="stop-color:#6428B4;stop-opacity:0"/>
			</radialGradient>
			<path fill="url(#SVGID_3_)" d="M2500,777.6L1600,900l858.3-296.5C2477.8,659.8,2491.9,718.2,2500,777.6z M2286.2,1495.3L1600,900
				l556,718.2C2203,1581.9,2246.7,1540.8,2286.2,1495.3z M1896.5,1758.3L1600,900l122.4,900
				C1781.8,1791.9,1840.2,1777.8,1896.5,1758.3z M1600,900l-344,840.5c56.5,23.1,113.9,40.1,171.6,51.3L1600,900z M2491.8,1072.4
				L1600,900l840.5,344C2463.6,1187.5,2480.6,1130.1,2491.8,1072.4z M1004.7,1586.2L1600,900l-718.2,556
				C918.1,1503,959.2,1546.7,1004.7,1586.2z M741.7,1196.5L1600,900l-900,122.4C708.1,1081.8,722.2,1140.2,741.7,1196.5z
				 M2195.3,213.8L1600,900l718.2-556C2281.9,297,2240.8,253.3,2195.3,213.8z M708.2,727.6L1600,900L759.5,556
				C736.4,612.5,719.4,669.9,708.2,727.6z M1600,900L1600,900l344-840.5c-56.5-23.1-113.9-40.1-171.6-51.3L1600,900L1477.6,0
				c-59.5,8.1-117.8,22.2-174.2,41.7L1600,900L1600,900l-556-718.2c-47,36.3-90.7,77.4-130.2,123L1600,900z"/>
			
				<radialGradient id="SVGID_4_" cx="1600" cy="900" r="800" gradientTransform="matrix(0.9976 6.877925e-02 -6.877925e-02 0.9976 65.6903 -107.9155)" gradientUnits="userSpaceOnUse">
				<stop  offset="0" style="stop-color:#C855EB"/>
				<stop  offset="1" style="stop-color:#6428B4;stop-opacity:0"/>
			</radialGradient>
			<path fill="url(#SVGID_4_)" d="M873.3,1234.8L1600,900l-694.7,396.9C893.8,1276.7,883.1,1256.1,873.3,1234.8z M800.1,896.4
				L1600,900l-796.7-73.4C801.3,849.7,800.2,872.9,800.1,896.4z M1275.3,1631.2L1600,900l-461.8,653.1
				C1181.1,1583.5,1227,1609.7,1275.3,1631.2z M1596.4,1699.9L1600,900l-73.4,796.7C1549.7,1698.7,1572.9,1699.8,1596.4,1699.9z
				 M1996.9,1594.7L1600,900l334.8,726.7C1956.1,1616.9,1976.7,1606.2,1996.9,1594.7z M909.1,496.9L1600,900L946.9,438.2
				C933.4,457.2,920.8,476.8,909.1,496.9z M2331.2,1224.7L1600,900l653.1,461.8C2283.5,1318.9,2309.7,1273,2331.2,1224.7z
				 M2294.7,503.1L1600,900l726.7-334.8C2316.9,543.9,2306.2,523.3,2294.7,503.1z M1600,900L1600,900L1600,900L1600,900z
				 M1603.6,100.1L1600,900l73.4-796.7C1650.3,101.3,1627.1,100.2,1603.6,100.1z M1129.1,253.2L1600,900l-334.8-726.7
				C1216.9,195.5,1171.4,222.4,1129.1,253.2z M2003.1,209.1L1600,900l461.8-653.1C2042.8,233.4,2023.2,220.8,2003.1,209.1z
				 M2399.9,903.6L1600,900l796.7,73.4C2398.7,950.3,2399.8,927.1,2399.9,903.6z"/>
			<radialGradient id="SVGID_5_" cx="1580.3182" cy="919.6816" r="900.0001" gradientUnits="userSpaceOnUse">
				<stop  offset="0" style="stop-color:#C855EB"/>
				<stop  offset="1" style="stop-color:#6428B4;stop-opacity:0"/>
			</radialGradient>
			<path opacity="0.5" fill="url(#SVGID_5_)" d="M736.2,1243.6l863.7-343.4l-880.5,297.7C724.5,1213.3,730.2,1228.5,736.2,1243.6z
				 M680.3,765.8l919.5,134.4L688.5,717.8C685.4,733.6,682.7,749.6,680.3,765.8z M1465.4,1819.7l134.4-919.5l-182.4,911.3
				C1433.3,1814.6,1449.3,1817.3,1465.4,1819.7z M1943.2,1763.8l-343.4-863.7l297.7,880.5C1913,1775.5,1928.2,1769.8,1943.2,1763.8z
				 M2328.9,1476.3l-729.1-576.1l697.9,613.5C2308.4,1501.5,2318.8,1489,2328.9,1476.3z M870.8,324l729.1,576.1L902,286.7
				C891.2,298.9,880.8,311.3,870.8,324z M2463.5,556.8l-863.7,343.4l880.5-297.7C2475.1,587,2469.5,571.8,2463.5,556.8z
				 M1599.8,900.2L1599.8,900.2L1599.8,900.2L1599.8,900.2z M1256.4,36.5l343.4,863.7L1302.1,19.7
				C1286.7,24.9,1271.5,30.5,1256.4,36.5z M2176,171.1l-576.1,729.1l613.5-697.9C2201.1,191.6,2188.7,181.2,2176,171.1z"/>
		</g>
		<g id="SHINE_3_">
			<radialGradient id="SVGID_6_" cx="1600" cy="900" r="1000" gradientUnits="userSpaceOnUse">
				<stop  offset="0" style="stop-color:#6428B4"/>
				<stop  offset="0.5" style="stop-color:#C855EB;stop-opacity:0"/>
			</radialGradient>
			<circle fill="url(#SVGID_6_)" cx="1600" cy="900" r="999.8"/>
			<radialGradient id="SVGID_7_" cx="1600" cy="900" r="600" gradientUnits="userSpaceOnUse">
				<stop  offset="0" style="stop-color:#6428B4"/>
				<stop  offset="0.5" style="stop-color:#C855EB;stop-opacity:0"/>
			</radialGradient>
			<circle fill="url(#SVGID_7_)" cx="1600" cy="900" r="599.9"/>
			<radialGradient id="SVGID_8_" cx="1600" cy="900" r="900" gradientUnits="userSpaceOnUse">
				<stop  offset="0" style="stop-color:#6428B4"/>
				<stop  offset="0.5" style="stop-color:#C855EB;stop-opacity:0"/>
			</radialGradient>
			<path fill="url(#SVGID_8_)" d="M2500,777.6L1600,900l858.3-296.5C2477.8,659.8,2491.9,718.2,2500,777.6z M2286.2,1495.3L1600,900
				l556,718.2C2203,1581.9,2246.7,1540.8,2286.2,1495.3z M1896.5,1758.3L1600,900l122.4,900
				C1781.8,1791.9,1840.2,1777.8,1896.5,1758.3z M1600,900l-344,840.5c56.5,23.1,113.9,40.1,171.6,51.3L1600,900z M2491.8,1072.4
				L1600,900l840.5,344C2463.6,1187.5,2480.6,1130.1,2491.8,1072.4z M1004.7,1586.2L1600,900l-718.2,556
				C918.1,1503,959.2,1546.7,1004.7,1586.2z M741.7,1196.5L1600,900l-900,122.4C708.1,1081.8,722.2,1140.2,741.7,1196.5z
				 M2195.3,213.8L1600,900l718.2-556C2281.9,297,2240.8,253.3,2195.3,213.8z M708.2,727.6L1600,900L759.5,556
				C736.4,612.5,719.4,669.9,708.2,727.6z M1600,900L1600,900l344-840.5c-56.5-23.1-113.9-40.1-171.6-51.3L1600,900L1477.6,0
				c-59.5,8.1-117.8,22.2-174.2,41.7L1600,900L1600,900l-556-718.2c-47,36.3-90.7,77.4-130.2,123L1600,900z"/>
			
				<radialGradient id="SVGID_9_" cx="1600" cy="900" r="800" gradientTransform="matrix(0.9976 6.877925e-02 -6.877925e-02 0.9976 65.6903 -107.9155)" gradientUnits="userSpaceOnUse">
				<stop  offset="0" style="stop-color:#6428B4"/>
				<stop  offset="0.5" style="stop-color:#C855EB;stop-opacity:0"/>
			</radialGradient>
			<path fill="url(#SVGID_9_)" d="M873.3,1234.8L1600,900l-694.7,396.9C893.8,1276.7,883.1,1256.1,873.3,1234.8z M800.1,896.4
				L1600,900l-796.7-73.4C801.3,849.7,800.2,872.9,800.1,896.4z M1275.3,1631.2L1600,900l-461.8,653.1
				C1181.1,1583.5,1227,1609.7,1275.3,1631.2z M1596.4,1699.9L1600,900l-73.4,796.7C1549.7,1698.7,1572.9,1699.8,1596.4,1699.9z
				 M1996.9,1594.7L1600,900l334.8,726.7C1956.1,1616.9,1976.7,1606.2,1996.9,1594.7z M909.1,496.9L1600,900L946.9,438.2
				C933.4,457.2,920.8,476.8,909.1,496.9z M2331.2,1224.7L1600,900l653.1,461.8C2283.5,1318.9,2309.7,1273,2331.2,1224.7z
				 M2294.7,503.1L1600,900l726.7-334.8C2316.9,543.9,2306.2,523.3,2294.7,503.1z M1600,900L1600,900L1600,900L1600,900z
				 M1603.6,100.1L1600,900l73.4-796.7C1650.3,101.3,1627.1,100.2,1603.6,100.1z M1129.1,253.2L1600,900l-334.8-726.7
				C1216.9,195.5,1171.4,222.4,1129.1,253.2z M2003.1,209.1L1600,900l461.8-653.1C2042.8,233.4,2023.2,220.8,2003.1,209.1z
				 M2399.9,903.6L1600,900l796.7,73.4C2398.7,950.3,2399.8,927.1,2399.9,903.6z"/>
			<radialGradient id="SVGID_10_" cx="1580.3182" cy="919.6816" r="900.0001" gradientUnits="userSpaceOnUse">
				<stop  offset="0" style="stop-color:#6428B4"/>
				<stop  offset="0.5" style="stop-color:#C855EB;stop-opacity:0"/>
			</radialGradient>
			<path opacity="0.5" fill="url(#SVGID_10_)" d="M736.2,1243.6l863.7-343.4l-880.5,297.7C724.5,1213.3,730.2,1228.5,736.2,1243.6z
				 M680.3,765.8l919.5,134.4L688.5,717.8C685.4,733.6,682.7,749.6,680.3,765.8z M1465.4,1819.7l134.4-919.5l-182.4,911.3
				C1433.3,1814.6,1449.3,1817.3,1465.4,1819.7z M1943.2,1763.8l-343.4-863.7l297.7,880.5C1913,1775.5,1928.2,1769.8,1943.2,1763.8z
				 M2328.9,1476.3l-729.1-576.1l697.9,613.5C2308.4,1501.5,2318.8,1489,2328.9,1476.3z M870.8,324l729.1,576.1L902,286.7
				C891.2,298.9,880.8,311.3,870.8,324z M2463.5,556.8l-863.7,343.4l880.5-297.7C2475.1,587,2469.5,571.8,2463.5,556.8z
				 M1599.8,900.2L1599.8,900.2L1599.8,900.2L1599.8,900.2z M1256.4,36.5l343.4,863.7L1302.1,19.7
				C1286.7,24.9,1271.5,30.5,1256.4,36.5z M2176,171.1l-576.1,729.1l613.5-697.9C2201.1,191.6,2188.7,181.2,2176,171.1z"/>
		</g>
	</g>
	<g id="PLANET_X_1_">
		<polygon id="EDGES_BACK_1_" fill="#190A2D" points="1350.3,587.5 1422.1,722.1 1287.5,650.3 1501.6,900 1287.5,1149.7 
			1422.1,1077.9 1350.3,1212.5 1849.7,1212.5 1777.9,1077.9 1912.5,1149.7 1912.5,650.3 1777.9,722.1 1849.7,587.5 		"/>
		<radialGradient id="CORE_1_" cx="1600" cy="900" r="364.4445" gradientUnits="userSpaceOnUse">
			<stop  offset="0.5" style="stop-color:#FFFFFF"/>
			<stop  offset="1" style="stop-color:#963CFF"/>
		</radialGradient>
		<circle id="CORE_5_" fill="url(#CORE_1_)" cx="1600" cy="900" r="364.4"/>
		<g>
			<defs>
				<path id="SVGID_11_" d="M1680.6,900l231.9-249.7c54.7,68.4,87.5,155.2,87.5,249.7s-32.8,181.2-87.5,249.7L1680.6,900z
					 M1600,819.4l249.7-231.9c-68.4-54.7-155.2-87.5-249.7-87.5s-181.2,32.8-249.7,87.5L1600,819.4z M1600,980.6l-249.7,231.9
					c68.4,54.7,155.2,87.5,249.7,87.5s181.2-32.8,249.7-87.5L1600,980.6z M1287.5,650.3c-54.7,68.4-87.5,155.2-87.5,249.7
					s32.8,181.2,87.5,249.7L1519.4,900L1287.5,650.3z"/>
			</defs>
			<clipPath id="SVGID_12_">
				<use xlink:href="#SVGID_11_"  overflow="visible"/>
			</clipPath>
			<g clip-path="url(#SVGID_12_)">
				<g>
					<linearGradient id="SVGID_13_" gradientUnits="userSpaceOnUse" x1="1600" y1="457.5309" x2="1600" y2="1342.4691">
						<stop  offset="0" style="stop-color:#7D32D8"/>
						<stop  offset="0.3" style="stop-color:#6428B4"/>
						<stop  offset="0.6" style="stop-color:#3C186C"/>
						<stop  offset="1" style="stop-color:#1E0C36"/>
					</linearGradient>
					<circle fill="url(#SVGID_13_)" cx="1600" cy="900" r="442.4"/>
					<radialGradient id="SVGID_14_" cx="1600" cy="900" r="444.4412" gradientUnits="userSpaceOnUse">
						<stop  offset="0.4" style="stop-color:#6428B4"/>
						<stop  offset="1" style="stop-color:#3C186C"/>
					</radialGradient>
					<path opacity="0.5" fill="url(#SVGID_14_)" d="M1430,1283.3c29.3-8.2,60-19.2,89.3-11.1c16.1,4.4,30.4,14.4,46.9,17
						c20.7,3.3,41.6-5.7,57.9-18.8c16.3-13.1,28.9-30.1,42.3-46.2c22.8-27.3,48.9-52.4,79.6-70.6c15.9-9.4,39.4-23.5,58.6-21.4
						c6.5,0.7,12.4,3.6,18.8,4.5c4.8,0.7,9.7,0.2,13.5,3.9c5.1,5,2.2,14-3,18.8c-9,8.2-18.9,14.5-27.9,23
						c-5.6,5.3-10.5,13.9-3.3,19.7c9.3,7.5,22-3.8,29.6-8c23.9-12.9,43-22.2,61.3-43.5c17.6-20.5,32.6-43.6,53.6-60.7
						c10.6-8.6,22.6-15.5,31.9-25.4c18-19.1,7.7-37,13-59.4c5.3-22.4,23.9-38.6,40.1-54.9c3.7-3.7,7.3-7.6,10.7-11.8
						c-20.4,237.4-225.5,417.8-465.3,405.6c-68.9-3.5-133.3-22.5-190-53.5C1401.7,1290.1,1416.3,1287.1,1430,1283.3z M1784.1,1233.2
						c-4.7-1.9-10-1.9-15.1-1.4c-27.8,2.4-54.5,15-74.1,34.8c-4.9,4.9-9.5,12.6-5.5,18.2c2.1,3,5.8,4.2,9.3,5
						c24.3,5.5,49.8-0.3,70.5-13.9C1779.8,1269,1807.8,1243,1784.1,1233.2z M1890,1109.6c0.9-1.6,1.6-3.4,1.1-5.1
						c-0.8-3-4.7-3.7-7.8-3.7c-13.7,0-27.3,4.4-38.4,12.3c-11.5,8.2,4.7,18.4,13.6,17.4C1871.5,1129,1883.8,1121,1890,1109.6z
						 M1222.5,665.9c9.2-0.1,22.2,0.8,30.8-3c10.5-4.7,19.4-16.4,29.1-23c21.5-14.7,46.2-24.9,72-29.2c8.6-1.4,17.6-2.3,25.2-6.6
						c7.6-4.3,13.5-13.1,11.2-21.6c-2.1-7.7-10.3-12.6-12.4-20.4c-3.2-11.5,8-21.6,18.3-27.6c38.5-22.4,85.4-33.6,129.9-30.9
						c31.4,1.9,61.7,12.4,93,15.2c48.5,3.2,94.8-9.7,142.1-18.8c8.1-1.6,16.1-2.9,24.1-3.9c-49.9-23-104.9-37-163.2-40
						c-2.3-0.1-4.6-0.2-6.9-0.3c-7.4-0.3-14.8-0.3-22.2-0.2c-1.4,0-2.8,0-4.2,0.1c-3.4,0.1-6.8,0.2-10.2,0.3
						c-1.6,0.1-3.2,0.2-4.8,0.3c-1.4,0.1-2.8,0.2-4.2,0.3c-1.2,0.1-2.4,0.2-3.6,0.2c-1.4,0.1-2.8,0.2-4.2,0.4
						c-1.3,0.1-2.7,0.2-4,0.3c-1.3,0.1-2.7,0.2-4,0.4c-1.3,0.1-2.7,0.3-4,0.4c-1.3,0.1-2.7,0.3-4,0.5c-2,0.2-4.1,0.5-6.1,0.8
						c-1.4,0.2-2.9,0.4-4.3,0.6c-0.3,0-0.7,0.1-1,0.1c-1.3,0.2-2.5,0.4-3.8,0.6c-3.2,0.5-6.5,1-9.7,1.6c-1.9,0.3-3.8,0.7-5.8,1.1
						c-1.8,0.4-3.7,0.7-5.5,1.1c-7.8,1.6-15.5,3.4-23.1,5.4c-3.8,1-7.6,2-11.3,3.1c-2.1,0.6-4.3,1.3-6.4,1.9c-1.6,0.5-3.2,1-4.8,1.5
						c-1.9,0.6-3.7,1.2-5.6,1.8c-1.9,0.6-3.7,1.2-5.5,1.9c-1.9,0.6-3.7,1.3-5.5,2c-3.7,1.3-7.3,2.7-11,4.2c-1.8,0.7-3.6,1.5-5.4,2.2
						c-1.8,0.7-3.6,1.5-5.4,2.3c-1.8,0.8-3.6,1.5-5.4,2.3c-3.6,1.6-7.1,3.2-10.7,4.9c0,0,0,0-0.1,0c-3.5,1.7-7,3.4-10.5,5.1
						c-1.4,0.7-2.8,1.4-4.2,2.2c-1.6,0.8-3.2,1.7-4.8,2.5c-1.2,0.6-2.5,1.3-3.7,2c-1.9,1-3.8,2.1-5.7,3.2c-1.6,0.9-3.1,1.8-4.7,2.7
						c-1.8,1-3.5,2-5.2,3.1c-2.1,1.3-4.2,2.5-6.2,3.8c-1.5,1-3.1,1.9-4.6,2.9c-1.5,1-3,2-4.5,2.9c-1.5,1-3,2-4.5,3
						c-0.8,0.5-1.5,1-2.3,1.5c-0.8,0.5-1.6,1.1-2.4,1.6c-49.1,34.1-91.1,77.9-123.1,128.7c0,0,0,0,0,0.1
						C1223.2,664.3,1222.8,665.2,1222.5,665.9z M1448.2,546.7c-7.8,4.6-37.6,26.5-27.1,33.3c2.4,1.6,5.3,2,8.2,2.3
						c27.1,3,55.1-2.2,79.2-14.9c4.5-2.4,9.4-5.8,9.6-10.9c0.2-5.3-4.9-9.3-9.7-11.6C1489.8,536.5,1466.3,536.1,1448.2,546.7z
						 M1699,1082.4c-10.9-0.7-22.1,1.1-31.8,6.3c-9.7,5.2-17.6,13.8-21,24.2c-1.8,5.6-2.1,12.2,1.4,16.9c4.3,5.8,12.5,6.7,19.8,6.8
						c12.2,0.3,25.1-0.2,35.6-6.5C1721.7,1118.8,1726,1084.2,1699,1082.4z M1603.7,1249.6c13.7-9,22.2-22.6,36.6-30.8
						c6.8-3.9,13.9-10.1,13-17.9c-0.7-5.9-6.2-10.5-12.1-11.8c-5.8-1.3-11.9-0.1-17.7,1.4c-26.7,7-51.3,20.1-75.6,33.1
						c-7.5,4-15.9,9.3-16.9,17.7c-0.7,6,2.9,12,7.9,15.4c5,3.4,11.2,4.7,17.2,5.2C1572.7,1263.4,1589.7,1258.7,1603.7,1249.6z
						 M1910.5,1060.1c2.8,2.7,7.1,3.1,11,3.1c15.1,0.1,30.9-4,41.9-14.4c17-16.1,9.9-38.4,13.5-58.7c3.1-17.6,12-34.3,25.4-46.3
						c14.6-13.1,28.4-26.3,42.1-40.5c0.1-7.2-0.1-14.3-0.3-21.4c-5.4,6.3-11.2,12.3-17.6,17.6c-16.6,13.6-40.2,13.4-52.3,32.2
						c-10.6,16.5-6.7,38.9-15.9,56.2c-6.4,11.9-18.1,19.9-28.6,28.4c-10.5,8.5-20.9,19.2-22.3,32.6
						C1907.1,1053,1907.6,1057.4,1910.5,1060.1z M1215.3,1122.5c0.4,0.7,0.8,1.4,1.2,2.1c11.9,20.3,25.4,39.7,40.4,57.8
						c0.4,0.1,0.9,0.1,1.3,0.2c19.4,2.6,40.7-4.6,57.8,4.9c16.3,9.1,21.6,29.4,32,44.8c31.1,46.3,88.8,30.8,131.8,13.8
						c3.9-1.5,7.9-3.3,10.8-6.3c2.9-3,4.6-7.5,3.2-11.5c-1.9-5.1-8-7.1-13.4-8.2c-31-6.3-71.2,0.6-95.7-24.3
						c-12.7-12.9-17-33.1-31.9-43.3c-13.3-9.1-30.9-7.4-47.1-8.2c-30.4-1.5-59.5-11.5-88.6-21.4
						C1216.5,1122.9,1215.9,1122.7,1215.3,1122.5z M1181.9,1051c5.5,15.1,11.7,29.9,18.8,44.2c12,0.8,24.4-2.9,33.9-10.4
						c2.8-2.2,5.5-5,6-8.6c0.5-3.6-1.5-7.2-4.2-9.5c-2.8-2.3-6.2-3.7-9.7-4.9C1216.5,1058.2,1197.4,1050.8,1181.9,1051z M1193,721.1
						c23.7-0.5,43.4-14.4,66-20.4c13.3-3.5,24.2,0.6,37.3-1.1c13-1.7,25.2-8.2,35.9-15.6c15.6-10.8,30-24.1,47.8-30.5
						c13.8-5,28.7-5.4,43.4-5.5c26.2-0.2,52.5,0.5,78.6,2.1c16.5,1,33.1,2.4,49.4-0.2c16.3-2.6,32.5-9.6,42.7-22.6
						c9.7-12.3,13.6-29.2,26-38.7c8-6.1,18.3-8,28.2-9.7c48.2-8.4,97.9-19.6,146.5-22.2c28.7-1.5,57.8-3,86.4-0.7
						c-16.7-13.7-34.5-26.3-53.2-37.4c-28.1-1.2-56.7,2.4-84.7,6.1c-28.6,3.7-57.2,7.5-85.9,11.2c-54.3,7.1-111.6,15.4-154.5,49.5
						c-6.5,5.1-12.6,10.9-19.8,15c-15.4,8.9-33.9,9.6-51.6,11.8c-49.4,6.1-96.6,25.1-138.9,51.4c-12.7,7.9-25.1,16.5-39.1,21.6
						c-14.9,5.5-30.7,6.6-46.7,7.1C1202.1,701.5,1197.4,711.2,1193,721.1z M1884.2,703.9c1.5-3.4,2.2-7.4,0.9-10.9
						c-2.6-7.4-12.1-9.3-20-9.8c-21.7-1.2-44.4,0.3-64.8,8.5c-9.1,3.7-14.2,8.1-20.9,14.7c-6.2,6.1-17.1,10.5-21.9,17.6
						c-1.3,2-1.7,4.4-1.9,6.8c-0.8,9.6,2.7,20.5,11.5,24.4c3,1.3,6.4,1.7,9.7,1.7c9.1,0,18.2-3.1,25.5-8.5c5.5-4.1,10-9.5,15.8-13.3
						C1837.3,722.5,1873.7,728.6,1884.2,703.9z M1351.7,699.4c-7.2,5.6-14.1,12.1-17.7,20.5c-3.6,8.4-3.2,19,3,25.7
						c6.9,7.4,18.5,7.9,28.4,5.6c8.9-2.1,17.2-6,25.4-9.9c28.1-13.3,56.3-26.6,84.4-39.9c4.3-2,9.3-5.5,8.2-10.1
						c-0.7-2.9-3.6-4.6-6.3-5.8C1440,668.7,1383.7,674.6,1351.7,699.4z M1615.9,678.2c5.3-4.4,9.2-10.5,11-17.2
						c1.4-5.2,3.3-8.7,5.5-13.6c2.3-5.1,3.1-10-0.1-15c-0.5-0.8-1.2-1.6-2.1-1.8c-1-0.3-2,0.1-2.9,0.5c-9.8,3.9-19.9,7.9-27.9,14.8
						c-8,6.9-13.7,17.4-12.2,27.8c0.7,5,3.5,10.1,8.3,11.7C1602.4,687.7,1610.9,682.4,1615.9,678.2z M1161.5,827.3
						c28.1-3.5,53.1-22.7,81.1-29.8c28.7-7.2,62.1-2.2,85.5-20.5c1.4-1.1,2.9-2.4,3-4.2c0.1-1.5-0.7-2.8-1.5-4.1
						c-8.2-12.7-16.9-26-30.2-33.3c-18.9-10.5-41.2-6.2-61.3-2.5c-17.4,3.2-34.9,3.1-52.2,5.5
						C1174.8,766.7,1166.6,796.4,1161.5,827.3z M1196.2,886.4c21.2,2.7,42.5-2.2,63.8-2.9c51.2-1.7,103.3,20.8,152.7,6.9
						c29.1-8.2,53.8-28.4,82.8-36.7c41.3-11.9,85.7,1.4,128.2-4.5c40.7-5.6,79.1-28.7,120-25c20.4,1.8,39.6,10.3,59.8,13.8
						c29,5,58.4-0.6,85.6-11.2c14-5.5,27.5-12.3,40.6-19.7c24.1-13.6,50.2-21.9,71.4-40.6c5.9-5.1,11.4-11,18.1-14.8
						c5.6,15.8,10.3,32.1,14.1,48.7c-21.8,13-46.6,21-70.8,27.9c-25.2,7.2-45.4,19.9-59.4,42.9c-11.5,18.9-14.4,37.9-36.9,47.4
						c-18.1,7.7-33,23.1-52.3,27.8c-18.3,4.5-37.4-1-55.8-5.1c-73.3-16.3-151.4-10.7-221.7,16.1c-18.1,6.9-36.8,16.1-46.5,32.9
						c-3.8,6.4-6,13.7-9.8,20.2c-15.2,25.8-50.6,31.3-80.2,26.6c-16-2.5-31.6-7.2-46.2-14c-15.4-7.2-29.5-16.8-44.3-25.1
						c-45.5-25.7-97.7-39.3-150-39.7c-3.4-26.2-4.6-53-3.2-80.3C1169.6,880,1182.6,884.7,1196.2,886.4z M1443.5,953.5
						c2.8-8.1,9.5-14,12.5-21.7c7.6-20-19.8-19.6-33-18.3c-37,3.6-73.9,7.2-110.9,10.9c-8.6,0.8-19.4,3.6-20.8,12.1
						c-1.1,6.4,4.2,12.1,9.2,16.2c32,26.3,75,38.6,116,33.4c7.1-0.9,14.6-2.6,19.3-8C1441.6,971.3,1440.7,961.6,1443.5,953.5z
						 M1832.3,897.4c7.9-4.5,32.1-29,10.2-31c-19.8-1.8-39.8,6.2-59.3,2.7c-7.6-1.4-14.9-4.5-22.4-6.4c-7.5-1.9-15.8-2.5-22.8,0.9
						c-2.7,1.3-5.2,3.3-6.5,5.9c-0.9,1.7-1.3,3.7-1.4,5.6c-0.5,9.9,6.2,19,14.7,24.1c8.5,5.1,18.5,6.8,28.4,7.8
						C1793.8,909.4,1814,908.1,1832.3,897.4z M1213.3,845.8c6.9-8.7,17.4-13.9,27.9-17.6c23.7-8.5,48.9-11.6,73.9-12.8
						c25.1-1.3,39.7,1.8,56.5-19.1c47.8-59.4,128.5-79.9,204.1-89.9c22.8-3,48.6-7,61.9-25.8c7-9.9,9.3-22.4,14.9-33.1
						c9.9-19,29.4-31,49.1-39.4c26.7-11.4,55.2-17.9,84.1-20.8c43.2-4.3,90.2-3,133.9,3.9c37,38.3,67.1,83.1,88.4,132.4
						c-0.5,0.6-1,1.2-1.4,1.9c-21.3,26.8-50.3,47.2-82.4,58.9c-30.8,11.3-77.3,23.8-108.4,8.9c-6.3-3-12.8-9.9-9.6-16.1
						c1.2-2.4,3.6-3.9,5.8-5.4c20.1-12.6,42.2-28.4,64.7-35.7c17.1-5.6,38.7-9.5,44.9-29.4c4.8-15.4-4.9-32.4-18.7-40.7
						c-13.8-8.3-30.6-9.6-46.7-9.4c-27.3,0.2-55.3,4.2-79.2,17.5c-9.5,5.3-18.2,11.9-28.1,16.4c-25.8,11.7-58.9,8.4-78.9,28.5
						c-3.7,3.7-6.8,10-3.3,14c1.1,1.3,2.7,2,4.2,2.7c14.8,6.5,31.2,9.6,47.4,8.7c3.1-0.2,6.4-0.4,9.3,0.8
						c12.8,5.3,9.1,23.4,0.3,29.6c-14.5,10.3-35.5,10.8-52,16.2c-23.2,7.6-46.2,16.4-69.2,24.6c-7.8,2.8-15.9,5.6-24.2,5.7
						c-8.3,0.1-17.1-3-21.8-9.9c-1.9-2.8-3.1-6.2-5.6-8.5c-3-2.7-7.2-3.2-11.2-3.7c-10.7-1.3-22-2.4-31.7,2.2c-4,1.9-7.5,4.7-11,7.4
						c-16.4,12.1-35.3,22.9-52.6,33.5c-20.6,12.7-45.5,22.2-69.8,23.5c-23.8,1.2-46.2-10-70.8-9.7c-26.1,0.3-51.9,5.4-77.5,10.1
						c-7.5,1.4-17.2,1.7-20.7-5.1C1207.4,856.2,1209.9,850.1,1213.3,845.8z M1761.5,647.1c3.2-3.2,17-17.4,15.6-21.7
						c-0.3-0.9-1.2-1.6-2-2.1c-6.2-3.6-14-3.1-21.1-2.1c-25.2,3.2-52.1,10.4-68,30.3c-2.7,3.4-5.1,7.9-3.4,11.9
						c2.2,5.3,9.5,5.6,15.2,5.1c12.8-1.2,25.7-2.5,37.9-6.4C1745.2,659,1754.4,654.2,1761.5,647.1z M1191.1,993.9
						c20.2,1.8,40.6,10,52.7,26.2c10.6,14.1,14.4,33.5,28.5,44.1c18.5,13.8,44.6,5.9,67.5,9.3c22.1,3.3,40.8,17.4,60,28.8
						c11,6.5,26.8,16.1,40,14.7c12.7-1.3,26.5-6.6,39.6-8.4c13.8-1.9,28-4.9,39-13.5c10.9-8.6,17.4-24.3,11.4-36.9
						c-4.2-8.9-13.8-14.7-17.1-24c-3.5-9.9,1.3-21.2,9-28.2c7.7-7,17.9-10.7,27.9-13.9c71.6-23.1,148.6-33,222.5-19
						c7.3,1.4,14.9,3.2,20.7,7.9c5.8,4.7,9.2,13.2,5.9,19.9c-1.3,2.6-3.6,5.3-2.7,8.1c1.1,3.3,5.6,3.5,9,3.1
						c24.5-3.4,64.9-12.8,71-41.7c1.7-7.9,1.7-16.4,6-23.2c11-17.3,36.5-13.9,44.7-34.5c4.8-12.1,5.1-25.9,11.3-37.4
						c9.6-17.9,29.9-25,47.2-33.1c8.9-4.1,18.5-8.4,25.9-15c1.9-1.8,23.5-21.3,24.3-17.4c2.3,11.1,4.2,22.4,5.6,33.9
						c-1.5,1.3-2.8,2.5-3.9,3.5c-8.7,8.4-17.2,17.9-26.2,25.8c-10.4,9.1-24.8,12.2-36,20.4c-11.7,8.6-21.2,21.4-22.5,35.8
						c-1.1,12.6,3.8,26.5-2.8,37.4c-5.7,9.3-17.7,12.5-25.7,19.8c-8.3,7.5-11.8,18.8-16.9,28.7c-21,40.4-69,58.9-111.2,67.3
						c-19,3.8-49.9,11.7-64.3-6.2c-5.3-6.5-7-15.5-12.7-21.7c-11.1-12.2-30-9.6-43.4-3.7c-23.2,10.2-56.1,14.8-75.6,31.5
						c-5.2,4.5-9,11.1-8.2,17.9c1.6,14.2,20.3,20.1,25.4,33.4c8.4,22-15,31.5-31.2,37.5c-33.3,12.2-64.9,24.1-100.7,27.3
						c-25.1,2.2-59.8,5.1-79.6-14.2c-9-8.7-11.5-22.1-18.2-32.7c-14.1-22.2-43.4-28.1-69.6-30.6c-17.3-1.7-36.3-3.5-48.4-16
						c-14.6-15.2-13.1-40.2-25.8-57c-13.6-17.9-38.9-21.2-61.4-21.3c-2.7,0-5.4,0-8.1,0c-3.2-10.7-6-21.5-8.3-32.5
						C1174,993.6,1182.5,993.1,1191.1,993.9z M1557.3,1011.9c-4.7,3.1-11.6,7-12,12.9c-0.3,5,5.2,13.5,9.2,16.1
						c3.8,2.5,8.7,2.7,13.2,2.6c21.9-0.4,43.7-5.1,63.7-13.9c5.2-2.3,10.9-5.7,11.7-11.3c0.6-4.3-2.2-8.4-5.8-10.8
						c-3.6-2.4-7.9-3.3-12.1-4.1c-10.5-2-21.2-3.7-31.9-3.2C1581,1001,1567.7,1005,1557.3,1011.9z"/>
					
						<radialGradient id="SVGID_15_" cx="1699.9083" cy="1104.0789" r="614.0046" gradientTransform="matrix(-0.548 -0.3574 0.7148 -0.274 1742.3986 1585.3599)" gradientUnits="userSpaceOnUse">
						<stop  offset="0" style="stop-color:#6428B4"/>
						<stop  offset="0.5" style="stop-color:#965AE6;stop-opacity:0.8"/>
						<stop  offset="1" style="stop-color:#6428B4;stop-opacity:0"/>
					</radialGradient>
					<ellipse opacity="0.6" fill="url(#SVGID_15_)" cx="1600" cy="675.2" rx="553.1" ry="276.5"/>
					
						<radialGradient id="SVGID_16_" cx="2026.8158" cy="713.0953" r="668.3261" gradientTransform="matrix(0.3686 -0.8603 0.8603 0.3686 239.4409 2176.8997)" gradientUnits="userSpaceOnUse">
						<stop  offset="0" style="stop-color:#140036;stop-opacity:0"/>
						<stop  offset="1" style="stop-color:#140036"/>
					</radialGradient>
					<circle opacity="0.25" fill="url(#SVGID_16_)" cx="1600" cy="696" r="625.5"/>
				</g>
			</g>
		</g>
		<g id="X_EDGES_1_">
			<g>
				<linearGradient id="SVGID_17_" gradientUnits="userSpaceOnUse" x1="1412.3179" y1="906.0025" x2="1412.3179" y2="650.3441">
					<stop  offset="0" style="stop-color:#FFFFFF"/>
					<stop  offset="1" style="stop-color:#6428B4"/>
				</linearGradient>
				<polygon fill="url(#SVGID_17_)" points="1287.5,650.3 1488.5,906 1537.1,900 				"/>
				<linearGradient id="SVGID_18_" gradientUnits="userSpaceOnUse" x1="1537.1459" y1="1024.828" x2="1287.4899" y2="1024.828">
					<stop  offset="0" style="stop-color:#FFFFFF"/>
					<stop  offset="1" style="stop-color:#6428B4"/>
				</linearGradient>
				<polygon fill="url(#SVGID_18_)" points="1483.8,900 1287.5,1149.7 1537.1,900 				"/>
			</g>
			<g>
				
					<linearGradient id="SVGID_19_" gradientUnits="userSpaceOnUse" x1="1297.3539" y1="1023.2697" x2="1297.3539" y2="765.2896" gradientTransform="matrix(4.489700e-11 -1 1 4.489700e-11 585.0545 2385.0361)">
					<stop  offset="0" style="stop-color:#FFFFFF"/>
					<stop  offset="1" style="stop-color:#6428B4"/>
				</linearGradient>
				<polygon fill="url(#SVGID_19_)" points="1350.3,1212.5 1608.3,1009.7 1600,962.9 				"/>
				
					<linearGradient id="SVGID_20_" gradientUnits="userSpaceOnUse" x1="1422.1819" y1="1139.7734" x2="1172.526" y2="1139.7734" gradientTransform="matrix(4.489700e-11 -1 1 4.489700e-11 585.0545 2385.0361)">
					<stop  offset="0" style="stop-color:#FFFFFF"/>
					<stop  offset="1" style="stop-color:#6428B4"/>
				</linearGradient>
				<polygon fill="url(#SVGID_20_)" points="1600,1016.2 1849.7,1212.5 1600,962.9 				"/>
			</g>
			<g>
				
					<linearGradient id="SVGID_21_" gradientUnits="userSpaceOnUse" x1="1182.4344" y1="1135.6024" x2="1182.4344" y2="880.209" gradientTransform="matrix(-1 0 0 -1 2970.1167 2029.865)">
					<stop  offset="0" style="stop-color:#FFFFFF"/>
					<stop  offset="1" style="stop-color:#6428B4"/>
				</linearGradient>
				<polygon fill="url(#SVGID_21_)" points="1912.5,1149.7 1711.7,894.3 1662.9,900 				"/>
				
					<linearGradient id="SVGID_22_" gradientUnits="userSpaceOnUse" x1="1307.2625" y1="1254.6929" x2="1057.6066" y2="1254.6929" gradientTransform="matrix(-1 0 0 -1 2970.1167 2029.865)">
					<stop  offset="0" style="stop-color:#FFFFFF"/>
					<stop  offset="1" style="stop-color:#6428B4"/>
				</linearGradient>
				<polygon fill="url(#SVGID_22_)" points="1716.2,900 1912.5,650.3 1662.9,900 				"/>
			</g>
			<g>
				
					<linearGradient id="SVGID_23_" gradientUnits="userSpaceOnUse" x1="1067.515" y1="1253.3928" x2="1067.515" y2="995.1284" gradientTransform="matrix(-4.489700e-11 1 -1 -4.489700e-11 2844.7844 -355.1972)">
					<stop  offset="0" style="stop-color:#FFFFFF"/>
					<stop  offset="1" style="stop-color:#6428B4"/>
				</linearGradient>
				<polygon fill="url(#SVGID_23_)" points="1849.7,587.5 1591.4,790.5 1600,837.1 				"/>
				
					<linearGradient id="SVGID_24_" gradientUnits="userSpaceOnUse" x1="1192.343" y1="1369.6123" x2="942.6871" y2="1369.6123" gradientTransform="matrix(-4.489700e-11 1 -1 -4.489700e-11 2844.7844 -355.1972)">
					<stop  offset="0" style="stop-color:#FFFFFF"/>
					<stop  offset="1" style="stop-color:#6428B4"/>
				</linearGradient>
				<polygon fill="url(#SVGID_24_)" points="1600,783.8 1350.3,587.5 1600,837.1 				"/>
			</g>
		</g>
	</g>
	<g>
		<g opacity="0.5">
			<linearGradient id="SVGID_25_" gradientUnits="userSpaceOnUse" x1="1764.2633" y1="1184.5139" x2="1435.7366" y2="615.4889">
				<stop  offset="0.2" style="stop-color:#DC5AFF"/>
				<stop  offset="0.6" style="stop-color:#6428B4;stop-opacity:0.8"/>
				<stop  offset="1" style="stop-color:#32145A;stop-opacity:0.6"/>
			</linearGradient>
			<path fill="url(#SVGID_25_)" d="M2388.8,752.1c-10.1-53.9-102-88.8-258.7-98.2c-64.2-3.9-136.2-3.3-213.4,1.4
				c1.3,1.7,2.6,3.4,3.9,5.1c75.6-4.5,146.2-5,209.2-1.2c151.9,9.1,244.4,43.4,253.8,93.9c9.4,50.5-64.5,116-202.8,179.5
				c-141.4,65-334.7,122.4-544.5,161.7c-209.8,39.3-410.8,55.9-566.1,46.5c-151.9-9.1-244.4-43.4-253.8-93.9
				c-9.4-50.5,64.5-116,202.8-179.5c57.3-26.3,123.1-51.4,195.1-74.6c0.6-2.1,1.2-4.1,1.8-6.2c-73.5,23.5-140.8,49.1-199.1,75.9
				C874.2,928.2,801.1,994,811.2,1047.9c10.1,53.9,102,88.8,258.7,98.3c28.4,1.7,58.4,2.6,89.6,2.6c139.9,0,305.9-16.9,477.7-49.2
				c210.2-39.4,404-97,545.8-162.1C2325.8,871.8,2398.9,806,2388.8,752.1"/>
			<linearGradient id="SVGID_26_" gradientUnits="userSpaceOnUse" x1="1599.9989" y1="466.7705" x2="1599.9989" y2="1333.2321">
				<stop  offset="0.2" style="stop-color:#DC5AFF"/>
				<stop  offset="0.6" style="stop-color:#6428B4;stop-opacity:0.8"/>
				<stop  offset="1" style="stop-color:#32145A;stop-opacity:0.6"/>
			</linearGradient>
			<path fill="url(#SVGID_26_)" d="M2164,1052.8c-113.2-107.4-278.2-224.5-464.5-329.7c-320.9-181.2-630.3-283.9-752.3-249.9
				c-22.3,6.2-37.9,17-46.3,32C874,553.1,922,639,1036,747.2c46.6,44.2,102,90.1,164,136.1c0.1-2.1,0.2-4.3,0.3-6.4
				c-60.7-45.2-114.9-90.2-160.7-133.6C929.2,638.5,880.3,552.7,905.5,507.9c7.7-13.7,22.2-23.7,43.1-29.5
				c120.8-33.7,428.5,68.8,748.3,249.4c185.9,105,350.5,221.8,463.5,328.9c110.5,104.8,159.4,190.6,134.2,235.4
				c-7.7,13.7-22.2,23.7-43.1,29.5c-15.4,4.3-33.7,6.4-54.8,6.4c-86.7,0-218.6-35.4-370.5-97.7c-1.7,1.2-3.5,2.4-5.3,3.5
				c154.1,63.4,288.2,99.5,376.3,99.4c21.4,0,40.1-2.1,55.7-6.5c22.3-6.2,37.9-17,46.3-32C2326,1246.9,2278,1161,2164,1052.8"/>
			<linearGradient id="SVGID_27_" gradientUnits="userSpaceOnUse" x1="1807.087" y1="1019.5629" x2="1392.9186" y2="780.4426">
				<stop  offset="0.2" style="stop-color:#DC5AFF"/>
				<stop  offset="0.6" style="stop-color:#6428B4;stop-opacity:0.8"/>
				<stop  offset="1" style="stop-color:#32145A;stop-opacity:0.6"/>
			</linearGradient>
			<path fill="url(#SVGID_27_)" d="M2109.4,278.7c-13.3-10.9-31.7-15.3-54.7-13.1c-82.7,8.1-219.3,100.3-369.5,243.4
				c2.1,0.5,4.1,0.9,6.2,1.4c148.2-140.8,282.6-231.5,363.8-239.5c3.7-0.4,7.3-0.5,10.8-0.5c16.5,0,29.9,4.2,40,12.4
				c39.7,32.6,25,130.4-40.2,268.1c-66.6,140.8-177.9,309.3-313.4,474.6c-233.1,284.3-483,491.4-607.7,503.6
				c-21.5,2.1-38.6-1.9-50.8-11.9c-39.7-32.6-25-130.4,40.2-268.1c27-57.1,61.4-118.8,101.8-183c-0.9-1.9-1.8-3.9-2.6-5.8
				c-41.3,65.4-76.4,128.3-104,186.5c-67.3,142.2-81,239.7-38.7,274.5c11,9.1,25.6,13.7,43.4,13.7c3.6,0,7.4-0.2,11.3-0.6
				c126-12.4,377.4-220.3,611.3-505.6c135.7-165.6,247.3-334.5,314.1-475.7C2137.9,411,2151.7,313.5,2109.4,278.7"/>
		</g>
		<g id="CIRCLE" opacity="0.5">
			<linearGradient id="SVGID_28_" gradientUnits="userSpaceOnUse" x1="1635.2842" y1="1100.1049" x2="1567.6984" y2="716.8066">
				<stop  offset="0.2" style="stop-color:#C08AFF"/>
				<stop  offset="1" style="stop-color:#6428B4;stop-opacity:0.5"/>
			</linearGradient>
			<path fill="url(#SVGID_28_)" d="M2388.8,752.1c-10.1-53.9-102-88.8-258.7-98.2c-64.2-3.9-136.2-3.3-213.4,1.4
				c1.3,1.7,2.6,3.4,3.9,5.1c75.6-4.5,146.2-5,209.2-1.2c151.9,9.1,244.4,43.4,253.8,93.9c9.4,50.5-64.5,116-202.8,179.5
				c-141.4,65-334.7,122.4-544.5,161.7c-209.8,39.3-410.8,55.9-566.1,46.5c-151.9-9.1-244.4-43.4-253.8-93.9s64.5-116,202.8-179.5
				c57.3-26.3,123.1-51.4,195.1-74.6c0.6-2.1,1.2-4.1,1.8-6.2c-73.5,23.5-140.8,49.1-199.1,75.9C874.2,928.2,801.1,994,811.2,1047.9
				c10.1,53.9,102,88.8,258.7,98.2c28.4,1.7,58.4,2.6,89.7,2.6c139.9,0,305.9-16.9,477.7-49.2c210.2-39.4,404-97,545.8-162.1
				C2325.8,871.8,2398.9,806,2388.8,752.1z"/>
			<linearGradient id="SVGID_29_" gradientUnits="userSpaceOnUse" x1="1755.5011" y1="1030.4817" x2="1457.4619" y2="780.3972">
				<stop  offset="0.2" style="stop-color:#C08AFF"/>
				<stop  offset="1" style="stop-color:#6428B4;stop-opacity:0.5"/>
			</linearGradient>
			<path fill="url(#SVGID_29_)" d="M2109.4,278.7c-13.3-10.9-31.7-15.3-54.7-13.1c-82.7,8.1-219.3,100.3-369.5,243.4
				c2.1,0.5,4.1,0.9,6.2,1.4c148.2-140.8,282.6-231.5,363.8-239.5c3.7-0.4,7.3-0.5,10.8-0.5c16.5,0,29.9,4.2,40,12.4
				c39.7,32.6,25,130.4-40.2,268.1c-66.6,140.8-177.9,309.3-313.4,474.6c-233.1,284.3-483,491.4-607.7,503.6
				c-21.5,2.1-38.6-1.9-50.8-11.9c-39.7-32.6-25-130.4,40.2-268.1c27-57.1,61.4-118.8,101.8-183c-0.9-1.9-1.8-3.9-2.6-5.8
				c-41.3,65.4-76.4,128.3-104,186.5c-67.3,142.2-81,239.7-38.7,274.5c11,9.1,25.6,13.7,43.4,13.7c3.6,0,7.4-0.2,11.3-0.6
				c126-12.4,377.4-220.3,611.3-505.6c135.7-165.6,247.3-334.5,314.1-475.7C2137.9,411,2151.7,313.5,2109.4,278.7z"/>
			<linearGradient id="SVGID_30_" gradientUnits="userSpaceOnUse" x1="1701.5345" y1="724.1371" x2="1507.2645" y2="1060.6226">
				<stop  offset="0.2" style="stop-color:#C08AFF"/>
				<stop  offset="1" style="stop-color:#6428B4;stop-opacity:0.5"/>
			</linearGradient>
			<path fill="url(#SVGID_30_)" d="M2164,1052.8c-113.2-107.4-278.2-224.5-464.5-329.7c-320.9-181.2-630.3-283.9-752.3-249.9
				c-22.3,6.2-37.9,17-46.3,32C874,553.1,922,639,1036,747.2c46.6,44.2,102,90.1,164,136.1c0.1-2.1,0.2-4.3,0.3-6.4
				c-60.7-45.2-114.9-90.2-160.7-133.6C929.2,638.5,880.3,552.7,905.5,507.9c7.7-13.7,22.2-23.7,43.1-29.5
				c120.8-33.7,428.5,68.8,748.3,249.4c185.9,105,350.5,221.8,463.5,328.9c110.5,104.8,159.4,190.6,134.2,235.4
				c-7.7,13.7-22.2,23.7-43.1,29.5c-15.4,4.3-33.7,6.4-54.8,6.4c-86.7,0-218.6-35.4-370.5-97.7c-1.7,1.2-3.5,2.4-5.3,3.5
				c154.1,63.4,288.2,99.4,376.3,99.4c21.4,0,40.1-2.1,55.7-6.5c22.3-6.2,37.9-17,46.3-32C2326,1246.9,2278,1161,2164,1052.8z"/>
		</g>
	</g>
</g>
</svg>
