<?xml version="1.0" encoding="utf-8"?>
<!-- Generator: Adobe Illustrator 22.1.0, SVG Export Plug-In . SVG Version: 6.00 Build 0)  -->
<svg version="1.1" id="Ebene_1" xmlns="http://www.w3.org/2000/svg" xmlns:xlink="http://www.w3.org/1999/xlink" x="0px" y="0px"
	 width="1200px" height="800px" viewBox="0 0 1200 800" enable-background="new 0 0 1200 800" xml:space="preserve">
<g id="BG">
	
		<linearGradient id="SVGID_3_" gradientUnits="userSpaceOnUse" x1="600" y1="800" x2="600" y2="0" gradientTransform="matrix(1 0 0 -1 0 800)">
		<stop  offset="0" style="stop-color:#6428B4"/>
		<stop  offset="0.66" style="stop-color:#3C186C"/>
		<stop  offset="1" style="stop-color:#2D1250"/>
	</linearGradient>
	<rect fill="url(#SVGID_3_)" width="1200" height="800"/>
</g>
<g id="STARS" opacity="0.25">
	<path fill="#FFFFFF" d="M553.1,106.1c0,1.3-0.8,2.3-1.8,2.3h-0.9c-0.9,0-1.8-1-1.8-2.3s0.8-2.3,1.8-2.3h0.9
		C552.3,103.8,553.1,104.8,553.1,106.1z M373.6,201h-0.9c-0.9,0-1.8,1-1.8,2.3s0.8,2.3,1.8,2.3h0.9c0.9,0,1.8-1,1.8-2.3
		S374.6,201,373.6,201z M657.1,241.3h-0.9c-0.9,0-1.8,1-1.8,2.3s0.8,2.3,1.8,2.3h0.9c0.9,0,1.8-1,1.8-2.3
		C658.9,242.3,658.1,241.3,657.1,241.3z M500.8,29.7h-0.9c-0.9,0-1.8,1-1.8,2.3s0.8,2.3,1.8,2.3h0.9c0.9,0,1.8-1,1.8-2.3
		C502.6,30.7,501.7,29.7,500.8,29.7z M141,67.2h-0.9c-0.9,0-1.8,1-1.8,2.3s0.8,2.3,1.8,2.3h0.9c0.9,0,1.8-1,1.8-2.3
		C142.7,68.2,141.9,67.2,141,67.2z M492.5,114.8h-0.9c-0.9,0-1.8,1-1.8,2.3s0.8,2.3,1.8,2.3h0.9c0.9,0,1.8-1,1.8-2.3
		S493.5,114.8,492.5,114.8z M289.9,413.6H289c-0.9,0-1.8,1-1.8,2.3s0.8,2.3,1.8,2.3h0.9c0.9,0,1.8-1,1.8-2.3
		C291.7,414.6,290.9,413.6,289.9,413.6z M75.6,290.6h-0.9c-0.9,0-1.8,1-1.8,2.3s0.8,2.3,1.8,2.3h0.9c0.9,0,1.8-1,1.8-2.3
		S76.5,290.6,75.6,290.6z M200.5,94.6h-0.9c-0.9,0-1.8,1-1.8,2.3s0.8,2.3,1.8,2.3h0.9c0.9,0,1.8-1,1.8-2.3S201.4,94.6,200.5,94.6z
		 M117,114.9h-0.9c-0.9,0-1.8,1-1.8,2.3s0.8,2.3,1.8,2.3h0.9c0.9,0,1.8-1,1.8-2.3C118.7,115.9,117.9,114.9,117,114.9z M305.3,347
		h-0.9c-0.9,0-1.8,1-1.8,2.3s0.8,2.3,1.8,2.3h0.9c0.9,0,1.8-1,1.8-2.3C307.1,348,306.3,347,305.3,347z M273.5,222.8h-0.9
		c-0.9,0-1.8,1-1.8,2.3s0.8,2.3,1.8,2.3h0.9c0.9,0,1.8-1,1.8-2.3S274.4,222.8,273.5,222.8z M354.8,75.1h-0.9c-0.9,0-1.8,1-1.8,2.3
		s0.8,2.3,1.8,2.3h0.9c0.9,0,1.8-1,1.8-2.3C356.6,76.1,355.7,75.1,354.8,75.1z M18,147.8h-0.9c-0.9,0-1.8,1-1.8,2.3s0.8,2.3,1.8,2.3
		H18c0.9,0,1.8-1,1.8-2.3S19,147.8,18,147.8z M17,55.7h-0.9c-0.9,0-1.8,1-1.8,2.3s0.8,2.3,1.8,2.3H17c0.9,0,1.8-1,1.8-2.3
		S17.9,55.7,17,55.7z M34.4,227.4h-0.9c-0.9,0-1.8,1-1.8,2.3s0.8,2.3,1.8,2.3h0.9c0.9,0,1.8-1,1.8-2.3S35.4,227.4,34.4,227.4z
		 M10.1,356.3H9.2c-0.9,0-1.8,1-1.8,2.3s0.8,2.3,1.8,2.3h0.9c0.9,0,1.8-1,1.8-2.3C11.8,357.3,11,356.3,10.1,356.3z M54.8,371.6H54
		c-0.9,0-1.8,1-1.8,2.3s0.8,2.3,1.8,2.3h0.9c0.9,0,1.8-1,1.8-2.3C56.6,372.6,55.8,371.6,54.8,371.6z M15.2,455.6h-0.9
		c-0.9,0-1.8,1-1.8,2.3s0.8,2.3,1.8,2.3h0.9c0.9,0,1.8-1,1.8-2.3S16.2,455.6,15.2,455.6z M7.7,572.9H6.8c-0.9,0-1.8,1-1.8,2.3
		s0.8,2.3,1.8,2.3h0.9c0.9,0,1.8-1,1.8-2.3S8.6,572.9,7.7,572.9z M24.3,768.8h-0.9c-0.9,0-1.8,1-1.8,2.3s0.8,2.3,1.8,2.3h0.9
		c0.9,0,1.8-1,1.8-2.3C26.1,769.8,25.2,768.8,24.3,768.8z M139,715.6h-0.9c-0.9,0-1.8,1-1.8,2.3s0.8,2.3,1.8,2.3h0.9
		c0.9,0,1.8-1,1.8-2.3C140.8,716.5,140,715.6,139,715.6z M95.1,789.4h-0.9c-0.9,0-1.8,1-1.8,2.3s0.8,2.3,1.8,2.3h0.9
		c0.9,0,1.8-1,1.8-2.3S96,789.4,95.1,789.4z M202.9,763.5H202c-0.9,0-1.8,1-1.8,2.3s0.8,2.3,1.8,2.3h0.9c0.9,0,1.8-1,1.8-2.3
		S203.9,763.5,202.9,763.5z M290.9,619H290c-0.9,0-1.8,1-1.8,2.3s0.8,2.3,1.8,2.3h0.9c0.9,0,1.8-1,1.8-2.3S291.9,619,290.9,619z
		 M310.3,671.5h-0.9c-0.9,0-1.8,1-1.8,2.3s0.8,2.3,1.8,2.3h0.9c0.9,0,1.8-1,1.8-2.3C312.1,672.5,311.2,671.5,310.3,671.5z
		 M491.6,782.5h-0.9c-0.9,0-1.8,1-1.8,2.3s0.8,2.3,1.8,2.3h0.9c0.9,0,1.8-1,1.8-2.3S492.5,782.5,491.6,782.5z M421.5,460.4h-0.9
		c-0.9,0-1.8,1-1.8,2.3s0.8,2.3,1.8,2.3h0.9c0.9,0,1.8-1,1.8-2.3C423.3,461.3,422.5,460.4,421.5,460.4z M126.4,521.8h-0.9
		c-0.9,0-1.8,1-1.8,2.3s0.8,2.3,1.8,2.3h0.9c0.9,0,1.8-1,1.8-2.3S127.3,521.8,126.4,521.8z M369.3,580.3h-0.9c-0.9,0-1.8,1-1.8,2.3
		s0.8,2.3,1.8,2.3h0.9c0.9,0,1.8-1,1.8-2.3S370.2,580.3,369.3,580.3z M139.9,391H139c-0.9,0-1.8,1-1.8,2.3s0.8,2.3,1.8,2.3h0.9
		c0.9,0,1.8-1,1.8-2.3S140.9,391,139.9,391z M613.6,139h-0.9c-0.9,0-1.8,1-1.8,2.3s0.8,2.3,1.8,2.3h0.9c0.9,0,1.8-1,1.8-2.3
		C615.4,140,614.5,139,613.6,139z M161.1,420.4h-0.9c-0.9,0-1.8,1-1.8,2.3s0.8,2.3,1.8,2.3h0.9c0.9,0,1.8-1,1.8-2.3
		C162.9,421.4,162,420.4,161.1,420.4z M95.2,421.5h-0.9c-0.9,0-1.8,1-1.8,2.3s0.8,2.3,1.8,2.3h0.9c0.9,0,1.8-1,1.8-2.3
		C96.9,422.4,96.1,421.5,95.2,421.5z M530.2,168.3h-0.9c-0.9,0-1.8,1-1.8,2.3s0.8,2.3,1.8,2.3h0.9c0.9,0,1.8-1,1.8-2.3
		S531.1,168.3,530.2,168.3z M562.4,57.6h-0.9c-0.9,0-1.8,1-1.8,2.3s0.8,2.3,1.8,2.3h0.9c0.9,0,1.8-1,1.8-2.3
		C564.1,58.6,563.3,57.6,562.4,57.6z M400.7,144.2h-0.9c-0.9,0-1.8,1-1.8,2.3s0.8,2.3,1.8,2.3h0.9c0.9,0,1.8-1,1.8-2.3
		C402.4,145.2,401.6,144.2,400.7,144.2z M453.8,23.5h-0.9c-0.9,0-1.8,1-1.8,2.3s0.8,2.3,1.8,2.3h0.9c0.9,0,1.8-1,1.8-2.3
		C455.5,24.5,454.7,23.5,453.8,23.5z M311.4,62.5h-0.9c-0.9,0-1.8,1-1.8,2.3s0.8,2.3,1.8,2.3h0.9c0.9,0,1.8-1,1.8-2.3
		C313.2,63.4,312.3,62.5,311.4,62.5z M204.8,6.1h-0.9c-0.9,0-1.8,1-1.8,2.3s0.8,2.3,1.8,2.3h0.9c0.9,0,1.8-1,1.8-2.3
		S205.8,6.1,204.8,6.1z M252.2,289.6h-0.9c-0.9,0-1.8,1-1.8,2.3s0.8,2.3,1.8,2.3h0.9c0.9,0,1.8-1,1.8-2.3S253.1,289.6,252.2,289.6z
		 M188.7,323.5h-0.9c-0.9,0-1.8,1-1.8,2.3s0.8,2.3,1.8,2.3h0.9c0.9,0,1.8-1,1.8-2.3C190.5,324.4,189.7,323.5,188.7,323.5z
		 M211.8,438.9h-0.9c-0.9,0-1.8,1-1.8,2.3s0.8,2.3,1.8,2.3h0.9c0.9,0,1.8-1,1.8-2.3C213.5,439.9,212.7,438.9,211.8,438.9z
		 M161.8,121.4h-0.9c-0.9,0-1.8,1-1.8,2.3s0.8,2.3,1.8,2.3h0.9c0.9,0,1.8-1,1.8-2.3S162.7,121.4,161.8,121.4z M414.7,289.9h-0.9
		c-0.9,0-1.8,1-1.8,2.3s0.8,2.3,1.8,2.3h0.9c0.9,0,1.8-1,1.8-2.3S415.6,289.9,414.7,289.9z M390.9,320.2H390c-0.9,0-1.8,1-1.8,2.3
		s0.8,2.3,1.8,2.3h0.9c0.9,0,1.8-1,1.8-2.3C392.7,321.2,391.9,320.2,390.9,320.2z M492.9,342.1H492c-0.9,0-1.8,1-1.8,2.3
		s0.8,2.3,1.8,2.3h0.9c0.9,0,1.8-1,1.8-2.3C494.7,343.1,493.8,342.1,492.9,342.1z M443.4,178.5h-0.9c-0.9,0-1.8,1-1.8,2.3
		s0.8,2.3,1.8,2.3h0.9c0.9,0,1.8-1,1.8-2.3C445.2,179.5,444.4,178.5,443.4,178.5z M458.8,101.5h-0.9c-0.9,0-1.8,1-1.8,2.3
		s0.8,2.3,1.8,2.3h0.9c0.9,0,1.8-1,1.8-2.3C460.5,102.4,459.7,101.5,458.8,101.5z M416.1,60.3h-0.9c-0.9,0-1.8,1-1.8,2.3
		s0.8,2.3,1.8,2.3h0.9c0.9,0,1.8-1,1.8-2.3C417.9,61.3,417,60.3,416.1,60.3z M598.2,313.6h-0.9c-0.9,0-1.8,1-1.8,2.3
		s0.8,2.3,1.8,2.3h0.9c0.9,0,1.8-1,1.8-2.3S599.1,313.6,598.2,313.6z M606.1,384h-0.9c-0.9,0-1.8,1-1.8,2.3s0.8,2.3,1.8,2.3h0.9
		c0.9,0,1.8-1,1.8-2.3C607.9,385,607.1,384,606.1,384z M552.4,345.9h-0.9c-0.9,0-1.8,1-1.8,2.3s0.8,2.3,1.8,2.3h0.9
		c0.9,0,1.8-1,1.8-2.3S553.4,345.9,552.4,345.9z M521.5,385.5h-0.9c-0.9,0-1.8,1-1.8,2.3s0.8,2.3,1.8,2.3h0.9c0.9,0,1.8-1,1.8-2.3
		S522.5,385.5,521.5,385.5z M593.7,585.5h-0.9c-0.9,0-1.8,1-1.8,2.3s0.8,2.3,1.8,2.3h0.9c0.9,0,1.8-1,1.8-2.3
		C595.5,586.4,594.7,585.5,593.7,585.5z M172.6,239h-0.9c-0.9,0-1.8,1-1.8,2.3s0.8,2.3,1.8,2.3h0.9c0.9,0,1.8-1,1.8-2.3
		C174.4,239.9,173.6,239,172.6,239z M389.9,489.5H389c-0.9,0-1.8,1-1.8,2.3s0.8,2.3,1.8,2.3h0.9c0.9,0,1.8-1,1.8-2.3
		S390.8,489.5,389.9,489.5z M142.2,242.2h-0.9c-0.9,0-1.8,1-1.8,2.3s0.8,2.3,1.8,2.3h0.9c0.9,0,1.8-1,1.8-2.3
		S143.1,242.2,142.2,242.2z M472.3,583.7h-0.9c-0.9,0-1.8,1-1.8,2.3s0.8,2.3,1.8,2.3h0.9c0.9,0,1.8-1,1.8-2.3
		C474,584.7,473.2,583.7,472.3,583.7z M133.5,188.2h-0.9c-0.9,0-1.8,1-1.8,2.3s0.8,2.3,1.8,2.3h0.9c0.9,0,1.8-1,1.8-2.3
		C135.2,189.2,134.4,188.2,133.5,188.2z M381.6,683h-0.9c-0.9,0-1.8,1-1.8,2.3s0.8,2.3,1.8,2.3h0.9c0.9,0,1.8-1,1.8-2.3
		C383.3,684,382.5,683,381.6,683z M166,547.8h-0.9c-0.9,0-1.8,1-1.8,2.3s0.8,2.3,1.8,2.3h0.9c0.9,0,1.8-1,1.8-2.3
		C167.7,548.8,166.9,547.8,166,547.8z M121.2,468.2h-0.9c-0.9,0-1.8,1-1.8,2.3s0.8,2.3,1.8,2.3h0.9c0.9,0,1.8-1,1.8-2.3
		S122.1,468.2,121.2,468.2z M172.5,599.7h-0.9c-0.9,0-1.8,1-1.8,2.3s0.8,2.3,1.8,2.3h0.9c0.9,0,1.8-1,1.8-2.3
		C174.2,600.7,173.4,599.7,172.5,599.7z M268.3,481.6h-0.9c-0.9,0-1.8,1-1.8,2.3s0.8,2.3,1.8,2.3h0.9c0.9,0,1.8-1,1.8-2.3
		C270.1,482.6,269.2,481.6,268.3,481.6z M203,681.1h-0.9c-0.9,0-1.8,1-1.8,2.3s0.8,2.3,1.8,2.3h0.9c0.9,0,1.8-1,1.8-2.3
		C204.7,682.1,203.9,681.1,203,681.1z M19.3,664.6h-0.9c-0.9,0-1.8,1-1.8,2.3s0.8,2.3,1.8,2.3h0.9c0.9,0,1.8-1,1.8-2.3
		C21.1,665.6,20.3,664.6,19.3,664.6z M40.6,528.6h-0.9c-0.9,0-1.8,1-1.8,2.3s0.8,2.3,1.8,2.3h0.9c0.9,0,1.8-1,1.8-2.3
		C42.4,529.6,41.6,528.6,40.6,528.6z M529.3,691h-0.9c-0.9,0-1.8,1-1.8,2.3s0.8,2.3,1.8,2.3h0.9c0.9,0,1.8-1,1.8-2.3
		S530.3,691,529.3,691z M469,676.9h-0.9c-0.9,0-1.8,1-1.8,2.3s0.8,2.3,1.8,2.3h0.9c0.9,0,1.8-1,1.8-2.3
		C470.7,677.9,469.9,676.9,469,676.9z M546.2,744.2h-0.9c-0.9,0-1.8,1-1.8,2.3s0.8,2.3,1.8,2.3h0.9c0.9,0,1.8-1,1.8-2.3
		S547.1,744.2,546.2,744.2z M421,620.6h-0.9c-0.9,0-1.8,1-1.8,2.3s0.8,2.3,1.8,2.3h0.9c0.9,0,1.8-1,1.8-2.3S422,620.6,421,620.6z
		 M643,715.1h-0.9c-0.9,0-1.8,1-1.8,2.3s0.8,2.3,1.8,2.3h0.9c0.9,0,1.8-1,1.8-2.3S644,715.1,643,715.1z M371.4,149.8h-0.9
		c-0.9,0-1.8,1-1.8,2.3s0.8,2.3,1.8,2.3h0.9c0.9,0,1.8-1,1.8-2.3C373.1,150.8,372.3,149.8,371.4,149.8z M302.1,161.2
		c-1.3-0.5-2.5,1.9-2.2,3.7c0.2,1.4,1.2,1.8,2.1,1.6c1.6-0.3,1.9-3.3,0.9-4.7C302.6,161.5,302.3,161.3,302.1,161.2z M231.1,177.9
		h-0.9c-0.9,0-1.8,1-1.8,2.3s0.8,2.3,1.8,2.3h0.9c0.9,0,1.8-1,1.8-2.3S232.1,177.9,231.1,177.9z M520.3,269.7c0,1.3-0.8,2.3-1.8,2.3
		h-0.9c-0.9,0-1.8-1-1.8-2.3s0.8-2.3,1.8-2.3h0.9C519.4,267.4,520.3,268.4,520.3,269.7z M1045.3,201h-0.9c-0.9,0-1.8,1-1.8,2.3
		s0.8,2.3,1.8,2.3h0.9c0.9,0,1.8-1,1.8-2.3C1047.1,202,1046.3,201,1045.3,201z M1172.5,29.7h-0.9c-0.9,0-1.8,1-1.8,2.3
		s0.8,2.3,1.8,2.3h0.9c0.9,0,1.8-1,1.8-2.3C1174.2,30.7,1173.4,29.7,1172.5,29.7z M812.7,67.2h-0.9c-0.9,0-1.8,1-1.8,2.3
		s0.8,2.3,1.8,2.3h0.9c0.9,0,1.8-1,1.8-2.3C814.4,68.2,813.6,67.2,812.7,67.2z M1164.2,114.8h-0.9c-0.9,0-1.8,1-1.8,2.3
		s0.8,2.3,1.8,2.3h0.9c0.9,0,1.8-1,1.8-2.3S1165.2,114.8,1164.2,114.8z M961.6,413.6h-0.9c-0.9,0-1.8,1-1.8,2.3s0.8,2.3,1.8,2.3h0.9
		c0.9,0,1.8-1,1.8-2.3C963.4,414.6,962.6,413.6,961.6,413.6z M747.3,290.6h-0.9c-0.9,0-1.8,1-1.8,2.3s0.8,2.3,1.8,2.3h0.9
		c0.9,0,1.8-1,1.8-2.3C749,291.6,748.2,290.6,747.3,290.6z M872.2,94.6h-0.9c-0.9,0-1.8,1-1.8,2.3s0.8,2.3,1.8,2.3h0.9
		c0.9,0,1.8-1,1.8-2.3S873.1,94.6,872.2,94.6z M788.6,114.9h-0.9c-0.9,0-1.8,1-1.8,2.3s0.8,2.3,1.8,2.3h0.9c0.9,0,1.8-1,1.8-2.3
		C790.4,115.9,789.6,114.9,788.6,114.9z M977,347h-0.9c-0.9,0-1.8,1-1.8,2.3s0.8,2.3,1.8,2.3h0.9c0.9,0,1.8-1,1.8-2.3
		S978,347,977,347z M945.2,222.8h-0.9c-0.9,0-1.8,1-1.8,2.3s0.8,2.3,1.8,2.3h0.9c0.9,0,1.8-1,1.8-2.3S946.1,222.8,945.2,222.8z
		 M1026.5,75.1h-0.9c-0.9,0-1.8,1-1.8,2.3s0.8,2.3,1.8,2.3h0.9c0.9,0,1.8-1,1.8-2.3S1027.4,75.1,1026.5,75.1z M689.7,147.8h-0.9
		c-0.9,0-1.8,1-1.8,2.3s0.8,2.3,1.8,2.3h0.9c0.9,0,1.8-1,1.8-2.3S690.7,147.8,689.7,147.8z M688.7,55.7h-0.9c-0.9,0-1.8,1-1.8,2.3
		s0.8,2.3,1.8,2.3h0.9c0.9,0,1.8-1,1.8-2.3S689.6,55.7,688.7,55.7z M706.1,227.4h-0.9c-0.9,0-1.8,1-1.8,2.3s0.8,2.3,1.8,2.3h0.9
		c0.9,0,1.8-1,1.8-2.3C707.9,228.4,707.1,227.4,706.1,227.4z M681.8,356.3h-0.9c-0.9,0-1.8,1-1.8,2.3s0.8,2.3,1.8,2.3h0.9
		c0.9,0,1.8-1,1.8-2.3C683.5,357.3,682.7,356.3,681.8,356.3z M726.5,371.6h-0.9c-0.9,0-1.8,1-1.8,2.3s0.8,2.3,1.8,2.3h0.9
		c0.9,0,1.8-1,1.8-2.3S727.5,371.6,726.5,371.6z M686.9,455.6H686c-0.9,0-1.8,1-1.8,2.3s0.8,2.3,1.8,2.3h0.9c0.9,0,1.8-1,1.8-2.3
		S687.9,455.6,686.9,455.6z M679.4,572.9h-0.9c-0.9,0-1.8,1-1.8,2.3s0.8,2.3,1.8,2.3h0.9c0.9,0,1.8-1,1.8-2.3
		S680.3,572.9,679.4,572.9z M696,768.8h-0.9c-0.9,0-1.8,1-1.8,2.3s0.8,2.3,1.8,2.3h0.9c0.9,0,1.8-1,1.8-2.3
		C697.7,769.8,696.9,768.8,696,768.8z M810.7,715.6h-0.9c-0.9,0-1.8,1-1.8,2.3s0.8,2.3,1.8,2.3h0.9c0.9,0,1.8-1,1.8-2.3
		C812.5,716.5,811.7,715.6,810.7,715.6z M766.8,789.4h-0.9c-0.9,0-1.8,1-1.8,2.3s0.8,2.3,1.8,2.3h0.9c0.9,0,1.8-1,1.8-2.3
		S767.7,789.4,766.8,789.4z M874.6,763.5h-0.9c-0.9,0-1.8,1-1.8,2.3s0.8,2.3,1.8,2.3h0.9c0.9,0,1.8-1,1.8-2.3
		C876.4,764.5,875.6,763.5,874.6,763.5z M962.6,619h-0.9c-0.9,0-1.8,1-1.8,2.3s0.8,2.3,1.8,2.3h0.9c0.9,0,1.8-1,1.8-2.3
		S963.5,619,962.6,619z M982,671.5h-0.9c-0.9,0-1.8,1-1.8,2.3s0.8,2.3,1.8,2.3h0.9c0.9,0,1.8-1,1.8-2.3S982.9,671.5,982,671.5z
		 M1163.2,782.5h-0.9c-0.9,0-1.8,1-1.8,2.3s0.8,2.3,1.8,2.3h0.9c0.9,0,1.8-1,1.8-2.3S1164.2,782.5,1163.2,782.5z M1093.2,460.4h-0.9
		c-0.9,0-1.8,1-1.8,2.3s0.8,2.3,1.8,2.3h0.9c0.9,0,1.8-1,1.8-2.3C1095,461.3,1094.2,460.4,1093.2,460.4z M798.1,521.8h-0.9
		c-0.9,0-1.8,1-1.8,2.3s0.8,2.3,1.8,2.3h0.9c0.9,0,1.8-1,1.8-2.3S799,521.8,798.1,521.8z M1041,580.3h-0.9c-0.9,0-1.8,1-1.8,2.3
		s0.8,2.3,1.8,2.3h0.9c0.9,0,1.8-1,1.8-2.3S1041.9,580.3,1041,580.3z M811.6,391h-0.9c-0.9,0-1.8,1-1.8,2.3s0.8,2.3,1.8,2.3h0.9
		c0.9,0,1.8-1,1.8-2.3C813.4,392,812.6,391,811.6,391z M832.8,420.4h-0.9c-0.9,0-1.8,1-1.8,2.3s0.8,2.3,1.8,2.3h0.9
		c0.9,0,1.8-1,1.8-2.3S833.7,420.4,832.8,420.4z M766.8,421.5H766c-0.9,0-1.8,1-1.8,2.3s0.8,2.3,1.8,2.3h0.9c0.9,0,1.8-1,1.8-2.3
		C768.6,422.4,767.8,421.5,766.8,421.5z M529.5,221.2h-0.9c-0.9,0-1.8,1-1.8,2.3s0.8,2.3,1.8,2.3h0.9c0.9,0,1.8-1,1.8-2.3
		S530.4,221.2,529.5,221.2z M1072.4,144.2h-0.9c-0.9,0-1.8,1-1.8,2.3s0.8,2.3,1.8,2.3h0.9c0.9,0,1.8-1,1.8-2.3
		C1074.1,145.2,1073.3,144.2,1072.4,144.2z M1125.5,23.5h-0.9c-0.9,0-1.8,1-1.8,2.3s0.8,2.3,1.8,2.3h0.9c0.9,0,1.8-1,1.8-2.3
		C1127.2,24.5,1126.4,23.5,1125.5,23.5z M983.1,62.5h-0.9c-0.9,0-1.8,1-1.8,2.3s0.8,2.3,1.8,2.3h0.9c0.9,0,1.8-1,1.8-2.3
		C984.8,63.4,984,62.5,983.1,62.5z M876.5,6.1h-0.9c-0.9,0-1.8,1-1.8,2.3s0.8,2.3,1.8,2.3h0.9c0.9,0,1.8-1,1.8-2.3
		S877.5,6.1,876.5,6.1z M923.9,289.6H923c-0.9,0-1.8,1-1.8,2.3s0.8,2.3,1.8,2.3h0.9c0.9,0,1.8-1,1.8-2.3S924.8,289.6,923.9,289.6z
		 M860.4,323.5h-0.9c-0.9,0-1.8,1-1.8,2.3s0.8,2.3,1.8,2.3h0.9c0.9,0,1.8-1,1.8-2.3C862.2,324.4,861.3,323.5,860.4,323.5z
		 M883.5,438.9h-0.9c-0.9,0-1.8,1-1.8,2.3s0.8,2.3,1.8,2.3h0.9c0.9,0,1.8-1,1.8-2.3C885.2,439.9,884.4,438.9,883.5,438.9z
		 M833.5,121.4h-0.9c-0.9,0-1.8,1-1.8,2.3s0.8,2.3,1.8,2.3h0.9c0.9,0,1.8-1,1.8-2.3S834.4,121.4,833.5,121.4z M1086.4,289.9h-0.9
		c-0.9,0-1.8,1-1.8,2.3s0.8,2.3,1.8,2.3h0.9c0.9,0,1.8-1,1.8-2.3C1088.2,290.9,1087.3,289.9,1086.4,289.9z M1062.6,320.2h-0.9
		c-0.9,0-1.8,1-1.8,2.3s0.8,2.3,1.8,2.3h0.9c0.9,0,1.8-1,1.8-2.3S1063.6,320.2,1062.6,320.2z M1164.6,342.1h-0.9
		c-0.9,0-1.8,1-1.8,2.3s0.8,2.3,1.8,2.3h0.9c0.9,0,1.8-1,1.8-2.3S1165.5,342.1,1164.6,342.1z M1115.1,178.5h-0.9
		c-0.9,0-1.8,1-1.8,2.3s0.8,2.3,1.8,2.3h0.9c0.9,0,1.8-1,1.8-2.3S1116.1,178.5,1115.1,178.5z M1130.4,101.5h-0.9
		c-0.9,0-1.8,1-1.8,2.3s0.8,2.3,1.8,2.3h0.9c0.9,0,1.8-1,1.8-2.3C1132.2,102.4,1131.4,101.5,1130.4,101.5z M1087.8,60.3h-0.9
		c-0.9,0-1.8,1-1.8,2.3s0.8,2.3,1.8,2.3h0.9c0.9,0,1.8-1,1.8-2.3C1089.6,61.3,1088.7,60.3,1087.8,60.3z M559.4,467.8h-0.9
		c-0.9,0-1.8,1-1.8,2.3s0.8,2.3,1.8,2.3h0.9c0.9,0,1.8-1,1.8-2.3C561.2,468.7,560.3,467.8,559.4,467.8z M567.4,538.1h-0.9
		c-0.9,0-1.8,1-1.8,2.3s0.8,2.3,1.8,2.3h0.9c0.9,0,1.8-1,1.8-2.3S568.3,538.1,567.4,538.1z M513.7,500h-0.9c-0.9,0-1.8,1-1.8,2.3
		s0.8,2.3,1.8,2.3h0.9c0.9,0,1.8-1,1.8-2.3C515.4,501,514.6,500,513.7,500z M1193.2,385.5h-0.9c-0.9,0-1.8,1-1.8,2.3
		s0.8,2.3,1.8,2.3h0.9c0.9,0,1.8-1,1.8-2.3S1194.2,385.5,1193.2,385.5z M844.3,239h-0.9c-0.9,0-1.8,1-1.8,2.3s0.8,2.3,1.8,2.3h0.9
		c0.9,0,1.8-1,1.8-2.3C846.1,239.9,845.3,239,844.3,239z M1061.6,489.5h-0.9c-0.9,0-1.8,1-1.8,2.3s0.8,2.3,1.8,2.3h0.9
		c0.9,0,1.8-1,1.8-2.3S1062.5,489.5,1061.6,489.5z M813.9,242.2H813c-0.9,0-1.8,1-1.8,2.3s0.8,2.3,1.8,2.3h0.9c0.9,0,1.8-1,1.8-2.3
		S814.8,242.2,813.9,242.2z M1143.9,583.7h-0.9c-0.9,0-1.8,1-1.8,2.3s0.8,2.3,1.8,2.3h0.9c0.9,0,1.8-1,1.8-2.3
		C1145.7,584.7,1144.9,583.7,1143.9,583.7z M805.2,188.2h-0.9c-0.9,0-1.8,1-1.8,2.3s0.8,2.3,1.8,2.3h0.9c0.9,0,1.8-1,1.8-2.3
		C806.9,189.2,806.1,188.2,805.2,188.2z M1053.3,683h-0.9c-0.9,0-1.8,1-1.8,2.3s0.8,2.3,1.8,2.3h0.9c0.9,0,1.8-1,1.8-2.3
		C1055,684,1054.2,683,1053.3,683z M837.7,547.8h-0.9c-0.9,0-1.8,1-1.8,2.3s0.8,2.3,1.8,2.3h0.9c0.9,0,1.8-1,1.8-2.3
		C839.4,548.8,838.6,547.8,837.7,547.8z M792.9,468.2H792c-0.9,0-1.8,1-1.8,2.3s0.8,2.3,1.8,2.3h0.9c0.9,0,1.8-1,1.8-2.3
		C794.6,469.2,793.8,468.2,792.9,468.2z M844.2,599.7h-0.9c-0.9,0-1.8,1-1.8,2.3s0.8,2.3,1.8,2.3h0.9c0.9,0,1.8-1,1.8-2.3
		C845.9,600.7,845.1,599.7,844.2,599.7z M940,481.6h-0.9c-0.9,0-1.8,1-1.8,2.3s0.8,2.3,1.8,2.3h0.9c0.9,0,1.8-1,1.8-2.3
		S940.9,481.6,940,481.6z M874.6,681.1h-0.9c-0.9,0-1.8,1-1.8,2.3s0.8,2.3,1.8,2.3h0.9c0.9,0,1.8-1,1.8-2.3
		C876.4,682.1,875.6,681.1,874.6,681.1z M691,664.6h-0.9c-0.9,0-1.8,1-1.8,2.3s0.8,2.3,1.8,2.3h0.9c0.9,0,1.8-1,1.8-2.3
		S692,664.6,691,664.6z M712.3,528.6h-0.9c-0.9,0-1.8,1-1.8,2.3s0.8,2.3,1.8,2.3h0.9c0.9,0,1.8-1,1.8-2.3S713.3,528.6,712.3,528.6z
		 M1140.6,676.9h-0.9c-0.9,0-1.8,1-1.8,2.3s0.8,2.3,1.8,2.3h0.9c0.9,0,1.8-1,1.8-2.3S1141.6,676.9,1140.6,676.9z M1092.7,620.6h-0.9
		c-0.9,0-1.8,1-1.8,2.3s0.8,2.3,1.8,2.3h0.9c0.9,0,1.8-1,1.8-2.3S1093.7,620.6,1092.7,620.6z M1043,149.8h-0.9c-0.9,0-1.8,1-1.8,2.3
		s0.8,2.3,1.8,2.3h0.9c0.9,0,1.8-1,1.8-2.3S1044,149.8,1043,149.8z M973.8,161.2c-1.3-0.5-2.5,1.9-2.2,3.7c0.2,1.4,1.2,1.8,2.1,1.6
		c1.6-0.3,1.9-3.3,0.9-4.7C974.3,161.5,974,161.3,973.8,161.2z M902.8,177.9h-0.9c-0.9,0-1.8,1-1.8,2.3s0.8,2.3,1.8,2.3h0.9
		c0.9,0,1.8-1,1.8-2.3S903.7,177.9,902.8,177.9z"/>
</g>
<g id="PLANETS">
	<g>
		<path opacity="0.2" fill="#965AE6" enable-background="new    " d="M377.2,316c6.9,15.8,19.1,29.3,35.7,37.1
			c43.3,20.3,97-8.2,106.3-54.6c6.8-34.1-12.1-70.9-44.5-84.1c-8.9-3.6-18.4-6-28-6.5c-31.7-1.6-62,21.2-72,50.8
			C368.3,277.7,369.5,298.4,377.2,316z"/>
		
			<linearGradient id="SVGID_4_" gradientUnits="userSpaceOnUse" x1="289.8915" y1="378.5356" x2="367.064" y2="304.1193" gradientTransform="matrix(-0.2922 0.9563 0.9563 0.2922 206.2363 -125.7172)">
			<stop  offset="0" style="stop-color:#965AE6"/>
			<stop  offset="0.5" style="stop-color:#6428B4"/>
			<stop  offset="1" style="stop-color:#3C186C"/>
		</linearGradient>
		<path fill="url(#SVGID_4_)" d="M382.8,313.4c6.4,14.5,17.5,26.8,32.7,34c39.7,18.6,88.9-7.5,97.5-50.1c6.3-31.3-11.1-65-40.8-77.1
			c-8.2-3.3-16.9-5.5-25.7-6c-29.1-1.5-56.9,19.4-66,46.6C374.6,278.3,375.7,297.2,382.8,313.4z"/>
		<path opacity="0.5" fill="#3B176C" enable-background="new    " d="M428.2,314.2c-0.9,2.6-7.6,25.4-9.3,34.7
			c-1.1-0.5-2.2-0.9-3.3-1.5c-4.8-2.3-9.2-5-13.2-8.2c3.7-15.1,8.6-29.9,14.7-44.3c3.4-7.9,7.1-15.7,11.2-23.3
			c3.4-6.3,7.9-11.4,8.4-19c0.3-5.7-0.4-12.1,3-17.1c3.9-5.6,11.2-8,15.6-13.1c1.6-1.9,3.9-4,5.5-6c3.9,1,7.7,2.2,11.4,3.7
			c2.2,0.9,4.3,1.9,6.4,3.1c-0.5,0.6-1,1.2-1.4,1.8c-3.3,4.3-7.1,7.7-7.3,13.3c-0.2,3.9,0.2,8.1-1.6,11.6
			c-2.8,5.5-9.7,7.3-14.6,11.1c-5.2,4.2-7.2,10.3-10,16.1c-0.2,0.4-0.4,0.8-0.6,1.2C437.1,289.8,432.1,302,428.2,314.2z
			 M470.4,258.8c-6.3,11-11.3,22.5-15.3,34.6c-0.3,0.9-0.6,1.9-1,2.8c-0.5,1.1-1,2.2-1.7,3.2c-4,6.6-11.1,11.9-8.9,20.6
			c0.6,2.3,1.8,4.6,1.8,7c0,2.6-0.8,5.4-1.3,8c-1.2,6.2-2.1,12.4-2.8,18.6c3.9,0.1,7.9-0.1,11.7-0.7c0.7-6.6,1.7-13.1,2.9-19.6
			c0.5-2.9,1-5.8,2.5-8.3c1.3-2.3,3.5-4,4.5-6.6c1.2-2.9,0.5-6.2,0.3-9.3c-0.6-6.4,3.3-13.2,5.7-19c2.6-6.4,5.4-12.8,8.6-19
			c5.7-11,12.6-21.6,21.4-30.4c-2.8-3.6-6-6.8-9.4-9.8C483.9,237.8,471.6,256.6,470.4,258.8z M508.8,257.2c-0.5,0.5-0.9,1-1.4,1.5
			c-1.2,1.4-1.8,3-3.5,4c-1.1,0.6-2.3,1-3.5,1.6c-2,1-3.8,2.5-5,4.4c-2.1,3.2-2.7,7.1-4.5,10.5s-4.2,6.6-6.1,9.9
			c-4.2,7.4-7.8,15-10.8,23c-4.6,12.2-7.8,25-9.2,37.9c4.1-1.4,8.2-3.1,12-5.1c1.7-10.6,4.6-21,8.5-31c2-5,4.2-9.9,6.7-14.7
			c2-3.8,4.3-8.6,7.5-11.5c1.9-1.7,4.2-2.8,5.8-4.8c2.2-2.8,2.6-6.6,4.3-9.7c0.4-0.6,1.7-2.1,3.1-3.6
			C511.8,265.4,510.4,261.2,508.8,257.2z M410,273.3c5.5-12.7,11.9-25.1,19-37c4.4-7.4,9.1-15,14.5-22.1c-7.5,0-14.9,1.5-21.9,4.1
			c-9.3,15.6-16.8,32.3-23.3,49c-0.4,1-0.9,2-1.3,3c-5.6,13.5-11,27-15.1,41.1c0.3,0.7,0.5,1.3,0.8,2c2.4,5.4,5.4,10.5,9,15.1
			C396.2,309.6,402.2,291.1,410,273.3z"/>
		<path opacity="0.5" fill="#965AE6" enable-background="new    " d="M463.7,241.5c0.5-3.3-0.1-6.6-2.5-8.5
			c-4.8-4-13.6,0.4-16.4,6.4c-1.6,3.6-2,7.9-0.1,10.9c2.2,3.6,7.4,4.5,11.5,2.4C460.1,250.8,463,246.1,463.7,241.5z"/>
		<path opacity="0.1" fill="#140036" enable-background="new    " d="M513,297.3c6.3-31.3-11.1-65-40.8-77.1
			c-8.2-3.3-16.9-5.5-25.7-6c-29.1-1.5-56.9,19.4-66,46.6c-5.8,17.4-4.7,36.4,2.4,52.6c6.4,14.5,17.5,26.8,32.7,34
			C455.2,366.1,504.5,339.9,513,297.3z M445.3,276.7c-2.5-12.8-0.4-27.8,11.5-35.3c14.2-9.1,32.3-1.5,41.4,11.2
			c12,16.8,7.2,50.4-15.8,55.3C462.8,312.1,448.7,294,445.3,276.7z"/>
		<path opacity="0.2" fill="#140036" enable-background="new    " d="M513,297.3c6.3-31.3-11.1-65-40.8-77.1
			c-8.2-3.3-16.9-5.5-25.7-6c-29.1-1.5-56.9,19.4-66,46.6c-5.8,17.4-4.7,36.4,2.4,52.6c6.4,14.5,17.5,26.8,32.7,34
			C455.2,366.1,504.5,339.9,513,297.3z M423.1,281.6c-3.7-18.4-0.8-39.7,16.4-50.4c20.7-12.9,47.1-1.9,60.5,16.5
			c17.6,24.2,10.9,72.1-22.6,78.9C448.8,332.3,428.1,306.3,423.1,281.6z"/>
		<path opacity="0.3" fill="#140036" enable-background="new    " d="M475.6,345.5c-20.8,0.2-41.1-8.9-54.7-26.9
			c-21-27.8-26.7-68.6-2.7-96.4c1.3-1.5,2.6-2.8,3.9-4.1c-19.2,7.1-35.2,23.3-41.7,42.7c-5.8,17.4-4.7,36.4,2.4,52.6
			c6.4,14.5,17.5,26.8,32.7,34C435.3,356.7,457.3,354.9,475.6,345.5z"/>
		<path opacity="0.3" fill="#140036" enable-background="new    " d="M374.6,258.8c-6.3,19-5.1,39.6,2.6,57.2
			c6.9,15.8,19.1,29.3,35.7,37.1c6.1,2.8,12.3,4.7,18.7,5.7C406.7,329.6,386.5,295.1,374.6,258.8z"/>
	</g>
	<g>
		<g>
			<path opacity="0.3" fill="#965AE6" enable-background="new    " d="M212.5,143.5c-0.7,0.3-1.4,0.6-2,0.9
				c-0.1,0.1-0.2,0.1-0.4,0.2c-8.2,3.9-14.9,10.8-18.7,19.1c-6.8,14.9-3,32.7,8.4,44.3c10,10.1,25.3,14.5,39.1,10.6
				c22.4-6.2,35.2-31.8,26.3-53.4c-8-19.5-31.2-29.1-50.9-22.3c-0.2,0.1-0.4,0.1-0.5,0.2c-0.3,0.1-0.6,0.2-0.9,0.3
				C212.8,143.4,212.7,143.4,212.5,143.5z"/>
			
				<linearGradient id="SVGID_5_" gradientUnits="userSpaceOnUse" x1="1252.5072" y1="536.9269" x2="1291.728" y2="496.937" gradientTransform="matrix(-0.9601 -0.2796 -0.2796 0.9601 1592.0018 35.3455)">
				<stop  offset="0" style="stop-color:#965AE6"/>
				<stop  offset="0.5" style="stop-color:#6428B4"/>
				<stop  offset="1" style="stop-color:#3C186C"/>
			</linearGradient>
			<path fill="url(#SVGID_5_)" d="M214.3,147.1c-0.6,0.2-1.2,0.5-1.8,0.8c-0.1,0-0.2,0.1-0.3,0.1c-0.2,0.1-0.5,0.2-0.7,0.4
				c-0.2,0.1-0.4,0.2-0.6,0.3c-0.2,0.1-0.4,0.2-0.7,0.4c-0.2,0.1-0.4,0.2-0.6,0.3c-0.2,0.1-0.4,0.3-0.6,0.4
				c-0.2,0.1-0.4,0.2-0.6,0.4c-0.2,0.1-0.4,0.3-0.6,0.4c-0.2,0.1-0.4,0.3-0.6,0.4c-0.2,0.1-0.4,0.3-0.6,0.4
				c-0.2,0.1-0.4,0.3-0.6,0.4c-0.2,0.1-0.4,0.3-0.6,0.4c-0.2,0.2-0.4,0.3-0.6,0.5c-0.2,0.1-0.4,0.3-0.5,0.5
				c-0.2,0.2-0.4,0.3-0.6,0.5c-0.2,0.2-0.3,0.3-0.5,0.5s-0.4,0.4-0.6,0.6c-0.2,0.2-0.3,0.3-0.5,0.5s-0.4,0.4-0.6,0.6
				c-0.1,0.2-0.3,0.3-0.4,0.5c-0.2,0.2-0.4,0.4-0.6,0.7c-0.1,0.2-0.3,0.3-0.4,0.5c-0.2,0.3-0.4,0.5-0.6,0.8
				c-0.1,0.1-0.2,0.3-0.3,0.4c-0.3,0.4-0.6,0.8-0.9,1.3c-2.2,3.3-4.4,7.5-5.3,11.3c0,0.2-0.1,0.3-0.1,0.5c-0.2,0.7-0.3,1.5-0.4,2.2
				c-0.1,0.4-0.1,0.7-0.1,1.1c0,0.4-0.1,0.7-0.1,1.1c0,0.5-0.1,0.9-0.1,1.4c0,0.3,0,0.5,0,0.8c0,0.5,0,1,0,1.5c0,0.2,0,0.5,0,0.7
				c0,0.5,0.1,1,0.1,1.6c0,0.2,0,0.4,0.1,0.6c0.1,0.5,0.1,1,0.2,1.5c0,0.2,0.1,0.4,0.1,0.6c0.1,0.5,0.2,1,0.3,1.5
				c0.1,0.2,0.1,0.4,0.2,0.6c0.1,0.5,0.3,1,0.4,1.4c0.1,0.2,0.1,0.4,0.2,0.6l0,0c0,0.1,0,0.2,0.1,0.3c1.2,3.3,2.5,6.4,4.2,9.3
				c0,0.1,0.1,0.1,0.1,0.2c0.6,1.1,1.3,2.1,2.1,3.1l0,0c0.4,0.5,0.8,1,1.2,1.5l0,0l0,0c0.7,0.8,1.5,1.6,2.4,2.4
				c1.7,1.4,3.5,2.8,5.5,4l0,0c0.7,0.4,1.3,0.8,2,1.1l0,0l0,0c4.3,2.2,9,3.8,13.5,4.4c0.9,0.1,1.9,0.1,2.8,0.1l0,0c0,0,0,0,0.1,0
				c0.6,0,1.1-0.1,1.7-0.2h0.1l0,0c1.2-0.1,2.5-0.3,3.6-0.4c11.6-1.2,22.3-9.5,27-20c1.9-4.1,3.1-8.5,3.5-13.1
				c1.3-14.9-8.9-29.5-22.6-34.7c-8.4-3.1-17.4-3.3-25.4-0.5l0,0c-0.2,0.1-0.3,0.1-0.5,0.2C214.9,146.9,214.7,147,214.3,147.1
				C214.6,147,214.4,147.1,214.3,147.1z"/>
			<path opacity="0.2" fill="#140036" enable-background="new    " d="M198.3,184.1c6,1.8,3.9-7.8,6.7-10.1c1.7-1.4,4.3-0.8,6.5-0.7
				c3.7,0.1,7.5-1.6,9.8-4.6c1.5-2,2.5-4.4,4.5-5.9c1.9-1.3,4.5-1.5,6.7-0.7c4.9,1.8,6.1,8,11,9.5c4.6,1.4,9.8,2.3,12.1,7.2
				c0.4,0.8,0.8,1.7,1.4,2.1c0.2,0.2,0.5,0.3,0.9,0.3c0.8,0,1.5-0.8,1.6-1.6c0.5-4-5.2-6.7-5.7-10.6c-0.4-3.2,0.9-5.1-1.1-8.1
				c-1.7-2.6-4.7-4.5-7.9-4.6c-2.4-0.1-4.8,0.8-7.3,0.8c-3.7,0-7-2-10.3-3.5s-7.3-2.6-10.6-1c-3.9,2-5.1,6.9-8,10.2
				c-2.5,2.9-6.1,4.6-9,7.1C196.4,172.6,191.9,182.2,198.3,184.1z M246.2,159.6c0.6,0.2,1.1,0.4,1.6,0.8c0.8,0.5,1.4,1.1,1.9,1.8
				c3.8,6.2-7.3,10.7-9.8,4.1C238,161.5,241.4,157.9,246.2,159.6z M200.8,194.7c-1.1,1.4-2.7-1.3-3.2-2.1c-1-1.8-1.3-2.9-0.3-4.8
				c0.1-0.2,0.2-0.3,0.4-0.4c0.4-0.2,0.7,0.2,1,0.5c1.1,1.4,1.9,3.1,2.3,4.9c0.1,0.6,0.2,1.3-0.1,1.8
				C200.9,194.6,200.8,194.6,200.8,194.7z"/>
		</g>
		<path opacity="0.2" fill="#140036" enable-background="new    " d="M233.2,149.8c0.7-0.9,2.4-0.7,3.3-0.5c1.2,0.2,2.9,0.8,3.8,1.8
			c0.8,1,0,1.9-1.1,2.1c-1.8,0.2-3.7,0-5.2-1C233.1,151.7,232.5,150.7,233.2,149.8z M202.1,160.1c0.2-0.3,0.4-0.5,0.6-0.8
			c0.9-1.1,3.5-4,5.1-2.6c0.1,0.1,0.2,0.2,0.2,0.4c0.2,0.6,0.1,1.3-0.2,1.8c-0.8,1.5-3.3,4-5.2,3.9c-0.1,0-0.3,0-0.4-0.1
			c-0.3-0.1-0.4-0.4-0.5-0.7C201.5,161.4,201.7,160.7,202.1,160.1z"/>
		<path opacity="0.2" fill="#140036" enable-background="new    " d="M207.6,195c-0.4,0-0.8-0.2-1.1-0.6c-0.7-1,0.3-2,1.4-1.8
			c1,0.3,1.2,1.6,0.4,2.1C208,194.9,207.8,195,207.6,195z M230.9,208.6c0.1,0.5-0.2,1.1-1.2,1.7c-1.9,1.1-4.4,1.5-6.5,0.8
			c-1.6-0.5-4.3-2.4-1.8-3.8c2.1-1.1,4.6-1.3,6.9-0.6C229.5,207.1,230.7,207.8,230.9,208.6z M223.1,196.5c-0.2,3.3-4.4,4-7,3
			c-3.4-1.4-1.5-5.1,1.3-6C219.6,192.8,223.3,193.7,223.1,196.5z M235.1,173.2c-0.2,0.4-0.4,0.8-0.7,1c-1.4,1.3-3.4,1.1-4.9,0.1
			c-3.7-2.6,0.2-8,4-5.8C235.4,169.5,235.9,171.4,235.1,173.2z M255.9,189.2c-0.1,0.5-0.3,1-0.6,1.3c-1.2,1.9-3.3,2-4.9,1.1
			c-4.1-2.3-0.7-9.5,3.4-7.7C255.7,184.8,256.5,186.9,255.9,189.2z M220.3,182.3c1.3,0.4,0.6,2.4-0.6,1.9
			C218.4,183.8,219,181.9,220.3,182.3z M244.7,208.8c-2,0.8-4,0.4-3.9-1.2c0-0.5,0.2-1.2,0.7-2c0.7-1.2,1.9-2,3.2-2.6
			c0.8-0.4,1.6-0.7,2.5-0.7s1.8,0.6,2,1.4C250,206.1,246.6,208.1,244.7,208.8z M215.6,205.6c-1.3-0.4-0.6-2.4,0.6-1.9
			C217.5,204.1,216.8,206,215.6,205.6z M247.3,178.2l0.1,0.2c0.6,1.2-1.2,2.1-1.8,0.9l-0.1-0.2C244.9,177.9,246.7,177,247.3,178.2z
			 M229.9,182.3c2-1.4,4.4-0.9,5.6,0.7c0.6,0.8,0.9,1.9,0.7,3.2c-0.5,2.8-3.7,5-6.4,4.2C226.4,189.3,227.6,184,229.9,182.3z
			 M225.4,166.3c0.4-1.3,2.4-0.6,1.9,0.6l-0.1,0.2c-0.4,1.3-2.4,0.6-1.9-0.6L225.4,166.3z M209.9,180.1c0.4-0.7,0.9-1.2,1.5-1.6
			c0.5-0.3,1-0.5,1.6-0.5c3-0.2,5.3,2.1,4.9,5c-0.2,1.6-1,3.3-2.3,4.2c-2.6,1.8-5.5-0.3-6.2-3C209,182.8,209.2,181.3,209.9,180.1z
			 M237,194c2.9-0.3,6,1.6,5.1,4.9c-0.7,2.7-4.2,4.7-6.9,4.7c-6.5-0.1-3.5-8.6,1.2-9.5C236.6,194,236.8,194,237,194z"/>
		<path opacity="0.2" fill="#140036" enable-background="new    " d="M192.4,177.5c0,0.3,0,0.5,0,0.8c0,0.5,0,1,0,1.5
			c0,0.2,0,0.5,0,0.7c0,0.5,0.1,1,0.1,1.6c0,0.2,0,0.4,0.1,0.6c0.1,0.5,0.1,1,0.2,1.5c0,0.2,0.1,0.4,0.1,0.6c0.1,0.5,0.2,1,0.3,1.5
			c0.1,0.2,0.1,0.4,0.2,0.6c0.1,0.5,0.3,1,0.4,1.4c0.1,0.2,0.1,0.4,0.2,0.6l0,0c0,0.1,0,0.2,0.1,0.3c1.2,3.3,2.5,6.4,4.2,9.3
			c0,0.1,0.1,0.1,0.1,0.2c0.6,1.1,1.3,2.1,2.1,3.1l0,0c0.4,0.5,0.8,1,1.2,1.5l0,0l0,0c0.7,0.8,1.5,1.6,2.4,2.4
			c1.7,1.4,3.5,2.8,5.5,4l0,0c0.7,0.4,1.3,0.8,2,1.1l0,0l0,0c4.3,2.2,9,3.8,13.5,4.4c0.9,0.1,1.9,0.1,2.8,0.1l0,0c0,0,0,0,0.1,0
			c0.6,0,1.1-0.1,1.7-0.2h0.1l0,0c1.2-0.1,2.5-0.3,3.6-0.4c11.6-1.2,22.3-9.5,27-20c1.9-4.1,3.1-8.5,3.5-13.1
			c1.3-14.9-8.9-29.5-22.6-34.7c-8.4-3.1-17.4-3.3-25.4-0.5l0,0c-0.2,0.1-0.3,0.1-0.5,0.2c-0.3,0.1-0.5,0.2-0.8,0.3
			c-0.1,0.1-0.3,0.1-0.4,0.2c-0.6,0.2-1.2,0.5-1.8,0.8c-0.1,0-0.2,0.1-0.3,0.1c-0.2,0.1-0.5,0.2-0.7,0.4c-0.2,0.1-0.4,0.2-0.6,0.3
			c-0.2,0.1-0.4,0.2-0.7,0.4c-0.2,0.1-0.4,0.2-0.6,0.3c-0.2,0.1-0.4,0.3-0.6,0.4c-0.2,0.1-0.4,0.2-0.6,0.4c-0.2,0.1-0.4,0.3-0.6,0.4
			c-0.2,0.1-0.4,0.3-0.6,0.4c-0.2,0.1-0.4,0.3-0.6,0.4c-0.2,0.1-0.4,0.3-0.6,0.4c-0.2,0.1-0.4,0.3-0.6,0.4c-0.2,0.2-0.4,0.3-0.6,0.5
			c-0.2,0.1-0.4,0.3-0.5,0.5c-0.2,0.2-0.4,0.3-0.6,0.5c-0.2,0.2-0.3,0.3-0.5,0.5s-0.4,0.4-0.6,0.6c-0.2,0.2-0.3,0.3-0.5,0.5
			s-0.4,0.4-0.6,0.6c-0.1,0.2-0.3,0.3-0.4,0.5c-0.2,0.2-0.4,0.4-0.6,0.7c-0.1,0.2-0.3,0.3-0.4,0.5c-0.2,0.3-0.4,0.5-0.6,0.8
			c-0.1,0.1-0.2,0.3-0.3,0.4c-0.3,0.4-0.6,0.8-0.9,1.3c-2.2,3.3-4.4,7.5-5.3,11.3c0,0.2-0.1,0.3-0.1,0.5c-0.2,0.7-0.3,1.5-0.4,2.2
			c-0.1,0.4-0.1,0.7-0.1,1.1c0,0.4-0.1,0.7-0.1,1.1C192.4,176.6,192.4,177.1,192.4,177.5z M232.6,176.7c3.4-0.9,7-1.1,10.3-0.1
			c14.7,4.2,14.5,20.5,3.6,28.8c-10.8,8.3-31.3,4.4-29.8-12.1C217.4,185.7,224.5,179,232.6,176.7z"/>
		<path opacity="0.2" fill="#140036" enable-background="new    " d="M192.4,177.5c0,0.3,0,0.5,0,0.8c0,0.5,0,1,0,1.5
			c0,0.2,0,0.5,0,0.7c0,0.5,0.1,1,0.1,1.6c0,0.2,0,0.4,0.1,0.6c0.1,0.5,0.1,1,0.2,1.5c0,0.2,0.1,0.4,0.1,0.6c0.1,0.5,0.2,1,0.3,1.5
			c0.1,0.2,0.1,0.4,0.2,0.6c0.1,0.5,0.3,1,0.4,1.4c0.1,0.2,0.1,0.4,0.2,0.6l0,0c0,0.1,0,0.2,0.1,0.3c1.2,3.3,2.5,6.4,4.2,9.3
			c0,0.1,0.1,0.1,0.1,0.2c0.6,1.1,1.3,2.1,2.1,3.1l0,0c0.4,0.5,0.8,1,1.2,1.5l0,0l0,0c0.7,0.8,1.5,1.6,2.4,2.4
			c1.7,1.4,3.5,2.8,5.5,4l0,0c0.7,0.4,1.3,0.8,2,1.1l0,0l0,0c4.3,2.2,9,3.8,13.5,4.4c0.9,0.1,1.9,0.1,2.8,0.1l0,0c0,0,0,0,0.1,0
			c0.6,0,1.1-0.1,1.7-0.2h0.1l0,0c1.2-0.1,2.5-0.3,3.6-0.4c11.6-1.2,22.3-9.5,27-20c1.9-4.1,3.1-8.5,3.5-13.1
			c1.3-14.9-8.9-29.5-22.6-34.7c-8.4-3.1-17.4-3.3-25.4-0.5l0,0c-0.2,0.1-0.3,0.1-0.5,0.2c-0.3,0.1-0.5,0.2-0.8,0.3
			c-0.1,0.1-0.3,0.1-0.4,0.2c-0.6,0.2-1.2,0.5-1.8,0.8c-0.1,0-0.2,0.1-0.3,0.1c-0.2,0.1-0.5,0.2-0.7,0.4c-0.2,0.1-0.4,0.2-0.6,0.3
			c-0.2,0.1-0.4,0.2-0.7,0.4c-0.2,0.1-0.4,0.2-0.6,0.3c-0.2,0.1-0.4,0.3-0.6,0.4c-0.2,0.1-0.4,0.2-0.6,0.4c-0.2,0.1-0.4,0.3-0.6,0.4
			c-0.2,0.1-0.4,0.3-0.6,0.4c-0.2,0.1-0.4,0.3-0.6,0.4c-0.2,0.1-0.4,0.3-0.6,0.4c-0.2,0.1-0.4,0.3-0.6,0.4c-0.2,0.2-0.4,0.3-0.6,0.5
			c-0.2,0.1-0.4,0.3-0.5,0.5c-0.2,0.2-0.4,0.3-0.6,0.5c-0.2,0.2-0.3,0.3-0.5,0.5s-0.4,0.4-0.6,0.6c-0.2,0.2-0.3,0.3-0.5,0.5
			s-0.4,0.4-0.6,0.6c-0.1,0.2-0.3,0.3-0.4,0.5c-0.2,0.2-0.4,0.4-0.6,0.7c-0.1,0.2-0.3,0.3-0.4,0.5c-0.2,0.3-0.4,0.5-0.6,0.8
			c-0.1,0.1-0.2,0.3-0.3,0.4c-0.3,0.4-0.6,0.8-0.9,1.3c-2.2,3.3-4.4,7.5-5.3,11.3c0,0.2-0.1,0.3-0.1,0.5c-0.2,0.7-0.3,1.5-0.4,2.2
			c-0.1,0.4-0.1,0.7-0.1,1.1c0,0.4-0.1,0.7-0.1,1.1C192.4,176.6,192.4,177.1,192.4,177.5z M232.7,165c9.5-2.4,20-1.3,25.6,7.9
			c8.4,13.7-3.9,31.5-16.4,37.5c-17.4,8.4-43.6-2.4-35.9-24.7C209.6,174.8,222.1,167.6,232.7,165z"/>
		<path opacity="0.3" fill="#140036" enable-background="new    " d="M191.5,163.6c-3.8,8.4-4.3,17.8-1.9,26.4
			c1.8-2.8,3.8-5.5,5.9-8.1c12-14.4,29.6-24.9,47.8-29.5c3.6-0.9,7.3-1.7,11-2.3c-10.8-8.9-26.1-12.1-39.8-7.4
			c-0.2,0.1-0.4,0.1-0.5,0.2c-0.3,0.1-0.6,0.2-0.9,0.3c-0.2,0.1-0.3,0.1-0.5,0.2c-0.7,0.3-1.4,0.6-2,0.9c-0.1,0.1-0.2,0.1-0.4,0.2
			C202,148.5,195.2,155.4,191.5,163.6z"/>
		<path opacity="0.3" fill="#140036" enable-background="new    " d="M237.5,141.8c-7.5-1.8-15.5-1.6-23.1,0.9
			c-0.2,0.1-0.4,0.1-0.5,0.2c-0.3,0.1-0.6,0.2-0.9,0.3c-0.2,0.1-0.3,0.1-0.5,0.2c-0.7,0.3-1.4,0.6-2,0.9c-0.1,0.1-0.2,0.1-0.4,0.2
			c-8.2,3.9-14.9,10.8-18.7,19.1c-1.4,3.1-2.3,6.3-2.9,9.5c5.6-5.5,11.6-10.5,17.8-15C215.7,151.4,226.3,145.8,237.5,141.8z"/>
	</g>
	<g>
		<path opacity="0.3" fill="#965AE6" enable-background="new    " d="M991.6-26.5c0.9,0.4,1.8,0.9,2.6,1.3c0.2,0.1,0.3,0.2,0.5,0.2
			c10.5,5.9,19,15.6,23.3,26.8c7.9,20.4,1.5,43.7-14.7,58.2c-14.1,12.6-34.8,17.2-52.8,11.1c-29.3-10-44.3-45-30.8-73
			c12.2-25.3,43.7-36.2,69.4-25.7c0.2,0.1,0.5,0.2,0.7,0.3c0.4,0.2,0.8,0.3,1.2,0.5C991.2-26.6,991.4-26.5,991.6-26.5z"/>
		
			<linearGradient id="SVGID_6_" gradientUnits="userSpaceOnUse" x1="775.1288" y1="84.8255" x2="810.7635" y2="28.3579" gradientTransform="matrix(0.9209 -0.3897 0.3897 0.9209 216.4317 277.9864)">
			<stop  offset="0" style="stop-color:#965AE6"/>
			<stop  offset="0.5" style="stop-color:#6428B4"/>
			<stop  offset="1" style="stop-color:#3C186C"/>
		</linearGradient>
		<path fill="url(#SVGID_6_)" d="M1016.3,12.8c0,0.2,0.1,0.4,0.1,0.6c1.2,8,0.5,16-2.7,23.5c-3.5,8.2-7.6,15.7-14.8,21.2
			c-7.8,6.1-18.9,10.4-28.9,11.1c-3.5,0.3-7.6-0.8-11.1-1.4c-15.4-2.5-29-14.4-34.5-28.9c-2.2-5.7-3.5-11.7-3.7-17.8
			c-0.6-20,14.2-38.8,33-44.7c21.4-6.6,44.8,1,56.3,20.7C1012.7,1.7,1015.3,7.5,1016.3,12.8z"/>
		<path fill="#3C186C" d="M959.2,21.9c0.5,0.3,1.2,0.3,1.6,0.6c0.6,0.4,1.1,1.3,1.7,1.5c0.9,0.3,1.3-0.6,2.1-0.2s0.8,1.3,1.2,1.9
			c0.6,1.2,1.6,2.5,1.7,3.6c0.1,1.5-0.9,2.1-1.6,3.1c-0.4,0.6-0.3,1.3-0.9,1.9c-0.6,0.6-1.4,0.5-2.1,0.9c-1.5,0.7-1.7,1.8-2.9,2.7
			c-1.1,0.8-2,1.2-2.9,2.4c-0.6,0.8-0.8,0.4-0.8,1.4c0,0.7,0.9,1.4,1,2c0.8,3.9-4.8,3.1-5.1,5.7c-0.1,1.1,0.9,2.9,0.4,3.9
			c-0.6,1.5-2.6,0.8-3.8,1c-1.4,0.2-2.8,1.5-4.1,1.5c-1.2,0-3.3-1.6-4.4-2.1c-1.7-0.9-2.1-2.1-3.3-3.4c-1.1-1.2-2.4-2-3.4-3.4
			c-1.7-2.5-3-5.6-3-8.6c0-3.1,1.1-5,1.7-7.9c0.7-2.9-0.9-5-1-7.7c-0.1-4.2-1.1-8.4-1.1-12.6c-0.1-4.3-1-8,0.9-12.1
			c0.3,1.5,0.2,2.4,1.1,3.8c0.4,0.6,0.7,0.6,1,1.4c0.3,0.7-0.1,1.4,0.4,2.1c0.8,1,2.8,1.3,4,1.6c1.9,0.6,1.3,1,2.4,2.5
			c1.1,1.5,1.9,0.4,3.2,1.1c1.4,0.7,1.3,2.6,2.3,3.7c0.5,0.5,1,0.4,1.6,0.8c0.4,0.2,0.9,0.9,1.3,1c1.9,0.7,4-0.6,6,0.1
			C957.3,17.1,957,20.4,959.2,21.9z M1010-2.8c-5.3-9.1-13.2-15.7-22.3-19.4c-0.7,1.4,0.3,3.4,1.5,4.8c0.5,0.6,1.3,0.9,1.7,1.7
			c0.3,0.7,0.2,1.6,0.4,2.3c0.9,2.7,3.7,4.7,5.3,7c0.8,1.2,0.6,3,1.6,4.1c0.5,0.5,1.2,0.4,1.8,0.9s1.2,1.5,1.6,2.1
			c1.9,2.6,1.6,5.5,2.4,8.5c0.5,1.7,1.1,3.5,1.2,5.3c0,1.4-0.6,2.5-0.7,3.8c-0.1,1.7,1,2.7-1.1,3.5c-1.5,0.6-3,0-4.1,1.5
			c-0.4,0.7-0.3,1.6-0.9,2.2c-0.6,0.6-1.5,0.4-2.2,0.7c-1.9,0.7-1.4,1.3-1.8,3.3c-0.4,2.1-1.3,2.4-2.9,3.6c-1.3,1-1.6,2.3-0.6,3.8
			c1,1.4,2.6,2,3.1,3.9c0.5,1.6-0.4,3,1.1,4.2c1,0.8,2.6,1.1,3.7,1.8c1.2,0.9,1.6,1.5,3.2,1.3c1.5-0.2,2.1-1.4,3.1-2
			c1.3-0.8,2.9-0.4,4-1.4c1.1-1.1,0.4-2.6,0.8-3.9c0.4-1.4,1.6-2.2,2.7-3.1c0.4-0.4,0.8-0.7,1.2-1c3.1-7.3,3.7-15.3,2.6-23.1
			c0-0.2-0.1-0.4-0.1-0.6C1015.3,7.5,1012.7,1.7,1010-2.8z M999.7,54.3c0.3,1.1,1.3,1.3,2.6,0.8c2.5-2.4,4.5-5.2,6.3-8.1
			c-0.3-0.1-0.6-0.2-1-0.3c-1.5-0.2-4.1,1.7-5.1,2.6C1001.5,50.2,999.3,52.9,999.7,54.3z"/>
		<path fill="#C089FF" d="M929.2,1.3c0.8-1.1,1.2-1.6,1.5-2.8c0.3-1.1,0-2.2,1.2-3c3.4-2.4,2.9,4,2.4,5.7C933,4.7,927,4.5,929.2,1.3
			z M972.2,2c0.4,0.2,1.9,2.9,1.3,2.9c-1.8,0,0.4,3.8,1.8,0.6c0.6-1.3,0.2-3.2-0.6-4.3c-1.3-1.6-4.8-2.1-6.6-1.2
			c-1.6,0.8-2.1,4,0.3,4.3C970.3,4.6,969.5,0.7,972.2,2z M940.4,10.1c-0.4,1.5,1,3.3,0.1,4.8c-0.9,1.6-3.5,1.6-4.3,3.4
			c-1,2.1,1.2,1.2,1.8,2.7c0.4,0.8-0.7,0.9,0.2,1.9c0.6,0.6,1.9,0.4,2.6,0.8c1.4,0.8,0.9,2.8,2.6,3.1c1.2,0.2,3.5-1.4,3.5-2.7
			c0-1.8-1.5-1.2-2.6-1.8c-2-1.1-0.7-2,0.2-3.5c0.7-1.2,0.2-2.8,0.6-4.1c0.2-0.6,0.6-1,0.7-1.7c0.2-0.8-0.2-1.2,0.3-2
			c0.9-1.4,5.6-2.5,4.5-4.8c-0.7-1.4-5.6,1.1-6.6,1.4C942.5,8.1,940.8,8.5,940.4,10.1z M943.1,31c1.7-0.3,1-2.6-0.5-2.7
			C940.1,28.2,941.4,31.3,943.1,31z M949.3,34.9c1.6,1.9,1.6-1,1.8-1.7c0.6-1.3,2-1.7,1.2-3.3c-0.6-1.2-2-1.5-2.8-0.3
			C949.1,30.4,948.9,34.4,949.3,34.9z M959.5,34.8c1.3,1.1,2.4,2,2.7-0.5c0.1-1-0.8-2.1,0.2-2.7c1-0.5,2.4,1.3,1.8-0.9
			c-0.1-0.6-1.6-1.2-1.2-1.9c0.6-1.1,2.5,0.9,3.2-0.4c0.7-1.2-1.5-2.5,1-3.1c0.6-0.2,1.2,0.6,1.8,0c0.8-0.9-0.3-1.3-0.4-2
			c-0.1-0.9,0.1-1.7,0-2.6c-0.1-0.7-0.5-1.6-1.3-1.4c-1.2,0.3-0.4,1.4-0.5,2.1c-0.4,2.7-1.7,2.3-2.7,0.3c-2.5,0-0.9,2.6-1.5,3.6
			c-0.7,1.2-3.1,0.9-4.2,1.2c-2,0.5-2.2,1.1-2,2.8c0.1,0.8,0.6,0.9,0.3,1.8c-0.3,0.8-1.4,1-1.6,1.9
			C954.4,36.2,958.3,33.9,959.5,34.8z M936.6,30.2c1.4,0.1,1.9-1.5,0.8-2.3l-1-0.1C935.3,28.4,935.2,30.1,936.6,30.2z M949.3-17
			c-0.2,0.4,5-1.1,5.3-1.1c4.2-0.5-0.3,3.6,2.1,3.8c1.1,0.1,3.7-3.4,3.9-4.3C961.1-21.7,950.5-19.1,949.3-17z M958.9,65.5
			c-0.1,0.1,2.5,2.2,4.8,3.2c0.8,0.1,1.7,0.3,2.5,0.4c0.1,0,0.2-0.1,0.3-0.1c2.4-1.5-3.4-3.6-4.7-3.9
			C960.9,64.8,959.7,64.9,958.9,65.5z M993.9,31.3c-1.1,0.4-2.3,0.2-3.4,0.5c-3.5,0.9-2.6,3.1,0.7,3c1.7,0,3.2-0.7,4.6-1.7
			c1-0.8,3.4-4,0.2-3.4C995.2,29.9,994.6,31,993.9,31.3z M986.2,64.2c0.7,0,1.4,0.1,2.2,0.1c1.9-0.9,3.7-1.8,5.4-2.8
			c-1.5-0.9-3.8-0.4-5.4-0.6c-2.3-0.3-4.7-1-6.5-2.5c-2.7-2.1-1.8-3.7-1.3-6.5c0.2-1,0.9-1.4-0.7-1.5c-0.7-0.1-1.9,0.7-2.3,1.2
			c-0.7,0.7-1.3,1.9-1.2,2.9c0,1.1,1.5,2.2,1.2,3.2c-3.2-0.1-6.2-2.5-8.8,1.1c0.7,1,4.2,0.5,5.4,0.7c2.8,0.4,3.8,1.8,5.9,3.2
			C981.9,63.9,984.2,64.2,986.2,64.2z M966.4-16.8c0.7-1.5-0.4-1.4-1.5-0.6c-1.3,0.9-3,2.8-3.1,4.4c-0.1,1.5,0.8,2.9,1.9,1.1
			c0.6-1,0.6-2.3,1.2-3.3C965.2-15.8,966.1-16.1,966.4-16.8z M974.8,39.3c0.2-1.3,1.2-1.9,0-3c-0.9-0.8-2.3-0.6-3.2,0.1
			c-1,0.8-0.7,2.1-1.5,2.9c-0.9,0.9-3.5,1.2-4.7,1.9c-0.7,0.4-3.7,2.6-1.7,2.9c0.8,0.1,2.7-1.2,3.5-1.6c1.5-0.8,2.3-1.6,4.1-1.5
			c1.3,0.1,3.7,1,4.7-0.6C976.7,39.4,976,38.4,974.8,39.3z M983.9,32.6c-1,0.3-0.6,1.2-1.3,1.6c-1,0.7-2.2,0.2-3.3,0.5
			c-1,0.4-2.3,1.7-1,2.6c1.1,0.8,2.2-0.7,3.2-1.1c1.2-0.5,3.6,0,4.4-1.4C986.5,33.6,985.2,32.2,983.9,32.6z M948.6-9.7
			c-0.5,0.5-1.4,1.5,0.3,1.6c0.8,0,5.2-3.2,4.9-4.2C953.3-13.6,949.2-10.4,948.6-9.7z M954.4,37.6c1.3-0.9-0.3-3.7-1.8-2.3
			C951.6,36.3,953.3,38.4,954.4,37.6z M947.2,58c-1.9,0.6-1.1,2.7,0.7,2.6C950.2,60.4,949.7,57.1,947.2,58z M967.2,16.7
			c-0.2-1.3-1.7-7.2-4.3-4.7c-1.6,1.5,0.8,3.7,1.8,4.6C965.6,17.3,967.7,19.4,967.2,16.7z M938,52.6l0.5-0.5
			c0.2-1.1-1.4-3.3-2.6-2.2C934.9,50.8,936.9,52.8,938,52.6z M937.4,54.7c0.3,1,2,2.9,3,3.1c1,0.2,1.9-0.4,1.1-1.7
			C940.8,54.7,938.7,54.1,937.4,54.7z M955.2-9.3c1.3,1.3,5.5-1.7,3.6-3.3c-1.5-1.3-1.3,0.6-1.6,1.3C957.1-11,955.4-9.1,955.2-9.3z
			 M941.9,5.4c0.9,1.6,2.7-0.3,3.2-1.2c1.1-1.6,1.5-3.1,3.8-3.5c1.6-0.3,2.6-0.5,2.9-2.1c0.1-0.7-0.6-1.4-0.1-2.2
			c0.4-0.7,1.4-0.5,1.9-1.1c0.7-0.8,0.8-2.2-0.3-2.6c-1.5-0.6-2.4,1.7-3.4,2.2c-0.9,0.5-1.8,0.1-2.8,0.2c-1.3,0.2-2.5,0.9-3,2.1
			s0.1,1.2,0.2,2.2C944.4,1.3,941,3.8,941.9,5.4z M960.1,15.4c-1.3,0.5,0.2,2.9,1,3.3C963.1,19.7,962.5,14.4,960.1,15.4z
			 M959.5,20.6c-1.7,0.7-0.4,3.2,1.1,2.6C961.9,22.7,961.1,20,959.5,20.6z M956.5-4.4c-0.6,1-2,1.4-2.5,2.4c-0.5,1.1-0.4,2.4,1,1.8
			c1.1-0.4,1.1-2.2,1.6-3.1c0.7-1.1,2.6-1.9,1.9-3.5C957.5-9.6,956.8-4.9,956.5-4.4z M972.2,17.8c-0.1,0.2-0.4,4.1-0.4,4.1
			c0.4,1,1.5,0.3,2.1-0.6C974.6,20,973.9,18,972.2,17.8z"/>
		<path opacity="0.1" fill="#140036" enable-background="new    " d="M1010-2.8c-11.4-19.7-34.9-27.3-56.3-20.7
			c-18.8,5.8-33.6,24.6-33,44.7c0.2,6.1,1.5,12.1,3.7,17.8c5.5,14.4,19.1,26.3,34.5,28.9c3.5,0.6,7.6,1.7,11.1,1.4
			c9.9-0.7,21-5,28.9-11.1c7.1-5.5,11.3-13.1,14.8-21.2c3.2-7.4,3.9-15.5,2.7-23.5c0-0.2-0.1-0.4-0.1-0.6
			C1015.3,7.5,1012.7,1.7,1010-2.8z M987,55.9c-6.4,9.6-20.7,11-30.9,7.9c-6.2-1.9-12-5.8-15.3-11.4s-3.7-13-0.3-18.6
			c4.3-7,13.3-9.5,21.5-9.3c3.2,0.1,6.7,0.7,10,1.7C985.1,30.4,996.6,41.7,987,55.9z"/>
		<path opacity="0.2" fill="#140036" enable-background="new    " d="M1010-2.8c-11.4-19.7-34.9-27.3-56.3-20.7
			c-18.8,5.8-33.6,24.6-33,44.7c0.2,6.1,1.5,12.1,3.7,17.8c5.5,14.4,19.1,26.3,34.5,28.9c3.5,0.6,7.6,1.7,11.1,1.4
			c9.9-0.7,21-5,28.9-11.1c7.1-5.5,11.3-13.1,14.8-21.2c3.2-7.4,3.9-15.5,2.7-23.5c0-0.2-0.1-0.4-0.1-0.6
			C1015.3,7.5,1012.7,1.7,1010-2.8z M977.5,12.7c13.1,4.2,25.7,13,25.6,28.3c-0.1,24.9-35.8,30.9-53.5,22.3
			C936.5,57,922.5,40,929.8,24.9c3.9-8.1,12.4-13.3,21.2-14.9c8.4-1.5,17-0.2,25.1,2.3C976.6,12.4,977.1,12.5,977.5,12.7z"/>
		<path opacity="0.3" fill="#140036" enable-background="new    " d="M991.6-26.5c0.9,0.4,1.8,0.9,2.6,1.3c0.2,0.1,0.3,0.2,0.5,0.2
			c10.5,5.9,19,15.6,23.3,26.8c1.9,5.1,3,10.3,3.3,15.5c-13-8.5-27.9-14.4-41.5-18c-19.6-5.1-41-6.1-60.4-0.7
			c0.1-0.2,0.2-0.4,0.3-0.6c10.3-21.3,34.3-32.4,57-29.1c0.1,0,0.2,0,0.3,0.1c0.6,0.1,1.2,0.2,1.8,0.3c0.3,0.1,0.7,0.1,1,0.2
			c0.5,0.1,1,0.2,1.5,0.3c0.2,0.1,0.5,0.1,0.7,0.2c2.4,0.6,4.8,1.4,7.1,2.3c0.2,0.1,0.5,0.2,0.7,0.3c0.4,0.2,0.8,0.3,1.2,0.5
			C991.2-26.6,991.4-26.5,991.6-26.5z"/>
		<path opacity="0.3" fill="#140036" enable-background="new    " d="M986.8-14.7c-14.9-4.2-29.6-5.9-45.1-5.2
			c-2.6,0.1-5.4,0.3-8.1,0.6c11.9-9.6,27.8-14,43.1-11.7c0.1,0,0.2,0,0.3,0.1c0.6,0.1,1.2,0.2,1.8,0.3c0.3,0.1,0.7,0.1,1,0.2
			c0.5,0.1,1,0.2,1.5,0.3c0.2,0.1,0.5,0.1,0.7,0.2c2.4,0.6,4.8,1.4,7.1,2.3c0.2,0.1,0.5,0.2,0.7,0.3c0.4,0.2,0.8,0.3,1.2,0.5
			c0.2,0.1,0.4,0.2,0.6,0.3c0.9,0.4,1.8,0.9,2.6,1.3c0.2,0.1,0.3,0.2,0.5,0.2c9.9,5.5,18,14.5,22.6,24.9
			C1008.3-6.6,998-11.5,986.8-14.7z"/>
	</g>
	<g>
		<path opacity="0.2" fill="#965AE6" enable-background="new    " d="M793.6,248.7c6.8,7,11.8,15.8,14,25.9
			c6.6,30-14.4,59.5-44.3,64.9c-32.5,5.8-64.4-19.2-64.4-52.7c0-7,0.9-14,3.2-20.6c7.5-21.8,31-36,53.6-34.7
			C770.2,232.3,783.8,238.6,793.6,248.7z"/>
		
			<linearGradient id="SVGID_7_" gradientUnits="userSpaceOnUse" x1="706" y1="466.0365" x2="801.6861" y2="466.0365" gradientTransform="matrix(1 0 0 1 0 -180.467)">
			<stop  offset="0" style="stop-color:#965AE6"/>
			<stop  offset="0.5" style="stop-color:#6428B4"/>
			<stop  offset="1" style="stop-color:#3C186C"/>
		</linearGradient>
		<path fill="url(#SVGID_7_)" d="M788.5,253.4c0.6,0.6,1.2,1.3,1.8,2c0.1,0.1,0.2,0.2,0.3,0.4c0.2,0.3,0.5,0.6,0.7,0.8
			c0.2,0.2,0.4,0.4,0.5,0.6c0.2,0.3,0.4,0.5,0.6,0.8c0.2,0.2,0.4,0.5,0.5,0.7c0.2,0.3,0.4,0.5,0.6,0.8c0.2,0.3,0.4,0.5,0.5,0.8
			c0.2,0.3,0.3,0.5,0.5,0.8s0.3,0.5,0.5,0.8s0.3,0.6,0.5,0.8c0.2,0.3,0.3,0.6,0.5,0.9c0.1,0.3,0.3,0.6,0.4,0.8
			c0.2,0.3,0.3,0.6,0.4,0.9c0.1,0.3,0.3,0.6,0.4,0.8c0.1,0.3,0.3,0.6,0.4,1c0.1,0.3,0.2,0.6,0.4,0.8c0.1,0.3,0.3,0.7,0.4,1
			c0.1,0.3,0.2,0.6,0.3,0.8c0.1,0.3,0.2,0.7,0.4,1.1c0.1,0.3,0.2,0.6,0.3,0.8c0.1,0.4,0.2,0.8,0.3,1.1c0.1,0.3,0.2,0.5,0.2,0.8
			c0.1,0.4,0.2,0.9,0.3,1.3c0.1,0.2,0.1,0.4,0.2,0.7c0.1,0.7,0.3,1.3,0.4,2c0.9,5.2,1.3,11.5,0.3,16.8c0,0.2-0.1,0.4-0.1,0.6
			c-0.2,1-0.4,1.9-0.7,2.9c-0.1,0.5-0.3,1-0.4,1.4c-0.1,0.5-0.3,0.9-0.4,1.4c-0.2,0.6-0.4,1.2-0.7,1.7c-0.1,0.3-0.3,0.7-0.4,1
			c-0.3,0.6-0.6,1.2-0.8,1.8c-0.1,0.3-0.3,0.6-0.4,0.8c-0.3,0.6-0.7,1.2-1,1.8c-0.1,0.2-0.3,0.5-0.4,0.7c-0.4,0.6-0.7,1.2-1.1,1.8
			c-0.2,0.2-0.3,0.5-0.5,0.7c-0.4,0.6-0.8,1.1-1.2,1.7c-0.2,0.2-0.3,0.5-0.5,0.7c-0.4,0.5-0.9,1-1.3,1.5c-0.2,0.2-0.4,0.4-0.6,0.6
			l0,0c-0.1,0.1-0.2,0.2-0.2,0.3c-3.2,3.4-6.6,6.5-10.3,9.1c-0.1,0.1-0.2,0.1-0.2,0.2c-1.4,0.9-2.8,1.8-4.2,2.6l0,0
			c-0.8,0.4-1.5,0.8-2.3,1.1l0,0l0,0c-1.3,0.6-2.7,1.2-4.2,1.6c-2.8,0.9-5.8,1.5-8.9,1.9l0,0c-1,0.1-2,0.2-3.1,0.3l0,0l0,0
			c-6.5,0.4-13.1-0.2-18.9-1.9c-1.2-0.3-2.3-0.9-3.5-1.5l0,0c0,0,0,0-0.1,0c-0.7-0.4-1.4-0.7-2-1.1c0,0-0.1,0-0.1-0.1l0,0
			c-1.4-0.8-2.8-1.7-4.2-2.5C714.6,318,706,302,706,286.6c0-6.1,0.8-12.2,2.8-17.9c6.5-18.9,27-31.3,46.6-30.1
			c12,0.7,23,5.5,31.3,13.2l0,0c0.2,0.2,0.3,0.3,0.5,0.5c0.3,0.3,0.5,0.5,0.8,0.8C788.2,253.1,788.3,253.3,788.5,253.4z"/>
		<path fill="#965AE6" d="M717.3,291.8c2.8-19.7,32.2-17,42.1-4.3c5.6,7.1,8.4,18.4,1.6,25.2c-11.7,11.9-27.2,10-37.4-1.9
			c-4.1-4.7-6.8-10.9-6.5-17.2C717.2,293,717.3,292.4,717.3,291.8z"/>
		<path fill="#6428B4" d="M774,312c-1-1.1-0.2-2.9,1.4-2.8c1.6,0.1,2.6,1.9,1.2,3c-0.5,0.4-1.1,0.6-1.7,0.4
			C774.6,312.5,774.3,312.3,774,312z M764.9,323.3c0.2-0.3,0.4-0.5,0.6-0.7c0.3-0.3,0.7-0.5,1-0.7c1.9-1.3,3.9-2.4,5.9-3.4
			c3.6-1.8,2.5,2.6,1.4,4.3c-1.4,2.2-4.4,3.5-6.9,3.5c-0.8,0-1.7-0.2-2.1-0.9C764.4,324.7,764.5,323.9,764.9,323.3z M758.5,296.6
			c6.2-1.5,9.6,7.6,3.3,9.8c-2.5,0.8-5.4,0.3-6.7-2.1c-0.3-0.5-0.4-1.1-0.5-1.7C754.2,299.8,755.7,297.3,758.5,296.6z M762.4,292.8
			c-1.9,0.1-2-2.9-0.1-3C764.2,289.7,764.3,292.7,762.4,292.8z M727.6,315.4c0.3-1.2,1.6-2,2.9-2c1.3-0.1,2.5,0.4,3.6,1
			c1.8,0.9,3.6,2.1,4.7,3.8c0.7,1.2,1,2.1,1.1,2.9c0.1,2.4-2.7,2.9-5.7,1.8C731.5,321.8,726.6,319,727.6,315.4z M727.9,304.5
			c1.9-0.1,2,2.9,0.1,3S726,304.6,727.9,304.5z M720.3,283.2c9.2,2.6-1.5,16.1-6.5,9.1C710.6,287.8,715.2,281.8,720.3,283.2z
			 M730.8,257.4c-0.3,2.5-2.1,4.8-3.8,6.5c-1.1,1.1-2.3,2.1-3.7,2.5c-0.7,0.2-1.4,0.2-2.1-0.1c-0.7-0.4-1.2-1.2-1.3-2
			c-0.4-3.9,4.1-8.1,7.5-9.2c1.4-0.4,2.5-0.2,3,0.6C730.8,256,730.9,256.6,730.8,257.4z M738.7,261.9l-0.3,0.3
			c-1.3,1.4-3.5-0.6-2.2-2l0.3-0.3C737.9,258.5,740,260.5,738.7,261.9z M741.4,277.3c-1.7,2.1-5,3.3-7.6,2.4
			c-2.1-0.7-3.7-3.6-3.1-5.7c0.3-1.4,1.3-2.5,2.4-3.4c2.1-1.7,4.8-1.9,7.2-0.8C743,271,744.3,273.6,741.4,277.3z M739.3,303.4
			c-4.2,0.1-7.8-4.3-7.3-8.4c0.2-1.8,1.1-3.2,2.3-4.1c2.3-1.7,5.9-1.5,8.1,1.3C745.1,295.4,744.5,303.2,739.3,303.4z M751.7,309.6
			c2,2.4,1.5,8.3-2.3,8.4c-3.1,0.1-5.8-3.2-5.4-6.3c0.2-1.4,0.8-2.4,1.7-3.1C747.4,307.4,750.1,307.6,751.7,309.6z M757.5,274.3
			c5,0.4,4.3,8.2,2.1,11.1c-0.8,1-1.8,1.8-3,2.1c-0.6,0.2-1.3,0.2-2,0.1c-1.1-0.1-2.2-0.4-3.2-0.9c-1.2-0.6-2.1-1.6-2.7-2.8
			C746.4,278.6,752.6,273.9,757.5,274.3z M761.8,260.4c3.9,5.4-4.8,9.3-8.5,5.1c-0.9-1-1.4-2.5-1.1-3.8c0-0.1,0-0.2,0.1-0.2
			C753.4,257.1,759.4,257.1,761.8,260.4z M763.4,250.9c-3.3,0.4-6.6-0.7-9.5-2.4c-1.9-1.1-2.5-3.3-0.3-4.3s5.4-0.6,7.7,0
			c1.7,0.4,4.7,1.3,5.2,3.4C766.9,249.5,765.1,250.7,763.4,250.9z M774.5,257.8c0.1,1.9-2.9,2-3,0.1v-0.3c-0.1-1.9,2.9-2,3-0.1
			V257.8z M778.7,269.7c0.1,1.9-1,4.6-3,5.2c-2,0.5-4.4-1.2-5.8-2.4c-1.7-1.4-2.2-3.8-0.7-5.7c1.3-1.7,3.6-2.3,5.6-1.8
			c0.5,0.1,1,0.3,1.4,0.6c0.9,0.5,1.7,1.3,2.2,2.3C778.5,268.4,778.7,269,778.7,269.7z M779.4,295.3c-2.1,3.4-7,5.1-9.8,1.6
			c-1.5-1.9-1.8-4.5-1.5-6.8c0.6-4.2,4.8-6.4,8.9-4.9c0.8,0.3,1.5,0.8,2,1.4c0.7,0.8,1.2,1.8,1.4,2.9
			C780.8,291.4,780.4,293.5,779.4,295.3z M786.6,303.4c0.2-1,0.7-1.8,1.2-2.7c0.6-1.2,1-2.4,1.1-3.7c0.1-0.9,0.1-1.8,0.5-2.5
			c1.9-3.9,5,1.3,4.9,3.5c-0.1,1.9-1.6,5.9-3.9,7.4c-0.8,0.5-1.6,0.7-2.5,0.5C786.9,305.6,786.5,304.4,786.6,303.4z M795,272.7
			c-0.2,0.5-0.6,0.9-1.1,1c-0.2,0-0.5,0-0.7,0c-3.2-0.6-6.5-5.9-7.1-8.8c-0.3-1.1-0.2-2.2,0.4-3.2c0.1-0.2,0.3-0.4,0.5-0.5
			c3.2-1.8,6.4,4.2,7.5,6.5c0.2,0.5,0.5,1,0.6,1.5C795.4,270.4,795.5,271.6,795,272.7z"/>
		<path opacity="0.2" fill="#140036" enable-background="new    " d="M800.8,277.7c-0.1-0.7-0.2-1.3-0.4-2c0-0.2-0.1-0.4-0.2-0.7
			c-0.1-0.4-0.2-0.9-0.3-1.3c-0.1-0.3-0.1-0.5-0.2-0.8c-0.1-0.4-0.2-0.8-0.3-1.1c-0.1-0.3-0.2-0.6-0.3-0.8c-0.1-0.4-0.2-0.7-0.4-1.1
			c-0.1-0.3-0.2-0.6-0.3-0.8c-0.1-0.3-0.3-0.7-0.4-1c-0.1-0.3-0.2-0.6-0.4-0.8c-0.1-0.3-0.3-0.6-0.4-1c-0.1-0.3-0.3-0.6-0.4-0.8
			c-0.1-0.3-0.3-0.6-0.4-0.9c-0.1-0.3-0.3-0.6-0.4-0.8c-0.2-0.3-0.3-0.6-0.5-0.9s-0.3-0.6-0.5-0.8c-0.2-0.3-0.3-0.5-0.5-0.8
			s-0.3-0.6-0.5-0.8c-0.2-0.3-0.3-0.5-0.5-0.8s-0.4-0.5-0.6-0.8c-0.2-0.2-0.4-0.5-0.5-0.7c-0.2-0.3-0.4-0.5-0.6-0.8
			c-0.2-0.2-0.3-0.4-0.5-0.6c-0.2-0.3-0.5-0.6-0.7-0.8c-0.1-0.1-0.2-0.2-0.3-0.4c-0.6-0.7-1.2-1.3-1.8-2c-0.1-0.1-0.3-0.3-0.4-0.4
			c-0.3-0.3-0.5-0.5-0.8-0.8c-0.2-0.2-0.3-0.3-0.5-0.5l0,0c-8.3-7.7-19.4-12.5-31.3-13.2c-19.7-1.2-40.1,11.2-46.6,30.1
			c-2,5.8-2.8,11.8-2.8,17.9c0,15.4,8.6,31.4,22.1,39.2c1.3,0.8,2.7,1.7,4.2,2.5l0,0c0,0,0.1,0,0.1,0.1c0.7,0.4,1.3,0.8,2,1.1
			c0,0,0,0,0.1,0l0,0c1.2,0.6,2.3,1.1,3.5,1.5c5.8,1.7,12.4,2.3,18.9,1.9l0,0l0,0c1-0.1,2-0.2,3.1-0.3l0,0c3.1-0.4,6.1-1,8.9-1.9
			c1.5-0.5,2.9-1,4.2-1.6l0,0l0,0c0.8-0.4,1.6-0.7,2.3-1.1l0,0c1.5-0.8,2.9-1.7,4.2-2.6c0.1-0.1,0.2-0.1,0.2-0.2
			c3.7-2.6,7-5.8,10.3-9.1c0.1-0.1,0.2-0.2,0.2-0.3l0,0c0.2-0.2,0.4-0.4,0.6-0.6c0.5-0.5,0.9-1,1.3-1.5c0.2-0.2,0.4-0.5,0.5-0.7
			c0.4-0.5,0.8-1.1,1.2-1.7c0.2-0.2,0.3-0.5,0.5-0.7c0.4-0.6,0.8-1.2,1.1-1.8c0.1-0.2,0.3-0.5,0.4-0.7c0.3-0.6,0.7-1.2,1-1.8
			c0.1-0.3,0.3-0.6,0.4-0.8c0.3-0.6,0.6-1.2,0.8-1.8c0.1-0.3,0.3-0.7,0.4-1c0.2-0.6,0.5-1.1,0.7-1.7c0.2-0.5,0.3-0.9,0.4-1.4
			c0.2-0.5,0.3-1,0.4-1.4c0.3-1,0.5-1.9,0.7-2.9c0-0.2,0.1-0.4,0.1-0.6C802.1,289.3,801.6,282.9,800.8,277.7z M779.2,299.9
			c2.5,15.2-6,29.5-22.2,30.2c-21.8,1-42.7-15.7-46.8-37.1c-3.5-18.6,3.8-36,24.6-33.3c0.8,0.1,1.6,0.2,2.4,0.4
			C754.5,263.8,776.4,282.7,779.2,299.9z"/>
		<path opacity="0.3" fill="#140036" enable-background="new    " d="M797.6,318.4c-0.1-0.3-0.2-0.6-0.3-0.9
			c-0.2-0.6-0.4-1.3-0.7-1.9c-3.1-8.9-7-17.6-11.5-25.9c-8.3-15.1-19.4-28.8-32.7-39.7c-6.6-5.4-13.8-10.1-21.4-13.9
			c7.8-3.4,16.3-5.1,24.7-4.6c14.5,0.9,28.1,7.2,37.9,17.2c6.8,7,11.8,15.8,14,25.9C811.1,290.5,806.8,306.3,797.6,318.4z"/>
		<path opacity="0.3" fill="#140036" enable-background="new    " d="M807.6,274.6c1.6,7.4,1.6,14.9,0.1,21.9
			c-8.7-14.1-17.1-28-29-40.3c-9.3-9.6-19.8-17-30.4-24.5c2.4-0.2,4.9-0.3,7.3-0.1c14.5,0.9,28.1,7.2,37.9,17.2
			C800.4,255.7,805.4,264.5,807.6,274.6z"/>
	</g>
	<g>
		<path opacity="0.3" fill="#965AE6" enable-background="new    " d="M297.6,62.9c1.1-1.9,2-3.7,2.9-5.7c0.2-0.4,0.4-0.8,0.5-1.2
			c2-4.7,3.4-9.6,4.3-14.6c7.7-45-29.9-97.5-85.4-91.4c-10.8,1.2-20.3,4.5-28.5,9.5c-0.1,0.1-0.2,0.1-0.3,0.2
			c-5.9,3.6-11.1,8.1-15.5,13.2c-0.4,0.4-0.8,0.9-1.2,1.4c-4.9,5.8-8.8,12.4-11.7,19.4c-1.9,4.4-3.3,9-4.4,13.8
			c-5.7,25.4,0.4,53.6,20.3,72.2c20,18.7,50.8,24.9,77.4,15.6c6.2-2.2,11.7-4.8,16.7-7.7c5.2-3.1,9.7-6.5,13.7-10.3
			C290.9,72.8,294.6,68,297.6,62.9z"/>
		
			<linearGradient id="SVGID_8_" gradientUnits="userSpaceOnUse" x1="89.799" y1="668.8148" x2="151.3488" y2="575.152" gradientTransform="matrix(0.8619 0.5071 0.5071 -0.8619 -188.0538 500.4413)">
			<stop  offset="0" style="stop-color:#965AE6"/>
			<stop  offset="0.5" style="stop-color:#6428B4"/>
			<stop  offset="1" style="stop-color:#3C186C"/>
		</linearGradient>
		<path fill="url(#SVGID_8_)" d="M292.9,60.2c1-1.7,1.9-3.5,2.7-5.3c0.2-0.4,0.3-0.7,0.5-1.1c1.9-4.4,3.2-8.9,4-13.6
			c7.2-41.8-27.8-90.6-79.3-84.9c-10,1.1-18.8,4.2-26.4,8.8c-0.1,0.1-0.2,0.1-0.3,0.2c-5.5,3.4-10.3,7.5-14.4,12.2
			c-0.4,0.4-0.7,0.8-1.1,1.3c-4.5,5.4-8.2,11.5-10.9,18c-1.7,4.1-3.1,8.4-4.1,12.8c-5.3,23.6,0.4,49.8,18.9,67.1
			c18.6,17.4,47.2,23.2,71.9,14.5c5.7-2,10.9-4.4,15.5-7.2c4.8-2.9,9-6.1,12.7-9.6C286.7,69.5,290.1,65,292.9,60.2z"/>
		<path opacity="0.3" fill="#6428B4" enable-background="new    " d="M286.2,69.7c-1.2,1.3-2.4,2.7-3.7,3.9
			c-3.6,3.5-7.9,6.7-12.7,9.6c-2,1.2-4.1,2.3-6.4,3.4c-15.3-7.9-30.6-15.7-46.7-21.6c-15.8-5.8-32.4-9.8-49.2-10.3
			c-2.9-6.7-4.8-13.9-5.5-21.2c13.1,3.5,26.2,7,39.3,10.5c17.1,4.6,34.3,9.2,51.2,14.4C263.8,61.9,275,65.8,286.2,69.7z M161.6,24.1
			l34.1,4.6l-4-13.1L162.8,12C162.1,16,161.7,20,161.6,24.1z M194.5,20.8c11.3,9.3,24.1,16.6,37.4,22.6
			c12.8,5.7,26.3,10.2,39.8,13.8c6.9,1.8,13.8,3.1,20.7,3.8c0.1-0.2,0.3-0.5,0.4-0.7c1-1.7,1.9-3.5,2.7-5.3c0.2-0.4,0.3-0.7,0.5-1.1
			c1.3-3.1,2.3-6.3,3.1-9.5c-11.3-2.4-31.9-6.7-34.8-7.6c-18.5-5.5-36.1-13.9-51.7-25.2C199.2,2,189.2-10,178.2-21.8
			c-3.5,4.2-6.5,8.9-8.9,13.8C177.1,2.1,184.6,12.6,194.5,20.8z M291.5-6.7c-13.2,0.8-26.7-1.9-38.8-6.9
			c-15.4-6.5-28.6-16.8-38.2-30c-7.1,1.5-13.6,4-19.4,7.3c24.2,29.9,66.7,47.7,104.6,52.4C298.2,8.2,295.4,0.5,291.5-6.7z"/>
		<path opacity="0.3" fill="#965AE6" enable-background="new    " d="M233.2-44.9c19.8,1.2,36.5,10.6,48.4,24
			c-2.8,1.4-5.6,2.6-8.7,3.3c-10.9,2.6-23-1.4-30.7-9.6C237.5-32.1,234.5-38.3,233.2-44.9z M286,32.9c4.8,1.1,9.9,1.9,14.7,1.6
			c0.7-9.1-0.4-18.4-3.2-27.2c-17.1,1.1-34.8-2.9-49.6-10.4c-11.7-5.9-22.2-14.1-31.3-23.5c-4.1-4.3-8.4-9.1-11.5-14.4
			c-3.8,1.4-7.4,3.1-10.8,5.2c-0.1,0.1-0.2,0.1-0.3,0.2c-2,1.2-3.9,2.5-5.7,3.9c7,15,18.6,28.1,32.2,37.8
			C239.8,20,262.8,27.8,286,32.9z M177.6,66c-0.9,0.2-2,0.5-3.2,0.8c2.3,3.2,5,6.2,7.9,9c16.7,15.6,41.5,21.9,64.3,16.7
			C233.1,69.4,203.2,60.1,177.6,66z M296.1,53.9c0.1-0.2,0.1-0.4,0.2-0.6c-4.5-0.8-9-1.8-13.5-3.1c-25.4-7.7-52.2-17.4-74.3-32.5
			c-9.3-6.4-18.1-13.9-25.9-22c-3.3-3.4-6.5-7-9.3-10.8c-2.2,3.5-4.1,7.1-5.7,10.9c-0.7,1.7-1.3,3.3-1.9,5.1
			c6.5,7.4,14.1,13.9,22,19.5c-8.6,0.7-17.3,0.5-25.9,0.3c-0.5,8.4,0.3,16.9,2.5,24.9c23.8,3.5,47.2,10.4,69.7,18.8
			c12.3,4.6,24.2,8,36.6,11.8c2.1,0.6,4.1,1.4,6.2,2.2c2-1.6,3.9-3.2,5.7-4.9c4.3-4.1,7.7-8.6,10.4-13.3c1-1.7,1.9-3.5,2.7-5.3
			C295.7,54.6,295.9,54.3,296.1,53.9z"/>
		<path opacity="0.3" fill="#140036" enable-background="new    " d="M287.5,57.7c-14.5-1-29.6-6.1-42.9-10
			c-19.6-5.8-38.7-13.2-57.3-21.4c-11.2-4.9-20.4-10.3-29.4-16.5c-4.8,24.7,1.6,51.8,20.8,69.8c20,18.7,50.8,24.9,77.4,15.6
			c6.2-2.2,11.7-4.8,16.7-7.7c5.2-3.1,9.7-6.5,13.7-10.3c4.6-4.4,8.3-9.2,11.2-14.4c1-1.8,2-3.7,2.8-5.5c-0.4,0.1-0.9,0.1-1.3,0.2
			C295.3,58,291.4,58,287.5,57.7z"/>
		<path opacity="0.1" fill="#140036" enable-background="new    " d="M295.6,55c0.2-0.4,0.3-0.7,0.5-1.1c1.9-4.4,3.2-8.9,4-13.6
			c7.2-41.8-27.8-90.6-79.3-84.9c-10,1.1-18.8,4.2-26.4,8.8c-0.1,0.1-0.2,0.1-0.3,0.2c-5.5,3.4-10.3,7.5-14.4,12.2
			c-0.4,0.4-0.7,0.8-1.1,1.3c-4.5,5.4-8.2,11.5-10.9,18c-1.7,4.1-3.1,8.4-4.1,12.8c-5.3,23.6,0.4,49.8,18.9,67.1
			c18.6,17.4,47.2,23.2,71.9,14.5c5.7-2,10.9-4.4,15.5-7.2c4.8-2.9,9-6.1,12.7-9.6c4.3-4.1,7.7-8.6,10.4-13.3
			C293.9,58.5,294.8,56.8,295.6,55z M258.7-12.6c1.4,33.1-62.7,35.6-65.4,3.8C190.3-44,257-50.7,258.7-12.6
			C258.7-12.7,258.7-12.7,258.7-12.6z"/>
		<path opacity="0.1" fill="#140036" enable-background="new    " d="M295.6,55c0.2-0.4,0.3-0.7,0.5-1.1c1.9-4.4,3.2-8.9,4-13.6
			c7.2-41.8-27.8-90.6-79.3-84.9c-10,1.1-18.8,4.2-26.4,8.8c-0.1,0.1-0.2,0.1-0.3,0.2c-5.5,3.4-10.3,7.5-14.4,12.2
			c-0.4,0.4-0.7,0.8-1.1,1.3c-4.5,5.4-8.2,11.5-10.9,18c-1.7,4.1-3.1,8.4-4.1,12.8c-5.3,23.6,0.4,49.8,18.9,67.1
			c18.6,17.4,47.2,23.2,71.9,14.5c5.7-2,10.9-4.4,15.5-7.2c4.8-2.9,9-6.1,12.7-9.6c4.3-4.1,7.7-8.6,10.4-13.3
			C293.9,58.5,294.8,56.8,295.6,55z M284.4,6.2c-1.6,9.8-8.6,18.4-19.9,22.7c-23.7,9.1-57.8-2.2-74.2-20.8c-5-5.7-8.2-13.2-7.6-20.7
			c1-13.3,15.6-23,27.3-26.9c25-8.2,53,1.2,68.4,22.3C283.7-9.6,285.6-1.3,284.4,6.2z"/>
		<path opacity="0.5" fill="#140036" enable-background="new    " d="M233,39.3c-13.5-4.4-27-9.2-40.3-14.4
			c-12.4-4.8-23.8-10.3-34.4-17.8c0,0.1,0,0.1-0.1,0.2c-5.7,25.4,0.4,53.6,20.3,72.2c20,18.7,50.8,24.9,77.4,15.6
			c6.2-2.2,11.7-4.8,16.7-7.7c5.2-3.1,9.7-6.5,13.7-10.3c4.6-4.4,8.3-9.2,11.2-14.4c1.1-1.9,2-3.7,2.9-5.7c0.2-0.4,0.4-0.8,0.5-1.2
			c0.4-1,0.8-2,1.2-3.1C292,52.8,282,51.2,271.9,49C258.9,46.5,245.9,43.4,233,39.3z"/>
		<defs>
			<filter id="Adobe_OpacityMaskFilter" filterUnits="userSpaceOnUse" x="84.2" y="-29" width="294" height="107.6">
				<feColorMatrix  type="matrix" values="1 0 0 0 0  0 1 0 0 0  0 0 1 0 0  0 0 0 1 0"/>
			</filter>
		</defs>
		<mask maskUnits="userSpaceOnUse" x="84.2" y="-29" width="294" height="107.6" id="SVGID_1_">
			<g filter="url(#Adobe_OpacityMaskFilter)">
				
					<linearGradient id="SVGID_9_" gradientUnits="userSpaceOnUse" x1="130.1798" y1="601.4576" x2="121.2587" y2="646.9548" gradientTransform="matrix(0.8619 0.5071 0.5071 -0.8619 -188.0538 500.4413)">
					<stop  offset="0" style="stop-color:#FFFFFF"/>
					<stop  offset="1" style="stop-color:#231F20"/>
				</linearGradient>
				<polygon fill="url(#SVGID_9_)" points="411.4,40.3 81.2,-68.6 52.3,20 392.4,121.2 				"/>
				<path d="M300,40.3c7.2-41.8-27.8-90.6-79.3-84.9c-10,1.1-18.8,4.2-26.4,8.8c-0.1,0.1-0.2,0.1-0.3,0.2
					c-5.5,3.4-10.3,7.5-14.4,12.2c-0.4,0.4-0.7,0.8-1.1,1.3c-4.5,5.4-8.2,11.5-10.9,18c-0.6,1.4-1.1,2.8-1.6,4.2
					c41.3,21.9,87.2,34.5,132.7,46.3C299.2,44.4,299.7,42.4,300,40.3z"/>
			</g>
		</mask>
		<g mask="url(#SVGID_1_)">
			<g>
				<g>
					<path fill="#965AE6" d="M237,5.4c-66-22.4-111.4-29-125.1-22.5c7.5,13.4,46.8,39.7,112.8,62.1s112.5,24.3,126.2,19.1
						C339.9,49.5,303,27.8,237,5.4z M228.3,33.5C182.4,17.9,154,3.1,148.4-5c9.2-3.3,40.4,2.3,86.3,17.9s71.9,29.6,79.8,38.5
						C305.4,53.9,274.2,49.1,228.3,33.5z"/>
					<path opacity="0.5" fill="#965AE6" enable-background="new    " d="M238.6,0.5C157.4-27,101.2-34.1,84.2-25.6
						C91-7.7,140.7,26.4,221.9,54s140.7,28.2,156.3,20.1C368.1,56.8,319.8,28.1,238.6,0.5z M97-21.3c15.4-7.3,66.4,0.1,140.5,25.2
						c74.1,25.2,115.6,49.5,127.8,65.9c-15.4,5.9-67.8,4.2-141.9-21C149.4,23.7,105.5-6.2,97-21.3z"/>
				</g>
			</g>
			<path fill="#965AE6" d="M235.6,10C185.1-7.2,150-11.7,139.9-7.9c4.7,9.6,36.2,29.1,86.8,46.3s87,19.6,96.3,15.9
				C316.4,44.9,286.2,27.1,235.6,10z M228.3,33.5C182.4,17.9,154,3.1,148.4-5c9.2-3.3,40.4,2.3,86.3,17.9s71.9,29.6,79.8,38.5
				C305.4,53.9,274.2,49.1,228.3,33.5z"/>
		</g>
	</g>
	<g>
		<path opacity="0.2" fill="#965AE6" enable-background="new    " d="M913,198.7c1.6,4.2,3.8,8.3,6.6,12.4c2.7,3.9,5.9,7.8,9.7,11.5
			c16.4,16.1,41.1,22.1,62,15c20.8-7.1,34.7-26,39-47c0.8-3.9,1.2-7.8,1.4-11.8c0.2-6.3-0.5-12.5-2.1-18.5c-0.1-0.5-0.3-1-0.4-1.4
			c-1.6-5.3-3.9-10.5-7-15.2c-0.1-0.1-0.1-0.2-0.2-0.3c-4.4-6.5-10.2-12.3-17.7-16.9c-38.7-23.6-83.8,2.6-93.2,38.9
			c-1,4-1.6,8.2-1.7,12.4c0,0.4,0,0.7,0,1.1c0,1.7,0.1,3.5,0.2,5.2C910,188.9,911.1,193.8,913,198.7z"/>
		
			<linearGradient id="SVGID_10_" gradientUnits="userSpaceOnUse" x1="287.0928" y1="933.9719" x2="336.3568" y2="861.249" gradientTransform="matrix(-0.9863 0.1647 -0.1647 -0.9863 1422.1715 1021.0722)">
			<stop  offset="0" style="stop-color:#965AE6"/>
			<stop  offset="0.5" style="stop-color:#6428B4"/>
			<stop  offset="1" style="stop-color:#3C186C"/>
		</linearGradient>
		<path fill="url(#SVGID_10_)" d="M917,197.3c1.5,3.9,3.5,7.7,6.1,11.5c2.5,3.6,5.5,7.2,9,10.7c15.3,15,38.3,20.5,57.7,13.9
			s32.3-24.2,36.3-43.7c0.7-3.6,1.2-7.3,1.3-11c0.2-5.8-0.5-11.6-2-17.3c-0.1-0.4-0.2-0.9-0.4-1.3c-1.5-5-3.6-9.7-6.5-14.1
			c-0.1-0.1-0.1-0.2-0.2-0.2c-4.1-6.1-9.5-11.5-16.5-15.7c-36-22-78,2.4-86.7,36.2c-1,3.7-1.5,7.6-1.6,11.5c0,0.3,0,0.7,0,1
			c0,1.6,0.1,3.2,0.2,4.9C914.2,188.2,915.2,192.8,917,197.3z"/>
		<path opacity="0.7" fill="#6428B4" enable-background="new    " d="M924.9,161.2c0.2,1.2-0.6,2.4-1.8,2.6
			c-1.2,0.1-2.4-0.6-2.6-1.8v-0.2c-0.2-1.2,0.6-2.4,1.8-2.6c1.2-0.1,2.4,0.6,2.6,1.8V161.2z M930.8,151.3c-2.9,0.5-3.6-4-0.7-4.4
			C932.9,146.4,933.7,150.9,930.8,151.3z M951.5,149.5l0.3-0.1c1.2-0.2,2.4,0.6,2.6,1.8c0.1,1.2-0.6,2.4-1.8,2.6l-0.3,0.1
			c-1.2,0.2-2.4-0.6-2.6-1.8C949.5,150.8,950.2,149.7,951.5,149.5z M967.9,125c3.6,3-4.3,4.5-6.5,3.1c-2-1.2,1.8-3.4,4.6-3.5
			C966.8,124.5,967.5,124.6,967.9,125z M968.4,144c-6.3-3.4,0-12.4,5.3-7.5c0.3,0.3,0.6,0.6,0.8,0.9
			C976.9,141.1,972.7,146.3,968.4,144z M981.9,129.2c0.1,1.2-0.6,2.4-1.8,2.6h-0.2c-1.2,0.2-2.4-0.6-2.6-1.8
			c-0.1-1.2,0.6-2.4,1.8-2.6h0.2C980.5,127.1,981.8,128,981.9,129.2z M986.9,151.2c-2.3,0.8-5.4-0.7-5.8-3.2c0-0.3,0-0.5,0-0.8
			c0.1-2.4,3.1-3.6,5.1-2.9c1.3,0.4,2.2,1.5,2.6,2.6C989.5,148.7,989,150.5,986.9,151.2z M1001.5,132.4c1.4,1.1,2.3,3.7-0.5,3
			c-2.1-0.5-4.4-1.8-5.7-3.5c-0.6-0.9-0.8-2.2,0.7-2.2c0.8,0,1.6,0.3,2.3,0.7c0.1,0,0.1,0.1,0.2,0.1
			C999.6,131,1000.6,131.6,1001.5,132.4z M1003.2,158.2l0.3-0.1c1.2-0.2,2.4,0.6,2.6,1.8c0.1,1.2-0.6,2.4-1.8,2.6l-0.3,0.1
			c-1.2,0.2-2.4-0.6-2.6-1.8C1001.2,159.6,1002,158.4,1003.2,158.2z M1020.9,179.3c0.5-2.2,3.1-3.6,4-0.8c0.4,1.2,0.5,2.6,0.3,3.9
			c-0.1,0.7-0.4,1.5-0.9,2s-1.5,0.6-2,0.1c-0.4-0.3-0.7-0.8-0.9-1.2C1020.9,182,1020.6,180.5,1020.9,179.3z M1017.4,152.3
			c2.9-0.5,3.6,4,0.7,4.4C1015.2,157.2,1014.5,152.8,1017.4,152.3z M1007.6,147.2c-1.1-5.6,7.7-4.4,7.1,0.4c0,0.1,0,0.2,0,0.2
			C1013.8,151.8,1008.3,150.8,1007.6,147.2z M1019.1,190.5c2.9-0.5,3.6,4,0.7,4.4C1017,195.4,1016.3,191,1019.1,190.5z
			 M1012.6,174.1c-1.8-1-3.2-4.7-0.6-5.7c2.2-0.8,4.7-1.2,5.9,1.3c1.1,2.3-0.5,4.2-2.5,4.7C1014.5,174.6,1013.5,174.6,1012.6,174.1z
			 M1014.5,188.1c-0.9,2.4-3.5,3.5-5.9,3.4c-3.9-0.2-4.6-3.8-3.2-6.8c0.7-1.4,1.9-2.7,3.5-3.1c3.1-0.8,5.8,1.7,5.9,4.6
			C1014.8,186.9,1014.7,187.5,1014.5,188.1z M1009.3,202.7c2.1,0.2,4.2,1.8,4.8,3.8c1.1,3.8-3.2,7.6-6.9,6.1
			C1001.9,210.5,1003.2,202.2,1009.3,202.7z M991.3,140.9c-0.2-1.2,0.6-2.4,1.8-2.6c1.2-0.1,2.4,0.6,2.6,1.8l0.1,0.3
			c0.2,1.2-0.6,2.4-1.8,2.6c-1.2,0.1-2.4-0.6-2.6-1.8L991.3,140.9z M989.6,175.7c-0.1-1.2,0.6-2.4,1.8-2.6c1-0.2,1.9,0.2,2.5,1
			c0.6,0.9,0.4,2-0.2,2.8c-0.7,1-2.2,1.3-3.1,0.5c-0.5-0.4-0.8-0.9-0.9-1.5C989.7,175.8,989.7,175.7,989.6,175.7z M986.2,161.5
			c-2.8,0.5-3.6-4-0.7-4.4C988.3,156.5,989.1,161,986.2,161.5z M987.7,198.5c-0.2-1.2,0.6-2.4,1.8-2.6c1.2-0.1,2.4,0.6,2.6,1.8
			l0.1,0.3c0.2,1.2-0.6,2.4-1.8,2.6c-1.2,0.1-2.4-0.6-2.6-1.8L987.7,198.5z M982.7,187.1c-3.9,0.1-6.2-5.1-2.9-7.6
			c0.4-0.3,0.9-0.5,1.4-0.7c1.8-0.4,3.8,0.4,4.8,1.9c1.4,2.3,0.6,5.1-1.7,6C983.8,186.9,983.3,187.1,982.7,187.1z M981.7,203
			c5.2,1.5,3.6,8.8-1.6,8.7C974,211.6,975.5,201.2,981.7,203z M971.9,186.7c2.9-0.5,3.6,4,0.7,4.4
			C969.7,191.6,969,187.1,971.9,186.7z M973.6,165.3c2.8-0.5,3.6,4,0.7,4.4C971.5,170.2,970.8,165.8,973.6,165.3z M961.6,158.8
			c0.3-1.6,1.5-3.2,3.1-3.8c2.3-0.9,5.1,0.8,5.5,3.2c0.5,3.3-2.3,4.8-5.1,4.7C962.9,162.7,961.2,161,961.6,158.8z M956,140
			c-0.1-1.2,0.6-2.4,1.8-2.6c1.5-0.2,2.7,0.6,3,2.1c0.1,0.8-0.2,1.7-0.9,2.2s-1.8,0.4-2.6,0c-0.1,0-0.1-0.1-0.2-0.1
			C956.5,141.3,956.1,140.7,956,140z M949.4,134.8c-2.9,0.5-3.6-4-0.7-4.4C951.5,129.9,952.2,134.3,949.4,134.8z M959.2,208.2
			c4.5-2.1,7.3,6.6,2.1,7.7c-0.8,0.2-1.8,0.2-2.6-0.2C955.4,214.4,956.4,209.5,959.2,208.2z M954.6,201.2c-0.1-1.2,0.6-2.4,1.8-2.6
			h0.2c1.2-0.2,2.4,0.6,2.6,1.8c0.1,1.2-0.6,2.4-1.8,2.6h-0.2C956,203.2,954.7,202.4,954.6,201.2z M958.2,179.2
			c4.8,5.5-3.8,10-7.6,5C946.9,179.5,954.6,175.1,958.2,179.2z M946.2,176.1c2.9-0.5,3.6,4,0.7,4.4
			C944.1,181,943.4,176.6,946.2,176.1z M941.6,161.2c2.5-5.4,11.2-1.9,7.7,3.7c-1.2,1.8-4.1,3-6,1.6
			C941.7,165.3,940.8,163,941.6,161.2z M941.4,142.7c1.1,0.2,2.3,0.8,2.9,1.8c0.5,0.8,0.6,1.8,0.4,2.7c-0.2,1.2-0.8,2.3-1.9,3
			c-1.2,0.8-2.7,0.6-3.8-0.3C935.9,147.4,936.7,141.8,941.4,142.7z M937.4,163.8c-2.8,0.5-3.6-4-0.7-4.4
			C939.5,158.9,940.3,163.3,937.4,163.8z M939.7,190.7c2.9-0.5,3.6,4,0.7,4.4C937.6,195.7,936.8,191.2,939.7,190.7z M938.2,206.5
			c2.9-0.5,3.6,4,0.7,4.4C936.1,211.4,935.3,206.9,938.2,206.5z M933.8,187.8c5.2,4-1.4,10.9-6.1,6.1
			C924.3,190.3,930,184.9,933.8,187.8z M921.5,173c2.9-0.5,3.6,4,0.7,4.4C919.4,177.9,918.6,173.5,921.5,173z"/>
		<path opacity="0.1" fill="#140036" enable-background="new    " d="M917,197.3c1.5,3.9,3.5,7.7,6.1,11.5c2.5,3.6,5.5,7.2,9,10.7
			c15.3,15,38.3,20.5,57.7,13.9s32.3-24.2,36.3-43.7c0.7-3.6,1.2-7.3,1.3-11c0.2-5.8-0.5-11.6-2-17.3c-0.1-0.4-0.2-0.9-0.4-1.3
			c-1.5-5-3.6-9.7-6.5-14.1c-0.1-0.1-0.1-0.2-0.2-0.2c-4.1-6.1-9.5-11.5-16.5-15.7c-36-22-78,2.4-86.7,36.2c-1,3.7-1.5,7.6-1.6,11.5
			c0,0.3,0,0.7,0,1c0,1.6,0.1,3.2,0.2,4.9C914.2,188.2,915.2,192.8,917,197.3z M952.1,149.1c0.2-13.4,14.8-20.2,26.5-19.1
			c16.9,1.5,43.2,21.5,26.7,39.6c-7.3,8-20.9,8.4-32.5,3.9C961.4,169.1,951.9,160,952.1,149.1z"/>
		<path opacity="0.1" fill="#140036" enable-background="new    " d="M917,197.3c1.5,3.9,3.5,7.7,6.1,11.5c2.5,3.6,5.5,7.2,9,10.7
			c15.3,15,38.3,20.5,57.7,13.9s32.3-24.2,36.3-43.7c0.7-3.6,1.2-7.3,1.3-11c0.2-5.8-0.5-11.6-2-17.3c-0.1-0.4-0.2-0.9-0.4-1.3
			c-1.5-5-3.6-9.7-6.5-14.1c-0.1-0.1-0.1-0.2-0.2-0.2c-4.1-6.1-9.5-11.5-16.5-15.7c-36-22-78,2.4-86.7,36.2c-1,3.7-1.5,7.6-1.6,11.5
			c0,0.3,0,0.7,0,1c0,1.6,0.1,3.2,0.2,4.9C914.2,188.2,915.2,192.8,917,197.3z M964.9,191.1c-18.6-5-38.5-19.6-31.9-41.3
			c4.7-15.7,22.8-23.6,38-24c24.1-0.7,57.1,20.7,49,48.2c-5.7,19.3-34.3,21.4-51.7,17.9C967.1,191.6,966,191.4,964.9,191.1z"/>
		<path opacity="0.2" fill="#140036" enable-background="new    " d="M947.4,196.2c24.2,9.1,52.1,13.4,78.1,9.2
			c-6.7,14.7-18.4,26.9-34.2,32.2c-20.9,7.1-45.6,1.1-62-15c-3.8-3.7-7-7.6-9.7-11.5c-2.8-4.1-5-8.2-6.6-12.4
			c-1.9-4.9-3-9.8-3.5-14.6c-0.2-1.7-0.2-3.5-0.2-5.2c0-0.4,0-0.7,0-1.1c0-1.5,0.1-3,0.3-4.5C920.7,183.3,934.1,191.1,947.4,196.2z"
			/>
		<path opacity="0.3" fill="#140036" enable-background="new    " d="M941.7,213c15.5,8.2,32.5,14.2,49.9,16.4c4.5,0.6,9,0.9,13.5,1
			c-4.2,2.9-8.8,5.3-13.8,7c-20.9,7.1-45.6,1.1-62-15c-3.8-3.7-7-7.6-9.7-11.5c-2.8-4.1-5-8.2-6.6-12.4c-1-2.6-1.8-5.3-2.4-7.9
			C919.5,199.5,930,206.9,941.7,213z"/>
		<defs>
			<filter id="Adobe_OpacityMaskFilter_1_" filterUnits="userSpaceOnUse" x="868.7" y="149" width="200" height="65.1">
				<feColorMatrix  type="matrix" values="1 0 0 0 0  0 1 0 0 0  0 0 1 0 0  0 0 0 1 0"/>
			</filter>
		</defs>
		<mask maskUnits="userSpaceOnUse" x="868.7" y="149" width="200" height="65.1" id="SVGID_2_">
			<g filter="url(#Adobe_OpacityMaskFilter_1_)">
				
					<linearGradient id="SVGID_11_" gradientUnits="userSpaceOnUse" x1="301.3318" y1="873.0411" x2="309.6731" y2="922.0457" gradientTransform="matrix(-0.9863 0.1647 -0.1647 -0.9863 1422.1715 1021.0722)">
					<stop  offset="0" style="stop-color:#FFFFFF"/>
					<stop  offset="1" style="stop-color:#000000"/>
				</linearGradient>
				<polygon fill="url(#SVGID_11_)" points="1061.2,120.1 1083,174.6 881.9,248.8 860.6,190.6 				"/>
				<path d="M918.4,200.6c-0.5-1.1-1-2.2-1.4-3.2c-1.8-4.5-2.8-9.1-3.2-13.6c-0.2-1.6-0.2-3.2-0.2-4.9c0-0.3,0-0.7,0-1
					c0.1-3.9,0.6-7.8,1.6-11.5c8.7-33.8,50.7-58.2,86.7-36.2c7,4.3,12.5,9.7,16.5,15.7c0.1,0.1,0.1,0.2,0.2,0.2
					c2.9,4.4,5.1,9.2,6.5,14.1c0.1,0.4,0.2,0.9,0.4,1.3c0.4,1.6,0.8,3.2,1.1,4.9c-3.5,1.7-7.2,3.2-10.9,4.6
					C982.5,183.6,951.4,195.3,918.4,200.6z"/>
			</g>
		</mask>
		<g mask="url(#SVGID_2_)">
			<g opacity="0.5">
				<g>
					<path fill="#965AE6" d="M868.7,208.4c11.6,6.8,50.6,10,105.8-5.1c55.2-15.1,88-37,94.2-49.5c-11.6-8-49.7-6.5-104.9,8.6
						C908.6,177.5,877.8,195.1,868.7,208.4z M899.1,199.7c6.6-8,28.3-19.2,66.7-29.6c38.4-10.5,64.6-12.6,72.3-8.3
						c-4.6,7.5-28.3,19.1-66.7,29.6C933,201.9,906.8,203.3,899.1,199.7z"/>
				</g>
			</g>
			<path opacity="0.5" fill="#965AE6" enable-background="new    " d="M892,201.7c7.8,4.7,38.4,6.4,80.8-5.2
				c42.3-11.6,68.6-27.6,72.5-36.6c-8.5-5-37.9-4.3-80.2,7.2C922.7,178.6,897.5,193,892,201.7z M899.1,199.7
				c6.6-8,28.3-19.2,66.7-29.6c38.4-10.5,64.6-12.6,72.3-8.3c-4.6,7.5-28.3,19.1-66.7,29.6C933,201.9,906.8,203.3,899.1,199.7z"/>
		</g>
	</g>
</g>
<g id="MOON">
	<g>
		<path opacity="0.5" fill="#6428B4" enable-background="new    " d="M1200,421.5c-41,2.8-82,6.6-122.8,11.5
			c-312.5,37-616.1,112.7-926.4,159.8c-50,7.6-100.3,15-150.9,20.4V800h1200V421.5H1200z"/>
		<path opacity="0.5" fill="#6428B4" enable-background="new    " d="M1200,571.6c-61.4,9.6-123.2,12.9-184.5,11.2
			c-282.2-7.6-556.8-131.1-839-137.3c-59.3-1.3-118.3,4.7-176.5,17.6V800h1200V571.6z"/>
	</g>
	<path fill="#2D1251" d="M904.3,582.5l-14.4-6.8l11.3-6.8l0.9-5.2c-2.4-1.4-4.8-2.7-7.2-4.3c2.7-0.3,5.5-1.3,8.3-2l2.5-14.9
		l-3.5-1.4l12.2-32.2l-2.1,0.2c0,0-7.6,19.9-11.9,31.3l-8.1-3.3l1.5-6.8l-13.6-5l-2.8,4.9l-1.7-0.3l6.6-17.5l-1.5,0.1
		c0,0-3.5,9.2-6.5,17.1l-3.5-0.6l3.7-9.7l-1.5,0.1c0,0-1.6,4.2-3.5,9.3l-5.4-1l-7.1,13.2c1.9,2.1,3.9,4.2,5.9,6
		c-3.1,0.3-6.2,0.6-9.4,0.6L851,552l4.4,10.4l1.9,0.9l-18.7-5.4L820,581c0.9,0.3,1.7,0.6,2.6,0.9l5.9-6.5l19.1,7.3l-3.1,6.4
		c0.8,0.3,1.6,0.5,2.4,0.8l3.4-6.2l26.8,9.5l-1.3,6.3c0.8,0.3,1.6,0.5,2.4,0.8l1.5-6.2l20.3,6.5l0.2,7.1c0.9,0.3,1.7,0.6,2.6,0.9
		L904.3,582.5z M830.1,573.8L840,563l7.3,16.8L830.1,573.8z M851.1,575.7l-1.6,3.3l-6.2-15.3l11.9,3.5c-2.7,3.7-5.7,7.8-5.7,7.8
		L851.1,575.7z M851.6,581.2l2.4-4.4l24.6,9.2l-0.9,4.2L851.6,581.2z M898.3,583.4l-12.6,5.2l0.7-10.3L898.3,583.4z M880.6,590.7
		l0.9-3.6l4.1,1.5L880.6,590.7z M883.1,592.1l16.7-6.5l0.3,12.4L883.1,592.1z"/>
	<g>
		<path fill="#3C186C" d="M1202.1,800C1048.2,645.6,835.2,550,600,550S151.8,645.6-2.1,800H1202.1z"/>
	</g>
	<g>
		<path opacity="0.5" fill="#150036" enable-background="new    " d="M530.9,657.6c46.7,0.2,93.4,0.5,140.1,0.7
			c-2.1,1.5-26.8,18.6-70.8,18.3C556.7,676.3,533,659.2,530.9,657.6z"/>
		<path fill="#231F20" d="M622.5,672.8c0.8,0.6,1.7,1.3,2.5,1.9c-0.2,1.3-0.5,2.6-0.7,3.9c-1.5,0-3,0-4.5,0
			c-0.4-1.2-0.9-2.4-1.3-3.6C619.8,674.3,621.1,673.6,622.5,672.8z"/>
		<path fill="#231F20" d="M656,669.5c0.7,0.6,1.4,1.2,2.1,1.8c-0.3,0.8-0.6,1.6-0.8,2.4c-1.1,0-2.1,0-3.2,0
			c-0.3-1.4-0.6-2.8-0.8-4.2C654.1,669.5,655,669.5,656,669.5z"/>
		<path fill="#231F20" d="M541.6,653.2c0.7,0.6,1.4,1.2,2.1,1.8c-0.3,0.8-0.6,1.6-0.8,2.4c-1.1,0-2.1,0-3.2,0
			c-0.3-1.4-0.6-2.8-0.8-4.2C539.7,653.3,540.6,653.3,541.6,653.2z"/>
		<path fill="#231F20" d="M523.8,669.9c0.7,0.6,1.4,1.2,2.1,1.8c-0.3,0.8-0.6,1.6-0.8,2.4c-1.1,0-2.1,0-3.2,0
			c-0.3-1.4-0.6-2.8-0.8-4.2C521.9,669.9,522.8,669.9,523.8,669.9z"/>
		<path fill="#231F20" d="M611.9,697.1c0.7,0.6,1.4,1.2,2.1,1.8c-0.3,0.8-0.6,1.6-0.8,2.4c-1.1,0-2.1,0-3.2,0
			c-0.3-1.4-0.6-2.8-0.8-4.2C610,697.1,611,697.1,611.9,697.1z"/>
		<path fill="#231F20" d="M666.2,655.9c0.7,0.6,1.4,1.2,2.1,1.8c-0.3,0.8-0.6,1.6-0.8,2.4c-1.1,0-2.1,0-3.2,0
			c-0.3-1.4-0.6-2.8-0.8-4.2C664.4,655.9,665.3,655.9,666.2,655.9z"/>
	</g>
	
		<linearGradient id="SVGID_12_" gradientUnits="userSpaceOnUse" x1="600" y1="226.1849" x2="600" y2="9.094947e-13" gradientTransform="matrix(1 0 0 -1 0 800)">
		<stop  offset="0" style="stop-color:#6428B4"/>
		<stop  offset="0.6" style="stop-color:#3C186C"/>
	</linearGradient>
	<path opacity="0.5" fill="url(#SVGID_12_)" enable-background="new    " d="M488.3,632.5C309,651.6,163.1,715.7,100,800h1000
		c-58-77.6-186.3-138.1-346.1-162.1l0,0c-0.1,0-0.1,0-0.2,0c-3-0.4-6-0.9-8.9-1.3c-58.3-8.6-122.6-20.5-168.5-28.1
		c38.5-12.5,78.1-21.5,118.2-27.1c-82.4-11.7-163.3-8.7-245.1,1.1c22.4,8.4,47,14.1,69.4,14.1c-13.8,0.8-27.3,5.2-38.9,12.7
		c39.3,6.8,78.7,12.6,118.3,17.4c-28.9,0-57.3,1.2-84.9,3.5C504.9,630.8,496.6,631.5,488.3,632.5z"/>
</g>
<g id="PIMCONAUT_1_">
	<g>
		<path fill="#787382" d="M592.2,505.8c-12,0.9-23.9,2.9-35.5,6c-0.8,0.2-2.6,0.3-3.2,0.9c-1,0.9-0.5,3.2-0.4,4.7
			c0.1,3.6,0.2,7.1,0.2,10.7c0.2,6.9,0.3,13.8,0.5,20.7c0.3,14,0.6,28.1,0.9,42.1c0.1,3.3,0.1,6.6,0.2,10c0,2.2,0.3,8.7,1.6,10.2
			c0.8,0.8,2.1,1.1,3.2,1.5c1.9,0.7,3.9,1.3,5.8,1.8c21.7,6.1,46.4,5.7,66.9-3.9c2.5-1.2,6.8-4.4,8.5-6.7c1.3-1.7,0.4-7.1,0.4-9.4
			c0.1-3.6,0.1-7.2,0.2-10.8c0.3-14.1,0.5-28.2,0.8-42.3c0.1-7.7,0.3-15.4,0.4-23.1c0-2,0.1-4.1,0.1-6.1c0-0.7,0.2-1.6,0-2.3
			c-0.3-1.7,0.3-1.2-1.5-1.8c-2.4-0.9-5.5-0.9-8-1.2C619.7,505.1,605.9,504.8,592.2,505.8"/>
		<path fill="#C0C9D2" d="M636.1,603.1c-0.8-8.5,0.2-11.7-3.5-12.2c-10.1-1.2-20.9,7.9-20.3,17.4c0.7,10.5,1.7,22.6,2.5,33.2
			c6.7,0.3,17.4,5.8,18.4-0.8C635.8,623.2,637,613.1,636.1,603.1"/>
		<path fill="#F03C28" d="M615.1,659.8h21.5c1.3,0,1.8-1.6,0.8-2.4c-2.3-1.7-4.6-3.4-6.8-5.1c1.4-5.1,2.2-9.1,2.9-13.4l-18.7,1.9
			c0,1.5,0.1,3,0.1,4.5C614.9,650,615,655.2,615.1,659.8"/>
		<path fill="#F03C28" d="M636.1,603.1c-0.8-8.5,0.2-11.7-3.5-12.2c-5.8-0.7-11.9,2-15.8,6.3l-2.8,3.9c-1.2,2.3-1.8,4.8-1.7,7.3
			c0.2,4,0.6,8.3,0.9,12.6c4.9-1,14.3-3.3,23.2-7.4C636.4,609.9,636.4,606.5,636.1,603.1"/>
		<g opacity="0.15">
			<g>
				<g>
					<defs>
						<rect id="SVGID_13_" x="612.2" y="602.6" width="12.3" height="57.3"/>
					</defs>
					<clipPath id="SVGID_14_">
						<use xlink:href="#SVGID_13_"  overflow="visible"/>
					</clipPath>
					<path clip-path="url(#SVGID_14_)" fill="#150036" d="M624.5,602.6l-12.3,5.8c0.8,10.5,1.6,21.1,2.4,31.6c0,1.8,0.1,3.6,0.1,5.4
						c0.1,4.7,0.2,9.7,0.3,14.4c2.1,0,4.1,0,6.2,0c0.4-6.4,0.9-13,1.4-19.5C623.7,627.8,624.6,615.1,624.5,602.6"/>
				</g>
			</g>
		</g>
		<path fill="#A5AAB9" d="M635.2,627.9h-8.3c-0.5,0-0.9-0.6-0.8-1.2l0.3-1.7c0.1-0.4,0.4-0.8,0.7-0.8l8.4-1.4c0.6-0.1,1,0.5,1,1.1
			l-0.3,3.1C636,627.5,635.6,627.9,635.2,627.9"/>
		<path fill="#A5AAB9" d="M634.4,633.8l-8.4-1.4c-0.5-0.1-0.8-0.6-0.7-1.2l0.3-1.7c0.1-0.5,0.4-0.8,0.8-0.8h8.4
			c0.5,0,0.9,0.5,0.9,1.1l-0.3,3.1C635.3,633.5,634.9,633.9,634.4,633.8"/>
		<path fill="#C0C9D2" d="M562.1,603.1c0.8-8.5-0.2-11.7,3.5-12.2c10.1-1.2,20.9,7.9,20.3,17.4c-0.7,10.5-1.7,22.6-2.5,33.2
			c-6.7,0.3-17.4,5.8-18.4-0.8C562.4,623.2,561.2,613.1,562.1,603.1"/>
		<path fill="#F03C28" d="M583.1,659.8h-21.5c-1.3,0-1.8-1.6-0.8-2.4c2.3-1.7,4.6-3.4,6.8-5.1c-1.4-5.1-2.2-9.1-2.9-13.4l18.7,1.9
			c0,1.5-0.1,3-0.1,4.5C583.3,650,583.2,655.2,583.1,659.8"/>
		<path fill="#F03C28" d="M562.1,603.1c0.8-8.5-0.2-11.7,3.5-12.2c5.8-0.7,11.9,2,15.8,6.3l2.8,3.9c1.2,2.3,1.8,4.8,1.7,7.3
			c-0.2,4-0.6,8.3-0.9,12.6c-4.9-1-14.3-3.3-23.2-7.4C561.8,609.9,561.8,606.5,562.1,603.1"/>
		<g opacity="0.15">
			<g>
				<g>
					<defs>
						<rect id="SVGID_15_" x="573.7" y="602.6" width="12.3" height="57.3"/>
					</defs>
					<clipPath id="SVGID_16_">
						<use xlink:href="#SVGID_15_"  overflow="visible"/>
					</clipPath>
					<path clip-path="url(#SVGID_16_)" fill="#150036" d="M573.7,602.6l12.3,5.8c-0.8,10.5-1.6,21.1-2.4,31.6c0,1.8-0.1,3.6-0.1,5.4
						c-0.1,4.7-0.2,9.7-0.3,14.4c-2.1,0-4.1,0-6.2,0c-0.4-6.4-0.9-13-1.4-19.5C574.5,627.8,573.6,615.1,573.7,602.6"/>
				</g>
			</g>
		</g>
		<path fill="#A5AAB9" d="M563,627.9h8.3c0.5,0,0.9-0.6,0.8-1.2l-0.3-1.7c-0.1-0.4-0.4-0.8-0.7-0.8l-8.4-1.4c-0.6-0.1-1,0.5-1,1.1
			l0.3,3.1C562.2,627.5,562.6,627.9,563,627.9"/>
		<path fill="#A5AAB9" d="M563.8,633.8l8.4-1.4c0.5-0.1,0.8-0.6,0.7-1.2l-0.3-1.7c-0.1-0.5-0.4-0.8-0.8-0.8h-8.4
			c-0.5,0-0.9,0.5-0.9,1.1l0.3,3.1C562.9,633.5,563.3,633.9,563.8,633.8"/>
		<path fill="#C0C9D2" d="M635.9,508.7c1.3,8.4,9.1,14.6,17.9,14.6c7.8,0,14.9-5,17.1-12.2c4,0.2,8,0.4,12,0.6
			c0.7,16.8-10.1,30.7-23.6,33.1c-14,2.5-24.8-8.6-25.7-9.6L635.9,508.7z"/>
		<path fill="#F03C28" d="M649.7,522.9c-0.7,7.1-1.2,14.2-2.2,21.1c3.5,1.1,7.6,1.7,11.9,0.8c2-0.4,3.9-1,5.7-1.9
			c-2.1-6.8-4.1-13.6-6.5-20.2c-1.6,0.4-3.2,0.7-4.8,0.7C652.4,523.3,651,523.2,649.7,522.9"/>
		<g opacity="0.15">
			<g>
				<g>
					<defs>
						<rect id="SVGID_17_" x="633.7" y="511.1" width="49.3" height="34"/>
					</defs>
					<clipPath id="SVGID_18_">
						<use xlink:href="#SVGID_17_"  overflow="visible"/>
					</clipPath>
					<path clip-path="url(#SVGID_18_)" fill="#150036" d="M683,511.7c-4-0.2-8-0.4-12-0.6c-0.5,1.5-1.1,2.9-2,4.2
						c4.2,4.1,6.2,9.3,1.8,14.2c-9.3,10-25.1,6.4-36.5-1.6c-0.2,2.5-0.4,4.9-0.6,7.4c0.9,1,11.7,12,25.7,9.6
						C672.9,542.4,683.7,528.6,683,511.7"/>
				</g>
			</g>
		</g>
		<path fill="#C2271A" d="M677.2,490.5c-5.1,0-9.6,4-10.7,9c-1.3,6,2.5,12.8,9,13.9c6.3,1.1,12.1-3.7,13.1-9.6
			C689.6,497,683.8,490.5,677.2,490.5"/>
		<path fill="#C2271A" d="M666.9,502.9c0.6-0.3,4.2-2.1,5.1-5.9c0.7-3.1-0.6-6.6-3.4-9c-1.5-1.3-3.7-0.4-4,1.6
			c-0.2,1.3-0.3,2.8-0.2,4.5C664.7,498.1,666,501.2,666.9,502.9"/>
		<g>
			<path fill="#2878F0" d="M687.1,545.6l-1-1.6c2.3-1.3,3.9-3.3,4.6-5.4c0.4-1.5,0.4-3-0.1-4.4c-1.8,1.6-4.2,2.4-6.5,1.9
				c-1.3-0.3-2.5-1.1-3.1-2.1c-0.4-0.8-0.5-1.6-0.2-2.4c0.2-0.6,0.6-1.1,1.2-1.6c2.4-1.9,6.2-1.6,8.6,0.7c0.1,0.1,0.1,0.1,0.2,0.2
				c0.1-0.2,0.2-0.4,0.3-0.6c1-2.5,0.6-5.6-1-8.3c-1.4-2.2-3.6-4.2-6.7-6.1c-0.6-0.4-1.2-0.7-1.8-1c-2.2-1.2-4.4-2.4-6.1-4.3
				c-3-3.3-3.8-8.5-1.9-12.6l1.7,0.8c-1.6,3.4-0.9,7.7,1.6,10.5c1.5,1.7,3.5,2.8,5.6,3.9c0.6,0.3,1.3,0.7,1.9,1.1
				c3.4,2,5.8,4.2,7.3,6.7c2,3.2,2.4,7,1.2,10c-0.2,0.5-0.5,1.1-0.8,1.5c1,1.9,1.2,4.3,0.5,6.5C691.7,541.7,689.8,544,687.1,545.6z
				 M685.8,530.7c-0.9,0-1.9,0.3-2.6,0.8c-0.3,0.2-0.5,0.5-0.6,0.7c0,0.1-0.1,0.4,0.1,0.8c0.3,0.6,1.1,1.1,1.8,1.2
				c1.8,0.4,3.7-0.4,5.1-1.8c-0.1-0.1-0.2-0.3-0.4-0.4C688.3,531.2,687,530.7,685.8,530.7z"/>
		</g>
		<path fill="#2878F0" d="M675.5,498.6l-2-0.4c9-50.5-2.1-83-43.7-128.9c-10.2-11.2-18.3-25.9-24-43.7c-4.5-14.2-7.6-30.2-9.1-47.8
			c-2.5-29.9,0.5-54.1,0.5-54.3l2,0.2c0,0.2-3,24.2-0.5,53.9c2.3,27.3,9.8,65,32.5,90c22.2,24.5,35.5,45.3,42.1,65.7
			C679.4,452.6,680.1,472.7,675.5,498.6z"/>
		<path fill="#F03C28" d="M679.8,491c-2.7,2-5.3,3.9-8,5.9c-1.6,1.2-1,3.7,1,4c0,0,0,0,0.1,0c1.8,0.2,3.2-0.6,3.5-0.9
			c-2,2.4-1.6,5.3-0.3,6.1c1.1,0.7,3.4,0.2,4.9-1.7c-1.7,2.2-1.1,4.8,0.1,5.5c1.1,0.7,3.4,0,4.6-2.2c0.2,0.3,0.3,0.5,0.5,0.8
			c0.9,1.5,3.1,1.4,3.8-0.1c0.5-1.2,1-2.6,1.1-4.3c0.3-4.3-2-7.5-3-8.7C684.9,491.7,680.8,491.1,679.8,491"/>
		<path fill="#C0C9D2" d="M568.3,522.7c0.1-4.6-7.9-5.7-8.9-4.6c-4.9,5.2-14.8,18-18.9,30.9c-5.5,17.6-2.4,32.5-0.8,38.7
			c4.1,0.4,8.3,0.8,12.4,1.2c3.1-13,6.2-26,9.3-39.1C564.2,541.2,568,533.6,568.3,522.7"/>
		<path fill="#F03C28" d="M557.8,564.8c0.7-3.1,1.5-6.2,2.2-9.3c-6.1-3.4-12.2-6.8-18.2-10.2c-0.5,1.2-0.9,2.5-1.3,3.8
			c-1,3.1-1.7,6.1-2.1,9C544.8,560.2,551.3,562.5,557.8,564.8"/>
		<g opacity="0.15">
			<g>
				<g>
					<defs>
						<rect id="SVGID_19_" x="543.9" y="543.1" width="17.5" height="45.7"/>
					</defs>
					<clipPath id="SVGID_20_">
						<use xlink:href="#SVGID_19_"  overflow="visible"/>
					</clipPath>
					<path clip-path="url(#SVGID_20_)" fill="#150036" d="M552.1,588.8c3.1-13,6.2-26,9.3-39.1c-0.2-2.2-0.3-4.4-0.5-6.6
						c-11.4,11.8-16.8,28.6-17,44.9C546.6,588.3,549.3,588.6,552.1,588.8"/>
				</g>
			</g>
		</g>
		<path fill="#6428B4" d="M552.9,536.7c2.9-2.4,3.7-7.6,1-12c-2.8,3.3-5.8,7.7-8.6,13.1C548.1,538.6,551,538.2,552.9,536.7"/>
		<path fill="#F03C28" d="M543.9,586.6c-1,0-2.7,0.2-4.2,1c0.4,3.3,0.6,5.1,1.3,8.4c0.7,3.1,1.6,6.1,3.5,8.7c1.1,1.5,4.1,2,5,0
			c2-4.4,2.8-8.8,2.5-15.6C550,586.8,545.5,586.6,543.9,586.6"/>
		<path fill="#95170F" d="M550.9,591.8c-0.7-3.2-6.6-6-4.7-1.3c0.5,1.4,3.3,3.6,0.6,4.3c-1.7,0.4-2-1.9-3.4-0.3
			c-1.6,1.7,1.6,10.5,4.7,9.8C550.6,603.6,551.6,594.5,550.9,591.8"/>
		<path fill="#C0C9D2" d="M630.5,509.2c-21.5,1-43,2-64.4,3c-4,0.2-7.1,1.8-7.2,6.3c0,3.4,0.3,6.8,0.4,10.1
			c0.6,13.7,1.1,27.5,1.7,41.2l0.8,19.7c0.1,3.5-0.1,7.3,0.4,10.7s3.8,3.9,6.7,5.1c6.2,2.5,12.4,5,18.5,7.5c8.3,3.4,17,4.3,25.3,0.1
			c5.3-2.6,10.2-6.4,15.1-9.6c2.9-1.9,7.5-3.6,7.9-7.3c0.3-3.6,0-7.3,0.1-10.9c0.1-13.9,0.2-27.8,0.3-41.7
			c0.1-9.4,0.8-19.1,0.2-28.5C636.1,511.8,634,509,630.5,509.2"/>
		<g opacity="0.15">
			<g>
				<g>
					<defs>
						<rect id="SVGID_21_" x="560.6" y="558.3" width="75.4" height="57.5"/>
					</defs>
					<clipPath id="SVGID_22_">
						<use xlink:href="#SVGID_21_"  overflow="visible"/>
					</clipPath>
					<path clip-path="url(#SVGID_22_)" fill="#150036" d="M636,558.3c-1.4,25.5-8.2,44.5-35.4,45.5c-34.8,1.2-38.2-18.5-40.1-44.8
						c0.2,5.3,0.2,5.6,0.4,10.8l0.8,19.7c0.1,3.5-0.1,7.3,0.4,10.7s3.8,3.9,6.7,5.1c6.2,2.5,12.4,5,18.5,7.5
						c8.3,3.4,17,4.3,25.3,0.1c5.3-2.6,10.2-6.4,15.1-9.6c2.9-1.9,7.5-3.6,7.9-7.3c0.3-3.6,0-7.3,0.1-10.9
						C635.9,574.9,636,568.7,636,558.3"/>
				</g>
			</g>
		</g>
		<path fill="#C0C9D2" d="M535.4,449.8l-10.4,5.6c-1,0.5-1.6,1.6-1.4,2.7l2.3,21c0.1,1.1,0.9,2.1,2,2.4l6.4,1.7
			c1.7,0.5,3.4-0.8,3.5-2.5l1.7-28.4C539.6,450.3,537.3,448.8,535.4,449.8"/>
		<path fill="#C0C9D2" d="M654.8,449.4l11.3,6c1,0.5,1.6,1.6,1.5,2.7l-2.3,21c-0.1,1.1-0.9,2.1-2,2.4l-6.5,1.8
			c-1.7,0.5-3.3-0.7-3.5-2.4l-2.4-28.8C650.5,449.9,652.9,448.4,654.8,449.4"/>
		<path fill="#C0C9D2" d="M658.4,456.6c-0.4-2.3-1.1-4.5-2.1-6.6c-10.4-26.9-39-48.2-66.9-45.6c-24.6,2.3-47.8,24.5-55.9,48.6
			c-2.7,6.1-2.3,14.5-1.6,20.9c0.7,6,2.4,11.8,5,17.2c4.9,10.3,12.8,19,22.4,25.3c19.7,12.9,45,14.3,66,3.4
			C648.5,507.6,663.1,482.4,658.4,456.6"/>
		<path fill="#150036" d="M658.6,456.5c-0.7-4-2.4-7.8-4.8-11.1c-13.3-18.2-36.4-28.2-58.7-28.1c-23.9,0.2-50.5,12.6-61.5,34.7
			c-3.1,6.2-2.8,15.1-1.9,21.8c0.7,6,2.4,11.8,5,17.2c4.9,10.4,12.9,19.1,22.5,25.3c19.8,12.9,45.2,14.3,66.2,3.4
			C648.7,507.8,663.4,482.4,658.6,456.5"/>
		
			<linearGradient id="SVGID_23_" gradientUnits="userSpaceOnUse" x1="596.6177" y1="278.1921" x2="596.6177" y2="373.1" gradientTransform="matrix(1 0 0 -1 0 800)">
			<stop  offset="0" style="stop-color:#965AE6"/>
			<stop  offset="0.5" style="stop-color:#6428B4"/>
			<stop  offset="1" style="stop-color:#3C186C"/>
		</linearGradient>
		<path fill="url(#SVGID_23_)" d="M595.2,426.9c-21.7,0.7-49.3,13.7-53.8,37c-5.2,27.2,23.3,57.3,53.9,57.9
			c33,0.6,62.6-33.1,56.3-60.4c-5.1-21.9-32.1-34.5-54.6-34.5C596.5,426.9,595.9,426.9,595.2,426.9"/>
	</g>
	<g>
		<g>
			<g>
				<g>
					<defs>
						<rect id="SVGID_24_" x="555.9" y="437.6" width="80" height="50.6"/>
					</defs>
					<clipPath id="SVGID_25_">
						<use xlink:href="#SVGID_24_"  overflow="visible"/>
					</clipPath>
					<path opacity="0.5" clip-path="url(#SVGID_25_)" fill="#BC6FEB" enable-background="new    " d="M635.9,462
						c-0.3-13.2-21.5-24-38.8-24.4c-18.5-0.4-40.9,10.8-41.2,24.4c-0.3,13.5,21.1,26,39.6,26.2C614.4,488.4,636.3,475.7,635.9,462"
						/>
				</g>
			</g>
		</g>
		<g>
			<g>
				<g>
					<defs>
						<rect id="SVGID_26_" x="593.1" y="494.3" width="35" height="19.4"/>
					</defs>
					<clipPath id="SVGID_27_">
						<use xlink:href="#SVGID_26_"  overflow="visible"/>
					</clipPath>
					<path opacity="0.5" clip-path="url(#SVGID_27_)" fill="#BC6FEB" enable-background="new    " d="M628,498.3
						c-1.3-4.1-12.4-5.4-20.8-2.3c-7.9,2.9-15.5,10.3-13.9,14.3c1.5,4,12.4,4.3,20.3,1.5C621.2,509.1,629.3,502.3,628,498.3"/>
				</g>
			</g>
		</g>
		<path fill="#FFFFFF" d="M577.8,453.8c-4.4-9.7-20.8-14-25.9-2.7C541.5,474.1,587.1,474.5,577.8,453.8"/>
	</g>
	<g>
		<g>
			<defs>
				<path id="SVGID_28_" d="M585.8,532.2L585.8,532.2c-4.2,0.5-7.9,2.9-10.4,6.5c-2.6,3.7-3.5,8.2-2.5,12.3c1.5,6.1,3,12.6,4.6,19.2
					c1.2,6.1,7.1,10.9,13.4,10.9H606c0.1,0,0.2,0,0.3,0c6.7,0,11.9-5.5,13.2-11c1.5-6.6,3-13,4.5-19.2l0,0c0.9-4.1,0-8.5-2.6-12.2
					c-2.5-3.6-6.3-5.9-10.3-6.5H611c-4.2-0.4-8.4-0.6-12.6-0.6C594.2,531.6,590,531.8,585.8,532.2"/>
			</defs>
			<clipPath id="SVGID_29_">
				<use xlink:href="#SVGID_28_"  overflow="visible"/>
			</clipPath>
			
				<linearGradient id="SVGID_30_" gradientUnits="userSpaceOnUse" x1="-389.2016" y1="-956.8851" x2="-388.8705" y2="-956.8851" gradientTransform="matrix(128.4834 -107.8104 107.8104 128.4834 153746.0938 81557.2188)">
				<stop  offset="0" style="stop-color:#A5AAB9"/>
				<stop  offset="0.4" style="stop-color:#A5AAB9"/>
				<stop  offset="0.6" style="stop-color:#E0E4E9"/>
				<stop  offset="1" style="stop-color:#E0E4E9"/>
			</linearGradient>
			<polygon clip-path="url(#SVGID_29_)" fill="url(#SVGID_30_)" points="547.4,552 602.9,505.5 649.2,560.6 593.7,607.2 			"/>
		</g>
	</g>
	<path fill="#E0E4E9" d="M606,577.4h-15.2c-4.6,0-8.9-3.6-9.8-8c-1.5-6.4-3-12.8-4.6-19.2c-1.4-6.1,3.1-13.3,9.7-14.2
		c8.2-0.8,16.2-0.8,24.4,0c6.6,0.9,11.1,8,9.7,14.1c-1.5,6.4-3,12.8-4.5,19.2C614.8,573.6,610.8,577.5,606,577.4"/>
	<path fill="#461A89" d="M593,562.3c-0.5-6.1-0.9-12.3-1.4-18.4l0,0l0,0c0-1-0.8-1.7-1.8-1.7c-0.9,0.1-1.9,0.2-2.8,0.2
		c-1.2,0.2-2.3,1-3.2,2.2c-0.9,1.3-1.3,2.8-1,4c0,0.1,0,0.2,0.1,0.2c1.2,4.5,2.3,9,3.5,13.5c0.5,1.7,1.3,2.6,2.9,2.6
		c0.3,0,0.6,0,0.8,0C591.6,565,593,563.8,593,562.3"/>
	<path fill="#C2271A" d="M595.2,541.9c-1,0-1.8,0.8-1.8,1.8l0,0c0.5,6.2,0.9,12.4,1.4,18.5c0,1.5,1.3,2.7,2.8,2.7h1.3
		c1.5,0,2.8-1.2,2.8-2.7c0.5-6.2,0.9-12.4,1.4-18.5l0,0c0-1-0.8-1.8-1.8-1.8C599.3,541.8,597.3,541.8,595.2,541.9"/>
	<path fill="#1A55C2" d="M612.9,544.6c-0.8-1.2-2-2-3.1-2.2c-1-0.1-1.9-0.2-2.8-0.2c-1-0.1-1.9,0.7-1.9,1.7l0,0
		c-0.5,6.1-0.9,12.3-1.4,18.4c0,1.5,1.2,2.7,2.8,2.6h1.4c1.5,0,2.3-1.2,2.8-2.6c1.1-4.5,2.2-9,3.3-13.5c0.2-0.7,0.2-1.4,0.1-2
		C613.7,546.1,613.4,545.3,612.9,544.6"/>
	<path fill="#6428B4" d="M591.4,560.2c-0.3-4.7-0.7-9.4-1-14.1l0,0c0-0.8-0.6-1.3-1.3-1.3c-0.7,0.1-1.3,0.1-2,0.2
		c-0.8,0.1-1.6,0.7-2.2,1.7c-0.6,1-0.9,2.2-0.7,3.1c0,0.1,0,0.1,0,0.2c0.8,3.4,1.6,6.9,2.4,10.4c0.3,1.3,0.9,2,2,2
		c0.2,0,0.4,0,0.6,0C590.5,562.3,591.4,561.4,591.4,560.2"/>
	<path fill="#F03C28" d="M596,544.4c-0.7,0-1.3,0.6-1.3,1.4l0,0c0.3,4.8,0.7,9.7,1,14.5c0,1.2,0.9,2.1,2.1,2.1h1
		c1.1,0,2.1-0.9,2.1-2.1c0.3-4.8,0.7-9.7,1-14.5l0,0c0-0.8-0.6-1.4-1.3-1.4C599.1,544.4,597.5,544.4,596,544.4"/>
	<path fill="#2878F0" d="M611.7,546.7c-0.6-0.9-1.4-1.5-2.2-1.7c-0.7-0.1-1.3-0.1-2-0.2c-0.7-0.1-1.3,0.5-1.3,1.3l0,0
		c-0.3,4.7-0.7,9.4-1,14.1c0,1.1,0.9,2,1.9,2h1c1.1,0,1.6-0.9,1.9-2c0.7-3.5,1.5-6.9,2.3-10.4c0.1-0.5,0.1-1,0-1.6
		C612.2,547.8,612,547.2,611.7,546.7"/>
	<path fill="#787382" d="M602.5,571.7c0,2.3-1.9,4.2-4.2,4.2s-4.2-1.9-4.2-4.2s1.9-4.2,4.2-4.2S602.5,569.4,602.5,571.7"/>
	<g opacity="0.15">
		<g>
			<g>
				<defs>
					<rect id="SVGID_31_" x="596.1" y="572.3" width="39.9" height="22.6"/>
				</defs>
				<clipPath id="SVGID_32_">
					<use xlink:href="#SVGID_31_"  overflow="visible"/>
				</clipPath>
				<path clip-path="url(#SVGID_32_)" fill="#150036" d="M635.9,588c-3.5,1.5-7.8,2.4-12.2,2.4c-12.8,0-23.2-7.2-23.2-15.9
					c0-1.2-1-2.2-2.2-2.2s-2.2,1-2.2,2.2c0,5.6,3,10.8,8.4,14.6c5.2,3.7,12,5.7,19.2,5.7c4.3,0,8.5-0.7,12.3-2.1L635.9,588z"/>
			</g>
		</g>
	</g>
	<path fill="#E0E4E9" d="M636.1,553.5v4.8c6.7,2.9,10.8,8,10.8,13.5c0,8.8-10.4,15.9-23.2,15.9s-23.2-7.2-23.2-15.9
		c0-1.2-1-2.2-2.2-2.2s-2.2,1-2.2,2.2c0,5.6,3,10.8,8.4,14.6c5.2,3.7,12,5.7,19.2,5.7s14.1-2,19.2-5.7c5.4-3.9,8.4-9.1,8.4-14.6
		C651.3,564.2,645,557,636.1,553.5"/>
	<g>
		<path fill="#2060C0" d="M599,212.4c-2.4,3.5-4.9,7-7.3,10.5c0.5,0.7,2.2,2.6,5.1,3.4c4.2,1.1,7.6-1.3,8-1.6
			C602.8,220.5,600.9,216.5,599,212.4z"/>
		<g>
			<g>
				<path opacity="0.3" fill="#252C78" enable-background="new    " d="M663.4,155c2.5-38.1-30.5-72.3-69.5-70.2
					c-38.6,2-67.4,38.6-62.1,75.4c4.5,31.3,32.6,56.1,65.3,56.2C631.8,216.5,661.3,188.8,663.4,155z"/>
				
					<radialGradient id="SVGID_33_" cx="1373.6412" cy="-1203.9585" r="114.2028" gradientTransform="matrix(0.7288 0.4918 0.4918 -0.7288 175.1326 -1422.7775)" gradientUnits="userSpaceOnUse">
					<stop  offset="0" style="stop-color:#2878F0"/>
					<stop  offset="0.6431" style="stop-color:#2878F0"/>
					<stop  offset="1" style="stop-color:#09223D"/>
				</radialGradient>
				<path fill="url(#SVGID_33_)" d="M654.3,172.8c0.1-0.3,0.2-0.5,0.3-0.8c3.4-9.6,4.5-19.9,2.4-29.9c-2.4-11-5.7-21.4-13.2-30
					c-8.3-9.5-21-17.5-33.2-20.9c-4.3-1.2-9.6-0.8-14.1-1c-19.8-0.6-39.7,10.9-50,27.5c-4.1,6.5-7.2,13.7-8.9,21.2
					c-5.6,24.8,8.2,51.8,30.2,63.6c25,13.5,56,9.7,75.1-12C647.1,185.8,651.8,179.2,654.3,172.8z"/>
				<path fill="#5BB334" d="M578.1,153.5c-2.6,0.3-5-1.8-7.5-1.4c-0.5,0.1-1.4,0.8-1.9,1c-0.8,0.3-1.3,0-2.1,0.6
					c-1.5,1-1.8,3.4-3.7,4s-2.5-1-4.3,0.6c-1.7,1.6-1.1,2.2-3.6,2.5c-1.6,0.2-4.1,0-5.3,1.1c-0.8,0.7-0.6,1.7-1.1,2.5
					c-0.6,1-0.9,0.8-1.6,1.5c-1.5,1.5-1.6,2.6-2.3,4.4c-1.3-5.6,0.7-10,1.9-15.3c1.1-5.3,3.3-10.2,4.5-15.4c0.7-3.3,3.2-5.6,3.1-9.3
					c-0.1-3.8-0.9-6.5-0.2-10.3c0.7-3.7,3.1-7.3,5.8-10c1.5-1.5,3.4-2.1,5.1-3.3c1.9-1.4,2.6-2.8,4.9-3.4c1.5-0.4,4.5-1.9,6-1.6
					c1.7,0.3,3,2.3,4.8,2.9c1.5,0.5,4.1,0.1,4.6,2.1c0.3,1.4-1.4,3.3-1.5,4.8c-0.3,3.2,6.9,3.7,4.9,8.3c-0.3,0.8-1.6,1.4-1.8,2.3
					c-0.2,1.2,0.2,0.8,0.7,2c0.8,1.7,1.8,2.5,3,3.7c1.3,1.4,1.4,2.8,3,4c0.8,0.6,1.8,0.7,2.4,1.6c0.6,0.8,0.3,1.7,0.7,2.6
					c0.6,1.4,1.8,2.4,1.3,4.3c-0.4,1.5-1.9,2.8-2.9,4.1c-0.6,0.7-0.9,1.8-1.9,2.1c-1.2,0.3-1.5-0.9-2.6-0.7
					c-0.9,0.1-1.6,1.1-2.5,1.5c-0.6,0.2-1.5,0-2.1,0.3C582.4,148.9,582,153,578.1,153.5z M654.3,172.8c0.1-0.3,0.2-0.5,0.3-0.8
					c3.4-9.5,4.5-19.5,2.5-29.4c-0.4-0.5-0.8-1.1-1.2-1.6c-1.1-1.4-2.4-2.7-2.6-4.5c-0.2-1.7,1.1-3.4,0-5c-1.1-1.5-3.2-1.4-4.6-2.7
					c-1.1-1.1-1.6-2.6-3.4-3.3c-1.9-0.7-2.6,0.1-4.3,0.8c-1.5,0.7-3.5,0.6-5,1.4c-2.1,1.1-1.4,3-2.4,4.9c-1.1,2.2-3.3,2.5-4.8,4
					c-1.6,1.6-1.5,3.4-0.2,4.9c1.7,1.9,2.7,2.5,2.7,5.2c0,2.5-0.7,3.1,1.5,4.5c0.8,0.5,2,0.6,2.5,1.4c0.5,0.8,0.1,2,0.5,2.9
					c0.9,2.2,3,1.8,4.7,2.9c2.4,1.5,0.9,2.5,0.5,4.6c-0.3,1.7,0.3,3.3-0.1,4.9c-0.5,2.2-1.7,4.3-2.7,6.3c-1.7,3.5-2.1,7.2-5.1,10
					c-0.7,0.7-1.6,1.8-2.6,2.2c-0.8,0.4-1.7,0.1-2.4,0.6c-1.6,1-1.7,3.4-3,4.7c-2.5,2.5-6.6,4.3-8.3,7.5c-0.5,0.8-0.5,2-1.1,2.8
					s-1.7,1-2.5,1.7c-1.8,1.5-3.5,3.7-3,5.6c12.2-2.4,23.6-8.6,32.5-18.7C647.1,185.8,651.8,179.2,654.3,172.8z M646,123.9
					c1,1.4,3.8,4.4,5.7,4.5c0.5,0,1,0,1.3-0.1c-1.5-4.1-3.4-8-5.9-11.6c-1.5-0.9-2.8-0.9-3.5,0.4C643,118.7,645.1,122.7,646,123.9z"
					/>
				<path fill="#B3F1F2" d="M549.3,167.3c0.3,2.2-0.7,10.4-4.3,6.5c-1.3-1.3-0.7-2.6-0.7-4.1c-0.1-1.6-0.4-2.3-1.1-3.9
					C541.1,161.3,548.6,162.6,549.3,167.3z M592.6,171.6c-3-0.2-3.2,3.8-1.4,5.2c2,1.6,6.6,1.8,8.5,0.1c1.3-1.1,2.2-3.5,1.8-5.2
					c-1-4.2-4.6-0.1-2.4,0.4c0.8,0.2-1.7,3.1-2.3,3.3C593.1,176.5,595.1,171.8,592.6,171.6z M563,161.6c1.2,0.6,6.7,4.9,7.9,3.4
					c2-2.6-3.6-5.1-4.4-7.1c-0.4-1.1,0.2-1.5,0.1-2.5c0-0.9-0.4-1.4-0.5-2.2c-0.2-1.7,0.8-3.6,0.2-5.2c-0.7-2-2.1-3.6,0.7-4.4
					c1.5-0.5,3.3,0.6,3.7-1.6c0.3-1.6-2.1-4.2-3.7-4.2c-2.2,0-2.1,2.6-4,3.3c-1,0.3-2.6-0.3-3.5,0.3c-1.3,0.9,0,1.3-0.7,2.3
					c-1.2,1.7-3.7,0.1-2.9,3c0.6,2.4,3.8,3.1,4.5,5.3c0.7,2.1-1.5,4-1.4,5.9C559.3,159.7,561.4,160.7,563,161.6z M566.4,135.5
					c1.9,0.3,3.3-2.4,1.2-3.2C565.7,131.5,563.3,135,566.4,135.5z M575.4,135.5c0.7,1.7,2.5,1.6,3.6,0.3c1.5-1.8-0.3-2.6-0.7-4.4
					c-0.2-0.9,0.6-4.5-1.9-2.5C575.7,129.4,575,134.5,575.4,135.5z M583,132.7c0,1.1,1.3,1.7,1.5,2.7c0.2,1.3-0.4,1.2-0.8,2.2
					c-0.8,2.2-0.6,2.9,1.7,4c1.4,0.7,4.4,0.8,5,2.5c0.5,1.5-2.1,4.2,1,4.9c1.8-2.3,3.4-2.4,3.3,1c0,0.8-1.3,2.1,0.1,2.7
					c1,0.4,1.7-0.6,2-1.4c0.4-1.1,0.3-2.2,0.7-3.2c0.3-0.9,1.8-1.1,1-2.4c-0.6-0.9-1.5-0.1-2.2-0.5c-2.9-1.3,0.1-2.5-0.5-4.1
					c-0.6-1.8-3.4,0.3-3.9-1.3c-0.3-0.9,1.6-1.4,1.9-2.1c1.2-2.7-1-0.7-2.1-1.6c-1.1-1,0.3-2.1,0.4-3.4c0.2-3.1-1.4-2.3-3.2-1.2
					C587.3,132.4,583,128.5,583,132.7z M558.6,134.6l1.3,0.2c1.6-0.7,1.2-2.9-0.5-3.1C557.6,131.5,557.3,133.6,558.6,134.6z
					 M577.3,198.4c0-1.2-2.4-6.1-3.8-6.3c-3-0.4,1.6,5.8-3.5,4.2c-0.3-0.1-6.5-3.2-6.3-2.6C564.7,196.4,577.2,202.3,577.3,198.4z
					 M599.3,94.5c1.8-0.1,9.5-1.2,6.8-3.7c-0.1-0.1-0.2-0.2-0.3-0.2c-1.1-0.1-2.1-0.1-3.2-0.1c-3.2,0.6-6.9,2.7-6.8,2.8
					C596.5,94.1,598.1,94.5,599.3,94.5z M633.1,146.8c3.8,1.6,1.6-3.1,0.5-4.3c-1.4-1.6-3.2-2.7-5.3-3.2c-4.1-0.9-5.7,1.6-1.6,3.5
					c1.3,0.6,3,0.6,4.2,1.4C631.8,144.8,632.3,146.4,633.1,146.8z M621.5,101.8c-2.9,1.2-4.6,2.8-8.1,2.6c-1.5-0.1-5.8-1.5-6.9-0.4
					c2.3,5.2,6.6,2.9,10.6,3.6c0,1.3-2,2.2-2.3,3.6c-0.3,1.3,0.1,2.9,0.8,3.9c0.5,0.7,1.7,1.9,2.6,2c2,0.2,1.2-0.4,1.2-1.7
					c0-3.6-0.7-5.8,3.2-7.8c2.6-1.4,5.8-1.7,8.7-1.5c2.1,0.1,4.8,1.3,6.9,0.5c-1.9-1.7-3.9-3.3-6.1-4.8c-1-0.1-1.9-0.3-2.8-0.4
					C626.9,101,623.9,100.8,621.5,101.8z M583.5,195.1c-0.5-1.4-0.2-3-0.7-4.4c-0.9-2.5-2.3-1-2.6,0.9c-0.3,2.1,1.5,4.8,2.8,6.3
					c1.2,1.3,2.6,1.7,2.1-0.4C584.8,196.6,583.8,196,583.5,195.1z M611,128.5c-0.8-2.2-4-1.6-5.7-1.8c-2.3-0.3-3.1-1.6-4.8-2.9
					c-0.8-0.6-3-2.8-3.9-2.8c-2.7-0.1,0.6,3.3,1.4,4c1.3,1.2,4.4,2.2,5.4,3.5c0.8,1.1,0,2.7,1.1,4c0.9,1.1,2.6,1.8,4,1
					c1.8-1.1,0.7-2,0.7-3.7C610.4,131.1,611.6,130,611,128.5z M621.7,137.9c-0.7-1.9-3.7-1.9-5.1-2.8c-1.1-0.7-2.2-2.9-3.7-2.2
					c-1.8,0.9-0.6,2.8,0.7,3.5s2.9,0.4,4,1.5c0.7,0.7,0,1.7,1.2,2.3C620.4,141.1,622.3,139.6,621.7,137.9z M570.3,188.7
					c0.6-1.2-4.1-6.2-5-6.4c-2.1-0.3-1.2,1.2-0.7,1.9C565.2,185.3,569.5,190.3,570.3,188.7z M580.6,129.3c1.5,2.1,4.2-1.1,2.8-2.5
					C582.1,125.6,579.5,127.8,580.6,129.3z M580.8,96.7c-2.2-0.5-3.7,1.8-1.4,3.1C582.3,101.4,583.7,97.4,580.8,96.7z M591.1,155.5
					c-1.5,0.9-5,2.9-3.4,5.2c2.5,3.7,5.9-3.3,6.5-4.8C595.4,152.8,592.3,154.8,591.1,155.5z M563.3,107.1c1.2,1.6,3.7-0.8,3.8-2.1
					l-0.6-0.7C565.2,103.6,562.3,105.7,563.3,107.1z M571.8,100.7c1.2-1.4,0.3-2.4-1-2.4c-1.3-0.1-3.9,2-4.5,3.1
					C567.9,102.5,570.5,102.2,571.8,100.7z M574.9,188.3c0.3,0.9-0.5,3.2,1.7,2c2.7-1.5-1.7-6.3-3.7-4.9
					C573.2,185.2,574.8,188,574.9,188.3z M561.4,171.8c-0.4,1.3-1.1,1.2-0.8,2.7c0.3,1.7,1.7,2.8,3.2,3.4c1.1,0.4,2.4,0.2,3.4,1
					c1.1,0.9,1.6,3.9,3.7,3.6c1.5-0.2,1.7-2,1.1-3.2c-0.5-0.9-1.8-0.8-2.2-1.8c-0.4-1.1,0.7-1.8,0.7-2.8c0.1-2-1.1-2.5-3.1-3.3
					c-2.7-1-2.8-2.9-3.8-5.3c-0.5-1.2-2.2-4.1-3.7-2.2C558.5,165.7,562,169.6,561.4,171.8z M587.1,152c-1.1,0.3-3.5,2.9-2,3.9
					C587.8,157.7,589.8,151.2,587.1,152z M587.5,146.2c-1.7-1.1-3.9,1.8-2,3C587.3,150.4,589,147.2,587.5,146.2z M577.7,183.1
					c1.2-1.8-1-3.3-1.6-4.8c-0.5-1.2,0-3.4-1.3-4.2c-1.6-1-2.1,0.5-1.7,2c0.4,1.4,2,2.2,2.5,3.6C576,180.3,575.7,186.3,577.7,183.1z
					 M603.6,151.8c-0.4-1.3-1.6-2.4-2.4-1.2c0,0-0.6,4.9-0.5,5.3C602.8,155.9,604.3,153.7,603.6,151.8z"/>
				<path opacity="0.1" fill="#140036" enable-background="new    " d="M654.3,172.8c0.1-0.3,0.2-0.5,0.3-0.8
					c3.4-9.6,4.5-19.9,2.4-29.9c-2.4-11-5.7-21.4-13.2-30c-8.3-9.5-21-17.5-33.2-20.9c-4.3-1.2-9.6-0.8-14.1-1
					c-19.8-0.6-39.7,10.9-50,27.5c-4.1,6.5-7.2,13.7-8.9,21.2c-5.6,24.8,8.2,51.8,30.2,63.6c25,13.5,56,9.7,75.1-12
					C647.1,185.8,651.8,179.2,654.3,172.8z M600.5,147.5c-15.2,1.1-35-7.5-36.6-22c-1.5-14.3,15.4-28,31.2-29.2
					c17.9-1.4,37.5,12.9,36.7,27.5C631,136.8,614.3,146.4,600.5,147.5z"/>
				<g>
					<path opacity="0.2" fill="#140036" enable-background="new    " d="M601.6,174.5c-24.1,1.5-52.8-10-65.1-29.5
						c-2.4,23,10.9,46.8,31.2,57.7c25,13.5,56,9.7,75.1-12c4.4-5,9.1-11.6,11.5-17.9c0.1-0.3,0.2-0.5,0.3-0.8
						c3.1-8.7,4.3-17.9,2.9-27.1C646,162.1,622.3,173.3,601.6,174.5z"/>
				</g>
				<path opacity="0.3" fill="#140036" enable-background="new    " d="M533.9,169.5c8.2,26.8,33.8,46.8,63.2,46.9
					c29.8,0.1,55.7-20.3,63.8-47.5c-7.9,6.4-28,20.6-57.2,22.5C569.1,193.7,543.9,177.2,533.9,169.5z"/>
			</g>
		</g>
		<path fill="#2878F0" d="M583.2,228.4l-0.6-1.1c-0.6-1-3.4-6.3-1-11.3c2.8-5.8,10.8-8.1,17.9-5.2l1.3,0.6L583.2,228.4z
			 M593.2,211.4c-4.6,0-8.4,2.3-9.8,5.4c-1.5,3.2-0.4,6.7,0.4,8.5l13.7-13.2C595.9,211.6,594.5,211.4,593.2,211.4z"/>
		<g>
			<path fill="#2878F0" d="M612.8,231.3c-0.4-2.8-1.3-5.4-2.7-7.8c-3.3-5.7-8.4-8.5-11.1-9.6l0.7-1.8c3,1.3,8.5,4.3,12,10.4
				c1.5,2.6,2.5,5.4,2.9,8.4L612.8,231.3z"/>
		</g>
		<path fill="#2878F0" d="M615.2,219.7l-17.3-7.4l0.6-1c1.6-2.4,4.1-4.1,6.9-4.6c2.5-0.5,5,0,6.8,1.4c3.1,2.2,4.4,6.4,3.2,10.5
			L615.2,219.7z M600.8,211.5l13.1,5.6c0.5-2.9-0.6-5.9-2.7-7.4c-1.4-1-3.4-1.4-5.4-1.1C603.9,209,602.1,210,600.8,211.5z"/>
		<g>
			<path fill="#2878F0" d="M590.1,237.9c-1.3-3.5-1.7-7.2-1.2-10.7c1.3-8.9,7.9-14,9.9-15.4l1.1,1.6c-1.8,1.3-8,6-9.1,14.1
				c-0.5,3.2-0.1,6.6,1.1,9.8L590.1,237.9z"/>
		</g>
	</g>
</g>
</svg>
