<?xml version="1.0" encoding="utf-8"?>
<!-- Generator: Adobe Illustrator 22.1.0, SVG Export Plug-In . SVG Version: 6.00 Build 0)  -->
<svg version="1.1" xmlns="http://www.w3.org/2000/svg" xmlns:xlink="http://www.w3.org/1999/xlink" x="0px" y="0px" width="1200px"
	 height="800px" viewBox="0 0 1200 800" enable-background="new 0 0 1200 800" xml:space="preserve">
<g id="Ebene_1">
	<g id="BG">
		
			<linearGradient id="SVGID_3_" gradientUnits="userSpaceOnUse" x1="600" y1="800" x2="600" y2="0" gradientTransform="matrix(1 0 0 -1 0 800)">
			<stop  offset="0" style="stop-color:#6428B4"/>
			<stop  offset="0.66" style="stop-color:#3C186C"/>
			<stop  offset="1" style="stop-color:#2D1250"/>
		</linearGradient>
		<rect fill="url(#SVGID_3_)" width="1200" height="800"/>
	</g>
	<g id="STARS" opacity="0.25">
		<path fill="#FFFFFF" d="M553.1,106.1c0,1.3-0.8,2.3-1.8,2.3h-0.9c-0.9,0-1.8-1-1.8-2.3s0.8-2.3,1.8-2.3h0.9
			C552.3,103.8,553.1,104.8,553.1,106.1z M373.6,201h-0.9c-0.9,0-1.8,1-1.8,2.3s0.8,2.3,1.8,2.3h0.9c0.9,0,1.8-1,1.8-2.3
			S374.6,201,373.6,201z M657.1,241.3h-0.9c-0.9,0-1.8,1-1.8,2.3s0.8,2.3,1.8,2.3h0.9c0.9,0,1.8-1,1.8-2.3
			C658.9,242.3,658.1,241.3,657.1,241.3z M500.8,29.7h-0.9c-0.9,0-1.8,1-1.8,2.3s0.8,2.3,1.8,2.3h0.9c0.9,0,1.8-1,1.8-2.3
			C502.6,30.7,501.7,29.7,500.8,29.7z M141,67.2h-0.9c-0.9,0-1.8,1-1.8,2.3s0.8,2.3,1.8,2.3h0.9c0.9,0,1.8-1,1.8-2.3
			C142.7,68.2,141.9,67.2,141,67.2z M492.5,114.8h-0.9c-0.9,0-1.8,1-1.8,2.3s0.8,2.3,1.8,2.3h0.9c0.9,0,1.8-1,1.8-2.3
			S493.5,114.8,492.5,114.8z M289.9,413.6H289c-0.9,0-1.8,1-1.8,2.3s0.8,2.3,1.8,2.3h0.9c0.9,0,1.8-1,1.8-2.3
			C291.7,414.6,290.9,413.6,289.9,413.6z M75.6,290.6h-0.9c-0.9,0-1.8,1-1.8,2.3s0.8,2.3,1.8,2.3h0.9c0.9,0,1.8-1,1.8-2.3
			S76.5,290.6,75.6,290.6z M200.5,94.6h-0.9c-0.9,0-1.8,1-1.8,2.3s0.8,2.3,1.8,2.3h0.9c0.9,0,1.8-1,1.8-2.3S201.4,94.6,200.5,94.6z
			 M117,114.9h-0.9c-0.9,0-1.8,1-1.8,2.3s0.8,2.3,1.8,2.3h0.9c0.9,0,1.8-1,1.8-2.3C118.7,115.9,117.9,114.9,117,114.9z M305.3,347
			h-0.9c-0.9,0-1.8,1-1.8,2.3s0.8,2.3,1.8,2.3h0.9c0.9,0,1.8-1,1.8-2.3C307.1,348,306.3,347,305.3,347z M273.5,222.8h-0.9
			c-0.9,0-1.8,1-1.8,2.3s0.8,2.3,1.8,2.3h0.9c0.9,0,1.8-1,1.8-2.3S274.4,222.8,273.5,222.8z M354.8,75.1h-0.9c-0.9,0-1.8,1-1.8,2.3
			s0.8,2.3,1.8,2.3h0.9c0.9,0,1.8-1,1.8-2.3C356.6,76.1,355.7,75.1,354.8,75.1z M18,147.8h-0.9c-0.9,0-1.8,1-1.8,2.3
			s0.8,2.3,1.8,2.3H18c0.9,0,1.8-1,1.8-2.3S19,147.8,18,147.8z M17,55.7h-0.9c-0.9,0-1.8,1-1.8,2.3s0.8,2.3,1.8,2.3H17
			c0.9,0,1.8-1,1.8-2.3S17.9,55.7,17,55.7z M34.4,227.4h-0.9c-0.9,0-1.8,1-1.8,2.3s0.8,2.3,1.8,2.3h0.9c0.9,0,1.8-1,1.8-2.3
			S35.4,227.4,34.4,227.4z M10.1,356.3H9.2c-0.9,0-1.8,1-1.8,2.3s0.8,2.3,1.8,2.3h0.9c0.9,0,1.8-1,1.8-2.3
			C11.8,357.3,11,356.3,10.1,356.3z M54.8,371.6H54c-0.9,0-1.8,1-1.8,2.3s0.8,2.3,1.8,2.3h0.9c0.9,0,1.8-1,1.8-2.3
			C56.6,372.6,55.8,371.6,54.8,371.6z M15.2,455.6h-0.9c-0.9,0-1.8,1-1.8,2.3s0.8,2.3,1.8,2.3h0.9c0.9,0,1.8-1,1.8-2.3
			S16.2,455.6,15.2,455.6z M7.7,572.9H6.8c-0.9,0-1.8,1-1.8,2.3s0.8,2.3,1.8,2.3h0.9c0.9,0,1.8-1,1.8-2.3S8.6,572.9,7.7,572.9z
			 M24.3,768.8h-0.9c-0.9,0-1.8,1-1.8,2.3s0.8,2.3,1.8,2.3h0.9c0.9,0,1.8-1,1.8-2.3C26.1,769.8,25.2,768.8,24.3,768.8z M139,715.6
			h-0.9c-0.9,0-1.8,1-1.8,2.3s0.8,2.3,1.8,2.3h0.9c0.9,0,1.8-1,1.8-2.3C140.8,716.5,140,715.6,139,715.6z M95.1,789.4h-0.9
			c-0.9,0-1.8,1-1.8,2.3s0.8,2.3,1.8,2.3h0.9c0.9,0,1.8-1,1.8-2.3S96,789.4,95.1,789.4z M202.9,763.5H202c-0.9,0-1.8,1-1.8,2.3
			s0.8,2.3,1.8,2.3h0.9c0.9,0,1.8-1,1.8-2.3S203.9,763.5,202.9,763.5z M290.9,619H290c-0.9,0-1.8,1-1.8,2.3s0.8,2.3,1.8,2.3h0.9
			c0.9,0,1.8-1,1.8-2.3S291.9,619,290.9,619z M310.3,671.5h-0.9c-0.9,0-1.8,1-1.8,2.3s0.8,2.3,1.8,2.3h0.9c0.9,0,1.8-1,1.8-2.3
			C312.1,672.5,311.2,671.5,310.3,671.5z M491.6,782.5h-0.9c-0.9,0-1.8,1-1.8,2.3s0.8,2.3,1.8,2.3h0.9c0.9,0,1.8-1,1.8-2.3
			S492.5,782.5,491.6,782.5z M421.5,460.4h-0.9c-0.9,0-1.8,1-1.8,2.3s0.8,2.3,1.8,2.3h0.9c0.9,0,1.8-1,1.8-2.3
			C423.3,461.3,422.5,460.4,421.5,460.4z M126.4,521.8h-0.9c-0.9,0-1.8,1-1.8,2.3s0.8,2.3,1.8,2.3h0.9c0.9,0,1.8-1,1.8-2.3
			S127.3,521.8,126.4,521.8z M369.3,580.3h-0.9c-0.9,0-1.8,1-1.8,2.3s0.8,2.3,1.8,2.3h0.9c0.9,0,1.8-1,1.8-2.3
			S370.2,580.3,369.3,580.3z M139.9,391H139c-0.9,0-1.8,1-1.8,2.3s0.8,2.3,1.8,2.3h0.9c0.9,0,1.8-1,1.8-2.3S140.9,391,139.9,391z
			 M613.6,139h-0.9c-0.9,0-1.8,1-1.8,2.3s0.8,2.3,1.8,2.3h0.9c0.9,0,1.8-1,1.8-2.3C615.4,140,614.5,139,613.6,139z M161.1,420.4
			h-0.9c-0.9,0-1.8,1-1.8,2.3s0.8,2.3,1.8,2.3h0.9c0.9,0,1.8-1,1.8-2.3C162.9,421.4,162,420.4,161.1,420.4z M95.2,421.5h-0.9
			c-0.9,0-1.8,1-1.8,2.3s0.8,2.3,1.8,2.3h0.9c0.9,0,1.8-1,1.8-2.3C96.9,422.4,96.1,421.5,95.2,421.5z M530.2,168.3h-0.9
			c-0.9,0-1.8,1-1.8,2.3s0.8,2.3,1.8,2.3h0.9c0.9,0,1.8-1,1.8-2.3S531.1,168.3,530.2,168.3z M562.4,57.6h-0.9c-0.9,0-1.8,1-1.8,2.3
			s0.8,2.3,1.8,2.3h0.9c0.9,0,1.8-1,1.8-2.3C564.1,58.6,563.3,57.6,562.4,57.6z M400.7,144.2h-0.9c-0.9,0-1.8,1-1.8,2.3
			s0.8,2.3,1.8,2.3h0.9c0.9,0,1.8-1,1.8-2.3C402.4,145.2,401.6,144.2,400.7,144.2z M453.8,23.5h-0.9c-0.9,0-1.8,1-1.8,2.3
			s0.8,2.3,1.8,2.3h0.9c0.9,0,1.8-1,1.8-2.3C455.5,24.5,454.7,23.5,453.8,23.5z M311.4,62.5h-0.9c-0.9,0-1.8,1-1.8,2.3
			s0.8,2.3,1.8,2.3h0.9c0.9,0,1.8-1,1.8-2.3C313.2,63.4,312.3,62.5,311.4,62.5z M204.8,6.1h-0.9c-0.9,0-1.8,1-1.8,2.3
			s0.8,2.3,1.8,2.3h0.9c0.9,0,1.8-1,1.8-2.3S205.8,6.1,204.8,6.1z M252.2,289.6h-0.9c-0.9,0-1.8,1-1.8,2.3s0.8,2.3,1.8,2.3h0.9
			c0.9,0,1.8-1,1.8-2.3S253.1,289.6,252.2,289.6z M188.7,323.5h-0.9c-0.9,0-1.8,1-1.8,2.3s0.8,2.3,1.8,2.3h0.9c0.9,0,1.8-1,1.8-2.3
			C190.5,324.4,189.7,323.5,188.7,323.5z M211.8,438.9h-0.9c-0.9,0-1.8,1-1.8,2.3s0.8,2.3,1.8,2.3h0.9c0.9,0,1.8-1,1.8-2.3
			C213.5,439.9,212.7,438.9,211.8,438.9z M161.8,121.4h-0.9c-0.9,0-1.8,1-1.8,2.3s0.8,2.3,1.8,2.3h0.9c0.9,0,1.8-1,1.8-2.3
			S162.7,121.4,161.8,121.4z M414.7,289.9h-0.9c-0.9,0-1.8,1-1.8,2.3s0.8,2.3,1.8,2.3h0.9c0.9,0,1.8-1,1.8-2.3
			S415.6,289.9,414.7,289.9z M390.9,320.2H390c-0.9,0-1.8,1-1.8,2.3s0.8,2.3,1.8,2.3h0.9c0.9,0,1.8-1,1.8-2.3
			C392.7,321.2,391.9,320.2,390.9,320.2z M492.9,342.1H492c-0.9,0-1.8,1-1.8,2.3s0.8,2.3,1.8,2.3h0.9c0.9,0,1.8-1,1.8-2.3
			C494.7,343.1,493.8,342.1,492.9,342.1z M443.4,178.5h-0.9c-0.9,0-1.8,1-1.8,2.3s0.8,2.3,1.8,2.3h0.9c0.9,0,1.8-1,1.8-2.3
			C445.2,179.5,444.4,178.5,443.4,178.5z M458.8,101.5h-0.9c-0.9,0-1.8,1-1.8,2.3s0.8,2.3,1.8,2.3h0.9c0.9,0,1.8-1,1.8-2.3
			C460.5,102.4,459.7,101.5,458.8,101.5z M416.1,60.3h-0.9c-0.9,0-1.8,1-1.8,2.3s0.8,2.3,1.8,2.3h0.9c0.9,0,1.8-1,1.8-2.3
			C417.9,61.3,417,60.3,416.1,60.3z M598.2,313.6h-0.9c-0.9,0-1.8,1-1.8,2.3s0.8,2.3,1.8,2.3h0.9c0.9,0,1.8-1,1.8-2.3
			S599.1,313.6,598.2,313.6z M606.1,384h-0.9c-0.9,0-1.8,1-1.8,2.3s0.8,2.3,1.8,2.3h0.9c0.9,0,1.8-1,1.8-2.3
			C607.9,385,607.1,384,606.1,384z M552.4,345.9h-0.9c-0.9,0-1.8,1-1.8,2.3s0.8,2.3,1.8,2.3h0.9c0.9,0,1.8-1,1.8-2.3
			S553.4,345.9,552.4,345.9z M521.5,385.5h-0.9c-0.9,0-1.8,1-1.8,2.3s0.8,2.3,1.8,2.3h0.9c0.9,0,1.8-1,1.8-2.3
			S522.5,385.5,521.5,385.5z M593.7,585.5h-0.9c-0.9,0-1.8,1-1.8,2.3s0.8,2.3,1.8,2.3h0.9c0.9,0,1.8-1,1.8-2.3
			C595.5,586.4,594.7,585.5,593.7,585.5z M172.6,239h-0.9c-0.9,0-1.8,1-1.8,2.3s0.8,2.3,1.8,2.3h0.9c0.9,0,1.8-1,1.8-2.3
			C174.4,239.9,173.6,239,172.6,239z M389.9,489.5H389c-0.9,0-1.8,1-1.8,2.3s0.8,2.3,1.8,2.3h0.9c0.9,0,1.8-1,1.8-2.3
			S390.8,489.5,389.9,489.5z M142.2,242.2h-0.9c-0.9,0-1.8,1-1.8,2.3s0.8,2.3,1.8,2.3h0.9c0.9,0,1.8-1,1.8-2.3
			S143.1,242.2,142.2,242.2z M472.3,583.7h-0.9c-0.9,0-1.8,1-1.8,2.3s0.8,2.3,1.8,2.3h0.9c0.9,0,1.8-1,1.8-2.3
			C474,584.7,473.2,583.7,472.3,583.7z M133.5,188.2h-0.9c-0.9,0-1.8,1-1.8,2.3s0.8,2.3,1.8,2.3h0.9c0.9,0,1.8-1,1.8-2.3
			C135.2,189.2,134.4,188.2,133.5,188.2z M381.6,683h-0.9c-0.9,0-1.8,1-1.8,2.3s0.8,2.3,1.8,2.3h0.9c0.9,0,1.8-1,1.8-2.3
			C383.3,684,382.5,683,381.6,683z M166,547.8h-0.9c-0.9,0-1.8,1-1.8,2.3s0.8,2.3,1.8,2.3h0.9c0.9,0,1.8-1,1.8-2.3
			C167.7,548.8,166.9,547.8,166,547.8z M121.2,468.2h-0.9c-0.9,0-1.8,1-1.8,2.3s0.8,2.3,1.8,2.3h0.9c0.9,0,1.8-1,1.8-2.3
			S122.1,468.2,121.2,468.2z M172.5,599.7h-0.9c-0.9,0-1.8,1-1.8,2.3s0.8,2.3,1.8,2.3h0.9c0.9,0,1.8-1,1.8-2.3
			C174.2,600.7,173.4,599.7,172.5,599.7z M268.3,481.6h-0.9c-0.9,0-1.8,1-1.8,2.3s0.8,2.3,1.8,2.3h0.9c0.9,0,1.8-1,1.8-2.3
			C270.1,482.6,269.2,481.6,268.3,481.6z M203,681.1h-0.9c-0.9,0-1.8,1-1.8,2.3s0.8,2.3,1.8,2.3h0.9c0.9,0,1.8-1,1.8-2.3
			C204.7,682.1,203.9,681.1,203,681.1z M19.3,664.6h-0.9c-0.9,0-1.8,1-1.8,2.3s0.8,2.3,1.8,2.3h0.9c0.9,0,1.8-1,1.8-2.3
			C21.1,665.6,20.3,664.6,19.3,664.6z M40.6,528.6h-0.9c-0.9,0-1.8,1-1.8,2.3s0.8,2.3,1.8,2.3h0.9c0.9,0,1.8-1,1.8-2.3
			C42.4,529.6,41.6,528.6,40.6,528.6z M529.3,691h-0.9c-0.9,0-1.8,1-1.8,2.3s0.8,2.3,1.8,2.3h0.9c0.9,0,1.8-1,1.8-2.3
			S530.3,691,529.3,691z M469,676.9h-0.9c-0.9,0-1.8,1-1.8,2.3s0.8,2.3,1.8,2.3h0.9c0.9,0,1.8-1,1.8-2.3
			C470.7,677.9,469.9,676.9,469,676.9z M546.2,744.2h-0.9c-0.9,0-1.8,1-1.8,2.3s0.8,2.3,1.8,2.3h0.9c0.9,0,1.8-1,1.8-2.3
			S547.1,744.2,546.2,744.2z M421,620.6h-0.9c-0.9,0-1.8,1-1.8,2.3s0.8,2.3,1.8,2.3h0.9c0.9,0,1.8-1,1.8-2.3S422,620.6,421,620.6z
			 M643,715.1h-0.9c-0.9,0-1.8,1-1.8,2.3s0.8,2.3,1.8,2.3h0.9c0.9,0,1.8-1,1.8-2.3S644,715.1,643,715.1z M371.4,149.8h-0.9
			c-0.9,0-1.8,1-1.8,2.3s0.8,2.3,1.8,2.3h0.9c0.9,0,1.8-1,1.8-2.3C373.1,150.8,372.3,149.8,371.4,149.8z M302.1,161.2
			c-1.3-0.5-2.5,1.9-2.2,3.7c0.2,1.4,1.2,1.8,2.1,1.6c1.6-0.3,1.9-3.3,0.9-4.7C302.6,161.5,302.3,161.3,302.1,161.2z M231.1,177.9
			h-0.9c-0.9,0-1.8,1-1.8,2.3s0.8,2.3,1.8,2.3h0.9c0.9,0,1.8-1,1.8-2.3S232.1,177.9,231.1,177.9z M520.3,269.7
			c0,1.3-0.8,2.3-1.8,2.3h-0.9c-0.9,0-1.8-1-1.8-2.3s0.8-2.3,1.8-2.3h0.9C519.4,267.4,520.3,268.4,520.3,269.7z M1045.3,201h-0.9
			c-0.9,0-1.8,1-1.8,2.3s0.8,2.3,1.8,2.3h0.9c0.9,0,1.8-1,1.8-2.3C1047.1,202,1046.3,201,1045.3,201z M1172.5,29.7h-0.9
			c-0.9,0-1.8,1-1.8,2.3s0.8,2.3,1.8,2.3h0.9c0.9,0,1.8-1,1.8-2.3C1174.2,30.7,1173.4,29.7,1172.5,29.7z M812.7,67.2h-0.9
			c-0.9,0-1.8,1-1.8,2.3s0.8,2.3,1.8,2.3h0.9c0.9,0,1.8-1,1.8-2.3C814.4,68.2,813.6,67.2,812.7,67.2z M1164.2,114.8h-0.9
			c-0.9,0-1.8,1-1.8,2.3s0.8,2.3,1.8,2.3h0.9c0.9,0,1.8-1,1.8-2.3S1165.2,114.8,1164.2,114.8z M961.6,413.6h-0.9
			c-0.9,0-1.8,1-1.8,2.3s0.8,2.3,1.8,2.3h0.9c0.9,0,1.8-1,1.8-2.3C963.4,414.6,962.6,413.6,961.6,413.6z M747.3,290.6h-0.9
			c-0.9,0-1.8,1-1.8,2.3s0.8,2.3,1.8,2.3h0.9c0.9,0,1.8-1,1.8-2.3C749,291.6,748.2,290.6,747.3,290.6z M872.2,94.6h-0.9
			c-0.9,0-1.8,1-1.8,2.3s0.8,2.3,1.8,2.3h0.9c0.9,0,1.8-1,1.8-2.3S873.1,94.6,872.2,94.6z M788.6,114.9h-0.9c-0.9,0-1.8,1-1.8,2.3
			s0.8,2.3,1.8,2.3h0.9c0.9,0,1.8-1,1.8-2.3C790.4,115.9,789.6,114.9,788.6,114.9z M977,347h-0.9c-0.9,0-1.8,1-1.8,2.3
			s0.8,2.3,1.8,2.3h0.9c0.9,0,1.8-1,1.8-2.3S978,347,977,347z M945.2,222.8h-0.9c-0.9,0-1.8,1-1.8,2.3s0.8,2.3,1.8,2.3h0.9
			c0.9,0,1.8-1,1.8-2.3S946.1,222.8,945.2,222.8z M1026.5,75.1h-0.9c-0.9,0-1.8,1-1.8,2.3s0.8,2.3,1.8,2.3h0.9c0.9,0,1.8-1,1.8-2.3
			S1027.4,75.1,1026.5,75.1z M689.7,147.8h-0.9c-0.9,0-1.8,1-1.8,2.3s0.8,2.3,1.8,2.3h0.9c0.9,0,1.8-1,1.8-2.3
			S690.7,147.8,689.7,147.8z M688.7,55.7h-0.9c-0.9,0-1.8,1-1.8,2.3s0.8,2.3,1.8,2.3h0.9c0.9,0,1.8-1,1.8-2.3S689.6,55.7,688.7,55.7
			z M706.1,227.4h-0.9c-0.9,0-1.8,1-1.8,2.3s0.8,2.3,1.8,2.3h0.9c0.9,0,1.8-1,1.8-2.3C707.9,228.4,707.1,227.4,706.1,227.4z
			 M681.8,356.3h-0.9c-0.9,0-1.8,1-1.8,2.3s0.8,2.3,1.8,2.3h0.9c0.9,0,1.8-1,1.8-2.3C683.5,357.3,682.7,356.3,681.8,356.3z
			 M726.5,371.6h-0.9c-0.9,0-1.8,1-1.8,2.3s0.8,2.3,1.8,2.3h0.9c0.9,0,1.8-1,1.8-2.3S727.5,371.6,726.5,371.6z M686.9,455.6H686
			c-0.9,0-1.8,1-1.8,2.3s0.8,2.3,1.8,2.3h0.9c0.9,0,1.8-1,1.8-2.3S687.9,455.6,686.9,455.6z M679.4,572.9h-0.9c-0.9,0-1.8,1-1.8,2.3
			s0.8,2.3,1.8,2.3h0.9c0.9,0,1.8-1,1.8-2.3S680.3,572.9,679.4,572.9z M696,768.8h-0.9c-0.9,0-1.8,1-1.8,2.3s0.8,2.3,1.8,2.3h0.9
			c0.9,0,1.8-1,1.8-2.3C697.7,769.8,696.9,768.8,696,768.8z M810.7,715.6h-0.9c-0.9,0-1.8,1-1.8,2.3s0.8,2.3,1.8,2.3h0.9
			c0.9,0,1.8-1,1.8-2.3C812.5,716.5,811.7,715.6,810.7,715.6z M766.8,789.4h-0.9c-0.9,0-1.8,1-1.8,2.3s0.8,2.3,1.8,2.3h0.9
			c0.9,0,1.8-1,1.8-2.3S767.7,789.4,766.8,789.4z M874.6,763.5h-0.9c-0.9,0-1.8,1-1.8,2.3s0.8,2.3,1.8,2.3h0.9c0.9,0,1.8-1,1.8-2.3
			C876.4,764.5,875.6,763.5,874.6,763.5z M962.6,619h-0.9c-0.9,0-1.8,1-1.8,2.3s0.8,2.3,1.8,2.3h0.9c0.9,0,1.8-1,1.8-2.3
			S963.5,619,962.6,619z M982,671.5h-0.9c-0.9,0-1.8,1-1.8,2.3s0.8,2.3,1.8,2.3h0.9c0.9,0,1.8-1,1.8-2.3S982.9,671.5,982,671.5z
			 M1163.2,782.5h-0.9c-0.9,0-1.8,1-1.8,2.3s0.8,2.3,1.8,2.3h0.9c0.9,0,1.8-1,1.8-2.3S1164.2,782.5,1163.2,782.5z M1093.2,460.4
			h-0.9c-0.9,0-1.8,1-1.8,2.3s0.8,2.3,1.8,2.3h0.9c0.9,0,1.8-1,1.8-2.3C1095,461.3,1094.2,460.4,1093.2,460.4z M798.1,521.8h-0.9
			c-0.9,0-1.8,1-1.8,2.3s0.8,2.3,1.8,2.3h0.9c0.9,0,1.8-1,1.8-2.3S799,521.8,798.1,521.8z M1041,580.3h-0.9c-0.9,0-1.8,1-1.8,2.3
			s0.8,2.3,1.8,2.3h0.9c0.9,0,1.8-1,1.8-2.3S1041.9,580.3,1041,580.3z M811.6,391h-0.9c-0.9,0-1.8,1-1.8,2.3s0.8,2.3,1.8,2.3h0.9
			c0.9,0,1.8-1,1.8-2.3C813.4,392,812.6,391,811.6,391z M832.8,420.4h-0.9c-0.9,0-1.8,1-1.8,2.3s0.8,2.3,1.8,2.3h0.9
			c0.9,0,1.8-1,1.8-2.3S833.7,420.4,832.8,420.4z M766.8,421.5H766c-0.9,0-1.8,1-1.8,2.3s0.8,2.3,1.8,2.3h0.9c0.9,0,1.8-1,1.8-2.3
			C768.6,422.4,767.8,421.5,766.8,421.5z M529.5,221.2h-0.9c-0.9,0-1.8,1-1.8,2.3s0.8,2.3,1.8,2.3h0.9c0.9,0,1.8-1,1.8-2.3
			S530.4,221.2,529.5,221.2z M1072.4,144.2h-0.9c-0.9,0-1.8,1-1.8,2.3s0.8,2.3,1.8,2.3h0.9c0.9,0,1.8-1,1.8-2.3
			C1074.1,145.2,1073.3,144.2,1072.4,144.2z M1125.5,23.5h-0.9c-0.9,0-1.8,1-1.8,2.3s0.8,2.3,1.8,2.3h0.9c0.9,0,1.8-1,1.8-2.3
			C1127.2,24.5,1126.4,23.5,1125.5,23.5z M983.1,62.5h-0.9c-0.9,0-1.8,1-1.8,2.3s0.8,2.3,1.8,2.3h0.9c0.9,0,1.8-1,1.8-2.3
			C984.8,63.4,984,62.5,983.1,62.5z M876.5,6.1h-0.9c-0.9,0-1.8,1-1.8,2.3s0.8,2.3,1.8,2.3h0.9c0.9,0,1.8-1,1.8-2.3
			S877.5,6.1,876.5,6.1z M923.9,289.6H923c-0.9,0-1.8,1-1.8,2.3s0.8,2.3,1.8,2.3h0.9c0.9,0,1.8-1,1.8-2.3S924.8,289.6,923.9,289.6z
			 M860.4,323.5h-0.9c-0.9,0-1.8,1-1.8,2.3s0.8,2.3,1.8,2.3h0.9c0.9,0,1.8-1,1.8-2.3C862.2,324.4,861.3,323.5,860.4,323.5z
			 M883.5,438.9h-0.9c-0.9,0-1.8,1-1.8,2.3s0.8,2.3,1.8,2.3h0.9c0.9,0,1.8-1,1.8-2.3C885.2,439.9,884.4,438.9,883.5,438.9z
			 M833.5,121.4h-0.9c-0.9,0-1.8,1-1.8,2.3s0.8,2.3,1.8,2.3h0.9c0.9,0,1.8-1,1.8-2.3S834.4,121.4,833.5,121.4z M1086.4,289.9h-0.9
			c-0.9,0-1.8,1-1.8,2.3s0.8,2.3,1.8,2.3h0.9c0.9,0,1.8-1,1.8-2.3C1088.2,290.9,1087.3,289.9,1086.4,289.9z M1062.6,320.2h-0.9
			c-0.9,0-1.8,1-1.8,2.3s0.8,2.3,1.8,2.3h0.9c0.9,0,1.8-1,1.8-2.3S1063.6,320.2,1062.6,320.2z M1164.6,342.1h-0.9
			c-0.9,0-1.8,1-1.8,2.3s0.8,2.3,1.8,2.3h0.9c0.9,0,1.8-1,1.8-2.3S1165.5,342.1,1164.6,342.1z M1115.1,178.5h-0.9
			c-0.9,0-1.8,1-1.8,2.3s0.8,2.3,1.8,2.3h0.9c0.9,0,1.8-1,1.8-2.3S1116.1,178.5,1115.1,178.5z M1130.4,101.5h-0.9
			c-0.9,0-1.8,1-1.8,2.3s0.8,2.3,1.8,2.3h0.9c0.9,0,1.8-1,1.8-2.3C1132.2,102.4,1131.4,101.5,1130.4,101.5z M1087.8,60.3h-0.9
			c-0.9,0-1.8,1-1.8,2.3s0.8,2.3,1.8,2.3h0.9c0.9,0,1.8-1,1.8-2.3C1089.6,61.3,1088.7,60.3,1087.8,60.3z M559.4,467.8h-0.9
			c-0.9,0-1.8,1-1.8,2.3s0.8,2.3,1.8,2.3h0.9c0.9,0,1.8-1,1.8-2.3C561.2,468.7,560.3,467.8,559.4,467.8z M567.4,538.1h-0.9
			c-0.9,0-1.8,1-1.8,2.3s0.8,2.3,1.8,2.3h0.9c0.9,0,1.8-1,1.8-2.3S568.3,538.1,567.4,538.1z M513.7,500h-0.9c-0.9,0-1.8,1-1.8,2.3
			s0.8,2.3,1.8,2.3h0.9c0.9,0,1.8-1,1.8-2.3C515.4,501,514.6,500,513.7,500z M1193.2,385.5h-0.9c-0.9,0-1.8,1-1.8,2.3
			s0.8,2.3,1.8,2.3h0.9c0.9,0,1.8-1,1.8-2.3S1194.2,385.5,1193.2,385.5z M844.3,239h-0.9c-0.9,0-1.8,1-1.8,2.3s0.8,2.3,1.8,2.3h0.9
			c0.9,0,1.8-1,1.8-2.3C846.1,239.9,845.3,239,844.3,239z M1061.6,489.5h-0.9c-0.9,0-1.8,1-1.8,2.3s0.8,2.3,1.8,2.3h0.9
			c0.9,0,1.8-1,1.8-2.3S1062.5,489.5,1061.6,489.5z M813.9,242.2H813c-0.9,0-1.8,1-1.8,2.3s0.8,2.3,1.8,2.3h0.9c0.9,0,1.8-1,1.8-2.3
			S814.8,242.2,813.9,242.2z M1143.9,583.7h-0.9c-0.9,0-1.8,1-1.8,2.3s0.8,2.3,1.8,2.3h0.9c0.9,0,1.8-1,1.8-2.3
			C1145.7,584.7,1144.9,583.7,1143.9,583.7z M805.2,188.2h-0.9c-0.9,0-1.8,1-1.8,2.3s0.8,2.3,1.8,2.3h0.9c0.9,0,1.8-1,1.8-2.3
			C806.9,189.2,806.1,188.2,805.2,188.2z M1053.3,683h-0.9c-0.9,0-1.8,1-1.8,2.3s0.8,2.3,1.8,2.3h0.9c0.9,0,1.8-1,1.8-2.3
			C1055,684,1054.2,683,1053.3,683z M837.7,547.8h-0.9c-0.9,0-1.8,1-1.8,2.3s0.8,2.3,1.8,2.3h0.9c0.9,0,1.8-1,1.8-2.3
			C839.4,548.8,838.6,547.8,837.7,547.8z M792.9,468.2H792c-0.9,0-1.8,1-1.8,2.3s0.8,2.3,1.8,2.3h0.9c0.9,0,1.8-1,1.8-2.3
			C794.6,469.2,793.8,468.2,792.9,468.2z M844.2,599.7h-0.9c-0.9,0-1.8,1-1.8,2.3s0.8,2.3,1.8,2.3h0.9c0.9,0,1.8-1,1.8-2.3
			C845.9,600.7,845.1,599.7,844.2,599.7z M940,481.6h-0.9c-0.9,0-1.8,1-1.8,2.3s0.8,2.3,1.8,2.3h0.9c0.9,0,1.8-1,1.8-2.3
			S940.9,481.6,940,481.6z M874.6,681.1h-0.9c-0.9,0-1.8,1-1.8,2.3s0.8,2.3,1.8,2.3h0.9c0.9,0,1.8-1,1.8-2.3
			C876.4,682.1,875.6,681.1,874.6,681.1z M691,664.6h-0.9c-0.9,0-1.8,1-1.8,2.3s0.8,2.3,1.8,2.3h0.9c0.9,0,1.8-1,1.8-2.3
			S692,664.6,691,664.6z M712.3,528.6h-0.9c-0.9,0-1.8,1-1.8,2.3s0.8,2.3,1.8,2.3h0.9c0.9,0,1.8-1,1.8-2.3S713.3,528.6,712.3,528.6z
			 M1140.6,676.9h-0.9c-0.9,0-1.8,1-1.8,2.3s0.8,2.3,1.8,2.3h0.9c0.9,0,1.8-1,1.8-2.3S1141.6,676.9,1140.6,676.9z M1092.7,620.6
			h-0.9c-0.9,0-1.8,1-1.8,2.3s0.8,2.3,1.8,2.3h0.9c0.9,0,1.8-1,1.8-2.3S1093.7,620.6,1092.7,620.6z M1043,149.8h-0.9
			c-0.9,0-1.8,1-1.8,2.3s0.8,2.3,1.8,2.3h0.9c0.9,0,1.8-1,1.8-2.3S1044,149.8,1043,149.8z M973.8,161.2c-1.3-0.5-2.5,1.9-2.2,3.7
			c0.2,1.4,1.2,1.8,2.1,1.6c1.6-0.3,1.9-3.3,0.9-4.7C974.3,161.5,974,161.3,973.8,161.2z M902.8,177.9h-0.9c-0.9,0-1.8,1-1.8,2.3
			s0.8,2.3,1.8,2.3h0.9c0.9,0,1.8-1,1.8-2.3S903.7,177.9,902.8,177.9z"/>
	</g>
	<g id="PLANETS">
		<g>
			<path opacity="0.2" fill="#965AE6" enable-background="new    " d="M377.2,185.9c6.9,15.8,19.1,29.3,35.7,37.1
				c43.3,20.3,97-8.2,106.3-54.6c6.8-34.1-12.1-70.9-44.5-84.1c-8.9-3.6-18.4-6-28-6.5c-31.7-1.6-62,21.2-72,50.8
				C368.3,147.6,369.5,168.3,377.2,185.9z"/>
			
				<linearGradient id="SVGID_4_" gradientUnits="userSpaceOnUse" x1="165.4845" y1="340.5227" x2="242.657" y2="266.1064" gradientTransform="matrix(-0.2922 0.9563 0.9563 0.2922 206.2363 -125.7172)">
				<stop  offset="0" style="stop-color:#965AE6"/>
				<stop  offset="0.5" style="stop-color:#6428B4"/>
				<stop  offset="1" style="stop-color:#3C186C"/>
			</linearGradient>
			<path fill="url(#SVGID_4_)" d="M382.8,183.3c6.4,14.5,17.5,26.8,32.7,34c39.7,18.6,88.9-7.5,97.5-50.1
				c6.3-31.3-11.1-65-40.8-77.1c-8.2-3.3-16.9-5.5-25.7-6c-29.1-1.5-56.9,19.4-66,46.6C374.6,148.2,375.7,167.1,382.8,183.3z"/>
			<path opacity="0.5" fill="#3B176C" enable-background="new    " d="M428.2,184.1c-0.9,2.6-7.6,25.4-9.3,34.7
				c-1.1-0.5-2.2-0.9-3.3-1.5c-4.8-2.3-9.2-5-13.2-8.2c3.7-15.1,8.6-29.9,14.7-44.3c3.4-7.9,7.1-15.7,11.2-23.3
				c3.4-6.3,7.9-11.4,8.4-19c0.3-5.7-0.4-12.1,3-17.1c3.9-5.6,11.2-8,15.6-13.1c1.6-1.9,3.9-4,5.5-6c3.9,1,7.7,2.2,11.4,3.7
				c2.2,0.9,4.3,1.9,6.4,3.1c-0.5,0.6-1,1.2-1.4,1.8c-3.3,4.3-7.1,7.7-7.3,13.3c-0.2,3.9,0.2,8.1-1.6,11.6
				c-2.8,5.5-9.7,7.3-14.6,11.1c-5.2,4.2-7.2,10.3-10,16.1c-0.2,0.4-0.4,0.8-0.6,1.2C437.1,159.7,432.1,171.9,428.2,184.1z
				 M470.4,128.7c-6.3,11-11.3,22.5-15.3,34.6c-0.3,0.9-0.6,1.9-1,2.8c-0.5,1.1-1,2.2-1.7,3.2c-4,6.6-11.1,11.9-8.9,20.6
				c0.6,2.3,1.8,4.6,1.8,7c0,2.6-0.8,5.4-1.3,8c-1.2,6.2-2.1,12.4-2.8,18.6c3.9,0.1,7.9-0.1,11.7-0.7c0.7-6.6,1.7-13.1,2.9-19.6
				c0.5-2.9,1-5.8,2.5-8.3c1.3-2.3,3.5-4,4.5-6.6c1.2-2.9,0.5-6.2,0.3-9.3c-0.6-6.4,3.3-13.2,5.7-19c2.6-6.4,5.4-12.8,8.6-19
				c5.7-11,12.6-21.6,21.4-30.4c-2.8-3.6-6-6.8-9.4-9.8C483.9,107.7,471.6,126.5,470.4,128.7z M508.8,127.1c-0.5,0.5-0.9,1-1.4,1.5
				c-1.2,1.4-1.8,3-3.5,4c-1.1,0.6-2.3,1-3.5,1.6c-2,1-3.8,2.5-5,4.4c-2.1,3.2-2.7,7.1-4.5,10.5s-4.2,6.6-6.1,9.9
				c-4.2,7.4-7.8,15-10.8,23c-4.6,12.2-7.8,25-9.2,37.9c4.1-1.4,8.2-3.1,12-5.1c1.7-10.6,4.6-21,8.5-31c2-5,4.2-9.9,6.7-14.7
				c2-3.8,4.3-8.6,7.5-11.5c1.9-1.7,4.2-2.8,5.8-4.8c2.2-2.8,2.6-6.6,4.3-9.7c0.4-0.6,1.7-2.1,3.1-3.6
				C511.8,135.3,510.4,131.1,508.8,127.1z M410,143.2c5.5-12.7,11.9-25.1,19-37c4.4-7.4,9.1-15,14.5-22.1c-7.5,0-14.9,1.5-21.9,4.1
				c-9.3,15.6-16.8,32.3-23.3,49c-0.4,1-0.9,2-1.3,3c-5.6,13.5-11,27-15.1,41.1c0.3,0.7,0.5,1.3,0.8,2c2.4,5.4,5.4,10.5,9,15.1
				C396.2,179.5,402.2,161,410,143.2z"/>
			<path opacity="0.5" fill="#965AE6" enable-background="new    " d="M463.7,111.4c0.5-3.3-0.1-6.6-2.5-8.5
				c-4.8-4-13.6,0.4-16.4,6.4c-1.6,3.6-2,7.9-0.1,10.9c2.2,3.6,7.4,4.5,11.5,2.4C460.1,120.7,463,116,463.7,111.4z"/>
			<path opacity="0.1" fill="#140036" enable-background="new    " d="M513,167.2c6.3-31.3-11.1-65-40.8-77.1
				c-8.2-3.3-16.9-5.5-25.7-6c-29.1-1.5-56.9,19.4-66,46.6c-5.8,17.4-4.7,36.4,2.4,52.6c6.4,14.5,17.5,26.8,32.7,34
				C455.2,236,504.5,209.8,513,167.2z M445.3,146.6c-2.5-12.8-0.4-27.8,11.5-35.3c14.2-9.1,32.3-1.5,41.4,11.2
				c12,16.8,7.2,50.4-15.8,55.3C462.8,182,448.7,163.9,445.3,146.6z"/>
			<path opacity="0.2" fill="#140036" enable-background="new    " d="M513,167.2c6.3-31.3-11.1-65-40.8-77.1
				c-8.2-3.3-16.9-5.5-25.7-6c-29.1-1.5-56.9,19.4-66,46.6c-5.8,17.4-4.7,36.4,2.4,52.6c6.4,14.5,17.5,26.8,32.7,34
				C455.2,236,504.5,209.8,513,167.2z M423.1,151.5c-3.7-18.4-0.8-39.7,16.4-50.4c20.7-12.9,47.1-1.9,60.5,16.5
				c17.6,24.2,10.9,72.1-22.6,78.9C448.8,202.2,428.1,176.2,423.1,151.5z"/>
			<path opacity="0.3" fill="#140036" enable-background="new    " d="M475.6,215.4c-20.8,0.2-41.1-8.9-54.7-26.9
				c-21-27.8-26.7-68.6-2.7-96.4c1.3-1.5,2.6-2.8,3.9-4.1c-19.2,7.1-35.2,23.3-41.7,42.7c-5.8,17.4-4.7,36.4,2.4,52.6
				c6.4,14.5,17.5,26.8,32.7,34C435.3,226.6,457.3,224.8,475.6,215.4z"/>
			<path opacity="0.3" fill="#140036" enable-background="new    " d="M374.6,128.7c-6.3,19-5.1,39.6,2.6,57.2
				c6.9,15.8,19.1,29.3,35.7,37.1c6.1,2.8,12.3,4.7,18.7,5.7C406.7,199.5,386.5,165,374.6,128.7z"/>
		</g>
		<g>
			<g>
				<path opacity="0.3" fill="#965AE6" enable-background="new    " d="M212.5,13.4c-0.7,0.3-1.4,0.6-2,0.9
					c-0.1,0.1-0.2,0.1-0.4,0.2c-8.2,3.9-14.9,10.8-18.7,19.1c-6.8,14.9-3,32.7,8.4,44.3c10,10.1,25.3,14.5,39.1,10.6
					c22.4-6.2,35.2-31.8,26.3-53.4c-8-19.5-31.2-29.1-50.9-22.3c-0.2,0.1-0.4,0.1-0.5,0.2c-0.3,0.1-0.6,0.2-0.9,0.3
					C212.8,13.3,212.7,13.3,212.5,13.4z"/>
				
					<linearGradient id="SVGID_5_" gradientUnits="userSpaceOnUse" x1="1288.8782" y1="412.0352" x2="1328.0989" y2="372.0453" gradientTransform="matrix(-0.9601 -0.2796 -0.2796 0.9601 1592.0018 35.3455)">
					<stop  offset="0" style="stop-color:#965AE6"/>
					<stop  offset="0.5" style="stop-color:#6428B4"/>
					<stop  offset="1" style="stop-color:#3C186C"/>
				</linearGradient>
				<path fill="url(#SVGID_5_)" d="M214.3,17c-0.6,0.2-1.2,0.5-1.8,0.8c-0.1,0-0.2,0.1-0.3,0.1c-0.2,0.1-0.5,0.2-0.7,0.4
					c-0.2,0.1-0.4,0.2-0.6,0.3c-0.2,0.1-0.4,0.2-0.7,0.4c-0.2,0.1-0.4,0.2-0.6,0.3c-0.2,0.1-0.4,0.3-0.6,0.4
					c-0.2,0.1-0.4,0.2-0.6,0.4c-0.2,0.1-0.4,0.3-0.6,0.4c-0.2,0.1-0.4,0.3-0.6,0.4c-0.2,0.1-0.4,0.3-0.6,0.4
					c-0.2,0.1-0.4,0.3-0.6,0.4c-0.2,0.1-0.4,0.3-0.6,0.4c-0.2,0.2-0.4,0.3-0.6,0.5c-0.2,0.1-0.4,0.3-0.5,0.5
					c-0.2,0.2-0.4,0.3-0.6,0.5c-0.2,0.2-0.3,0.3-0.5,0.5s-0.4,0.4-0.6,0.6c-0.2,0.2-0.3,0.3-0.5,0.5s-0.4,0.4-0.6,0.6
					c-0.1,0.2-0.3,0.3-0.4,0.5c-0.2,0.2-0.4,0.4-0.6,0.7c-0.1,0.2-0.3,0.3-0.4,0.5c-0.2,0.3-0.4,0.5-0.6,0.8
					c-0.1,0.1-0.2,0.3-0.3,0.4c-0.3,0.4-0.6,0.8-0.9,1.3c-2.2,3.3-4.4,7.5-5.3,11.3c0,0.2-0.1,0.3-0.1,0.5c-0.2,0.7-0.3,1.5-0.4,2.2
					c-0.1,0.4-0.1,0.7-0.1,1.1c0,0.4-0.1,0.7-0.1,1.1c0,0.5-0.1,0.9-0.1,1.4c0,0.3,0,0.5,0,0.8c0,0.5,0,1,0,1.5c0,0.2,0,0.5,0,0.7
					c0,0.5,0.1,1,0.1,1.6c0,0.2,0,0.4,0.1,0.6c0.1,0.5,0.1,1,0.2,1.5c0,0.2,0.1,0.4,0.1,0.6c0.1,0.5,0.2,1,0.3,1.5
					c0.1,0.2,0.1,0.4,0.2,0.6c0.1,0.5,0.3,1,0.4,1.4c0.1,0.2,0.1,0.4,0.2,0.6l0,0c0,0.1,0,0.2,0.1,0.3c1.2,3.3,2.5,6.4,4.2,9.3
					c0,0.1,0.1,0.1,0.1,0.2c0.6,1.1,1.3,2.1,2.1,3.1l0,0c0.4,0.5,0.8,1,1.2,1.5l0,0l0,0c0.7,0.8,1.5,1.6,2.4,2.4
					c1.7,1.4,3.5,2.8,5.5,4l0,0c0.7,0.4,1.3,0.8,2,1.1l0,0l0,0c4.3,2.2,9,3.8,13.5,4.4c0.9,0.1,1.9,0.1,2.8,0.1l0,0c0,0,0,0,0.1,0
					c0.6,0,1.1-0.1,1.7-0.2h0.1l0,0c1.2-0.1,2.5-0.3,3.6-0.4c11.6-1.2,22.3-9.5,27-20c1.9-4.1,3.1-8.5,3.5-13.1
					c1.3-14.9-8.9-29.5-22.6-34.7c-8.4-3.1-17.4-3.3-25.4-0.5l0,0c-0.2,0.1-0.3,0.1-0.5,0.2C214.9,16.8,214.7,16.9,214.3,17
					C214.6,16.9,214.4,17,214.3,17z"/>
				<path opacity="0.2" fill="#140036" enable-background="new    " d="M198.3,54c6,1.8,3.9-7.8,6.7-10.1c1.7-1.4,4.3-0.8,6.5-0.7
					c3.7,0.1,7.5-1.6,9.8-4.6c1.5-2,2.5-4.4,4.5-5.9c1.9-1.3,4.5-1.5,6.7-0.7c4.9,1.8,6.1,8,11,9.5c4.6,1.4,9.8,2.3,12.1,7.2
					c0.4,0.8,0.8,1.7,1.4,2.1c0.2,0.2,0.5,0.3,0.9,0.3c0.8,0,1.5-0.8,1.6-1.6c0.5-4-5.2-6.7-5.7-10.6c-0.4-3.2,0.9-5.1-1.1-8.1
					c-1.7-2.6-4.7-4.5-7.9-4.6c-2.4-0.1-4.8,0.8-7.3,0.8c-3.7,0-7-2-10.3-3.5s-7.3-2.6-10.6-1c-3.9,2-5.1,6.9-8,10.2
					c-2.5,2.9-6.1,4.6-9,7.1C196.4,42.5,191.9,52.1,198.3,54z M246.2,29.5c0.6,0.2,1.1,0.4,1.6,0.8c0.8,0.5,1.4,1.1,1.9,1.8
					c3.8,6.2-7.3,10.7-9.8,4.1C238,31.4,241.4,27.8,246.2,29.5z M200.8,64.6c-1.1,1.4-2.7-1.3-3.2-2.1c-1-1.8-1.3-2.9-0.3-4.8
					c0.1-0.2,0.2-0.3,0.4-0.4c0.4-0.2,0.7,0.2,1,0.5c1.1,1.4,1.9,3.1,2.3,4.9c0.1,0.6,0.2,1.3-0.1,1.8
					C200.9,64.5,200.8,64.5,200.8,64.6z"/>
			</g>
			<path opacity="0.2" fill="#140036" enable-background="new    " d="M233.2,19.7c0.7-0.9,2.4-0.7,3.3-0.5c1.2,0.2,2.9,0.8,3.8,1.8
				c0.8,1,0,1.9-1.1,2.1c-1.8,0.2-3.7,0-5.2-1C233.1,21.6,232.5,20.6,233.2,19.7z M202.1,30c0.2-0.3,0.4-0.5,0.6-0.8
				c0.9-1.1,3.5-4,5.1-2.6c0.1,0.1,0.2,0.2,0.2,0.4c0.2,0.6,0.1,1.3-0.2,1.8c-0.8,1.5-3.3,4-5.2,3.9c-0.1,0-0.3,0-0.4-0.1
				c-0.3-0.1-0.4-0.4-0.5-0.7C201.5,31.3,201.7,30.6,202.1,30z"/>
			<path opacity="0.2" fill="#140036" enable-background="new    " d="M207.6,64.9c-0.4,0-0.8-0.2-1.1-0.6c-0.7-1,0.3-2,1.4-1.8
				c1,0.3,1.2,1.6,0.4,2.1C208,64.8,207.8,64.9,207.6,64.9z M230.9,78.5c0.1,0.5-0.2,1.1-1.2,1.7c-1.9,1.1-4.4,1.5-6.5,0.8
				c-1.6-0.5-4.3-2.4-1.8-3.8c2.1-1.1,4.6-1.3,6.9-0.6C229.5,77,230.7,77.7,230.9,78.5z M223.1,66.4c-0.2,3.3-4.4,4-7,3
				c-3.4-1.4-1.5-5.1,1.3-6C219.6,62.7,223.3,63.6,223.1,66.4z M235.1,43.1c-0.2,0.4-0.4,0.8-0.7,1c-1.4,1.3-3.4,1.1-4.9,0.1
				c-3.7-2.6,0.2-8,4-5.8C235.4,39.4,235.9,41.3,235.1,43.1z M255.9,59.1c-0.1,0.5-0.3,1-0.6,1.3c-1.2,1.9-3.3,2-4.9,1.1
				c-4.1-2.3-0.7-9.5,3.4-7.7C255.7,54.7,256.5,56.8,255.9,59.1z M220.3,52.2c1.3,0.4,0.6,2.4-0.6,1.9
				C218.4,53.7,219,51.8,220.3,52.2z M244.7,78.7c-2,0.8-4,0.4-3.9-1.2c0-0.5,0.2-1.2,0.7-2c0.7-1.2,1.9-2,3.2-2.6
				c0.8-0.4,1.6-0.7,2.5-0.7s1.8,0.6,2,1.4C250,76,246.6,78,244.7,78.7z M215.6,75.5c-1.3-0.4-0.6-2.4,0.6-1.9
				C217.5,74,216.8,75.9,215.6,75.5z M247.3,48.1l0.1,0.2c0.6,1.2-1.2,2.1-1.8,0.9l-0.1-0.2C244.9,47.8,246.7,46.9,247.3,48.1z
				 M229.9,52.2c2-1.4,4.4-0.9,5.6,0.7c0.6,0.8,0.9,1.9,0.7,3.2c-0.5,2.8-3.7,5-6.4,4.2C226.4,59.2,227.6,53.9,229.9,52.2z
				 M225.4,36.2c0.4-1.3,2.4-0.6,1.9,0.6l-0.1,0.2c-0.4,1.3-2.4,0.6-1.9-0.6L225.4,36.2z M209.9,50c0.4-0.7,0.9-1.2,1.5-1.6
				c0.5-0.3,1-0.5,1.6-0.5c3-0.2,5.3,2.1,4.9,5c-0.2,1.6-1,3.3-2.3,4.2c-2.6,1.8-5.5-0.3-6.2-3C209,52.7,209.2,51.2,209.9,50z
				 M237,63.9c2.9-0.3,6,1.6,5.1,4.9c-0.7,2.7-4.2,4.7-6.9,4.7c-6.5-0.1-3.5-8.6,1.2-9.5C236.6,63.9,236.8,63.9,237,63.9z"/>
			<path opacity="0.2" fill="#140036" enable-background="new    " d="M192.4,47.4c0,0.3,0,0.5,0,0.8c0,0.5,0,1,0,1.5
				c0,0.2,0,0.5,0,0.7c0,0.5,0.1,1,0.1,1.6c0,0.2,0,0.4,0.1,0.6c0.1,0.5,0.1,1,0.2,1.5c0,0.2,0.1,0.4,0.1,0.6c0.1,0.5,0.2,1,0.3,1.5
				c0.1,0.2,0.1,0.4,0.2,0.6c0.1,0.5,0.3,1,0.4,1.4c0.1,0.2,0.1,0.4,0.2,0.6l0,0c0,0.1,0,0.2,0.1,0.3c1.2,3.3,2.5,6.4,4.2,9.3
				c0,0.1,0.1,0.1,0.1,0.2c0.6,1.1,1.3,2.1,2.1,3.1l0,0c0.4,0.5,0.8,1,1.2,1.5l0,0l0,0c0.7,0.8,1.5,1.6,2.4,2.4
				c1.7,1.4,3.5,2.8,5.5,4l0,0c0.7,0.4,1.3,0.8,2,1.1l0,0l0,0c4.3,2.2,9,3.8,13.5,4.4c0.9,0.1,1.9,0.1,2.8,0.1l0,0c0,0,0,0,0.1,0
				c0.6,0,1.1-0.1,1.7-0.2h0.1l0,0c1.2-0.1,2.5-0.3,3.6-0.4c11.6-1.2,22.3-9.5,27-20c1.9-4.1,3.1-8.5,3.5-13.1
				c1.3-14.9-8.9-29.5-22.6-34.7c-8.4-3.1-17.4-3.3-25.4-0.5l0,0c-0.2,0.1-0.3,0.1-0.5,0.2c-0.3,0.1-0.5,0.2-0.8,0.3
				c-0.1,0.1-0.3,0.1-0.4,0.2c-0.6,0.2-1.2,0.5-1.8,0.8c-0.1,0-0.2,0.1-0.3,0.1c-0.2,0.1-0.5,0.2-0.7,0.4c-0.2,0.1-0.4,0.2-0.6,0.3
				c-0.2,0.1-0.4,0.2-0.7,0.4c-0.2,0.1-0.4,0.2-0.6,0.3c-0.2,0.1-0.4,0.3-0.6,0.4c-0.2,0.1-0.4,0.2-0.6,0.4
				c-0.2,0.1-0.4,0.3-0.6,0.4c-0.2,0.1-0.4,0.3-0.6,0.4c-0.2,0.1-0.4,0.3-0.6,0.4c-0.2,0.1-0.4,0.3-0.6,0.4
				c-0.2,0.1-0.4,0.3-0.6,0.4c-0.2,0.2-0.4,0.3-0.6,0.5c-0.2,0.1-0.4,0.3-0.5,0.5c-0.2,0.2-0.4,0.3-0.6,0.5
				c-0.2,0.2-0.3,0.3-0.5,0.5s-0.4,0.4-0.6,0.6c-0.2,0.2-0.3,0.3-0.5,0.5s-0.4,0.4-0.6,0.6c-0.1,0.2-0.3,0.3-0.4,0.5
				c-0.2,0.2-0.4,0.4-0.6,0.7c-0.1,0.2-0.3,0.3-0.4,0.5c-0.2,0.3-0.4,0.5-0.6,0.8c-0.1,0.1-0.2,0.3-0.3,0.4
				c-0.3,0.4-0.6,0.8-0.9,1.3c-2.2,3.3-4.4,7.5-5.3,11.3c0,0.2-0.1,0.3-0.1,0.5c-0.2,0.7-0.3,1.5-0.4,2.2c-0.1,0.4-0.1,0.7-0.1,1.1
				c0,0.4-0.1,0.7-0.1,1.1C192.4,46.5,192.4,47,192.4,47.4z M232.6,46.6c3.4-0.9,7-1.1,10.3-0.1c14.7,4.2,14.5,20.5,3.6,28.8
				c-10.8,8.3-31.3,4.4-29.8-12.1C217.4,55.6,224.5,48.9,232.6,46.6z"/>
			<path opacity="0.2" fill="#140036" enable-background="new    " d="M192.4,47.4c0,0.3,0,0.5,0,0.8c0,0.5,0,1,0,1.5
				c0,0.2,0,0.5,0,0.7c0,0.5,0.1,1,0.1,1.6c0,0.2,0,0.4,0.1,0.6c0.1,0.5,0.1,1,0.2,1.5c0,0.2,0.1,0.4,0.1,0.6c0.1,0.5,0.2,1,0.3,1.5
				c0.1,0.2,0.1,0.4,0.2,0.6c0.1,0.5,0.3,1,0.4,1.4c0.1,0.2,0.1,0.4,0.2,0.6l0,0c0,0.1,0,0.2,0.1,0.3c1.2,3.3,2.5,6.4,4.2,9.3
				c0,0.1,0.1,0.1,0.1,0.2c0.6,1.1,1.3,2.1,2.1,3.1l0,0c0.4,0.5,0.8,1,1.2,1.5l0,0l0,0c0.7,0.8,1.5,1.6,2.4,2.4
				c1.7,1.4,3.5,2.8,5.5,4l0,0c0.7,0.4,1.3,0.8,2,1.1l0,0l0,0c4.3,2.2,9,3.8,13.5,4.4c0.9,0.1,1.9,0.1,2.8,0.1l0,0c0,0,0,0,0.1,0
				c0.6,0,1.1-0.1,1.7-0.2h0.1l0,0c1.2-0.1,2.5-0.3,3.6-0.4c11.6-1.2,22.3-9.5,27-20c1.9-4.1,3.1-8.5,3.5-13.1
				c1.3-14.9-8.9-29.5-22.6-34.7c-8.4-3.1-17.4-3.3-25.4-0.5l0,0c-0.2,0.1-0.3,0.1-0.5,0.2c-0.3,0.1-0.5,0.2-0.8,0.3
				c-0.1,0.1-0.3,0.1-0.4,0.2c-0.6,0.2-1.2,0.5-1.8,0.8c-0.1,0-0.2,0.1-0.3,0.1c-0.2,0.1-0.5,0.2-0.7,0.4c-0.2,0.1-0.4,0.2-0.6,0.3
				c-0.2,0.1-0.4,0.2-0.7,0.4c-0.2,0.1-0.4,0.2-0.6,0.3c-0.2,0.1-0.4,0.3-0.6,0.4c-0.2,0.1-0.4,0.2-0.6,0.4
				c-0.2,0.1-0.4,0.3-0.6,0.4c-0.2,0.1-0.4,0.3-0.6,0.4c-0.2,0.1-0.4,0.3-0.6,0.4c-0.2,0.1-0.4,0.3-0.6,0.4
				c-0.2,0.1-0.4,0.3-0.6,0.4c-0.2,0.2-0.4,0.3-0.6,0.5c-0.2,0.1-0.4,0.3-0.5,0.5c-0.2,0.2-0.4,0.3-0.6,0.5
				c-0.2,0.2-0.3,0.3-0.5,0.5s-0.4,0.4-0.6,0.6c-0.2,0.2-0.3,0.3-0.5,0.5s-0.4,0.4-0.6,0.6c-0.1,0.2-0.3,0.3-0.4,0.5
				c-0.2,0.2-0.4,0.4-0.6,0.7c-0.1,0.2-0.3,0.3-0.4,0.5c-0.2,0.3-0.4,0.5-0.6,0.8c-0.1,0.1-0.2,0.3-0.3,0.4
				c-0.3,0.4-0.6,0.8-0.9,1.3c-2.2,3.3-4.4,7.5-5.3,11.3c0,0.2-0.1,0.3-0.1,0.5c-0.2,0.7-0.3,1.5-0.4,2.2c-0.1,0.4-0.1,0.7-0.1,1.1
				c0,0.4-0.1,0.7-0.1,1.1C192.4,46.5,192.4,47,192.4,47.4z M232.7,34.9c9.5-2.4,20-1.3,25.6,7.9c8.4,13.7-3.9,31.5-16.4,37.5
				c-17.4,8.4-43.6-2.4-35.9-24.7C209.6,44.7,222.1,37.5,232.7,34.9z"/>
			<path opacity="0.3" fill="#140036" enable-background="new    " d="M191.5,33.5c-3.8,8.4-4.3,17.8-1.9,26.4
				c1.8-2.8,3.8-5.5,5.9-8.1c12-14.4,29.6-24.9,47.8-29.5c3.6-0.9,7.3-1.7,11-2.3c-10.8-8.9-26.1-12.1-39.8-7.4
				c-0.2,0.1-0.4,0.1-0.5,0.2c-0.3,0.1-0.6,0.2-0.9,0.3c-0.2,0.1-0.3,0.1-0.5,0.2c-0.7,0.3-1.4,0.6-2,0.9c-0.1,0.1-0.2,0.1-0.4,0.2
				C202,18.4,195.2,25.3,191.5,33.5z"/>
			<path opacity="0.3" fill="#140036" enable-background="new    " d="M237.5,11.7c-7.5-1.8-15.5-1.6-23.1,0.9
				c-0.2,0.1-0.4,0.1-0.5,0.2c-0.3,0.1-0.6,0.2-0.9,0.3c-0.2,0.1-0.3,0.1-0.5,0.2c-0.7,0.3-1.4,0.6-2,0.9c-0.1,0.1-0.2,0.1-0.4,0.2
				c-8.2,3.9-14.9,10.8-18.7,19.1c-1.4,3.1-2.3,6.3-2.9,9.5c5.6-5.5,11.6-10.5,17.8-15C215.7,21.3,226.3,15.7,237.5,11.7z"/>
		</g>
		<g>
			<path opacity="0.3" fill="#965AE6" enable-background="new    " d="M991.6-156.6c0.9,0.4,1.8,0.9,2.6,1.3
				c0.2,0.1,0.3,0.2,0.5,0.2c10.5,5.9,19,15.6,23.3,26.8c7.9,20.4,1.5,43.7-14.7,58.2c-14.1,12.6-34.8,17.2-52.8,11.1
				c-29.3-10-44.3-45-30.8-73c12.2-25.3,43.7-36.2,69.4-25.7c0.2,0.1,0.5,0.2,0.7,0.3c0.4,0.2,0.8,0.3,1.2,0.5
				C991.2-156.7,991.4-156.6,991.6-156.6z"/>
			
				<linearGradient id="SVGID_6_" gradientUnits="userSpaceOnUse" x1="825.824" y1="-34.9724" x2="861.4588" y2="-91.44" gradientTransform="matrix(0.9209 -0.3897 0.3897 0.9209 216.4317 277.9864)">
				<stop  offset="0" style="stop-color:#965AE6"/>
				<stop  offset="0.5" style="stop-color:#6428B4"/>
				<stop  offset="1" style="stop-color:#3C186C"/>
			</linearGradient>
			<path fill="url(#SVGID_6_)" d="M1016.3-117.3c0,0.2,0.1,0.4,0.1,0.6c1.2,8,0.5,16-2.7,23.5c-3.5,8.2-7.6,15.7-14.8,21.2
				c-7.8,6.1-18.9,10.4-28.9,11.1c-3.5,0.3-7.6-0.8-11.1-1.4c-15.4-2.5-29-14.4-34.5-28.9c-2.2-5.7-3.5-11.7-3.7-17.8
				c-0.6-20,14.2-38.8,33-44.7c21.4-6.6,44.8,1,56.3,20.7C1012.7-128.4,1015.3-122.6,1016.3-117.3z"/>
			<path fill="#3C186C" d="M959.2-108.2c0.5,0.3,1.2,0.3,1.6,0.6c0.6,0.4,1.1,1.3,1.7,1.5c0.9,0.3,1.3-0.6,2.1-0.2
				c0.8,0.4,0.8,1.3,1.2,1.9c0.6,1.2,1.6,2.5,1.7,3.6c0.1,1.5-0.9,2.1-1.6,3.1c-0.4,0.6-0.3,1.3-0.9,1.9c-0.6,0.6-1.4,0.5-2.1,0.9
				c-1.5,0.7-1.7,1.8-2.9,2.7c-1.1,0.8-2,1.2-2.9,2.4c-0.6,0.8-0.8,0.4-0.8,1.4c0,0.7,0.9,1.4,1,2c0.8,3.9-4.8,3.1-5.1,5.7
				c-0.1,1.1,0.9,2.9,0.4,3.9c-0.6,1.5-2.6,0.8-3.8,1c-1.4,0.2-2.8,1.5-4.1,1.5c-1.2,0-3.3-1.6-4.4-2.1c-1.7-0.9-2.1-2.1-3.3-3.4
				c-1.1-1.2-2.4-2-3.4-3.4c-1.7-2.5-3-5.6-3-8.6c0-3.1,1.1-5,1.7-7.9c0.7-2.9-0.9-5-1-7.7c-0.1-4.2-1.1-8.4-1.1-12.6
				c-0.1-4.3-1-8,0.9-12.1c0.3,1.5,0.2,2.4,1.1,3.8c0.4,0.6,0.7,0.6,1,1.4c0.3,0.7-0.1,1.4,0.4,2.1c0.8,1,2.8,1.3,4,1.6
				c1.9,0.6,1.3,1,2.4,2.5c1.1,1.5,1.9,0.4,3.2,1.1c1.4,0.7,1.3,2.6,2.3,3.7c0.5,0.5,1,0.4,1.6,0.8c0.4,0.2,0.9,0.9,1.3,1
				c1.9,0.7,4-0.6,6,0.1C957.3-113,957-109.7,959.2-108.2z M1010-132.9c-5.3-9.1-13.2-15.7-22.3-19.4c-0.7,1.4,0.3,3.4,1.5,4.8
				c0.5,0.6,1.3,0.9,1.7,1.7c0.3,0.7,0.2,1.6,0.4,2.3c0.9,2.7,3.7,4.7,5.3,7c0.8,1.2,0.6,3,1.6,4.1c0.5,0.5,1.2,0.4,1.8,0.9
				s1.2,1.5,1.6,2.1c1.9,2.6,1.6,5.5,2.4,8.5c0.5,1.7,1.1,3.5,1.2,5.3c0,1.4-0.6,2.5-0.7,3.8c-0.1,1.7,1,2.7-1.1,3.5
				c-1.5,0.6-3,0-4.1,1.5c-0.4,0.7-0.3,1.6-0.9,2.2c-0.6,0.6-1.5,0.4-2.2,0.7c-1.9,0.7-1.4,1.3-1.8,3.3c-0.4,2.1-1.3,2.4-2.9,3.6
				c-1.3,1-1.6,2.3-0.6,3.8c1,1.4,2.6,2,3.1,3.9c0.5,1.6-0.4,3,1.1,4.2c1,0.8,2.6,1.1,3.7,1.8c1.2,0.9,1.6,1.5,3.2,1.3
				c1.5-0.2,2.1-1.4,3.1-2c1.3-0.8,2.9-0.4,4-1.4c1.1-1.1,0.4-2.6,0.8-3.9c0.4-1.4,1.6-2.2,2.7-3.1c0.4-0.4,0.8-0.7,1.2-1
				c3.1-7.3,3.7-15.3,2.6-23.1c0-0.2-0.1-0.4-0.1-0.6C1015.3-122.6,1012.7-128.4,1010-132.9z M999.7-75.8c0.3,1.1,1.3,1.3,2.6,0.8
				c2.5-2.4,4.5-5.2,6.3-8.1c-0.3-0.1-0.6-0.2-1-0.3c-1.5-0.2-4.1,1.7-5.1,2.6C1001.5-79.9,999.3-77.2,999.7-75.8z"/>
			<path fill="#C089FF" d="M929.2-128.8c0.8-1.1,1.2-1.6,1.5-2.8c0.3-1.1,0-2.2,1.2-3c3.4-2.4,2.9,4,2.4,5.7
				C933-125.4,927-125.6,929.2-128.8z M972.2-128.1c0.4,0.2,1.9,2.9,1.3,2.9c-1.8,0,0.4,3.8,1.8,0.6c0.6-1.3,0.2-3.2-0.6-4.3
				c-1.3-1.6-4.8-2.1-6.6-1.2c-1.6,0.8-2.1,4,0.3,4.3C970.3-125.5,969.5-129.4,972.2-128.1z M940.4-120c-0.4,1.5,1,3.3,0.1,4.8
				c-0.9,1.6-3.5,1.6-4.3,3.4c-1,2.1,1.2,1.2,1.8,2.7c0.4,0.8-0.7,0.9,0.2,1.9c0.6,0.6,1.9,0.4,2.6,0.8c1.4,0.8,0.9,2.8,2.6,3.1
				c1.2,0.2,3.5-1.4,3.5-2.7c0-1.8-1.5-1.2-2.6-1.8c-2-1.1-0.7-2,0.2-3.5c0.7-1.2,0.2-2.8,0.6-4.1c0.2-0.6,0.6-1,0.7-1.7
				c0.2-0.8-0.2-1.2,0.3-2c0.9-1.4,5.6-2.5,4.5-4.8c-0.7-1.4-5.6,1.1-6.6,1.4C942.5-122,940.8-121.6,940.4-120z M943.1-99.1
				c1.7-0.3,1-2.6-0.5-2.7C940.1-101.9,941.4-98.8,943.1-99.1z M949.3-95.2c1.6,1.9,1.6-1,1.8-1.7c0.6-1.3,2-1.7,1.2-3.3
				c-0.6-1.2-2-1.5-2.8-0.3C949.1-99.7,948.9-95.7,949.3-95.2z M959.5-95.3c1.3,1.1,2.4,2,2.7-0.5c0.1-1-0.8-2.1,0.2-2.7
				c1-0.5,2.4,1.3,1.8-0.9c-0.1-0.6-1.6-1.2-1.2-1.9c0.6-1.1,2.5,0.9,3.2-0.4c0.7-1.2-1.5-2.5,1-3.1c0.6-0.2,1.2,0.6,1.8,0
				c0.8-0.9-0.3-1.3-0.4-2c-0.1-0.9,0.1-1.7,0-2.6c-0.1-0.7-0.5-1.6-1.3-1.4c-1.2,0.3-0.4,1.4-0.5,2.1c-0.4,2.7-1.7,2.3-2.7,0.3
				c-2.5,0-0.9,2.6-1.5,3.6c-0.7,1.2-3.1,0.9-4.2,1.2c-2,0.5-2.2,1.1-2,2.8c0.1,0.8,0.6,0.9,0.3,1.8c-0.3,0.8-1.4,1-1.6,1.9
				C954.4-93.9,958.3-96.2,959.5-95.3z M936.6-99.9c1.4,0.1,1.9-1.5,0.8-2.3l-1-0.1C935.3-101.7,935.2-100,936.6-99.9z M949.3-147.1
				c-0.2,0.4,5-1.1,5.3-1.1c4.2-0.5-0.3,3.6,2.1,3.8c1.1,0.1,3.7-3.4,3.9-4.3C961.1-151.8,950.5-149.2,949.3-147.1z M958.9-64.6
				c-0.1,0.1,2.5,2.2,4.8,3.2c0.8,0.1,1.7,0.3,2.5,0.4c0.1,0,0.2-0.1,0.3-0.1c2.4-1.5-3.4-3.6-4.7-3.9
				C960.9-65.3,959.7-65.2,958.9-64.6z M993.9-98.8c-1.1,0.4-2.3,0.2-3.4,0.5c-3.5,0.9-2.6,3.1,0.7,3c1.7,0,3.2-0.7,4.6-1.7
				c1-0.8,3.4-4,0.2-3.4C995.2-100.2,994.6-99.1,993.9-98.8z M986.2-65.9c0.7,0,1.4,0.1,2.2,0.1c1.9-0.9,3.7-1.8,5.4-2.8
				c-1.5-0.9-3.8-0.4-5.4-0.6c-2.3-0.3-4.7-1-6.5-2.5c-2.7-2.1-1.8-3.7-1.3-6.5c0.2-1,0.9-1.4-0.7-1.5c-0.7-0.1-1.9,0.7-2.3,1.2
				c-0.7,0.7-1.3,1.9-1.2,2.9c0,1.1,1.5,2.2,1.2,3.2c-3.2-0.1-6.2-2.5-8.8,1.1c0.7,1,4.2,0.5,5.4,0.7c2.8,0.4,3.8,1.8,5.9,3.2
				C981.9-66.2,984.2-65.9,986.2-65.9z M966.4-146.9c0.7-1.5-0.4-1.4-1.5-0.6c-1.3,0.9-3,2.8-3.1,4.4c-0.1,1.5,0.8,2.9,1.9,1.1
				c0.6-1,0.6-2.3,1.2-3.3C965.2-145.9,966.1-146.2,966.4-146.9z M974.8-90.8c0.2-1.3,1.2-1.9,0-3c-0.9-0.8-2.3-0.6-3.2,0.1
				c-1,0.8-0.7,2.1-1.5,2.9c-0.9,0.9-3.5,1.2-4.7,1.9c-0.7,0.4-3.7,2.6-1.7,2.9c0.8,0.1,2.7-1.2,3.5-1.6c1.5-0.8,2.3-1.6,4.1-1.5
				c1.3,0.1,3.7,1,4.7-0.6C976.7-90.7,976-91.7,974.8-90.8z M983.9-97.5c-1,0.3-0.6,1.2-1.3,1.6c-1,0.7-2.2,0.2-3.3,0.5
				c-1,0.4-2.3,1.7-1,2.6c1.1,0.8,2.2-0.7,3.2-1.1c1.2-0.5,3.6,0,4.4-1.4C986.5-96.5,985.2-97.9,983.9-97.5z M948.6-139.8
				c-0.5,0.5-1.4,1.5,0.3,1.6c0.8,0,5.2-3.2,4.9-4.2C953.3-143.7,949.2-140.5,948.6-139.8z M954.4-92.5c1.3-0.9-0.3-3.7-1.8-2.3
				C951.6-93.8,953.3-91.7,954.4-92.5z M947.2-72.1c-1.9,0.6-1.1,2.7,0.7,2.6C950.2-69.7,949.7-73,947.2-72.1z M967.2-113.4
				c-0.2-1.3-1.7-7.2-4.3-4.7c-1.6,1.5,0.8,3.7,1.8,4.6C965.6-112.8,967.7-110.7,967.2-113.4z M938-77.5l0.5-0.5
				c0.2-1.1-1.4-3.3-2.6-2.2C934.9-79.3,936.9-77.3,938-77.5z M937.4-75.4c0.3,1,2,2.9,3,3.1c1,0.2,1.9-0.4,1.1-1.7
				C940.8-75.4,938.7-76,937.4-75.4z M955.2-139.4c1.3,1.3,5.5-1.7,3.6-3.3c-1.5-1.3-1.3,0.6-1.6,1.3
				C957.1-141.1,955.4-139.2,955.2-139.4z M941.9-124.7c0.9,1.6,2.7-0.3,3.2-1.2c1.1-1.6,1.5-3.1,3.8-3.5c1.6-0.3,2.6-0.5,2.9-2.1
				c0.1-0.7-0.6-1.4-0.1-2.2c0.4-0.7,1.4-0.5,1.9-1.1c0.7-0.8,0.8-2.2-0.3-2.6c-1.5-0.6-2.4,1.7-3.4,2.2c-0.9,0.5-1.8,0.1-2.8,0.2
				c-1.3,0.2-2.5,0.9-3,2.1s0.1,1.2,0.2,2.2C944.4-128.8,941-126.3,941.9-124.7z M960.1-114.7c-1.3,0.5,0.2,2.9,1,3.3
				C963.1-110.4,962.5-115.7,960.1-114.7z M959.5-109.5c-1.7,0.7-0.4,3.2,1.1,2.6C961.9-107.4,961.1-110.1,959.5-109.5z
				 M956.5-134.5c-0.6,1-2,1.4-2.5,2.4c-0.5,1.1-0.4,2.4,1,1.8c1.1-0.4,1.1-2.2,1.6-3.1c0.7-1.1,2.6-1.9,1.9-3.5
				C957.5-139.7,956.8-135,956.5-134.5z M972.2-112.3c-0.1,0.2-0.4,4.1-0.4,4.1c0.4,1,1.5,0.3,2.1-0.6
				C974.6-110.1,973.9-112.1,972.2-112.3z"/>
			<path opacity="0.1" fill="#140036" enable-background="new    " d="M1010-132.9c-11.4-19.7-34.9-27.3-56.3-20.7
				c-18.8,5.8-33.6,24.6-33,44.7c0.2,6.1,1.5,12.1,3.7,17.8c5.5,14.4,19.1,26.3,34.5,28.9c3.5,0.6,7.6,1.7,11.1,1.4
				c9.9-0.7,21-5,28.9-11.1c7.1-5.5,11.3-13.1,14.8-21.2c3.2-7.4,3.9-15.5,2.7-23.5c0-0.2-0.1-0.4-0.1-0.6
				C1015.3-122.6,1012.7-128.4,1010-132.9z M987-74.2c-6.4,9.6-20.7,11-30.9,7.9c-6.2-1.9-12-5.8-15.3-11.4
				c-3.3-5.6-3.7-13-0.3-18.6c4.3-7,13.3-9.5,21.5-9.3c3.2,0.1,6.7,0.7,10,1.7C985.1-99.7,996.6-88.4,987-74.2z"/>
			<path opacity="0.2" fill="#140036" enable-background="new    " d="M1010-132.9c-11.4-19.7-34.9-27.3-56.3-20.7
				c-18.8,5.8-33.6,24.6-33,44.7c0.2,6.1,1.5,12.1,3.7,17.8c5.5,14.4,19.1,26.3,34.5,28.9c3.5,0.6,7.6,1.7,11.1,1.4
				c9.9-0.7,21-5,28.9-11.1c7.1-5.5,11.3-13.1,14.8-21.2c3.2-7.4,3.9-15.5,2.7-23.5c0-0.2-0.1-0.4-0.1-0.6
				C1015.3-122.6,1012.7-128.4,1010-132.9z M977.5-117.4c13.1,4.2,25.7,13,25.6,28.3c-0.1,24.9-35.8,30.9-53.5,22.3
				c-13.1-6.3-27.1-23.3-19.8-38.4c3.9-8.1,12.4-13.3,21.2-14.9c8.4-1.5,17-0.2,25.1,2.3C976.6-117.7,977.1-117.6,977.5-117.4z"/>
			<path opacity="0.3" fill="#140036" enable-background="new    " d="M991.6-156.6c0.9,0.4,1.8,0.9,2.6,1.3
				c0.2,0.1,0.3,0.2,0.5,0.2c10.5,5.9,19,15.6,23.3,26.8c1.9,5.1,3,10.3,3.3,15.5c-13-8.5-27.9-14.4-41.5-18
				c-19.6-5.1-41-6.1-60.4-0.7c0.1-0.2,0.2-0.4,0.3-0.6c10.3-21.3,34.3-32.4,57-29.1c0.1,0,0.2,0,0.3,0.1c0.6,0.1,1.2,0.2,1.8,0.3
				c0.3,0.1,0.7,0.1,1,0.2c0.5,0.1,1,0.2,1.5,0.3c0.2,0.1,0.5,0.1,0.7,0.2c2.4,0.6,4.8,1.4,7.1,2.3c0.2,0.1,0.5,0.2,0.7,0.3
				c0.4,0.2,0.8,0.3,1.2,0.5C991.2-156.7,991.4-156.6,991.6-156.6z"/>
			<path opacity="0.3" fill="#140036" enable-background="new    " d="M986.8-144.8c-14.9-4.2-29.6-5.9-45.1-5.2
				c-2.6,0.1-5.4,0.3-8.1,0.6c11.9-9.6,27.8-14,43.1-11.7c0.1,0,0.2,0,0.3,0.1c0.6,0.1,1.2,0.2,1.8,0.3c0.3,0.1,0.7,0.1,1,0.2
				c0.5,0.1,1,0.2,1.5,0.3c0.2,0.1,0.5,0.1,0.7,0.2c2.4,0.6,4.8,1.4,7.1,2.3c0.2,0.1,0.5,0.2,0.7,0.3c0.4,0.2,0.8,0.3,1.2,0.5
				c0.2,0.1,0.4,0.2,0.6,0.3c0.9,0.4,1.8,0.9,2.6,1.3c0.2,0.1,0.3,0.2,0.5,0.2c9.9,5.5,18,14.5,22.6,24.9
				C1008.3-136.7,998-141.6,986.8-144.8z"/>
		</g>
		<g>
			<path opacity="0.2" fill="#965AE6" enable-background="new    " d="M793.6,118.6c6.8,7,11.8,15.8,14,25.9
				c6.6,30-14.4,59.5-44.3,64.9c-32.5,5.8-64.4-19.2-64.4-52.7c0-7,0.9-14,3.2-20.6c7.5-21.8,31-36,53.6-34.7
				C770.2,102.2,783.8,108.5,793.6,118.6z"/>
			
				<linearGradient id="SVGID_7_" gradientUnits="userSpaceOnUse" x1="706" y1="335.9587" x2="801.6861" y2="335.9587" gradientTransform="matrix(1 0 0 1 0 -180.467)">
				<stop  offset="0" style="stop-color:#965AE6"/>
				<stop  offset="0.5" style="stop-color:#6428B4"/>
				<stop  offset="1" style="stop-color:#3C186C"/>
			</linearGradient>
			<path fill="url(#SVGID_7_)" d="M788.5,123.3c0.6,0.6,1.2,1.3,1.8,2c0.1,0.1,0.2,0.2,0.3,0.4c0.2,0.3,0.5,0.6,0.7,0.8
				c0.2,0.2,0.4,0.4,0.5,0.6c0.2,0.3,0.4,0.5,0.6,0.8c0.2,0.2,0.4,0.5,0.5,0.7c0.2,0.3,0.4,0.5,0.6,0.8c0.2,0.3,0.4,0.5,0.5,0.8
				c0.2,0.3,0.3,0.5,0.5,0.8s0.3,0.5,0.5,0.8s0.3,0.6,0.5,0.8c0.2,0.3,0.3,0.6,0.5,0.9c0.1,0.3,0.3,0.6,0.4,0.8
				c0.2,0.3,0.3,0.6,0.4,0.9c0.1,0.3,0.3,0.6,0.4,0.8c0.1,0.3,0.3,0.6,0.4,1c0.1,0.3,0.2,0.6,0.4,0.8c0.1,0.3,0.3,0.7,0.4,1
				c0.1,0.3,0.2,0.6,0.3,0.8c0.1,0.3,0.2,0.7,0.4,1.1c0.1,0.3,0.2,0.6,0.3,0.8c0.1,0.4,0.2,0.8,0.3,1.1c0.1,0.3,0.2,0.5,0.2,0.8
				c0.1,0.4,0.2,0.9,0.3,1.3c0.1,0.2,0.1,0.4,0.2,0.7c0.1,0.7,0.3,1.3,0.4,2c0.9,5.2,1.3,11.5,0.3,16.8c0,0.2-0.1,0.4-0.1,0.6
				c-0.2,1-0.4,1.9-0.7,2.9c-0.1,0.5-0.3,1-0.4,1.4c-0.1,0.5-0.3,0.9-0.4,1.4c-0.2,0.6-0.4,1.2-0.7,1.7c-0.1,0.3-0.3,0.7-0.4,1
				c-0.3,0.6-0.6,1.2-0.8,1.8c-0.1,0.3-0.3,0.6-0.4,0.8c-0.3,0.6-0.7,1.2-1,1.8c-0.1,0.2-0.3,0.5-0.4,0.7c-0.4,0.6-0.7,1.2-1.1,1.8
				c-0.2,0.2-0.3,0.5-0.5,0.7c-0.4,0.6-0.8,1.1-1.2,1.7c-0.2,0.2-0.3,0.5-0.5,0.7c-0.4,0.5-0.9,1-1.3,1.5c-0.2,0.2-0.4,0.4-0.6,0.6
				l0,0c-0.1,0.1-0.2,0.2-0.2,0.3c-3.2,3.4-6.6,6.5-10.3,9.1c-0.1,0.1-0.2,0.1-0.2,0.2c-1.4,0.9-2.8,1.8-4.2,2.6l0,0
				c-0.8,0.4-1.5,0.8-2.3,1.1l0,0l0,0c-1.3,0.6-2.7,1.2-4.2,1.6c-2.8,0.9-5.8,1.5-8.9,1.9l0,0c-1,0.1-2,0.2-3.1,0.3l0,0l0,0
				c-6.5,0.4-13.1-0.2-18.9-1.9c-1.2-0.3-2.3-0.9-3.5-1.5l0,0c0,0,0,0-0.1,0c-0.7-0.4-1.4-0.7-2-1.1c0,0-0.1,0-0.1-0.1l0,0
				c-1.4-0.8-2.8-1.7-4.2-2.5c-13.8-7.4-22.4-23.4-22.4-38.8c0-6.1,0.8-12.2,2.8-17.9c6.5-18.9,27-31.3,46.6-30.1
				c12,0.7,23,5.5,31.3,13.2l0,0c0.2,0.2,0.3,0.3,0.5,0.5c0.3,0.3,0.5,0.5,0.8,0.8C788.2,123,788.3,123.2,788.5,123.3z"/>
			<path fill="#965AE6" d="M717.3,161.7c2.8-19.7,32.2-17,42.1-4.3c5.6,7.1,8.4,18.4,1.6,25.2c-11.7,11.9-27.2,10-37.4-1.9
				c-4.1-4.7-6.8-10.9-6.5-17.2C717.2,162.9,717.3,162.3,717.3,161.7z"/>
			<path fill="#6428B4" d="M774,181.9c-1-1.1-0.2-2.9,1.4-2.8c1.6,0.1,2.6,1.9,1.2,3c-0.5,0.4-1.1,0.6-1.7,0.4
				C774.6,182.4,774.3,182.2,774,181.9z M764.9,193.2c0.2-0.3,0.4-0.5,0.6-0.7c0.3-0.3,0.7-0.5,1-0.7c1.9-1.3,3.9-2.4,5.9-3.4
				c3.6-1.8,2.5,2.6,1.4,4.3c-1.4,2.2-4.4,3.5-6.9,3.5c-0.8,0-1.7-0.2-2.1-0.9C764.4,194.6,764.5,193.8,764.9,193.2z M758.5,166.5
				c6.2-1.5,9.6,7.6,3.3,9.8c-2.5,0.8-5.4,0.3-6.7-2.1c-0.3-0.5-0.4-1.1-0.5-1.7C754.2,169.7,755.7,167.2,758.5,166.5z M762.4,162.7
				c-1.9,0.1-2-2.9-0.1-3C764.2,159.6,764.3,162.6,762.4,162.7z M727.6,185.3c0.3-1.2,1.6-2,2.9-2c1.3-0.1,2.5,0.4,3.6,1
				c1.8,0.9,3.6,2.1,4.7,3.8c0.7,1.2,1,2.1,1.1,2.9c0.1,2.4-2.7,2.9-5.7,1.8C731.5,191.7,726.6,188.9,727.6,185.3z M727.9,174.4
				c1.9-0.1,2,2.9,0.1,3S726,174.5,727.9,174.4z M720.3,153.1c9.2,2.6-1.5,16.1-6.5,9.1C710.6,157.7,715.2,151.7,720.3,153.1z
				 M730.8,127.3c-0.3,2.5-2.1,4.8-3.8,6.5c-1.1,1.1-2.3,2.1-3.7,2.5c-0.7,0.2-1.4,0.2-2.1-0.1c-0.7-0.4-1.2-1.2-1.3-2
				c-0.4-3.9,4.1-8.1,7.5-9.2c1.4-0.4,2.5-0.2,3,0.6C730.8,125.9,730.9,126.5,730.8,127.3z M738.7,131.8l-0.3,0.3
				c-1.3,1.4-3.5-0.6-2.2-2l0.3-0.3C737.9,128.4,740,130.4,738.7,131.8z M741.4,147.2c-1.7,2.1-5,3.3-7.6,2.4
				c-2.1-0.7-3.7-3.6-3.1-5.7c0.3-1.4,1.3-2.5,2.4-3.4c2.1-1.7,4.8-1.9,7.2-0.8C743,140.9,744.3,143.5,741.4,147.2z M739.3,173.3
				c-4.2,0.1-7.8-4.3-7.3-8.4c0.2-1.8,1.1-3.2,2.3-4.1c2.3-1.7,5.9-1.5,8.1,1.3C745.1,165.3,744.5,173.1,739.3,173.3z M751.7,179.5
				c2,2.4,1.5,8.3-2.3,8.4c-3.1,0.1-5.8-3.2-5.4-6.3c0.2-1.4,0.8-2.4,1.7-3.1C747.4,177.3,750.1,177.5,751.7,179.5z M757.5,144.2
				c5,0.4,4.3,8.2,2.1,11.1c-0.8,1-1.8,1.8-3,2.1c-0.6,0.2-1.3,0.2-2,0.1c-1.1-0.1-2.2-0.4-3.2-0.9c-1.2-0.6-2.1-1.6-2.7-2.8
				C746.4,148.5,752.6,143.8,757.5,144.2z M761.8,130.3c3.9,5.4-4.8,9.3-8.5,5.1c-0.9-1-1.4-2.5-1.1-3.8c0-0.1,0-0.2,0.1-0.2
				C753.4,127,759.4,127,761.8,130.3z M763.4,120.8c-3.3,0.4-6.6-0.7-9.5-2.4c-1.9-1.1-2.5-3.3-0.3-4.3s5.4-0.6,7.7,0
				c1.7,0.4,4.7,1.3,5.2,3.4C766.9,119.4,765.1,120.6,763.4,120.8z M774.5,127.7c0.1,1.9-2.9,2-3,0.1v-0.3c-0.1-1.9,2.9-2,3-0.1
				V127.7z M778.7,139.6c0.1,1.9-1,4.6-3,5.2c-2,0.5-4.4-1.2-5.8-2.4c-1.7-1.4-2.2-3.8-0.7-5.7c1.3-1.7,3.6-2.3,5.6-1.8
				c0.5,0.1,1,0.3,1.4,0.6c0.9,0.5,1.7,1.3,2.2,2.3C778.5,138.3,778.7,138.9,778.7,139.6z M779.4,165.2c-2.1,3.4-7,5.1-9.8,1.6
				c-1.5-1.9-1.8-4.5-1.5-6.8c0.6-4.2,4.8-6.4,8.9-4.9c0.8,0.3,1.5,0.8,2,1.4c0.7,0.8,1.2,1.8,1.4,2.9
				C780.8,161.3,780.4,163.4,779.4,165.2z M786.6,173.3c0.2-1,0.7-1.8,1.2-2.7c0.6-1.2,1-2.4,1.1-3.7c0.1-0.9,0.1-1.8,0.5-2.5
				c1.9-3.9,5,1.3,4.9,3.5c-0.1,1.9-1.6,5.9-3.9,7.4c-0.8,0.5-1.6,0.7-2.5,0.5C786.9,175.5,786.5,174.3,786.6,173.3z M795,142.6
				c-0.2,0.5-0.6,0.9-1.1,1c-0.2,0-0.5,0-0.7,0c-3.2-0.6-6.5-5.9-7.1-8.8c-0.3-1.1-0.2-2.2,0.4-3.2c0.1-0.2,0.3-0.4,0.5-0.5
				c3.2-1.8,6.4,4.2,7.5,6.5c0.2,0.5,0.5,1,0.6,1.5C795.4,140.3,795.5,141.5,795,142.6z"/>
			<path opacity="0.2" fill="#140036" enable-background="new    " d="M800.8,147.6c-0.1-0.7-0.2-1.3-0.4-2c0-0.2-0.1-0.4-0.2-0.7
				c-0.1-0.4-0.2-0.9-0.3-1.3c-0.1-0.3-0.1-0.5-0.2-0.8c-0.1-0.4-0.2-0.8-0.3-1.1c-0.1-0.3-0.2-0.6-0.3-0.8
				c-0.1-0.4-0.2-0.7-0.4-1.1c-0.1-0.3-0.2-0.6-0.3-0.8c-0.1-0.3-0.3-0.7-0.4-1c-0.1-0.3-0.2-0.6-0.4-0.8c-0.1-0.3-0.3-0.6-0.4-1
				c-0.1-0.3-0.3-0.6-0.4-0.8c-0.1-0.3-0.3-0.6-0.4-0.9c-0.1-0.3-0.3-0.6-0.4-0.8c-0.2-0.3-0.3-0.6-0.5-0.9s-0.3-0.6-0.5-0.8
				c-0.2-0.3-0.3-0.5-0.5-0.8s-0.3-0.6-0.5-0.8c-0.2-0.3-0.3-0.5-0.5-0.8s-0.4-0.5-0.6-0.8c-0.2-0.2-0.4-0.5-0.5-0.7
				c-0.2-0.3-0.4-0.5-0.6-0.8c-0.2-0.2-0.3-0.4-0.5-0.6c-0.2-0.3-0.5-0.6-0.7-0.8c-0.1-0.1-0.2-0.2-0.3-0.4c-0.6-0.7-1.2-1.3-1.8-2
				c-0.1-0.1-0.3-0.3-0.4-0.4c-0.3-0.3-0.5-0.5-0.8-0.8c-0.2-0.2-0.3-0.3-0.5-0.5l0,0c-8.3-7.7-19.4-12.5-31.3-13.2
				c-19.7-1.2-40.1,11.2-46.6,30.1c-2,5.8-2.8,11.8-2.8,17.9c0,15.4,8.6,31.4,22.1,39.2c1.3,0.8,2.7,1.7,4.2,2.5l0,0
				c0,0,0.1,0,0.1,0.1c0.7,0.4,1.3,0.8,2,1.1c0,0,0,0,0.1,0l0,0c1.2,0.6,2.3,1.1,3.5,1.5c5.8,1.7,12.4,2.3,18.9,1.9l0,0l0,0
				c1-0.1,2-0.2,3.1-0.3l0,0c3.1-0.4,6.1-1,8.9-1.9c1.5-0.5,2.9-1,4.2-1.6l0,0l0,0c0.8-0.4,1.6-0.7,2.3-1.1l0,0
				c1.5-0.8,2.9-1.7,4.2-2.6c0.1-0.1,0.2-0.1,0.2-0.2c3.7-2.6,7-5.8,10.3-9.1c0.1-0.1,0.2-0.2,0.2-0.3l0,0c0.2-0.2,0.4-0.4,0.6-0.6
				c0.5-0.5,0.9-1,1.3-1.5c0.2-0.2,0.4-0.5,0.5-0.7c0.4-0.5,0.8-1.1,1.2-1.7c0.2-0.2,0.3-0.5,0.5-0.7c0.4-0.6,0.8-1.2,1.1-1.8
				c0.1-0.2,0.3-0.5,0.4-0.7c0.3-0.6,0.7-1.2,1-1.8c0.1-0.3,0.3-0.6,0.4-0.8c0.3-0.6,0.6-1.2,0.8-1.8c0.1-0.3,0.3-0.7,0.4-1
				c0.2-0.6,0.5-1.1,0.7-1.7c0.2-0.5,0.3-0.9,0.4-1.4c0.2-0.5,0.3-1,0.4-1.4c0.3-1,0.5-1.9,0.7-2.9c0-0.2,0.1-0.4,0.1-0.6
				C802.1,159.2,801.6,152.8,800.8,147.6z M779.2,169.8c2.5,15.2-6,29.5-22.2,30.2c-21.8,1-42.7-15.7-46.8-37.1
				c-3.5-18.6,3.8-36,24.6-33.3c0.8,0.1,1.6,0.2,2.4,0.4C754.5,133.7,776.4,152.6,779.2,169.8z"/>
			<path opacity="0.3" fill="#140036" enable-background="new    " d="M797.6,188.3c-0.1-0.3-0.2-0.6-0.3-0.9
				c-0.2-0.6-0.4-1.3-0.7-1.9c-3.1-8.9-7-17.6-11.5-25.9c-8.3-15.1-19.4-28.8-32.7-39.7c-6.6-5.4-13.8-10.1-21.4-13.9
				c7.8-3.4,16.3-5.1,24.7-4.6c14.5,0.9,28.1,7.2,37.9,17.2c6.8,7,11.8,15.8,14,25.9C811.1,160.4,806.8,176.2,797.6,188.3z"/>
			<path opacity="0.3" fill="#140036" enable-background="new    " d="M807.6,144.5c1.6,7.4,1.6,14.9,0.1,21.9
				c-8.7-14.1-17.1-28-29-40.3c-9.3-9.6-19.8-17-30.4-24.5c2.4-0.2,4.9-0.3,7.3-0.1c14.5,0.9,28.1,7.2,37.9,17.2
				C800.4,125.6,805.4,134.4,807.6,144.5z"/>
		</g>
		<g>
			<path opacity="0.3" fill="#965AE6" enable-background="new    " d="M297.6-67.2c1.1-1.9,2-3.7,2.9-5.7c0.2-0.4,0.4-0.8,0.5-1.2
				c2-4.7,3.4-9.6,4.3-14.6c7.7-45-29.9-97.5-85.4-91.4c-10.8,1.2-20.3,4.5-28.5,9.5c-0.1,0.1-0.2,0.1-0.3,0.2
				c-5.9,3.6-11.1,8.1-15.5,13.2c-0.4,0.4-0.8,0.9-1.2,1.4c-4.9,5.8-8.8,12.4-11.7,19.4c-1.9,4.4-3.3,9-4.4,13.8
				c-5.7,25.4,0.4,53.6,20.3,72.2c20,18.7,50.8,24.9,77.4,15.6c6.2-2.2,11.7-4.8,16.7-7.7c5.2-3.1,9.7-6.5,13.7-10.3
				C290.9-57.3,294.6-62.1,297.6-67.2z"/>
			
				<linearGradient id="SVGID_8_" gradientUnits="userSpaceOnUse" x1="23.838" y1="780.9264" x2="85.3877" y2="687.2635" gradientTransform="matrix(0.8619 0.5071 0.5071 -0.8619 -188.0538 500.4413)">
				<stop  offset="0" style="stop-color:#965AE6"/>
				<stop  offset="0.5" style="stop-color:#6428B4"/>
				<stop  offset="1" style="stop-color:#3C186C"/>
			</linearGradient>
			<path fill="url(#SVGID_8_)" d="M292.9-69.9c1-1.7,1.9-3.5,2.7-5.3c0.2-0.4,0.3-0.7,0.5-1.1c1.9-4.4,3.2-8.9,4-13.6
				c7.2-41.8-27.8-90.6-79.3-84.9c-10,1.1-18.8,4.2-26.4,8.8c-0.1,0.1-0.2,0.1-0.3,0.2c-5.5,3.4-10.3,7.5-14.4,12.2
				c-0.4,0.4-0.7,0.8-1.1,1.3c-4.5,5.4-8.2,11.5-10.9,18c-1.7,4.1-3.1,8.4-4.1,12.8c-5.3,23.6,0.4,49.8,18.9,67.1
				c18.6,17.4,47.2,23.2,71.9,14.5c5.7-2,10.9-4.4,15.5-7.2c4.8-2.9,9-6.1,12.7-9.6C286.7-60.6,290.1-65.1,292.9-69.9z"/>
			<path opacity="0.3" fill="#6428B4" enable-background="new    " d="M286.2-60.4c-1.2,1.3-2.4,2.7-3.7,3.9
				c-3.6,3.5-7.9,6.7-12.7,9.6c-2,1.2-4.1,2.3-6.4,3.4c-15.3-7.9-30.6-15.7-46.7-21.6c-15.8-5.8-32.4-9.8-49.2-10.3
				c-2.9-6.7-4.8-13.9-5.5-21.2c13.1,3.5,26.2,7,39.3,10.5c17.1,4.6,34.3,9.2,51.2,14.4C263.8-68.2,275-64.3,286.2-60.4z M161.6-106
				l34.1,4.6l-4-13.1l-28.9-3.6C162.1-114.1,161.7-110.1,161.6-106z M194.5-109.3c11.3,9.3,24.1,16.6,37.4,22.6
				c12.8,5.7,26.3,10.2,39.8,13.8c6.9,1.8,13.8,3.1,20.7,3.8c0.1-0.2,0.3-0.5,0.4-0.7c1-1.7,1.9-3.5,2.7-5.3
				c0.2-0.4,0.3-0.7,0.5-1.1c1.3-3.1,2.3-6.3,3.1-9.5c-11.3-2.4-31.9-6.7-34.8-7.6c-18.5-5.5-36.1-13.9-51.7-25.2
				c-13.4-9.6-23.4-21.6-34.4-33.4c-3.5,4.2-6.5,8.9-8.9,13.8C177.1-128,184.6-117.5,194.5-109.3z M291.5-136.8
				c-13.2,0.8-26.7-1.9-38.8-6.9c-15.4-6.5-28.6-16.8-38.2-30c-7.1,1.5-13.6,4-19.4,7.3c24.2,29.9,66.7,47.7,104.6,52.4
				C298.2-121.9,295.4-129.6,291.5-136.8z"/>
			<path opacity="0.3" fill="#965AE6" enable-background="new    " d="M233.2-175c19.8,1.2,36.5,10.6,48.4,24
				c-2.8,1.4-5.6,2.6-8.7,3.3c-10.9,2.6-23-1.4-30.7-9.6C237.5-162.2,234.5-168.4,233.2-175z M286-97.2c4.8,1.1,9.9,1.9,14.7,1.6
				c0.7-9.1-0.4-18.4-3.2-27.2c-17.1,1.1-34.8-2.9-49.6-10.4c-11.7-5.9-22.2-14.1-31.3-23.5c-4.1-4.3-8.4-9.1-11.5-14.4
				c-3.8,1.4-7.4,3.1-10.8,5.2c-0.1,0.1-0.2,0.1-0.3,0.2c-2,1.2-3.9,2.5-5.7,3.9c7,15,18.6,28.1,32.2,37.8
				C239.8-110.1,262.8-102.3,286-97.2z M177.6-64.1c-0.9,0.2-2,0.5-3.2,0.8c2.3,3.2,5,6.2,7.9,9c16.7,15.6,41.5,21.9,64.3,16.7
				C233.1-60.7,203.2-70,177.6-64.1z M296.1-76.2c0.1-0.2,0.1-0.4,0.2-0.6c-4.5-0.8-9-1.8-13.5-3.1c-25.4-7.7-52.2-17.4-74.3-32.5
				c-9.3-6.4-18.1-13.9-25.9-22c-3.3-3.4-6.5-7-9.3-10.8c-2.2,3.5-4.1,7.1-5.7,10.9c-0.7,1.7-1.3,3.3-1.9,5.1
				c6.5,7.4,14.1,13.9,22,19.5c-8.6,0.7-17.3,0.5-25.9,0.3c-0.5,8.4,0.3,16.9,2.5,24.9c23.8,3.5,47.2,10.4,69.7,18.8
				c12.3,4.6,24.2,8,36.6,11.8c2.1,0.6,4.1,1.4,6.2,2.2c2-1.6,3.9-3.2,5.7-4.9c4.3-4.1,7.7-8.6,10.4-13.3c1-1.7,1.9-3.5,2.7-5.3
				C295.7-75.5,295.9-75.8,296.1-76.2z"/>
			<path opacity="0.3" fill="#140036" enable-background="new    " d="M287.5-72.4c-14.5-1-29.6-6.1-42.9-10
				c-19.6-5.8-38.7-13.2-57.3-21.4c-11.2-4.9-20.4-10.3-29.4-16.5c-4.8,24.7,1.6,51.8,20.8,69.8c20,18.7,50.8,24.9,77.4,15.6
				c6.2-2.2,11.7-4.8,16.7-7.7c5.2-3.1,9.7-6.5,13.7-10.3c4.6-4.4,8.3-9.2,11.2-14.4c1-1.8,2-3.7,2.8-5.5c-0.4,0.1-0.9,0.1-1.3,0.2
				C295.3-72.1,291.4-72.1,287.5-72.4z"/>
			<path opacity="0.1" fill="#140036" enable-background="new    " d="M295.6-75.1c0.2-0.4,0.3-0.7,0.5-1.1c1.9-4.4,3.2-8.9,4-13.6
				c7.2-41.8-27.8-90.6-79.3-84.9c-10,1.1-18.8,4.2-26.4,8.8c-0.1,0.1-0.2,0.1-0.3,0.2c-5.5,3.4-10.3,7.5-14.4,12.2
				c-0.4,0.4-0.7,0.8-1.1,1.3c-4.5,5.4-8.2,11.5-10.9,18c-1.7,4.1-3.1,8.4-4.1,12.8c-5.3,23.6,0.4,49.8,18.9,67.1
				c18.6,17.4,47.2,23.2,71.9,14.5c5.7-2,10.9-4.4,15.5-7.2c4.8-2.9,9-6.1,12.7-9.6c4.3-4.1,7.7-8.6,10.4-13.3
				C293.9-71.6,294.8-73.3,295.6-75.1z M258.7-142.7c1.4,33.1-62.7,35.6-65.4,3.8C190.3-174.1,257-180.8,258.7-142.7
				C258.7-142.8,258.7-142.8,258.7-142.7z"/>
			<path opacity="0.1" fill="#140036" enable-background="new    " d="M295.6-75.1c0.2-0.4,0.3-0.7,0.5-1.1c1.9-4.4,3.2-8.9,4-13.6
				c7.2-41.8-27.8-90.6-79.3-84.9c-10,1.1-18.8,4.2-26.4,8.8c-0.1,0.1-0.2,0.1-0.3,0.2c-5.5,3.4-10.3,7.5-14.4,12.2
				c-0.4,0.4-0.7,0.8-1.1,1.3c-4.5,5.4-8.2,11.5-10.9,18c-1.7,4.1-3.1,8.4-4.1,12.8c-5.3,23.6,0.4,49.8,18.9,67.1
				c18.6,17.4,47.2,23.2,71.9,14.5c5.7-2,10.9-4.4,15.5-7.2c4.8-2.9,9-6.1,12.7-9.6c4.3-4.1,7.7-8.6,10.4-13.3
				C293.9-71.6,294.8-73.3,295.6-75.1z M284.4-123.9c-1.6,9.8-8.6,18.4-19.9,22.7c-23.7,9.1-57.8-2.2-74.2-20.8
				c-5-5.7-8.2-13.2-7.6-20.7c1-13.3,15.6-23,27.3-26.9c25-8.2,53,1.2,68.4,22.3C283.7-139.7,285.6-131.4,284.4-123.9z"/>
			<path opacity="0.5" fill="#140036" enable-background="new    " d="M233-90.8c-13.5-4.4-27-9.2-40.3-14.4
				c-12.4-4.8-23.8-10.3-34.4-17.8c0,0.1,0,0.1-0.1,0.2c-5.7,25.4,0.4,53.6,20.3,72.2c20,18.7,50.8,24.9,77.4,15.6
				c6.2-2.2,11.7-4.8,16.7-7.7c5.2-3.1,9.7-6.5,13.7-10.3c4.6-4.4,8.3-9.2,11.2-14.4c1.1-1.9,2-3.7,2.9-5.7c0.2-0.4,0.4-0.8,0.5-1.2
				c0.4-1,0.8-2,1.2-3.1c-10.1,0.1-20.1-1.5-30.2-3.7C258.9-83.6,245.9-86.7,233-90.8z"/>
			<defs>
				<filter id="Adobe_OpacityMaskFilter" filterUnits="userSpaceOnUse" x="84.2" y="-159.1" width="294" height="107.6">
					<feColorMatrix  type="matrix" values="1 0 0 0 0  0 1 0 0 0  0 0 1 0 0  0 0 0 1 0"/>
				</filter>
			</defs>
			<mask maskUnits="userSpaceOnUse" x="84.2" y="-159.1" width="294" height="107.6" id="SVGID_1_">
				<g filter="url(#Adobe_OpacityMaskFilter)">
					
						<linearGradient id="SVGID_9_" gradientUnits="userSpaceOnUse" x1="64.2188" y1="713.5692" x2="55.2977" y2="759.0665" gradientTransform="matrix(0.8619 0.5071 0.5071 -0.8619 -188.0538 500.4413)">
						<stop  offset="0" style="stop-color:#FFFFFF"/>
						<stop  offset="1" style="stop-color:#231F20"/>
					</linearGradient>
					<polygon fill="url(#SVGID_9_)" points="411.4,-89.8 81.2,-198.7 52.3,-110.1 392.4,-8.9 					"/>
					<path d="M300-89.8c7.2-41.8-27.8-90.6-79.3-84.9c-10,1.1-18.8,4.2-26.4,8.8c-0.1,0.1-0.2,0.1-0.3,0.2
						c-5.5,3.4-10.3,7.5-14.4,12.2c-0.4,0.4-0.7,0.8-1.1,1.3c-4.5,5.4-8.2,11.5-10.9,18c-0.6,1.4-1.1,2.8-1.6,4.2
						c41.3,21.9,87.2,34.5,132.7,46.3C299.2-85.7,299.7-87.7,300-89.8z"/>
				</g>
			</mask>
			<g mask="url(#SVGID_1_)">
				<g>
					<g>
						<path fill="#965AE6" d="M237-124.7c-66-22.4-111.4-29-125.1-22.5c7.5,13.4,46.8,39.7,112.8,62.1S337.2-60.8,350.9-66
							C339.9-80.6,303-102.3,237-124.7z M228.3-96.6c-45.9-15.6-74.3-30.4-79.9-38.5c9.2-3.3,40.4,2.3,86.3,17.9
							s71.9,29.6,79.8,38.5C305.4-76.2,274.2-81,228.3-96.6z"/>
						<path opacity="0.5" fill="#965AE6" enable-background="new    " d="M238.6-129.6c-81.2-27.5-137.4-34.6-154.4-26.1
							c6.8,17.9,56.5,52,137.7,79.6S362.6-47.9,378.2-56C368.1-73.3,319.8-102,238.6-129.6z M97-151.4c15.4-7.3,66.4,0.1,140.5,25.2
							c74.1,25.2,115.6,49.5,127.8,65.9c-15.4,5.9-67.8,4.2-141.9-21C149.4-106.4,105.5-136.3,97-151.4z"/>
					</g>
				</g>
				<path fill="#965AE6" d="M235.6-120.1c-50.5-17.2-85.6-21.7-95.7-17.9c4.7,9.6,36.2,29.1,86.8,46.3s87,19.6,96.3,15.9
					C316.4-85.2,286.2-103,235.6-120.1z M228.3-96.6c-45.9-15.6-74.3-30.4-79.9-38.5c9.2-3.3,40.4,2.3,86.3,17.9
					s71.9,29.6,79.8,38.5C305.4-76.2,274.2-81,228.3-96.6z"/>
			</g>
		</g>
		<g>
			<path opacity="0.2" fill="#965AE6" enable-background="new    " d="M913,68.6c1.6,4.2,3.8,8.3,6.6,12.4c2.7,3.9,5.9,7.8,9.7,11.5
				c16.4,16.1,41.1,22.1,62,15c20.8-7.1,34.7-26,39-47c0.8-3.9,1.2-7.8,1.4-11.8c0.2-6.3-0.5-12.5-2.1-18.5c-0.1-0.5-0.3-1-0.4-1.4
				c-1.6-5.3-3.9-10.5-7-15.2c-0.1-0.1-0.1-0.2-0.2-0.3c-4.4-6.5-10.2-12.3-17.7-16.9c-38.7-23.6-83.8,2.6-93.2,38.9
				c-1,4-1.6,8.2-1.7,12.4c0,0.4,0,0.7,0,1.1c0,1.7,0.1,3.5,0.2,5.2C910,58.8,911.1,63.7,913,68.6z"/>
			
				<linearGradient id="SVGID_10_" gradientUnits="userSpaceOnUse" x1="265.6671" y1="1062.2787" x2="314.9311" y2="989.5558" gradientTransform="matrix(-0.9863 0.1647 -0.1647 -0.9863 1422.1715 1021.0722)">
				<stop  offset="0" style="stop-color:#965AE6"/>
				<stop  offset="0.5" style="stop-color:#6428B4"/>
				<stop  offset="1" style="stop-color:#3C186C"/>
			</linearGradient>
			<path fill="url(#SVGID_10_)" d="M917,67.2c1.5,3.9,3.5,7.7,6.1,11.5c2.5,3.6,5.5,7.2,9,10.7c15.3,15,38.3,20.5,57.7,13.9
				s32.3-24.2,36.3-43.7c0.7-3.6,1.2-7.3,1.3-11c0.2-5.8-0.5-11.6-2-17.3c-0.1-0.4-0.2-0.9-0.4-1.3c-1.5-5-3.6-9.7-6.5-14.1
				c-0.1-0.1-0.1-0.2-0.2-0.2c-4.1-6.1-9.5-11.5-16.5-15.7c-36-22-78,2.4-86.7,36.2c-1,3.7-1.5,7.6-1.6,11.5c0,0.3,0,0.7,0,1
				c0,1.6,0.1,3.2,0.2,4.9C914.2,58.1,915.2,62.7,917,67.2z"/>
			<path opacity="0.7" fill="#6428B4" enable-background="new    " d="M924.9,31.1c0.2,1.2-0.6,2.4-1.8,2.6
				c-1.2,0.1-2.4-0.6-2.6-1.8v-0.2c-0.2-1.2,0.6-2.4,1.8-2.6c1.2-0.1,2.4,0.6,2.6,1.8V31.1z M930.8,21.2c-2.9,0.5-3.6-4-0.7-4.4
				C932.9,16.3,933.7,20.8,930.8,21.2z M951.5,19.4l0.3-0.1c1.2-0.2,2.4,0.6,2.6,1.8c0.1,1.2-0.6,2.4-1.8,2.6l-0.3,0.1
				c-1.2,0.2-2.4-0.6-2.6-1.8C949.5,20.7,950.2,19.6,951.5,19.4z M967.9-5.1c3.6,3-4.3,4.5-6.5,3.1c-2-1.2,1.8-3.4,4.6-3.5
				C966.8-5.6,967.5-5.5,967.9-5.1z M968.4,13.9c-6.3-3.4,0-12.4,5.3-7.5c0.3,0.3,0.6,0.6,0.8,0.9C976.9,11,972.7,16.2,968.4,13.9z
				 M981.9-0.9c0.1,1.2-0.6,2.4-1.8,2.6h-0.2c-1.2,0.2-2.4-0.6-2.6-1.8c-0.1-1.2,0.6-2.4,1.8-2.6h0.2C980.5-3,981.8-2.1,981.9-0.9z
				 M986.9,21.1c-2.3,0.8-5.4-0.7-5.8-3.2c0-0.3,0-0.5,0-0.8c0.1-2.4,3.1-3.6,5.1-2.9c1.3,0.4,2.2,1.5,2.6,2.6
				C989.5,18.6,989,20.4,986.9,21.1z M1001.5,2.3c1.4,1.1,2.3,3.7-0.5,3c-2.1-0.5-4.4-1.8-5.7-3.5c-0.6-0.9-0.8-2.2,0.7-2.2
				c0.8,0,1.6,0.3,2.3,0.7c0.1,0,0.1,0.1,0.2,0.1C999.6,0.9,1000.6,1.5,1001.5,2.3z M1003.2,28.1l0.3-0.1c1.2-0.2,2.4,0.6,2.6,1.8
				c0.1,1.2-0.6,2.4-1.8,2.6l-0.3,0.1c-1.2,0.2-2.4-0.6-2.6-1.8C1001.2,29.5,1002,28.3,1003.2,28.1z M1020.9,49.2
				c0.5-2.2,3.1-3.6,4-0.8c0.4,1.2,0.5,2.6,0.3,3.9c-0.1,0.7-0.4,1.5-0.9,2s-1.5,0.6-2,0.1c-0.4-0.3-0.7-0.8-0.9-1.2
				C1020.9,51.9,1020.6,50.4,1020.9,49.2z M1017.4,22.2c2.9-0.5,3.6,4,0.7,4.4C1015.2,27.1,1014.5,22.7,1017.4,22.2z M1007.6,17.1
				c-1.1-5.6,7.7-4.4,7.1,0.4c0,0.1,0,0.2,0,0.2C1013.8,21.7,1008.3,20.7,1007.6,17.1z M1019.1,60.4c2.9-0.5,3.6,4,0.7,4.4
				C1017,65.3,1016.3,60.9,1019.1,60.4z M1012.6,44c-1.8-1-3.2-4.7-0.6-5.7c2.2-0.8,4.7-1.2,5.9,1.3c1.1,2.3-0.5,4.2-2.5,4.7
				C1014.5,44.5,1013.5,44.5,1012.6,44z M1014.5,58c-0.9,2.4-3.5,3.5-5.9,3.4c-3.9-0.2-4.6-3.8-3.2-6.8c0.7-1.4,1.9-2.7,3.5-3.1
				c3.1-0.8,5.8,1.7,5.9,4.6C1014.8,56.8,1014.7,57.4,1014.5,58z M1009.3,72.6c2.1,0.2,4.2,1.8,4.8,3.8c1.1,3.8-3.2,7.6-6.9,6.1
				C1001.9,80.4,1003.2,72.1,1009.3,72.6z M991.3,10.8c-0.2-1.2,0.6-2.4,1.8-2.6c1.2-0.1,2.4,0.6,2.6,1.8l0.1,0.3
				c0.2,1.2-0.6,2.4-1.8,2.6c-1.2,0.1-2.4-0.6-2.6-1.8L991.3,10.8z M989.6,45.6c-0.1-1.2,0.6-2.4,1.8-2.6c1-0.2,1.9,0.2,2.5,1
				c0.6,0.9,0.4,2-0.2,2.8c-0.7,1-2.2,1.3-3.1,0.5c-0.5-0.4-0.8-0.9-0.9-1.5C989.7,45.7,989.7,45.6,989.6,45.6z M986.2,31.4
				c-2.8,0.5-3.6-4-0.7-4.4C988.3,26.4,989.1,30.9,986.2,31.4z M987.7,68.4c-0.2-1.2,0.6-2.4,1.8-2.6c1.2-0.1,2.4,0.6,2.6,1.8
				l0.1,0.3c0.2,1.2-0.6,2.4-1.8,2.6c-1.2,0.1-2.4-0.6-2.6-1.8L987.7,68.4z M982.7,57c-3.9,0.1-6.2-5.1-2.9-7.6
				c0.4-0.3,0.9-0.5,1.4-0.7c1.8-0.4,3.8,0.4,4.8,1.9c1.4,2.3,0.6,5.1-1.7,6C983.8,56.8,983.3,57,982.7,57z M981.7,72.9
				c5.2,1.5,3.6,8.8-1.6,8.7C974,81.5,975.5,71.1,981.7,72.9z M971.9,56.6c2.9-0.5,3.6,4,0.7,4.4C969.7,61.5,969,57,971.9,56.6z
				 M973.6,35.2c2.8-0.5,3.6,4,0.7,4.4C971.5,40.1,970.8,35.7,973.6,35.2z M961.6,28.7c0.3-1.6,1.5-3.2,3.1-3.8
				c2.3-0.9,5.1,0.8,5.5,3.2c0.5,3.3-2.3,4.8-5.1,4.7C962.9,32.6,961.2,30.9,961.6,28.7z M956,9.9c-0.1-1.2,0.6-2.4,1.8-2.6
				c1.5-0.2,2.7,0.6,3,2.1c0.1,0.8-0.2,1.7-0.9,2.2s-1.8,0.4-2.6,0c-0.1,0-0.1-0.1-0.2-0.1C956.5,11.2,956.1,10.6,956,9.9z
				 M949.4,4.7c-2.9,0.5-3.6-4-0.7-4.4C951.5-0.2,952.2,4.2,949.4,4.7z M959.2,78.1c4.5-2.1,7.3,6.6,2.1,7.7
				c-0.8,0.2-1.8,0.2-2.6-0.2C955.4,84.3,956.4,79.4,959.2,78.1z M954.6,71.1c-0.1-1.2,0.6-2.4,1.8-2.6h0.2c1.2-0.2,2.4,0.6,2.6,1.8
				c0.1,1.2-0.6,2.4-1.8,2.6h-0.2C956,73.1,954.7,72.3,954.6,71.1z M958.2,49.1c4.8,5.5-3.8,10-7.6,5
				C946.9,49.4,954.6,45,958.2,49.1z M946.2,46c2.9-0.5,3.6,4,0.7,4.4C944.1,50.9,943.4,46.5,946.2,46z M941.6,31.1
				c2.5-5.4,11.2-1.9,7.7,3.7c-1.2,1.8-4.1,3-6,1.6C941.7,35.2,940.8,32.9,941.6,31.1z M941.4,12.6c1.1,0.2,2.3,0.8,2.9,1.8
				c0.5,0.8,0.6,1.8,0.4,2.7c-0.2,1.2-0.8,2.3-1.9,3c-1.2,0.8-2.7,0.6-3.8-0.3C935.9,17.3,936.7,11.7,941.4,12.6z M937.4,33.7
				c-2.8,0.5-3.6-4-0.7-4.4C939.5,28.8,940.3,33.2,937.4,33.7z M939.7,60.6c2.9-0.5,3.6,4,0.7,4.4C937.6,65.6,936.8,61.1,939.7,60.6
				z M938.2,76.4c2.9-0.5,3.6,4,0.7,4.4C936.1,81.3,935.3,76.8,938.2,76.4z M933.8,57.7c5.2,4-1.4,10.9-6.1,6.1
				C924.3,60.2,930,54.8,933.8,57.7z M921.5,42.9c2.9-0.5,3.6,4,0.7,4.4C919.4,47.8,918.6,43.4,921.5,42.9z"/>
			<path opacity="0.1" fill="#140036" enable-background="new    " d="M917,67.2c1.5,3.9,3.5,7.7,6.1,11.5c2.5,3.6,5.5,7.2,9,10.7
				c15.3,15,38.3,20.5,57.7,13.9s32.3-24.2,36.3-43.7c0.7-3.6,1.2-7.3,1.3-11c0.2-5.8-0.5-11.6-2-17.3c-0.1-0.4-0.2-0.9-0.4-1.3
				c-1.5-5-3.6-9.7-6.5-14.1c-0.1-0.1-0.1-0.2-0.2-0.2c-4.1-6.1-9.5-11.5-16.5-15.7c-36-22-78,2.4-86.7,36.2
				c-1,3.7-1.5,7.6-1.6,11.5c0,0.3,0,0.7,0,1c0,1.6,0.1,3.2,0.2,4.9C914.2,58.1,915.2,62.7,917,67.2z M952.1,19
				c0.2-13.4,14.8-20.2,26.5-19.1c16.9,1.5,43.2,21.5,26.7,39.6c-7.3,8-20.9,8.4-32.5,3.9C961.4,39,951.9,29.9,952.1,19z"/>
			<path opacity="0.1" fill="#140036" enable-background="new    " d="M917,67.2c1.5,3.9,3.5,7.7,6.1,11.5c2.5,3.6,5.5,7.2,9,10.7
				c15.3,15,38.3,20.5,57.7,13.9s32.3-24.2,36.3-43.7c0.7-3.6,1.2-7.3,1.3-11c0.2-5.8-0.5-11.6-2-17.3c-0.1-0.4-0.2-0.9-0.4-1.3
				c-1.5-5-3.6-9.7-6.5-14.1c-0.1-0.1-0.1-0.2-0.2-0.2c-4.1-6.1-9.5-11.5-16.5-15.7c-36-22-78,2.4-86.7,36.2
				c-1,3.7-1.5,7.6-1.6,11.5c0,0.3,0,0.7,0,1c0,1.6,0.1,3.2,0.2,4.9C914.2,58.1,915.2,62.7,917,67.2z M964.9,61
				c-18.6-5-38.5-19.6-31.9-41.3c4.7-15.7,22.8-23.6,38-24c24.1-0.7,57.1,20.7,49,48.2c-5.7,19.3-34.3,21.4-51.7,17.9
				C967.1,61.5,966,61.3,964.9,61z"/>
			<path opacity="0.2" fill="#140036" enable-background="new    " d="M947.4,66.1c24.2,9.1,52.1,13.4,78.1,9.2
				c-6.7,14.7-18.4,26.9-34.2,32.2c-20.9,7.1-45.6,1.1-62-15c-3.8-3.7-7-7.6-9.7-11.5c-2.8-4.1-5-8.2-6.6-12.4
				c-1.9-4.9-3-9.8-3.5-14.6c-0.2-1.7-0.2-3.5-0.2-5.2c0-0.4,0-0.7,0-1.1c0-1.5,0.1-3,0.3-4.5C920.7,53.2,934.1,61,947.4,66.1z"/>
			<path opacity="0.3" fill="#140036" enable-background="new    " d="M941.7,82.9c15.5,8.2,32.5,14.2,49.9,16.4
				c4.5,0.6,9,0.9,13.5,1c-4.2,2.9-8.8,5.3-13.8,7c-20.9,7.1-45.6,1.1-62-15c-3.8-3.7-7-7.6-9.7-11.5c-2.8-4.1-5-8.2-6.6-12.4
				c-1-2.6-1.8-5.3-2.4-7.9C919.5,69.4,930,76.8,941.7,82.9z"/>
			<defs>
				<filter id="Adobe_OpacityMaskFilter_1_" filterUnits="userSpaceOnUse" x="868.7" y="18.9" width="200" height="65.1">
					<feColorMatrix  type="matrix" values="1 0 0 0 0  0 1 0 0 0  0 0 1 0 0  0 0 0 1 0"/>
				</filter>
			</defs>
			<mask maskUnits="userSpaceOnUse" x="868.7" y="18.9" width="200" height="65.1" id="SVGID_2_">
				<g filter="url(#Adobe_OpacityMaskFilter_1_)">
					
						<linearGradient id="SVGID_11_" gradientUnits="userSpaceOnUse" x1="279.9061" y1="1001.348" x2="288.2474" y2="1050.3525" gradientTransform="matrix(-0.9863 0.1647 -0.1647 -0.9863 1422.1715 1021.0722)">
						<stop  offset="0" style="stop-color:#FFFFFF"/>
						<stop  offset="1" style="stop-color:#000000"/>
					</linearGradient>
					<polygon fill="url(#SVGID_11_)" points="1061.2,-10 1083,44.5 881.9,118.7 860.6,60.5 					"/>
					<path d="M918.4,70.5c-0.5-1.1-1-2.2-1.4-3.2c-1.8-4.5-2.8-9.1-3.2-13.6c-0.2-1.6-0.2-3.2-0.2-4.9c0-0.3,0-0.7,0-1
						c0.1-3.9,0.6-7.8,1.6-11.5c8.7-33.8,50.7-58.2,86.7-36.2c7,4.3,12.5,9.7,16.5,15.7c0.1,0.1,0.1,0.2,0.2,0.2
						c2.9,4.4,5.1,9.2,6.5,14.1c0.1,0.4,0.2,0.9,0.4,1.3c0.4,1.6,0.8,3.2,1.1,4.9c-3.5,1.7-7.2,3.2-10.9,4.6
						C982.5,53.5,951.4,65.2,918.4,70.5z"/>
				</g>
			</mask>
			<g mask="url(#SVGID_2_)">
				<g opacity="0.5">
					<g>
						<path fill="#965AE6" d="M868.7,78.3c11.6,6.8,50.6,10,105.8-5.1c55.2-15.1,88-37,94.2-49.5c-11.6-8-49.7-6.5-104.9,8.6
							C908.6,47.4,877.8,65,868.7,78.3z M899.1,69.6c6.6-8,28.3-19.2,66.7-29.6c38.4-10.5,64.6-12.6,72.3-8.3
							c-4.6,7.5-28.3,19.1-66.7,29.6C933,71.8,906.8,73.2,899.1,69.6z"/>
					</g>
				</g>
				<path opacity="0.5" fill="#965AE6" enable-background="new    " d="M892,71.6c7.8,4.7,38.4,6.4,80.8-5.2
					c42.3-11.6,68.6-27.6,72.5-36.6c-8.5-5-37.9-4.3-80.2,7.2C922.7,48.5,897.5,62.9,892,71.6z M899.1,69.6
					c6.6-8,28.3-19.2,66.7-29.6c38.4-10.5,64.6-12.6,72.3-8.3c-4.6,7.5-28.3,19.1-66.7,29.6C933,71.8,906.8,73.2,899.1,69.6z"/>
			</g>
		</g>
	</g>
	<g id="MOON">
		<linearGradient id="SVGID_12_" gradientUnits="userSpaceOnUse" x1="600" y1="550" x2="600" y2="800">
			<stop  offset="0" style="stop-color:#64B4FF"/>
			<stop  offset="1" style="stop-color:#2878F0"/>
		</linearGradient>
		<path fill="url(#SVGID_12_)" d="M1202.1,800C1048.2,645.6,835.2,550,600,550S151.8,645.6-2.1,800H1202.1z"/>
		<linearGradient id="SVGID_13_" gradientUnits="userSpaceOnUse" x1="627.663" y1="800" x2="627.663" y2="550.0604">
			<stop  offset="0" style="stop-color:#28A050"/>
			<stop  offset="1" style="stop-color:#28A050;stop-opacity:0"/>
		</linearGradient>
		<path fill="url(#SVGID_13_)" d="M900.1,768.2c-4.5-8-9.6-18.6,2.8-14.2c9.9,3.6,19.4,13.5,27.5,20c10.4,8.4,20.4,17.4,30.8,25.9
			h70.4c-0.1-4.9-1-9.4-2.9-12.7c-9.3-16-21-21.6-38.9-21.8c-16.7-0.2-28.1-3.1-36.4-19.2c22.4-6.8,50.5-9.3,73.3-3.8
			c14,3.4,18.7,11.7,30.9,19.7c7.1,4.6,15,8.4,22,13c11.8,7.8,23.6,16.8,36,24.7h32.8c-0.8-1.4-1.7-2.9-2.7-4.5
			c-4.5-6.6-12.6-11.3-17.3-17.8c-5-7-3.8-16.7-7.2-24.3c-5.4-11.9-13.2-23.7-20-35.4c8.1,10.8,25.1,19.1,36.3,26.4
			c5.2,3.4,10.5,6.9,15.7,10.3c-110.6-94.9-246-161.8-395-189.9c0.7,7.7,1.5,13.9,3.3,14c2.2,0.1,19.9-16.3,19.4-6
			c-0.5,9.2-9.8,23.4-15.9,34.3c-3.9,6.8-1.7,8.3-10.8,13c-3.7,1.9-9.4,8-12.9,7.6c-4.6-0.4-6.6-16.6-12.6-6.4
			c-4.1,7,3.9,14.3,3.8,21c-0.3,20.5-30.5,35-28.3,54.2c0.9,7.6,13.2,17.2,6.9,24.4c-4.6,5.3-16.6,1.3-22.4,5.6
			c-6.9,5.2,2.6,16.3,5.8,21.8c3.5,6.1,9.5,19.7,14.3,20.1c16.7,1.4,19.7-51,43.4-60.7c3.7-1.5,2.1-5.4,5.9-5.2
			c6.2,0.3,15.4,6.2,20.6,10.8c6.3,5.6,11.9,21.2,17.6,22.3c11.4,2.3-4.4-27-9.4-32.4c-1.9-2-23.4-24.1-10.1-18.6
			c19.7,8.1,28.8,33.8,44.6,46.5c5.1,4.1,40.8,19.2,27.6,0.9c7-4,23.3,10.2,29.5,14.2c-15.3,4.6-32.6,0.1-46.9,4.7
			c-17.3,5.6-24.7,21.2-44.9,11.3c-16.4-8-14.4-22-36.2-15.1c-19,6-28.8,22.3-39.7,37.9c-3.6,5.1-8.1,10.1-12.7,15h237.4
			C922.7,790.8,907.8,782,900.1,768.2z M920.8,640.9c0,0,12.7,7.2,13.2,12.1C926.6,655.3,920.4,641.2,920.8,640.9z M837.9,693
			c-0.9,2.6-2.1,5-3.5,7.3c-11.4-0.4-8.9-32.3-9.2-40.3c3.3,3.9,11.7,10.7,15.2,9.8c4-1,4.3-10,2.6-9.7c2-0.3,3.9-4.7,10.4-1.3
			c7.3,3.8,12.8,13.1,20,18.8C862,681.2,840.5,676.4,837.9,693z M102.4,799.6c8.1-12,29.1-25.5,27.3-41.3c-1.1-9.2-3-7.4-7.8-11.5
			c-1-0.8-15.1,3.4-15.4,2.3c-2.9-11.8,9.7-16.1,18.6-19.3c12.2-11.4,2.9-19.1-9.8-21.7c-2.4-0.5-4.9-0.9-7.4-1.2
			c59.1-42,123.8-76.7,192.7-102.6c5-0.5,10.1-0.8,15.1-1c-0.9-1-0.9-2.5-0.2-4.4c82.6-29.3,171-46.2,263.1-48.5
			c3.7,17.6-14.2,30.8-27.3,39.6c-10.3,6.9-19.3,10.2-31.7,10.9c-6.4,0.3-20,3.7-18.1-4.5c0.6-2.7,6.1-6.6,7.8-8.9
			c3.1-4.3,5.5-9.3,7-13.9c5.4-16.3-20.5,6.9-23,9.5c-3.8,3.9-25.9,26.1-20,30.2c-12.1,2.7-25.1,1.3-36.5,6.2
			c-14.4,6.1-39.1,19.8-44.8,32.9c-4.2,9.5,23.1,7.6,27.5,10.1c6.8,3.9,12.2,23.2,19.5,23.7c19,1.2,26.3-52.7,43.5-65.7
			c14-10.7,49.4-7.7,62.1,4.4c7.6,7.3,23.9,27.8,21.5,38.6c-2.3,10.4-18,16.7-27.1,22.2c-21.4,13.2-47.2,23.5-65.6,41.3
			c-4.9,4.7-2.1,12.4-7.2,16.9c-4.2,3.8-8.9,1.9-12.6,4.8c-6.4,5-14.7,8.2-21,13.5c-5.9,5,0,10.4-5.2,15.7
			c-9.3,9.6-23.5,14.2-33.9,22.2H102.2C102.3,799.9,102.4,799.7,102.4,799.6z M745,562.3c-0.4,4.1-0.5,8.1,0.1,12
			c1.5,9.1,11.1,13.4,11.1,24.4c0,6.6-3.4,15.1-10.2,16.5c-5.3,1.1-7.3-11.4-10.7-11.1c-11.6,1.4-15.2,15.9-19-3.9
			c-2.3-12.4-1.5-27.4,0.9-42.2C726.6,559.3,735.8,560.8,745,562.3z M609.5,550.1c18,0.2,35.9,1,53.6,2.3c-1,1-2,2-2.9,3
			c-4.2,4.5-6.7,10.6-9.2,16.8c4.3-1.8,8-1.6,10,2.9c6.4,14.5-12.2,31.4-20.7,41.1c-7.2-1.9-7.2-11.4-8.6-19.2
			C610.1,607.6,606.6,568.5,609.5,550.1z M689.2,622.5c4.8,10.5,18.9,20.5,22.9,28.1c3.1,5.9-12.4,33.5-19.6,20.3
			C703.3,665,664.3,620.8,689.2,622.5z"/>
	</g>
	<g id="erde">
		
			<ellipse transform="matrix(0.9992 -3.889656e-02 3.889656e-02 0.9992 -29.1902 23.9147)" display="none" opacity="0.2" fill="#765DA3" cx="600" cy="762.1" rx="250" ry="212"/>
	</g>
	<g id="CLOUDS_2_">
		<g id="CLOUDS">
			<path fill="#FFFFFF" d="M353.5,652.8c-7.2-2.4-13.5-1.1-18.5,1.8c-10.1-16.1-28.2-13.1-36,3c-2-5-7.2-9.1-13.2-8.2
				c-6,0.9-10.4,6.8-9.2,12.3c-1.2-6.5-7.1-11.7-14-13.7c-6.8-2-14.4-1-20.9,1.6c-6.4,2.5-12.2,6.7-15.2,12.4
				c-3,5.7-2.8,13.2,1.6,18.1c-17.4-5.6-28.2,4.2-23.4,22c-3.9,0.9-6.1,6.2-3.8,9.5c0.4,0.6,1,1.2,1.7,1.3c0.6,0.1,1.1-0.1,1.6-0.3
				c11.1-4,20.6-11.1,31.4-15c12.4-4.4,24.2-10.3,36.4-15.3c24.3-10,62.8-21,81.8-25C356.4,656.8,356.1,653.7,353.5,652.8z"/>
			<path fill="#FFFFFF" d="M547.9,610.6c-2-9.5-10.8-17.1-20.4-17.7c-9.7-0.6-19.3,5.9-22.4,15.1c-2.1-11.1-14.1-19.3-25.2-17.3
				c-11.1,2-19.5,13.9-17.6,25c-0.6-5.1-6.5-8.9-11.4-7.3c-4.9,1.6-7.4,8.1-4.9,12.6c-5.2-6.4-14.5-9.9-22.1-6.8
				c-7.6,3.2-11.5,13.9-6.4,20.4c-4.4-5.5-25.6,6.6-22.6,14.4c26.5-6.8,55.4-13.2,86.5-18.5c29.9-5.1,58.3-8.7,84.6-11
				C566.3,607.7,548.3,612.6,547.9,610.6z"/>
			<path fill="#FFFFFF" d="M443.9,690c0.8-6.7-8.4-12.3-13.5-14.8c-6.6-3.2-14.4-4.3-21.6-2.5c-14.4,3.6-25.1,18.4-24,33.2
				c-0.6-8-12.1-3.4-14.4,0.2c-1.8,2.8-2.3,6.5-1.3,9.7c0.4,1.1,0.9,2.2,1.8,3c1.5,1.3,3.6,1.5,5.5,1.1c1.9-0.4,3.6-1.3,5.4-2
				c9.7-4.2,21.4-6,31.6-8.6c11.6-2.9,23.4-5.3,35.2-7.4c6-1.1,71-12.1,71.4-10.2c-0.7-3.1-1.7-6.5-4.2-8.4
				c-2.6-1.9-7.3-0.8-7.5,2.4c-5.2-11.3-16.2-20.6-28.6-20.7c-14.2-0.2-22.6,10.6-23.7,23.7c0.3-3.1-3.1-5.8-6.2-5.3
				C446.7,684,444.3,686.9,443.9,690z"/>
			<path fill="#FFFFFF" d="M199.3,665.4c-1.7-3.6-5.7-5.9-9.6-5.6c-3.9,0.3-7.6,3.2-8.7,7c-7.2-7.4-19.2-9.6-28.5-5.3
				c-9.6,4.5-14.7,14.7-14.4,24.9c-0.2-7.4-15.4,1-16.3,6.8c-4.1,0-7.4-3.1-11.7-1.9c-3.1,0.9-5.6,3.2-7.3,5.9
				c-3,4.8-3.6,11.1-1.6,16.4C108.2,709.8,199.2,665.2,199.3,665.4z"/>
			<path fill="#FFFFFF" d="M436.7,591.5c0.8-3.5-1.5-7.5-5-8.5c-3.5-1-7.6,1.2-8.7,4.7c-1.7-9.2-11.9-15.8-21-13.6
				c-9.1,2.2-15.1,12.8-12.4,21.7c-2-4.3-6.9-7-11.5-6.4c-4.7,0.6-8.7,4.5-9.5,9.1c0.6-3.2-5.1-8.3-7.5-9.7
				c-4.3-2.4-10.1-2.2-13.9,0.8c-4.9,3.8-5.9,11.8-2,16.7c-2.9-2.1-9.4-1.7-10.7,2.2c-0.7,2.1-0.1,4.4,0.7,6.5
				c0.2,0.4,0.4,0.9,0.8,1.1c0.4,0.2,0.8,0,1.2-0.1C359,608.8,404.6,596.5,436.7,591.5z"/>
			<path fill="#FFFFFF" d="M536.1,558.3c-7,0.2-13.2,6.8-12.9,13.8c-1-1.9-2.7-3.6-4.8-4.1c-2.1-0.5-4.6,0.2-5.7,2.1
				c-1.2,1.8-0.6,4.6,1.3,5.7c-0.1,1-0.3,0.6,0.7,1s2,0.3,3.1,0.3c11-0.6,21.9-2.4,32.9-3.2c14.4-1,2.8-8.6-0.7-2.7
				C549.2,564.2,543.2,558.1,536.1,558.3z"/>
			<path fill="#FFFFFF" d="M189.2,724c-2.7,0.4-5.5-1.8-5.9-4.5c-0.7-4.9,6.4-8,10-5C196.7,717.2,192.7,723.6,189.2,724z"/>
			<path fill="#FFFFFF" d="M285.3,635c-2.4,0.3-4.9-1.6-5.2-4c-0.6-4.4,5.7-7.1,8.9-4.5C291.9,628.9,288.3,634.5,285.3,635z"/>
			<path fill="#FFFFFF" d="M321.7,621.9c1.1-0.4,2.2-0.8,3.2-1.3c1.1-0.5,2.1-1.5,2.3-2.7c0.7-5.7-7.5-8.5-11.6-6.1
				c-3.1,1.8-4.6,5.9-3.4,9.3c-0.5-1.7-2-3-3.8-3.4c-1.7-0.4-3.6,0-5.2,0.8c-3.2,1.6-5.5,5.4-4.3,8.7c0.2,0.5,0.6,1.1,1.2,1.1
				c0.2,0,0.4-0.1,0.6-0.1C307.4,625.9,314.9,624.3,321.7,621.9z"/>
		</g>
		<g id="CLOUDS_1_">
			<path fill="#FFFFFF" d="M655.5,614.4c6.7-3.7,13.1-3.6,18.5-1.6c7-17.7,25.4-18,36-3.6c1-5.3,5.4-10.3,11.5-10.4
				c6-0.2,11.5,4.8,11.3,10.4c0-6.6,4.9-12.8,11.2-16c6.4-3.2,13.9-3.6,20.9-2.2c6.7,1.3,13.2,4.4,17.2,9.5c4,5.1,5.1,12.4,1.7,18.1
				c16.1-8.7,28.5-1,27,17.4c4,0.1,7.1,5,5.5,8.7c-0.3,0.7-0.7,1.3-1.4,1.6c-0.5,0.2-1.1,0.1-1.7,0c-11.6-1.9-22.2-7.2-33.6-9.1
				c-13-2.1-25.6-5.7-38.6-8.5c-25.7-5.4-65.5-9.2-85-9.7C653.3,618.8,653.1,615.7,655.5,614.4z"/>
			<path fill="#FFFFFF" d="M732.1,685.9c2.5-9.4,11.6-16.5,21.3-16.6c9.7-0.1,19,6.9,21.6,16.2c2.7-11,15.1-18.6,26.1-16
				c11,2.6,18.8,14.9,16.3,25.9c0.9-5.1,6.9-8.5,11.7-6.7c4.8,1.9,7,8.5,4.2,12.8c5.5-6.1,15-9.2,22.4-5.6
				c7.5,3.5,10.8,14.5,5.3,20.7c4.7-5.3,25.3,7.9,21.8,15.6c-26.1-8.2-54.6-16-85.4-23c-29.6-6.7-57.7-11.7-84-15.4
				C714,682.1,731.6,687.9,732.1,685.9z"/>
			<path fill="#FFFFFF" d="M917.9,669.4c0.1-6.7,10-11,15.4-12.8c7-2.3,14.8-2.3,21.7,0.5c13.8,5.6,22.3,21.7,19.3,36.2
				c1.7-7.8,12.4-1.7,14.3,2.2c1.4,3,1.4,6.7-0.1,9.7c-0.5,1.1-1.2,2.1-2.2,2.7c-1.6,1.1-3.8,1-5.6,0.3s-3.4-1.8-5.1-2.8
				c-9-5.4-20.3-8.9-30.1-12.8c-11.1-4.5-22.4-8.5-33.8-12.2c-5.8-1.9-68.7-21.7-69.4-19.9c1.2-3,2.5-6.2,5.4-7.7
				c2.8-1.5,7.3,0.3,7.1,3.4c6.7-10.5,18.9-18.1,31.2-16.6c14.1,1.8,20.9,13.6,20.2,26.8c0.2-3.1,3.9-5.3,6.9-4.4
				C916,663.1,917.9,666.3,917.9,669.4z"/>
			<path fill="#FFFFFF" d="M1000.7,665.4c1.7-3.6,5.7-5.9,9.6-5.6c3.9,0.3,7.6,3.2,8.7,7c7.2-7.4,19.2-9.6,28.5-5.3
				c9.6,4.5,14.7,14.7,14.4,24.9c0.2-7.4,15.4,1,16.3,6.8c4.1,0,7.4-3.1,11.7-1.9c3.1,0.9,5.6,3.2,7.3,5.9c3,4.8,3.6,11.1,1.6,16.4
				C1091.8,709.8,1000.8,665.2,1000.7,665.4z"/>
			<path fill="#FFFFFF" d="M612.9,573.1c-1.4-3.3,0.2-7.7,3.5-9.2c3.3-1.6,7.7-0.1,9.4,3.1c0.1-9.3,9-17.6,18.4-17
				c9.3,0.6,17.1,10,16,19.3c1.2-4.5,5.6-8,10.3-8.2c4.7-0.2,9.3,2.9,10.9,7.3c-1.1-3.1,3.6-9,5.8-10.8c3.8-3.1,9.5-3.9,13.9-1.6
				c5.5,2.9,7.9,10.7,4.8,16.1c2.5-2.6,9-3.3,10.9,0.3c1,2,0.9,4.3,0.5,6.5c-0.1,0.4-0.2,0.9-0.6,1.2c-0.3,0.2-0.8,0.2-1.2,0.1
				C692.4,576.9,645.5,572.6,612.9,573.1z"/>
			<path fill="#FFFFFF" d="M888.9,603.8c6.8,1.7,11.4,9.5,9.7,16.3c1.4-1.7,3.4-2.9,5.6-3s4.4,1.2,5.2,3.2s-0.4,4.7-2.5,5.2
				c-0.1,1,0.1,0.7-0.9,0.8c-1,0.2-2.1-0.1-3.1-0.4c-10.6-3-20.9-7.1-31.4-10.2c-13.8-4.1-0.9-9,1.2-2.5
				C874.8,606.7,881.9,602.1,888.9,603.8z"/>
			<path fill="#FFFFFF" d="M1010.8,724c2.7,0.4,5.5-1.8,5.9-4.5c0.7-4.9-6.4-8-10-5C1003.3,717.2,1007.3,723.6,1010.8,724z"/>
		</g>
	</g>
</g>
<g id="SMOKE">
	<g opacity="0.5">
		<path fill="#FFFFFF" d="M1166.5,815.2c-5.8-1.2-11.6-1.7-17.2-1.8c1.6-4.5,2.9-9.1,3.8-13.9c11-55.3-24.8-109.2-80.2-120.2
			c-47.2-9.4-93.2,15.3-112.6,57.1c-11.3-10.1-25.3-17.4-41.3-20.6c-34.8-6.9-68.9,7.7-88.4,34.6c-5.7-2.3-11.6-4.1-17.8-5.3
			c-53.8-10.7-106.2,24.2-116.9,78c-8.3,41.7,10.7,82.4,44.7,103.7h501.3C1251.6,875.3,1218,825.5,1166.5,815.2z"/>
		<polygon fill="#FFFFFF" points="568,431.7 504,851.7 702.4,837.8 626.9,427.3 		"/>
		<path fill="#FFFFFF" d="M789.3,887.5c8.4-23.2,3.2-48-11.5-65.6c5.5-4.9,9.9-11.2,12.6-18.6c8-21.9-1.9-46-22.1-56.4
			c5.5-6.2,9.9-13.5,12.9-21.7c12.7-34.8-5.3-73.4-40.2-86c-34.8-12.7-73.4,5.3-86,40.2c-1.4,3.9-2.4,7.8-3.1,11.8
			c-2.9-1.6-6-2.9-9.2-4.1c-37.2-13.5-78.3,5.7-91.8,42.9c-11.5,31.7,0.7,66.2,27.6,84.1c-8.2,6.8-14.7,15.7-18.6,26.4
			c-8.5,23.4-2,48.5,14.6,64.9c-2.2,3.7-4.1,7.6-5.6,11.8c-1.2,3.2-2.1,6.5-2.8,9.8h184.8C768.3,920,782.5,906.2,789.3,887.5z"/>
		<path fill="#FFFFFF" d="M523.3,725.2c3.4-5,6.1-10.6,8-16.8c8.9-29.5-5-59.8-31.1-67.7c-23.6-7.2-49.2,6.4-60.4,30.9
			c-22-0.7-43.4,15.3-50.8,39.9c-6.1,20-1.3,40.4,10.7,53.6c-10.7,4.1-19.8,13.6-23.7,26.3c-6.2,20.5,3.5,41.7,21.7,47.2
			c1.6,0.5,3.2,0.8,4.8,1c0,0.1-0.1,0.3-0.1,0.4c-6.7,22.1,3.7,44.8,23.3,50.8c19.6,5.9,40.9-7.1,47.6-29.2c1.2-4,1.9-8,2-12
			c0.5,0.2,1,0.3,1.5,0.5c31.3,9.5,65.4-11.4,76.2-46.8C562.7,771,549.6,737.9,523.3,725.2z"/>
		<path fill="#FFFFFF" d="M550,827.1c-1.5-54.9-47.1-98.2-102-96.7c-18.9,0.5-36.4,6.2-51.1,15.8c0-0.4,0-0.8,0-1.1
			c-1.4-52.6-45.2-94.2-97.9-92.8c-35.2,0.9-65.3,20.8-81.1,49.6c-9.4-4.8-20-7.3-31.3-7c-33.3,0.9-60.1,26.5-63.3,58.8
			c-11.1-4.1-23.1-6.2-35.5-5.8c-52.9,1.4-94.6,45.4-93.2,98.3c0.9,34.7,20.3,64.7,48.4,80.7h429.3
			C517.7,916.8,551.3,875.5,550,827.1z"/>
		<path fill="#FFFFFF" d="M1031.3,878c1.1-39.5,33.9-70.7,73.5-69.6c13.6,0.4,26.2,4.5,36.8,11.3c0-0.3,0-0.5,0-0.8
			c1-37.9,32.6-67.8,70.5-66.8c25.3,0.7,47,15,58.4,35.7c6.8-3.4,14.4-5.3,22.5-5.1c24,0.6,43.3,19.1,45.6,42.4
			c8-2.9,16.6-4.4,25.6-4.2c38.1,1,68.1,32.7,67.1,70.8c-0.7,25-14.6,46.6-34.8,58.1h-309.1C1054.5,942.5,1030.3,912.9,1031.3,878z"
			/>
		<path fill="#FFFFFF" d="M-221.2,891.4c1.1-39.5,33.9-70.7,73.5-69.6c13.6,0.4,26.2,4.5,36.8,11.3c0-0.3,0-0.5,0-0.8
			c1-37.9,32.6-67.8,70.5-66.8c25.3,0.7,47,15,58.4,35.7c6.8-3.4,14.4-5.3,22.5-5.1c24,0.6,43.3,19.1,45.6,42.4
			c8-2.9,16.6-4.4,25.6-4.2c38.1,1,68.1,32.7,67.1,70.8c-0.7,25-14.6,46.6-34.8,58.1h-309.1C-198,955.9-222.1,926.3-221.2,891.4z"/>
	</g>
	<g>
		<path fill="#FFFFFF" d="M1112.4,795c-42.7-22.1-93.8-11.1-124,23.7c-8.1-12.8-19.5-23.7-34-31.2c-31.5-16.3-68.3-11.7-94.6,8.8
			c-4.8-3.7-10-7.1-15.6-10c-48.8-25.2-108.7-6.2-134,42.6c-16.7,32.2-14,69.3,3.8,98.1H1159C1180.6,877.9,1160.6,819.9,1112.4,795z
			"/>
		<polygon fill="#FFFFFF" points="575.9,485.5 526.2,811.3 680.2,800.5 621.6,482.1 		"/>
		<path fill="#FFFFFF" d="M777.8,872.3c5.5-4.9,9.9-11.2,12.6-18.6c8-21.9-1.9-46-22.1-56.4c5.5-6.2,9.9-13.5,12.9-21.7
			c12.7-34.8-5.3-73.4-40.2-86c-34.8-12.7-73.4,5.3-86,40.2c-1.4,3.9-2.4,7.8-3.1,11.8c-2.9-1.6-6-2.9-9.2-4.1
			c-37.2-13.5-78.3,5.7-91.8,42.9c-11.5,31.7,0.7,66.2,27.6,84.1c-8.2,6.8-14.7,15.7-18.6,26.4c-4.4,12-4.7,24.5-1.8,36.1h234
			C795.8,907.1,790.2,887.2,777.8,872.3z"/>
		<path fill="#FFFFFF" d="M540.8,905.7c-0.3-4.2-1.2-8.1-2.5-11.9c0.5,0,1,0,1.6-0.1c32.7-2.4,56.9-34.2,54.2-71
			c-2.5-33.7-26.7-59.9-55.8-62.3c1.4-5.9,1.9-12.1,1.4-18.6c-2.3-30.7-26.2-54-53.4-52c-24.6,1.8-43.6,23.7-45.2,50.6
			c-20.8,7.3-34.9,29.9-33.1,55.5c1.5,20.9,13.3,38.2,29.3,46.2c-8.5,7.6-13.6,19.8-12.6,33.1c1.6,21.4,18.2,37.6,37.2,36.2
			c1.7-0.1,3.3-0.4,4.9-0.8c0,0.1,0,0.3,0,0.4c0.4,5.6,1.8,10.9,4,15.7h66.6C540.1,920.5,541.4,913.3,540.8,905.7z"/>
		<path fill="#FFFFFF" d="M590.7,909.6c-1.5-54.9-47.1-98.2-102-96.7c-18.9,0.5-36.4,6.2-51.1,15.8c0-0.4,0-0.8,0-1.1
			c-1.4-52.6-45.2-94.2-97.9-92.8c-35.2,0.9-65.3,20.8-81.1,49.6c-9.4-4.8-20-7.3-31.3-7c-33.3,0.9-60.1,26.5-63.3,58.8
			c-11.1-4.1-23-6.2-35.5-5.8c-52.3,1.4-93.6,44.4-93.2,96.5h554.4C590.5,921.2,590.9,915.5,590.7,909.6z"/>
	</g>
	<path fill="#FFFFFF" d="M1318.5,992.9c5.5-4.9,9.9-11.2,12.6-18.6c8-21.9-1.9-46-22.1-56.4c5.5-6.2,9.9-13.5,12.9-21.7
		c12.7-34.8-5.3-73.4-40.2-86c-34.8-12.7-73.4,5.3-86,40.2c-1.4,3.9-2.4,7.8-3.1,11.8c-2.9-1.6-6-2.9-9.2-4.1
		c-37.2-13.5-78.3,5.7-91.8,42.9c-11.5,31.7,0.7,66.2,27.6,84.1c-8.2,6.8-14.7,15.7-18.6,26.4c-4.4,12-4.7,24.5-1.8,36.1h234
		C1336.5,1027.7,1330.9,1007.8,1318.5,992.9z"/>
	<path fill="#FFFFFF" d="M75.4,998.1c5.5-4.9,9.9-11.2,12.6-18.6c8-21.9-1.9-46-22.1-56.4c5.5-6.2,9.9-13.5,12.9-21.7
		c12.7-34.8-5.3-73.4-40.2-86c-34.8-12.7-73.4,5.3-86,40.2c-1.4,3.9-2.4,7.8-3.1,11.8c-2.9-1.6-6-2.9-9.2-4.1
		c-37.2-13.5-78.3,5.7-91.8,42.9c-11.5,31.7,0.7,66.2,27.6,84.1c-8.2,6.8-14.7,15.7-18.6,26.4c-4.4,12-4.7,24.5-1.8,36.1h234
		C93.4,1032.9,87.8,1013,75.4,998.1z"/>
</g>
<g id="FLAME">
	<g>
		<path fill="#F38020" d="M640,545c0,28.2-40,66.3-40,66.3s-40-38-40-66.3c0-28.2,17.9-36,40-36C622.1,509,640,516.7,640,545z"/>
		<path fill="#EEB31F" d="M627.6,539.4c0,19.5-27.6,45.7-27.6,45.7s-27.6-26.2-27.6-45.7c0-19.5,12.4-24.8,27.6-24.8
			C615.2,514.5,627.6,519.9,627.6,539.4z"/>
		<path fill="#F7CB6B" d="M616,530c0,11.3-16,26.5-16,26.5s-16-15.2-16-26.5c0-11.3,7.2-14.4,16-14.4S616,518.8,616,530z"/>
	</g>
</g>
<g id="ROCKET">
	<g>
		<polygon fill="#C2271A" points="629,456.7 626.3,458 620.4,489.9 642.7,530.6 641.4,541.1 647.5,541.3 650.9,538 670.5,472.4 		
			"/>
		<polygon fill="#95170F" points="629,456.7 626.3,458 666,474.4 647.5,541.3 650.9,538 670.5,472.4 		"/>
		<polygon fill="#F89789" points="629,456.7 626.3,458 666,474.4 670.5,472.4 		"/>
		<polygon fill="#C2271A" points="571,456.7 573.6,458 579.5,490 557.3,530.6 559.3,541.6 553.2,541.8 549.8,538.5 529.5,472.5 		
			"/>
		<polygon fill="#95170F" points="571,456.7 573.6,458 533.9,474.5 553.2,541.8 549.8,538.5 529.5,472.5 		"/>
		<polygon fill="#F89789" points="571,456.7 573.6,458 533.9,474.5 529.5,472.5 		"/>
	</g>
	<g>
		<defs>
			<path id="SVGID_14_" d="M549.4,437.6c4.9,30.2,9.2,55.6,13,76.9c4,8.7,19.1,15.1,37,15.1c17.9,0,32.9-6.5,37-15.1
				c3.7-21.3,8-46.7,12.9-76.9c21.6-135.4-50.1-223.2-50.1-223.2S527.5,302.3,549.4,437.6"/>
		</defs>
		<clipPath id="SVGID_15_">
			<use xlink:href="#SVGID_14_"  overflow="visible"/>
		</clipPath>
		<path clip-path="url(#SVGID_15_)" fill="#C0C9D2" d="M599.1,214.3c0,0-71.5,88-49.7,223.3c4.9,30.2,9.2,55.6,13,76.9
			c4,8.7,19.1,15.1,37,15.1c17.9,0,32.9-6.5,37-15.1c3.7-21.3,8-46.7,12.9-76.9C670.8,302.2,599.1,214.3,599.1,214.3"/>
		<path clip-path="url(#SVGID_15_)" fill="#696473" d="M599.3,482.1c-21.4,0-39.3-5.5-44.8-13c2.8,16.9,5.4,31.9,7.8,45.4
			c4,8.7,19.1,15.1,37,15.1c17.9,0,32.9-6.5,37-15.1c2.4-13.4,4.9-28.5,7.7-45.4C638.6,476.6,620.6,482.1,599.3,482.1"/>
		
			<line clip-path="url(#SVGID_15_)" fill="none" stroke="#97A1AB" stroke-width="2.321" stroke-miterlimit="10" x1="599.1" y1="299.3" x2="599.3" y2="476.2"/>
		<path clip-path="url(#SVGID_15_)" fill="none" stroke="#97A1AB" stroke-width="2.321" stroke-miterlimit="10" d="M539.9,389.7
			c0,0,31.9,8.2,57.3,7.5"/>
	</g>
	<g>
		<defs>
			<path id="SVGID_16_" d="M554.5,469.2c5.4,7.5,23.4,13,44.7,13c21.3,0,39.3-5.5,44.7-13c0.8-4.7,1.6-9.6,2.4-14.6
				c-6.3,6.8-25,11.8-47.1,11.8c-22.1,0-40.9-4.9-47.1-11.7C553,459.6,553.8,464.5,554.5,469.2"/>
		</defs>
		<clipPath id="SVGID_17_">
			<use xlink:href="#SVGID_16_"  overflow="visible"/>
		</clipPath>
		
			<linearGradient id="SVGID_18_" gradientUnits="userSpaceOnUse" x1="-887.0286" y1="1453.8781" x2="-886.3699" y2="1453.8781" gradientTransform="matrix(205.6553 -0.1678 -0.1678 -205.6553 183194.2188 299310.75)">
			<stop  offset="0" style="stop-color:#965AE6"/>
			<stop  offset="0.5" style="stop-color:#6428B4"/>
			<stop  offset="1" style="stop-color:#3C186C"/>
		</linearGradient>
		<rect x="544.5" y="408.1" clip-path="url(#SVGID_17_)" fill="url(#SVGID_18_)" width="108.2" height="107.3"/>
	</g>
	<g>
		<defs>
			<path id="SVGID_19_" d="M549.4,437.6c4.9,30.2,9.2,55.6,13,76.9c4,8.7,19.1,15.1,37,15.1c17.9,0,32.9-6.5,37-15.1
				c3.7-21.3,8-46.7,12.9-76.9c21.6-135.4-50.1-223.2-50.1-223.2S527.5,302.3,549.4,437.6"/>
		</defs>
		<clipPath id="SVGID_20_">
			<use xlink:href="#SVGID_19_"  overflow="visible"/>
		</clipPath>
		<path clip-path="url(#SVGID_20_)" fill="#F03C28" d="M645.1,493.5c0.1,0.6-3.3,0.8-3.3,1.4c0,10.4-19,18.8-42.5,18.8
			c-21.6,0-39.4-7.1-42.1-16.3l-21,1.1l-5.3,10l28.9,5.1c1,10.5,18.3,18.8,39.5,18.8c21.5,0,39-8.6,39.5-19.3l8.3-0.1l6.2-20.6
			L645.1,493.5z"/>
		<path clip-path="url(#SVGID_20_)" fill="#F03C28" d="M645.1,482.7c0.1,0.6-3.3,0.8-3.3,1.4c0,10.4-19,18.8-42.5,18.8
			c-21.6,0-39.4-7.1-42.1-16.3l-21,1.1l-5.3,10l28.9,5.1c1,10.5,18.3,18.8,39.5,18.8c21.5,0,39-8.6,39.5-19.3l8.3-0.1l6.2-20.6
			L645.1,482.7z"/>
	</g>
	<g>
		<defs>
			<path id="SVGID_21_" d="M599.1,214.4L599.1,214.4c-0.4,0.5-27.3,33.9-42.9,90.8c8.5,2.4,24.6,4,43,4c18.5,0,34.5-1.6,43-4.1
				C626.5,248.2,599.5,214.9,599.1,214.4C599.1,214.4,599.1,214.4,599.1,214.4C599.1,214.4,599.1,214.4,599.1,214.4L599.1,214.4
				L599.1,214.4C599.1,214.3,599.1,214.3,599.1,214.4C599.1,214.3,599.1,214.3,599.1,214.4L599.1,214.4
				C599.1,214.3,599.1,214.3,599.1,214.4 M599.1,214.3L599.1,214.3"/>
		</defs>
		<clipPath id="SVGID_22_">
			<use xlink:href="#SVGID_21_"  overflow="visible"/>
		</clipPath>
		
			<linearGradient id="SVGID_23_" gradientUnits="userSpaceOnUse" x1="-888.306" y1="1455.119" x2="-887.6473" y2="1455.119" gradientTransform="matrix(130.5975 -0.1065 -0.1065 -130.5975 116721.6719 190221.25)">
			<stop  offset="0" style="stop-color:#965AE6"/>
			<stop  offset="0.5" style="stop-color:#6428B4"/>
			<stop  offset="1" style="stop-color:#3C186C"/>
		</linearGradient>
		<rect x="536.4" y="214.3" clip-path="url(#SVGID_22_)" fill="url(#SVGID_23_)" width="132.6" height="133.2"/>
	</g>
	<g>
		<defs>
			<path id="SVGID_24_" d="M549.4,437.6c4.9,30.2,9.2,55.6,13,76.9c4,8.7,19.1,15.1,37,15.1c17.9,0,32.9-6.5,37-15.1
				c3.7-21.3,8-46.7,12.9-76.9c21.6-135.4-50.1-223.2-50.1-223.2S527.5,302.3,549.4,437.6"/>
		</defs>
		<clipPath id="SVGID_25_">
			<use xlink:href="#SVGID_24_"  overflow="visible"/>
		</clipPath>
		<path clip-path="url(#SVGID_25_)" fill="#F03C28" d="M577.7,249.1c6.5,0.5,13.7,0.8,21.4,0.8c7.7,0,14.9-0.3,21.4-0.8
			c-11.4-22.4-21.4-34.7-21.4-34.7S589.1,226.7,577.7,249.1"/>
		<g opacity="0.2" clip-path="url(#SVGID_25_)">
			<g>
				<defs>
					
						<rect id="SVGID_26_" x="464.4" y="276.8" transform="matrix(0.6456 -0.7637 0.7637 0.6456 -84.5919 594.2558)" width="267.1" height="222.9"/>
				</defs>
				<clipPath id="SVGID_27_">
					<use xlink:href="#SVGID_26_"  overflow="visible"/>
				</clipPath>
				<path clip-path="url(#SVGID_27_)" fill="#FFFFFF" d="M579,514.5c-2.1-21.3-4.5-46.7-7.2-76.9c-12-135.3,27.2-223.3,27.2-223.3
					s-71.5,88-49.7,223.3c4.9,30.2,9.2,55.6,13,76.9c4,8.7,19.1,44.8,37,44.7C589.5,559.3,581.2,523.2,579,514.5"/>
			</g>
		</g>
		<g opacity="0.15" clip-path="url(#SVGID_25_)">
			<g>
				<defs>
					
						<rect id="SVGID_28_" x="470.1" y="274.2" transform="matrix(0.6456 -0.7637 0.7637 0.6456 -83.7445 597.3129)" width="263.2" height="229.4"/>
				</defs>
				<clipPath id="SVGID_29_">
					<use xlink:href="#SVGID_28_"  overflow="visible"/>
				</clipPath>
				<path clip-path="url(#SVGID_29_)" fill="#150036" d="M599.1,214.3c0,0,39.4,87.9,27.6,223.2c-2.6,30.2-5,55.6-7,76.9
					c-2.2,8.7-10.4,44.8-20.3,44.8c17.9,0,32.9-36.1,36.9-44.8c3.7-21.3,8-46.7,12.9-76.9C670.8,302.2,599.1,214.3,599.1,214.3"/>
			</g>
		</g>
	</g>
	<g>
		<defs>
			<path id="SVGID_30_" d="M572.1,390.2c0,15,12.2,27.1,27.2,27.1c15,0,27.1-12.2,27.1-27.2c0-15-12.2-27.1-27.2-27.1
				c-8.3,0-15.7,3.7-20.7,9.6C574.5,377.4,572.1,383.5,572.1,390.2"/>
		</defs>
		<clipPath id="SVGID_31_">
			<use xlink:href="#SVGID_30_"  overflow="visible"/>
		</clipPath>
		
			<linearGradient id="SVGID_32_" gradientUnits="userSpaceOnUse" x1="-875.6735" y1="1455.4963" x2="-875.0149" y2="1455.4963" gradientTransform="matrix(-6.720202e-02 -82.382 -82.382 6.720202e-02 120448.3281 -71820.2578)">
			<stop  offset="0" style="stop-color:#965AE6"/>
			<stop  offset="0.5" style="stop-color:#6428B4"/>
			<stop  offset="1" style="stop-color:#3C186C"/>
		</linearGradient>
		<rect x="558.9" y="349.4" clip-path="url(#SVGID_31_)" fill="url(#SVGID_32_)" width="83.2" height="83.6"/>
	</g>
	<g>
		<defs>
			<path id="SVGID_33_" d="M549.4,437.6c4.9,30.2,9.2,55.6,13,76.9c4,8.7,19.1,15.1,37,15.1c17.9,0,32.9-6.5,37-15.1
				c3.7-21.3,8-46.7,12.9-76.9c21.6-135.4-50.1-223.2-50.1-223.2S527.5,302.3,549.4,437.6"/>
		</defs>
		<clipPath id="SVGID_34_">
			<use xlink:href="#SVGID_33_"  overflow="visible"/>
		</clipPath>
		<g opacity="0.5" clip-path="url(#SVGID_34_)">
			<g>
				<defs>
					
						<rect id="SVGID_35_" x="583.8" y="363.5" transform="matrix(0.6456 -0.7637 0.7637 0.6456 -77.6991 592.1703)" width="30.8" height="32.7"/>
				</defs>
				<clipPath id="SVGID_36_">
					<use xlink:href="#SVGID_35_"  overflow="visible"/>
				</clipPath>
				<path clip-path="url(#SVGID_36_)" fill="#F2FFFF" d="M617.9,379.5c-0.2-7-10.1-12.7-18.2-12.9c-8.6-0.2-19.1,5.7-19.2,13
					c-0.1,7.1,9.9,13.8,18.5,13.9C607.9,393.5,618.1,386.7,617.9,379.5"/>
			</g>
		</g>
		<path clip-path="url(#SVGID_34_)" fill="#FFFFFF" d="M592,377.4c-2.3-5-10.7-7.2-13.3-1.4C573.3,387.9,596.8,388.1,592,377.4"/>
		<path clip-path="url(#SVGID_34_)" fill="#696473" d="M578.6,372.8c5.1-6.1,12.6-9.5,20.6-9.6c14.8,0,26.9,12.1,27,26.9
			c0,6.4-2.3,12.5-6.4,17.4c-5.1,6.1-12.6,9.6-20.6,9.6c-14.9,0-26.9-12.1-27-26.9C572.3,383.8,574.5,377.7,578.6,372.8L578.6,372.8
			 M572.8,367.9c-5.1,6-8.2,13.8-8.2,22.3c0,19.1,15.5,34.6,34.6,34.5c10.6,0,20.1-4.8,26.4-12.3c5.1-6,8.2-13.8,8.2-22.3
			c0-19.1-15.5-34.6-34.6-34.5C588.6,355.6,579.1,360.4,572.8,367.9"/>
		<path clip-path="url(#SVGID_34_)" fill="#97A1AB" d="M578.6,368.9c5.1-6.1,12.6-9.5,20.6-9.6c7.2,0,14,2.8,19.1,7.9
			c5.1,5.1,7.9,11.8,7.9,19c0,6.4-2.3,12.5-6.4,17.4c-5.1,6.1-12.6,9.6-20.6,9.6c-7.2,0-14-2.8-19.1-7.9c-5.1-5.1-7.9-11.8-7.9-19
			C572.3,379.9,574.5,373.7,578.6,368.9L578.6,368.9 M572.8,363.9c-5.1,6-8.2,13.8-8.2,22.3c0,19.1,15.5,34.6,34.6,34.5
			c10.6,0,20.1-4.8,26.4-12.3c5.1-6,8.2-13.8,8.2-22.3c0-19.1-15.5-34.6-34.6-34.5C588.6,351.7,579.1,356.4,572.8,363.9"/>
	</g>
	<g>
		<polygon fill="#F03C28" points="562.1,478.5 564.7,479.8 573.6,515.7 551.4,556.3 557.4,585.5 551.3,585.7 547.8,582.4 
			523.6,508.1 		"/>
		<polygon fill="#95170F" points="562.1,478.5 564.7,479.8 528,510.1 551.3,585.7 547.8,582.4 523.6,508.1 		"/>
		<polygon fill="#F89789" points="562.1,478.5 564.7,479.8 528,510.1 523.6,508.1 		"/>
		<polygon fill="#F03C28" points="637.9,478.4 635.2,479.7 626.4,515.6 648.6,556.3 642.7,585.4 648.8,585.6 652.3,582.3 676.4,508 
					"/>
		<polygon fill="#95170F" points="637.9,478.4 635.2,479.7 672,510 648.8,585.6 652.3,582.3 676.4,508 		"/>
		<polygon fill="#F89789" points="637.9,478.4 635.2,479.7 672,510 676.4,508 		"/>
		<path fill="#8C5BC9" d="M563,300.4c0,0.8-0.7,1.5-1.5,1.5c-0.8,0-1.5-0.7-1.5-1.5c0-0.8,0.7-1.5,1.5-1.5
			C562.3,299,563,299.6,563,300.4"/>
		<path fill="#8C5BC9" d="M571.7,303.2c-0.3,0.8-1.1,1.2-1.9,0.9c-0.8-0.3-1.2-1.1-0.9-1.9c0.3-0.8,1.1-1.2,1.9-0.9
			C571.6,301.5,572,302.4,571.7,303.2"/>
		<path fill="#8C5BC9" d="M580.7,303.8c0,0.8-0.7,1.5-1.5,1.5c-0.8,0-1.5-0.7-1.5-1.5c0-0.8,0.7-1.5,1.5-1.5
			C580,302.3,580.7,303,580.7,303.8"/>
		<path fill="#8C5BC9" d="M590.4,304.3c0,0.8-0.7,1.5-1.5,1.5c-0.8,0-1.5-0.7-1.5-1.5c0-0.8,0.7-1.5,1.5-1.5
			C589.7,302.8,590.4,303.5,590.4,304.3"/>
		<path fill="#8C5BC9" d="M599,303c0.8,0,1.4,0.8,1.4,1.6c0,0.8-0.8,1.4-1.6,1.4c-0.8,0-1.4-0.8-1.4-1.6
			C597.4,303.5,598.1,302.9,599,303"/>
		<path fill="#8C5BC9" d="M610.6,303.8c0,0.8-0.7,1.5-1.5,1.5c-0.8,0-1.5-0.7-1.5-1.5c0-0.8,0.7-1.5,1.5-1.5
			C609.9,302.3,610.6,303,610.6,303.8"/>
		<path fill="#8C5BC9" d="M620.4,303.4c0,0.8-0.7,1.5-1.5,1.5c-0.8,0-1.5-0.7-1.5-1.5c0-0.8,0.7-1.5,1.5-1.5
			C619.7,301.9,620.3,302.5,620.4,303.4"/>
		<path fill="#8C5BC9" d="M629.7,301.9c0,0.8-0.7,1.5-1.5,1.5c-0.8,0-1.5-0.7-1.5-1.5c0-0.8,0.7-1.5,1.5-1.5
			C629,300.4,629.7,301.1,629.7,301.9"/>
		<path fill="#8C5BC9" d="M638.3,299.8c0,0.8-0.7,1.5-1.5,1.5c-0.8,0-1.5-0.7-1.5-1.5c0-0.8,0.7-1.5,1.5-1.5
			C637.6,298.3,638.3,299,638.3,299.8"/>
		<path fill="#97A1AB" d="M552.6,385.3c0,0.8-0.7,1.5-1.5,1.5c-0.8,0-1.5-0.7-1.5-1.5c0-0.8,0.7-1.5,1.5-1.5
			C552,383.8,552.6,384.5,552.6,385.3"/>
		<path fill="#97A1AB" d="M560.1,388.2c-0.8,0-1.5-0.7-1.5-1.5c0-0.8,0.7-1.5,1.5-1.5c0.8,0,1.5,0.7,1.5,1.5
			C561.6,387.5,560.9,388.2,560.1,388.2"/>
		<path fill="#97A1AB" d="M594.7,332c0,0.8-0.7,1.5-1.5,1.5c-0.8,0-1.5-0.7-1.5-1.5c0-0.8,0.7-1.5,1.5-1.5
			C594.1,330.5,594.7,331.1,594.7,332"/>
		<path fill="#97A1AB" d="M594.7,339.7c0,0.8-0.7,1.5-1.5,1.5c-0.8,0-1.5-0.7-1.5-1.5c0-0.8,0.7-1.5,1.5-1.5
			C594.1,338.2,594.7,338.9,594.7,339.7"/>
		<path fill="#97A1AB" d="M594.7,347.1c0,0.8-0.7,1.5-1.5,1.5c-0.8,0-1.5-0.7-1.5-1.5c0-0.8,0.7-1.5,1.5-1.5
			C594.1,345.7,594.7,346.3,594.7,347.1"/>
		<path fill="#8C5BC9" d="M560.9,466.1c0,0.8-0.7,1.5-1.5,1.5c-0.8,0-1.5-0.7-1.5-1.5c0-0.8,0.7-1.5,1.5-1.5
			C560.2,464.6,560.9,465.3,560.9,466.1"/>
		<path fill="#8C5BC9" d="M569.8,469.3c0,0.8-0.7,1.5-1.5,1.5c-0.8,0-1.5-0.7-1.5-1.5c0-0.8,0.7-1.5,1.5-1.5
			C569.1,467.8,569.8,468.5,569.8,469.3"/>
		<path fill="#8C5BC9" d="M579.7,472.1c0,0.8-0.7,1.5-1.5,1.5c-0.8,0-1.5-0.7-1.5-1.5c0-0.8,0.7-1.5,1.5-1.5
			C579,470.6,579.7,471.2,579.7,472.1"/>
		<path fill="#8C5BC9" d="M589.7,473.5c0,0.8-0.7,1.5-1.5,1.5c-0.8,0-1.5-0.7-1.5-1.5c0-0.8,0.7-1.5,1.5-1.5
			C589,472.1,589.7,472.7,589.7,473.5"/>
		<path fill="#8C5BC9" d="M600.4,473.7c0,0.8-0.7,1.5-1.5,1.5c-0.8,0-1.5-0.7-1.5-1.5c0-0.8,0.7-1.5,1.5-1.5
			C599.7,472.2,600.4,472.9,600.4,473.7"/>
		<path fill="#8C5BC9" d="M611,472.9c0,0.8-0.7,1.5-1.5,1.5c-0.8,0-1.5-0.7-1.5-1.5c0-0.8,0.7-1.5,1.5-1.5
			C610.4,471.4,611,472.1,611,472.9"/>
		<path fill="#8C5BC9" d="M621.5,471.6c0,0.8-0.7,1.5-1.5,1.5c-0.8,0-1.5-0.7-1.5-1.5c0-0.8,0.7-1.5,1.5-1.5
			C620.9,470.1,621.5,470.8,621.5,471.6"/>
		<path fill="#8C5BC9" d="M631.5,469.6c0,0.8-0.7,1.5-1.5,1.5c-0.8,0-1.5-0.7-1.5-1.5c0-0.8,0.7-1.5,1.5-1.5
			C630.9,468.1,631.5,468.7,631.5,469.6"/>
		<path fill="#8C5BC9" d="M640.7,466.6c0,0.8-0.7,1.5-1.5,1.5c-0.8,0-1.5-0.7-1.5-1.5c0-0.8,0.7-1.5,1.5-1.5
			C640.1,465.1,640.7,465.8,640.7,466.6"/>
		<path fill="#97A1AB" d="M594.7,317c0,0.8-0.7,1.5-1.5,1.5c-0.8,0-1.5-0.7-1.5-1.5c0-0.8,0.7-1.5,1.5-1.5
			C594,315.5,594.7,316.2,594.7,317"/>
		<path fill="#97A1AB" d="M594.7,324.4c0,0.8-0.7,1.5-1.5,1.5c-0.8,0-1.5-0.7-1.5-1.5c0-0.8,0.7-1.5,1.5-1.5
			S594.7,323.6,594.7,324.4"/>
		<path fill="#97A1AB" d="M594.8,445.6c0,0.8-0.7,1.5-1.5,1.5c-0.8,0-1.5-0.7-1.5-1.5c0-0.8,0.7-1.5,1.5-1.5
			C594.1,444.1,594.8,444.8,594.8,445.6"/>
		<path fill="#97A1AB" d="M594.8,453.3c0,0.8-0.7,1.5-1.5,1.5c-0.8,0-1.5-0.7-1.5-1.5c0-0.8,0.7-1.5,1.5-1.5
			C594.2,451.9,594.8,452.5,594.8,453.3"/>
		<path fill="#97A1AB" d="M594.8,460.8c0,0.8-0.7,1.5-1.5,1.5c-0.8,0-1.5-0.7-1.5-1.5c0-0.8,0.7-1.5,1.5-1.5
			C594.2,459.3,594.8,460,594.8,460.8"/>
		<path fill="#97A1AB" d="M594.8,438.1c0,0.8-0.7,1.5-1.5,1.5c-0.8,0-1.5-0.7-1.5-1.5c0-0.8,0.7-1.5,1.5-1.5
			C594.1,436.6,594.8,437.3,594.8,438.1"/>
		<path fill="#97A1AB" d="M594.8,430.2c0,0.8-0.7,1.5-1.5,1.5c-0.8,0-1.5-0.7-1.5-1.5c0-0.8,0.7-1.5,1.5-1.5
			C594.1,428.7,594.8,429.4,594.8,430.2"/>
		<path fill="#C0C9D2" d="M589.8,268.2c0.1,2.9,1.8,5.5,4.1,6.9l9.6,5.8c2.3,1.4,4,3.9,4.1,6.9c0.2,4.7-3.4,8.6-8.1,8.8
			c-4.7,0.2-8.6-3.4-8.8-8.1c-0.1-2.9,1.2-5.5,3.4-7.2l1.6-1.2l-3.2-1.9l-0.4,0.3c-3.1,2.3-5,6-4.8,10.1c0.3,6.5,5.8,11.6,12.4,11.3
			c6.5-0.3,11.6-5.8,11.3-12.4c-0.2-4.1-2.5-7.7-5.7-9.6l-3.6-2.1l1.6-1.1c2.2-1.6,3.6-4.3,3.5-7.2c-0.2-4.7-4.2-8.3-8.8-8.1
			C593.2,259.6,589.6,263.5,589.8,268.2 M603.3,267.6c0.1,1.8-0.8,3.4-2.1,4.3l-2.7,2l-2.9-1.7c-1.4-0.8-2.4-2.4-2.5-4.1
			c-0.1-2.8,2.1-5.2,4.8-5.3C600.8,262.6,603.2,264.8,603.3,267.6"/>
	</g>
</g>
</svg>
