<?xml version="1.0" encoding="utf-8"?>
<!-- Generator: Adobe Illustrator 19.2.1, SVG Export Plug-In . SVG Version: 6.00 Build 0)  -->
<svg version="1.1" id="Ebene_1" xmlns="http://www.w3.org/2000/svg" xmlns:xlink="http://www.w3.org/1999/xlink" x="0px" y="0px"
	 viewBox="0 0 512 512" style="enable-background:new 0 0 512 512;" xml:space="preserve">
<style type="text/css">
	.st0{fill:url(#SVGID_1_);}
	.st1{fill:#FF0000;}
	.st2{fill:#FFFFFF;}
	.st3{stroke:#FFFFFF;stroke-width:3;}
</style>
<linearGradient id="SVGID_1_" gradientUnits="userSpaceOnUse" x1="-40.4085" y1="676.5217" x2="-40.4085" y2="675.5217" gradientTransform="matrix(448 0 0 -448 18359 303113.7188)">
	<stop  offset="0" style="stop-color:#19D7FF"/>
	<stop  offset="1" style="stop-color:#1E64F0"/>
</linearGradient>
<circle class="st0" cx="256" cy="256" r="224"/>
<path class="st1" d="M409,102L237,237l40,40L409,102z"/>
<path class="st2" d="M102,409l135-172l40,40L102,409z"/>
<path class="st3" d="M256,54v33 M256,424v33 M291,57.1l-5.7,32.5 M226.7,421.4l-5.7,32.5 M324.9,66.2l-11.3,31 M198.4,413.8
	l-11.3,31 M221,57.1l5.7,32.5 M285.3,421.4l5.7,32.5 M187.1,66.2l11.3,31 M313.6,413.8l11.3,31 M155.2,81l16.6,28.6 M340.3,401.4
	l16.5,28.6 M126.5,101.1l21.2,25.3 M364.3,384.6l21.2,25.3 M101.6,126l25.3,21.2 M385.1,363.8l25.3,21.2 M81.5,154.8l28.6,16.5
	 M401.9,339.8l28.6,16.5 M66.7,186.6l31,11.3 M414.3,313.1l31,11.3 M57.6,220.5l32.5,5.7 M421.9,284.8l32.5,5.7 M54.5,255.5h33
	 M424.5,255.5h33 M57.6,290.5l32.5-5.7 M421.9,226.2l32.5-5.7 M66.7,324.4l31-11.3 M414.3,197.9l31-11.3 M81.5,356.3l28.6-16.5
	 M401.9,171.3l28.6-16.5 M101.6,385l25.3-21.2 M385.1,147.2l25.3-21.2 M126.5,409.9l21.2-25.3 M364.3,126.4l21.2-25.3 M155.2,430
	l16.6-28.6 M340.3,109.6L356.8,81 M238.4,54.8l1.6,17.9 M272,438.3l1.6,17.9 M203.8,60.9l4.7,17.4 M303.5,432.7l4.7,17.4
	 M170.8,72.9l7.6,16.3 M333.5,421.8l7.7,16.3 M140.4,90.4l10.3,14.8 M361.3,405.8l10.3,14.8 M113.5,113l12.7,12.7 M385.8,385.3
	l12.7,12.7 M90.9,139.9l14.8,10.3 M406.3,360.8l14.8,10.3 M73.4,170.3l16.3,7.6 M422.3,333l16.3,7.7 M61.4,203.3l17.4,4.7
	 M433.2,303l17.4,4.7 M55.3,237.9l17.9,1.6 M438.8,271.5l17.9,1.6 M55.3,273.1l17.9-1.6 M438.8,239.5l17.9-1.6 M61.4,307.7l17.4-4.7
	 M433.2,208l17.4-4.7 M73.4,340.7l16.3-7.6 M422.3,177.9l16.3-7.6 M90.9,371.1l14.8-10.3 M406.3,150.2l14.8-10.3 M140.4,420.6
	l10.3-14.8 M361.2,105.2l10.4-14.8 M170.8,438.1l7.7-16.3 M333.5,89.2l7.7-16.3 M203.8,450.1l4.7-17.4 M303.5,78.3l4.7-17.4
	 M238.4,456.2l1.6-17.9 M272,72.7l1.6-17.9"/>
</svg>
