<?xml version="1.0" encoding="UTF-8" standalone="no"?><!DOCTYPE svg PUBLIC "-//W3C//DTD SVG 1.1//EN" "http://www.w3.org/Graphics/SVG/1.1/DTD/svg11.dtd"><svg width="100%" height="100%" viewBox="0 0 24 24" version="1.1" xmlns="http://www.w3.org/2000/svg" xmlns:xlink="http://www.w3.org/1999/xlink" xml:space="preserve" xmlns:serif="http://www.serif.com/" style="fill-rule:evenodd;clip-rule:evenodd;stroke-linejoin:round;stroke-miterlimit:1.41421;"><rect x="0" y="0" width="24" height="24" style="fill:none;"/><path fill="#FFFFFF" d="M6.03,15.97l11.95,0.03l0,2l-11.95,-0.03l0,-2Zm0,-4l11.95,0.03l0,2l-11.95,-0.03l0,-2Zm9.95,-9.97l-11.98,0.03c-1.1,0 -2,0.9 -2,2l0,16c0,1.1 0.89,2 1.99,2l15.99,-0.03c1.1,0 2,-0.9 2,-2l0,-12l-6,-6Zm4,18l-15.98,0.03l0,-16l10.98,-0.03l0,5l5,0l0,11Z" style="fill-rule:nonzero;"/></svg>