<?xml version="1.0" encoding="utf-8"?>
<!-- Generator: Adobe Illustrator 22.1.0, SVG Export Plug-In . SVG Version: 6.00 Build 0)  -->
<svg version="1.1" id="Ebene_1" xmlns="http://www.w3.org/2000/svg" xmlns:xlink="http://www.w3.org/1999/xlink" x="0px" y="0px"
	 viewBox="0 0 20 20" enable-background="new 0 0 20 20" xml:space="preserve">
<path fill="#FFFFFF" d="M12.1,2l1.8,2H18v12H2V4h4.1l1.8-2H12.1 M13,0H7L5.2,2H2C0.9,2,0,2.9,0,4v12c0,1.1,0.9,2,2,2h16
	c1.1,0,2-0.9,2-2V4c0-1.1-0.9-2-2-2h-3.2L13,0z M10,7c1.6,0,3,1.3,3,3s-1.4,3-3,3s-3-1.4-3-3S8.4,7,10,7 M10,5c-2.8,0-5,2.2-5,5
	s2.2,5,5,5s5-2.2,5-5S12.8,5,10,5z"/>
</svg>
