<?xml version="1.0" encoding="utf-8"?>
<!-- Generator: Adobe Illustrator 19.2.1, SVG Export Plug-In . SVG Version: 6.00 Build 0)  -->
<svg version="1.1" id="Ebene_1" xmlns="http://www.w3.org/2000/svg" xmlns:xlink="http://www.w3.org/1999/xlink" x="0px" y="0px"
	 viewBox="0 0 640 480" style="enable-background:new 0 0 640 480;" xml:space="preserve">
<style type="text/css">
	.st0{fill:#F2F2F2;stroke:#000000;stroke-miterlimit:10;}
	.st1{fill:#4F4F4F;}
</style>
<rect class="st0" width="640" height="480"/>
<g>
	<path class="st1" d="M295,316.4c-0.1-4.6-0.2-8.1-0.2-10.4c0-13.6,1.9-25.4,5.8-35.3c2.8-7.5,7.4-15,13.7-22.6
		c4.6-5.5,13-13.6,25-24.2c12-10.6,19.8-19.1,23.4-25.4c3.6-6.3,5.4-13.2,5.4-20.6c0-13.5-5.3-25.4-15.8-35.6
		c-10.5-10.2-23.5-15.3-38.8-15.3c-14.8,0-27.1,4.6-37,13.9c-9.9,9.3-16.4,23.7-19.5,43.4l-35.7-4.2c3.2-26.4,12.8-46.5,28.6-60.6
		c15.9-14,36.9-21,63-21c27.6,0,49.7,7.5,66.2,22.6c16.5,15,24.7,33.2,24.7,54.6c0,12.3-2.9,23.7-8.7,34.1
		c-5.8,10.4-17.1,23.1-33.9,38c-11.3,10-18.7,17.4-22.2,22.2c-3.5,4.8-6,10.2-7.7,16.4c-1.7,6.2-2.6,16.2-2.9,30.1H295z M292.9,386
		v-39.5h39.5V386H292.9z"/>
</g>
</svg>
