<?xml version="1.0" encoding="utf-8"?>
<!-- Generator: Adobe Illustrator 18.1.1, SVG Export Plug-In . SVG Version: 6.00 Build 0)  -->
<svg version="1.1" id="pimcore_big_p" xmlns="http://www.w3.org/2000/svg" xmlns:xlink="http://www.w3.org/1999/xlink" x="0px"
	 y="0px" viewBox="0 0 660 160" enable-background="new 0 0 660 160" xml:space="preserve">
<path fill="#3d3d3d" d="M382.4,51.7l-7.1-7.1c-19.5-19.5-51.2-19.5-70.7,0s-19.5,51.2,0,70.7s51.2,19.5,70.7,0l21.1-21.3l21.1,21.3
	c19.5,19.5,51.2,19.5,70.7,0s19.5-51.2,0-70.7s-51.2-19.5-70.7,0l-56.4,56.6c-11.7,11.7-30.7,11.7-42.4,0s-11.7-30.7,0-42.4
	c11.7-11.7,30.7-11.7,42.4,0l7.1,7.1L382.4,51.7z M474.2,101.2c-11.7,11.7-30.7,11.7-42.4,0L410.6,80l21.2-21.2
	c11.7-11.7,30.7-11.7,42.4,0S485.9,89.5,474.2,101.2z"/>
<path fill="#3d3d3d" d="M280,70c0-22.1-17.9-40-40-40c-12,0-22.7,5.3-30.1,13.6c-7.3-8.3-18-13.6-30-13.6c-22.1,0-40,17.9-40,40v58
	h20V70c0-11,9-20,20-20s20,9,20,20v58h20V70c0-11,9-20,20-20s20,9,20,20v58h20V70z"/>
<path fill="#3d3d3d" d="M553,30c-22,0-40,17.9-40,40v58h20V70c0-11,9-20,20-20V30z"/>
<path fill="#3d3d3d" d="M610,30c-12.8,0-25.6,4.9-35.4,14.6c-19.5,19.5-19.5,51.2,0,70.7s51.2,19.5,70.7,0l-14.1-14.1
	c-11.7,11.7-30.7,11.7-42.4,0c-3.3-3.3-5.6-7.1-7-11.2h56.5h12.4h8.4c0.7-3.2,1-6.6,1-10C660,52.4,637.6,30,610,30z M581.7,70
	c1.4-4.1,3.8-7.9,7-11.2c5.9-5.9,13.5-8.8,21.2-8.8c13.1,0,24.1,8.4,28.3,20H581.7z"/>
<rect x="110" y="32" fill="#3d3d3d" width="20" height="96"/>
<rect x="110" y="0" fill="#3d3d3d" width="20" height="21"/>
<path fill="#3d3d3d" d="M50,30C22.4,30,0,52.4,0,80c0,0.7,0,1,0.1,2H0v78h20v-40c8.4,6.3,18.7,10,30,10c27.6,0,50-22.4,50-50
	S77.6,30,50,30z M50,110c-16.6,0-30-13.4-30-30c0-16.6,13.4-30,30-30s30,13.4,30,30C80,96.6,66.6,110,50,110z"/>
</svg>
