<?xml version="1.0" encoding="utf-8"?>
<!-- Generator: Adobe Illustrator 22.1.0, SVG Export Plug-In . SVG Version: 6.00 Build 0)  -->
<svg version="1.1" id="Ebene_1" xmlns="http://www.w3.org/2000/svg" xmlns:xlink="http://www.w3.org/1999/xlink" x="0px" y="0px"
	 width="24px" height="24px" viewBox="0 0 24 24" enable-background="new 0 0 24 24" xml:space="preserve">
<path fill="none" d="M0,0h24v24H0V0z"/>
<path fill="#89D0A3" d="M4,2C2.9,2,2,2.9,2,4v14l4-4h10c1.1,0,2-0.9,2-2V4c0-1.1-0.9-2-2-2H4z"/>
<path fill="#28A050" d="M8,6C6.9,6,6,6.9,6,8v8c0,1.1,0.9,2,2,2h10l4,4V8c0-1.1-0.9-2-2-2H8z"/>
</svg>
