<?xml version="1.0" encoding="utf-8"?>
<!-- Generator: Adobe Illustrator 19.2.1, SVG Export Plug-In . SVG Version: 6.00 Build 0)  -->
<svg version="1.1" id="Ebene_1" xmlns="http://www.w3.org/2000/svg" xmlns:xlink="http://www.w3.org/1999/xlink" x="0px" y="0px"
	 viewBox="0 0 48 48" style="enable-background:new 0 0 48 48;" xml:space="preserve">
<style type="text/css">
	.st0{fill:#37474F;}
	.st1{fill:#BBDEFB;}
</style>
<path class="st0" d="M7,10h34c2.2,0,4,1.8,4,4v20c0,2.2-1.8,4-4,4H7c-2.2,0-4-1.8-4-4V14C3,11.8,4.8,10,7,10z"/>
<path class="st1" d="M42,34V14c0-0.6-0.4-1-1-1H7c-0.6,0-1,0.4-1,1v20c0,0.6,0.4,1,1,1h34C41.6,35,42,34.6,42,34z"/>
</svg>
