<?xml version="1.0" encoding="utf-8"?>
<!-- Generator: Adobe Illustrator 22.1.0, SVG Export Plug-In . SVG Version: 6.00 Build 0)  -->
<svg version="1.1" id="Ebene_1" xmlns="http://www.w3.org/2000/svg" xmlns:xlink="http://www.w3.org/1999/xlink" x="0px" y="0px"
	 width="24px" height="24px" viewBox="0 0 24 24" enable-background="new 0 0 24 24" xml:space="preserve">
<path fill="none" d="M0,0h24v24H0V0z"/>
<path fill="#F07828" d="M16,4H4C2.9,4,2,4.9,2,6v12c0,1.1,0.9,2,2,2h16c1.1,0,2-0.9,2-2v-8L16,4z"/>
<polygon fill="#F7B681" points="16,4 16,10 22,10 "/>
<path fill="#FFFFFF" d="M11,15.5l-2.5-3L5,17h14l-4.5-6L11,15.5z"/>
<circle fill="#FFFFFF" cx="6.5" cy="8.5" r="1.5"/>
<circle fill="#858789" cx="18" cy="18" r="6"/>
<path fill="#FFFFFF" d="M21.9,19L21,18.4c0-0.1,0-0.3,0-0.4s0-0.3,0-0.4l0.8-0.6c0.1-0.1,0-0.1,0-0.2L21,15.3c0-0.1-0.1-0.1-0.2-0.1
	c0,0,0,0-0.1,0l-0.9,0.4c-0.1,0-0.1-0.1-0.2-0.1c-0.2-0.2-0.4-0.2-0.5-0.3l-0.2-1.1c0,0,0-0.1-0.2-0.1h-1.5c-0.1,0-0.2,0.1-0.2,0.2
	l-0.2,1.1c-0.2,0.1-0.4,0.2-0.6,0.3l-1.1-0.4c-0.1,0-0.2,0-0.2,0.1l-0.8,1.4c0,0.1,0,0.1,0.1,0.2l0.8,0.7c0,0.2,0,0.3,0,0.4
	s0,0.2,0,0.4L14.2,19c0,0-0.1,0.1,0,0.2l0.8,1.4c0,0.1,0.1,0.1,0.2,0.1c0,0,0,0,0.1,0l0.9-0.3c0.2,0.2,0.5,0.3,0.8,0.4l0.2,0.9
	c0,0.2,0.1,0.3,0.2,0.3h1.4c0.1,0,0.2-0.1,0.2-0.2l0.2-1c0.2-0.1,0.5-0.2,0.7-0.4l1,0.4c0,0,0,0,0.1,0s0.1,0,0.2-0.1l0.8-1.4
	C22,19.3,22.1,19.1,21.9,19z M18,19.5c-0.9,0-1.5-0.7-1.5-1.5s0.6-1.5,1.5-1.5c0.8,0,1.5,0.7,1.5,1.5S18.8,19.5,18,19.5z"/>
</svg>
