<?xml version="1.0" encoding="utf-8"?>
<!-- Generator: Adobe Illustrator 22.1.0, SVG Export Plug-In . SVG Version: 6.00 Build 0)  -->
<svg version="1.1" id="Ebene_1" xmlns="http://www.w3.org/2000/svg" xmlns:xlink="http://www.w3.org/1999/xlink" x="0px" y="0px"
	 width="24px" height="24px" viewBox="0 0 24 24" enable-background="new 0 0 24 24" xml:space="preserve">
<path fill="none" d="M0,0h24v24H0V0z"/>
<path fill="#F07828" d="M14,2H6C4.9,2,4,2.9,4,4v16c0,1.1,0.9,2,2,2h12c1.1,0,2-0.9,2-2V8L14,2z"/>
<polygon fill="#F7B681" points="14,2 14,8 20,8 "/>
<path fill="#FFFFFF" d="M12,6v6.2c-0.3-0.1-0.6-0.2-1-0.2c-1.7,0-3,1.3-3,3s1.3,3,3,3s3-1.3,3-3V8h2V6H12z M11,16c-0.6,0-1-0.4-1-1
	s0.4-1,1-1s1,0.4,1,1S11.6,16,11,16z"/>
</svg>
