<?xml version="1.0" encoding="utf-8"?>
<!-- Generator: Adobe Illustrator 22.1.0, SVG Export Plug-In . SVG Version: 6.00 Build 0)  -->
<svg version="1.1" id="Ebene_1" xmlns="http://www.w3.org/2000/svg" xmlns:xlink="http://www.w3.org/1999/xlink" x="0px" y="0px"
	 width="24px" height="24px" viewBox="0 0 24 24" enable-background="new 0 0 24 24" xml:space="preserve">
<path fill="#B7A418" d="M20.9,10.9L20.9,10.9l-3.4-4.6l0,0C16.9,5.5,16,5,15,5c-0.9,0-1.7,0.4-2.2,1h-1.6C10.7,5.4,9.9,5,9,5
	C8,5,7.1,5.5,6.6,6.2l0,0L3,11l0,0c-0.6,0.8-1,1.9-1,3c0,2.8,2.2,5,5,5s5-2.2,5-5c0,2.8,2.2,5,5,5s5-2.2,5-5
	C22,12.8,21.6,11.7,20.9,10.9z"/>
<circle fill="#F0DC28" cx="7" cy="14" r="5"/>
<circle fill="#F0DC28" cx="17" cy="14" r="5"/>
<circle fill="#0C0F12" cx="7" cy="14" r="3"/>
<circle fill="#0C0F12" cx="17" cy="14" r="3"/>
</svg>
