<?xml version="1.0" encoding="utf-8"?>
<!-- Generator: Adobe Illustrator 22.1.0, SVG Export Plug-In . SVG Version: 6.00 Build 0)  -->
<svg version="1.1" id="Ebene_1" xmlns="http://www.w3.org/2000/svg" xmlns:xlink="http://www.w3.org/1999/xlink" x="0px" y="0px"
	 width="24px" height="24px" viewBox="0 0 24 24" enable-background="new 0 0 24 24" xml:space="preserve">
<path fill="#B7A418" d="M12,8c2.2,0,4,1.8,4,4s-1.8,4-4,4s-4-1.8-4-4S9.8,8,12,8 M12,6c-3.3,0-6,2.7-6,6s2.7,6,6,6s6-2.7,6-6
	S15.3,6,12,6L12,6z"/>
<path fill="#F0DC28" d="M19.3,9.6c-0.7-0.4-1.5-0.6-2.3-0.7c0.3-0.7,0.5-1.5,0.5-2.4c0-1.6-0.7-3.1-1.9-4.1c0.5,0.7,0.7,1.5,0.7,2.5
	c0,2.5-2,4.5-4.5,4.5c-2.5,0-4.5-2-4.5-4.5c0-0.9,0.3-1.8,0.7-2.5c-1.1,1-1.9,2.5-1.9,4.1c0,0.8,0.2,1.6,0.5,2.4
	C6.2,9,5.4,9.2,4.7,9.6c-1.4,0.8-2.4,2.2-2.7,3.7c0.4-0.8,1-1.4,1.8-1.9c2.2-1.2,4.9-0.5,6.2,1.7c1.2,2.2,0.5,4.9-1.7,6.2
	c-0.8,0.5-1.7,0.6-2.5,0.6c1.5,0.5,3.1,0.4,4.6-0.5C11,19,11.6,18.5,12,18c0.4,0.6,1,1.1,1.7,1.5c1.4,0.8,3.1,0.9,4.6,0.5
	c-0.9,0.1-1.7-0.1-2.5-0.6c-2.2-1.2-2.9-4-1.7-6.2s4-2.9,6.2-1.7c0.8,0.5,1.4,1.1,1.8,1.9C21.7,11.8,20.8,10.5,19.3,9.6z M12,12.8
	c-0.6,0-1-0.5-1-1c0-0.6,0.5-1,1-1c0.6,0,1,0.5,1,1C13,12.4,12.6,12.8,12,12.8z"/>
</svg>
