<?xml version="1.0" encoding="utf-8"?>
<!-- Generator: Adobe Illustrator 22.1.0, SVG Export Plug-In . SVG Version: 6.00 Build 0)  -->
<svg version="1.1" id="Ebene_1" xmlns="http://www.w3.org/2000/svg" xmlns:xlink="http://www.w3.org/1999/xlink" x="0px" y="0px"
	 width="24px" height="24px" viewBox="0 0 24 24" enable-background="new 0 0 24 24" xml:space="preserve">
<path fill="#A3A5A7" d="M14.4,11l1.6,1.6V11H14.4z M17,7h-4v1.9h4c1.7,0,3.1,1.4,3.1,3.1c0,1.3-0.8,2.4-1.9,2.8l1.4,1.4
	C21,15.4,22,13.8,22,12C22,9.2,19.8,7,17,7z M2,4.3l3.1,3.1C3.3,8.1,2,9.9,2,12c0,2.8,2.2,5,5,5h4v-1.9H7c-1.7,0-3.1-1.4-3.1-3.1
	c0-1.6,1.2-2.9,2.8-3.1l2,2.1H8v2h2.7l2.3,2.3V17h1.7l4,4l1.4-1.4L3.4,2.9L2,4.3z"/>
</svg>
