<?xml version="1.0" encoding="utf-8"?>
<!-- Generator: Adobe Illustrator 22.1.0, SVG Export Plug-In . SVG Version: 6.00 Build 0)  -->
<svg version="1.1" id="Ebene_1" xmlns="http://www.w3.org/2000/svg" xmlns:xlink="http://www.w3.org/1999/xlink" x="0px" y="0px"
	 width="24px" height="24px" viewBox="0 0 24 24" enable-background="new 0 0 24 24" xml:space="preserve">
<path fill="#F03C28" d="M19.5,9c-0.3,0-0.6,0.1-0.9,0.2C18.2,8.5,17.4,8,16.5,8c-0.6,0-1.1,0.2-1.5,0.5C14.6,8.2,14.1,8,13.5,8
	c-0.2,0-0.3,0-0.5,0.1V3.5C13,2.1,11.9,1,10.5,1S8,2.1,8,3.5v9.8L5.6,12c-0.7-0.4-1.6-0.3-2.3,0.3l-2.1,1.8l7.3,7.6
	c0.8,0.8,1.8,1.2,2.9,1.2H18c2.2,0,4-1.8,4-4v-6.5v-1C22,10.1,20.9,9,19.5,9z"/>
<path fill="#FFFFFF" d="M16,10.5c0-0.3,0.2-0.5,0.5-0.5s0.5,0.2,0.5,0.5v1v1c0,0.3-0.2,0.5-0.5,0.5S16,12.8,16,12.5V10.5z"/>
<path fill="#FFFFFF" d="M13,10.5c0-0.3,0.2-0.5,0.5-0.5s0.5,0.2,0.5,0.5v2c0,0.3-0.2,0.5-0.5,0.5S13,12.8,13,12.5V10.5z"/>
<path fill="#FFFFFF" d="M20,19c0,1.1-0.9,2-2,2h-6.6c-0.5,0-1.1-0.2-1.4-0.6l-5.9-6.1l0.5-0.5l5.3,2.8V3.5C10,3.2,10.2,3,10.5,3
	S11,3.2,11,3.5v9c0,1.4,1.1,2.5,2.5,2.5c0.6,0,1.1-0.2,1.5-0.5c0.4,0.3,0.9,0.5,1.5,0.5s1.1-0.2,1.5-0.5c0.4,0.3,0.9,0.5,1.5,0.5
	c0.2,0,0.3,0,0.5-0.1V19z"/>
<path fill="#FFFFFF" d="M20,12.5c0,0.3-0.2,0.5-0.5,0.5S19,12.8,19,12.5v-1c0-0.3,0.2-0.5,0.5-0.5s0.5,0.2,0.5,0.5V12.5z"/>
</svg>
