<?xml version="1.0" encoding="utf-8"?>
<!-- Generator: Adobe Illustrator 22.1.0, SVG Export Plug-In . SVG Version: 6.00 Build 0)  -->
<svg version="1.1" id="Ebene_1" xmlns="http://www.w3.org/2000/svg" xmlns:xlink="http://www.w3.org/1999/xlink" x="0px" y="0px"
	 width="24px" height="24px" viewBox="0 0 24 24" enable-background="new 0 0 24 24" xml:space="preserve">
<path fill="#A3A5A7" d="M11,12.4c1.5,0.9,3.5,0.7,4.8-0.6l3-3c1.6-1.6,1.6-4.1,0-5.7s-4.1-1.6-5.7,0l-3,3C8.9,7.5,8.7,9.5,9.6,11
	l-3.3,3.3C5.6,15,5.2,16,5.2,17s0.4,2,1.1,2.7c1.5,1.5,3.9,1.5,5.4,0l2-2c0.7-0.7,1.9-0.7,2.6,0c0.7,0.7,0.7,1.9,0,2.6
	c-0.4,0.4-0.4,1,0,1.4c0.2,0.2,0.5,0.3,0.7,0.3s0.5-0.1,0.7-0.3c1.5-1.5,1.5-3.9,0-5.4s-3.9-1.5-5.4,0l-2,2c-0.7,0.7-1.9,0.7-2.6,0
	C7.4,18,7.2,17.5,7.2,17s0.2-0.9,0.5-1.3L11,12.4z"/>
<circle fill="#FFFFFF" cx="13" cy="9" r="2"/>
</svg>
