<?xml version="1.0" encoding="utf-8"?>
<!-- Generator: Adobe Illustrator 22.1.0, SVG Export Plug-In . SVG Version: 6.00 Build 0)  -->
<svg version="1.1" id="Ebene_1" xmlns="http://www.w3.org/2000/svg" xmlns:xlink="http://www.w3.org/1999/xlink" x="0px" y="0px"
	 width="24px" height="24px" viewBox="0 0 24 24" enable-background="new 0 0 24 24" xml:space="preserve">
<path fill="#A3A5A7" d="M9,2H4C2.9,2,2,2.9,2,4v5c0,1.1,0.9,2,2,2h5c1.1,0,2-0.9,2-2V4C11,2.9,10.1,2,9,2"/>
<polyline fill="#FFFFFF" points="9,7 4,7 4,6 9,6 9,7 "/>
<path fill="#A3A5A7" d="M20,13h-5c-1.1,0-2,0.9-2,2v5c0,1.1,0.9,2,2,2h5c1.1,0,2-0.9,2-2v-5C22,13.9,21.1,13,20,13"/>
<polyline fill="#FFFFFF" points="20,19 15,19 15,18 20,18 20,19 "/>
<polyline fill="#FFFFFF" points="20,17 15,17 15,16 20,16 20,17 "/>
<path fill="#A3A5A7" d="M20,2h-5c-1.1,0-2,0.9-2,2v5c0,1.1,0.9,2,2,2h5c1.1,0,2-0.9,2-2V4C22,2.9,21.1,2,20,2"/>
<polyline fill="#FFFFFF" points="20,7 18,7 18,9 17,9 17,7 15,7 15,6 17,6 17,4 18,4 18,6 20,6 20,7 "/>
<path fill="#A3A5A7" d="M9,13H4c-1.1,0-2,0.9-2,2v5c0,1.1,0.9,2,2,2h5c1.1,0,2-0.9,2-2v-5C11,13.9,10.1,13,9,13"/>
<polygon fill="#FFFFFF" points="8.6,18.9 7.9,19.6 6.5,18.2 5.1,19.6 4.4,18.9 5.8,17.5 4.4,16.1 5.1,15.4 6.5,16.8 7.9,15.4 
	8.6,16.1 7.2,17.5 "/>
</svg>
