<?xml version="1.0" encoding="utf-8"?>
<!-- Generator: Adobe Illustrator 22.1.0, SVG Export Plug-In . SVG Version: 6.00 Build 0)  -->
<svg version="1.1" id="Ebene_1" xmlns="http://www.w3.org/2000/svg" xmlns:xlink="http://www.w3.org/1999/xlink" x="0px" y="0px"
	 width="24px" height="24px" viewBox="0 0 24 24" enable-background="new 0 0 24 24" xml:space="preserve">
<path fill="#F03C28" d="M2,12c0,5.5,4.5,10,10,10s10-4.5,10-10S17.5,2,12,2S2,6.5,2,12z M7.1,18.3L18.3,7.1c1.1,1.3,1.7,3,1.7,4.9
	c0,4.4-3.6,8-8,8C10.1,20,8.4,19.4,7.1,18.3z M4,12c0-4.4,3.6-8,8-8c1.9,0,3.6,0.6,4.9,1.7L5.7,16.9C4.6,15.6,4,13.9,4,12z"/>
</svg>
