<?xml version="1.0" encoding="utf-8"?>
<!-- Generator: Adobe Illustrator 22.1.0, SVG Export Plug-In . SVG Version: 6.00 Build 0)  -->
<svg version="1.1" id="Ebene_1" xmlns="http://www.w3.org/2000/svg" xmlns:xlink="http://www.w3.org/1999/xlink" x="0px" y="0px"
	 width="24px" height="24px" viewBox="0 0 24 24" enable-background="new 0 0 24 24" xml:space="preserve">
<path fill="#A3A5A7" d="M9,21c0,0.6,0.4,1,1,1s1-0.4,1-1v-9H9V21z"/>
<path fill="#A3A5A7" d="M13,21c0,0.6,0.4,1,1,1s1-0.4,1-1v-9h-2V21z"/>
<path fill="#2878F0" d="M18,4c0-1.1-0.9-2-2-2H8C6.9,2,6,2.9,6,4v2h12V4z"/>
<path fill="#2878F0" d="M6,9v1c0,1.1,0.9,2,2,2h1h2h2h2h1c1.1,0,2-0.9,2-2V9c0,0,0,0,0,0L6,9C6,9,6,9,6,9z"/>
<rect x="7" y="8" fill="#5B9CF5" width="10" height="1"/>
<rect x="7" y="6" fill="#5B9CF5" width="10" height="1"/>
<rect x="6" y="7" fill="#2878F0" width="12" height="1"/>
</svg>
