<?xml version="1.0" encoding="utf-8"?>
<!-- Generator: Adobe Illustrator 22.1.0, SVG Export Plug-In . SVG Version: 6.00 Build 0)  -->
<svg version="1.1" id="Ebene_1" xmlns="http://www.w3.org/2000/svg" xmlns:xlink="http://www.w3.org/1999/xlink" x="0px" y="0px"
	 width="24px" height="24px" viewBox="0 0 24 24" enable-background="new 0 0 24 24" xml:space="preserve">
<path fill="#F7B681" d="M2,10v8c0,1.1,0.9,2,2,2h16c1.1,0,2-0.9,2-2v-8H2z"/>
<path fill="#FFFFFF" d="M20,4H4C2.9,4,2,4.9,2,6v4h20V6C22,4.9,21.1,4,20,4z"/>
<path fill="#F07828" d="M18,4l2,4h-3l-2-4h-2l2,4h-3l-2-4H8l2,4H7L5,4H4C2.9,4,2,4.9,2,6v4h20V4H18z"/>
</svg>
