<?xml version="1.0" encoding="utf-8"?>
<!-- Generator: Adobe Illustrator 22.1.0, SVG Export Plug-In . SVG Version: 6.00 Build 0)  -->
<svg version="1.1" id="Ebene_1" xmlns="http://www.w3.org/2000/svg" xmlns:xlink="http://www.w3.org/1999/xlink" x="0px" y="0px"
	 width="24px" height="24px" viewBox="0 0 24 24" enable-background="new 0 0 24 24" xml:space="preserve">
<rect x="3" y="3" fill="#66696C" width="18" height="18"/>
<rect x="14" y="11" fill="#C1C3C5" width="4" height="2"/>
<rect x="11" y="10" fill="#C1C3C5" width="2" height="4"/>
<rect x="6" y="11" fill="#C1C3C5" width="4" height="2"/>
<rect x="3" y="10" fill="#C1C3C5" width="2" height="4"/>
<rect x="19" y="10" fill="#C1C3C5" width="2" height="4"/>
<rect x="3" y="7" fill="#C1C3C5" width="3" height="2"/>
<rect x="10" y="7" fill="#C1C3C5" width="4" height="2"/>
<rect x="18" y="7" fill="#C1C3C5" width="3" height="2"/>
<rect x="15" y="6" fill="#C1C3C5" width="2" height="4"/>
<rect x="7" y="6" fill="#C1C3C5" width="2" height="4"/>
<rect x="3" y="15" fill="#C1C3C5" width="3" height="2"/>
<rect x="10" y="15" fill="#C1C3C5" width="4" height="2"/>
<rect x="18" y="15" fill="#C1C3C5" width="3" height="2"/>
<rect x="15" y="14" fill="#C1C3C5" width="2" height="4"/>
<rect x="7" y="14" fill="#C1C3C5" width="2" height="4"/>
<rect x="14" y="3" fill="#C1C3C5" width="4" height="2"/>
<rect x="11" y="3" fill="#C1C3C5" width="2" height="3"/>
<rect x="6" y="3" fill="#C1C3C5" width="4" height="2"/>
<rect x="3" y="3" fill="#C1C3C5" width="2" height="3"/>
<rect x="19" y="3" fill="#C1C3C5" width="2" height="3"/>
<rect x="14" y="19" fill="#C1C3C5" width="4" height="2"/>
<rect x="11" y="18" fill="#C1C3C5" width="2" height="3"/>
<rect x="6" y="19" fill="#C1C3C5" width="4" height="2"/>
<rect x="3" y="18" fill="#C1C3C5" width="2" height="3"/>
<rect x="19" y="18" fill="#C1C3C5" width="2" height="3"/>
</svg>
