<?xml version="1.0" encoding="utf-8"?>
<!-- Generator: Adobe Illustrator 22.1.0, SVG Export Plug-In . SVG Version: 6.00 Build 0)  -->
<svg version="1.1" id="Ebene_1" xmlns="http://www.w3.org/2000/svg" xmlns:xlink="http://www.w3.org/1999/xlink" x="0px" y="0px"
	 width="24px" height="24px" viewBox="0 0 24 24" enable-background="new 0 0 24 24" xml:space="preserve">
<path fill="#2878F0" d="M4,8c-1.1,0-2,0.9-2,2s0.9,2,2,2s2-0.9,2-2S5.1,8,4,8 M4,13c-1.3,0-4,0.7-4,2.1V16h8v-0.9
	C8,13.7,5.3,13,4,13"/>
<path fill="#F03C28" d="M20,8c-1.1,0-2,0.9-2,2s0.9,2,2,2s2-0.9,2-2S21.1,8,20,8 M20,13c-1.3,0-4,0.7-4,2.1V16h8v-0.9
	C24,13.7,21.3,13,20,13"/>
<path fill="none" stroke="#2878F0" stroke-linecap="round" stroke-miterlimit="10" d="M5.6,5.6c3.5-3.5,9.2-3.5,12.7,0"/>
<path fill="none" stroke="#F03C28" stroke-linecap="round" stroke-miterlimit="10" d="M18.4,18.4c-3.5,3.5-9.2,3.5-12.7,0"/>
</svg>
