<?xml version="1.0" encoding="utf-8"?>
<!-- Generator: Adobe Illustrator 22.1.0, SVG Export Plug-In . SVG Version: 6.00 Build 0)  -->
<svg version="1.1" id="Ebene_1" xmlns="http://www.w3.org/2000/svg" xmlns:xlink="http://www.w3.org/1999/xlink" x="0px" y="0px"
	 width="24px" height="24px" viewBox="0 0 24 24" enable-background="new 0 0 24 24" xml:space="preserve">
<path fill="#A3A5A7" d="M20,19H4c-1.1,0-2-0.9-2-2V7c0-1.1,0.9-2,2-2h16c1.1,0,2,0.9,2,2v10C22,18.1,21.1,19,20,19z"/>
<path fill="#FFFFFF" d="M14,7c-2.8,0-5,2.2-5,5s2.2,5,5,5s5-2.2,5-5S16.8,7,14,7"/>
<circle fill="#A3A5A7" cx="14" cy="12" r="3"/>
<path fill="#FFFFFF" d="M7,9H5C4.4,9,4,8.6,4,8l0,0c0-0.6,0.4-1,1-1h2c0.6,0,1,0.4,1,1l0,0C8,8.6,7.6,9,7,9z"/>
</svg>
