<?xml version="1.0" encoding="utf-8"?>
<!-- Generator: Adobe Illustrator 22.1.0, SVG Export Plug-In . SVG Version: 6.00 Build 0)  -->
<svg version="1.1" id="Ebene_1" xmlns="http://www.w3.org/2000/svg" xmlns:xlink="http://www.w3.org/1999/xlink" x="0px" y="0px"
	 width="24px" height="24px" viewBox="0 0 24 24" enable-background="new 0 0 24 24" xml:space="preserve">
<path fill="none" d="M0,0h24v24H0V0z"/>
<path fill="#89BBF8" d="M12.5,18h-9C2.7,18,2,17.3,2,16.5v-13C2,2.7,2.7,2,3.5,2H9l5,5v9.5C14,17.3,13.3,18,12.5,18z"/>
<path fill="#5A9BF5" d="M20.5,22h-9c-0.8,0-1.5-0.7-1.5-1.5v-13C10,6.7,10.7,6,11.5,6H17l5,5v9.5C22,21.3,21.3,22,20.5,22z"/>
<polygon fill="#89BBF8" points="17,6 17,11 22,11 "/>
</svg>
