<?xml version="1.0" encoding="utf-8"?>
<!-- Generator: Adobe Illustrator 22.1.0, SVG Export Plug-In . SVG Version: 6.00 Build 0)  -->
<svg version="1.1" id="Ebene_1" xmlns="http://www.w3.org/2000/svg" xmlns:xlink="http://www.w3.org/1999/xlink" x="0px" y="0px"
	 width="24px" height="24px" viewBox="0 0 24 24" enable-background="new 0 0 24 24" xml:space="preserve">
<circle fill="#28A050" cx="8" cy="8" r="7"/>
<circle fill="#2878F0" cx="16" cy="16" r="7"/>
<g>
	<path fill="#FFFFFF" d="M9,9.7c0-0.3-0.1-0.5-0.2-0.6C8.6,8.9,8.4,8.8,8,8.6S7.4,8.4,7.1,8.3S6.6,8,6.4,7.8C6.3,7.6,6.1,7.4,6,7.2
		C5.9,7,5.9,6.7,5.9,6.4c0-0.6,0.2-1,0.5-1.4s0.8-0.6,1.4-0.6v-1h0.8v1.1c0.6,0.1,1,0.3,1.4,0.7s0.5,0.9,0.5,1.6H9
		c0-0.5-0.1-0.8-0.2-1C8.6,5.6,8.4,5.5,8.1,5.5c-0.3,0-0.5,0.1-0.6,0.2S7.3,6.1,7.3,6.4c0,0.2,0.1,0.4,0.2,0.6s0.4,0.3,0.8,0.5
		c0.4,0.2,0.7,0.3,1,0.4s0.5,0.3,0.6,0.5s0.3,0.4,0.4,0.6s0.1,0.5,0.1,0.8c0,0.6-0.2,1-0.5,1.3s-0.8,0.5-1.4,0.6v1H7.7v-1
		C7,11.6,6.5,11.4,6.1,11c-0.3-0.4-0.5-1-0.5-1.6H7c0,0.4,0.1,0.7,0.3,0.9c0.2,0.2,0.4,0.3,0.8,0.3c0.3,0,0.5-0.1,0.7-0.2
		S9,10,9,9.7z"/>
</g>
<g>
	<path fill="#FFFFFF" d="M16.9,17h-1.6c0,0.5,0.1,0.8,0.4,1.1c0.2,0.2,0.6,0.4,1.1,0.4c0.3,0,0.7-0.1,0.9-0.2l0.2,1.2
		c-0.4,0.1-0.8,0.1-1.3,0.1c-0.9,0-1.5-0.2-2-0.7s-0.8-1.1-0.8-1.9H13v-0.7h0.8v-0.6H13V15h0.8c0.1-0.8,0.3-1.5,0.9-1.9
		c0.5-0.5,1.2-0.7,2.1-0.7c0.3,0,0.7,0.1,1.2,0.2l-0.2,1.2c-0.3-0.1-0.6-0.2-0.9-0.2c-0.9,0-1.4,0.5-1.5,1.4H17v0.7h-1.6v0.6H17V17
		H16.9z"/>
</g>
</svg>
