<?xml version="1.0" encoding="utf-8"?>
<!-- Generator: Adobe Illustrator 22.1.0, SVG Export Plug-In . SVG Version: 6.00 Build 0)  -->
<svg version="1.1" id="Ebene_1" xmlns="http://www.w3.org/2000/svg" xmlns:xlink="http://www.w3.org/1999/xlink" x="0px" y="0px"
	 width="24px" height="24px" viewBox="0 0 24 24" enable-background="new 0 0 24 24" xml:space="preserve">
<path fill="#F0DC28" d="M12.2,1C7.2,0.9,3,5.3,3,10.3v5.8c0,2,0.9,2.9,2,2.9v-8.7C5,6.4,8,3.1,11.9,3c4-0.1,7.1,3.1,7.1,7v10
	c0,0.6-0.4,1-1,1h-6v2h6c1.7,0,3-1.3,3-3V10C21,5.1,17.1,1.1,12.2,1z"/>
<path fill="#B7A418" d="M7,19H5v-8h2c1.1,0,2,0.9,2,2v4C9,18.1,8.1,19,7,19z"/>
<path fill="#B7A418" d="M17,19h2v-8h-2c-1.1,0-2,0.9-2,2v4C15,18.1,15.9,19,17,19z"/>
<rect x="15" y="21" fill="#B7A418" width="1" height="2"/>
</svg>
