<?xml version="1.0" encoding="utf-8"?>
<!-- Generator: Adobe Illustrator 22.1.0, SVG Export Plug-In . SVG Version: 6.00 Build 0)  -->
<svg version="1.1" id="Ebene_1" xmlns="http://www.w3.org/2000/svg" xmlns:xlink="http://www.w3.org/1999/xlink" x="0px" y="0px"
	 width="24px" height="24px" viewBox="0 0 24 24" enable-background="new 0 0 24 24" xml:space="preserve">
<rect x="3" y="16" fill="#8C5BC9" width="18" height="4"/>
<rect x="4" y="17" fill="#FFFFFF" width="2" height="2"/>
<rect x="3" y="4" fill="#8C5BC9" width="18" height="4"/>
<rect x="4" y="5" fill="#FFFFFF" width="2" height="2"/>
<rect x="3" y="10" fill="#8C5BC9" width="18" height="4"/>
<rect x="4" y="11" fill="#FFFFFF" width="2" height="2"/>
<circle fill="#F03C28" cx="18" cy="18" r="6"/>
<g>
	<path fill="#FFFFFF" d="M20,17v-1c0-1.1-0.9-2-2-2s-2,0.9-2,2v1c-0.6,0-1,0.4-1,1v3c0,0.6,0.4,1,1,1h4c0.6,0,1-0.4,1-1v-3
		C21,17.4,20.6,17,20,17z M17,16c0-0.6,0.4-1,1-1s1,0.4,1,1v1h-2V16z"/>
</g>
<circle fill="#F03C28" cx="18" cy="19" r="1"/>
</svg>
