<?xml version="1.0" encoding="utf-8"?>
<!-- Generator: Adobe Illustrator 22.1.0, SVG Export Plug-In . SVG Version: 6.00 Build 0)  -->
<svg version="1.1" id="Ebene_1" xmlns="http://www.w3.org/2000/svg" xmlns:xlink="http://www.w3.org/1999/xlink" x="0px" y="0px"
	 width="24px" height="24px" viewBox="0 0 24 24" enable-background="new 0 0 24 24" xml:space="preserve">
<path fill="#5B9CF5" d="M14,2H6C4.9,2,4,2.9,4,4v16c0,1.1,0.9,2,2,2h12c1.1,0,2-0.9,2-2V8L14,2z"/>
<polygon fill="#89BBF8" points="14,2 14,8 20,8 "/>
<g>
	<rect x="7" y="11" fill="#FFFFFF" width="2" height="1"/>
	<rect x="11" y="11" fill="#FFFFFF" width="2" height="1"/>
	<rect x="15" y="11" fill="#FFFFFF" width="2" height="1"/>
</g>
<g>
	<rect x="7" y="13" fill="#FFFFFF" width="2" height="1"/>
	<rect x="11" y="13" fill="#0C0F12" width="2" height="1"/>
	<rect x="15" y="13" fill="#0C0F12" width="2" height="1"/>
</g>
<g>
	<rect x="7" y="15" fill="#0C0F12" width="2" height="1"/>
	<rect x="11" y="15" fill="#FFFFFF" width="2" height="1"/>
	<rect x="15" y="15" fill="#0C0F12" width="2" height="1"/>
</g>
<g>
	<rect x="7" y="17" fill="#FFFFFF" width="2" height="1"/>
	<rect x="11" y="17" fill="#0C0F12" width="2" height="1"/>
	<rect x="15" y="17" fill="#0C0F12" width="2" height="1"/>
</g>
</svg>
