<?xml version="1.0" encoding="utf-8"?>
<!-- Generator: Adobe Illustrator 22.1.0, SVG Export Plug-In . SVG Version: 6.00 Build 0)  -->
<svg version="1.1" id="Ebene_1" xmlns="http://www.w3.org/2000/svg" xmlns:xlink="http://www.w3.org/1999/xlink" x="0px" y="0px"
	 width="24px" height="24px" viewBox="0 0 24 24" enable-background="new 0 0 24 24" xml:space="preserve">
<rect x="3.2" y="15.4" transform="matrix(0.7597 -0.6503 0.6503 0.7597 -8.834 7.9934)" fill="#2878F0" width="6.3" height="1"/>
<rect x="5.8" y="4.9" transform="matrix(0.651 -0.7591 0.7591 0.651 -3.8608 7.5993)" fill="#2878F0" width="1" height="6.1"/>
<rect x="10.9" y="6.3" transform="matrix(0.5304 -0.8478 0.8478 0.5304 0.9273 15.2765)" fill="#2878F0" width="6.6" height="1"/>
<rect x="13.7" y="11.5" fill="#2878F0" width="6.3" height="1"/>
<rect x="13.8" y="13.9" transform="matrix(0.8478 -0.5303 0.5303 0.8478 -6.9519 10.1762)" fill="#2878F0" width="1" height="6.6"/>
<g>
	<path fill="#2878F0" d="M11,10c1.1,0,2,0.9,2,2s-0.9,2-2,2s-2-0.9-2-2S9.9,10,11,10 M11,8c-2.2,0-4,1.8-4,4s1.8,4,4,4s4-1.8,4-4
		S13.2,8,11,8L11,8z"/>
</g>
<circle fill="#2878F0" cx="4" cy="6" r="2"/>
<circle fill="#2878F0" cx="4" cy="18" r="2"/>
<circle fill="#2878F0" cx="16" cy="4" r="2"/>
<circle fill="#2878F0" cx="16" cy="20" r="2"/>
<circle fill="#2878F0" cx="20" cy="12" r="2"/>
</svg>
