<?xml version="1.0" encoding="utf-8"?>
<!-- Generator: Adobe Illustrator 22.1.0, SVG Export Plug-In . SVG Version: 6.00 Build 0)  -->
<svg version="1.1" id="Ebene_1" xmlns="http://www.w3.org/2000/svg" xmlns:xlink="http://www.w3.org/1999/xlink" x="0px" y="0px"
	 width="24px" height="24px" viewBox="0 0 24 24" enable-background="new 0 0 24 24" xml:space="preserve">
<rect x="3" y="16" fill="#8C5BC9" width="18" height="4"/>
<rect x="4" y="17" fill="#FFFFFF" width="2" height="2"/>
<rect x="3" y="4" fill="#8C5BC9" width="18" height="4"/>
<rect x="4" y="5" fill="#FFFFFF" width="2" height="2"/>
<rect x="3" y="10" fill="#8C5BC9" width="18" height="4"/>
<rect x="4" y="11" fill="#FFFFFF" width="2" height="2"/>
<circle fill="#2878F0" cx="18" cy="18" r="6"/>
<path fill="#FFFFFF" d="M18,14c-1.1,0-2,0.4-2.7,1.1L14.1,14v3h3L16,15.8c0.5-0.5,1.2-0.8,2-0.8c1.7,0,3,1.3,3,3s-1.3,3-3,3
	c-1.3,0-2.4-0.8-2.8-2h-1c0.4,1.7,2,3,3.9,3c2.2,0,4-1.8,4-4S20.2,14,18,14z"/>
</svg>
