<?xml version="1.0" encoding="utf-8"?>
<!-- Generator: Adobe Illustrator 22.1.0, SVG Export Plug-In . SVG Version: 6.00 Build 0)  -->
<svg version="1.1" id="Ebene_1" xmlns="http://www.w3.org/2000/svg" xmlns:xlink="http://www.w3.org/1999/xlink" x="0px" y="0px"
	 width="24px" height="24px" viewBox="0 0 24 24" enable-background="new 0 0 24 24" xml:space="preserve">
<path fill="#A3A5A7" d="M12,3c2.2,0,4,1.8,4,4c0,0.7-0.2,1.4-0.5,2H18c1,0,1.8,0.7,2,1.6c2,8,2,8.2,2,8.4c0,1.1-0.9,2-2,2H4
	c-1.1,0-2-0.9-2-2c0-0.2,0-0.4,2.1-8.4C4.3,9.7,5.1,9,6,9h2.5C8.2,8.4,8,7.7,8,7C8,4.8,9.8,3,12,3 M12,5c-1.1,0-2,0.9-2,2s0.9,2,2,2
	s2-0.9,2-2S13.1,5,12,5z"/>
<g>
	<path fill="#FFFFFF" d="M12.8,16.6c0-0.2-0.1-0.4-0.2-0.6c-0.1-0.1-0.3-0.3-0.6-0.4c-0.3-0.1-0.6-0.3-0.9-0.4
		c-0.3-0.1-0.5-0.3-0.7-0.4c-0.2-0.2-0.3-0.4-0.4-0.6c-0.1-0.2-0.2-0.5-0.2-0.8c0-0.5,0.2-1,0.5-1.3c0.4-0.3,0.8-0.5,1.4-0.6v-1h0.8
		v1c0.6,0.1,1,0.3,1.4,0.7c0.3,0.4,0.5,0.9,0.5,1.5h-1.6c0-0.3-0.1-0.6-0.2-0.8c-0.1-0.2-0.3-0.3-0.5-0.3c-0.2,0-0.4,0.1-0.5,0.2
		c-0.1,0.1-0.2,0.3-0.2,0.5c0,0.2,0.1,0.4,0.2,0.6c0.1,0.1,0.3,0.3,0.6,0.4c0.3,0.1,0.6,0.3,0.8,0.4c0.3,0.1,0.5,0.3,0.7,0.5
		c0.2,0.2,0.3,0.4,0.4,0.6c0.1,0.2,0.2,0.5,0.2,0.8c0,0.5-0.2,1-0.5,1.3c-0.3,0.3-0.8,0.5-1.4,0.6v1h-0.8v-1
		c-0.7-0.1-1.2-0.3-1.6-0.7c-0.4-0.4-0.6-0.9-0.6-1.6h1.6c0,0.4,0.1,0.6,0.2,0.8c0.2,0.2,0.4,0.3,0.7,0.3c0.2,0,0.4-0.1,0.5-0.2
		C12.7,17,12.8,16.9,12.8,16.6z"/>
</g>
</svg>
