<?xml version="1.0" encoding="utf-8"?>
<!-- Generator: Adobe Illustrator 22.1.0, SVG Export Plug-In . SVG Version: 6.00 Build 0)  -->
<svg version="1.1" id="Ebene_1" xmlns="http://www.w3.org/2000/svg" xmlns:xlink="http://www.w3.org/1999/xlink" x="0px" y="0px"
	 width="24px" height="24px" viewBox="0 0 24 24" enable-background="new 0 0 24 24" xml:space="preserve">
<polygon fill="#A3A5A7" points="13.4,21 22,9 18,3 6,3 2,9 10.6,21 "/>
<path fill="#E0E1E2" d="M14,17l2-7h3L14,17z M17,5l2,3h-3l-1-3H17z M11,5h2l1,3h-4L11,5z M14,10l-2,8l-2-8H14z M7,5h2L8,8H5L7,5z
	 M5,10h3l2,7L5,10z"/>
</svg>
