<?xml version="1.0" encoding="utf-8"?>
<!-- Generator: Adobe Illustrator 22.1.0, SVG Export Plug-In . SVG Version: 6.00 Build 0)  -->
<svg version="1.1" id="Ebene_1" xmlns="http://www.w3.org/2000/svg" xmlns:xlink="http://www.w3.org/1999/xlink" x="0px" y="0px"
	 width="24px" height="24px" viewBox="0 0 24 24" enable-background="new 0 0 24 24" xml:space="preserve">
<path fill="#A3A5A7" d="M6,2h12c1.1,0,2,0.9,2,2v14c0,1.1-0.9,2-2,2H6c-1.1,0-2-0.9-2-2V4C4,2.9,4.9,2,6,2z"/>
<polyline fill="#FFFFFF" points="6,5 18,5 18,6 6,6 6,5 "/>
<polyline fill="#FFFFFF" points="6,11 12,11 12,12 6,12 6,11 "/>
<rect x="6" y="7" fill="#FFFFFF" width="12" height="1"/>
<rect x="6" y="9" fill="#FFFFFF" width="12" height="1"/>
<polygon fill="#F03C28" points="14,15 10,15 10,23 12,21 14,23 "/>
<g>
	<path fill="#FFFFFF" d="M12,18.5c-1.4,0-2.5-1.1-2.5-2.5s1.1-2.5,2.5-2.5s2.5,1.1,2.5,2.5S13.4,18.5,12,18.5z"/>
	<path fill="#F03C28" d="M12,14c1.1,0,2,0.9,2,2s-0.9,2-2,2s-2-0.9-2-2S10.9,14,12,14 M12,13c-1.7,0-3,1.3-3,3s1.3,3,3,3s3-1.3,3-3
		S13.7,13,12,13L12,13z"/>
</g>
</svg>
