<?xml version="1.0" encoding="utf-8"?>
<!-- Generator: Adobe Illustrator 22.1.0, SVG Export Plug-In . SVG Version: 6.00 Build 0)  -->
<svg version="1.1" id="Ebene_1" xmlns="http://www.w3.org/2000/svg" xmlns:xlink="http://www.w3.org/1999/xlink" x="0px" y="0px"
	 width="24px" height="24px" viewBox="0 0 24 24" enable-background="new 0 0 24 24" xml:space="preserve">
<path fill="#A3A5A7" d="M13.5,17.3l1.4,1.4c-0.5,0.4-1,0.9-1.5,1.3L12,21.3L10.5,20C5.4,15.4,2,12.3,2,8.5c0-0.8,0.2-1.6,0.5-2.3
	l1.6,1.6C4,8,4,8.3,4,8.5c0,2.9,3.1,5.7,7.9,10l0.1,0.1l0.1-0.1C12.6,18.1,13.1,17.7,13.5,17.3z M17.5,16.3l2.5,2.5L18.7,20L2,3.3
	L3.3,2l1.6,1.6C5.7,3.2,6.6,3,7.5,3c1.7,0,3.4,0.8,4.5,2.1C13.1,3.8,14.8,3,16.5,3C19.6,3,22,5.4,22,8.5
	C22,11.2,20.3,13.5,17.5,16.3z M6.4,5.2l9.7,9.7c2.4-2.4,3.9-4.4,3.9-6.3c0-2-1.5-3.5-3.5-3.5c-1.5,0-3,1-3.6,2.4h-1.9
	C10.5,6,9,5,7.5,5C7.1,5,6.8,5.1,6.4,5.2z"/>
</svg>
