<?xml version="1.0" encoding="utf-8"?>
<!-- Generator: Adobe Illustrator 22.1.0, SVG Export Plug-In . SVG Version: 6.00 Build 0)  -->
<svg version="1.1" id="Ebene_1" xmlns="http://www.w3.org/2000/svg" xmlns:xlink="http://www.w3.org/1999/xlink" x="0px" y="0px"
	 width="24px" height="24px" viewBox="0 0 24 24" enable-background="new 0 0 24 24" xml:space="preserve">
<path fill="#1A55C2" d="M21,19H4c-1.1,0-2-0.9-2-2V6c0-1.1,0.9-2,2-2h17c1.1,0,2,0.9,2,2v11C23,18.1,22.1,19,21,19z"/>
<path fill="#FFFFFF" d="M5,11c-0.3,0-0.5-0.2-0.5-0.5v-4C4.5,6.2,4.7,6,5,6s0.5,0.2,0.5,0.5v4C5.5,10.8,5.3,11,5,11z M5.5,16.5v-4
	C5.5,12.2,5.3,12,5,12s-0.5,0.2-0.5,0.5v4C4.5,16.8,4.7,17,5,17S5.5,16.8,5.5,16.5z M13.5,10.5v-3C13.5,7.2,13.3,7,13,7
	s-0.5,0.2-0.5,0.5v3c0,0.3,0.2,0.5,0.5,0.5S13.5,10.8,13.5,10.5z M8.5,15.5v-3C8.5,12.2,8.3,12,8,12s-0.5,0.2-0.5,0.5v3
	C7.5,15.8,7.7,16,8,16S8.5,15.8,8.5,15.5z M12,16.5c0-0.3-0.2-0.5-0.5-0.5h-2C9.2,16,9,16.2,9,16.5S9.2,17,9.5,17h2
	C11.8,17,12,16.8,12,16.5z M12,11.5c0-0.3-0.2-0.5-0.5-0.5h-2C9.2,11,9,11.2,9,11.5S9.2,12,9.5,12h2C11.8,12,12,11.8,12,11.5z
	 M12,6.5C12,6.2,11.8,6,11.5,6h-2C9.2,6,9,6.2,9,6.5S9.2,7,9.5,7h2C11.8,7,12,6.8,12,6.5z M20.5,10.5v-3C20.5,7.2,20.3,7,20,7
	s-0.5,0.2-0.5,0.5v3c0,0.3,0.2,0.5,0.5,0.5S20.5,10.8,20.5,10.5z M20.5,15.5v-3c0-0.3-0.2-0.5-0.5-0.5s-0.5,0.2-0.5,0.5v3
	c0,0.3,0.2,0.5,0.5,0.5S20.5,15.8,20.5,15.5z M19,16.5c0-0.3-0.2-0.5-0.5-0.5h-2c-0.3,0-0.5,0.2-0.5,0.5s0.2,0.5,0.5,0.5h2
	C18.8,17,19,16.8,19,16.5z M19,11.5c0-0.3-0.2-0.5-0.5-0.5h-2c-0.3,0-0.5,0.2-0.5,0.5s0.2,0.5,0.5,0.5h2C18.8,12,19,11.8,19,11.5z
	 M19,6.5C19,6.2,18.8,6,18.5,6h-2C16.2,6,16,6.2,16,6.5S16.2,7,16.5,7h2C18.8,7,19,6.8,19,6.5z"/>
</svg>
