<?xml version="1.0" encoding="UTF-8" standalone="no"?><!DOCTYPE svg PUBLIC "-//W3C//DTD SVG 1.1//EN" "http://www.w3.org/Graphics/SVG/1.1/DTD/svg11.dtd"><svg width="100%" height="100%" viewBox="0 0 48 48" version="1.1" xmlns="http://www.w3.org/2000/svg" xmlns:xlink="http://www.w3.org/1999/xlink" xml:space="preserve" xmlns:serif="http://www.serif.com/" style="fill-rule:evenodd;clip-rule:evenodd;stroke-linejoin:round;stroke-miterlimit:1.41421;"><path d="M17.709,34.249l-4.371,0c-2.569,0 -4.767,-0.781 -6.593,-2.343c-1.827,-1.562 -2.74,-3.442 -2.74,-5.639c0,-1.544 0.486,-2.97 1.458,-4.276c0.973,-1.307 2.278,-2.287 3.917,-2.94c-0.028,-0.356 -0.042,-0.611 -0.042,-0.766c0,-2.518 1.042,-4.668 3.125,-6.449c2.084,-1.782 4.598,-2.673 7.542,-2.673c2.167,0 4.149,0.517 5.948,1.55c1.799,1.033 3.108,2.405 3.927,4.116c0.986,-0.737 2.139,-1.105 3.458,-1.105c1.473,0 2.73,0.446 3.771,1.336c1.042,0.891 1.563,1.966 1.563,3.225c0,0.903 -0.285,1.722 -0.854,2.459c1.805,0.368 3.288,1.173 4.447,2.414c1.16,1.241 1.74,2.658 1.74,4.249c0,1.889 -0.781,3.501 -2.344,4.837c-1.54,1.318 -3.395,1.986 -5.656,2.005l-7.485,0" style="fill:#fff;stroke:#2196f3;stroke-width:3px;"/><path d="M26.07,38.945l0,-14.921c0,-0.171 -0.068,-0.319 -0.205,-0.443c-0.136,-0.125 -0.298,-0.188 -0.485,-0.188l-4.139,0c-0.187,0 -0.348,0.063 -0.485,0.188c-0.137,0.124 -0.205,0.272 -0.205,0.443l0,14.921l-4.829,0c-0.187,0 -0.349,0.062 -0.485,0.187c-0.137,0.125 -0.205,0.272 -0.205,0.443c0,0.184 0.065,0.335 0.194,0.454l7.589,6.937c0.129,0.119 0.295,0.178 0.496,0.178c0.201,0 0.366,-0.059 0.496,-0.178l7.567,-6.918c0.144,-0.157 0.215,-0.315 0.215,-0.473c0,-0.184 -0.064,-0.335 -0.194,-0.453l-0.496,-0.177l-4.829,0Z" style="fill:#ffab00;"/></svg>