<?xml version="1.0" encoding="UTF-8" standalone="no"?><!DOCTYPE svg PUBLIC "-//W3C//DTD SVG 1.1//EN" "http://www.w3.org/Graphics/SVG/1.1/DTD/svg11.dtd"><svg width="100%" height="100%" viewBox="0 0 48 24" version="1.1" xmlns="http://www.w3.org/2000/svg" xmlns:xlink="http://www.w3.org/1999/xlink" xml:space="preserve" xmlns:serif="http://www.serif.com/" style="fill-rule:evenodd;clip-rule:evenodd;stroke-linejoin:round;stroke-miterlimit:1.41421;"><path d="M12,8c-2.2,0 -4,1.8 -4,4c0,2.2 1.8,4 4,4c2.2,0 4,-1.8 4,-4c0,-2.2 -1.8,-4 -4,-4Zm8.9,3c-0.5,-4.2 -3.8,-7.5 -7.9,-7.9l0,-2.1l-2,0l0,2.1c-4.2,0.4 -7.5,3.7 -7.9,7.9l-2.1,0l0,2l2.1,0c0.5,4.2 3.8,7.5 7.9,7.9l0,2.1l2,0l0,-2.1c4.2,-0.5 7.5,-3.8 7.9,-7.9l2.1,0l0,-2l-2.1,0Zm-8.9,8c-3.9,0 -7,-3.1 -7,-7c0,-3.9 3.1,-7 7,-7c3.9,0 7,3.1 7,7c0,3.9 -3.1,7 -7,7Z" style="fill:#f03c28;fill-rule:nonzero;"/><path d="M29,9l1.4,1.4l4.6,-4.6l0,12.2l2,0l0,-12.2l4.6,4.6l1.4,-1.4l-7,-7l-7,7Z" style="fill:#28a050;fill-rule:nonzero;"/><rect x="29" y="20" width="14" height="2" style="fill:#b4b4b4;"/></svg>