<?xml version="1.0" encoding="utf-8"?>
<!-- Generator: Adobe Illustrator 22.1.0, SVG Export Plug-In . SVG Version: 6.00 Build 0)  -->
<svg version="1.1" id="Ebene_1" xmlns:serif="http://www.serif.com/"
	 xmlns="http://www.w3.org/2000/svg" xmlns:xlink="http://www.w3.org/1999/xlink" x="0px" y="0px" width="24px" height="24px"
	 viewBox="0 0 24 24" enable-background="new 0 0 24 24" xml:space="preserve">
<path fill="#F03C28" d="M7.5,9.5c-1.1,0-2,0.9-2,2s0.9,2,2,2s2-0.9,2-2S8.6,9.5,7.5,9.5z M12,11C11.7,8.9,10.1,7.3,8,7.1V6H7v1.1
	C4.9,7.3,3.3,8.9,3.1,11H2v1h1C3.3,14.1,5,15.8,7,15.9V17h1v-1.1c2.1-0.3,3.8-1.9,3.9-3.9H13v-1H12z M7.5,15C5.6,15,4,13.4,4,11.5
	S5.6,8,7.5,8S11,9.6,11,11.5S9.5,15,7.5,15z"/>
<path fill="#28A050" d="M15,9.5l0.7,0.7L18,7.9V15h1V7.9l2.3,2.3L22,9.5L18.5,6L15,9.5z"/>
<rect x="15" y="16" fill="#B4B4B4" width="7" height="1"/>
</svg>
