<?xml version="1.0" encoding="UTF-8" standalone="no"?><!DOCTYPE svg PUBLIC "-//W3C//DTD SVG 1.1//EN" "http://www.w3.org/Graphics/SVG/1.1/DTD/svg11.dtd"><svg width="100%" height="100%" viewBox="0 0 110 48" version="1.1" xmlns="http://www.w3.org/2000/svg" xmlns:xlink="http://www.w3.org/1999/xlink" xml:space="preserve" xmlns:serif="http://www.serif.com/" style="fill-rule:evenodd;clip-rule:evenodd;stroke-linejoin:round;stroke-miterlimit:1.41421;"><g><circle cx="23" cy="24" r="21" style="fill:#f44336;"/><ellipse cx="23" cy="24" rx="14" ry="14.2" style="fill:#fff;"/><circle cx="23" cy="24" r="7.1" style="fill:#f44336;"/></g><g><path d="M76.16,36.301l-4.857,0c-2.855,0 -5.298,-0.978 -7.327,-2.932c-2.03,-1.953 -3.045,-4.305 -3.045,-7.054c0,-1.931 0.54,-3.715 1.62,-5.349c1.082,-1.635 2.532,-2.861 4.353,-3.678c-0.031,-0.446 -0.046,-0.765 -0.046,-0.959c0,-3.15 1.157,-5.839 3.472,-8.068c2.316,-2.23 5.11,-3.343 8.381,-3.343c2.408,0 4.611,0.646 6.61,1.939c1.999,1.293 3.454,3.008 4.364,5.149c1.096,-0.922 2.377,-1.383 3.843,-1.383c1.637,0 3.033,0.558 4.19,1.673c1.158,1.114 1.737,2.459 1.737,4.033c0,1.13 -0.317,2.155 -0.949,3.076c2.006,0.462 3.654,1.467 4.942,3.021c1.289,1.552 1.933,3.325 1.933,5.316c0,2.363 -0.867,4.38 -2.604,6.051c-1.712,1.648 -3.773,2.484 -6.286,2.508l-8.317,0" style="fill:#fff;stroke:#2196f3;stroke-width:3.33px;"/><path d="M79.174,27.711l0,16.58c0,0.19 0.075,0.354 0.227,0.493c0.151,0.138 0.332,0.208 0.539,0.208l4.6,0c0.208,0 0.387,-0.07 0.539,-0.208c0.152,-0.139 0.228,-0.303 0.228,-0.493l0,-16.58l5.366,0c0.208,0 0.388,-0.07 0.539,-0.209c0.152,-0.138 0.228,-0.302 0.228,-0.492c0,-0.205 -0.073,-0.373 -0.216,-0.504l-8.433,-7.71c-0.144,-0.131 -0.328,-0.197 -0.551,-0.197c-0.224,0 -0.407,0.066 -0.552,0.197l-8.409,7.688c-0.158,0.176 -0.238,0.35 -0.238,0.526c0,0.204 0.071,0.372 0.215,0.503l0.551,0.198l5.367,0Z" style="fill:#4caf50;"/></g><path d="M48.945,34.55l5.439,-16.822" style="fill:none;stroke:#000;stroke-width:2px;stroke-linecap:round;stroke-miterlimit:1.5;"/></svg>