<?xml version="1.0" encoding="utf-8"?>
<!-- Generator: Adobe Illustrator 19.2.1, SVG Export Plug-In . SVG Version: 6.00 Build 0)  -->
<svg version="1.1" id="Ebene_1" xmlns="http://www.w3.org/2000/svg" xmlns:xlink="http://www.w3.org/1999/xlink" x="0px" y="0px"
	 viewBox="0 0 48 48" style="enable-background:new 0 0 48 48;" xml:space="preserve">
<style type="text/css">
	.st0{fill:#FFFFFF;}
	.st1{fill:#207245;}
</style>
<g>
	<path class="st0" d="M8,41.7c-1.1,0-2-1.3-2-2.7V8.1c0-1.5,0.9-2.7,2-2.7h32c1.1,0,2,1.3,2,2.7v30.8c0,1.5-0.9,2.7-2,2.7H8z"/>
	<path class="st1" d="M39.8,7.3C39.9,7.4,40,7.7,40,8.1v30.8c0,0.4-0.1,0.6-0.2,0.7H8.2C8.1,39.6,8,39.3,8,38.9V8.1
		c0-0.4,0.1-0.6,0.2-0.7H39.8 M40,3.3H8c-2.2,0-4,2.1-4,4.7v30.8c0,2.6,1.8,4.7,4,4.7h32c2.2,0,4-2.1,4-4.7V8.1
		C44,5.5,42.2,3.3,40,3.3L40,3.3z"/>
</g>
<g>
	<path class="st1" d="M16.7,14.1h15.4v4h-9.6v3h8.9v3.8h-8.9v3.7h9.9v4.2H16.7V14.1z"/>
</g>
</svg>
