<?xml version="1.0" encoding="utf-8"?>
<!-- Generator: Adobe Illustrator 22.1.0, SVG Export Plug-In . SVG Version: 6.00 Build 0)  -->
<svg version="1.1" id="Ebene_1" xmlns="http://www.w3.org/2000/svg" xmlns:xlink="http://www.w3.org/1999/xlink" x="0px" y="0px"
	 width="24px" height="24px" viewBox="0 0 24 24" enable-background="new 0 0 24 24" xml:space="preserve">
<g>
	<g>
		<polygon fill="#A3A5A7" points="20,12 20,10 21.8,10 21,2 19,2 19,4 17.8,4 17,12 14.5,10 12,10 12,12 7,8 7,10 7,12 5,12 5,10.4 
			2,8 2,22 22,22 22,12 		"/>
	</g>
</g>
<path fill="#0C0F12" d="M4,18v2h4v-2H4 M4,14v2h10v-2H4 M10,18v2h4v-2H10 M16,14v2h4v-2H16 M16,18v2h4v-2H16"/>
</svg>
