<?xml version="1.0" encoding="utf-8"?>
<!-- Generator: Adobe Illustrator 22.1.0, SVG Export Plug-In . SVG Version: 6.00 Build 0)  -->
<svg version="1.1" id="Ebene_1" xmlns="http://www.w3.org/2000/svg" xmlns:xlink="http://www.w3.org/1999/xlink" x="0px" y="0px"
	 width="24px" height="24px" viewBox="0 0 24 24" enable-background="new 0 0 24 24" xml:space="preserve">
<path display="none" fill="none" d="M0,0h24v24H0V0z"/>
<path fill="#A3A5A7" d="M4,2C2.9,2,2,2.9,2,4v13l3-3h7c1.1,0,2-0.9,2-2V4c0-1.1-0.9-2-2-2H4z"/>
<path fill="#28A050" d="M12,7c-1.1,0-2,0.9-2,2v8c0,1.1,0.9,2,2,2h6l4,4V9c0-1.1-0.9-2-2-2H12z"/>
<g>
	<path fill="#FFFFFF" d="M17.1,14.8h-2.2L14.5,16h-1.3l2.2-6h1.1l2.2,6h-1.3L17.1,14.8z M15.3,13.8h1.5L16,11.5L15.3,13.8z"/>
	<path fill="#FFFFFF" d="M10,8.2c0,0.6,0,1-0.2,1.5c-0.2,0.4-0.4,0.7-0.8,1l1,0.8l-0.8,0.7l-1.3-1c-0.1,0-0.3,0-0.5,0
		c-0.5,0-0.9-0.1-1.3-0.4s-0.7-0.6-0.9-1C5.1,9.3,5,8.8,5,8.2V7.9c0-0.6,0.1-1.1,0.3-1.6c0.2-0.4,0.5-0.8,0.9-1S7,4.9,7.5,4.9
		S8.4,5,8.8,5.3c0.4,0.2,0.7,0.6,0.9,1s0.3,1,0.3,1.6V8.2L10,8.2z M8.9,7.9c0-0.6-0.1-1.1-0.3-1.4C8.3,6.1,8,6,7.6,6s-0.7,0.2-1,0.5
		S6.3,7.2,6.3,7.9v0.3c0,0.6,0.1,1.1,0.3,1.4s0.5,0.5,1,0.5c0.4,0,0.7-0.2,1-0.5c0.2-0.3,0.3-0.8,0.3-1.4L8.9,7.9z"/>
</g>
</svg>
