<?xml version="1.0" encoding="utf-8"?>
<!-- Generator: Adobe Illustrator 22.1.0, SVG Export Plug-In . SVG Version: 6.00 Build 0)  -->
<svg version="1.1" id="Ebene_1" xmlns="http://www.w3.org/2000/svg" xmlns:xlink="http://www.w3.org/1999/xlink" x="0px" y="0px"
	 width="24px" height="24px" viewBox="0 0 24 24" enable-background="new 0 0 24 24" xml:space="preserve">
<path fill="#5B9CF5" d="M14,2H6C4.9,2,4,2.9,4,4v16c0,1.1,0.9,2,2,2h12c1.1,0,2-0.9,2-2V8L14,2z"/>
<polygon fill="#89BBF8" points="14,2 14,8 20,8 "/>
<path fill="#FFFFFF" d="M16.9,17l-3.6-3.5c0.5-1.2,0.2-2.6-0.7-3.5c-1-1-2.6-1.2-3.8-0.6l2.2,2.2L9.6,13l-2.2-2.2
	C6.7,12,6.9,13.5,8,14.6c0.9,0.9,2.3,1.2,3.5,0.7l3.6,3.6c0.2,0.2,0.5,0.2,0.7,0l1.2-1.2C17,17.5,17,17.2,16.9,17z"/>
</svg>
