<?xml version="1.0" encoding="utf-8"?>
<!-- Generator: Adobe Illustrator 19.2.1, SVG Export Plug-In . SVG Version: 6.00 Build 0)  -->
<svg version="1.1" id="Ebene_1" xmlns="http://www.w3.org/2000/svg" xmlns:xlink="http://www.w3.org/1999/xlink" x="0px" y="0px"
	 viewBox="0 0 48 48" style="enable-background:new 0 0 48 48;" xml:space="preserve">
<style type="text/css">
	.st0{fill:#90CAF9;}
	.st1{fill:#E1F5FE;}
	.st2{fill:#607D8B;}
</style>
<polygon class="st0" points="40,45 8,45 8,3 30,3 40,13 "/>
<polygon class="st1" points="38.5,14 29,14 29,4.5 "/>
<path class="st2" d="M34.2,22.9l-4.7,4.6c0,0-1.4,0-2.8-1.4c-1.4-1.4-1.4-2.8-1.4-2.8l4.7-4.7c-2.6-0.6-5.8,0.2-7.8,2.2
	c-2.9,2.9-0.3,6.6-1.1,7.4c-4.1,4.3-8.3,7.5-8.4,7.7c-1.2,1.2-1.3,3.2-0.1,4.4s3.2,1.1,4.4-0.1c0.2-0.2,3.6-4.5,7.7-8.6
	c0.8-0.8,4.3,2,7.3-1C34,28.6,34.9,25.5,34.2,22.9z M15.2,39.1c-0.8,0-1.4-0.6-1.4-1.4c0-0.8,0.6-1.4,1.4-1.4s1.4,0.6,1.4,1.4
	S15.9,39.1,15.2,39.1z"/>
</svg>
