<?xml version="1.0" encoding="utf-8"?>
<!-- Generator: Adobe Illustrator 22.1.0, SVG Export Plug-In . SVG Version: 6.00 Build 0)  -->
<svg version="1.1" id="Ebene_1" xmlns="http://www.w3.org/2000/svg" xmlns:xlink="http://www.w3.org/1999/xlink" x="0px" y="0px"
	 width="24px" height="24px" viewBox="0 0 24 24" enable-background="new 0 0 24 24" xml:space="preserve">
<path fill="#5B9CF5" d="M14,2H6C4.9,2,4,2.9,4,4v16c0,1.1,0.9,2,2,2h12c1.1,0,2-0.9,2-2V8L14,2z"/>
<polygon fill="#89BBF8" points="14,2 14,8 20,8 "/>
<rect x="7" y="13" fill="#FFFFFF" width="4" height="1"/>
<rect x="7" y="15" fill="#FFFFFF" width="4" height="1"/>
<rect x="11.2" y="12" fill="#FFFFFF" width="5.8" height="2"/>
<rect x="11.2" y="15" fill="#FFFFFF" width="5.8" height="2"/>
<rect x="7" y="11" fill="#FFFFFF" width="5" height="1"/>
<rect x="7" y="17" fill="#FFFFFF" width="5" height="1"/>
<path fill="#A3A5A7" d="M22.7,21.3L20.4,19c1-1.1,1.6-2.5,1.6-4c0-3.3-2.7-6-6-6s-6,2.7-6,6s2.7,6,6,6c1,0,2-0.3,2.9-0.7l2.4,2.4
	c0.4,0.4,1,0.4,1.4,0S23.1,21.7,22.7,21.3z M12,15c0-2.2,1.8-4,4-4s4,1.8,4,4s-1.8,4-4,4S12,17.2,12,15z"/>
</svg>
