<?xml version="1.0" encoding="utf-8"?>
<!-- Generator: Adobe Illustrator 22.1.0, SVG Export Plug-In . SVG Version: 6.00 Build 0)  -->
<svg version="1.1" id="Ebene_1" xmlns="http://www.w3.org/2000/svg" xmlns:xlink="http://www.w3.org/1999/xlink" x="0px" y="0px"
	 width="24px" height="24px" viewBox="0 0 24 24" enable-background="new 0 0 24 24" xml:space="preserve">
<g>
	<path fill="#2878F0" d="M21.2,17H20v-2.4c0-1.4-1.1-2.5-2.5-2.5L12,12V8h-1v4l-5.5,0c-0.7,0-1.3,0.3-1.8,0.7
		C3.3,13.2,3,13.8,3,14.5V17H1.8C1.4,17,1,17.4,1,17.8v3.3C1,21.6,1.4,22,1.8,22h3.3C5.6,22,6,21.6,6,21.2v-3.3
		C6,17.4,5.6,17,5.2,17H4v-2.5c0-0.4,0.2-0.8,0.4-1.1C4.7,13.2,5.1,13,5.5,13l5.5,0v4H9.8C9.4,17,9,17.4,9,17.8v3.3
		C9,21.6,9.4,22,9.8,22h3.3c0.5,0,0.8-0.4,0.8-0.8v-3.3c0-0.5-0.4-0.8-0.8-0.8H12v-4l5.5,0c0.8,0,1.5,0.7,1.5,1.5V17h-1.2
		c-0.5,0-0.8,0.4-0.8,0.8v3.3c0,0.5,0.4,0.8,0.8,0.8h3.3c0.5,0,0.8-0.4,0.8-0.8v-3.3C22,17.4,21.6,17,21.2,17z"/>
</g>
<g>
	<path fill="#2878F0" d="M13,4v3h-3V4H13 M14,2H9C8.4,2,8,2.4,8,3v5c0,0.6,0.4,1,1,1h5c0.6,0,1-0.4,1-1V3C15,2.4,14.6,2,14,2L14,2z"
		/>
</g>
</svg>
