<?xml version="1.0" encoding="utf-8"?>
<!-- Generator: Adobe Illustrator 22.1.0, SVG Export Plug-In . SVG Version: 6.00 Build 0)  -->
<svg version="1.1" id="Ebene_1" xmlns="http://www.w3.org/2000/svg" xmlns:xlink="http://www.w3.org/1999/xlink" x="0px" y="0px"
	 width="24px" height="24px" viewBox="0 0 24 24" enable-background="new 0 0 24 24" xml:space="preserve">
<path fill="#C1C3C5" d="M18,8H6v12c0,1.1,0.9,2,2,2h8c1.1,0,2-0.9,2-2V8z"/>
<polygon fill="#F03C28" points="15,6 14,7 12,5 10,7 9,6 7,8 9,8 11,8 13,8 15,8 17,8 "/>
<rect x="6" y="8" fill="#66696C" width="12" height="1"/>
<polygon fill="#A3A5A7" points="15.7,4.5 11.4,2 10,2.4 7,0.6 6,2.4 18.1,9.4 19.1,7.6 16.1,5.9 "/>
<polyline fill="#858789" points="11,10 11,20 9,20 9,10 11,10 "/>
<polyline fill="#858789" points="15,10 15,20 13,20 13,10 15,10 "/>
</svg>
