<?xml version="1.0" encoding="utf-8"?>
<!-- Generator: Adobe Illustrator 22.1.0, SVG Export Plug-In . SVG Version: 6.00 Build 0)  -->
<svg version="1.1" id="Ebene_2_1_" xmlns="http://www.w3.org/2000/svg" xmlns:xlink="http://www.w3.org/1999/xlink" x="0px" y="0px"
	 width="24px" height="24px" viewBox="0 0 24 24" style="enable-background:new 0 0 24 24;" xml:space="preserve">
<style type="text/css">
	.st0{fill:#C1C3C5;}
	.st1{fill:#A3A5A7;}
	.st2{fill:#F03C28;}
	.st3{fill:#C2271A;}
</style>
<path class="st0" d="M12,21.8l8.8-14.7c-0.1-0.2-0.3-0.4-0.5-0.5l-7.6-4.2c-0.4-0.2-0.9-0.2-1.4,0L3.7,6.6C3.5,6.7,3.3,6.9,3.2,7.1
	L12,21.8z"/>
<path class="st0" d="M3.2,7.1C3.1,7.3,3,7.6,3,7.8v8.4c0,0.5,0.3,1,0.7,1.2l7.6,4.2c0.2,0.1,0.4,0.2,0.7,0.2V12L3.2,7.1z"/>
<path class="st1" d="M20.8,7.1C20.9,7.3,21,7.6,21,7.8v8.4c0,0.5-0.3,1-0.7,1.2l-7.6,4.2c-0.2,0.1-0.4,0.2-0.7,0.2V12L20.8,7.1z"/>
<polygon class="st2" points="7.1,4.7 16,9.8 17.5,8.9 8.7,3.9 "/>
<polygon class="st2" points="16.8,4.7 8,9.8 6.5,8.9 15.3,3.9 "/>
<polygon class="st3" points="16,19.8 16,9.8 17.5,8.9 17.5,19 "/>
<polygon class="st2" points="8,19.8 8,9.8 6.5,8.9 6.5,19 "/>
<path class="st2" d="M12,7.5"/>
</svg>
