<?xml version="1.0" encoding="utf-8"?>
<!-- Generator: Adobe Illustrator 22.1.0, SVG Export Plug-In . SVG Version: 6.00 Build 0)  -->
<svg version="1.1" id="Ebene_1" xmlns="http://www.w3.org/2000/svg" xmlns:xlink="http://www.w3.org/1999/xlink" x="0px" y="0px"
	 width="24px" height="24px" viewBox="0 0 24 24" enable-background="new 0 0 24 24" xml:space="preserve">
<path fill="none" d="M0,0h24v24H0V0z"/>
<circle fill="#2878F0" cx="12" cy="12" r="10"/>
<circle fill="#5B9CF5" cx="12" cy="12" r="8"/>
<path fill="#28A050" d="M10,10c0.6,0,1-0.4,1-1V7h2c1.1,0,2-0.9,2-2V2.5C14.1,2.2,13,2,12,2C7.7,2,4,4.8,2.6,8.6L9,15v1
	c0,1.1,0.9,2,2,2v3.9c0.3,0,0.7,0.1,1,0.1c2.2,0,4.2-0.7,5.9-1.9v-2.7c0-0.9-1-1.4-1.9-1.4h-1v-3c0-0.6-0.4-1-1-1H8v-2H10z"/>
</svg>
