<?xml version="1.0" encoding="utf-8"?>
<!-- Generator: Adobe Illustrator 22.0.1, SVG Export Plug-In . SVG Version: 6.00 Build 0)  -->
<svg version="1.1" id="Ebene_1" xmlns="http://www.w3.org/2000/svg" xmlns:xlink="http://www.w3.org/1999/xlink" x="0px" y="0px"
	 viewBox="0 0 48 48" style="enable-background:new 0 0 48 48;" xml:space="preserve">
<style type="text/css">
	.st0{fill:#42A5F5;}
	.st1{fill:#FFFFFF;}
	.st2{fill:#37474F;}
</style>
<path class="st0" d="M46,24.8c0,0.5-0.2,1.1-0.5,1.7c-2.2,3.7-5.3,6.6-9,8.8c-3.8,2.2-7.8,3.3-12,3.3s-8.2-1.1-12-3.3
	c-3.8-2.2-6.8-5.2-9-8.8C3.2,25.9,3,25.4,3,24.8s0.2-1.1,0.5-1.7c2.2-3.7,5.3-6.6,9-8.8s7.8-3.3,12-3.3s8.2,1.1,12,3.3
	s6.8,5.2,9,8.8C45.8,23.7,46,24.3,46,24.8z"/>
<path class="st1" d="M42.9,24.8c-2.4-3.8-5.5-6.6-9.1-8.5c1,1.7,1.5,3.5,1.5,5.4c0,3-1.1,5.5-3.2,7.6c-2.1,2.1-4.6,3.2-7.6,3.2
	s-5.5-1.1-7.6-3.2s-3.2-4.6-3.2-7.6c0-1.9,0.5-3.7,1.5-5.4c-3.7,1.9-6.7,4.7-9.1,8.5c2.1,3.3,4.8,5.9,8,7.8s6.7,2.9,10.4,2.9
	s7.2-1,10.4-2.9S40.8,28.1,42.9,24.8z"/>
<path class="st1" d="M25.7,14.6c0-0.3-0.1-0.6-0.3-0.8c-0.2-0.2-0.5-0.3-0.8-0.3c-2,0-3.7,0.7-5.1,2.1s-2.1,3.1-2.1,5.1
	c0,0.3,0.1,0.6,0.3,0.8c0.2,0.2,0.5,0.3,0.8,0.3c0.3,0,0.6-0.1,0.8-0.3c0.2-0.2,0.3-0.5,0.3-0.8c0-1.4,0.5-2.6,1.5-3.5
	s2.2-1.5,3.5-1.5c0.3,0,0.6-0.1,0.8-0.3C25.5,15.2,25.7,14.9,25.7,14.6z"/>
<rect x="22" y="-2.9" transform="matrix(0.7071 -0.7071 0.7071 0.7071 -9.9279 23.9611)" class="st2" width="4" height="53.7"/>
</svg>
