<?xml version="1.0" encoding="utf-8"?>
<!-- Generator: Adobe Illustrator 22.1.0, SVG Export Plug-In . SVG Version: 6.00 Build 0)  -->
<svg version="1.1" id="Ebene_1" xmlns="http://www.w3.org/2000/svg" xmlns:xlink="http://www.w3.org/1999/xlink" x="0px" y="0px"
	 width="24px" height="24px" viewBox="0 0 24 24" enable-background="new 0 0 24 24" xml:space="preserve">
<path fill="none" d="M0,0h24v24H0V0z M0,0h24v24H0V0z M0,0h24v24H0V0z M0,0h24v24H0V0z"/>
<path fill="#A3A5A7" d="M12,6c3.8,0,7.2,2.1,8.8,5.5c-0.6,1.2-1.4,2.3-2.4,3.1l1.4,1.4c1.4-1.2,2.5-2.8,3.2-4.5C21.3,7.1,17,4,12,4
	c-1.3,0-2.5,0.2-3.6,0.6L10,6.2C10.7,6.1,11.3,6,12,6z M10.9,7.1L13,9.2c0.6,0.3,1,0.7,1.3,1.3l2.1,2.1c0.1-0.3,0.1-0.7,0.1-1.1
	C16.5,9,14.5,7,12,7C11.6,7,11.3,7.1,10.9,7.1z M2,3.9l2.7,2.7c-1.6,1.3-2.9,3-3.7,4.9C2.7,15.9,7,19,12,19c1.5,0,3-0.3,4.3-0.8
	l3.4,3.4l1.4-1.4L3.4,2.5L2,3.9z M9.5,11.4l2.6,2.6H12c-1.4,0-2.5-1.1-2.5-2.5V11.4z M6.1,8l1.8,1.7c-0.2,0.6-0.4,1.1-0.4,1.8
	c0,2.5,2,4.5,4.5,4.5c0.6,0,1.2-0.1,1.8-0.4l1,1C13.9,16.9,12.9,17,12,17c-3.8,0-7.2-2.1-8.8-5.5C3.9,10.1,4.9,8.9,6.1,8z"/>
</svg>
