<?xml version="1.0" encoding="UTF-8" standalone="no"?><!DOCTYPE svg PUBLIC "-//W3C//DTD SVG 1.1//EN" "http://www.w3.org/Graphics/SVG/1.1/DTD/svg11.dtd"><svg width="100%" height="100%" viewBox="0 0 48 48" version="1.1" xmlns="http://www.w3.org/2000/svg" xmlns:xlink="http://www.w3.org/1999/xlink" xml:space="preserve" xmlns:serif="http://www.serif.com/" style="fill-rule:evenodd;clip-rule:evenodd;stroke-linejoin:round;stroke-miterlimit:1.41421;"><g><path d="M39.165,5.678c0,4.078 -0.832,7.684 -2.497,10.816c-1.664,3.133 -3.746,5.528 -6.246,7.184c2.5,1.656 4.582,4.051 6.246,7.184c1.665,3.132 2.497,6.738 2.497,10.816l2.25,0c0.218,0 0.398,0.07 0.539,0.211c0.14,0.141 0.211,0.32 0.211,0.539l0,1.5c0,0.219 -0.071,0.398 -0.211,0.539c-0.141,0.141 -0.321,0.211 -0.539,0.211l-34.5,0c-0.219,0 -0.399,-0.07 -0.54,-0.211c-0.14,-0.141 -0.21,-0.32 -0.21,-0.539l0,-1.5c0,-0.219 0.07,-0.398 0.21,-0.539c0.141,-0.141 0.321,-0.211 0.54,-0.211l2.25,0c0,-4.078 0.832,-7.684 2.496,-10.816c1.664,-3.133 3.746,-5.528 6.246,-7.184c-2.5,-1.656 -4.582,-4.051 -6.246,-7.184c-1.664,-3.132 -2.496,-6.738 -2.496,-10.816l-2.25,0c-0.219,0 -0.399,-0.07 -0.54,-0.211c-0.14,-0.141 -0.21,-0.32 -0.21,-0.539l0,-1.5c0,-0.219 0.07,-0.398 0.21,-0.539c0.141,-0.141 0.321,-0.211 0.54,-0.211l34.5,0c0.218,0 0.398,0.07 0.539,0.211c0.14,0.141 0.211,0.32 0.211,0.539l0,1.5c0,0.219 -0.071,0.398 -0.211,0.539c-0.141,0.141 -0.321,0.211 -0.539,0.211l-2.25,0Zm-3,0l-24,0c0,3.219 0.664,6.219 1.992,9l20.015,0c1.328,-2.781 1.993,-5.781 1.993,-9Zm-1.336,28.5c-0.844,-2.203 -1.981,-4.09 -3.411,-5.66c-1.429,-1.57 -2.949,-2.684 -4.558,-3.34l-5.391,0c-1.609,0.656 -3.129,1.77 -4.558,3.34c-1.43,1.57 -2.567,3.457 -3.411,5.66l21.329,0Z" style="fill:#c1c1c1;fill-rule:nonzero;"/></g></svg>