<?xml version="1.0" encoding="utf-8"?>
<!-- Generator: Adobe Illustrator 22.1.0, SVG Export Plug-In . SVG Version: 6.00 Build 0)  -->
<svg version="1.1" id="Ebene_1" xmlns="http://www.w3.org/2000/svg" xmlns:xlink="http://www.w3.org/1999/xlink" x="0px" y="0px"
	 width="24px" height="24px" viewBox="0 0 24 24" enable-background="new 0 0 24 24" xml:space="preserve">
<g id="GREY_MID">
	<g>
		<g>
			<rect x="6.5" y="11" fill="#A3A5A7" width="11" height="2"/>
		</g>
	</g>
</g>
<path fill="#F03C28" d="M4,10c1.1,0,2,0.9,2,2s-0.9,2-2,2s-2-0.9-2-2S2.9,10,4,10 M4,8c-2.2,0-4,1.8-4,4s1.8,4,4,4s4-1.8,4-4
	S6.2,8,4,8L4,8z"/>
<path fill="#2878F0" d="M20,10c1.1,0,2,0.9,2,2s-0.9,2-2,2s-2-0.9-2-2S18.9,10,20,10 M20,8c-2.2,0-4,1.8-4,4s1.8,4,4,4s4-1.8,4-4
	S22.2,8,20,8L20,8z"/>
</svg>
