<?xml version="1.0" encoding="utf-8"?>
<!-- Generator: Adobe Illustrator 22.1.0, SVG Export Plug-In . SVG Version: 6.00 Build 0)  -->
<svg version="1.1" id="Ebene_1" xmlns="http://www.w3.org/2000/svg" xmlns:xlink="http://www.w3.org/1999/xlink" x="0px" y="0px"
	 width="24px" height="24px" viewBox="0 0 24 24" enable-background="new 0 0 24 24" xml:space="preserve">
<path fill="#6428B4" d="M19,6H5l2.7,13.4c0.2,0.9,1,1.6,2,1.6h4.7c1,0,1.8-0.7,2-1.6L19,6z"/>
<path fill="#8C5BC9" d="M14.5,3h-5l-1,1H5C4.4,4,4,4.4,4,5v1h16V5c0-0.6-0.4-1-1-1h-3.5L14.5,3z"/>
<path fill="#FFFFFF" d="M13.5,9.5c0,0.5-0.2,1-0.7,1.2L12,11.3l-0.8-0.6c-0.4-0.2-0.7-0.7-0.7-1.2C10.5,8.7,11.2,8,12,8
	C12.8,8,13.5,8.7,13.5,9.5 M9.5,9.5c0,0.8,0.5,1.7,1.1,2.1l2.8,1.8c0.7,0.5,1.1,1.2,1.1,2.1c0,1.4-1.1,2.5-2.5,2.5s-2.5-1.1-2.5-2.5
	c0-0.8,0.5-1.6,1.1-2.1l0.5-0.4l-0.9-0.6l-0.1,0.1c-1,0.6-1.6,1.7-1.6,2.9c0,1.9,1.6,3.5,3.5,3.5s3.5-1.6,3.5-3.5
	c0-1.2-0.6-2.3-1.6-2.9l-1-0.7l0.5-0.3c0.7-0.5,1.1-1.2,1.1-2.1C14.5,8.1,13.4,7,12,7S9.5,8.1,9.5,9.5"/>
</svg>
