<?xml version="1.0" encoding="utf-8"?>
<!-- Generator: Adobe Illustrator 22.1.0, SVG Export Plug-In . SVG Version: 6.00 Build 0)  -->
<svg version="1.1" id="Ebene_1" xmlns="http://www.w3.org/2000/svg" xmlns:xlink="http://www.w3.org/1999/xlink" x="0px" y="0px"
	 width="24px" height="24px" viewBox="0 0 24 24" enable-background="new 0 0 24 24" xml:space="preserve">
<g>
	<path fill="#F0DC28" d="M20,12L20,12c0,0.6,0.4,1,1,1h1c0.6,0,1-0.4,1-1v0c0-0.6-0.4-1-1-1h-1C20.4,11,20,11.4,20,12z"/>
	<path fill="#F0DC28" d="M2,13h1c0.6,0,1-0.4,1-1v0c0-0.6-0.4-1-1-1H2c-0.6,0-1,0.4-1,1v0C1,12.6,1.4,13,2,13z"/>
	<path fill="#F0DC28" d="M12,4L12,4c0.6,0,1-0.4,1-1V2c0-0.6-0.4-1-1-1h0c-0.6,0-1,0.4-1,1v1C11,3.6,11.4,4,12,4z"/>
	<path fill="#F0DC28" d="M4.2,5.6l0.7,0.7c0.4,0.4,1.1,0.4,1.5,0l0,0c0.4-0.4,0.4-1,0-1.4L5.6,4.2c-0.4-0.4-1-0.4-1.4,0l0,0
		C3.8,4.6,3.8,5.2,4.2,5.6z"/>
	<path fill="#F0DC28" d="M18.4,4.2l-0.7,0.7c-0.4,0.4-0.4,1,0,1.4v0c0.4,0.4,1,0.4,1.4,0l0.7-0.7c0.4-0.4,0.4-1,0-1.4v0
		C19.4,3.8,18.8,3.8,18.4,4.2z"/>
</g>
<path fill="#F0DC28" d="M15,17.2c1.8-1,3-3,3-5.2c0-3.3-2.7-6-6-6s-6,2.7-6,6c0,2.2,1.2,4.2,3,5.2V18h6V17.2z"/>
<path fill="#A3A5A7" d="M10,20h4c0.6,0,1-0.5,1-1v-1H9v1C9,19.5,9.4,20,10,20z"/>
<path fill="#A3A5A7" d="M10,22c0,0.5,0.4,1,1,1h2c0.6,0,1-0.5,1-1v-1h-4V22z"/>
<rect x="10" y="20" fill="#484B4E" width="4" height="1"/>
</svg>
