<?xml version="1.0" encoding="utf-8"?>
<!-- Generator: Adobe Illustrator 22.1.0, SVG Export Plug-In . SVG Version: 6.00 Build 0)  -->
<svg version="1.1" id="Ebene_1" xmlns="http://www.w3.org/2000/svg" xmlns:xlink="http://www.w3.org/1999/xlink" x="0px" y="0px"
	 width="24px" height="24px" viewBox="0 0 24 24" enable-background="new 0 0 24 24" xml:space="preserve">
<path fill="#F03C28" d="M5,15H3v4c0,1.1,0.9,2,2,2h4v-2H5V15z M5,5h4V3H5C3.9,3,3,3.9,3,5v4h2V5z M19,3h-4v2h4v4h2V5
	C21,3.9,20.1,3,19,3z M19,19h-4v2h4c1.1,0,2-0.9,2-2v-4h-2V19z"/>
<path fill="#A3A5A7" d="M11,15l-2-2.5L6,16h12l-4-5L11,15z"/>
<circle fill="#A3A5A7" cx="9" cy="9" r="1"/>
</svg>
