<?xml version="1.0" encoding="utf-8"?>
<!-- Generator: Adobe Illustrator 22.1.0, SVG Export Plug-In . SVG Version: 6.00 Build 0)  -->
<svg version="1.1" id="Ebene_1" xmlns="http://www.w3.org/2000/svg" xmlns:xlink="http://www.w3.org/1999/xlink" x="0px" y="0px"
	 width="24px" height="24px" viewBox="0 0 24 24" enable-background="new 0 0 24 24" xml:space="preserve">
<path fill="#A3A5A7" d="M18,1H6C4.9,1,4,1.9,4,3v18c0,1.1,0.9,2,2,2h12c1.1,0,2-0.9,2-2V3C20,1.9,19.1,1,18,1z"/>
<path fill="#FFFFFF" d="M12.7,22h-2c-0.6,0-1-0.4-1-1v0c0-0.6,0.4-1,1-1h2c0.6,0,1,0.4,1,1v0C13.7,21.6,13.2,22,12.7,22z"/>
<rect x="6" y="3" fill="#0C0F12" width="12" height="16"/>
<rect x="8" y="10" fill="#FFFFFF" width="8" height="1"/>
<rect x="8" y="12" fill="#FFFFFF" width="8" height="1"/>
<rect x="8" y="7" fill="#FFFFFF" width="8" height="2"/>
<rect x="8" y="14" fill="#FFFFFF" width="6" height="1"/>
</svg>
