<?xml version="1.0" encoding="utf-8"?>
<!-- Generator: Adobe Illustrator 22.1.0, SVG Export Plug-In . SVG Version: 6.00 Build 0)  -->
<svg version="1.1" id="Ebene_1" xmlns="http://www.w3.org/2000/svg" xmlns:xlink="http://www.w3.org/1999/xlink" x="0px" y="0px"
	 width="24px" height="24px" viewBox="0 0 24 24" enable-background="new 0 0 24 24" xml:space="preserve">
<path fill="none" d="M0,0h24v24H0V0z"/>
<path fill="#8C5BC9" d="M21.4,11.6l-9-9C12.1,2.2,11.6,2,11,2H4C2.9,2,2,2.9,2,4v7c0,0.6,0.2,1.1,0.6,1.4l9,9C12,21.8,12.5,22,13,22
	s1.1-0.2,1.4-0.6l7-7C21.8,14,22,13.5,22,13S21.8,11.9,21.4,11.6z M6.5,8C5.7,8,5,7.3,5,6.5S5.7,5,6.5,5S8,5.7,8,6.5S7.3,8,6.5,8z"
	/>
</svg>
