<?xml version="1.0" encoding="utf-8"?>
<!-- Generator: Adobe Illustrator 22.1.0, SVG Export Plug-In . SVG Version: 6.00 Build 0)  -->
<svg version="1.1" id="Ebene_1" xmlns="http://www.w3.org/2000/svg" xmlns:xlink="http://www.w3.org/1999/xlink" x="0px" y="0px"
	 width="24px" height="24px" viewBox="0 0 24 24" enable-background="new 0 0 24 24" xml:space="preserve">
<path fill="none" d="M0,0h24v24H0V0z"/>
<path fill="#A3A5A7" d="M14,8l-4.2,5.6l1.3,1.7l3-4l5,6.7h-8.5l-4-5.4L1,20h22L14,8z M5,18l1.5-2L8,18H5z"/>
<path fill="#A3A5A7" d="M7,6c0.6,0,1,0.4,1,1S7.6,8,7,8S6,7.6,6,7S6.4,6,7,6 M7,4C5.3,4,4,5.3,4,7s1.3,3,3,3s3-1.3,3-3S8.7,4,7,4
	L7,4z"/>
</svg>
