<?xml version="1.0" encoding="utf-8"?>
<!-- Generator: Adobe Illustrator 22.1.0, SVG Export Plug-In . SVG Version: 6.00 Build 0)  -->
<svg version="1.1" id="Ebene_1" xmlns="http://www.w3.org/2000/svg" xmlns:xlink="http://www.w3.org/1999/xlink" x="0px" y="0px"
	 width="24px" height="24px" viewBox="0 0 24 24" enable-background="new 0 0 24 24" xml:space="preserve">
<path fill="#6428B4" d="M18,20H6c-1.1,0-2-0.9-2-2V6c0-1.1,0.9-2,2-2h12c1.1,0,2,0.9,2,2v12C20,19.1,19.1,20,18,20z"/>
<path fill="#461A89" d="M15,16H9l-4.3,3.5C5,19.8,5.5,20,6,20h12c0.5,0,1-0.2,1.3-0.5L15,16z"/>
<path fill="#F7ED81" d="M15,16H9v-5c0-1.7,1.3-3,3-3h0c1.7,0,3,1.3,3,3V16z"/>
</svg>
