<?xml version="1.0" encoding="utf-8"?>
<!-- Generator: Adobe Illustrator 22.1.0, SVG Export Plug-In . SVG Version: 6.00 Build 0)  -->
<svg version="1.1" id="Ebene_1" xmlns="http://www.w3.org/2000/svg" xmlns:xlink="http://www.w3.org/1999/xlink" x="0px" y="0px"
	 width="24px" height="24px" viewBox="0 0 24 24" enable-background="new 0 0 24 24" xml:space="preserve">
<path fill="#A3A5A7" d="M21,4H3C1.9,4,1,4.9,1,6v12c0,1.1,0.9,2,2,2h18c1.1,0,2-0.9,2-2V6C23,4.9,22.1,4,21,4z"/>
<rect x="4" y="6" fill="#0C0F12" width="16" height="12"/>
<path fill="#FFFFFF" d="M14,11v-1c0-1.1-0.9-2-2-2s-2,0.9-2,2v1c-0.5,0-1,0.5-1,1v3c0,0.5,0.5,1,1,1h4c0.5,0,1-0.5,1-1v-3
	C15,11.5,14.5,11,14,11z M13.2,11h-2.4v-1c0-0.7,0.5-1.2,1.2-1.2s1.2,0.5,1.2,1.2L13.2,11z"/>
</svg>
