<?xml version="1.0" encoding="utf-8"?>
<!-- Generator: Adobe Illustrator 22.1.0, SVG Export Plug-In . SVG Version: 6.00 Build 0)  -->
<svg version="1.1" id="Ebene_1" xmlns="http://www.w3.org/2000/svg" xmlns:xlink="http://www.w3.org/1999/xlink" x="0px" y="0px"
	 width="24px" height="24px" viewBox="0 0 24 24" enable-background="new 0 0 24 24" xml:space="preserve">
<path fill="#A3A5A7" d="M20,22H4c-1.1,0-2-0.9-2-2V10c0-1.1,0.9-2,2-2h16c1.1,0,2,0.9,2,2v10C22,21.1,21.1,22,20,22z"/>
<path fill="#858789" d="M21.3,8.4l-6.4-4.9c-1.1-0.9-4.7-0.9-5.8,0L2.8,8.4C2.3,8.8,2,9.4,2,10v0l9.8,10L22,10v0
	C22,9.4,21.7,8.8,21.3,8.4z"/>
<polygon fill="#28A050" points="5,2 19,2 19,12.9 11.8,20 5,13.1 "/>
<rect x="-30" y="38" fill="#0C0F12" width="4" height="2"/>
<g>
	<path fill="#FFFFFF" d="M13,11.7c0-0.3-0.1-0.5-0.2-0.6s-0.4-0.3-0.8-0.4s-0.7-0.3-0.9-0.4s-0.5-0.3-0.7-0.5S10.1,9.4,10,9.2
		S9.9,8.7,9.9,8.4c0-0.6,0.2-1,0.5-1.4s0.8-0.6,1.4-0.6v-1h0.8v1.1c0.6,0.1,1,0.3,1.4,0.7c0.3,0.4,0.5,0.9,0.5,1.6H13
		c0-0.4-0.1-0.7-0.2-0.9s-0.4-0.3-0.6-0.3c-0.3,0-0.5,0.1-0.6,0.2s-0.2,0.4-0.2,0.6c0,0.2,0.1,0.4,0.2,0.6s0.4,0.3,0.8,0.5
		s0.7,0.3,1,0.4s0.5,0.3,0.6,0.5s0.3,0.4,0.4,0.6c0.1,0.2,0.1,0.5,0.1,0.8c0,0.6-0.2,1-0.5,1.3c-0.3,0.3-0.8,0.5-1.4,0.6v1h-0.8v-1
		c-0.7-0.1-1.2-0.3-1.6-0.7c-0.4-0.4-0.5-0.9-0.5-1.6H11c0,0.4,0.1,0.7,0.3,0.9c0.2,0.2,0.4,0.3,0.8,0.3c0.3,0,0.5-0.1,0.7-0.2
		S13,12,13,11.7z"/>
</g>
</svg>
