<?xml version="1.0" encoding="utf-8"?>
<!-- Generator: Adobe Illustrator 22.1.0, SVG Export Plug-In . SVG Version: 6.00 Build 0)  -->
<svg version="1.1" id="Ebene_1" xmlns="http://www.w3.org/2000/svg" xmlns:xlink="http://www.w3.org/1999/xlink" x="0px" y="0px"
	 width="24px" height="24px" viewBox="0 0 24 24" enable-background="new 0 0 24 24" xml:space="preserve">
<polygon fill="#28A050" points="18,8.4 23,3.4 21.6,2 16,7.6 16,15 14,15 17,18 20,15 18,15 "/>
<polygon fill="#28A050" points="6,8.4 1,3.4 2.4,2 8,7.6 8,15 10,15 7,18 4,15 6,15 "/>
<path fill="#A3A5A7" d="M19,22H5c-1.7,0-3-1.3-3-3v-2h2v2c0,0.6,0.4,1,1,1h14c0.6,0,1-0.4,1-1v-2h2v2C22,20.7,20.7,22,19,22z"/>
<polygon fill="#28A050" points="13,12 13,2 11,2 11,12 9,12 12,15 15,12 "/>
</svg>
