<?xml version="1.0" encoding="utf-8"?>
<!-- Generator: Adobe Illustrator 22.1.0, SVG Export Plug-In . SVG Version: 6.00 Build 0)  -->
<svg version="1.1" id="Ebene_1" xmlns="http://www.w3.org/2000/svg" xmlns:xlink="http://www.w3.org/1999/xlink" x="0px" y="0px"
	 width="24px" height="24px" viewBox="0 0 24 24" enable-background="new 0 0 24 24" xml:space="preserve">
<path fill="#A3A5A7" d="M19,8h-2V7c0-1.1-0.9-2-2-2h-2V4c0-1.1-0.9-2-2-2H5C3.9,2,3,2.9,3,4v10c0,1.1,0.9,2,2,2h2v1c0,1.1,0.9,2,2,2
	h2v1c0,1.1,0.9,2,2,2h6c1.1,0,2-0.9,2-2V10C21,8.9,20.1,8,19,8z"/>
<path fill="#0C0F12" d="M7,7v7H5V4h6v1H9C7.9,5,7,5.9,7,7z"/>
<path fill="#0C0F12" d="M11,10v7H9V7h6v1h-2C11.9,8,11,8.9,11,10z"/>
<rect x="15" y="20" fill="#0C0F12" width="2" height="1"/>
<rect x="13" y="10" fill="#0C0F12" width="6" height="9"/>
<rect x="15" y="7" fill="#66696C" width="2" height="1"/>
<rect x="11" y="4" fill="#66696C" width="2" height="1"/>
<rect x="5.5" y="14.5" transform="matrix(-1.836970e-16 1 -1 -1.836970e-16 21.4982 8.4982)" fill="#66696C" width="2" height="1"/>
<rect x="9.5" y="17.5" transform="matrix(-1.836970e-16 1 -1 -1.836970e-16 28.4976 7.5024)" fill="#66696C" width="2" height="1"/>
</svg>
