<?xml version="1.0" encoding="utf-8"?>
<!-- Generator: Adobe Illustrator 22.1.0, SVG Export Plug-In . SVG Version: 6.00 Build 0)  -->
<svg version="1.1" id="Ebene_1" xmlns="http://www.w3.org/2000/svg" xmlns:xlink="http://www.w3.org/1999/xlink" x="0px" y="0px"
	 width="24px" height="24px" viewBox="0 0 24 24" enable-background="new 0 0 24 24" xml:space="preserve">
<path fill="none" d="M0,0h24v24H0V0z"/>
<path fill="#A3A5A7" d="M9.5,6H16c0.5,0,1,0.5,1,1v3.5l4-4v11l-6-6V8h-3.5L9.5,6z M18.9,20.5L16.4,18H4c-0.5,0-1-0.5-1-1V7
	c0-0.5,0.5-1,1-1h0.4L1.9,3.5l1.3-1.3l17,17L18.9,20.5z M14.4,16l-8-8H5v8H14.4z"/>
</svg>
