<?xml version="1.0" encoding="utf-8"?>
<!-- Generator: Adobe Illustrator 22.1.0, SVG Export Plug-In . SVG Version: 6.00 Build 0)  -->
<svg version="1.1" id="Ebene_1" xmlns="http://www.w3.org/2000/svg" xmlns:xlink="http://www.w3.org/1999/xlink" x="0px" y="0px"
	 width="24px" height="24px" viewBox="0 0 24 24" enable-background="new 0 0 24 24" xml:space="preserve">
<path fill="#BE9664" d="M17,6h-5l-2-2H4C2.9,4,2,4.9,2,6v12c0,1.1,0.9,2,2,2h13c1.1,0,2-0.9,2-2V8C19,6.9,18.1,6,17,6z"/>
<path fill="#FAD26E" d="M22.2,8H7.7c-1,0-1.8,0.7-2,1.7L4,20h16.3c1,0,1.8-0.7,2-1.7l1.4-8.6C23.9,8.8,23.2,8,22.2,8z"/>
<polygon fill="#28A050" points="14,10 14,16 18,16 18,10 22,10 16,4 10,10 "/>
</svg>
