<?xml version="1.0" encoding="UTF-8" standalone="no"?><!DOCTYPE svg PUBLIC "-//W3C//DTD SVG 1.1//EN"
    "http://www.w3.org/Graphics/SVG/1.1/DTD/svg11.dtd">
<svg width="100%" height="100%" viewBox="0 0 24 24" version="1.1" xmlns="http://www.w3.org/2000/svg"
     xmlns:xlink="http://www.w3.org/1999/xlink" xml:space="preserve" xmlns:serif="http://www.serif.com/"
     style="fill-rule:evenodd;clip-rule:evenodd;stroke-linejoin:round;stroke-miterlimit:1.41421;"><rect x="0" y="0" width="24" height="24" style="fill:none;"/>
    <path
        d="M19,19l-14,0l0,-14l7,0l0,-2l-7,0c-1.11,0 -2,0.9 -2,2l0,14c0,1.1 0.89,2 2,2l14,0c1.1,0 2,-0.9 2,-2l0,-7l-2,0l0,7Zm-5,-16l0,2l3.59,0l-9.83,9.83l1.41,1.41l9.83,-9.83l0,3.59l2,0l0,-7l-7,0Z"
        style="fill:#69838E;fill-rule:nonzero;"/></svg>