<?xml version="1.0" encoding="utf-8"?>
<!-- Generator: Adobe Illustrator 22.1.0, SVG Export Plug-In . SVG Version: 6.00 Build 0)  -->
<svg version="1.1" id="Ebene_1" xmlns="http://www.w3.org/2000/svg" xmlns:xlink="http://www.w3.org/1999/xlink" x="0px" y="0px"
	 width="24px" height="24px" viewBox="0 0 24 24" enable-background="new 0 0 24 24" xml:space="preserve">
<path fill="#A3A5A7" d="M20,2l-2,2l-2-2l-2,2l-2-2l-2,2L8,2L6,4L4,2v18c0,1.1,0.9,2,2,2h12c1.1,0,2-0.9,2-2L20,2z"/>
<g>
	<path fill="#FFFFFF" d="M13,11.2c0-0.3-0.1-0.5-0.2-0.6s-0.4-0.3-0.7-0.4c-0.3-0.1-0.6-0.3-0.9-0.4s-0.5-0.3-0.6-0.4
		c-0.2-0.2-0.3-0.4-0.4-0.6C10,8.5,9.9,8.2,9.9,7.9c0-0.5,0.2-1,0.5-1.3c0.3-0.3,0.8-0.5,1.4-0.6V5h0.8v1c0.6,0.1,1,0.3,1.3,0.7
		c0.3,0.4,0.5,0.9,0.5,1.5H13c0-0.4-0.1-0.7-0.2-0.8c-0.2-0.2-0.4-0.3-0.6-0.3c-0.3,0-0.5,0.1-0.6,0.2c-0.1,0.1-0.2,0.3-0.2,0.6
		c0,0.2,0.1,0.4,0.2,0.6c0.1,0.1,0.4,0.3,0.8,0.4c0.4,0.2,0.7,0.3,0.9,0.4c0.2,0.1,0.4,0.3,0.6,0.5c0.2,0.2,0.3,0.4,0.4,0.6
		c0.1,0.2,0.1,0.5,0.1,0.8c0,0.5-0.2,1-0.5,1.3c-0.3,0.3-0.8,0.5-1.4,0.6V14h-0.8v-0.9c-0.6-0.1-1.1-0.3-1.5-0.7
		c-0.4-0.4-0.5-0.9-0.5-1.6H11c0,0.4,0.1,0.7,0.3,0.9c0.2,0.2,0.4,0.3,0.8,0.3c0.3,0,0.5-0.1,0.7-0.2C12.9,11.6,13,11.4,13,11.2z"/>
</g>
<circle fill="#28A050" cx="18" cy="18" r="6"/>
<polygon fill="#FFFFFF" points="20.6,14.7 16.3,19 14.9,17.6 13.5,19 16.3,21.8 22,16.1 "/>
</svg>
