<?xml version="1.0" encoding="utf-8"?>
<!-- Generator: Adobe Illustrator 22.1.0, SVG Export Plug-In . SVG Version: 6.00 Build 0)  -->
<svg version="1.1" id="Ebene_1" xmlns="http://www.w3.org/2000/svg" xmlns:xlink="http://www.w3.org/1999/xlink" x="0px" y="0px"
	 width="24px" height="24px" viewBox="0 0 24 24" enable-background="new 0 0 24 24" xml:space="preserve">
<path fill="#B7A418" d="M17,2h-3.2c-0.4-1.2-1.5-2-2.8-2S8.6,0.8,8.2,2H5C3.9,2,3,2.9,3,4v13c0,1.1,0.9,2,2,2h12c1.1,0,2-0.9,2-2V4
	C19,2.9,18.1,2,17,2z M11,4c-0.6,0-1-0.4-1-1s0.4-1,1-1s1,0.4,1,1S11.6,4,11,4z"/>
<polyline fill="#FFFFFF" points="7,6 15,6 15,4 17,4 17,17 5,17 5,4 7,4 7,6 "/>
<path fill="#5A9BF5" d="M20.5,22h-9c-0.8,0-1.5-0.7-1.5-1.5v-12C10,7.7,10.7,7,11.5,7H17l5,5v8.5C22,21.3,21.3,22,20.5,22z"/>
<polygon fill="#89BBF8" points="17,7 17,12 22,12 "/>
</svg>
