<?xml version="1.0" encoding="utf-8"?>
<!-- Generator: Adobe Illustrator 22.1.0, SVG Export Plug-In . SVG Version: 6.00 Build 0)  -->
<svg version="1.1" id="Ebene_1" xmlns="http://www.w3.org/2000/svg" xmlns:xlink="http://www.w3.org/1999/xlink" x="0px" y="0px"
	 viewBox="0 0 48 48" enable-background="new 0 0 48 48" xml:space="preserve">
<circle fill="#6428B4" cx="24" cy="24" r="20"/>
<path fill="#FFFFFF" d="M33.9,28.3c-1.5,0-2.8-0.7-3.5-1.9L28.8,24l1.6-2.4c0.7-1.1,2.1-1.9,3.5-1.9c2.4,0,4.3,1.9,4.3,4.3
	S36.3,28.3,33.9,28.3 M33.9,16.9c-2.4,0-4.7,1.3-5.9,3.2l-5.2,7.8c-1.3,1.9-3.5,3.2-5.9,3.2c-3.9,0-7.1-3.2-7.1-7.1s3.2-7.1,7.1-7.1
	c2.4,0,4.6,1.3,5.8,3.1l1,1.4l1.7-2.6l-0.2-0.3c-1.8-2.7-4.8-4.4-8.3-4.4C11.4,14.1,7,18.5,7,24s4.4,9.9,9.9,9.9
	c3.5,0,6.5-1.8,8.3-4.4l1.9-2.9l0.9,1.3c1.3,1.9,3.5,3.2,5.9,3.2c3.9,0,7.1-3.2,7.1-7.1S37.8,16.9,33.9,16.9"/>
</svg>
