<?xml version="1.0" encoding="utf-8"?>
<!-- Generator: Adobe Illustrator 22.1.0, SVG Export Plug-In . SVG Version: 6.00 Build 0)  -->
<svg version="1.1" id="Ebene_1" xmlns="http://www.w3.org/2000/svg" xmlns:xlink="http://www.w3.org/1999/xlink" x="0px" y="0px"
	 width="24px" height="24px" viewBox="0 0 24 24" enable-background="new 0 0 24 24" xml:space="preserve">
<circle fill="#6428B4" cx="12" cy="12" r="10"/>
<path fill="#FFFFFF" d="M17,14.1c-0.8,0-1.4-0.4-1.8-0.9L14.4,12l0.8-1.2c0.4-0.6,1.1-0.9,1.8-0.9c1.2,0,2.1,0.9,2.1,2.1
	S18.1,14.1,17,14.1 M17,8.4c-1.2,0-2.4,0.6-2.9,1.6L11.4,14c-0.6,0.9-1.8,1.6-2.9,1.6c-1.9,0-3.6-1.6-3.6-3.6s1.6-3.6,3.6-3.6
	c1.2,0,2.3,0.6,2.9,1.6l0.5,0.7l0.9-1.3l-0.1-0.1c-0.9-1.3-2.4-2.2-4.1-2.2c-2.8,0-5,2.2-5,4.9s2.2,5,4.9,5c1.8,0,3.3-0.9,4.2-2.2
	l0.9-1.4L14,14c0.6,0.9,1.8,1.6,3,1.6c2,0,3.5-1.6,3.5-3.6S18.9,8.4,17,8.4"/>
</svg>
