<?xml version="1.0" encoding="UTF-8" standalone="no"?><!DOCTYPE svg PUBLIC "-//W3C//DTD SVG 1.1//EN" "http://www.w3.org/Graphics/SVG/1.1/DTD/svg11.dtd"><svg width="100%" height="100%" viewBox="0 0 48 48" version="1.1" xmlns="http://www.w3.org/2000/svg" xmlns:xlink="http://www.w3.org/1999/xlink" xml:space="preserve" xmlns:serif="http://www.serif.com/" style="fill-rule:evenodd;clip-rule:evenodd;stroke-linejoin:round;stroke-miterlimit:1.41421;"><path d="M24,4c7.667,0 26.833,31.667 23,38c-3.833,6.333 -42.167,6.333 -46,0c-3.833,-6.333 15.333,-38 23,-38Z" style="fill:#43a047;"/><path d="M36,27.3l0,3.4c0,0.412 -0.206,0.824 -0.515,1.236c-0.309,0.412 -0.721,0.515 -1.236,0.515l-6.798,0l0,6.798c0,0.412 -0.206,0.824 -0.515,1.236c-0.309,0.309 -0.721,0.515 -1.236,0.515l-3.4,0c-0.412,0 -0.824,-0.206 -1.236,-0.515c-0.309,-0.309 -0.515,-0.721 -0.515,-1.236l0,-6.798l-6.798,0c-0.412,0 -0.824,-0.206 -1.236,-0.515c-0.309,-0.309 -0.515,-0.721 -0.515,-1.236l0,-3.4c0,-0.412 0.206,-0.824 0.515,-1.236c0.309,-0.309 0.721,-0.515 1.236,-0.515l6.798,0l0,-6.798c0,-0.412 0.206,-0.824 0.515,-1.236c0.309,-0.412 0.721,-0.515 1.236,-0.515l3.4,0c0.412,0 0.824,0.206 1.236,0.515c0.412,0.309 0.515,0.721 0.515,1.236l0,6.798l6.798,0c0.412,0 0.824,0.206 1.236,0.515c0.309,0.412 0.515,0.824 0.515,1.236Z" style="fill:#fff;"/></svg>