<?xml version="1.0" encoding="utf-8"?>
<!-- Generator: Adobe Illustrator 22.1.0, SVG Export Plug-In . SVG Version: 6.00 Build 0)  -->
<svg version="1.1" id="Ebene_1" xmlns="http://www.w3.org/2000/svg" xmlns:xlink="http://www.w3.org/1999/xlink" x="0px" y="0px"
	 width="24px" height="24px" viewBox="0 0 24 24" enable-background="new 0 0 24 24" xml:space="preserve">
<path fill="none" d="M0,0h24v24H0V0z"/>
<path fill="#5B9CF5" d="M14,2H6C4.9,2,4,2.9,4,4v16c0,1.1,0.9,2,2,2h12c1.1,0,2-0.9,2-2V8L14,2z"/>
<polygon fill="#89BBF8" points="14,2 14,8 20,8 "/>
<rect x="7" y="13" fill="#FFFFFF" width="10" height="1"/>
<rect x="7" y="15" fill="#FFFFFF" width="10" height="1"/>
<rect x="7" y="11" fill="#FFFFFF" width="10" height="1"/>
<rect x="7" y="17" fill="#FFFFFF" width="6.7" height="1"/>
<circle fill="#28A050" cx="18" cy="18" r="6"/>
<path fill="#FFFFFF" d="M18,14c-2.2,0-4,1.8-4,4s1.8,4,4,4s4-1.8,4-4S20.2,14,18,14z M20.8,16.4h-1.2c-0.1-0.5-0.3-1-0.6-1.4
	C19.8,15.2,20.4,15.8,20.8,16.4z M18,14.8c0.3,0.5,0.6,1,0.8,1.6h-1.5C17.4,15.8,17.7,15.3,18,14.8z M14.9,18.8
	c-0.1-0.2-0.1-0.5-0.1-0.8s0-0.6,0.1-0.8h1.4c0,0.3,0,0.5,0,0.8s0,0.5,0,0.8H14.9z M15.2,19.6h1.2c0.1,0.5,0.3,1,0.6,1.4
	C16.2,20.8,15.6,20.3,15.2,19.6z M16.4,16.4h-1.2c0.4-0.7,1-1.2,1.7-1.4C16.7,15.4,16.6,15.9,16.4,16.4z M18,21.2
	c-0.3-0.5-0.6-1-0.8-1.6h1.5C18.6,20.2,18.3,20.7,18,21.2z M18.9,18.8h-1.8c0-0.3-0.1-0.5-0.1-0.8s0-0.6,0.1-0.8H19
	c0,0.2,0.1,0.5,0.1,0.8S19,18.5,18.9,18.8z M19,21c0.2-0.4,0.4-0.9,0.6-1.4h1.2C20.4,20.3,19.8,20.8,19,21z M19.8,18.8
	c0-0.3,0-0.5,0-0.8s0-0.5,0-0.8h1.4c0.1,0.2,0.1,0.5,0.1,0.8s0,0.6-0.1,0.8H19.8z"/>
</svg>
