<?xml version="1.0" encoding="UTF-8" standalone="no"?><!DOCTYPE svg PUBLIC "-//W3C//DTD SVG 1.1//EN" "http://www.w3.org/Graphics/SVG/1.1/DTD/svg11.dtd"><svg width="100%" height="100%" viewBox="0 0 24 24" version="1.1" xmlns="http://www.w3.org/2000/svg" xmlns:xlink="http://www.w3.org/1999/xlink" xml:space="preserve" xmlns:serif="http://www.serif.com/" style="fill-rule:evenodd;clip-rule:evenodd;stroke-linejoin:round;stroke-miterlimit:1.41421;"><g><rect x="0" y="0" width="24" height="24" style="fill:none;"/><path d="M7.7,12l8.7,-5l0.2,-2.2l-9.3,5.4l0.4,1.8Zm9.3,5.5l-9.4,-5.5l-0.3,1.8l9.3,5.6l0.4,-1.9Z" style="fill:#a3a5a7;fill-rule:nonzero;"/><path d="M19,4l0,2l-2,0l0,-2l2,0m1,-2l-4,0c-0.6,0 -1,0.4 -1,1l0,4c0,0.6 0.4,1 1,1l4,0c0.6,0 1,-0.4 1,-1l0,-4c0,-0.6 -0.4,-1 -1,-1Z" style="fill:#f03c28;fill-rule:nonzero;"/><path d="M19,18l0,2l-2,0l0,-2l2,0m1,-2l-4,0c-0.6,0 -1,0.4 -1,1l0,4c0,0.6 0.4,1 1,1l4,0c0.6,0 1,-0.4 1,-1l0,-4c0,-0.6 -0.4,-1 -1,-1Z" style="fill:#f03c28;fill-rule:nonzero;"/><path d="M7,11l0,2l-2,0l0,-2l2,0m1,-2l-4,0c-0.6,0 -1,0.4 -1,1l0,4c0,0.6 0.4,1 1,1l4,0c0.6,0 1,-0.4 1,-1l0,-4c0,-0.6 -0.4,-1 -1,-1Z" style="fill:#f03c28;fill-rule:nonzero;"/></g><path d="M16,17l0,2l-9,0l0,3l-4,-4l4,-4l0,3l9,0Z" style="fill:#28a050;fill-rule:nonzero;"/></svg>