<?xml version="1.0" encoding="utf-8"?>
<!-- Generator: Adobe Illustrator 22.1.0, SVG Export Plug-In . SVG Version: 6.00 Build 0)  -->
<svg version="1.1" id="Ebene_1" xmlns="http://www.w3.org/2000/svg" xmlns:xlink="http://www.w3.org/1999/xlink" x="0px" y="0px"
	 width="24px" height="24px" viewBox="0 0 24 24" enable-background="new 0 0 24 24" xml:space="preserve">
<path fill="#A3A5A7" d="M4,4h3l2-2h6l2,2h3c1.1,0,2,0.9,2,2v12c0,1.1-0.9,2-2,2H4c-1.1,0-2-0.9-2-2V6C2,4.9,2.9,4,4,4"/>
<path fill="#2878F0" d="M12,18L12,18c-3.3,0-6-2.7-6-6v0c0-3.3,2.7-6,6-6h0c3.3,0,6,2.7,6,6v0C18,15.3,15.3,18,12,18z"/>
<path fill="#FFFFFF" d="M7.9,12c0,2.2,1.8,4,4,4c1.9,0,3.5-1.3,3.9-3h-1c-0.4,1.2-1.5,2-2.8,2c-1.7,0-3-1.3-3-3s1.3-3,3-3
	c0.8,0,1.5,0.3,2,0.8L12.9,11h3V8l-1.2,1.1C14,8.4,13.1,8,12,8C9.8,8,7.9,9.8,7.9,12z"/>
</svg>
