<?xml version="1.0" encoding="utf-8"?>
<!-- Generator: Adobe Illustrator 22.1.0, SVG Export Plug-In . SVG Version: 6.00 Build 0)  -->
<svg version="1.1" id="Ebene_1" xmlns="http://www.w3.org/2000/svg" xmlns:xlink="http://www.w3.org/1999/xlink" x="0px" y="0px"
	 width="24px" height="24px" viewBox="0 0 24 24" enable-background="new 0 0 24 24" xml:space="preserve">
<path fill="none" d="M0,0h24v24H0V0z"/>
<path fill="#F0DC28" d="M14,2H6C4.9,2,4,2.9,4,4v16c0,1.1,0.9,2,2,2h12c1.1,0,2-0.9,2-2V8L14,2z"/>
<polygon fill="#F7ED81" points="14,2 14,8 20,8 "/>
<path fill="#0C0F12" d="M7,13h6v1H7V13z M7,16h6v-1H7V16z M7,12h6v-1H7V12z M7,18h6v-1H7V18z M17,11h-2v4h2V11z M17,16h-2v2h2V16z"
	/>
</svg>
