<?xml version="1.0" encoding="utf-8"?>
<!-- Generator: Adobe Illustrator 22.1.0, SVG Export Plug-In . SVG Version: 6.00 Build 0)  -->
<svg version="1.1" id="Ebene_1" xmlns="http://www.w3.org/2000/svg" xmlns:xlink="http://www.w3.org/1999/xlink" x="0px" y="0px"
	 width="24px" height="24px" viewBox="0 0 24 24" enable-background="new 0 0 24 24" xml:space="preserve">
<path fill="#F03C28" d="M15.1,11l-2.1-2.1l4.5-4.5C18.5,3.5,19.7,3,21,3h0v2.1L15.1,11z"/>
<polygon fill="#95170F" points="13.1,8.9 15.1,11 13.1,13 11.1,10.9 "/>
<path fill="#F03C28" d="M21,21L21,21c-1.4,0-2.7-0.5-3.6-1.5L12,14.1l-3.1,3.1c0.2,0.8,0.2,1.7-1,2.9c-0.5,0.5-1.2,0.9-2,0.8
	c-1.5,0-2.8-1.2-2.9-2.7c-0.1-1.1,0.5-2,1.3-2.7c1-0.8,1.8-0.7,2.5-0.5l3.1-3.1L6.8,8.9C5.9,9.1,5,9.1,3.8,7.9C3.3,7.4,3,6.7,3,6
	C3,4.3,4.3,3,6,3c0.7,0,1.4,0.3,1.9,0.8c1.2,1.2,1.2,2.1,1,2.9L21,18.9V21z M7,6c0-0.6-0.4-1-1-1S5,5.4,5,6s0.4,1,1,1S7,6.6,7,6z
	 M7,18c0-0.6-0.4-1-1-1s-1,0.4-1,1s0.4,1,1,1S7,18.6,7,18z"/>
</svg>
