<?xml version="1.0" encoding="utf-8"?>
<!-- Generator: Adobe Illustrator 22.1.0, SVG Export Plug-In . SVG Version: 6.00 Build 0)  -->
<svg version="1.1" id="Ebene_1" xmlns="http://www.w3.org/2000/svg" xmlns:xlink="http://www.w3.org/1999/xlink" x="0px" y="0px"
	 width="24px" height="24px" viewBox="0 0 24 24" enable-background="new 0 0 24 24" xml:space="preserve">
<g>
	<path fill="#A3A5A7" d="M16,14.3c0-1.5-2.7-2.3-4-2.3s-4,0.8-4,2.3V15h8V14.3z"/>
	<circle fill="#A3A5A7" cx="12" cy="9" r="2"/>
</g>
<path fill="#A3A5A7" d="M16,1H8C6.3,1,5,2.3,5,4v16c0,1.7,1.3,3,3,3h8c1.7,0,3-1.3,3-3V4C19,2.3,17.7,1,16,1z M13,21h-2v-1h2V21z
	 M17,18H7V4h10V18z"/>
</svg>
