<?xml version="1.0" encoding="utf-8"?>
<!-- Generator: Adobe Illustrator 22.1.0, SVG Export Plug-In . SVG Version: 6.00 Build 0)  -->
<svg version="1.1" id="Ebene_1" xmlns="http://www.w3.org/2000/svg" xmlns:xlink="http://www.w3.org/1999/xlink" x="0px" y="0px"
	 width="24px" height="24px" viewBox="0 0 24 24" enable-background="new 0 0 24 24" xml:space="preserve">
<path fill="#A3A5A7" d="M12,2C6.5,2,2,6.5,2,12s4.5,10,10,10s10-4.5,10-10S17.5,2,12,2 M12,20c-4.4,0-8-3.6-8-8s3.6-8,8-8s8,3.6,8,8
	S16.4,20,12,20"/>
<g>
	<g>
		<path fill="#A3A5A7" d="M13.4,9l1.3,4.2L16.1,9H18v6h-1.5v-1.4l0.1-2.9L15.2,15h-1l-1.5-4.3l0.1,2.9V15h-1.4V9H13.4z"/>
	</g>
</g>
<g>
	<g>
		<path fill="#A3A5A7" d="M9.3,13.4c0-0.2-0.1-0.4-0.2-0.5s-0.4-0.2-0.8-0.4c-0.4-0.1-0.7-0.3-0.9-0.4c-0.8-0.4-1.2-0.9-1.2-1.6
			c0-0.3,0.1-0.6,0.3-0.9C6.7,9.5,7,9.3,7.3,9.1C7.7,9,8.1,8.9,8.5,8.9C9,8.9,9.4,9,9.7,9.1c0.3,0.2,0.6,0.4,0.8,0.7s0.3,0.6,0.3,1
			H9.3c0-0.2-0.1-0.4-0.2-0.6S8.8,10,8.5,10S8,10.1,7.9,10.2s-0.2,0.3-0.2,0.4c0,0.2,0.1,0.3,0.2,0.4c0.2,0.1,0.5,0.3,0.9,0.4
			c0.4,0.1,0.8,0.3,1,0.4c0.7,0.4,1,0.9,1,1.6c0,0.5-0.2,0.9-0.6,1.2c-0.4,0.3-0.9,0.5-1.6,0.5c-0.5,0-0.9-0.1-1.3-0.3
			s-0.7-0.4-0.9-0.7c-0.3-0.3-0.4-0.6-0.4-1h1.5c0,0.3,0.1,0.6,0.3,0.7C7.9,13.9,8.2,14,8.6,14c0.2,0,0.4,0,0.5-0.1
			C9.3,13.7,9.3,13.6,9.3,13.4z"/>
	</g>
</g>
</svg>
