<?xml version="1.0" encoding="utf-8"?>
<!-- Generator: Adobe Illustrator 22.1.0, SVG Export Plug-In . SVG Version: 6.00 Build 0)  -->
<svg version="1.1" id="Ebene_1" xmlns="http://www.w3.org/2000/svg" xmlns:xlink="http://www.w3.org/1999/xlink" x="0px" y="0px"
	 width="24px" height="24px" viewBox="0 0 24 24" enable-background="new 0 0 24 24" xml:space="preserve">
<path fill="#A3A5A7" d="M3,13.5L2.3,12H4v-1.5H2L1.3,9H4V7.5H1.1L0.3,6H4c0-1.1,0.9-2,2-2h10v4h5l3,4v5h-2c0,1.7-1.3,3-3,3
	s-3-1.3-3-3h-4c0,1.7-1.3,3-3,3s-3-1.3-3-3H4v-3.5H3 M19,18.5c0.8,0,1.5-0.7,1.5-1.5s-0.7-1.5-1.5-1.5s-1.5,0.7-1.5,1.5
	S18.2,18.5,19,18.5 M20.5,9.5H18V12h4.5L20.5,9.5 M9,18.5c0.8,0,1.5-0.7,1.5-1.5S9.8,15.5,9,15.5S7.5,16.2,7.5,17S8.2,18.5,9,18.5z"
	/>
<polygon fill="#FFFFFF" points="12.6,6.7 8.3,11 6.9,9.6 5.5,11 8.3,13.8 14,8.1 "/>
</svg>
