<?xml version="1.0" encoding="utf-8"?>
<!-- Generator: Adobe Illustrator 19.2.1, SVG Export Plug-In . SVG Version: 6.00 Build 0)  -->
<svg version="1.1" id="Ebene_1" xmlns="http://www.w3.org/2000/svg" xmlns:xlink="http://www.w3.org/1999/xlink" x="0px" y="0px"
	 viewBox="0 0 48 48" style="enable-background:new 0 0 48 48;" xml:space="preserve">
<style type="text/css">
	.st0{fill:#212121;}
	.st1{fill:#2196F3;}
</style>
<path class="st0" d="M19.6,37.4c0,0.8-0.3,1.5-0.9,2.1s-1.3,0.9-2.1,0.9c-0.8,0-1.5-0.3-2.1-0.9c-0.6-0.6-0.9-1.3-0.9-2.1
	s0.3-1.5,0.9-2.1c0.6-0.6,1.3-0.9,2.1-0.9c0.8,0,1.5,0.3,2.1,0.9C19.3,35.9,19.6,36.6,19.6,37.4z"/>
<path class="st0" d="M41,37.4c0,0.8-0.3,1.5-0.9,2.1s-1.3,0.9-2.1,0.9s-1.5-0.3-2.1-0.9s-0.9-1.3-0.9-2.1s0.3-1.5,0.9-2.1
	c0.6-0.6,1.3-0.9,2.1-0.9s1.5,0.3,2.1,0.9C40.7,35.9,41,36.6,41,37.4z"/>
<path class="st1" d="M44.1,11.5v12.2c0,0.4-0.1,0.7-0.4,1s-0.6,0.5-1,0.5l-24.9,2.9c0.2,1,0.3,1.5,0.3,1.7c0,0.3-0.2,0.8-0.6,1.5
	h21.9c0.4,0,0.8,0.2,1.1,0.5c0.3,0.3,0.5,0.7,0.5,1.1s-0.2,0.8-0.5,1.1c-0.3,0.3-0.7,0.5-1.1,0.5H15.1c-0.4,0-0.8-0.2-1.1-0.5
	c-0.3-0.3-0.5-0.7-0.5-1.1c0-0.2,0.1-0.4,0.2-0.8c0.1-0.3,0.3-0.6,0.4-0.9c0.1-0.2,0.3-0.6,0.5-1c0.2-0.4,0.3-0.6,0.4-0.7L10.8,9.9
	H5.9c-0.4,0-0.8-0.2-1.1-0.5C4.5,9.2,4.4,8.8,4.4,8.4s0.2-0.8,0.5-1.1C5.1,7,5.5,6.9,5.9,6.9H12c0.3,0,0.5,0.1,0.7,0.2
	c0.2,0.1,0.4,0.2,0.5,0.4c0.1,0.1,0.2,0.3,0.3,0.6c0.1,0.2,0.2,0.5,0.2,0.6c0,0.2,0.1,0.4,0.1,0.7c0.1,0.3,0.1,0.5,0.1,0.6h28.6
	c0.4,0,0.8,0.2,1.1,0.5C43.9,10.7,44.1,11.1,44.1,11.5z"/>
</svg>
