<?xml version="1.0" encoding="utf-8"?>
<!-- Generator: Adobe Illustrator 22.1.0, SVG Export Plug-In . SVG Version: 6.00 Build 0)  -->
<svg version="1.1" id="Ebene_1" xmlns="http://www.w3.org/2000/svg" xmlns:xlink="http://www.w3.org/1999/xlink" x="0px" y="0px"
	 width="24px" height="24px" viewBox="0 0 24 24" enable-background="new 0 0 24 24" xml:space="preserve">
<path fill="#B7A418" d="M20,19H4c-1.1,0-2-0.9-2-2V6c0-1.1,0.9-2,2-2h16c1.1,0,2,0.9,2,2v11C22,18.1,21.1,19,20,19z"/>
<path fill="#F7ED81" d="M20,9h-5V6h4c0.6,0,1,0.4,1,1V9z"/>
<path fill="#F7ED81" d="M19,17h-4v-3h5v2C20,16.6,19.6,17,19,17z"/>
<rect x="15" y="10" fill="#F7ED81" width="5" height="3"/>
<path fill="#F7ED81" d="M4,7v2h6v8h4V6H5C4.4,6,4,6.4,4,7z"/>
<path fill="#F7ED81" d="M9,17H5c-0.6,0-1-0.4-1-1v-2h5V17z"/>
<rect x="4" y="10" fill="#F7ED81" width="5" height="3"/>
</svg>
