<?xml version="1.0" encoding="utf-8"?>
<!-- Generator: Adobe Illustrator 22.1.0, SVG Export Plug-In . SVG Version: 6.00 Build 0)  -->
<svg version="1.1" id="Ebene_1" xmlns="http://www.w3.org/2000/svg" xmlns:xlink="http://www.w3.org/1999/xlink" x="0px" y="0px"
	 width="24px" height="24px" viewBox="0 0 24 24" enable-background="new 0 0 24 24" xml:space="preserve">
<path fill="#A3A5A7" d="M14,2H6C4.9,2,4,2.9,4,4v14c0,1.1,0.9,2,2,2h8c1.1,0,2-0.9,2-2V4C16,2.9,15.1,2,14,2z"/>
<rect x="6" y="4" fill="#0C0F12" width="8" height="13"/>
<path fill="#A3A5A7" d="M18,9h-4c-1.1,0-2,0.9-2,2v9c0,1.1,0.9,2,2,2h4c1.1,0,2-0.9,2-2v-9C20,9.9,19.1,9,18,9z"/>
<rect x="14" y="8" fill="#66696C" width="2" height="1"/>
<rect x="10" y="18" transform="matrix(-1.836970e-16 1 -1 -1.836970e-16 29.9958 6.9994)" fill="#66696C" width="3" height="1"/>
<rect x="14" y="11" fill="#0C0F12" width="4" height="8"/>
<rect x="15" y="20" fill="#0C0F12" width="2" height="1"/>
<rect x="9" y="18" fill="#0C0F12" width="2" height="1"/>
</svg>
