<?xml version="1.0" encoding="utf-8"?>
<!-- Generator: Adobe Illustrator 22.1.0, SVG Export Plug-In . SVG Version: 6.00 Build 0)  -->
<svg version="1.1" id="Ebene_1" xmlns="http://www.w3.org/2000/svg" xmlns:xlink="http://www.w3.org/1999/xlink" x="0px" y="0px"
	 width="24px" height="24px" viewBox="0 0 24 24" enable-background="new 0 0 24 24" xml:space="preserve">
<path fill="#5B9CF5" d="M14,2H6C4.9,2,4,2.9,4,4v16c0,1.1,0.9,2,2,2h12c1.1,0,2-0.9,2-2V8L14,2z"/>
<polygon fill="#89BBF8" points="14,2 14,8 20,8 "/>
<g>
	<polygon fill="#FFFFFF" points="10,17 8,15 10,13 10,11 6,15 10,19 	"/>
	<polygon fill="#FFFFFF" points="14,11 14,13 16,15 14,17 14,19 18,15 	"/>
</g>
</svg>
