<?xml version="1.0" encoding="utf-8"?>
<!-- Generator: Adobe Illustrator 22.1.0, SVG Export Plug-In . SVG Version: 6.00 Build 0)  -->
<svg version="1.1" id="Ebene_1" xmlns="http://www.w3.org/2000/svg" xmlns:xlink="http://www.w3.org/1999/xlink" x="0px" y="0px"
	 width="24px" height="24px" viewBox="0 0 24 24" enable-background="new 0 0 24 24" xml:space="preserve">
<path fill="none" d="M0,0h24v24H0V0z"/>
<polygon fill="#B4B4B4" points="3,9 3,15 7,15 12,20 12,4 7,9 "/>
<path fill="#2878F0" d="M16.5,12c0-1.8-1-3.3-2.5-4v8C15.5,15.3,16.5,13.8,16.5,12z"/>
<path fill="#2878F0" d="M14,3.2v2.1c2.9,0.9,5,3.5,5,6.7s-2.1,5.9-5,6.7v2.1c4-0.9,7-4.5,7-8.8S18,4.1,14,3.2z"/>
<rect x="37.8" y="4" fill="#E0E1E2" width="4" height="2"/>
<rect x="6" y="9" fill="#858789" width="1" height="6"/>
</svg>
