<?xml version="1.0" encoding="utf-8"?>
<!-- Generator: Adobe Illustrator 22.1.0, SVG Export Plug-In . SVG Version: 6.00 Build 0)  -->
<svg version="1.1" id="Ebene_1" xmlns="http://www.w3.org/2000/svg" xmlns:xlink="http://www.w3.org/1999/xlink" x="0px" y="0px"
	 width="24px" height="24px" viewBox="0 0 24 24" enable-background="new 0 0 24 24" xml:space="preserve">
<path fill="none" d="M0,0h24v24H0V0z"/>
<path fill="#F07828" d="M2,9.5v8.9C2,19.3,2.7,20,3.6,20h12.8c0.9,0,1.6-0.7,1.6-1.5V9.5C18,8.7,17.3,8,16.4,8H3.6
	C2.7,8,2,8.7,2,9.5z"/>
<path fill="#B65018" d="M4,7.5v8.9C4,17.3,4.7,18,5.6,18h12.8c0.9,0,1.6-0.7,1.6-1.5V7.5C20,6.7,19.3,6,18.4,6H5.6
	C4.7,6,4,6.7,4,7.5z"/>
<path fill="#F07828" d="M6,5.5v8.9C6,15.3,6.7,16,7.6,16h12.8c0.9,0,1.6-0.7,1.6-1.5V5.5C22,4.7,21.3,4,20.4,4H7.6
	C6.7,4,6,4.7,6,5.5z"/>
<path fill="#FFFFFF" d="M13.1,13L11,10l-3,4h12l-3.9-5L13.1,13z"/>
<circle fill="#FFFFFF" cx="9.5" cy="7.5" r="1.5"/>
</svg>
