<?xml version="1.0" encoding="utf-8"?>
<!-- Generator: Adobe Illustrator 22.1.0, SVG Export Plug-In . SVG Version: 6.00 Build 0)  -->
<svg version="1.1" id="Ebene_1" xmlns="http://www.w3.org/2000/svg" xmlns:xlink="http://www.w3.org/1999/xlink" x="0px" y="0px"
	 width="24px" height="24px" viewBox="0 0 24 24" enable-background="new 0 0 24 24" xml:space="preserve">
<path fill="#B7A418" d="M19,3h-4.2c-0.4-1.2-1.5-2-2.8-2S9.6,1.8,9.2,3H5C3.9,3,3,3.9,3,5v14c0,1.1,0.9,2,2,2h14c1.1,0,2-0.9,2-2V5
	C21,3.9,20.1,3,19,3z M12,5c-0.6,0-1-0.4-1-1s0.4-1,1-1s1,0.4,1,1S12.6,5,12,5z"/>
<polyline fill="#FFFFFF" points="7,7 17,7 17,5 19,5 19,19 5,19 5,5 7,5 7,7 "/>
<rect x="7" y="10" fill="#F03C28" width="2" height="2"/>
<rect x="10" y="10" fill="#0C0F12" width="7" height="1"/>
<rect x="7" y="14" fill="#28A050" width="2" height="2"/>
<rect x="10" y="14" fill="#0C0F12" width="7" height="1"/>
</svg>
