<?xml version="1.0" encoding="utf-8"?>
<!-- Generator: Adobe Illustrator 22.1.0, SVG Export Plug-In . SVG Version: 6.00 Build 0)  -->
<svg version="1.1" id="Ebene_1" xmlns="http://www.w3.org/2000/svg" xmlns:xlink="http://www.w3.org/1999/xlink" x="0px" y="0px"
	 width="24px" height="24px" viewBox="0 0 24 24" enable-background="new 0 0 24 24" xml:space="preserve">
<rect x="-0.5" y="9.5" transform="matrix(4.485307e-11 -1 1 4.485307e-11 -2.5012 20.5096)" fill="#2878F0" width="19" height="4"/>
<path fill="#89BBF8" d="M6,17v4H2v-4H6z M2,12v4h4v-4H2z M2,7v4h4V7H2z M2,2v4h4V2H2z M12,17v4h4v-4H12z M12,12v4h4v-4H12z M12,7v4
	h4V7H12z M12,2v4h4V2H12z M17,17v4h4v-4H17z M17,12v4h4v-4H17z M17,7v4h4V7H17z M17,2v4h4V2H17z"/>
</svg>
