<?xml version="1.0" encoding="utf-8"?>
<!-- Generator: Adobe Illustrator 22.1.0, SVG Export Plug-In . SVG Version: 6.00 Build 0)  -->
<svg version="1.1" id="Ebene_1" xmlns="http://www.w3.org/2000/svg" xmlns:xlink="http://www.w3.org/1999/xlink" x="0px" y="0px"
	 width="24px" height="24px" viewBox="0 0 24 24" enable-background="new 0 0 24 24" xml:space="preserve">
<path fill="#A3A5A7" d="M5.6,20.4c-0.3,0-0.5-0.1-0.7-0.3C3,18.2,2,15.7,2,13c0-2.7,1-5.2,2.9-7.1C6.8,4,9.3,3,12,3
	c2.7,0,5.2,1,7.1,2.9C21,7.8,22,10.3,22,13c0,2.7-1,5.2-2.9,7.1c-0.4,0.4-1,0.4-1.4,0s-0.4-1,0-1.4c3.1-3.1,3.1-8.2,0-11.3
	C16.1,5.8,14.1,5,12,5S7.9,5.8,6.3,7.3S4,10.9,4,13s0.8,4.1,2.3,5.7c0.4,0.4,0.4,1,0,1.4C6.1,20.3,5.9,20.4,5.6,20.4z"/>
<line fill="none" stroke="#A3A5A7" stroke-linecap="round" stroke-miterlimit="10" x1="12" y1="6.5" x2="12" y2="5"/>
<line fill="none" stroke="#A3A5A7" stroke-linecap="round" stroke-miterlimit="10" x1="4" y1="13" x2="5.5" y2="13"/>
<line fill="none" stroke="#A3A5A7" stroke-linecap="round" stroke-miterlimit="10" x1="18.5" y1="13" x2="20" y2="13"/>
<line fill="none" stroke="#A3A5A7" stroke-linecap="round" stroke-miterlimit="10" x1="6.3" y1="7.3" x2="7.4" y2="8.4"/>
<line fill="none" stroke="#A3A5A7" stroke-linecap="round" stroke-miterlimit="10" x1="17.7" y1="7.3" x2="16.6" y2="8.4"/>
<path fill="#F03C28" d="M12,16c-1.7,0-3-1.3-3-3c0-1.1,0.6-2.1,1.5-2.6l9.7-5.6l-5.5,9.6C14.2,15.3,13.2,16,12,16"/>
</svg>
