<?xml version="1.0" encoding="utf-8"?>
<!-- Generator: Adobe Illustrator 22.1.0, SVG Export Plug-In . SVG Version: 6.00 Build 0)  -->
<svg version="1.1" id="Ebene_1" xmlns="http://www.w3.org/2000/svg" xmlns:xlink="http://www.w3.org/1999/xlink" x="0px" y="0px"
	 width="24px" height="24px" viewBox="0 0 24 24" enable-background="new 0 0 24 24" xml:space="preserve">
<path fill="#C1C3C5" d="M15,8H6c-1.1,0-2,0.9-2,2v10c0,1.1,0.9,2,2,2h12c1.1,0,2-0.9,2-2V10c0-1.1-0.9-2-2-2h-1H15z"/>
<circle fill="#66696C" cx="12" cy="15" r="2"/>
<path fill="#A3A5A7" d="M17,6c0-2.8-2.2-5-5-5S7,3.2,7,6h2c0-1.7,1.3-3,3-3s3,1.3,3,3v2h2V6z"/>
<rect x="15" y="7" fill="#858789" width="2" height="1"/>
</svg>
