<?xml version="1.0" encoding="UTF-8" standalone="no"?><!DOCTYPE svg PUBLIC "-//W3C//DTD SVG 1.1//EN" "http://www.w3.org/Graphics/SVG/1.1/DTD/svg11.dtd"><svg width="100%" height="100%" viewBox="0 0 48 48" version="1.1" xmlns="http://www.w3.org/2000/svg" xmlns:xlink="http://www.w3.org/1999/xlink" xml:space="preserve" xmlns:serif="http://www.serif.com/" style="fill-rule:evenodd;clip-rule:evenodd;stroke-linejoin:round;stroke-miterlimit:1.41421;"><path d="M17.709,34.249l-4.371,0c-2.569,0 -4.767,-0.88 -6.593,-2.638c-1.827,-1.758 -2.74,-3.874 -2.74,-6.348c0,-1.738 0.486,-3.343 1.458,-4.814c0.973,-1.471 2.278,-2.574 3.917,-3.309c-0.028,-0.402 -0.042,-0.689 -0.042,-0.863c0,-2.835 1.042,-5.255 3.125,-7.261c2.084,-2.006 4.598,-3.008 7.542,-3.008c2.167,0 4.149,0.581 5.948,1.745c1.799,1.163 3.108,2.707 3.927,4.633c0.986,-0.829 2.139,-1.244 3.458,-1.244c1.473,0 2.73,0.502 3.771,1.505c1.042,1.003 1.563,2.213 1.563,3.63c0,1.016 -0.285,1.939 -0.854,2.768c1.805,0.415 3.288,1.32 4.447,2.718c1.16,1.397 1.74,2.992 1.74,4.784c0,2.126 -0.781,3.941 -2.344,5.445c-1.54,1.483 -3.395,2.235 -5.656,2.257l-7.485,0" style="fill:#fff;stroke:#2196f3;stroke-width:3px;"/><path d="M20.421,26.519l0,14.92c0,0.171 0.068,0.319 0.205,0.444c0.136,0.124 0.298,0.187 0.485,0.187l4.139,0c0.187,0 0.348,-0.063 0.485,-0.187c0.137,-0.125 0.205,-0.273 0.205,-0.444l0,-14.92l4.829,0c0.187,0 0.349,-0.063 0.485,-0.188c0.137,-0.124 0.205,-0.272 0.205,-0.443c0,-0.184 -0.065,-0.335 -0.194,-0.453l-7.589,-6.938c-0.129,-0.118 -0.295,-0.178 -0.496,-0.178c-0.201,0 -0.366,0.06 -0.496,0.178l-7.567,6.918c-0.143,0.158 -0.215,0.315 -0.215,0.473c0,0.184 0.064,0.335 0.194,0.453l0.496,0.178l4.829,0Z" style="fill:#4caf50;"/></svg>