<?xml version="1.0" encoding="utf-8"?>
<!-- Generator: Adobe Illustrator 22.1.0, SVG Export Plug-In . SVG Version: 6.00 Build 0)  -->
<svg version="1.1" id="Ebene_1" xmlns="http://www.w3.org/2000/svg" xmlns:xlink="http://www.w3.org/1999/xlink" x="0px" y="0px"
	 width="24px" height="24px" viewBox="0 0 24 24" enable-background="new 0 0 24 24" xml:space="preserve">
<path fill="#A3A5A7" d="M16,6c-1.1,0-2.2,0.3-3.2,1H4C2.9,7,2,7.9,2,9v6c0,1.1,0.9,2,2,2h1v1c0,0.5,0.4,1,1,1h2c0.6,0,1-0.5,1-1v-1
	h6v1c0,0.5,0.4,1,1,1h2c0.5,0,1-0.5,1-1v-1h1c1.1,0,2-0.9,2-2V9c0-1.1-0.9-2-2-2h-0.9C18.2,6.4,17.1,6,16,6 M16,7.5
	c1.9,0,3.5,1.6,3.5,3.5s-1.6,3.5-3.5,3.5s-3.5-1.6-3.5-3.5S14.1,7.5,16,7.5 M4,9h4v1H4V9 M16,9c-1.1,0-2,0.9-2,2s0.9,2,2,2
	s2-0.9,2-2S17.1,9,16,9 M4,11h4v1H4V11 M4,13h4v1H4V13z"/>
</svg>
