<?xml version="1.0" encoding="utf-8"?>
<!-- Generator: Adobe Illustrator 22.1.0, SVG Export Plug-In . SVG Version: 6.00 Build 0)  -->
<svg version="1.1" id="Ebene_1" xmlns="http://www.w3.org/2000/svg" xmlns:xlink="http://www.w3.org/1999/xlink" x="0px" y="0px"
	 width="24px" height="24px" viewBox="0 0 24 24" enable-background="new 0 0 24 24" xml:space="preserve">
<path fill="#A3A5A7" d="M9,5c2.2,0,4,1.8,4,4s-1.8,4-4,4s-4-1.8-4-4S6.8,5,9,5 M9,15c2.7,0,8,1.3,8,4v2H1v-2C1,16.3,6.3,15,9,15
	 M16.8,5.4c2,2.2,2,5.2,0,7.3L15.1,11c0.8-1.2,0.8-2.7,0-3.9L16.8,5.4 M20.1,2c3.9,4.1,3.9,10.1,0,14l-1.6-1.6
	c2.8-3.2,2.8-7.7,0-10.7L20.1,2z"/>
</svg>
