<?xml version="1.0" encoding="utf-8"?>
<!-- Generator: Adobe Illustrator 22.1.0, SVG Export Plug-In . SVG Version: 6.00 Build 0)  -->
<svg version="1.1" id="Ebene_1" xmlns="http://www.w3.org/2000/svg" xmlns:xlink="http://www.w3.org/1999/xlink" x="0px" y="0px"
	 width="24px" height="24px" viewBox="0 0 24 24" enable-background="new 0 0 24 24" xml:space="preserve">
<path fill="none" d="M0,0h24v24H0V0z"/>
<path fill="#A3A5A7" d="M6,9h1.5l1,3.4l1-3.4H11l-1.8,6H7.8L6,9 M13,9h3.5c0.9,0,1.5,0.6,1.5,1.5v1c0,0.6-0.4,1.1-0.9,1.4L18,15
	h-1.5l-0.9-2h-1.1v2H13V9 M14.5,10.5v1h2v-1H14.5z"/>
<path fill="#A3A5A7" d="M20,6.5v10.9c-2.6-0.8-5.3-1.2-8-1.2s-5.4,0.4-8,1.2V6.5c2.6,0.8,5.3,1.2,8,1.2S17.4,7.3,20,6.5 M21.4,4
	c-0.1,0-0.2,0-0.3,0.1c-2.9,1.1-6,1.6-9.1,1.6S5.8,5.1,2.9,4.1C2.8,4,2.7,4,2.6,4C2.2,4,2,4.2,2,4.6v14.8C2,19.8,2.2,20,2.6,20
	c0.1,0,0.2,0,0.3-0.1c2.9-1.1,6-1.6,9.1-1.6s6.2,0.5,9.1,1.6c0.1,0,0.2,0.1,0.3,0.1c0.3,0,0.6-0.2,0.6-0.6V4.6C22,4.2,21.8,4,21.4,4
	z"/>
</svg>
