<?xml version="1.0" encoding="utf-8"?>
<!-- Generator: Adobe Illustrator 22.1.0, SVG Export Plug-In . SVG Version: 6.00 Build 0)  -->
<svg version="1.1" id="Ebene_1" xmlns="http://www.w3.org/2000/svg" xmlns:xlink="http://www.w3.org/1999/xlink" x="0px" y="0px"
	 width="24px" height="24px" viewBox="0 0 24 24" enable-background="new 0 0 24 24" xml:space="preserve">
<path fill="#858789" d="M5.7,22h12.6c1.3,0,2.1-1.4,1.4-2.5L13.4,8.6c-0.6-1.1-2.3-1.1-2.8,0L4.2,19.5C3.6,20.6,4.4,22,5.7,22z"/>
<path fill="#66696C" d="M12,17c2,0,3.8-0.7,5.2-1.9l-3.8-6.5c-0.6-1.1-2.3-1.1-2.8,0l-3.8,6.5C8.2,16.3,10,17,12,17z"/>
<path fill="#A3A5A7" d="M12,2c3.9,0,7,3.1,7,7s-3.1,7-7,7s-7-3.1-7-7S8.1,2,12,2"/>
<path fill="#FFFFFF" d="M12,4C9.2,4,7,6.2,7,9s2.2,5,5,5s5-2.2,5-5S14.8,4,12,4"/>
<path fill="#A3A5A7" d="M12,6c1.7,0,3,1.3,3,3s-1.3,3-3,3s-3-1.3-3-3S10.3,6,12,6"/>
</svg>
