<?xml version="1.0" encoding="utf-8"?>
<!-- Generator: Adobe Illustrator 22.1.0, SVG Export Plug-In . SVG Version: 6.00 Build 0)  -->
<svg version="1.1" id="Ebene_1" xmlns="http://www.w3.org/2000/svg" xmlns:xlink="http://www.w3.org/1999/xlink" x="0px" y="0px"
	 viewBox="0 0 20 20" enable-background="new 0 0 20 20" xml:space="preserve">
<path d="M4,5.5"/>
<path fill="#FFFFFF" d="M18.5,4.6l-7.9-4.4C10.4,0.1,10.2,0,10,0S9.6,0.1,9.4,0.2L1.5,4.6C1.2,4.8,1,5.1,1,5.5v9
	c0,0.4,0.2,0.7,0.5,0.9l7.9,4.4C9.6,19.9,9.8,20,10,20s0.4-0.1,0.6-0.2l7.9-4.4c0.3-0.2,0.5-0.5,0.5-0.9v-9
	C19,5.1,18.8,4.8,18.5,4.6z M9,17.3l-6-3.4V7.2l6,3.4V17.3z M10,8.8L4,5.5l6-3.3l6,3.3L10,8.8z M17,13.9l-6,3.4v-6.7l6-3.4V13.9z"/>
</svg>
