<?xml version="1.0" encoding="utf-8"?>
<!-- Generator: Adobe Illustrator 22.1.0, SVG Export Plug-In . SVG Version: 6.00 Build 0)  -->
<svg version="1.1" id="Ebene_1" xmlns="http://www.w3.org/2000/svg" xmlns:xlink="http://www.w3.org/1999/xlink" x="0px" y="0px"
	 width="30px" height="30px" viewBox="0 0 30 30" enable-background="new 0 0 30 30" xml:space="preserve">
<path fill="#FFFFFF" d="M27,6.4l-10.5-6c-0.9-0.5-2.1-0.5-3,0L3,6.4C2.1,6.9,1.5,7.9,1.5,9v12c0,1.1,0.6,2.1,1.5,2.6l10.5,6
	c0.5,0.3,1,0.4,1.5,0.4c0.5,0,1-0.1,1.5-0.4l10.5-6c0.9-0.5,1.5-1.5,1.5-2.6V9C28.5,7.9,27.9,6.9,27,6.4z M14.5,2.1
	C14.7,2.1,14.8,2,15,2s0.3,0,0.5,0.1l9.9,5.7l-10.4,6l-10.4-6L14.5,2.1z M4,21.9c-0.3-0.2-0.5-0.5-0.5-0.9V9.5L14,15.6v12L4,21.9z
	 M26,21.9l-10,5.7v-12l10.5-6V21C26.5,21.3,26.3,21.7,26,21.9z"/>
</svg>
