<?xml version="1.0" encoding="utf-8"?>
<!DOCTYPE svg PUBLIC "-//W3C//DTD SVG 1.1//EN" "http://www.w3.org/Graphics/SVG/1.1/DTD/svg11.dtd">
<svg version="1.1" id="Ebene_2_1_" xmlns="http://www.w3.org/2000/svg" xmlns:xlink="http://www.w3.org/1999/xlink" x="0px" y="0px"
	 width="24px" height="24px" viewBox="0 0 24 24" enable-background="new 0 0 24 24" xml:space="preserve">
<path fill="#DAAA89" d="M12,21.8l8.8-14.7c-0.1-0.2-0.3-0.4-0.5-0.5l-7.6-4.2c-0.4-0.2-0.9-0.2-1.4,0L3.7,6.6
	C3.5,6.7,3.3,6.9,3.2,7.1L12,21.8z"/>
<path fill="#C9865B" d="M3.2,7.1C3.1,7.3,3,7.6,3,7.8v8.4c0,0.5,0.3,1,0.7,1.2l7.6,4.199c0.2,0.101,0.4,0.2,0.7,0.2V12L3.2,7.1z"/>
<path fill="#B45E28" d="M20.8,7.1C20.9,7.3,21,7.6,21,7.8v8.4c0,0.5-0.3,1-0.7,1.2L12.7,21.6c-0.2,0.101-0.4,0.2-0.7,0.2V12
	L20.8,7.1z"/>
</svg>
