<?xml version="1.0" encoding="utf-8"?>
<!-- Generator: Adobe Illustrator 22.1.0, SVG Export Plug-In . SVG Version: 6.00 Build 0)  -->
<svg version="1.1" id="Ebene_1" xmlns="http://www.w3.org/2000/svg" xmlns:xlink="http://www.w3.org/1999/xlink" x="0px" y="0px"
	 width="24px" height="24px" viewBox="0 0 24 24" enable-background="new 0 0 24 24" xml:space="preserve">
<path fill="none" d="M0,0h24v24H0V0z"/>
<path fill="#5B9CF5" d="M5,3C3.9,3,3,3.9,3,5v13.4C3,19.8,3.9,21,5,21h14c1.1,0,2-1.2,2-2.6V5c0-1.1-0.9-2-2-2H5z"/>
<rect x="16" y="1" fill="#5B9CF5" width="2" height="2"/>
<rect x="6" y="1" fill="#5B9CF5" width="2" height="2"/>
<rect x="16" y="3" fill="#89BBF8" width="2" height="2"/>
<polyline fill="#89BBF8" points="8,5 6,5 6,3 8,3 "/>
<path fill="#FFFFFF" d="M12,12.9c-2,0-6,1.1-6,3.6V18h12v-1.5C18,14,14,12.9,12,12.9z M8.3,16c0.7-0.6,2.4-1.1,3.7-1.1
	s3,0.6,3.7,1.1H8.3z"/>
<path fill="#FFFFFF" d="M12,6c-1.7,0-3,1.3-3,3s1.3,3,3,3s3-1.3,3-3S13.7,6,12,6z M12,10c-0.5,0-1-0.5-1-1s0.5-1,1-1s1,0.5,1,1
	S12.5,10,12,10z"/>
</svg>
