<?xml version="1.0" encoding="utf-8"?>
<!-- Generator: Adobe Illustrator 22.1.0, SVG Export Plug-In . SVG Version: 6.00 Build 0)  -->
<svg version="1.1" id="Ebene_1" xmlns="http://www.w3.org/2000/svg" xmlns:xlink="http://www.w3.org/1999/xlink" x="0px" y="0px"
	 width="24px" height="24px" viewBox="0 0 24 24" enable-background="new 0 0 24 24" xml:space="preserve">
<path fill="#B4B4B4" d="M13,8H5c-1.1,0-2,0.9-2,2v4c0,1.1,0.9,2,2,2h1v4c0,0.6,0.4,1,1,1h2c0.6,0,1-0.4,1-1v-4h3l5,4V4L13,8"/>
<path fill="#2878F0" d="M21,12c0,1.7-1.2,3.3-3,4V8C19.8,8.8,21,10.3,21,12z"/>
<rect x="10" y="8" fill="#66696C" width="1" height="8"/>
<rect x="5" y="8" fill="#66696C" width="1" height="8"/>
</svg>
