<?xml version="1.0" encoding="utf-8"?>
<!-- Generator: Adobe Illustrator 22.1.0, SVG Export Plug-In . SVG Version: 6.00 Build 0)  -->
<svg version="1.1" id="Ebene_1" xmlns="http://www.w3.org/2000/svg" xmlns:xlink="http://www.w3.org/1999/xlink" x="0px" y="0px"
	 width="24px" height="24px" viewBox="0 0 24 24" enable-background="new 0 0 24 24" xml:space="preserve">
<path fill="none" d="M0,0h24v24H0V0z"/>
<path fill="#A3A5A7" d="M15,3l2.3,2.3l-2.9,2.9l1.4,1.4l2.9-2.9L21,9V3H15z M3,9l2.3-2.3l2.9,2.9l1.4-1.4L6.7,5.3L9,3H3V9z M9,21
	l-2.3-2.3l2.9-2.9l-1.4-1.4l-2.9,2.9L3,15v6H9z M21,15l-2.3,2.3l-2.9-2.9l-1.4,1.4l2.9,2.9L15,21h6V15z"/>
</svg>
