<?xml version="1.0" encoding="utf-8"?>
<!-- Generator: Adobe Illustrator 22.1.0, SVG Export Plug-In . SVG Version: 6.00 Build 0)  -->
<svg version="1.1" id="Ebene_1" xmlns="http://www.w3.org/2000/svg" xmlns:xlink="http://www.w3.org/1999/xlink" x="0px" y="0px"
	 width="24px" height="24px" viewBox="0 0 24 24" enable-background="new 0 0 24 24" xml:space="preserve">
<path fill="#A3A5A7" d="M19.4,13l0.1-1l-0.1-1l2.1-1.6c0.2-0.1,0.3-0.4,0.1-0.6l-2-3.5C19.5,5,19.3,5,19,5l-2.5,1
	c-0.5-0.4-1.1-0.7-1.7-1l-0.4-2.7C14.5,2.2,14.3,2,14,2h-4C9.8,2,9.5,2.2,9.5,2.4L9.1,5.1C8.5,5.3,8,5.7,7.4,6L5,5
	C4.7,5,4.5,5,4.3,5.3l-2,3.5C2.2,9,2.3,9.2,2.5,9.4L4.6,11l-0.1,1l0.1,1l-2.1,1.7c-0.2,0.2-0.3,0.4-0.1,0.6l2,3.5
	C4.5,19,4.7,19,5,19l2.5-1c0.5,0.4,1.1,0.7,1.7,1l0.4,2.7c0,0.2,0.3,0.4,0.5,0.4h4c0.3,0,0.5-0.2,0.5-0.4L15,19
	c0.6-0.3,1.2-0.6,1.7-1l2.5,1c0.2,0.1,0.5,0,0.6-0.2l2-3.5c0.1-0.2,0.1-0.5-0.1-0.6L19.4,13z"/>
<path fill="#FFFFFF" d="M12,19v-2c-2.8,0-5-2.2-5-5c0-0.9,0.2-1.7,0.6-2.4l1.5,1.5C9.1,11.4,9,11.7,9,12c0,1.7,1.3,3,3,3v-2l3,3
	L12,19z"/>
<path fill="#FFFFFF" d="M16.4,14.4l-1.5-1.5C15,12.6,15,12.3,15,12c0-1.7-1.3-3-3-3v2L9,8l3-3v2c2.8,0,5,2.2,5,5
	C17,12.9,16.8,13.7,16.4,14.4z"/>
</svg>
