<?xml version="1.0" encoding="utf-8"?>
<!-- Generator: Adobe Illustrator 22.1.0, SVG Export Plug-In . SVG Version: 6.00 Build 0)  -->
<svg version="1.1" id="Ebene_1" xmlns="http://www.w3.org/2000/svg" xmlns:xlink="http://www.w3.org/1999/xlink" x="0px" y="0px"
	 width="24px" height="24px" viewBox="0 0 24 24" enable-background="new 0 0 24 24" xml:space="preserve">
<path fill="#A3A5A7" d="M18,18h2c0.6,0,1-0.4,1-1v-6l-2.1-6c-0.2-0.6-0.8-1-1.4-1h-11C5.8,4,5.3,4.4,5.1,5L3,11v6c0,0.6,0.4,1,1,1h2
	H18z"/>
<path fill="#66696C" d="M17,19c0,0.5,0.5,1,1,1h1c0.5,0,1-0.5,1-1v-1h-3V19z"/>
<path fill="#66696C" d="M5,20h1c0.6,0,1-0.5,1-1v-1H4v1C4,19.5,4.5,20,5,20z"/>
<polygon fill="#FFFFFF" points="6.8,6 17.1,6 19,11 5,11 "/>
<circle fill="#FFFFFF" cx="7.5" cy="13.5" r="1.5"/>
<circle fill="#FFFFFF" cx="16.5" cy="13.5" r="1.5"/>
</svg>
