<?xml version="1.0" encoding="utf-8"?>
<!-- Generator: Adobe Illustrator 22.1.0, SVG Export Plug-In . SVG Version: 6.00 Build 0)  -->
<svg version="1.1" id="Ebene_1" xmlns="http://www.w3.org/2000/svg" xmlns:xlink="http://www.w3.org/1999/xlink" x="0px" y="0px"
	 width="24px" height="24px" viewBox="0 0 24 24" enable-background="new 0 0 24 24" xml:space="preserve">
<path fill="#28A050" d="M4.5,21h15c1.1,0,1.9-1.2,1.3-2.2l-5.3-9.9C15.2,8.3,15,7.7,15,7V3H9v4c0,0.7-0.2,1.3-0.5,1.9l-5.3,9.9
	C2.7,19.8,3.4,21,4.5,21z"/>
<g>
	<path fill="#28A050" d="M11.7,18.5c-1.2,0-2.4-0.8-3.1-2c-0.7-1.2-0.8-2.7-0.2-3.7c0,0,0,0,0,0c1.2,0,2.4,0.8,3.1,2
		C12.3,16,12.3,17.5,11.7,18.5C11.7,18.5,11.7,18.5,11.7,18.5z"/>
	<g>
		<path fill="#FFFFFF" d="M8.7,13.3c0.9,0.1,1.8,0.8,2.4,1.7c0.6,1,0.7,2.1,0.3,3c-0.9-0.1-1.8-0.8-2.4-1.7
			C8.5,15.3,8.3,14.1,8.7,13.3 M8.5,12.3c-0.1,0-0.2,0-0.3,0c-0.8,1.1-0.9,2.9,0,4.4C9,18.2,10.4,19,11.7,19c0.1,0,0.2,0,0.3,0
			c0.8-1.1,0.9-2.9,0-4.4C11.2,13.1,9.8,12.3,8.5,12.3L8.5,12.3z"/>
	</g>
</g>
<g>
	<path fill="#28A050" d="M12.3,18.5c-0.6-1-0.5-2.5,0.2-3.7c0.7-1.2,1.9-2,3.1-2c0,0,0,0,0,0c0.6,1,0.5,2.5-0.2,3.7
		C14.7,17.7,13.5,18.5,12.3,18.5C12.3,18.5,12.3,18.5,12.3,18.5z"/>
	<g>
		<path fill="#FFFFFF" d="M15.3,13.3c0.4,0.8,0.3,2-0.3,3c-0.6,1-1.5,1.6-2.4,1.7c-0.4-0.8-0.3-2,0.3-3
			C13.5,14.1,14.4,13.4,15.3,13.3 M15.5,12.3c-1.3,0-2.7,0.8-3.5,2.3c-0.9,1.5-0.8,3.3,0,4.4c0.1,0,0.2,0,0.3,0
			c1.3,0,2.7-0.8,3.5-2.3c0.9-1.5,0.8-3.3,0-4.4C15.8,12.3,15.7,12.3,15.5,12.3L15.5,12.3z"/>
	</g>
</g>
<g>
	<path fill="#28A050" d="M12,18.4c-1-0.6-1.7-1.9-1.7-3.3s0.7-2.7,1.7-3.3c1,0.6,1.7,1.9,1.7,3.3S13,17.9,12,18.4z"/>
	<path fill="#FFFFFF" d="M12,12.4c0.7,0.5,1.2,1.6,1.2,2.7s-0.5,2.2-1.2,2.7c-0.7-0.5-1.2-1.6-1.2-2.7S11.3,12.9,12,12.4 M12,11.3
		c-1.3,0.6-2.2,2.1-2.2,3.9s0.9,3.3,2.2,3.9c1.3-0.6,2.2-2.1,2.2-3.9S13.3,11.8,12,11.3L12,11.3z"/>
</g>
</svg>
