<?xml version="1.0" encoding="utf-8"?>
<!-- Generator: Adobe Illustrator 22.1.0, SVG Export Plug-In . SVG Version: 6.00 Build 0)  -->
<svg version="1.1" id="Ebene_1" xmlns="http://www.w3.org/2000/svg" xmlns:xlink="http://www.w3.org/1999/xlink" x="0px" y="0px"
	 width="24px" height="24px" viewBox="0 0 24 24" enable-background="new 0 0 24 24" xml:space="preserve">
<path fill="#2878F0" d="M4,2h2v2c0,1.4,0.7,2.6,1.9,3.8c0.9,0.8,2,1.6,3.2,2.4l-1.8,1.2c-1-0.7-2-1.4-2.8-2.2C5.1,7.8,4,6.1,4,4V2"
	/>
<path fill="#F03C28" d="M18,2h2v2c0,2.1-1.1,3.8-2.5,5.2s-3.2,2.5-5,3.6S9.1,15,7.8,16.2C6.7,17.4,6,18.6,6,20v2H4v-2
	c0-2.1,1.1-3.8,2.5-5.2s3.2-2.5,5-3.6s3.4-2.2,4.7-3.4C17.3,6.6,18,5.4,18,4V2"/>
<path fill="#2878F0" d="M14.7,12.6c1,0.7,2,1.4,2.8,2.2c1.4,1.4,2.5,3.1,2.5,5.2v2h-2v-2c0-1.4-0.7-2.6-1.9-3.8
	c-0.9-0.8-2-1.6-3.2-2.4L14.7,12.6"/>
<polyline fill="#5B9CF5" points="7,3 17,3 17,4 16.9,4.5 7.1,4.5 7,4 7,3 "/>
<path fill="#5B9CF5" d="M7.7,6h8.6c-0.2,0.3-0.5,0.7-0.9,1.1l-0.5,0.4H9.1L8.6,7.1C8.2,6.7,7.9,6.3,7.7,6"/>
<path fill="#F56C5B" d="M9.1,16.5h5.8l0.5,0.4c0.4,0.4,0.7,0.7,0.9,1.1H7.7c0.2-0.3,0.5-0.7,0.9-1.1L9.1,16.5"/>
<polygon fill="#F56C5B" points="7.1,19.5 17,19.5 17,20 17,21 7,21 7,20 "/>
</svg>
