<?xml version="1.0" encoding="utf-8"?>
<!-- Generator: Adobe Illustrator 22.1.0, SVG Export Plug-In . SVG Version: 6.00 Build 0)  -->
<svg version="1.1" id="Ebene_1" xmlns="http://www.w3.org/2000/svg" xmlns:xlink="http://www.w3.org/1999/xlink" x="0px" y="0px"
	 width="24px" height="24px" viewBox="0 0 24 24" enable-background="new 0 0 24 24" xml:space="preserve">
<path fill="#A3A5A7" d="M20,6h-4V4c0-1.1-0.9-2-2-2h-4C8.9,2,8,2.9,8,4v2H4C2.9,6,2,6.9,2,8v11c0,1.1,0.9,2,2,2h16c1.1,0,2-0.9,2-2
	V8C22,6.9,21.1,6,20,6z M14,6h-4V4.4C10,4.2,10.2,4,10.4,4h3.2C13.8,4,14,4.2,14,4.4V6z"/>
<rect x="6" y="12" fill="#484B4E" width="2" height="4"/>
<rect x="16" y="12" fill="#484B4E" width="2" height="4"/>
<rect x="2" y="13" fill="#484B4E" width="20" height="1"/>
</svg>
