<?xml version="1.0" encoding="utf-8"?>
<!-- Generator: Adobe Illustrator 22.1.0, SVG Export Plug-In . SVG Version: 6.00 Build 0)  -->
<svg version="1.1" id="Ebene_1" xmlns="http://www.w3.org/2000/svg" xmlns:xlink="http://www.w3.org/1999/xlink" x="0px" y="0px"
	 width="24px" height="24px" viewBox="0 0 24 24" enable-background="new 0 0 24 24" xml:space="preserve">
<path fill="#28A050" d="M18,2H6C4.9,2,4,2.9,4,4v2c0,1.1,0.9,2,2,2h12c1.1,0,2-0.9,2-2V4C20,2.9,19.1,2,18,2z"/>
<g>
	<path fill="#28A050" d="M10.2,3.6c-1.1,0-1.9,0.8-1.9,1.9v9.1l-1.8-1c-0.2-0.1-0.5-0.2-0.7-0.2c-0.4,0-0.7,0.1-1.1,0.4L3,15.2
		l5.6,5.8C9.2,21.7,10,22,10.8,22h5.1c1.7,0,3.1-1.4,3.1-3.1v-5v-0.8c0-1-0.8-1.8-1.9-1.8c-0.2,0-0.5,0.1-0.7,0.2
		c-0.3-0.5-0.9-0.9-1.6-0.9c-0.5,0-0.8,0.2-1.2,0.4c-0.3-0.2-0.7-0.4-1.2-0.4c-0.2,0-0.2,0-0.4,0.1V5.5C12.1,4.4,11.2,3.6,10.2,3.6
		L10.2,3.6z"/>
	<path fill="#FFFFFF" d="M10.2,5c0.3,0,0.5,0.2,0.5,0.5v5.1c0,0.5,0.3,0.9,0.7,1.2c0.2,0.1,0.5,0.2,0.7,0.2c0.2,0,0.3,0,0.4-0.1
		c0.1,0,0.2,0,0.3,0.1c0.2,0.2,0.5,0.3,0.8,0.3s0.6-0.1,0.8-0.3c0.1-0.1,0.2-0.1,0.3-0.1c0.2,0,0.3,0.1,0.4,0.2
		c0.3,0.4,0.7,0.7,1.2,0.7c0.1,0,0.3,0,0.4-0.1c0.1,0,0.2-0.1,0.2-0.1c0.3,0,0.5,0.2,0.5,0.4v0.8v5c0,0.9-0.8,1.7-1.7,1.7h-5.1
		c-0.5,0-0.9-0.2-1.2-0.5L5,15.3l0.5-0.4c0.1,0,0.1-0.1,0.2-0.1c0,0,0,0,0,0l1.8,1C7.8,16,8,16,8.2,16c0.2,0,0.5-0.1,0.7-0.2
		c0.4-0.3,0.7-0.7,0.7-1.2V5.5C9.6,5.2,9.9,5,10.2,5"/>
</g>
</svg>
