<?xml version="1.0" encoding="utf-8"?>
<!-- Generator: Adobe Illustrator 22.1.0, SVG Export Plug-In . SVG Version: 6.00 Build 0)  -->
<svg version="1.1" id="Ebene_1" xmlns="http://www.w3.org/2000/svg" xmlns:xlink="http://www.w3.org/1999/xlink" x="0px" y="0px"
	 width="24px" height="24px" viewBox="0 0 24 24" enable-background="new 0 0 24 24" xml:space="preserve">
<path fill="#A3A5A7" d="M12,12H3V5c0-1.1,0.9-2,2-2h7V12z"/>
<path fill="#858789" d="M21,12h-9V3h7c1.1,0,2,0.9,2,2V12z"/>
<path fill="#858789" d="M12,21H5c-1.1,0-2-0.9-2-2v-7h9V21z"/>
<path fill="#28A050" d="M19,21h-7v-9h9v7C21,20.1,20.1,21,19,21z"/>
<polyline fill="#FFFFFF" points="10,8 5,8 5,7 10,7 10,8 "/>
<polyline fill="#FFFFFF" points="19,18 14,18 14,17 19,17 19,18 "/>
<polyline fill="#FFFFFF" points="19,16 14,16 14,15 19,15 19,16 "/>
<polyline fill="#FFFFFF" points="19,8 17,8 17,10 16,10 16,8 14,8 14,7 16,7 16,5 17,5 17,7 19,7 19,8 "/>
<polygon fill="#FFFFFF" points="9.6,17.9 8.9,18.6 7.5,17.2 6.1,18.6 5.4,17.9 6.8,16.5 5.4,15.1 6.1,14.4 7.5,15.8 8.9,14.4 
	9.6,15.1 8.2,16.5 "/>
</svg>
