<?xml version="1.0" encoding="utf-8"?>
<!-- Generator: Adobe Illustrator 22.1.0, SVG Export Plug-In . SVG Version: 6.00 Build 0)  -->
<svg version="1.1" id="Ebene_1" xmlns="http://www.w3.org/2000/svg" xmlns:xlink="http://www.w3.org/1999/xlink" x="0px" y="0px"
	 width="24px" height="24px" viewBox="0 0 24 24" enable-background="new 0 0 24 24" xml:space="preserve">
<path fill="none" d="M0,0h24v24H0V0z"/>
<path fill="#B4B4B4" d="M20,15.5c-1.3,0-2.5-0.2-3.6-0.6c-0.1,0-0.2,0-0.3,0c-0.3,0-0.5,0.1-0.7,0.3l-2.2,2.2
	C10.4,16,8,13.6,6.6,10.8l2.2-2.2c0.3-0.3,0.4-0.7,0.3-1C8.7,6.5,8.5,5.3,8.5,4c0-0.5-0.5-1-1-1H4C3.5,3,3,3.5,3,4
	c0,9.4,7.6,17,17,17c0.5,0,1-0.5,1-1v-3.5C21,16,20.5,15.5,20,15.5z"/>
<polygon fill="#28A050" points="18,11 23,6 18,1 18,4 14,4 14,8 18,8 "/>
</svg>
