<?xml version="1.0" encoding="UTF-8" standalone="no"?><!DOCTYPE svg PUBLIC "-//W3C//DTD SVG 1.1//EN" "http://www.w3.org/Graphics/SVG/1.1/DTD/svg11.dtd"><svg width="100%" height="100%" viewBox="0 0 24 24" version="1.1" xmlns="http://www.w3.org/2000/svg" xmlns:xlink="http://www.w3.org/1999/xlink" xml:space="preserve" xmlns:serif="http://www.serif.com/" style="fill-rule:evenodd;clip-rule:evenodd;stroke-linejoin:round;stroke-miterlimit:1.41421;"><g><path d="M0,24l0,-24l24,0l0,24l-24,0Z" style="fill:none;"/><path d="M1,8l0,8c0,1.7 1.3,3 3,3l16,0c1.7,0 3,-1.3 3,-3l0,-8c0,-1.7 -1.3,-3 -3,-3l-16,0c-1.7,0 -3,1.3 -3,3Z" style="fill:#a3a5a7;fill-rule:nonzero;"/><path d="M4,7l0,10l14,0l0,-10l-14,0Z" style="fill:#0c0f12;"/><path d="M20,10l0,4l1,0l0,-4l-1,0Z" style="fill:#0c0f12;"/></g></svg>