<?xml version="1.0" encoding="utf-8"?>
<!-- Generator: Adobe Illustrator 22.1.0, SVG Export Plug-In . SVG Version: 6.00 Build 0)  -->
<svg version="1.1" id="Ebene_1" xmlns="http://www.w3.org/2000/svg" xmlns:xlink="http://www.w3.org/1999/xlink" x="0px" y="0px"
	 width="24px" height="24px" viewBox="0 0 24 24" enable-background="new 0 0 24 24" xml:space="preserve">
<path fill="#F0DC28" d="M8.7,13.1c-1.7,0-3.2-1.4-3.2-3.1c0-0.7,0.3-1.4,0.7-1.9c-0.4-0.6-0.7-1.3-0.7-2C5.5,4.4,6.9,3,8.7,3h0.4
	c0.5-1.2,1.6-2,2.9-2s2.4,0.8,2.9,2h0.4c1.7,0,3.2,1.4,3.2,3.1c0,0.7-0.3,1.4-0.7,1.9c0.4,0.5,0.7,1.2,0.7,1.9
	c0,1.7-1.4,3.1-3.2,3.1h-0.4c-0.5,1.1-1.6,2-2.9,2s-2.4-0.8-2.9-2L8.7,13.1"/>
<path fill="#B7A418" d="M12,13c0.6,0,1.1-0.5,1.1-1.1L13,10.8c-0.3,0.1-0.7,0.2-1,0.2s-0.7-0.1-1-0.2l-0.1,1.1
	C10.9,12.5,11.4,13,12,13"/>
<path fill="#B7A418" d="M15.3,11.1c0.6,0,1.2-0.5,1.2-1.1c0-0.4-0.3-0.8-0.7-1l-0.9-0.4c-0.1,0.7-0.5,1.4-1.1,1.8l0.8,0.6
	C14.9,11,15.1,11.1,15.3,11.1"/>
<path fill="#B7A418" d="M14.7,5.1l-0.8,0.6c0.6,0.4,0.9,1.1,1.1,1.8l0.9-0.4c0.4-0.2,0.7-0.6,0.7-1c0-0.6-0.5-1.1-1.2-1.1
	C15.1,4.9,14.9,5,14.7,5.1"/>
<path fill="#B7A418" d="M12,3c-0.6,0-1.1,0.5-1.1,1.1L11,5.2C11.3,5.1,11.6,5,12,5s0.7,0.1,1,0.2l0.1-1.1C13.1,3.5,12.6,3,12,3"/>
<path fill="#B7A418" d="M8.7,4.9C8,4.9,7.5,5.4,7.5,6.1c0,0.4,0.3,0.8,0.7,1l0.9,0.4c0.1-0.7,0.5-1.4,1.1-1.8L9.3,5.1
	C9.1,5,8.9,4.9,8.7,4.9"/>
<path fill="#B7A418" d="M8.2,8.9c-0.4,0.2-0.7,0.6-0.7,1C7.5,10.5,8,11,8.7,11c0.2,0,0.4-0.1,0.7-0.2l0.8-0.5
	c-0.6-0.4-1-1.1-1.1-1.8L8.2,8.9"/>
<path fill="#28A050" d="M12,22c-5,0-9-4-9-9C8,13,12,17,12,22c0-5,4-9,9-9C21,18,17,22,12,22"/>
<path fill="#5BBA7D" d="M14.4,19.6c1.9-0.7,3.4-2.2,4.1-4.1C16.7,16.1,15.1,17.7,14.4,19.6"/>
<path fill="#5BBA7D" d="M5.4,15.4c0.7,1.9,2.2,3.4,4.1,4.1C8.9,17.7,7.3,16.2,5.4,15.4z"/>
</svg>
