<?xml version="1.0" encoding="utf-8"?>
<!-- Generator: Adobe Illustrator 22.1.0, SVG Export Plug-In . SVG Version: 6.00 Build 0)  -->
<svg version="1.1" id="Ebene_1" xmlns="http://www.w3.org/2000/svg" xmlns:xlink="http://www.w3.org/1999/xlink" x="0px" y="0px"
	 width="24px" height="24px" viewBox="0 0 24 24" enable-background="new 0 0 24 24" xml:space="preserve">
<path fill="none" stroke="#2878F0" stroke-linecap="round" stroke-miterlimit="10" d="M8,5.1C9.2,4.4,10.5,4,12,4
	c1.5,0,2.8,0.4,4,1.1"/>
<path fill="none" stroke="#F03C28" stroke-linecap="round" stroke-miterlimit="10" d="M8,18.9c-2.4-1.4-4-4-4-6.9"/>
<path fill="none" stroke="#28A050" stroke-linecap="round" stroke-miterlimit="10" d="M20,12c0,3-1.6,5.6-4,6.9"/>
<path fill="#2878F0" d="M4,2C2.9,2,2,2.9,2,4s0.9,2,2,2s2-0.9,2-2S5.1,2,4,2 M4,7C2.7,7,0,7.7,0,9.1V10h8V9.1C8,7.7,5.3,7,4,7"/>
<path fill="#28A050" d="M20,2c-1.1,0-2,0.9-2,2s0.9,2,2,2s2-0.9,2-2S21.1,2,20,2 M20,7c-1.3,0-4,0.7-4,2.1V10h8V9.1
	C24,7.7,21.3,7,20,7"/>
<path fill="#F03C28" d="M12,15c-1.1,0-2,0.9-2,2s0.9,2,2,2s2-0.9,2-2S13.1,15,12,15 M12,20c-1.3,0-4,0.7-4,2.1V23h8v-0.9
	C16,20.7,13.3,20,12,20"/>
</svg>
