<?xml version="1.0" encoding="utf-8"?>
<!-- Generator: Adobe Illustrator 22.1.0, SVG Export Plug-In . SVG Version: 6.00 Build 0)  -->
<svg version="1.1" id="Ebene_1" xmlns="http://www.w3.org/2000/svg" xmlns:xlink="http://www.w3.org/1999/xlink" x="0px" y="0px"
	 width="24px" height="24px" viewBox="0 0 24 24" enable-background="new 0 0 24 24" xml:space="preserve">
<path fill="none" d="M0,0h24v24H0V0z"/>
<path fill="#5A9BF5" d="M20,5H4C2.9,5,2,5.9,2,7v10c0,1.1,0.9,2,2,2h16c1.1,0,2-0.9,2-2V7C22,5.9,21.1,5,20,5z"/>
<rect x="4" y="2" fill="#89BBF8" width="16" height="3"/>
<rect x="4" y="19" fill="#89BBF8" width="16" height="3"/>
<path fill="#FFFFFF" d="M12,7c-1.4,0-2.5,1.1-2.5,2.5S10.6,12,12,12s2.5-1.1,2.5-2.5S13.4,7,12,7z M12,10.5c-0.5,0-1-0.5-1-1
	s0.5-1,1-1s1,0.5,1,1S12.5,10.5,12,10.5z"/>
<path fill="#FFFFFF" d="M12,13c-1.7,0-5,0.9-5,3v1h10v-1C17,13.9,13.7,13,12,13z M8.8,15.5c0.6-0.5,2-1,3.2-1s2.6,0.5,3.2,1H8.8z"/>
</svg>
