<?xml version="1.0" encoding="utf-8"?>
<!-- Generator: Adobe Illustrator 22.1.0, SVG Export Plug-In . SVG Version: 6.00 Build 0)  -->
<svg version="1.1" id="Ebene_1" xmlns="http://www.w3.org/2000/svg" xmlns:xlink="http://www.w3.org/1999/xlink" x="0px" y="0px"
	 width="24px" height="24px" viewBox="0 0 24 24" enable-background="new 0 0 24 24" xml:space="preserve">
<path fill="#A3A5A7" d="M12,2C8.1,2,5,5.1,5,9c0,2.4,1.2,4.5,3,5.7V18c0,0.5,0.4,1,1,1h6c0.6,0,1-0.5,1-1v-3.3c1.8-1.3,3-3.4,3-5.7
	C19,5.1,15.9,2,12,2 M9,21c0,0.5,0.4,1,1,1h4c0.6,0,1-0.5,1-1v-2H9V21z"/>
<g>
	<path fill="#FFFFFF" d="M10.9,12.6c0-0.7,0.1-1.2,0.3-1.7c0.2-0.4,0.5-0.8,0.9-1.2c0.4-0.4,0.7-0.7,0.9-1c0.1-0.2,0.2-0.5,0.2-0.8
		c0-0.8-0.4-1.3-1.2-1.3c-0.4,0-0.7,0.1-0.9,0.3c-0.2,0.2-0.3,0.5-0.3,0.9H8.7c0-0.9,0.3-1.7,0.9-2.2C10.2,5.3,11,5,12,5
		c1,0,1.9,0.3,2.4,0.8C15,6.3,15.3,7,15.3,7.9c0,0.4-0.1,0.8-0.3,1.2c-0.2,0.4-0.5,0.8-1,1.2l-0.6,0.6c-0.4,0.4-0.6,0.8-0.6,1.3
		l0,0.5H10.9z M10.7,14.9c0-0.3,0.1-0.6,0.3-0.8c0.2-0.2,0.5-0.3,0.9-0.3c0.3,0,0.6,0.1,0.9,0.3c0.2,0.2,0.3,0.5,0.3,0.8
		c0,0.3-0.1,0.6-0.3,0.8c-0.2,0.2-0.5,0.3-0.9,0.3s-0.6-0.1-0.9-0.3C10.8,15.5,10.7,15.2,10.7,14.9z"/>
</g>
<rect x="9" y="19" fill="#66696C" width="6" height="1"/>
</svg>
