<?xml version="1.0" encoding="utf-8"?>
<!-- Generator: Adobe Illustrator 22.1.0, SVG Export Plug-In . SVG Version: 6.00 Build 0)  -->
<svg version="1.1" id="Ebene_2_1_" xmlns="http://www.w3.org/2000/svg" xmlns:xlink="http://www.w3.org/1999/xlink" x="0px" y="0px"
	 width="24px" height="24px" viewBox="0 0 24 24" enable-background="new 0 0 24 24" xml:space="preserve">
<path fill="#FAD26E" d="M12,21.8l8.8-14.7c-0.1-0.2-0.3-0.4-0.5-0.5l-7.6-4.2c-0.4-0.2-0.9-0.2-1.4,0L3.7,6.6
	C3.5,6.7,3.3,6.9,3.2,7.1L12,21.8z"/>
<path fill="#DCB469" d="M3.2,7.1C3.1,7.3,3,7.6,3,7.8v8.4c0,0.5,0.3,1,0.7,1.2l7.6,4.2c0.2,0.1,0.4,0.2,0.7,0.2V12L3.2,7.1z"/>
<path fill="#BE9664" d="M20.8,7.1C20.9,7.3,21,7.6,21,7.8v8.4c0,0.5-0.3,1-0.7,1.2l-7.6,4.2c-0.2,0.1-0.4,0.2-0.7,0.2V12L20.8,7.1z"
	/>
<polygon fill="#BE9664" points="6.4,5.1 15.2,10.2 18.3,8.5 9.4,3.4 "/>
<polygon fill="#DCB469" points="15.2,14.2 15.2,10.2 18.3,8.5 18.3,12.5 "/>
</svg>
