<?xml version="1.0" encoding="utf-8"?>
<!-- Generator: Adobe Illustrator 22.1.0, SVG Export Plug-In . SVG Version: 6.00 Build 0)  -->
<svg version="1.1" id="Ebene_1" xmlns="http://www.w3.org/2000/svg" xmlns:xlink="http://www.w3.org/1999/xlink" x="0px" y="0px"
	 width="24px" height="24px" viewBox="0 0 24 24" enable-background="new 0 0 24 24" xml:space="preserve">
<path fill="none" d="M0,0h24v24H0V0z"/>
<path fill="#A3A5A7" d="M18,24h-6.6c-1.1,0-2.1-0.5-2.9-1.2l-7.3-7.6l2.1-1.8c0.6-0.6,1.5-0.7,2.3-0.3L8,14.3V4.8
	c0-1.4,1.1-2.5,2.5-2.5c0.2,0,0.3,0,0.5,0C11.1,1,12.2,0,13.5,0c0.9,0,1.6,0.4,2.1,1.1c0.3-0.1,0.6-0.2,0.9-0.2
	C17.9,0.9,19,2,19,3.4v0.3c0.2,0,0.3,0,0.5,0c1.4,0,2.5,1.1,2.5,2.5V20C22,22.2,20.2,24,18,24z"/>
<path fill="#FFFFFF" d="M4.1,15.3l5.9,6.1c0.4,0.4,0.9,0.6,1.4,0.6H18c1.1,0,2-0.9,2-2V6.2c0-0.3-0.2-0.5-0.5-0.5S19,5.9,19,6.2V12
	h-2V3.4c0-0.3-0.2-0.5-0.5-0.5S16,3.1,16,3.4V12h-2V2.5C14,2.2,13.8,2,13.5,2S13,2.2,13,2.5V12h-2V4.8c0-0.3-0.2-0.5-0.5-0.5
	S10,4.5,10,4.8v12.9l-5.3-2.8C4.7,14.8,4.1,15.3,4.1,15.3z"/>
</svg>
