<?xml version="1.0" encoding="utf-8"?>
<!-- Generator: Adobe Illustrator 22.1.0, SVG Export Plug-In . SVG Version: 6.00 Build 0)  -->
<svg version="1.1" id="Ebene_1" xmlns="http://www.w3.org/2000/svg" xmlns:xlink="http://www.w3.org/1999/xlink" x="0px" y="0px"
	 width="24px" height="24px" viewBox="0 0 24 24" enable-background="new 0 0 24 24" xml:space="preserve">
<g>
	<polygon fill="#A3A5A7" points="6.4,10.1 3.3,13.3 2,12 2,16 6,16 4.7,14.7 7.9,11.6 	"/>
	<path fill="#A3A5A7" d="M18,8h4V6h-4V2h-2v4h-5.4L8.9,7.7L4.3,3L3,4.3L19.7,21l1.3-1.3l-4.7-4.7l1.7-1.7V8z M10.3,9.1L11.4,8H16
		v4.6l-1.1,1.1L10.3,9.1z"/>
	<polygon fill="#A3A5A7" points="12.4,16.1 9.3,19.3 8,18 8,22 12,22 10.7,20.7 13.9,17.6 	"/>
</g>
</svg>
