<?xml version="1.0" encoding="utf-8"?>
<!-- Generator: Adobe Illustrator 22.1.0, SVG Export Plug-In . SVG Version: 6.00 Build 0)  -->
<svg version="1.1" id="Ebene_1" xmlns="http://www.w3.org/2000/svg" xmlns:xlink="http://www.w3.org/1999/xlink" x="0px" y="0px"
	 width="24px" height="24px" viewBox="0 0 24 24" enable-background="new 0 0 24 24" xml:space="preserve">
<path fill="#A3A5A7" d="M19,21H5c-1.1,0-2-0.9-2-2v-3h18v3C21,20.1,20.1,21,19,21z"/>
<polygon fill="#C1C3C5" points="8,11 3,16 21,16 16,11 "/>
<polygon fill="#0C0F12" points="17,14 7,14 9,12 15,12 "/>
<path fill="#F0DC28" d="M12,3C9.2,3,7,5.2,7,8s2.2,5,5,5s5-2.2,5-5S14.8,3,12,3L12,3z"/>
<g>
	<g>
		<path fill="#0C0F12" d="M12.6,9.3c0-0.2,0-0.3-0.1-0.5c-0.1-0.1-0.3-0.2-0.5-0.3s-0.5-0.2-0.7-0.3S10.9,8,10.8,7.9
			c-0.1-0.1-0.3-0.3-0.3-0.5c-0.1-0.2-0.1-0.4-0.1-0.6c0-0.4,0.1-0.8,0.4-1c0.3-0.3,0.7-0.4,1.1-0.5V4.5h0.6v0.8
			c0.4,0.1,0.8,0.3,1.1,0.6S14,6.6,14,7.1h-1.2c0-0.3,0-0.5-0.1-0.6s-0.2-0.2-0.4-0.2S12,6.4,11.9,6.5c-0.1,0.1-0.1,0.2-0.1,0.4
			c0,0.2,0.1,0.3,0.2,0.4c0.1,0.1,0.3,0.2,0.5,0.3c0.2,0.1,0.4,0.2,0.6,0.3c0.2,0.1,0.4,0.2,0.5,0.4c0.1,0.1,0.3,0.3,0.3,0.5
			C14,9,14,9.2,14,9.4c0,0.4-0.1,0.8-0.4,1s-0.6,0.4-1.1,0.5v0.7h-0.6v-0.7c-0.5-0.1-0.9-0.2-1.2-0.5s-0.4-0.7-0.4-1.2h1.2
			c0,0.3,0.1,0.5,0.2,0.6S12,10,12.2,10s0.3,0,0.4-0.1S12.6,9.5,12.6,9.3z"/>
	</g>
</g>
</svg>
