<?xml version="1.0" encoding="utf-8"?>
<!-- Generator: Adobe Illustrator 22.1.0, SVG Export Plug-In . SVG Version: 6.00 Build 0)  -->
<svg version="1.1" id="Ebene_1" xmlns="http://www.w3.org/2000/svg" xmlns:xlink="http://www.w3.org/1999/xlink" x="0px" y="0px"
	 width="24px" height="24px" viewBox="0 0 24 24" enable-background="new 0 0 24 24" xml:space="preserve">
<path fill="#28A050" d="M12,2v4c3.3,0,6,2.7,6,6c0,1.1-0.3,2.1-0.8,3l3.5,2c0.9-1.5,1.3-3.2,1.3-5C22,6.5,17.5,2,12,2z"/>
<path fill="#2878F0" d="M12,18c-3.3,0-6-2.7-6-6s2.7-6,6-6V2C6.5,2,2,6.5,2,12s4.5,10,10,10V18z"/>
<path fill="#F03C28" d="M20.7,17l-3.5-2c-1,1.8-3,3-5.2,3v4C15.7,22,18.9,20,20.7,17z"/>
</svg>
