<?xml version="1.0" encoding="utf-8"?>
<!-- Generator: Adobe Illustrator 22.1.0, SVG Export Plug-In . SVG Version: 6.00 Build 0)  -->
<svg version="1.1" id="Ebene_1" xmlns="http://www.w3.org/2000/svg" xmlns:xlink="http://www.w3.org/1999/xlink" x="0px" y="0px"
	 width="24px" height="24px" viewBox="0 0 24 24" enable-background="new 0 0 24 24" xml:space="preserve">
<path fill="#89BBF8" d="M2,6v12c0,1.1,0.9,2,2,2h16c1.1,0,2-0.9,2-2V6L12,16L2,6z"/>
<path fill="#89BBF8" d="M20,4H4C2.9,4,2,4.9,2,6l10,10L22,6C22,4.9,21.1,4,20,4z"/>
	<g id="svg_3">
   		<path id="svg_4" d="m22,6l-10,10l-10,-10l0,1.4l9.3,9.3c0.2,0.2 0.5,0.3 0.7,0.3s0.5,-0.1 0.7,-0.3l9.3,-9.3l0,-1.4z" fill="#1A55C2"/>
  	</g>
	<circle stroke="null" id="svg_5" r="5.05661" cy="17.88677" cx="18.64149" fill="#28A050"/>
	<polygon stroke="null" id="svg_6" points="21.698093086481094,17.88677215576172 18.641486793756485,14.83016586303711 18.641486793756485,17.122621536254883 15.584881454706192,17.122621536254883 15.584881454706192,18.650924682617188 18.641486793756485,18.650924682617188 18.641486793756485,20.943378448486328 " fill="#FFFFFF"/>
</svg>
