<?xml version="1.0" encoding="utf-8"?>
<!-- Generator: Adobe Illustrator 22.1.0, SVG Export Plug-In . SVG Version: 6.00 Build 0)  -->
<svg version="1.1" id="Ebene_1" xmlns="http://www.w3.org/2000/svg" xmlns:xlink="http://www.w3.org/1999/xlink" x="0px" y="0px"
	 width="24px" height="24px" viewBox="0 0 24 24" enable-background="new 0 0 24 24" xml:space="preserve">
<path fill="#A3A5A7" d="M19,15h-1h-2H6c-2.2,0-4-1.8-4-4c0-2,1.5-3.8,3.6-4l1.1-0.1L7.1,6c1-1.8,2.8-3,4.9-3c2.6,0,4.9,1.9,5.4,4.4
	l0.3,1.5L19.2,9c1.6,0.1,2.8,1.4,2.8,3C22,13.7,20.7,15,19,15z"/>
<path fill="#FFFFFF" d="M14,15h-4v-4c0-1.1,0.9-2,2-2h0c1.1,0,2,0.9,2,2V15z"/>
<rect x="7" y="16" fill="#A3A5A7" width="10" height="1"/>
<rect x="5" y="18" fill="#A3A5A7" width="14" height="1"/>
<rect x="3" y="20" fill="#A3A5A7" width="18" height="1"/>
</svg>
