<?xml version="1.0" encoding="utf-8"?>
<!-- Generator: Adobe Illustrator 22.1.0, SVG Export Plug-In . SVG Version: 6.00 Build 0)  -->
<svg version="1.1" id="Ebene_1" xmlns="http://www.w3.org/2000/svg" xmlns:xlink="http://www.w3.org/1999/xlink" x="0px" y="0px"
	 width="24px" height="24px" viewBox="0 0 24 24" enable-background="new 0 0 24 24" xml:space="preserve">
<path fill="#1A7736" d="M14,2H6C4.9,2,4,2.9,4,4v16c0,1.1,0.9,2,2,2h12c1.1,0,2-0.9,2-2V8L14,2z"/>
<polyline fill="#28A050" points="14,2 14,8 20,8 "/>
<polyline fill="#FFFFFF" points="15.8,19 14,19 12,15.6 10,19 8.2,19 11.1,14.5 8.2,10 10,10 12,13.4 14,10 15.8,10 12.9,14.5 
	15.8,19 "/>
</svg>
