<?xml version="1.0" encoding="utf-8"?>
<!-- Generator: Adobe Illustrator 22.1.0, SVG Export Plug-In . SVG Version: 6.00 Build 0)  -->
<svg version="1.1" id="Ebene_1" xmlns="http://www.w3.org/2000/svg" xmlns:xlink="http://www.w3.org/1999/xlink" x="0px" y="0px"
	 width="24px" height="24px" viewBox="0 0 24 24" enable-background="new 0 0 24 24" xml:space="preserve">
<path fill="#5B9CF5" d="M20,4H4C2.9,4,2,4.9,2,6v3c0,1.1,0.9,2,2,2h16c1.1,0,2-0.9,2-2V6C22,4.9,21.1,4,20,4L20,4z"/>
<path fill="#5B9CF5" d="M20,13H4c-1.1,0-2,0.9-2,2v3c0,1.1,0.9,2,2,2h16c1.1,0,2-0.9,2-2v-3C22,13.9,21.1,13,20,13L20,13z"/>
<polyline fill="#FFFFFF" points="20,6 20,9 4,9 4,6 20,6 "/>
<polyline fill="#FFFFFF" points="20,15 20,18 4,18 4,15 20,15 "/>
</svg>
