<?xml version="1.0" encoding="utf-8"?>
<!-- Generator: Adobe Illustrator 22.1.0, SVG Export Plug-In . SVG Version: 6.00 Build 0)  -->
<svg version="1.1" id="Ebene_1" xmlns="http://www.w3.org/2000/svg" xmlns:xlink="http://www.w3.org/1999/xlink" x="0px" y="0px"
	 width="24px" height="24px" viewBox="0 0 24 24" enable-background="new 0 0 24 24" xml:space="preserve">
<g>
	<path fill="#BE9664" d="M20,4v16c0,1.1-0.9,2-2,2H6c-1.1,0-2-0.9-2-2V4c0-1.1,0.9-2,2-2h12C19.1,2,20,2.9,20,4z"/>
	<rect x="6" y="13" fill="#FAD26E" width="12" height="7"/>
	<rect x="6" y="4" fill="#FAD26E" width="12" height="7"/>
</g>
<polygon fill="#0C0F12" points="14,17 10,17 10,15 11,15 11,16 13,16 13,15 14,15 "/>
<polygon fill="#0C0F12" points="13,6 13,7 11,7 11,6 10,6 10,8 14,8 14,6 "/>
</svg>
