<?xml version="1.0" encoding="utf-8"?>
<!-- Generator: Adobe Illustrator 22.1.0, SVG Export Plug-In . SVG Version: 6.00 Build 0)  -->
<svg version="1.1" id="Ebene_1" xmlns="http://www.w3.org/2000/svg" xmlns:xlink="http://www.w3.org/1999/xlink" x="0px" y="0px"
	 width="24px" height="24px" viewBox="0 0 24 24" enable-background="new 0 0 24 24" xml:space="preserve">
<path fill="#A3A5A7" d="M12,2c5.5,0,10,4.5,10,10s-4.5,10-10,10S2,17.5,2,12S6.5,2,12,2 M12,4c-1.4,0-2.5,1.1-2.5,2.5S10.6,9,12,9
	s2.5-1.1,2.5-2.5S13.4,4,12,4 M4.4,9.5C4,10.8,4.7,12.3,6,12.7s2.7-0.3,3.1-1.6C9.5,9.8,8.8,8.4,7.5,8C6.2,7.5,4.8,8.2,4.4,9.5
	 M19.6,9.5c-0.4-1.3-1.8-2-3.2-1.6c-1.3,0.4-2,1.8-1.6,3.1s1.8,2,3.1,1.6C19.3,12.3,20,10.8,19.6,9.5 M7.3,18.5
	c1.1,0.8,2.7,0.6,3.5-0.5s0.6-2.7-0.6-3.5c-1.1-0.8-2.7-0.6-3.5,0.6C5.9,16.1,6.2,17.7,7.3,18.5 M16.7,18.5c1.1-0.8,1.4-2.4,0.6-3.5
	s-2.4-1.4-3.5-0.6c-1.1,0.8-1.4,2.4-0.6,3.5S15.6,19.3,16.7,18.5"/>
<circle fill="#0C0F12" cx="12" cy="12" r="1"/>
</svg>
