<?xml version="1.0" encoding="utf-8"?>
<!-- Generator: Adobe Illustrator 22.1.0, SVG Export Plug-In . SVG Version: 6.00 Build 0)  -->
<svg version="1.1" id="Ebene_1" xmlns="http://www.w3.org/2000/svg" xmlns:xlink="http://www.w3.org/1999/xlink" x="0px" y="0px"
	 width="24px" height="24px" viewBox="0 0 24 24" enable-background="new 0 0 24 24" xml:space="preserve">
<path fill="#F07828" d="M21,3h-2v2h-2V3H7v2H5V3H3v18h2v-2h2v2h10v-2h2v2h2V3z M17,9V7h2v2H17z M5,9V7h2v2H5z M17,13v-2h2v2H17z
	 M5,13v-2h2v2H5z M17,17v-2h2v2H17z M5,17v-2h2v2H5z"/>
<rect x="9" y="5" fill="#F7B681" width="6" height="14"/>
</svg>
