<?xml version="1.0" encoding="utf-8"?>
<!-- Generator: Adobe Illustrator 22.1.0, SVG Export Plug-In . SVG Version: 6.00 Build 0)  -->
<svg version="1.1" id="Ebene_1" xmlns="http://www.w3.org/2000/svg" xmlns:xlink="http://www.w3.org/1999/xlink" x="0px" y="0px"
	 width="24px" height="24px" viewBox="0 0 24 24" enable-background="new 0 0 24 24" xml:space="preserve">
<path fill="#A3A5A7" d="M4,13h6c0.6,0,1,0.4,1,1v6c0,0.6-0.4,1-1,1H4c-0.6,0-1-0.4-1-1v-6C3,13.4,3.4,13,4,13z"/>
<path fill="#A3A5A7" d="M14,3h6c0.6,0,1,0.4,1,1v6c0,0.6-0.4,1-1,1h-6c-0.6,0-1-0.4-1-1V4C13,3.4,13.4,3,14,3z"/>
<path fill="#A3A5A7" d="M4,3h6c0.6,0,1,0.4,1,1v6c0,0.6-0.4,1-1,1H4c-0.6,0-1-0.4-1-1V4C3,3.4,3.4,3,4,3z"/>
<path fill="#A3A5A7" d="M14,13h6c0.6,0,1,0.4,1,1v6c0,0.6-0.4,1-1,1h-6c-0.6,0-1-0.4-1-1v-6C13,13.4,13.4,13,14,13z"/>
</svg>
