<?xml version="1.0" encoding="utf-8"?>
<!-- Generator: Adobe Illustrator 22.1.0, SVG Export Plug-In . SVG Version: 6.00 Build 0)  -->
<svg version="1.1" id="Ebene_1" xmlns="http://www.w3.org/2000/svg" xmlns:xlink="http://www.w3.org/1999/xlink" x="0px" y="0px"
	 width="24px" height="24px" viewBox="0 0 24 24" enable-background="new 0 0 24 24" xml:space="preserve">
<path fill="#B4B4B4" d="M6,12.5h2.5v6H11V19c0,0.6,0.4,1,1,1h2c0.6,0,1-0.4,1-1v-0.5h1.5v3H19V22c0,0.6,0.4,1,1,1h2c0.6,0,1-0.4,1-1
	v-2c0-0.6-0.4-1-1-1h-2c-0.6,0-1,0.4-1,1v0.5h-1.5v-2V18v-2.5H19V16c0,0.6,0.4,1,1,1h2c0.6,0,1-0.4,1-1v-2c0-0.6-0.4-1-1-1h-2
	c-0.6,0-1,0.4-1,1v0.5h-2.5v3H15V17c0-0.6-0.4-1-1-1h-2c-0.6,0-1,0.4-1,1v0.5H9.5V12v-0.5v-5H11V7c0,0.6,0.4,1,1,1h2
	c0.6,0,1-0.4,1-1V6.5h1.5v3H19V10c0,0.6,0.4,1,1,1h2c0.6,0,1-0.4,1-1V8c0-0.6-0.4-1-1-1h-2c-0.6,0-1,0.4-1,1v0.5h-1.5V6V5.5v-2H19V4
	c0,0.6,0.4,1,1,1h2c0.6,0,1-0.4,1-1V2c0-0.6-0.4-1-1-1h-2c-0.6,0-1,0.4-1,1v0.5h-2.5v3H15V5c0-0.6-0.4-1-1-1h-2c-0.6,0-1,0.4-1,1
	v0.5H8.5v6H6V12.5z"/>
<g>
	<path fill="#2878F0" d="M5,11v2H3v-2H5 M6,9H2c-0.6,0-1,0.4-1,1v4c0,0.6,0.4,1,1,1h4c0.6,0,1-0.4,1-1v-4C7,9.4,6.6,9,6,9L6,9z"/>
</g>
</svg>
