<?xml version="1.0" encoding="utf-8"?>
<!-- Generator: Adobe Illustrator 22.1.0, SVG Export Plug-In . SVG Version: 6.00 Build 0)  -->
<svg version="1.1" id="Ebene_1" xmlns="http://www.w3.org/2000/svg" xmlns:xlink="http://www.w3.org/1999/xlink" x="0px" y="0px"
	 width="24px" height="24px" viewBox="0 0 24 24" enable-background="new 0 0 24 24" xml:space="preserve">
<g>
	<path fill="#2878F0" d="M22,12.2c0-0.8-0.1-1.4-0.2-2h-9.6v3.7h5.7c-0.1,0.9-0.7,2.3-2.1,3.3v0.1l3,2.3H19
		C20.9,17.9,22,15.3,22,12.2"/>
	<path fill="#28A050" d="M12.2,22c2.8,0,5.1-0.9,6.8-2.4l-3.2-2.4c-0.9,0.6-2,1-3.5,1c-2.7,0-5.1-1.8-5.9-4.2L6,13.9l-2.5,1.8
		l-0.4,0.8C4.7,19.7,8.2,22,12.2,22"/>
	<path fill="#FBBC05" d="M6.4,14C6.2,13.4,6,12.7,6,12s0-1.3,0.3-2L6,8.7L3.2,7.5H3.1C2.4,8.9,2,10.4,2,12s0.4,3.1,1.1,4.5L6.4,14"
		/>
	<path fill="#F03C28" d="M12.2,5.9c1.9,0,3.2,0.8,3.9,1.5L19,4.6C17.3,3,14.9,2,12.2,2c-4,0-7.5,2.2-9.1,5.5L6.3,10
		C7.2,7.6,9.5,5.9,12.2,5.9"/>
</g>
</svg>
