<?xml version="1.0" encoding="utf-8"?>
<!-- Generator: Adobe Illustrator 22.1.0, SVG Export Plug-In . SVG Version: 6.00 Build 0)  -->
<svg version="1.1" id="Ebene_1" xmlns="http://www.w3.org/2000/svg" xmlns:xlink="http://www.w3.org/1999/xlink" x="0px" y="0px"
	 width="24px" height="24px" viewBox="0 0 24 24" enable-background="new 0 0 24 24" xml:space="preserve">
<path fill="#2878F0" d="M4,2h16c1.1,0,2,0.9,2,2v16c0,1.1-0.9,2-2,2H4c-1.1,0-2-0.9-2-2V4C2,2.9,2.9,2,4,2z"/>
<path fill="#89BBF8" d="M10,4v4h4V4H10 M16,4v4h4V4H16 M16,10v4h4v-4H16 M16,16v4h4v-4H16 M14,20v-4h-4v4H14 M8,20v-4H4v4H8 M8,14
	v-4H4v4H8 M8,8V4H4v4H8 M10,14h4v-4h-4V14"/>
</svg>
