<?xml version="1.0" encoding="utf-8"?>
<!-- Generator: Adobe Illustrator 22.1.0, SVG Export Plug-In . SVG Version: 6.00 Build 0)  -->
<svg version="1.1" id="Ebene_1" xmlns="http://www.w3.org/2000/svg" xmlns:xlink="http://www.w3.org/1999/xlink" x="0px" y="0px"
	 width="24px" height="24px" viewBox="0 0 24 24" enable-background="new 0 0 24 24" xml:space="preserve">
<path fill="#F03C28" d="M17,7h-4v2h4c1.6,0,3,1.4,3,3s-1.4,3-3,3h-4v2h4c2.8,0,5-2.2,5-5S19.8,7,17,7z"/>
<path fill="#2878F0" d="M11,15H7c-1.7,0-3-1.4-3-3s1.3-3,3-3h4V7H7c-2.8,0-5,2.2-5,5s2.2,5,5,5h4V15z"/>
<rect x="8" y="11" fill="#F03C28" width="8" height="2"/>
</svg>
