<?xml version="1.0" encoding="utf-8"?>
<!-- Generator: Adobe Illustrator 22.1.0, SVG Export Plug-In . SVG Version: 6.00 Build 0)  -->
<svg version="1.1" id="Ebene_1" xmlns="http://www.w3.org/2000/svg" xmlns:xlink="http://www.w3.org/1999/xlink" x="0px" y="0px"
	 width="24px" height="24px" viewBox="0 0 24 24" enable-background="new 0 0 24 24" xml:space="preserve">
<path fill="none" d="M0,0h24v24H0V0z"/>
<path fill="#A3A5A7" d="M20,18c1.1,0,2-0.9,2-2V5c0-1.1-0.9-2-2-2H4C2.9,3,2,3.9,2,5v11c0,1.1,0.9,2,2,2H0c0,1.1,0.9,2,2,2h20
	c1.1,0,2-0.9,2-2H20z"/>
<rect x="4" y="5" fill="#0C0F12" width="16" height="11"/>
<circle fill="#0C0F12" cx="12" cy="18" r="1"/>
</svg>
