<?xml version="1.0" encoding="utf-8"?>
<!-- Generator: Adobe Illustrator 22.1.0, SVG Export Plug-In . SVG Version: 6.00 Build 0)  -->
<svg version="1.1" id="Ebene_1" xmlns="http://www.w3.org/2000/svg" xmlns:xlink="http://www.w3.org/1999/xlink" x="0px" y="0px"
	 width="24px" height="24px" viewBox="0 0 24 24" enable-background="new 0 0 24 24" xml:space="preserve">
<path fill="none" d="M0,0h24v24H0V0z"/>
<g>
	<path fill="#C1C3C5" d="M3,8v12c0,1.1,0.9,2,2,2h14c1.1,0,2-0.9,2-2V8H3z"/>
	<path fill="#F03C28" d="M19,4h-1V2h-2v2H8V2H6v2H5C3.9,4,3,4.9,3,6v2h2h14h2V6C21,4.9,20.1,4,19,4z"/>
	<rect x="11" y="18" fill="#0C0F12" width="2" height="2"/>
	<rect x="11" y="10" fill="#0C0F12" width="2" height="6"/>
</g>
<rect x="6" y="4" fill="#F89789" width="2" height="2"/>
<rect x="16" y="4" fill="#F89789" width="2" height="2"/>
</svg>
