<?xml version="1.0" encoding="utf-8"?>
<!-- Generator: Adobe Illustrator 22.1.0, SVG Export Plug-In . SVG Version: 6.00 Build 0)  -->
<svg version="1.1" id="Ebene_1" xmlns="http://www.w3.org/2000/svg" xmlns:xlink="http://www.w3.org/1999/xlink" x="0px" y="0px"
	 width="24px" height="24px" viewBox="0 0 24 24" enable-background="new 0 0 24 24" xml:space="preserve">
<path fill="#F0DC28" d="M18,8H6c-1.1,0-2,0.9-2,2v10c0,1.1,0.9,2,2,2h12c1.1,0,2-0.9,2-2V10C20,8.9,19.1,8,18,8z"/>
<circle fill="#7F700C" cx="12" cy="15" r="2"/>
<path fill="#B7A418" d="M12,1C9.2,1,7,3.2,7,6v2h2V6c0-1.7,1.3-3,3-3s3,1.3,3,3v2h2V6C17,3.2,14.8,1,12,1z"/>
<rect x="15" y="7" fill="#7F700C" width="2" height="1"/>
<rect x="7" y="7" fill="#7F700C" width="2" height="1"/>
</svg>
