<?xml version="1.0" encoding="UTF-8" standalone="no"?>
<!-- Generator: Adobe Illustrator 22.1.0, SVG Export Plug-In . SVG Version: 6.00 Build 0)  -->

<svg
   version="1.1"
   id="Ebene_1"
   x="0px"
   y="0px"
   width="24px"
   height="24px"
   viewBox="0 0 24 24"
   enable-background="new 0 0 24 24"
   xml:space="preserve"
   sodipodi:docname="lock-gray.svg"
   inkscape:version="1.1.2 (0a00cf5339, 2022-02-04, custom)"
   xmlns:inkscape="http://www.inkscape.org/namespaces/inkscape"
   xmlns:sodipodi="http://sodipodi.sourceforge.net/DTD/sodipodi-0.dtd"
   xmlns="http://www.w3.org/2000/svg"
   xmlns:svg="http://www.w3.org/2000/svg"><defs
   id="defs37" /><sodipodi:namedview
   id="namedview35"
   pagecolor="#ffffff"
   bordercolor="#666666"
   borderopacity="1.0"
   inkscape:pageshadow="2"
   inkscape:pageopacity="0.0"
   inkscape:pagecheckerboard="0"
   showgrid="false"
   inkscape:zoom="33.666667"
   inkscape:cx="5.970297"
   inkscape:cy="14.376237"
   inkscape:window-width="1920"
   inkscape:window-height="1017"
   inkscape:window-x="-8"
   inkscape:window-y="-8"
   inkscape:window-maximized="1"
   inkscape:current-layer="Ebene_1" />
<path
   fill="#F0DC28"
   d="M18,8H6c-1.1,0-2,0.9-2,2v10c0,1.1,0.9,2,2,2h12c1.1,0,2-0.9,2-2V10C20,8.9,19.1,8,18,8z"
   id="path24"
   style="fill:#606060;fill-opacity:1" />
<circle
   fill="#7F700C"
   cx="12"
   cy="15"
   r="2"
   id="circle26"
   style="fill:#ffffff;fill-opacity:1" />
<path
   fill="#B7A418"
   d="M12,1C9.2,1,7,3.2,7,6v2h2V6c0-1.7,1.3-3,3-3s3,1.3,3,3v2h2V6C17,3.2,14.8,1,12,1z"
   id="path28"
   style="fill:#606060;fill-opacity:1" />
<rect
   x="15"
   y="7"
   fill="#7F700C"
   width="2"
   height="1"
   id="rect30"
   style="fill:#606060;fill-opacity:1" />
<rect
   x="7"
   y="7"
   fill="#7F700C"
   width="2"
   height="1"
   id="rect32"
   style="fill:#606060;fill-opacity:1" />
</svg>
