<?xml version="1.0" encoding="utf-8"?>
<!-- Generator: Adobe Illustrator 22.1.0, SVG Export Plug-In . SVG Version: 6.00 Build 0)  -->
<svg version="1.1" id="Ebene_1" xmlns="http://www.w3.org/2000/svg" xmlns:xlink="http://www.w3.org/1999/xlink" x="0px" y="0px"
	 width="24px" height="24px" viewBox="0 0 24 24" enable-background="new 0 0 24 24" xml:space="preserve">
<polyline fill="#F03C28" points="14.1,15.6 16.7,13 7,13 7,11 16.7,11 14.1,8.4 15.5,7 20.5,12 15.5,17 14.1,15.6 "/>
<path fill="#A3A5A7" d="M19,3c1.1,0,2,0.9,2,2v3h-2V5H5v14h14v-3h2v3c0,1.1-0.9,2-2,2H5c-1.1,0-2-0.9-2-2V5c0-1.1,0.9-2,2-2H19z"/>
</svg>
