<?xml version="1.0" encoding="utf-8"?>
<!-- Generator: Adobe Illustrator 22.1.0, SVG Export Plug-In . SVG Version: 6.00 Build 0)  -->
<svg version="1.1" id="Ebene_1" xmlns="http://www.w3.org/2000/svg" xmlns:xlink="http://www.w3.org/1999/xlink" x="0px" y="0px"
	 width="24px" height="24px" viewBox="0 0 24 24" enable-background="new 0 0 24 24" xml:space="preserve">
<path fill="none" d="M0,0h24v24H0V0z"/>
<path fill="#B4B4B4" d="M15.4,4h-1.6V2H9.9v2H8.4C7.6,4,7,4.6,7,5.4v15.2C7,21.4,7.6,22,8.4,22h7.3c0.8,0,1.4-0.6,1.4-1.4V5.4
	C16.8,4.6,16.2,4,15.4,4z"/>
<path fill="#28A050" d="M7,12v8.7C7,21.5,7.6,22,8.3,22h7.4c0.8,0,1.3-0.6,1.3-1.3V12H7z"/>
</svg>
