<?xml version="1.0" encoding="utf-8"?>
<!-- Generator: Adobe Illustrator 22.1.0, SVG Export Plug-In . SVG Version: 6.00 Build 0)  -->
<svg version="1.1" id="Ebene_1" xmlns="http://www.w3.org/2000/svg" xmlns:xlink="http://www.w3.org/1999/xlink" x="0px" y="0px"
	 width="24px" height="24px" viewBox="0 0 24 24" enable-background="new 0 0 24 24" xml:space="preserve">
<path fill="none" d="M0,0h24v24H0V0z"/>
<path fill="#A3A5A7" d="M23.7,16.7c-3-2.9-7.2-4.7-11.7-4.7s-8.7,1.8-11.7,4.7C0.1,16.8,0,17.1,0,17.4s0.1,0.5,0.3,0.7l2.5,2.5
	c0.2,0.2,0.4,0.3,0.7,0.3s0.5-0.1,0.7-0.3c0.8-0.7,1.7-1.4,2.7-1.9c0.3-0.2,0.6-0.5,0.6-0.9v-3.1c1.5-0.5,3-0.7,4.6-0.7
	s3.1,0.3,4.6,0.7v3.1c0,0.4,0.2,0.7,0.6,0.9c1,0.5,1.9,1.1,2.7,1.9c0.2,0.2,0.4,0.3,0.7,0.3c0.3,0,0.5-0.1,0.7-0.3l2.5-2.5
	c0.2-0.2,0.3-0.4,0.3-0.7C24,17.1,23.9,16.8,23.7,16.7z M5.4,17.2c-0.7,0.4-1.3,0.8-1.9,1.3l-1.1-1.1c0.9-0.8,1.9-1.4,2.9-1.9
	L5.4,17.2L5.4,17.2z M20.5,18.5c-0.6-0.5-1.2-0.9-1.9-1.3l0,0v-1.7c1.1,0.5,2,1.1,3,1.9L20.5,18.5z"/>
<polygon fill="#F03C28" points="17,9 19,9 19,3 13,3 13,5 15.6,5 12.1,8.5 6.4,2.9 5,4.3 12.1,11.4 17,6.4 "/>
</svg>
