<?xml version="1.0" encoding="utf-8"?>
<!-- Generator: Adobe Illustrator 22.1.0, SVG Export Plug-In . SVG Version: 6.00 Build 0)  -->
<svg version="1.1" id="Ebene_1" xmlns="http://www.w3.org/2000/svg" xmlns:xlink="http://www.w3.org/1999/xlink" x="0px" y="0px"
	 width="24px" height="24px" viewBox="0 0 24 24" enable-background="new 0 0 24 24" xml:space="preserve">
<path fill="none" d="M0,0h24v24H0V0z"/>
<g id="GREY_MID">
	<g>
		<g>
			<rect x="2" y="31.6" fill="#A3A5A7" width="24" height="2"/>
		</g>
	</g>
</g>
<rect x="3" y="4" fill="#0C0F12" width="18" height="13"/>
<rect x="17" y="10" fill="#0C0F12" width="6" height="9"/>
<path fill="#A3A5A7" d="M23,9h-1V5c0-1.1-0.9-2-2-2H4C2.9,3,2,3.9,2,5v11H0v1c0,1.1,0.9,2,2,2h14v1c0,0.5,0.5,1,1,1h6
	c0.5,0,1-0.5,1-1V10C24,9.5,23.5,9,23,9z M16,10v6H4V5h16v4h-3C16.5,9,16,9.4,16,10z M22,18h-4v-7h4V18z"/>
<rect x="20" y="8" fill="#66696C" width="2" height="1"/>
<rect x="15" y="16" fill="#66696C" width="1" height="3"/>
<rect x="19" y="19" fill="#0C0F12" width="2" height="1"/>
</svg>
