<?xml version="1.0" encoding="utf-8"?>
<!-- Generator: Adobe Illustrator 22.1.0, SVG Export Plug-In . SVG Version: 6.00 Build 0)  -->
<svg version="1.1" id="Ebene_1" xmlns="http://www.w3.org/2000/svg" xmlns:xlink="http://www.w3.org/1999/xlink" x="0px" y="0px"
	 width="24px" height="24px" viewBox="0 0 24 24" enable-background="new 0 0 24 24" xml:space="preserve">
<path fill="#66696C" d="M21,20H5c-1.1,0-2-0.9-2-2V8c0-1.1,0.9-2,2-2h16c1.1,0,2,0.9,2,2v10C23,19.1,22.1,20,21,20z"/>
<path fill="#A3A5A7" d="M19,18H3c-1.1,0-2-0.9-2-2V6c0-1.1,0.9-2,2-2h16c1.1,0,2,0.9,2,2v10C21,17.1,20.1,18,19,18z"/>
<path fill="#FFFFFF" d="M13,6c-2.8,0-5,2.2-5,5s2.2,5,5,5s5-2.2,5-5S15.8,6,13,6"/>
<circle fill="#A3A5A7" cx="13" cy="11" r="3"/>
<path fill="#FFFFFF" d="M6,8H4C3.4,8,3,7.6,3,7l0,0c0-0.6,0.4-1,1-1h2c0.6,0,1,0.4,1,1l0,0C7,7.6,6.6,8,6,8z"/>
</svg>
