<?xml version="1.0" encoding="utf-8"?>
<!-- Generator: Adobe Illustrator 22.1.0, SVG Export Plug-In . SVG Version: 6.00 Build 0)  -->
<svg version="1.1" id="Ebene_1" xmlns="http://www.w3.org/2000/svg" xmlns:xlink="http://www.w3.org/1999/xlink" x="0px" y="0px"
	 width="24px" height="24px" viewBox="0 0 24 24" enable-background="new 0 0 24 24" xml:space="preserve">
<g id="g2191" transform="matrix(2.0645171,0,0,2.0645171,-422.69056,-168.66908)">
	<g>
		<g id="g3027_8_" transform="translate(0.33268332,-3.146593)">
			<path fill="#A3A5A7" d="M215.3,96c-1.7-1.1-2.4-1.8-2.3-2.4c0.1-0.4,0.4-0.5,0.7-0.6c-0.2-0.1-0.3-0.2-0.5-0.2
				c-0.5-0.2-0.9-0.4-1.3-0.8c-0.4-0.5-0.7-1.2-0.9-1.8c-0.2-0.5-0.4-0.9-0.6-1.3c-1-1.6-2.3-2.2-4.1-2.8c-0.5-0.2-0.7-0.2-0.8-0.2
				c0,0.2,0.3,0.6,0.5,1c0.2,0.3,0.4,0.7,0.6,1c0.5,1,0.5,1.3,0.4,2c0,0.2-0.1,0.5-0.1,0.8s0,1,0.2,1.4c0.1-0.5,0.2-0.8,0.5-1.4
				c0-0.1,0.1-0.1,0.2-0.1c0.1,0,0.2,0,0.2,0.1c0.4,0.4,0.7,1,0.9,1.5c0.3,0.5,0.5,1.1,0.9,1.5c0.1,0.1,0.1,0.3,0,0.4
				s-0.3,0.1-0.4,0c-0.4-0.5-0.7-1-1-1.6c-0.2-0.4-0.4-0.8-0.6-1.1c-0.2,0.3-0.2,0.6-0.3,0.9c0,0.2-0.2,0.4-0.4,0.4s-0.4,0-0.5-0.2
				c-0.4-0.6-0.4-1.8-0.4-1.8c0-0.4,0-0.6,0.1-0.8c0.1-0.6,0.1-0.8-0.3-1.7c-0.2-0.3-0.4-0.7-0.5-1c-0.4-0.8-0.7-1.3-0.5-1.6
				c0.2-0.3,0.6-0.2,1.5,0.1c1.5,0.5,3.2,1.2,4.4,3c0.3,0.4,0.5,0.9,0.6,1.4c0.2,0.6,0.5,1.2,0.8,1.6c0.2,0.3,0.7,0.4,1.1,0.6
				c0.3,0.1,0.7,0.3,1,0.5c0.1,0.1,0.2,0.3,0.2,0.4c0,0.2-0.2,0.3-0.3,0.3c-0.5,0.1-0.7,0.2-0.7,0.2s-0.1,0.5,2,1.8l-0.1,0.3
				L215.3,96z M214.1,93.2L214.1,93.2L214.1,93.2z"/>
		</g>
	</g>
</g>
<path fill="#A3A5A7" d="M4.9,4l0.7,1.6C6,5.4,6.2,4.9,6,4.4C5.9,4,5.4,3.8,4.9,4z"/>
</svg>
