<?xml version="1.0" encoding="utf-8"?>
<!-- Generator: Adobe Illustrator 22.1.0, SVG Export Plug-In . SVG Version: 6.00 Build 0)  -->
<svg version="1.1" id="Ebene_1" xmlns="http://www.w3.org/2000/svg" xmlns:xlink="http://www.w3.org/1999/xlink" x="0px" y="0px"
	 width="24px" height="24px" viewBox="0 0 24 24" enable-background="new 0 0 24 24" xml:space="preserve">
<path fill="#A3A5A7" d="M20.3,4.7L18.7,3L17,4.7L15.3,3l-1.7,1.7L12,3l-1.7,1.7L8.7,3L7,4.7L5.3,3L3.7,4.7L2,3v16c0,1.1,0.9,2,2,2
	h16c1.1,0,2-0.9,2-2V3L20.3,4.7z"/>
<rect x="4" y="13" fill="#FFFFFF" width="7" height="6"/>
<rect x="13" y="17" width="7" height="2"/>
<rect x="13" y="13" width="7" height="2"/>
<rect x="4" y="8" width="16" height="3"/>
</svg>
