<?xml version="1.0" encoding="utf-8"?>
<!-- Generator: Adobe Illustrator 22.1.0, SVG Export Plug-In . SVG Version: 6.00 Build 0)  -->
<svg version="1.1" id="Ebene_1" xmlns="http://www.w3.org/2000/svg" xmlns:xlink="http://www.w3.org/1999/xlink" x="0px" y="0px"
	 width="24px" height="24px" viewBox="0 0 24 24" enable-background="new 0 0 24 24" xml:space="preserve">
<path fill="#2878F0" d="M7,17h2l-3,3l-3-3h2V4h2V17z"/>
<g>
	<path fill="#5B9CF5" d="M18.2,11h-1.7V5.7l-1.6,0.5V5L18,3.9h0.2V11z"/>
	<path fill="#5B9CF5" d="M20,20h-5v-1.1l2.3-2.4c0.6-0.6,0.8-1.2,0.8-1.5c0-0.3-0.1-0.5-0.2-0.7s-0.3-0.2-0.6-0.2
		c-0.3,0-0.5,0.1-0.6,0.3s-0.2,0.5-0.2,0.8h-1.7c0-0.4,0.1-0.8,0.3-1.2s0.5-0.7,0.9-0.9s0.8-0.3,1.3-0.3c0.8,0,1.4,0.2,1.8,0.5
		s0.6,0.9,0.6,1.5c0,0.3-0.1,0.6-0.2,0.8s-0.3,0.5-0.5,0.8s-0.6,0.7-1.1,1.2l-0.9,1.1H20V20z"/>
</g>
</svg>
