<?xml version="1.0" encoding="utf-8"?>
<!-- Generator: Adobe Illustrator 22.1.0, SVG Export Plug-In . SVG Version: 6.00 Build 0)  -->
<svg version="1.1" id="Ebene_1" xmlns="http://www.w3.org/2000/svg" xmlns:xlink="http://www.w3.org/1999/xlink" x="0px" y="0px"
	 width="24px" height="24px" viewBox="0 0 24 24" enable-background="new 0 0 24 24" xml:space="preserve">
<path fill="none" d="M0,0h24v24H0V0z"/>
<path fill="#A3A5A7" d="M7.7,12l8.7-5l0.2-2.2l-10.4,6L7.7,12z M17,17.5L7.6,12l-1.2,1.3l10.2,6.1L17,17.5z"/>
<path fill="#8C5BC9" d="M9,16H3c-0.6,0-1-0.4-1-1V9c0-0.6,0.4-1,1-1h6c0.6,0,1,0.4,1,1v6C10,15.6,9.6,16,9,16z"/>
<path fill="#FFFFFF" d="M8,14.8l-2-1.2l-2,1.2l0.5-2.2l-1.7-1.5l2.3-0.3L6,8.8l0.9,2.1L9.1,11l-1.7,1.5L8,14.8z"/>
<path fill="#8C5BC9" d="M19,4v2h-2V4H19 M20,2h-4c-0.6,0-1,0.4-1,1v4c0,0.6,0.4,1,1,1h4c0.6,0,1-0.4,1-1V3C21,2.4,20.6,2,20,2L20,2z
	"/>
<path fill="#8C5BC9" d="M19,18v2h-2v-2H19 M20,16h-4c-0.6,0-1,0.4-1,1v4c0,0.6,0.4,1,1,1h4c0.6,0,1-0.4,1-1v-4
	C21,16.4,20.6,16,20,16L20,16z"/>
</svg>
