<?xml version="1.0" encoding="utf-8"?>
<!-- Generator: Adobe Illustrator 22.1.0, SVG Export Plug-In . SVG Version: 6.00 Build 0)  -->
<svg version="1.1" id="Ebene_1" xmlns="http://www.w3.org/2000/svg" xmlns:xlink="http://www.w3.org/1999/xlink" x="0px" y="0px"
	 width="12px" height="12px" viewBox="0 0 12 12" enable-background="new 0 0 12 12" xml:space="preserve">
<path fill="#F0DC28" d="M11.7,6.7l-5,5c-0.4,0.4-1,0.4-1.4,0l-5-5c-0.4-0.4-0.4-1,0-1.4l5-5c0.4-0.4,1-0.4,1.4,0l5,5
	C12.1,5.7,12.1,6.3,11.7,6.7z"/>
<path d="M6,8L6,8c0.6,0,1,0.4,1,1v0c0,0.6-0.4,1-1,1h0c-0.6,0-1-0.4-1-1v0C5,8.4,5.4,8,6,8z"/>
<path d="M6,2L6,2c0.6,0,1,0.4,1,1v3c0,0.6-0.4,1-1,1h0C5.4,7,5,6.6,5,6V3C5,2.4,5.4,2,6,2z"/>
</svg>
