<?xml version="1.0" encoding="utf-8"?>
<!-- Generator: Adobe Illustrator 22.1.0, SVG Export Plug-In . SVG Version: 6.00 Build 0)  -->
<svg version="1.1" id="Ebene_1" xmlns="http://www.w3.org/2000/svg" xmlns:xlink="http://www.w3.org/1999/xlink" x="0px" y="0px"
	 width="24px" height="24px" viewBox="0 0 24 24" enable-background="new 0 0 24 24" xml:space="preserve">
<path fill="#F07828" d="M12,6C8.4,6,4.5,5.1,2,4.4C1.5,4.2,1,4.6,1,5.1l0,13.8c0,0.5,0.5,0.9,1,0.8C4.5,18.9,8.4,18,12,18
	s7.5,0.9,10,1.6c0.5,0.2,1-0.2,1-0.8V5.1c0-0.5-0.5-0.9-1-0.8C19.5,5.1,15.6,6,12,6z"/>
<path fill="#FFFFFF" d="M11,14.5l-2.5-3L5,16h14l-4.5-6L11,14.5z"/>
<circle fill="#FFFFFF" cx="6.5" cy="8.5" r="1.5"/>
</svg>
