<?xml version="1.0" encoding="utf-8"?>
<!-- Generator: Adobe Illustrator 22.1.0, SVG Export Plug-In . SVG Version: 6.00 Build 0)  -->
<svg version="1.1" id="Ebene_1" xmlns="http://www.w3.org/2000/svg" xmlns:xlink="http://www.w3.org/1999/xlink" x="0px" y="0px"
	 width="24px" height="24px" viewBox="0 0 24 24" enable-background="new 0 0 24 24" xml:space="preserve">
<path fill="#F03C28" d="M17,1.8V3h-2.4c-1.4,0-2.5,1.1-2.5,2.5l0,5.5H9v-0.7V9.2C9,8.5,8.5,8,7.8,8H3.2C2.5,8,2,8.5,2,9.2v4.7
	C2,14.5,2.5,15,3.2,15h4.7C8.5,15,9,14.5,9,13.8v-1.2V12h3l0,5.5c0,0.7,0.3,1.3,0.7,1.8c0.5,0.5,1.1,0.7,1.8,0.7H17v1.2
	c0,0.5,0.4,0.8,0.8,0.8h3.3c0.5,0,0.8-0.4,0.8-0.8v-3.3c0-0.5-0.4-0.8-0.8-0.8h-3.3c-0.5,0-0.8,0.4-0.8,0.8V19h-2.5
	c-0.4,0-0.8-0.2-1.1-0.4c-0.3-0.3-0.4-0.6-0.4-1.1l0-5.5h4v1.2c0,0.5,0.4,0.8,0.8,0.8h3.3c0.5,0,0.8-0.4,0.8-0.8V9.8
	C22,9.4,21.6,9,21.2,9h-3.3C17.4,9,17,9.4,17,9.8V11h-4l0-5.5c0-0.8,0.7-1.5,1.5-1.5H17v1.2C17,5.6,17.4,6,17.8,6h3.3
	C21.6,6,22,5.6,22,5.2V1.8C22,1.4,21.6,1,21.2,1h-3.3C17.4,1,17,1.4,17,1.8z M7,13H4v-3h3v0.5v2V13z"/>
</svg>
