<?xml version="1.0" encoding="utf-8"?>
<!-- Generator: Adobe Illustrator 22.1.0, SVG Export Plug-In . SVG Version: 6.00 Build 0)  -->
<svg version="1.1" id="Ebene_1" xmlns="http://www.w3.org/2000/svg" xmlns:xlink="http://www.w3.org/1999/xlink" x="0px" y="0px"
	 width="24px" height="24px" viewBox="0 0 24 24" enable-background="new 0 0 24 24" xml:space="preserve">
<path fill="none" d="M0,0h24v24H0V0z"/>
<path fill="#C2271A" d="M14,2H6C4.9,2,4,2.9,4,4v16c0,1.1,0.9,2,2,2h12c1.1,0,2-0.9,2-2V8L14,2z"/>
<polyline fill="#F03C28" points="14,2 14,8 20,8 "/>
<path fill="#FFFFFF" d="M10.6,10.9c0,0-0.3,1.8-2.1,4.7c0,0-3.5,1.8-2.7,3.2c0.7,1.1,2.3,0,3.7-2.7c0,0,1.8-0.6,4.2-0.8
	c0,0,3.9,1.7,4.4-0.1c0.5-1.9-3.1-1.4-3.7-1.3c0,0-2-1.3-2.5-3.2c0,0,1.1-3.9-0.6-3.9C9.7,6.9,10.3,9.9,10.6,10.9 M11.4,12
	c0,0,0.5,1.2,1.9,2.5c0,0-2.3,0.5-3.4,0.9C9.9,15.3,10.9,13.6,11.4,12 M15.4,14.7c0.6-0.2,2.3,0.2,2.3,0.5
	C17.6,15.5,15.4,14.7,15.4,14.7 M8.3,16.5c-0.5,1.2-1.4,2-1.7,2S7.3,16.9,8.3,16.5 M11.4,9.6c0-0.1-0.4-2.2,0-2.1
	C12,7.5,11.4,9.5,11.4,9.6z"/>
</svg>
