<?xml version="1.0" encoding="utf-8"?>
<!-- Generator: Adobe Illustrator 22.1.0, SVG Export Plug-In . SVG Version: 6.00 Build 0)  -->
<svg version="1.1" id="Ebene_1" xmlns="http://www.w3.org/2000/svg" xmlns:xlink="http://www.w3.org/1999/xlink" x="0px" y="0px"
	 width="24px" height="24px" viewBox="0 0 24 24" enable-background="new 0 0 24 24" xml:space="preserve">
<path fill="none" d="M0,0h24v24H0V0z"/>
<path fill="#A3A5A7" d="M12,3h-1V2c0-0.6-0.4-1-1-1H6C5.4,1,5,1.5,5,2v1H4C2.9,3,2,3.9,2,5v15c0,1.1,0.9,2,2,2h8c1.1,0,2-0.9,2-2V5
	C14,3.9,13.1,3,12,3z"/>
<rect x="8" y="5" fill="#F07828" width="14" height="14"/>
<rect x="10" y="15" fill="#FFFFFF" width="2" height="2"/>
<rect x="10" y="7" fill="#FFFFFF" width="2" height="2"/>
<rect x="14" y="15" fill="#FFFFFF" width="2" height="2"/>
<rect x="14" y="7" fill="#FFFFFF" width="2" height="2"/>
<rect x="18" y="15" fill="#FFFFFF" width="2" height="2"/>
<rect x="18" y="7" fill="#FFFFFF" width="2" height="2"/>
</svg>
