<?xml version="1.0" encoding="utf-8"?>
<!-- Generator: Adobe Illustrator 22.1.0, SVG Export Plug-In . SVG Version: 6.00 Build 0)  -->
<svg version="1.1" id="Ebene_1" xmlns="http://www.w3.org/2000/svg" xmlns:xlink="http://www.w3.org/1999/xlink" x="0px" y="0px"
	 width="24px" height="24px" viewBox="0 0 24 24" enable-background="new 0 0 24 24" xml:space="preserve">
<g>
	<ellipse fill="#A3A5A7" cx="12" cy="12" rx="12" ry="7"/>
	<path fill="#0C0F12" d="M7.2,9.5h-3l-1.3,6.7h1.6l0.3-1.8h1.5c1.4,0.1,3-1,3-3C9.2,10.3,8.5,9.6,7.2,9.5z M6.1,13.2h-1l0.4-2.5h1.1
		c0.6,0,1,0.2,1,0.7C7.5,12.9,6.8,13.1,6.1,13.2z"/>
	<path fill="#0C0F12" d="M9.4,14.5l1.3-6.7h1.6L12,9.5h1.5c1.3,0.1,1.8,0.7,1.6,1.6l-0.6,3.4h-1.6l0.6-3c0.1-0.4,0.1-0.7-0.5-0.7
		h-1.2L11,14.5H9.4L9.4,14.5z"/>
	<path fill="#0C0F12" d="M19.2,9.5h-3l-1.3,6.7h1.6l0.3-1.8h1.5c1.4,0.1,3-1,3-3C21.2,10.3,20.5,9.6,19.2,9.5z M18.1,13.2h-1
		l0.4-2.5h1.1c0.6,0,1,0.2,1,0.7C19.5,12.9,18.8,13.1,18.1,13.2z"/>
</g>
</svg>
