<?xml version="1.0" encoding="utf-8"?>
<!-- Generator: Adobe Illustrator 22.1.0, SVG Export Plug-In . SVG Version: 6.00 Build 0)  -->
<svg version="1.1" id="Ebene_1" xmlns="http://www.w3.org/2000/svg" xmlns:xlink="http://www.w3.org/1999/xlink" x="0px" y="0px"
	 width="24px" height="24px" viewBox="0 0 24 24" enable-background="new 0 0 24 24" xml:space="preserve">
<path fill="#5B9CF5" d="M6,4C4.9,4,4,4.9,4,6v16l4-4h12c1.1,0,2-0.9,2-2V6c0-1.1-0.9-2-2-2H6z"/>
<path fill="#2878F0" d="M4,2C2.9,2,2,2.9,2,4v16l4-4h12c1.1,0,2-0.9,2-2V4c0-1.1-0.9-2-2-2H4z"/>
<g>
	<path fill="#FFFFFF" d="M10,10.9c0-0.6,0.1-1.1,0.2-1.5c0.2-0.4,0.4-0.7,0.8-1.1c0.4-0.4,0.7-0.7,0.8-0.9C12,7.2,12.1,7,12.1,6.7
		c0-0.8-0.3-1.1-1-1.1c-0.3,0-0.6,0.1-0.8,0.3C10,6.1,9.9,6.4,9.9,6.7H8c0-0.9,0.3-1.5,0.8-2C9.3,4.2,10.1,4,11,4
		c0.9,0,1.7,0.2,2.2,0.7C13.8,5.1,14,5.8,14,6.6c0,0.4-0.1,0.7-0.3,1.1c-0.2,0.3-0.5,0.7-0.9,1.1l-0.5,0.5c-0.3,0.3-0.5,0.7-0.6,1.2
		l0,0.4H10z M9.8,13c0-0.3,0.1-0.5,0.3-0.7c0.2-0.2,0.5-0.3,0.8-0.3c0.3,0,0.6,0.1,0.8,0.3c0.2,0.2,0.3,0.4,0.3,0.7
		c0,0.3-0.1,0.5-0.3,0.7c-0.2,0.2-0.5,0.3-0.8,0.3c-0.3,0-0.6-0.1-0.8-0.3C9.9,13.5,9.8,13.3,9.8,13z"/>
</g>
</svg>
