<?xml version="1.0" encoding="utf-8"?>
<!-- Generator: Adobe Illustrator 22.1.0, SVG Export Plug-In . SVG Version: 6.00 Build 0)  -->
<svg version="1.1" id="Ebene_1" xmlns="http://www.w3.org/2000/svg" xmlns:xlink="http://www.w3.org/1999/xlink" x="0px" y="0px"
	 width="24px" height="24px" viewBox="0 0 24 24" enable-background="new 0 0 24 24" xml:space="preserve">
<path fill="#A3A5A7" d="M12,8c1.7,0,3-1.3,3-3s-1.3-3-3-3S9,3.3,9,5S10.3,8,12,8"/>
<path fill="#A3A5A7" d="M7,13v-1H5c-1.1,0-2,0.9-2,2v1c0,1.1,0.9,2,2,2h2v-1H5v-1h2v-1H5v-1H7z"/>
<path fill="#A3A5A7" d="M17,13v-1h2c1.1,0,2,0.9,2,2v1c0,1.1-0.9,2-2,2h-2v-1h2v-1h-2v-1h2v-1H17z"/>
<path fill="#A3A5A7" d="M15,10H9c-1.1,0-2,0.9-2,2v8c0,1.1,0.9,2,2,2h6c1.1,0,2-0.9,2-2v-8C17,10.9,16.1,10,15,10z M13,21h-2v-1h2
	V21z M16,18c0,0.6-0.4,1-1,1H9c-0.6,0-1-0.4-1-1v-6c0-0.6,0.4-1,1-1h6c0.6,0,1,0.4,1,1V18z"/>
</svg>
