<?xml version="1.0" encoding="utf-8"?>
<!-- Generator: Adobe Illustrator 22.1.0, SVG Export Plug-In . SVG Version: 6.00 Build 0)  -->
<svg version="1.1" id="Ebene_1" xmlns="http://www.w3.org/2000/svg" xmlns:xlink="http://www.w3.org/1999/xlink" x="0px" y="0px"
	 width="24px" height="24px" viewBox="0 0 24 24" enable-background="new 0 0 24 24" xml:space="preserve">
<g>
	<path fill="#F03C28" d="M20,17.3V6.7c0.6-0.3,1-1,1-1.7c0-1.1-0.9-2-2-2c-0.7,0-1.4,0.4-1.7,1H6.7C6.4,3.4,5.7,3,5,3
		C3.9,3,3,3.9,3,5c0,0.7,0.4,1.4,1,1.7v10.6c-0.6,0.3-1,1-1,1.7c0,1.1,0.9,2,2,2c0.7,0,1.4-0.4,1.7-1h10.6c0.3,0.6,1,1,1.7,1
		c1.1,0,2-0.9,2-2C21,18.3,20.6,17.6,20,17.3z M17.3,18H6.7c-0.2-0.3-0.4-0.5-0.7-0.7V6.7C6.3,6.5,6.5,6.3,6.7,6h10.6
		c0.2,0.3,0.4,0.5,0.7,0.7v10.6C17.7,17.5,17.5,17.7,17.3,18z"/>
</g>
</svg>
