<?xml version="1.0" encoding="utf-8"?>
<!-- Generator: Adobe Illustrator 22.1.0, SVG Export Plug-In . SVG Version: 6.00 Build 0)  -->
<svg version="1.1" id="Ebene_1" xmlns="http://www.w3.org/2000/svg" xmlns:xlink="http://www.w3.org/1999/xlink" x="0px" y="0px"
	 width="24px" height="24px" viewBox="0 0 24 24" enable-background="new 0 0 24 24" xml:space="preserve">
<path fill="#A3A5A7" d="M12,2C6.5,2,2,6.5,2,12s4.5,10,10,10s10-4.5,10-10S17.5,2,12,2 M12,20c-4.4,0-8-3.6-8-8s3.6-8,8-8s8,3.6,8,8
	S16.4,20,12,20 M12.3,13.3h-1.4v3.2H9V7.7h3.3c1,0,1.8,0.2,2.4,0.7s0.8,1.1,0.8,2c0,0.6-0.1,1.1-0.4,1.5c-0.3,0.4-0.6,0.7-1.2,1
	l1.9,3.6v0.1h-1.9L12.3,13.3 M10.8,11.8h1.5c0.4,0,0.8-0.1,1-0.4c0.3-0.2,0.4-0.6,0.4-1s-0.1-0.7-0.3-1c-0.2-0.2-0.6-0.3-1.1-0.3
	h-1.4L10.8,11.8L10.8,11.8z"/>
</svg>
