<?xml version="1.0" encoding="utf-8"?>
<!-- Generator: Adobe Illustrator 22.1.0, SVG Export Plug-In . SVG Version: 6.00 Build 0)  -->
<svg version="1.1" id="Ebene_1" xmlns="http://www.w3.org/2000/svg" xmlns:xlink="http://www.w3.org/1999/xlink" x="0px" y="0px"
	 width="24px" height="24px" viewBox="0 0 24 24" enable-background="new 0 0 24 24" xml:space="preserve">
<path fill="#C1C3C5" d="M18,6H6v13c0,1.1,0.9,2,2,2h8c1.1,0,2-0.9,2-2V6z"/>
<polyline fill="#858789" points="11,8 11,19 9,19 9,8 11,8 "/>
<polyline fill="#858789" points="15,8 15,19 13,19 13,8 15,8 "/>
<polygon fill="#A3A5A7" points="14.5,3 9.5,3 8.5,4 5,4 5,6 19,6 19,4 15.5,4 "/>
<circle fill="#F03C28" cx="18" cy="18" r="6"/>
<polygon fill="#FFFFFF" points="20.1,14.5 18,16.6 15.9,14.5 14.5,15.9 16.6,18 14.5,20.1 15.9,21.5 18,19.4 20.1,21.5 21.5,20.1 
	19.4,18 21.5,15.9 "/>
<rect x="6" y="6" fill="#66696C" width="12" height="1"/>
</svg>
