<?xml version="1.0" encoding="utf-8"?>
<!-- Generator: Adobe Illustrator 22.1.0, SVG Export Plug-In . SVG Version: 6.00 Build 0)  -->
<svg version="1.1" id="Ebene_1" xmlns="http://www.w3.org/2000/svg" xmlns:xlink="http://www.w3.org/1999/xlink" x="0px" y="0px"
	 width="24px" height="24px" viewBox="0 0 24 24" enable-background="new 0 0 24 24" xml:space="preserve">
<path fill="#28A050" d="M19.6,20l-6,0v-2l5.9,0l-2.7-4.6l-1.8,1l1.1-4.1l4.1,1.1l-1.7,0.9l2.7,4.6C22.1,18.3,21.1,20,19.6,20z
	 M7.5,10.6l4.1-1.1l-1.7-1l2-3.5l2.6,4.5l1.7-1L13.7,4c-0.3-0.7-1-1-1.7-1c-0.7,0-1.4,0.3-1.7,1L8.2,7.5L6.4,6.5L7.5,10.6z M9.1,18
	l-4.6,0c0,0,0,0,0-0.1l3.2-5.6l-1.7-1L2.7,17c-0.7,1.3,0.2,3,1.8,3h4.6v2l3-3l-3-3V18z"/>
</svg>
