<?xml version="1.0" encoding="utf-8"?>
<!-- Generator: Adobe Illustrator 22.1.0, SVG Export Plug-In . SVG Version: 6.00 Build 0)  -->
<svg version="1.1" id="Ebene_1" xmlns="http://www.w3.org/2000/svg" xmlns:xlink="http://www.w3.org/1999/xlink" x="0px" y="0px"
	 width="24px" height="24px" viewBox="0 0 24 24" enable-background="new 0 0 24 24" xml:space="preserve">
<path fill="#2878F0" d="M12,2c1.1,0,2,0.9,2,2c0,0.7-0.4,1.4-1,1.7V7h1c3.9,0,7,3.1,7,7l0,0h1c0.6,0,1,0.4,1,1v3c0,0.6-0.4,1-1,1h-1
	v1c0,1.1-0.9,2-2,2H5c-1.1,0-2-0.9-2-2v-1H2c-0.6,0-1-0.4-1-1v-3c0-0.6,0.4-1,1-1h1c0-3.9,3.1-7,7-7h1V5.7c-0.6-0.3-1-1-1-1.7
	C10,2.9,10.9,2,12,2"/>
<path fill="#FFFFFF" d="M7.5,13C6.1,13,5,14.1,5,15.5S6.1,18,7.5,18s2.5-1.1,2.5-2.5S8.9,13,7.5,13"/>
<circle fill="#FFFFFF" cx="16.5" cy="15.5" r="2.5"/>
<rect x="11" y="5.7" fill="#89BBF8" width="2" height="1.3"/>
<rect x="2" y="14" fill="#89BBF8" width="1" height="5"/>
<rect x="21" y="14" fill="#89BBF8" width="1" height="5"/>
</svg>
