<?xml version="1.0" encoding="utf-8"?>
<!-- Generator: Adobe Illustrator 22.1.0, SVG Export Plug-In . SVG Version: 6.00 Build 0)  -->
<svg version="1.1" id="Ebene_1" xmlns="http://www.w3.org/2000/svg" xmlns:xlink="http://www.w3.org/1999/xlink" x="0px" y="0px"
	 width="24px" height="24px" viewBox="0 0 24 24" enable-background="new 0 0 24 24" xml:space="preserve">
<path fill="#A3A5A7" d="M23,16V8c0-1.7-1.3-3-3-3H4C2.3,5,1,6.3,1,8v8c0,1.7,1.3,3,3,3h16C21.7,19,23,17.7,23,16z M3,14v-4h1v4H3z"
	/>
<rect x="6" y="7" fill="#2878F0" width="14" height="10"/>
<path fill="#FFFFFF" d="M12,10c1.3,0,2.4,0.8,2.8,2H13l2.5,2.5L18,12h-2.1c-0.4-1.7-2-3-3.9-3c-2.2,0-4,1.8-4,4h1
	C9,11.3,10.3,10,12,10z"/>
</svg>
