<?xml version="1.0" encoding="utf-8"?>
<!-- Generator: Adobe Illustrator 22.1.0, SVG Export Plug-In . SVG Version: 6.00 Build 0)  -->
<svg version="1.1" id="Ebene_1" xmlns="http://www.w3.org/2000/svg" xmlns:xlink="http://www.w3.org/1999/xlink" x="0px" y="0px"
	 width="24px" height="24px" viewBox="0 0 24 24" enable-background="new 0 0 24 24" xml:space="preserve">
<path fill="none" d="M24,24H0V0h24V24z"/>
<path fill="#A3A5A7" d="M4.8,20.7l5.9-5.9c1.4,1,3.2,1.5,5.2,1.1c2.7-0.6,4.8-2.9,5.1-5.6c0.4-4.1-2.9-7.5-7-7.2
	c-1.3,0.1-2.6,0.7-3.7,1.6c-3,2.5-2.8,6.3-1.1,8.6l-5.9,5.9c-0.4,0.4-0.4,1,0,1.4l0.1,0.1C3.8,21.1,4.4,21.1,4.8,20.7z M10,9.5
	C10,7,12,5,14.5,5S19,7,19,9.5S17,14,14.5,14S10,12,10,9.5z"/>
</svg>
