<?xml version="1.0" encoding="utf-8"?>
<!-- Generator: Adobe Illustrator 22.1.0, SVG Export Plug-In . SVG Version: 6.00 Build 0)  -->
<svg version="1.1" id="Ebene_1" xmlns="http://www.w3.org/2000/svg" xmlns:xlink="http://www.w3.org/1999/xlink" x="0px" y="0px"
	 width="24px" height="24px" viewBox="0 0 24 24" enable-background="new 0 0 24 24" xml:space="preserve">
<path fill="#B4B4B4" d="M18,16.1c-0.8,0-1.4,0.3-2,0.8l-7.1-4.2C9,12.5,9,12.2,9,12s0-0.5-0.1-0.7L16,7.2C16.5,7.7,17.2,8,18,8
	c1.7,0,3-1.3,3-3s-1.3-3-3-3s-3,1.3-3,3c0,0.2,0,0.5,0.1,0.7L8,9.8C7.5,9.3,6.8,9,6,9c-1.7,0-3,1.3-3,3s1.3,3,3,3
	c0.8,0,1.5-0.3,2-0.8l7.1,4.2C15,18.6,15,18.8,15,19c0,1.6,1.3,2.9,2.9,2.9s2.9-1.3,2.9-2.9S19.6,16.1,18,16.1z M18,4
	c0.5,0,1,0.4,1,1s-0.5,1-1,1s-1-0.4-1-1S17.5,4,18,4z M6,13c-0.6,0-1-0.4-1-1s0.4-1,1-1s1,0.4,1,1S6.6,13,6,13z M18,20
	c-0.5,0-1-0.5-1-1s0.5-1,1-1s1,0.5,1,1S18.5,20,18,20z"/>
</svg>
