<?xml version="1.0" encoding="utf-8"?>
<!-- Generator: Adobe Illustrator 22.1.0, SVG Export Plug-In . SVG Version: 6.00 Build 0)  -->
<svg version="1.1" id="Ebene_1" xmlns="http://www.w3.org/2000/svg" xmlns:xlink="http://www.w3.org/1999/xlink" x="0px" y="0px"
	 width="24px" height="24px" viewBox="0 0 24 24" enable-background="new 0 0 24 24" xml:space="preserve">
<rect x="2" y="7" fill="#2878F0" width="19" height="4"/>
<path fill="#89BBF8" d="M6,6H2V2h4V6z M11,2H7v4h4V2z M16,2h-4v4h4V2z M21,2h-4v4h4V2z M6,12H2v4h4V12z M11,12H7v4h4V12z M16,12h-4
	v4h4V12z M21,12h-4v4h4V12z M6,17H2v4h4V17z M11,17H7v4h4V17z M16,17h-4v4h4V17z M21,17h-4v4h4V17z"/>
</svg>
