<?xml version="1.0" encoding="utf-8"?>
<!-- Generator: Adobe Illustrator 22.1.0, SVG Export Plug-In . SVG Version: 6.00 Build 0)  -->
<svg version="1.1" id="Ebene_1" xmlns="http://www.w3.org/2000/svg" xmlns:xlink="http://www.w3.org/1999/xlink" x="0px" y="0px"
	 width="24px" height="24px" viewBox="0 0 24 24" enable-background="new 0 0 24 24" xml:space="preserve">
<path fill="#F03C28" d="M6,15c-2,0-6,1-6,3v1h12v-1C12,16,8,15,6,15"/>
<circle fill="#F03C28" cx="5.5" cy="10.5" r="2.5"/>
<circle fill="#28A050" cx="18.5" cy="10.5" r="2.5"/>
<path fill="#28A050" d="M18,15c-2,0-6,1-6,3v1h12v-1C24,16,20,15,18,15"/>
<path fill="#2878F0" d="M12,5c-1.9,0-3.5,1.6-3.5,3.5S10.1,12,12,12s3.5-1.6,3.5-3.5S13.9,5,12,5 M12,14c-2.3,0-7,1.2-7,3.5V19h14
	v-1.5C19,15.2,14.3,14,12,14"/>
</svg>
