<?xml version="1.0" encoding="utf-8"?>
<!-- Generator: Adobe Illustrator 22.1.0, SVG Export Plug-In . SVG Version: 6.00 Build 0)  -->
<svg version="1.1" id="Ebene_1" xmlns="http://www.w3.org/2000/svg" xmlns:xlink="http://www.w3.org/1999/xlink" x="0px" y="0px"
	 width="24px" height="24px" viewBox="0 0 24 24" enable-background="new 0 0 24 24" xml:space="preserve">
<g>
	<path fill="#28A050" d="M9.8,10.5C8.7,9.9,8,8.8,8,7.5C8,5.6,9.6,4,11.5,4S15,5.6,15,7.5c0,1.1-0.6,2.1-1.4,2.8l1.2,1.6
		c1.3-1,2.2-2.6,2.2-4.4c0-3-2.5-5.5-5.5-5.5S6,4.5,6,7.5c0,2.4,1.6,4.5,3.8,5.2V10.5z"/>
	<path fill="#A3A5A7" d="M11.5,6.5c0.6,0,1,0.4,1,1v2.9v0.9l0.9,0.4l4.2,2c0.6,0.3,0.9,0.9,0.8,1.6L17.5,20c0,0.1-0.1,0.5-0.5,0.5
		h-6.4c-0.2,0-0.4-0.1-0.5-0.3l-3.9-3.9L6.5,16c0.1-0.1,0.2-0.2,0.3-0.2H7l1.6,0.4l1.8,0.4v-1.9V7.5C10.5,6.9,10.9,6.5,11.5,6.5
		 M11.5,5C10.1,5,9,6.1,9,7.5v7.2l-1.8-0.4H7.1c-0.1,0-0.2,0-0.3,0c-0.5,0-1,0.2-1.4,0.6L4,16.3l5,5c0.4,0.4,1,0.7,1.6,0.7H17
		c1,0,1.8-0.7,2-1.7l0.8-4.7c0.2-1.3-0.4-2.6-1.6-3.2l-4.2-2V7.5C14,6.1,12.9,5,11.5,5L11.5,5z"/>
</g>
</svg>
