<?xml version="1.0" encoding="utf-8"?>
<!-- Generator: Adobe Illustrator 22.1.0, SVG Export Plug-In . SVG Version: 6.00 Build 0)  -->
<svg version="1.1" id="Ebene_1" xmlns="http://www.w3.org/2000/svg" xmlns:xlink="http://www.w3.org/1999/xlink" x="0px" y="0px"
	 width="24px" height="24px" viewBox="0 0 24 24" enable-background="new 0 0 24 24" xml:space="preserve">
<path fill="#A3A5A7" d="M18,7h-4V4c0-1.1-0.9-2-2-2H6C4.9,2,4,2.9,4,4v11c0,1.1,0.9,2,2,2h4v3c0,1.1,0.9,2,2,2h6c1.1,0,2-0.9,2-2V9
	C20,7.9,19.1,7,18,7z"/>
<path fill="#0C0F12" d="M10,9v6H6V4h6v3h0C10.9,7,10,7.9,10,9z"/>
<rect x="14" y="20" fill="#0C0F12" width="2" height="1"/>
<rect x="12" y="9" fill="#0C0F12" width="6" height="10"/>
<rect x="12" y="6" fill="#66696C" width="2" height="1"/>
<rect x="8.5" y="15.5" transform="matrix(-1.836970e-16 1 -1 -1.836970e-16 25.4979 6.5015)" fill="#66696C" width="2" height="1"/>
</svg>
