<?xml version="1.0" encoding="utf-8"?>
<!-- Generator: Adobe Illustrator 22.1.0, SVG Export Plug-In . SVG Version: 6.00 Build 0)  -->
<svg version="1.1" id="Ebene_1" xmlns="http://www.w3.org/2000/svg" xmlns:xlink="http://www.w3.org/1999/xlink" x="0px" y="0px"
	 width="24px" height="24px" viewBox="0 0 24 24" enable-background="new 0 0 24 24" xml:space="preserve">
<path fill="#A3A5A7" d="M12,2C6.5,2,2,6.5,2,12s4.5,10,10,10s10-4.5,10-10S17.5,2,12,2z M12,20c-4.4,0-8-3.6-8-8s3.6-8,8-8
	s8,3.6,8,8S16.4,20,12,20z"/>
<g>
	<path fill="#A3A5A7" d="M11,13.8c0-0.7,0.1-1.2,0.2-1.5c0.1-0.4,0.4-0.7,0.7-1c0.3-0.3,0.6-0.5,0.8-0.8C12.9,10.3,13,10,13,9.8
		c0-0.7-0.3-1-0.9-1c-0.3,0-0.5,0.1-0.7,0.3c-0.2,0.2-0.3,0.5-0.3,0.8H8.9c0-0.9,0.3-1.6,0.8-2.1C10.3,7.2,11.1,7,12.1,7
		c1,0,1.8,0.2,2.3,0.7s0.8,1.1,0.8,2c0,0.4-0.1,0.7-0.2,1c-0.1,0.3-0.4,0.6-0.7,0.9l-0.8,0.7c-0.2,0.2-0.3,0.4-0.4,0.6
		C13,13.2,13,13.5,13,13.8H11z"/>
</g>
<rect x="11" y="15" fill="#A3A5A7" width="2" height="2"/>
</svg>
