<?xml version="1.0" encoding="utf-8"?>
<!-- Generator: Adobe Illustrator 22.1.0, SVG Export Plug-In . SVG Version: 6.00 Build 0)  -->
<svg version="1.1" id="Ebene_1" xmlns="http://www.w3.org/2000/svg" xmlns:xlink="http://www.w3.org/1999/xlink" x="0px" y="0px"
	 width="24px" height="24px" viewBox="0 0 24 24" enable-background="new 0 0 24 24" xml:space="preserve">
<path fill="#28A050" d="M4,2C2.9,2,2,2.9,2,4v18l4-4h14c1.1,0,2-0.9,2-2V4c0-1.1-0.9-2-2-2H4z"/>
<path fill="#FFFFFF" d="M15,6H7C6.4,6,6,6.4,6,7v6c0,0.6,0.4,1,1,1h8c0.6,0,1-0.4,1-1v-1l2,2V6l-2,2V7C16,6.5,15.6,6,15,6z"/>
</svg>
