<?xml version="1.0" encoding="utf-8"?>
<!-- Generator: Adobe Illustrator 22.1.0, SVG Export Plug-In . SVG Version: 6.00 Build 0)  -->
<svg version="1.1" id="Ebene_1" xmlns="http://www.w3.org/2000/svg" xmlns:xlink="http://www.w3.org/1999/xlink" x="0px" y="0px"
	 width="24px" height="24px" viewBox="0 0 24 24" enable-background="new 0 0 24 24" xml:space="preserve">
<path fill="none" d="M0,0h24v24H0V0z"/>
<path fill="#1A55C2" d="M14,2H6C4.9,2,4,2.9,4,4v16c0,1.1,0.9,2,2,2h12c1.1,0,2-0.9,2-2V8L14,2z"/>
<polyline fill="#FFFFFF" points="15.3,19 13.9,19 12.1,12.2 10.3,19 8.9,19 6.7,10 8.2,10 9.6,16.8 11.4,10 12.7,10 14.4,16.8 
	15.9,10 17.4,10 15.3,19 "/>
<polygon fill="#2878F0" points="14,2 14,8 20,8 "/>
</svg>
