<?xml version="1.0" encoding="UTF-8" standalone="no"?><!DOCTYPE svg PUBLIC "-//W3C//DTD SVG 1.1//EN" "http://www.w3.org/Graphics/SVG/1.1/DTD/svg11.dtd"><svg width="100%" height="100%" viewBox="0 0 1000 570" version="1.1" xmlns="http://www.w3.org/2000/svg" xmlns:xlink="http://www.w3.org/1999/xlink" xml:space="preserve" xmlns:serif="http://www.serif.com/" style="fill-rule:evenodd;clip-rule:evenodd;stroke-miterlimit:10;"><path d="M504.346,259.956l0,-137.537" style="fill:none;stroke:#1e1836;stroke-width:2px;"/><path d="M560.339,164.985l-113.006,0c-9.058,0 -16.469,-7.411 -16.469,-16.469l0,-113.006c0,-9.058 7.411,-16.468 16.469,-16.468l113.006,0c9.058,0 16.469,7.41 16.469,16.468l0,113.006c0,9.058 -7.411,16.469 -16.469,16.469" style="fill:#3c186c;fill-rule:nonzero;"/><path d="M489.347,83.097c-7.926,0 -23.812,3.98 -23.812,11.906l0,5.103c0,1.87 1.531,3.402 3.401,3.402l20.411,0l0,-7.654c0,-2.892 1.122,-7.96 8.061,-11.804c-2.959,-0.613 -5.817,-0.953 -8.061,-0.953m25.512,3.402c-6.225,0 -18.709,3.129 -18.709,9.355l0,4.252c0,1.87 1.53,3.402 3.401,3.402l30.615,0c1.871,0 3.402,-1.532 3.402,-3.402l0,-4.252c0,-6.226 -12.484,-9.355 -18.709,-9.355m-25.512,-10.205c5.646,0 10.17,-4.558 10.17,-10.205c0,-5.646 -4.524,-10.205 -10.17,-10.205c-5.647,0 -10.205,4.559 -10.205,10.205c0,5.647 4.558,10.205 10.205,10.205m25.512,3.401c4.694,0 8.47,-3.809 8.47,-8.503c0,-4.695 -3.776,-8.505 -8.47,-8.505c-4.694,0 -8.504,3.81 -8.504,8.505c0,4.694 3.81,8.503 8.504,8.503" style="fill:#fff;fill-rule:nonzero;"/><path d="M178.73,330.738l0,-108.145c0,-10.514 8.602,-19.116 19.116,-19.116l603.411,0c10.514,0 19.116,8.602 19.116,19.116l0,108.145c0,10.514 -8.602,19.116 -19.116,19.116l-603.411,0c-10.514,0 -19.116,-8.602 -19.116,-19.116" style="fill:#3c186c;fill-rule:nonzero;"/><path d="M243.772,271.447l-0.02,0l-21.931,0l0.524,5.875l20.906,0l-1.575,17.609l-11.741,3.256l-0.011,0.005l-0.008,0l-0.006,0l-11.752,-3.261l-0.803,-9.008l5.76,0l0.408,4.579l6.387,1.721l0.014,-0.004l6.391,-1.725l0.663,-7.437l-19.879,0l-1.548,-17.345l28.733,0l-0.512,5.735Zm-36.745,-15.296l4.168,46.77l18.713,5.195l18.763,-5.203l4.176,-46.762l-45.82,0Z" style="fill:#fff;fill-rule:nonzero;"/><path d="M314.941,271.645l-0.529,5.952l-1.592,17.847l-11.91,3.297l-0.006,0.003l-11.9,-3.304l-0.834,-9.331l5.83,0l0.434,4.844l6.47,1.75l0.006,-0.006l6.477,-1.751l0.884,-8.065l-20.38,0.056l-0.578,-5.517l21.447,-0.251l0.432,-5.906l-22.453,0.063l-0.378,-5.488l29.099,0l-0.519,5.807Zm-37.01,-15.494l4.186,47.381l18.793,5.264l18.787,-5.261l4.193,-47.384l-45.959,0Z" style="fill:#fff;fill-rule:nonzero;"/><path d="M394.427,291.056l-8.867,0l0,-14.194l3.223,0l0,11.499l5.645,0l0,2.695l-0.001,0Zm-3.104,14.564l-34.88,0l0,-10.182l34.88,0l0,10.182Zm-37.542,-14.564l4.106,-7.182l-3.958,-7.012l3.685,0l1.241,2.59c0.423,0.864 0.738,1.559 1.076,2.358l0.042,0c0.336,-0.905 0.61,-1.536 0.968,-2.358l1.201,-2.59l3.664,0l-4.002,6.928l4.212,7.266l-3.705,0l-1.286,-2.57c-0.526,-0.989 -0.863,-1.726 -1.263,-2.548l-0.043,0c-0.294,0.822 -0.652,1.559 -1.094,2.548l-1.179,2.57l-3.665,0Zm29.314,0l-3.137,0l-0.211,-5.434c-0.063,-1.706 -0.127,-3.769 -0.127,-5.833l-0.062,0c-0.442,1.812 -1.032,3.833 -1.579,5.496l-1.727,5.539l-2.507,0l-1.516,-5.496c-0.463,-1.663 -0.947,-3.685 -1.285,-5.539l-0.042,0c-0.084,1.917 -0.147,4.107 -0.253,5.876l-0.252,5.391l-2.969,0l0.906,-14.194l4.274,0l1.39,4.739c0.443,1.642 0.885,3.41 1.2,5.073l0.064,0c0.4,-1.641 0.884,-3.515 1.348,-5.095l1.516,-4.717l4.191,0l0.778,14.194Zm-26.652,-34.539l24.486,0l0,10.815c0,0.584 0.474,1.057 1.057,1.057l9.337,0l0,5.295l-34.88,0l0,-17.167Zm38.288,17.167l-1.295,0l0,-6.245c0,-0.039 -0.005,-0.078 -0.011,-0.118c-0.002,-0.248 -0.081,-0.492 -0.251,-0.685l-10.393,-11.872c-0.003,-0.003 -0.006,-0.004 -0.008,-0.007c-0.062,-0.069 -0.134,-0.127 -0.21,-0.177c-0.023,-0.015 -0.045,-0.028 -0.069,-0.041c-0.067,-0.036 -0.137,-0.066 -0.209,-0.088c-0.019,-0.005 -0.037,-0.013 -0.056,-0.019c-0.079,-0.017 -0.161,-0.029 -0.243,-0.029l-25.543,0c-1.165,0 -2.113,0.948 -2.113,2.113l0,17.168l-1.294,0c-1.669,0 -3.021,1.352 -3.021,3.02l0,15.712c0,1.668 1.352,3.022 3.021,3.022l1.294,0l0,10.754c0,1.166 0.948,2.114 2.114,2.114l34.879,0c1.165,0 2.114,-0.948 2.114,-2.114l0,-10.754l1.294,0c1.668,0 3.022,-1.354 3.022,-3.022l0,-15.711c-0.001,-1.669 -1.354,-3.021 -3.022,-3.021" style="fill:#fff;fill-rule:nonzero;"/><path d="M436.674,269.907l4.378,0l0,12.506c0,0.916 -0.162,1.741 -0.489,2.477c-0.309,0.712 -0.765,1.351 -1.338,1.876c-0.578,0.527 -1.255,0.935 -1.991,1.2c-0.793,0.281 -1.628,0.421 -2.468,0.414c-0.916,0 -1.759,-0.113 -2.53,-0.338c-0.769,-0.235 -1.431,-0.582 -1.991,-1.054c-0.564,-0.491 -1.01,-1.104 -1.303,-1.792c-0.307,-0.725 -0.462,-1.587 -0.462,-2.578l4.405,0c0,0.467 0.04,0.854 0.125,1.165c0.084,0.302 0.205,0.542 0.364,0.724c0.159,0.175 0.362,0.304 0.587,0.374c0.26,0.078 0.53,0.115 0.801,0.111c0.609,0 1.076,-0.227 1.4,-0.676c0.333,-0.458 0.502,-1.098 0.502,-1.916c0.01,0.013 0.01,-12.493 0.01,-12.493" style="fill:#fff;fill-rule:nonzero;"/><path d="M453.23,283.289c0.004,-0.26 -0.038,-0.519 -0.124,-0.765c-0.076,-0.235 -0.232,-0.448 -0.463,-0.649c-0.236,-0.209 -0.564,-0.413 -0.987,-0.613c-0.423,-0.201 -0.974,-0.413 -1.653,-0.641c-0.787,-0.261 -1.56,-0.562 -2.317,-0.902c-0.706,-0.312 -1.371,-0.711 -1.978,-1.187c-0.562,-0.44 -1.035,-0.983 -1.392,-1.601c-0.342,-0.617 -0.511,-1.333 -0.511,-2.152c0,-0.782 0.173,-1.489 0.524,-2.116c0.359,-0.642 0.859,-1.194 1.463,-1.614c0.627,-0.439 1.365,-0.782 2.214,-1.027c0.914,-0.249 1.858,-0.371 2.805,-0.364c0.992,0 1.906,0.133 2.744,0.4c0.836,0.267 1.551,0.649 2.152,1.138c0.594,0.485 1.072,1.098 1.4,1.792c0.342,0.693 0.511,1.467 0.511,2.329l-4.379,0c0.004,-0.32 -0.051,-0.638 -0.164,-0.938c-0.094,-0.282 -0.258,-0.536 -0.476,-0.738c-0.223,-0.219 -0.492,-0.385 -0.787,-0.489c-0.307,-0.115 -0.676,-0.173 -1.103,-0.173c-0.373,-0.007 -0.745,0.044 -1.103,0.151c-0.289,0.081 -0.561,0.216 -0.8,0.4c-0.2,0.158 -0.363,0.359 -0.476,0.587c-0.108,0.219 -0.164,0.459 -0.164,0.703c-0.002,0.267 0.077,0.529 0.227,0.751c0.185,0.244 0.409,0.455 0.662,0.627c0.335,0.212 0.686,0.396 1.05,0.551c0.417,0.169 0.885,0.333 1.4,0.502c0.889,0.275 1.755,0.619 2.592,1.028c0.76,0.373 1.396,0.804 1.917,1.289c0.505,0.458 0.909,1.017 1.186,1.64c0.276,0.609 0.414,1.298 0.414,2.068c0,0.818 -0.163,1.548 -0.489,2.192c-0.318,0.636 -0.786,1.186 -1.365,1.6c-0.582,0.436 -1.292,0.765 -2.13,0.987c-0.826,0.226 -1.748,0.34 -2.765,0.338c-0.626,0.001 -1.251,-0.054 -1.867,-0.164c-0.607,-0.099 -1.204,-0.258 -1.779,-0.476c-0.553,-0.215 -1.083,-0.487 -1.578,-0.814c-0.48,-0.328 -0.906,-0.728 -1.263,-1.187c-0.359,-0.475 -0.643,-1.003 -0.84,-1.565c-0.2,-0.582 -0.303,-1.235 -0.303,-1.952l4.406,0c0,0.534 0.072,0.983 0.214,1.352c0.129,0.341 0.345,0.643 0.627,0.876c0.294,0.234 0.635,0.401 1,0.489c0.453,0.098 0.915,0.144 1.378,0.138c0.419,0 0.774,-0.045 1.063,-0.138c0.267,-0.084 0.517,-0.215 0.738,-0.387c0.183,-0.156 0.325,-0.355 0.414,-0.578c0.105,-0.218 0.158,-0.456 0.155,-0.698" style="fill:#fff;fill-rule:nonzero;"/><path d="M470.867,278.63c0,-1.808 -0.305,-3.181 -0.916,-4.117c-0.6,-0.943 -1.464,-1.414 -2.592,-1.414c-1.178,0 -2.058,0.471 -2.641,1.414c-0.578,0.933 -0.862,2.307 -0.862,4.117l0,0.764c0,1.788 0.297,3.157 0.889,4.117c0.591,0.961 1.471,1.441 2.641,1.441c1.12,0 1.98,-0.476 2.578,-1.427c0.601,-0.961 0.902,-2.337 0.903,-4.131l0,-0.764m4.473,0.764c0,1.392 -0.196,2.645 -0.587,3.757c-0.391,1.113 -0.943,2.056 -1.654,2.828c-0.697,0.775 -1.556,1.386 -2.516,1.792c-0.97,0.408 -2.034,0.613 -3.193,0.613c-1.178,0 -2.258,-0.205 -3.241,-0.613c-0.963,-0.408 -1.826,-1.019 -2.53,-1.792c-0.702,-0.777 -1.249,-1.719 -1.64,-2.828c-0.391,-1.111 -0.587,-2.361 -0.587,-3.757l0,-0.738c0,-1.393 0.192,-2.644 0.578,-3.756c0.391,-1.112 0.938,-2.055 1.641,-2.828c0.704,-0.773 1.567,-1.384 2.529,-1.792c0.979,-0.417 2.055,-0.627 3.228,-0.627c1.161,0 2.229,0.21 3.206,0.627c0.96,0.405 1.819,1.018 2.516,1.792c0.712,0.778 1.258,1.721 1.654,2.828c0.396,1.107 0.6,2.36 0.6,3.756l-0.004,0.738" style="fill:#fff;fill-rule:nonzero;"/><path d="M492.799,288.131l-4.371,0l-6.459,-11.342l0,11.342l-4.393,0l0,-18.224l4.393,0l6.446,11.342l0,-11.342l4.379,0l0,18.224l0.005,0Z" style="fill:#fff;fill-rule:nonzero;"/><path d="M503.202,279.221l1.117,-9.314l10.647,0l0,3.281l-7.224,0l-0.414,3.619c0.103,-0.059 0.24,-0.126 0.414,-0.2c0.199,-0.085 0.404,-0.157 0.613,-0.213c0.245,-0.078 0.497,-0.137 0.752,-0.174c0.276,-0.051 0.558,-0.076 0.84,-0.075c0.903,0 1.704,0.137 2.405,0.413c0.675,0.248 1.28,0.656 1.765,1.187c0.474,0.516 0.837,1.154 1.089,1.916c0.252,0.762 0.377,1.63 0.374,2.605c0.001,0.776 -0.129,1.546 -0.387,2.277c-0.247,0.726 -0.639,1.395 -1.151,1.965c-0.516,0.569 -1.174,1.023 -1.965,1.365c-0.792,0.342 -1.73,0.511 -2.815,0.511c-0.811,0.001 -1.619,-0.125 -2.391,-0.374c-0.743,-0.235 -1.438,-0.599 -2.055,-1.076c-0.592,-0.466 -1.082,-1.051 -1.44,-1.715c-0.361,-0.668 -0.535,-1.423 -0.525,-2.268l4.233,0c0.04,0.668 0.253,1.196 0.64,1.592c0.387,0.395 0.889,0.587 1.516,0.587c0.418,0 0.764,-0.084 1.041,-0.249c0.272,-0.164 0.496,-0.397 0.648,-0.676c0.176,-0.314 0.29,-0.658 0.338,-1.014c0.069,-0.4 0.103,-0.807 0.103,-1.213c0.005,-0.41 -0.046,-0.819 -0.151,-1.214c-0.089,-0.335 -0.246,-0.647 -0.463,-0.916c-0.219,-0.256 -0.498,-0.454 -0.813,-0.574c-0.325,-0.142 -0.717,-0.213 -1.179,-0.213c-0.273,-0.002 -0.546,0.028 -0.814,0.089c-0.216,0.052 -0.427,0.128 -0.626,0.226c-0.162,0.085 -0.314,0.19 -0.449,0.312c-0.115,0.097 -0.22,0.205 -0.312,0.324l-3.361,-0.791" style="fill:#fff;fill-rule:nonzero;"/><path d="M426.759,292.639c-0.858,-0.24 -1.578,-0.56 -2.152,-0.951c-0.543,-0.361 -1.016,-0.819 -1.392,-1.352c-0.35,-0.5 -0.605,-1.061 -0.751,-1.654c-0.145,-0.615 -0.216,-1.245 -0.213,-1.876l0,-2.543c0.005,-0.342 -0.037,-0.683 -0.125,-1.014c-0.063,-0.278 -0.188,-0.54 -0.364,-0.764c-0.163,-0.219 -0.379,-0.392 -0.627,-0.503c-0.249,-0.115 -0.556,-0.174 -0.916,-0.174l0,-2.841c0.711,0 1.223,-0.221 1.538,-0.661c0.325,-0.45 0.489,-1.054 0.489,-1.801l0,-2.543c-0.003,-0.632 0.069,-1.262 0.214,-1.877c0.147,-0.592 0.402,-1.153 0.751,-1.654c0.376,-0.529 0.849,-0.982 1.392,-1.338c0.578,-0.391 1.294,-0.711 2.152,-0.951l0.787,2.205c-0.307,0.111 -0.582,0.297 -0.801,0.538c-0.213,0.245 -0.383,0.524 -0.502,0.827c-0.132,0.334 -0.22,0.684 -0.262,1.04c-0.051,0.403 -0.077,0.808 -0.076,1.214l0,2.543c0,0.836 -0.184,1.592 -0.551,2.268c-0.368,0.675 -0.956,1.213 -1.765,1.613c0.809,0.401 1.397,0.943 1.765,1.628c0.368,0.676 0.552,1.427 0.551,2.254l0,2.543c-0.001,0.406 0.025,0.811 0.076,1.214c0.043,0.356 0.131,0.705 0.262,1.04c0.118,0.303 0.287,0.583 0.502,0.827c0.219,0.241 0.494,0.426 0.801,0.537c0.004,-0.008 -0.783,2.206 -0.783,2.206" style="fill:#fff;fill-rule:nonzero;"/><path d="M495.653,276.167c-0.003,-0.289 0.053,-0.574 0.165,-0.84c0.111,-0.252 0.273,-0.477 0.475,-0.663c0.215,-0.196 0.466,-0.348 0.739,-0.449c0.304,-0.112 0.626,-0.168 0.951,-0.164c0.32,-0.005 0.638,0.051 0.938,0.164c0.275,0.096 0.526,0.249 0.738,0.449c0.208,0.181 0.371,0.407 0.476,0.663c0.231,0.536 0.231,1.144 0,1.68c-0.107,0.257 -0.27,0.488 -0.476,0.676c-0.216,0.192 -0.467,0.342 -0.738,0.44c-0.301,0.111 -0.618,0.167 -0.938,0.165c-0.325,0.005 -0.648,-0.051 -0.951,-0.165c-0.272,-0.099 -0.522,-0.249 -0.739,-0.44c-0.419,-0.391 -0.652,-0.943 -0.64,-1.516m0,9.99c-0.003,-0.289 0.053,-0.575 0.165,-0.841c0.111,-0.251 0.273,-0.476 0.475,-0.662c0.215,-0.196 0.466,-0.349 0.739,-0.449c0.304,-0.112 0.626,-0.168 0.951,-0.165c0.32,-0.004 0.638,0.052 0.938,0.165c0.275,0.097 0.526,0.25 0.738,0.449c0.208,0.181 0.371,0.408 0.476,0.662c0.231,0.537 0.231,1.145 0,1.681c-0.107,0.258 -0.27,0.489 -0.476,0.676c-0.216,0.192 -0.467,0.341 -0.738,0.44c-0.301,0.111 -0.618,0.166 -0.938,0.165c-0.325,0.005 -0.648,-0.051 -0.951,-0.165c-0.272,-0.099 -0.522,-0.248 -0.739,-0.44c-0.419,-0.392 -0.652,-0.943 -0.64,-1.516" style="fill:#fff;fill-rule:nonzero;"/><path d="M521.951,287.633c-0.001,0.515 -0.068,1.028 -0.2,1.525c-0.132,0.505 -0.316,0.996 -0.551,1.463c-0.23,0.468 -0.508,0.912 -0.827,1.324c-0.292,0.4 -0.627,0.766 -1.001,1.089l-2.129,-0.999c0.133,-0.285 0.275,-0.574 0.426,-0.863c0.167,-0.296 0.313,-0.602 0.44,-0.916c0.141,-0.35 0.254,-0.71 0.338,-1.075c0.099,-0.433 0.145,-0.875 0.138,-1.317l0,-2.916l3.379,0l-0.013,2.685" style="fill:#fff;fill-rule:nonzero;"/><path d="M524.081,290.425c0.305,-0.114 0.58,-0.298 0.799,-0.538c0.215,-0.244 0.385,-0.524 0.503,-0.827c0.132,-0.334 0.221,-0.684 0.263,-1.04c0.05,-0.403 0.076,-0.808 0.075,-1.214l0,-2.543c0,-0.836 0.184,-1.592 0.551,-2.268c0.368,-0.676 0.96,-1.214 1.779,-1.614c-0.819,-0.4 -1.411,-0.938 -1.779,-1.614c-0.367,-0.675 -0.551,-1.431 -0.551,-2.267l0,-2.543c0.001,-0.406 -0.025,-0.811 -0.075,-1.214c-0.044,-0.356 -0.132,-0.706 -0.263,-1.04c-0.118,-0.303 -0.287,-0.583 -0.503,-0.827c-0.219,-0.242 -0.493,-0.426 -0.799,-0.538l0.786,-2.196c0.858,0.24 1.579,0.56 2.152,0.951c0.545,0.353 1.018,0.807 1.392,1.339c0.35,0.498 0.6,1.06 0.738,1.653c0.154,0.614 0.23,1.244 0.227,1.877l0,2.542c-0.005,0.346 0.033,0.691 0.111,1.028c0.073,0.279 0.196,0.543 0.364,0.778c0.167,0.21 0.382,0.377 0.627,0.489c0.258,0.115 0.569,0.173 0.925,0.173l0,2.841c-0.716,0 -1.236,0.227 -1.552,0.676c-0.316,0.44 -0.475,1.036 -0.475,1.778l0,2.543c0.003,0.633 -0.073,1.263 -0.227,1.876c-0.139,0.594 -0.389,1.155 -0.738,1.654c-0.351,0.512 -0.815,0.962 -1.392,1.352c-0.578,0.391 -1.294,0.711 -2.152,0.951l-0.786,-2.218" style="fill:#fff;fill-rule:nonzero;"/><circle cx="580.693" cy="279.095" r="5.483" style="fill:#fff;"/><path d="M580.693,269.258c-3.594,0 -7.113,0.253 -10.462,0.751c-3.259,0.485 -6.194,1.178 -8.723,2.059c-2.822,0.983 -5.16,2.228 -6.762,3.599c-1.374,1.175 -2.131,2.392 -2.131,3.426c0,1.088 0.814,2.384 2.292,3.65c1.725,1.477 4.201,2.792 7.161,3.804c2.402,0.82 5.261,1.452 8.496,1.875c3.125,0.41 6.533,0.617 10.129,0.617c6.95,0 13.433,-0.88 18.256,-2.478c3.085,-1.021 5.657,-2.337 7.44,-3.805c1.535,-1.264 2.381,-2.565 2.381,-3.663c0,-1.033 -0.787,-2.258 -2.216,-3.45c-1.655,-1.381 -4.052,-2.634 -6.932,-3.626c-5.171,-1.779 -11.893,-2.759 -18.929,-2.759m0,22.403c-3.71,0 -7.232,-0.214 -10.469,-0.638c-3.408,-0.446 -6.437,-1.117 -9.004,-1.994c-3.272,-1.118 -6.045,-2.603 -8.02,-4.294c-2.098,-1.797 -3.208,-3.749 -3.208,-5.642c0,-1.839 1.054,-3.714 3.049,-5.42c1.848,-1.58 4.477,-2.992 7.604,-4.081c2.684,-0.936 5.779,-1.668 9.2,-2.177c3.476,-0.518 7.125,-0.78 10.848,-0.78c7.319,0 14.344,1.031 19.782,2.902c3.179,1.094 5.863,2.509 7.76,4.092c2.066,1.724 3.157,3.613 3.157,5.464c0,1.924 -1.153,3.891 -3.336,5.688c-2.03,1.671 -4.894,3.148 -8.281,4.27c-2.568,0.85 -5.543,1.508 -8.843,1.953c-3.229,0.437 -6.675,0.657 -10.239,0.657" style="fill:#fff;fill-rule:nonzero;"/><path d="M593.178,254.459c-0.745,0 -1.627,0.18 -2.6,0.538c-2.023,0.743 -4.307,2.193 -6.605,4.193c-4.126,3.59 -8.334,8.924 -11.848,15.018c-1.796,3.115 -3.337,6.29 -4.577,9.438c-1.208,3.066 -2.074,5.956 -2.573,8.589c-0.558,2.936 -0.647,5.584 -0.26,7.656c0.332,1.777 1.008,3.041 1.904,3.558c0.942,0.543 2.471,0.485 4.306,-0.162c2.142,-0.757 4.519,-2.245 6.874,-4.303c1.91,-1.671 3.885,-3.832 5.868,-6.424c1.916,-2.503 3.798,-5.352 5.594,-8.466c3.472,-6.02 5.949,-12.077 6.975,-17.054c0.657,-3.182 0.801,-6.069 0.421,-8.348c-0.328,-1.96 -1.033,-3.343 -1.984,-3.891c-0.396,-0.228 -0.902,-0.342 -1.495,-0.342m-24.941,51.981c-1.11,0 -2.097,-0.24 -2.928,-0.719c-1.594,-0.919 -2.691,-2.769 -3.172,-5.349c-0.447,-2.389 -0.356,-5.373 0.26,-8.626c0.53,-2.794 1.442,-5.842 2.711,-9.061c1.287,-3.269 2.884,-6.561 4.745,-9.787c3.655,-6.34 8.058,-11.911 12.398,-15.687c2.537,-2.207 5.103,-3.824 7.422,-4.676c2.525,-0.928 4.707,-0.931 6.31,-0.006c1.667,0.961 2.794,2.943 3.26,5.731c0.434,2.594 0.283,5.814 -0.438,9.31c-0.545,2.65 -1.463,5.555 -2.725,8.636c-1.236,3.015 -2.766,6.11 -4.546,9.198c-1.853,3.213 -3.799,6.157 -5.784,8.75c-2.089,2.729 -4.183,5.019 -6.225,6.804c-2.602,2.275 -5.274,3.936 -7.726,4.801c-1.285,0.455 -2.482,0.681 -3.562,0.681" style="fill:#fff;fill-rule:nonzero;"/><path d="M572.133,284.104c1.801,3.111 3.782,6.03 5.892,8.678c2.052,2.578 4.122,4.771 6.152,6.517c2.265,1.95 4.514,3.35 6.503,4.049c1.705,0.6 3.137,0.645 4.033,0.127c0.941,-0.545 1.656,-1.898 2.01,-3.811c0.415,-2.233 0.313,-5.035 -0.295,-8.104c-0.492,-2.489 -1.378,-5.278 -2.633,-8.291c-1.212,-2.908 -2.739,-5.962 -4.542,-9.075c-3.483,-6.017 -7.492,-11.188 -11.29,-14.559c-2.43,-2.158 -4.858,-3.725 -7.022,-4.533c-1.862,-0.695 -3.411,-0.775 -4.362,-0.224c-0.894,0.517 -1.56,1.811 -1.875,3.645c-0.366,2.123 -0.25,4.826 0.334,7.816c1.051,5.366 3.571,11.676 7.095,17.765Zm21.024,22.353c-1.021,0 -2.146,-0.212 -3.348,-0.634c-2.294,-0.807 -4.833,-2.375 -7.344,-4.535c-2.153,-1.855 -4.338,-4.166 -6.493,-6.872c-2.188,-2.749 -4.244,-5.775 -6.109,-8.997c-3.666,-6.336 -6.294,-12.932 -7.399,-18.576c-0.645,-3.3 -0.765,-6.331 -0.345,-8.766c0.456,-2.652 1.545,-4.543 3.146,-5.47c1.665,-0.964 3.945,-0.951 6.594,0.038c2.463,0.919 5.176,2.658 7.845,5.028c2.023,1.796 4.083,4.041 6.121,6.674c1.995,2.577 3.912,5.447 5.698,8.533c1.859,3.211 3.438,6.367 4.693,9.38c1.322,3.174 2.259,6.131 2.785,8.791c0.672,3.391 0.776,6.535 0.301,9.092c-0.504,2.717 -1.637,4.654 -3.276,5.603c-0.819,0.473 -1.786,0.711 -2.869,0.711" style="fill:#fff;fill-rule:nonzero;"/><path d="M672.293,256.012l10.706,0l-26.763,46.166l-26.764,-46.166l20.474,0l6.29,10.705l6.155,-10.705l9.902,0Z" style="fill:#fff;fill-rule:nonzero;"/><path d="M629.472,256.012l26.764,46.166l26.763,-46.166l-10.706,0l-16.057,27.7l-16.192,-27.7l-10.572,0Z" style="fill:#ddd;fill-rule:nonzero;"/><path d="M640.044,256.012l16.191,27.834l16.059,-27.834l-9.903,0l-6.156,10.705l-6.289,-10.705l-9.902,0Z" style="fill:#fff;fill-rule:nonzero;"/><path d="M752.069,280.323c-0.894,-0.678 -2.076,-1.016 -3.547,-1.016l-7.397,0l0,8.478l7.267,0c0.664,0 1.298,-0.065 1.904,-0.195c0.605,-0.13 1.139,-0.346 1.6,-0.649c0.461,-0.302 0.829,-0.713 1.103,-1.232c0.274,-0.52 0.411,-1.183 0.411,-1.99c0,-1.586 -0.447,-2.718 -1.341,-3.396" style="fill:#fff;fill-rule:nonzero;"/><path d="M750.988,273.813c0.779,-0.577 1.168,-1.514 1.168,-2.812c0,-0.72 -0.13,-1.312 -0.389,-1.773c-0.261,-0.461 -0.607,-0.821 -1.039,-1.081c-0.432,-0.26 -0.93,-0.44 -1.492,-0.541c-0.563,-0.101 -1.146,-0.152 -1.752,-0.152l-6.359,0l0,7.224l6.878,0c1.211,0 2.206,-0.288 2.985,-0.865" style="fill:#fff;fill-rule:nonzero;"/><path d="M759.293,288.153c-0.606,1.138 -1.42,2.069 -2.444,2.789c-1.024,0.722 -2.192,1.255 -3.504,1.601c-1.312,0.346 -2.66,0.519 -4.044,0.519l-14.967,0l0,-30.885l14.534,0c1.471,0 2.812,0.13 4.023,0.389c1.211,0.26 2.249,0.685 3.114,1.276c0.865,0.592 1.536,1.378 2.011,2.358c0.476,0.981 0.715,2.191 0.715,3.633c0,1.558 -0.354,2.855 -1.06,3.893c-0.706,1.039 -1.752,1.89 -3.136,2.553c1.903,0.548 3.324,1.506 4.26,2.876c0.938,1.37 1.406,3.021 1.406,4.953c0,1.557 -0.303,2.906 -0.908,4.045m5.112,-36.038l-37.855,0c-3.633,0 -6.578,2.944 -6.578,6.577l0,37.855c0,3.633 2.945,6.578 6.578,6.578l37.855,0c3.633,0 6.577,-2.945 6.577,-6.578l0,-37.855c0,-3.633 -2.944,-6.577 -6.577,-6.577" style="fill:#fff;fill-rule:nonzero;"/><path d="M909.375,259.956l0,-137.537" style="fill:none;stroke:#1e1836;stroke-width:2px;"/><path d="M965.878,349.854l-113.006,0c-9.059,0 -16.469,-7.411 -16.469,-16.468l0,-113.006c0,-9.059 7.41,-16.469 16.469,-16.469l113.006,0c9.057,0 16.468,7.41 16.468,16.469l0,113.006c0,9.057 -7.411,16.468 -16.468,16.468" style="fill:#3c186c;fill-rule:nonzero;"/><path d="M965.878,164.985l-113.006,0c-9.059,0 -16.469,-7.411 -16.469,-16.469l0,-113.006c0,-9.058 7.41,-16.468 16.469,-16.468l113.006,0c9.057,0 16.468,7.41 16.468,16.468l0,113.006c0,9.058 -7.411,16.469 -16.468,16.469" style="fill:#3c186c;fill-rule:nonzero;"/><path d="M917.61,81.293l10.367,-10.366l-10.367,-10.367c-1.036,-1.036 -1.036,-2.684 0,-3.721c1.036,-1.037 2.684,-1.037 3.721,0l12.201,12.201c1.037,1.036 1.037,2.711 0,3.747l-12.201,12.228c-1.037,1.037 -2.685,1.037 -3.721,0c-1.036,-1.037 -1.036,-2.685 0,-3.722m-17.544,0l-10.367,-10.366l10.367,-10.367c1.037,-1.036 1.037,-2.684 0,-3.721c-1.036,-1.037 -2.684,-1.037 -3.721,0l-12.201,12.201c-1.036,1.036 -1.036,2.711 0,3.747l12.201,12.228c1.037,1.037 2.685,1.037 3.721,0c1.037,-1.037 1.037,-2.685 0,-3.722" style="fill:#fff;fill-rule:nonzero;"/><path d="M921.904,262.927c0.229,-1.891 0.401,-3.783 0.401,-5.732c0,-1.949 -0.172,-3.84 -0.401,-5.732l9.686,0c0.459,1.834 0.745,3.755 0.745,5.732c0,1.978 -0.286,3.897 -0.745,5.732l-9.686,0Zm-5.073,15.934c1.719,-3.181 3.038,-6.62 3.954,-10.202l8.456,0c-2.752,4.728 -7.137,8.396 -12.41,10.202m-0.717,-15.934l-13.412,0c-0.258,-1.891 -0.459,-3.783 -0.459,-5.732c0,-1.949 0.201,-3.869 0.459,-5.732l13.412,0c0.258,1.863 0.459,3.783 0.459,5.732c0,1.949 -0.201,3.841 -0.459,5.732m-6.706,17.08c-2.379,-3.439 -4.241,-7.25 -5.473,-11.348l10.947,0c-1.232,4.098 -3.095,7.91 -5.474,11.348m-11.378,-34.276l-8.454,0c2.752,-4.757 7.136,-8.397 12.41,-10.202c-1.72,3.181 -3.038,6.62 -3.956,10.202m-8.454,22.928l8.454,0c0.918,3.582 2.236,7.021 3.956,10.202c-5.274,-1.806 -9.658,-5.445 -12.41,-10.202m-2.35,-5.732c-0.459,-1.835 -0.745,-3.754 -0.745,-5.732c0,-1.977 0.286,-3.898 0.745,-5.732l9.687,0c-0.229,1.892 -0.401,3.783 -0.401,5.732c0,1.949 0.172,3.841 0.401,5.732l-9.687,0Zm22.182,-28.545c2.379,3.44 4.242,7.251 5.474,11.349l-10.947,0c1.232,-4.098 3.094,-7.909 5.473,-11.349m19.833,11.349l-8.456,0c-0.916,-3.582 -2.235,-7.021 -3.954,-10.202c5.273,1.805 9.658,5.473 12.41,10.202m-19.861,-17.195c-15.82,0 -28.631,12.839 -28.631,28.659c0,15.82 12.811,28.659 28.631,28.659c15.848,0 28.687,-12.839 28.687,-28.659c0,-15.82 -12.839,-28.659 -28.687,-28.659" style="fill:#fff;fill-rule:nonzero;"/><path d="M89.113,259.956l0,-137.537" style="fill:none;stroke:#1e1836;stroke-width:2px;"/><path d="M145.821,349.854l-113.006,0c-9.058,0 -16.469,-7.411 -16.469,-16.468l0,-113.006c0,-9.059 7.411,-16.469 16.469,-16.469l113.006,0c9.058,0 16.469,7.41 16.469,16.469l0,113.006c0,9.057 -7.411,16.468 -16.469,16.468" style="fill:#3c186c;fill-rule:nonzero;"/><path d="M145.821,164.985l-113.006,0c-9.058,0 -16.469,-7.411 -16.469,-16.469l0,-113.006c0,-9.058 7.411,-16.468 16.469,-16.468l113.006,0c9.058,0 16.469,7.41 16.469,16.468l0,113.006c0,9.058 -7.411,16.469 -16.469,16.469" style="fill:#3c186c;fill-rule:nonzero;"/><path d="M89.113,85.601c-7.934,0 -23.773,3.982 -23.773,11.887l0,2.972c0,1.634 1.337,2.971 2.971,2.971l41.604,0c1.634,0 2.971,-1.337 2.971,-2.971l0,-2.972c0,-7.905 -15.839,-11.887 -23.773,-11.887m0,-5.943c6.567,0 11.886,-5.32 11.886,-11.887c0,-6.568 -5.319,-11.887 -11.886,-11.887c-6.568,0 -11.887,5.319 -11.887,11.887c0,6.567 5.319,11.887 11.887,11.887" style="fill:#fff;fill-rule:nonzero;"/><path d="M94.256,268.979l-23.816,0c-1.592,0 -2.894,-1.303 -2.894,-2.894l0,-26.042l40.509,0l0,7.701c0.102,-0.003 0.2,-0.015 0.303,-0.015c2.009,0 3.881,0.572 5.485,1.547l0,-15.019c0,-3.184 -2.576,-5.788 -5.788,-5.788l-40.509,0c-3.212,0 -5.787,2.604 -5.787,5.788l0,34.722c0,3.182 2.575,5.786 5.787,5.786l22.798,0c0.276,-2.397 1.792,-4.309 3.912,-5.786" style="fill:#fff;fill-rule:nonzero;"/><path d="M108.357,268.095c-4.981,0 -14.925,2.5 -14.925,7.462l0,1.866c0,1.026 0.84,1.866 1.865,1.866l26.121,0c1.025,0 1.865,-0.84 1.865,-1.866l0,-1.866c0,-4.962 -9.944,-7.462 -14.926,-7.462m0,-2.3c4.124,0 7.463,-3.339 7.463,-7.463c0,-4.123 -3.339,-7.462 -7.463,-7.462c-4.123,0 -7.462,3.339 -7.462,7.462c0,4.124 3.339,7.463 7.462,7.463" style="fill:#fff;fill-rule:nonzero;"/><path d="M16.347,531.162l0,-143.048c0,-11.717 9.587,-21.305 21.305,-21.305l923.388,0c11.719,0 21.306,9.588 21.306,21.305l0,143.048c0,11.719 -9.587,21.306 -21.306,21.306l-923.388,0c-11.718,0 -21.305,-9.587 -21.305,-21.306" style="fill:#3c186c;fill-rule:nonzero;"/><g><path d="M457.301,135.373c2.322,0 4.356,-1.17 5.418,-2.97l-2.142,-1.242c-0.594,1.098 -1.836,1.782 -3.276,1.782c-2.466,0 -4.086,-1.71 -4.086,-4.122c0,-2.43 1.62,-4.14 4.086,-4.14c1.44,0 2.664,0.684 3.276,1.8l2.142,-1.242c-1.08,-1.8 -3.114,-2.97 -5.418,-2.97c-3.816,0 -6.552,2.862 -6.552,6.552c0,3.672 2.736,6.552 6.552,6.552Z" style="fill:#fff;fill-rule:nonzero;"/><path d="M468.947,135.373c2.772,0 4.824,-1.656 4.824,-4.374l0,-8.478l-2.484,0l0,8.28c0,1.224 -0.648,2.142 -2.34,2.142c-1.692,0 -2.34,-0.918 -2.34,-2.142l0,-8.28l-2.466,0l0,8.478c0,2.718 2.052,4.374 4.806,4.374Z" style="fill:#fff;fill-rule:nonzero;"/><path d="M480.305,135.373c2.682,0 4.572,-1.44 4.572,-3.798c0,-2.574 -2.124,-3.24 -4.122,-3.87c-1.908,-0.576 -2.394,-0.99 -2.394,-1.764c0,-0.72 0.612,-1.26 1.656,-1.26c1.278,0 1.962,0.666 2.412,1.62l2.088,-1.206c-0.846,-1.764 -2.43,-2.826 -4.5,-2.826c-2.16,0 -4.14,1.368 -4.14,3.744c0,2.394 1.872,3.204 3.798,3.762c1.872,0.54 2.718,0.9 2.718,1.836c0,0.702 -0.522,1.332 -2.016,1.332c-1.566,0 -2.448,-0.756 -2.898,-1.926l-2.124,1.242c0.684,1.872 2.376,3.114 4.95,3.114Z" style="fill:#fff;fill-rule:nonzero;"/><path d="M494.381,122.521l-9.27,0l0,2.376l3.384,0l0,10.224l2.484,0l0,-10.224l3.402,0l0,-2.376Z" style="fill:#fff;fill-rule:nonzero;"/><path d="M501.005,135.373c3.636,0 6.552,-2.88 6.552,-6.552c0,-3.69 -2.916,-6.552 -6.552,-6.552c-3.636,0 -6.534,2.862 -6.534,6.552c0,3.672 2.898,6.552 6.534,6.552Zm0,-2.43c-2.286,0 -4.068,-1.71 -4.068,-4.122c0,-2.43 1.782,-4.14 4.068,-4.14c2.286,0 4.068,1.71 4.068,4.14c0,2.412 -1.782,4.122 -4.068,4.122Z" style="fill:#fff;fill-rule:nonzero;"/><path d="M521.633,122.521l-2.556,0l-3.6,5.958l-3.618,-5.958l-2.556,0l0,12.6l2.484,0l0,-8.154l3.546,5.832l0.288,0l3.546,-5.85l0,8.172l2.466,0l0,-12.6Z" style="fill:#fff;fill-rule:nonzero;"/><path d="M526.457,132.745l0,-2.826l4.77,0l0,-2.34l-4.77,0l0,-2.682l5.22,0l0,-2.376l-7.704,0l0,12.6l7.794,0l0,-2.376l-5.31,0Z" style="fill:#fff;fill-rule:nonzero;"/><path d="M540.425,135.121l2.682,0l-2.79,-4.752c1.44,-0.666 2.43,-2.088 2.43,-3.672c0,-2.304 -1.872,-4.176 -4.194,-4.176l-5.04,0l0,12.6l2.484,0l0,-4.374l1.89,0l2.538,4.374Zm-4.428,-10.278l2.556,0c0.936,0 1.71,0.81 1.71,1.854c0,1.044 -0.774,1.872 -1.71,1.872l-2.556,0l0,-3.726Z" style="fill:#fff;fill-rule:nonzero;"/><path d="M548.669,135.373c2.682,0 4.572,-1.44 4.572,-3.798c0,-2.574 -2.124,-3.24 -4.122,-3.87c-1.908,-0.576 -2.394,-0.99 -2.394,-1.764c0,-0.72 0.612,-1.26 1.656,-1.26c1.278,0 1.962,0.666 2.412,1.62l2.088,-1.206c-0.846,-1.764 -2.43,-2.826 -4.5,-2.826c-2.16,0 -4.14,1.368 -4.14,3.744c0,2.394 1.872,3.204 3.798,3.762c1.872,0.54 2.718,0.9 2.718,1.836c0,0.702 -0.522,1.332 -2.016,1.332c-1.566,0 -2.448,-0.756 -2.898,-1.926l-2.124,1.242c0.684,1.872 2.376,3.114 4.95,3.114Z" style="fill:#fff;fill-rule:nonzero;"/></g><g><path d="M321.143,234.725c2.559,0 4.362,-1.374 4.362,-3.624c0,-2.456 -2.027,-3.091 -3.933,-3.693c-1.821,-0.549 -2.285,-0.944 -2.285,-1.683c0,-0.687 0.584,-1.202 1.581,-1.202c1.219,0 1.872,0.635 2.301,1.546l1.993,-1.151c-0.808,-1.683 -2.319,-2.697 -4.294,-2.697c-2.061,0 -3.951,1.306 -3.951,3.573c0,2.284 1.787,3.057 3.624,3.59c1.787,0.515 2.594,0.859 2.594,1.752c0,0.67 -0.498,1.271 -1.924,1.271c-1.494,0 -2.336,-0.722 -2.765,-1.838l-2.027,1.185c0.653,1.786 2.267,2.971 4.724,2.971Z" style="fill:#fff;fill-rule:nonzero;"/><path d="M333.801,222.462l0,4.775l-4.466,0l0,-4.775l-2.37,0l0,12.023l2.37,0l0,-4.981l4.466,0l0,4.981l2.353,0l0,-12.023l-2.353,0Z" style="fill:#fff;fill-rule:nonzero;"/><path d="M344.072,234.725c3.47,0 6.253,-2.748 6.253,-6.252c0,-3.521 -2.783,-6.252 -6.253,-6.252c-3.469,0 -6.234,2.731 -6.234,6.252c0,3.504 2.765,6.252 6.234,6.252Zm0,-2.318c-2.181,0 -3.881,-1.632 -3.881,-3.934c0,-2.318 1.7,-3.95 3.881,-3.95c2.182,0 3.882,1.632 3.882,3.95c0,2.302 -1.7,3.934 -3.882,3.934Z" style="fill:#fff;fill-rule:nonzero;"/><path d="M356.474,222.462l-4.483,0l0,12.023l2.37,0l0,-3.95l2.113,0c2.318,0 4.105,-1.787 4.105,-4.037c0,-2.25 -1.787,-4.036 -4.105,-4.036Zm0,5.857l-2.113,0l0,-3.641l2.113,0c1.013,0 1.751,0.772 1.751,1.82c0,1.031 -0.738,1.821 -1.751,1.821Z" style="fill:#fff;fill-rule:nonzero;"/><path d="M365.887,234.725c2.559,0 4.362,-1.374 4.362,-3.624c0,-2.456 -2.027,-3.091 -3.933,-3.693c-1.821,-0.549 -2.285,-0.944 -2.285,-1.683c0,-0.687 0.584,-1.202 1.581,-1.202c1.219,0 1.872,0.635 2.301,1.546l1.993,-1.151c-0.808,-1.683 -2.319,-2.697 -4.294,-2.697c-2.061,0 -3.951,1.306 -3.951,3.573c0,2.284 1.787,3.057 3.624,3.59c1.787,0.515 2.594,0.859 2.594,1.752c0,0.67 -0.498,1.271 -1.924,1.271c-1.494,0 -2.336,-0.722 -2.765,-1.838l-2.027,1.185c0.653,1.786 2.267,2.971 4.724,2.971Z" style="fill:#fff;fill-rule:nonzero;"/><path d="M372.224,236.203l6.871,-15.459l-0.979,0l-6.871,15.459l0.979,0Z" style="fill:#fff;fill-rule:nonzero;"/><path d="M383.286,234.485l2.696,0l2.25,-7.935l2.268,7.935l2.696,0l3.367,-12.023l-2.491,0l-2.301,8.914l-2.525,-8.914l-2.027,0l-2.508,8.914l-2.301,-8.914l-2.491,0l3.367,12.023Z" style="fill:#fff;fill-rule:nonzero;"/><path d="M400.307,232.218l0,-2.697l4.552,0l0,-2.233l-4.552,0l0,-2.559l4.981,0l0,-2.267l-7.351,0l0,12.023l7.437,0l0,-2.267l-5.067,0Z" style="fill:#fff;fill-rule:nonzero;"/><path d="M414.306,228.25c0.704,-0.567 1.133,-1.374 1.133,-2.405c0,-2.009 -1.631,-3.383 -3.658,-3.383l-4.741,0l0,12.023l5.101,0c2.079,0 3.745,-1.426 3.745,-3.487c0,-1.254 -0.618,-2.198 -1.58,-2.748Zm-2.525,-3.572c0.756,0 1.288,0.566 1.288,1.322c0,0.756 -0.55,1.323 -1.288,1.323l-2.371,0l0,-2.645l2.371,0Zm0.36,7.591l-2.731,0l0,-2.834l2.731,0c0.808,0 1.392,0.601 1.392,1.409c0,0.824 -0.584,1.425 -1.392,1.425Z" style="fill:#fff;fill-rule:nonzero;"/><path d="M421.349,234.725c2.559,0 4.362,-1.374 4.362,-3.624c0,-2.456 -2.027,-3.091 -3.933,-3.693c-1.821,-0.549 -2.285,-0.944 -2.285,-1.683c0,-0.687 0.584,-1.202 1.581,-1.202c1.219,0 1.872,0.635 2.301,1.546l1.993,-1.151c-0.808,-1.683 -2.319,-2.697 -4.294,-2.697c-2.061,0 -3.951,1.306 -3.951,3.573c0,2.284 1.787,3.057 3.624,3.59c1.787,0.515 2.594,0.859 2.594,1.752c0,0.67 -0.498,1.271 -1.924,1.271c-1.494,0 -2.336,-0.722 -2.765,-1.838l-2.027,1.185c0.653,1.786 2.267,2.971 4.724,2.971Z" style="fill:#fff;fill-rule:nonzero;"/><rect x="427.171" y="222.462" width="2.37" height="12.023" style="fill:#fff;fill-rule:nonzero;"/><path d="M439.727,222.462l-8.846,0l0,2.267l3.229,0l0,9.756l2.371,0l0,-9.756l3.246,0l0,-2.267Z" style="fill:#fff;fill-rule:nonzero;"/><path d="M443.42,232.218l0,-2.697l4.551,0l0,-2.233l-4.551,0l0,-2.559l4.981,0l0,-2.267l-7.352,0l0,12.023l7.438,0l0,-2.267l-5.067,0Z" style="fill:#fff;fill-rule:nonzero;"/><path d="M454.258,234.725c2.559,0 4.362,-1.374 4.362,-3.624c0,-2.456 -2.026,-3.091 -3.933,-3.693c-1.821,-0.549 -2.284,-0.944 -2.284,-1.683c0,-0.687 0.584,-1.202 1.58,-1.202c1.219,0 1.872,0.635 2.301,1.546l1.993,-1.151c-0.807,-1.683 -2.319,-2.697 -4.294,-2.697c-2.061,0 -3.951,1.306 -3.951,3.573c0,2.284 1.787,3.057 3.625,3.59c1.786,0.515 2.593,0.859 2.593,1.752c0,0.67 -0.498,1.271 -1.924,1.271c-1.494,0 -2.336,-0.722 -2.765,-1.838l-2.027,1.185c0.653,1.786 2.268,2.971 4.724,2.971Z" style="fill:#fff;fill-rule:nonzero;"/><path d="M460.596,236.203l6.87,-15.459l-0.979,0l-6.87,15.459l0.979,0Z" style="fill:#fff;fill-rule:nonzero;"/><path d="M476.879,234.485l2.576,0l-4.225,-12.023l-2.937,0l-4.209,12.023l2.56,0l0.721,-2.164l4.792,0l0.722,2.164Zm-4.758,-4.38l1.649,-4.912l1.649,4.912l-3.298,0Z" style="fill:#fff;fill-rule:nonzero;"/><path d="M485.106,222.462l-4.483,0l0,12.023l2.37,0l0,-3.95l2.113,0c2.319,0 4.105,-1.787 4.105,-4.037c0,-2.25 -1.786,-4.036 -4.105,-4.036Zm0,5.857l-2.113,0l0,-3.641l2.113,0c1.013,0 1.752,0.772 1.752,1.82c0,1.031 -0.739,1.821 -1.752,1.821Z" style="fill:#fff;fill-rule:nonzero;"/><path d="M495.24,222.462l-4.483,0l0,12.023l2.37,0l0,-3.95l2.113,0c2.318,0 4.105,-1.787 4.105,-4.037c0,-2.25 -1.787,-4.036 -4.105,-4.036Zm0,5.857l-2.113,0l0,-3.641l2.113,0c1.013,0 1.752,0.772 1.752,1.82c0,1.031 -0.739,1.821 -1.752,1.821Z" style="fill:#fff;fill-rule:nonzero;"/><path d="M504.654,234.725c2.559,0 4.362,-1.374 4.362,-3.624c0,-2.456 -2.027,-3.091 -3.933,-3.693c-1.821,-0.549 -2.285,-0.944 -2.285,-1.683c0,-0.687 0.584,-1.202 1.581,-1.202c1.219,0 1.872,0.635 2.301,1.546l1.993,-1.151c-0.808,-1.683 -2.319,-2.697 -4.294,-2.697c-2.061,0 -3.951,1.306 -3.951,3.573c0,2.284 1.787,3.057 3.624,3.59c1.787,0.515 2.594,0.859 2.594,1.752c0,0.67 -0.498,1.271 -1.924,1.271c-1.494,0 -2.336,-0.722 -2.765,-1.838l-2.027,1.185c0.653,1.786 2.267,2.971 4.724,2.971Z" style="fill:#fff;fill-rule:nonzero;"/><path d="M510.991,236.203l6.871,-15.459l-0.979,0l-6.871,15.459l0.979,0Z" style="fill:#fff;fill-rule:nonzero;"/><path d="M524.028,222.462l-4.483,0l0,12.023l2.37,0l0,-3.95l2.113,0c2.319,0 4.105,-1.787 4.105,-4.037c0,-2.25 -1.786,-4.036 -4.105,-4.036Zm0,5.857l-2.113,0l0,-3.641l2.113,0c1.013,0 1.752,0.772 1.752,1.82c0,1.031 -0.739,1.821 -1.752,1.821Z" style="fill:#fff;fill-rule:nonzero;"/><path d="M536.275,234.485l2.559,0l-2.663,-4.534c1.375,-0.636 2.319,-1.993 2.319,-3.504c0,-2.199 -1.786,-3.985 -4.002,-3.985l-4.809,0l0,12.023l2.37,0l0,-4.174l1.804,0l2.422,4.174Zm-4.226,-9.807l2.439,0c0.893,0 1.632,0.772 1.632,1.769c0,0.996 -0.739,1.786 -1.632,1.786l-2.439,0l0,-3.555Z" style="fill:#fff;fill-rule:nonzero;"/><rect x="540.225" y="222.462" width="2.37" height="12.023" style="fill:#fff;fill-rule:nonzero;"/><path d="M551.784,222.462l0,7.334l-5.152,-7.334l-1.804,0l0,12.023l2.37,0l0,-7.351l5.153,7.351l1.804,0l0,-12.023l-2.371,0Z" style="fill:#fff;fill-rule:nonzero;"/><path d="M564.34,222.462l-8.846,0l0,2.267l3.23,0l0,9.756l2.37,0l0,-9.756l3.246,0l0,-2.267Z" style="fill:#fff;fill-rule:nonzero;"/><path d="M566.092,236.203l6.87,-15.459l-0.979,0l-6.87,15.459l0.979,0Z" style="fill:#fff;fill-rule:nonzero;"/><path d="M580.348,234.725c2.216,0 4.157,-1.116 5.17,-2.834l-2.044,-1.185c-0.567,1.048 -1.752,1.701 -3.126,1.701c-2.353,0 -3.899,-1.632 -3.899,-3.934c0,-2.318 1.546,-3.95 3.899,-3.95c1.374,0 2.542,0.653 3.126,1.718l2.044,-1.186c-1.03,-1.717 -2.971,-2.834 -5.17,-2.834c-3.641,0 -6.252,2.731 -6.252,6.252c0,3.504 2.611,6.252 6.252,6.252Z" style="fill:#fff;fill-rule:nonzero;"/><path d="M591.462,234.725c2.645,0 4.604,-1.58 4.604,-4.173l0,-8.09l-2.371,0l0,7.901c0,1.168 -0.618,2.044 -2.233,2.044c-1.614,0 -2.233,-0.876 -2.233,-2.044l0,-7.901l-2.353,0l0,8.09c0,2.593 1.958,4.173 4.586,4.173Z" style="fill:#fff;fill-rule:nonzero;"/><path d="M602.3,234.725c2.56,0 4.363,-1.374 4.363,-3.624c0,-2.456 -2.027,-3.091 -3.933,-3.693c-1.821,-0.549 -2.285,-0.944 -2.285,-1.683c0,-0.687 0.584,-1.202 1.581,-1.202c1.219,0 1.872,0.635 2.301,1.546l1.993,-1.151c-0.808,-1.683 -2.319,-2.697 -4.294,-2.697c-2.062,0 -3.951,1.306 -3.951,3.573c0,2.284 1.786,3.057 3.624,3.59c1.787,0.515 2.594,0.859 2.594,1.752c0,0.67 -0.498,1.271 -1.924,1.271c-1.494,0 -2.336,-0.722 -2.765,-1.838l-2.027,1.185c0.653,1.786 2.267,2.971 4.723,2.971Z" style="fill:#fff;fill-rule:nonzero;"/><path d="M615.732,222.462l-8.846,0l0,2.267l3.23,0l0,9.756l2.37,0l0,-9.756l3.246,0l0,-2.267Z" style="fill:#fff;fill-rule:nonzero;"/><path d="M622.053,234.725c3.469,0 6.252,-2.748 6.252,-6.252c0,-3.521 -2.783,-6.252 -6.252,-6.252c-3.47,0 -6.235,2.731 -6.235,6.252c0,3.504 2.765,6.252 6.235,6.252Zm0,-2.318c-2.182,0 -3.882,-1.632 -3.882,-3.934c0,-2.318 1.7,-3.95 3.882,-3.95c2.181,0 3.882,1.632 3.882,3.95c0,2.302 -1.701,3.934 -3.882,3.934Z" style="fill:#fff;fill-rule:nonzero;"/><path d="M641.737,222.462l-2.439,0l-3.436,5.685l-3.452,-5.685l-2.439,0l0,12.023l2.37,0l0,-7.781l3.384,5.565l0.275,0l3.383,-5.582l0,7.798l2.354,0l0,-12.023Z" style="fill:#fff;fill-rule:nonzero;"/><path d="M655.993,234.485l2.576,0l-4.225,-12.023l-2.937,0l-4.209,12.023l2.56,0l0.721,-2.164l4.792,0l0.722,2.164Zm-4.758,-4.38l1.649,-4.912l1.649,4.912l-3.298,0Z" style="fill:#fff;fill-rule:nonzero;"/><path d="M664.22,222.462l-4.483,0l0,12.023l2.37,0l0,-3.95l2.113,0c2.319,0 4.105,-1.787 4.105,-4.037c0,-2.25 -1.786,-4.036 -4.105,-4.036Zm0,5.857l-2.113,0l0,-3.641l2.113,0c1.013,0 1.752,0.772 1.752,1.82c0,1.031 -0.739,1.821 -1.752,1.821Z" style="fill:#fff;fill-rule:nonzero;"/><rect x="669.871" y="222.462" width="2.37" height="12.023" style="fill:#fff;fill-rule:nonzero;"/><path d="M678.392,234.725c2.559,0 4.362,-1.374 4.362,-3.624c0,-2.456 -2.027,-3.091 -3.933,-3.693c-1.821,-0.549 -2.285,-0.944 -2.285,-1.683c0,-0.687 0.584,-1.202 1.581,-1.202c1.219,0 1.872,0.635 2.301,1.546l1.993,-1.151c-0.808,-1.683 -2.319,-2.697 -4.294,-2.697c-2.061,0 -3.951,1.306 -3.951,3.573c0,2.284 1.787,3.057 3.624,3.59c1.787,0.515 2.594,0.859 2.594,1.752c0,0.67 -0.498,1.271 -1.924,1.271c-1.494,0 -2.336,-0.722 -2.765,-1.838l-2.027,1.185c0.653,1.786 2.267,2.971 4.724,2.971Z" style="fill:#fff;fill-rule:nonzero;"/></g><path d="M219.582,319.205l0,4.545l-5.872,0l0,-4.545l-0.765,0l0,10.099l0.765,0l0,-4.833l5.872,0l0,4.833l0.764,0l0,-10.099l-0.764,0Z" style="fill:#fff;fill-rule:nonzero;"/><path d="M229.06,319.205l-7.127,0l0,0.721l3.174,0l0,9.378l0.779,0l0,-9.378l3.174,0l0,-0.721Z" style="fill:#fff;fill-rule:nonzero;"/><path d="M239.779,319.205l-0.966,0l-3.607,5.973l-3.607,-5.973l-0.952,0l0,10.099l0.765,0l0,-8.974l3.736,6.204l0.13,0l3.737,-6.204l0,8.974l0.764,0l0,-10.099Z" style="fill:#fff;fill-rule:nonzero;"/><path d="M243.054,328.583l0,-9.378l-0.764,0l0,10.099l5.525,0l0,-0.721l-4.761,0Z" style="fill:#fff;fill-rule:nonzero;"/><g><path d="M293.318,329.463c1.89,0 3.535,-0.981 4.357,-2.467l-0.678,-0.39c-0.663,1.27 -2.077,2.121 -3.679,2.121c-2.654,0 -4.486,-1.991 -4.486,-4.473c0,-2.481 1.832,-4.472 4.486,-4.472c1.587,0 2.987,0.837 3.65,2.078l0.678,-0.39c-0.836,-1.472 -2.467,-2.424 -4.328,-2.424c-3.073,0 -5.251,2.323 -5.251,5.208c0,2.886 2.178,5.209 5.251,5.209Z" style="fill:#fff;fill-rule:nonzero;"/><path d="M302.566,329.463c2.005,0 3.318,-1.097 3.318,-2.77c0,-1.746 -1.558,-2.309 -3.347,-2.9c-1.443,-0.476 -2.467,-0.851 -2.467,-2.063c0,-1.126 0.88,-1.948 2.28,-1.948c1.442,0 2.221,0.837 2.596,1.746l0.65,-0.361c-0.491,-1.169 -1.587,-2.121 -3.246,-2.121c-1.717,0 -3.059,1.053 -3.059,2.713c0,1.76 1.515,2.236 3.203,2.784c1.544,0.49 2.611,0.952 2.611,2.164c0,1.154 -0.851,2.02 -2.539,2.02c-1.659,0 -2.683,-0.823 -3.03,-2.034l-0.663,0.389c0.461,1.428 1.803,2.381 3.693,2.381Z" style="fill:#fff;fill-rule:nonzero;"/><path d="M310.487,329.463c2.005,0 3.318,-1.097 3.318,-2.77c0,-1.746 -1.558,-2.309 -3.347,-2.9c-1.443,-0.476 -2.467,-0.851 -2.467,-2.063c0,-1.126 0.88,-1.948 2.279,-1.948c1.443,0 2.222,0.837 2.597,1.746l0.649,-0.361c-0.49,-1.169 -1.587,-2.121 -3.246,-2.121c-1.717,0 -3.058,1.053 -3.058,2.713c0,1.76 1.514,2.236 3.202,2.784c1.544,0.49 2.612,0.952 2.612,2.164c0,1.154 -0.851,2.02 -2.539,2.02c-1.66,0 -2.684,-0.823 -3.03,-2.034l-0.664,0.389c0.462,1.428 1.804,2.381 3.694,2.381Z" style="fill:#fff;fill-rule:nonzero;"/></g><path d="M368.31,329.304l-3.362,-5.194l3.174,-4.905l-0.88,0l-2.726,4.227l-2.742,-4.227l-0.88,0l3.174,4.905l-3.361,5.194l0.894,0l2.915,-4.501l2.914,4.501l0.88,0Z" style="fill:#fff;fill-rule:nonzero;"/><path d="M379.029,319.205l-0.966,0l-3.607,5.973l-3.607,-5.973l-0.952,0l0,10.099l0.764,0l0,-8.974l3.737,6.204l0.13,0l3.736,-6.204l0,8.974l0.765,0l0,-10.099Z" style="fill:#fff;fill-rule:nonzero;"/><path d="M382.304,328.583l0,-9.378l-0.765,0l0,10.099l5.526,0l0,-0.721l-4.761,0Z" style="fill:#fff;fill-rule:nonzero;"/><path d="M458.509,329.463c1.789,0 3.246,-0.996 3.246,-2.929l0,-7.329l-0.779,0l0,7.329c0,1.443 -0.996,2.193 -2.467,2.193c-1.14,0 -2.006,-0.433 -2.366,-1.342l-0.65,0.39c0.491,1.111 1.631,1.688 3.016,1.688Z" style="fill:#fff;fill-rule:nonzero;"/><path d="M467.194,329.463c2.005,0 3.318,-1.097 3.318,-2.77c0,-1.746 -1.558,-2.309 -3.347,-2.9c-1.443,-0.476 -2.467,-0.851 -2.467,-2.063c0,-1.125 0.88,-1.948 2.279,-1.948c1.443,0 2.222,0.837 2.597,1.746l0.649,-0.361c-0.49,-1.168 -1.587,-2.121 -3.246,-2.121c-1.717,0 -3.058,1.054 -3.058,2.713c0,1.76 1.515,2.236 3.203,2.784c1.543,0.491 2.611,0.952 2.611,2.164c0,1.154 -0.851,2.02 -2.539,2.02c-1.659,0 -2.684,-0.822 -3.03,-2.034l-0.664,0.389c0.462,1.429 1.804,2.381 3.694,2.381Z" style="fill:#fff;fill-rule:nonzero;"/><path d="M476.946,329.463c2.915,0 5.208,-2.323 5.208,-5.208c0,-2.886 -2.293,-5.209 -5.208,-5.209c-2.914,0 -5.208,2.323 -5.208,5.209c0,2.885 2.294,5.208 5.208,5.208Zm0,-0.736c-2.496,0 -4.443,-1.991 -4.443,-4.472c0,-2.482 1.947,-4.473 4.443,-4.473c2.496,0 4.444,1.991 4.444,4.473c0,2.481 -1.948,4.472 -4.444,4.472Z" style="fill:#fff;fill-rule:nonzero;"/><path d="M490.724,319.205l0,8.685l-5.973,-8.685l-0.663,0l0,10.099l0.764,0l0,-8.685l5.959,8.685l0.678,0l0,-10.099l-0.765,0Z" style="fill:#fff;fill-rule:nonzero;"/><g><g><path d="M566.392,329.304l0.88,0l-2.511,-4.242c1.284,-0.346 2.222,-1.5 2.222,-2.871c0,-1.644 -1.342,-2.986 -2.986,-2.986l-3.982,0l0,10.099l0.764,0l0,-4.141l3.189,0l2.424,4.141Zm-5.613,-9.378l3.218,0c1.226,0 2.221,1.01 2.221,2.265c0,1.241 -0.995,2.251 -2.221,2.251l-3.218,0l0,-4.516Z" style="fill:#fff;fill-rule:nonzero;"/><path d="M569.623,328.583l0,-4.011l4.617,0l0,-0.722l-4.617,0l0,-3.924l4.978,0l0,-0.721l-5.742,0l0,10.099l5.814,0l0,-0.721l-5.05,0Z" style="fill:#fff;fill-rule:nonzero;"/><path d="M583.489,329.304l0.808,0l-3.91,-10.099l-0.808,0l-3.924,10.099l0.808,0l0.981,-2.568l5.064,0l0.981,2.568Zm-5.757,-3.289l2.251,-5.872l2.251,5.872l-4.502,0Z" style="fill:#fff;fill-rule:nonzero;"/><path d="M590.082,329.463c1.89,0 3.534,-0.981 4.357,-2.467l-0.678,-0.39c-0.664,1.27 -2.078,2.121 -3.679,2.121c-2.655,0 -4.487,-1.991 -4.487,-4.473c0,-2.481 1.832,-4.472 4.487,-4.472c1.587,0 2.986,0.837 3.65,2.078l0.678,-0.39c-0.837,-1.472 -2.467,-2.424 -4.328,-2.424c-3.073,0 -5.252,2.323 -5.252,5.208c0,2.886 2.179,5.209 5.252,5.209Z" style="fill:#fff;fill-rule:nonzero;"/></g><path d="M602.306,319.205l-7.127,0l0,0.721l3.174,0l0,9.378l0.779,0l0,-9.378l3.174,0l0,-0.721Z" style="fill:#fff;fill-rule:nonzero;"/></g><g><path d="M638.515,329.304l0.808,0l3.765,-10.099l-0.822,0l-3.347,9.104l-3.333,-9.104l-0.836,0l3.765,10.099Z" style="fill:#fff;fill-rule:nonzero;"/><path d="M648.095,329.463c2.221,0 3.707,-1.4 3.707,-3.535l0,-6.723l-0.764,0l0,6.723c0,1.645 -1.025,2.799 -2.943,2.799c-1.905,0 -2.929,-1.154 -2.929,-2.799l0,-6.723l-0.765,0l0,6.723c0,2.135 1.472,3.535 3.694,3.535Z" style="fill:#fff;fill-rule:nonzero;"/><path d="M654.933,328.583l0,-4.011l4.617,0l0,-0.721l-4.617,0l0,-3.925l4.977,0l0,-0.721l-5.742,0l0,10.099l5.814,0l0,-0.721l-5.049,0Z" style="fill:#fff;fill-rule:nonzero;"/><path d="M662.146,329.448c0.361,0 0.65,-0.288 0.65,-0.649c0,-0.361 -0.289,-0.649 -0.65,-0.649c-0.375,0 -0.649,0.288 -0.649,0.649c0,0.361 0.274,0.649 0.649,0.649Z" style="fill:#fff;fill-rule:nonzero;"/><path d="M667.456,329.463c1.789,0 3.246,-0.996 3.246,-2.929l0,-7.329l-0.779,0l0,7.329c0,1.443 -0.996,2.193 -2.467,2.193c-1.14,0 -2.006,-0.433 -2.366,-1.342l-0.65,0.39c0.491,1.111 1.631,1.688 3.016,1.688Z" style="fill:#fff;fill-rule:nonzero;"/><path d="M676.141,329.463c2.005,0 3.318,-1.097 3.318,-2.77c0,-1.746 -1.558,-2.309 -3.347,-2.9c-1.443,-0.476 -2.467,-0.851 -2.467,-2.063c0,-1.125 0.88,-1.948 2.279,-1.948c1.443,0 2.222,0.837 2.597,1.746l0.649,-0.361c-0.49,-1.168 -1.587,-2.121 -3.246,-2.121c-1.717,0 -3.058,1.054 -3.058,2.713c0,1.76 1.515,2.236 3.203,2.784c1.543,0.491 2.611,0.952 2.611,2.164c0,1.154 -0.851,2.02 -2.539,2.02c-1.659,0 -2.684,-0.822 -3.03,-2.034l-0.664,0.389c0.462,1.429 1.804,2.381 3.694,2.381Z" style="fill:#fff;fill-rule:nonzero;"/></g><g><path d="M711.335,324.067c0.779,-0.418 1.299,-1.226 1.299,-2.207c0,-1.457 -1.183,-2.655 -2.655,-2.655l-4.025,0l0,10.099l4.357,0c1.529,0 2.756,-1.226 2.756,-2.756c0,-1.154 -0.722,-2.091 -1.732,-2.481Zm-1.356,-4.141c1.039,0 1.89,0.866 1.89,1.934c0,1.067 -0.851,1.933 -1.89,1.933l-3.26,0l0,-3.867l3.26,0Zm0.332,8.657l-3.592,0l0,-4.069l3.592,0c1.097,0 1.991,0.909 1.991,2.034c0,1.126 -0.894,2.035 -1.991,2.035Z" style="fill:#fff;fill-rule:nonzero;"/><path d="M719.573,329.463c2.914,0 5.208,-2.323 5.208,-5.208c0,-2.886 -2.294,-5.209 -5.208,-5.209c-2.914,0 -5.208,2.323 -5.208,5.209c0,2.885 2.294,5.208 5.208,5.208Zm0,-0.736c-2.496,0 -4.443,-1.991 -4.443,-4.472c0,-2.482 1.947,-4.473 4.443,-4.473c2.496,0 4.444,1.991 4.444,4.473c0,2.481 -1.948,4.472 -4.444,4.472Z" style="fill:#fff;fill-rule:nonzero;"/><path d="M731.346,329.463c2.914,0 5.208,-2.323 5.208,-5.208c0,-2.886 -2.294,-5.209 -5.208,-5.209c-2.915,0 -5.208,2.323 -5.208,5.209c0,2.885 2.293,5.208 5.208,5.208Zm0,-0.736c-2.496,0 -4.444,-1.991 -4.444,-4.472c0,-2.482 1.948,-4.473 4.444,-4.473c2.496,0 4.443,1.991 4.443,4.473c0,2.481 -1.947,4.472 -4.443,4.472Z" style="fill:#fff;fill-rule:nonzero;"/><path d="M744.114,319.205l-7.127,0l0,0.721l3.174,0l0,9.378l0.779,0l0,-9.378l3.174,0l0,-0.721Z" style="fill:#fff;fill-rule:nonzero;"/><path d="M748.5,329.463c2.005,0 3.318,-1.097 3.318,-2.77c0,-1.746 -1.558,-2.309 -3.347,-2.9c-1.443,-0.476 -2.467,-0.851 -2.467,-2.063c0,-1.125 0.88,-1.948 2.279,-1.948c1.443,0 2.222,0.837 2.597,1.746l0.649,-0.361c-0.49,-1.168 -1.587,-2.121 -3.246,-2.121c-1.717,0 -3.058,1.054 -3.058,2.713c0,1.76 1.514,2.236 3.202,2.784c1.544,0.491 2.612,0.952 2.612,2.164c0,1.154 -0.851,2.02 -2.539,2.02c-1.66,0 -2.684,-0.822 -3.03,-2.034l-0.664,0.389c0.462,1.429 1.804,2.381 3.694,2.381Z" style="fill:#fff;fill-rule:nonzero;"/><path d="M759.536,319.205l-7.127,0l0,0.721l3.174,0l0,9.378l0.779,0l0,-9.378l3.174,0l0,-0.721Z" style="fill:#fff;fill-rule:nonzero;"/><path d="M767.5,329.304l0.88,0l-2.51,-4.242c1.284,-0.346 2.221,-1.5 2.221,-2.871c0,-1.644 -1.341,-2.986 -2.986,-2.986l-3.982,0l0,10.099l0.765,0l0,-4.141l3.188,0l2.424,4.141Zm-5.612,-9.378l3.217,0c1.226,0 2.222,1.01 2.222,2.265c0,1.241 -0.996,2.251 -2.222,2.251l-3.217,0l0,-4.516Z" style="fill:#fff;fill-rule:nonzero;"/><path d="M776.762,329.304l0.808,0l-3.91,-10.099l-0.808,0l-3.924,10.099l0.808,0l0.981,-2.568l5.064,0l0.981,2.568Zm-5.756,-3.289l2.25,-5.872l2.251,5.872l-4.501,0Z" style="fill:#fff;fill-rule:nonzero;"/><path d="M782.475,319.205l-3.433,0l0,10.099l0.764,0l0,-3.852l2.669,0c1.818,0 3.145,-1.342 3.145,-3.116c0,-1.789 -1.327,-3.131 -3.145,-3.131Zm0,5.526l-2.669,0l0,-4.805l2.669,0c1.385,0 2.381,1.01 2.381,2.41c0,1.385 -0.996,2.395 -2.381,2.395Z" style="fill:#fff;fill-rule:nonzero;"/></g><g><path d="M875.488,113.55l0,-2.826l4.77,0l0,-2.34l-4.77,0l0,-2.682l5.22,0l0,-2.376l-7.704,0l0,12.6l7.794,0l0,-2.376l-5.31,0Z" style="fill:#fff;fill-rule:nonzero;"/><path d="M892.138,115.926l-3.87,-6.48l3.654,-6.12l-2.808,0l-2.25,3.78l-2.25,-3.78l-2.808,0l3.654,6.138l-3.852,6.462l2.808,0l2.448,-4.104l2.448,4.104l2.826,0Z" style="fill:#fff;fill-rule:nonzero;"/><path d="M901.858,103.326l-9.27,0l0,2.376l3.384,0l0,10.224l2.484,0l0,-10.224l3.402,0l0,-2.376Z" style="fill:#fff;fill-rule:nonzero;"/><path d="M905.728,113.55l0,-2.826l4.77,0l0,-2.34l-4.77,0l0,-2.682l5.22,0l0,-2.376l-7.704,0l0,12.6l7.794,0l0,-2.376l-5.31,0Z" style="fill:#fff;fill-rule:nonzero;"/><path d="M919.696,115.926l2.682,0l-2.79,-4.752c1.44,-0.666 2.43,-2.088 2.43,-3.672c0,-2.304 -1.872,-4.176 -4.194,-4.176l-5.04,0l0,12.6l2.484,0l0,-4.374l1.89,0l2.538,4.374Zm-4.428,-10.278l2.556,0c0.936,0 1.71,0.81 1.71,1.854c0,1.044 -0.774,1.872 -1.71,1.872l-2.556,0l0,-3.726Z" style="fill:#fff;fill-rule:nonzero;"/><path d="M931.126,103.326l0,7.686l-5.4,-7.686l-1.89,0l0,12.6l2.484,0l0,-7.704l5.4,7.704l1.89,0l0,-12.6l-2.484,0Z" style="fill:#fff;fill-rule:nonzero;"/><path d="M944.05,115.926l2.7,0l-4.428,-12.6l-3.078,0l-4.41,12.6l2.682,0l0.756,-2.268l5.022,0l0.756,2.268Zm-4.986,-4.59l1.728,-5.148l1.728,5.148l-3.456,0Z" style="fill:#fff;fill-rule:nonzero;"/><path d="M950.458,113.55l0,-10.224l-2.484,0l0,12.6l7.29,0l0,-2.376l-4.806,0Z" style="fill:#fff;fill-rule:nonzero;"/><g><path d="M869.656,136.726c2.682,0 4.572,-1.44 4.572,-3.798c0,-2.574 -2.124,-3.24 -4.122,-3.87c-1.908,-0.576 -2.394,-0.99 -2.394,-1.764c0,-0.72 0.612,-1.26 1.656,-1.26c1.278,0 1.962,0.666 2.412,1.62l2.088,-1.206c-0.846,-1.764 -2.43,-2.826 -4.5,-2.826c-2.16,0 -4.14,1.368 -4.14,3.744c0,2.394 1.872,3.204 3.798,3.762c1.872,0.54 2.718,0.9 2.718,1.836c0,0.702 -0.522,1.332 -2.016,1.332c-1.566,0 -2.448,-0.756 -2.898,-1.926l-2.124,1.242c0.684,1.872 2.376,3.114 4.95,3.114Z" style="fill:#fff;fill-rule:nonzero;"/><path d="M881.716,136.726c3.636,0 6.552,-2.88 6.552,-6.552c0,-3.69 -2.916,-6.552 -6.552,-6.552c-3.636,0 -6.534,2.862 -6.534,6.552c0,3.672 2.898,6.552 6.534,6.552Zm0,-2.43c-2.286,0 -4.068,-1.71 -4.068,-4.122c0,-2.43 1.782,-4.14 4.068,-4.14c2.286,0 4.068,1.71 4.068,4.14c0,2.412 -1.782,4.122 -4.068,4.122Z" style="fill:#fff;fill-rule:nonzero;"/><path d="M897.538,126.25l0,-2.376l-7.524,0l0,12.6l2.484,0l0,-4.86l4.896,0l0,-2.376l-4.896,0l0,-2.988l5.04,0Z" style="fill:#fff;fill-rule:nonzero;"/><path d="M907.69,123.874l-9.27,0l0,2.376l3.384,0l0,10.224l2.484,0l0,-10.224l3.402,0l0,-2.376Z" style="fill:#fff;fill-rule:nonzero;"/><path d="M911.704,136.474l2.826,0l2.358,-8.316l2.376,8.316l2.826,0l3.528,-12.6l-2.61,0l-2.412,9.342l-2.646,-9.342l-2.124,0l-2.628,9.342l-2.412,-9.342l-2.61,0l3.528,12.6Z" style="fill:#fff;fill-rule:nonzero;"/><path d="M934.434,136.474l2.7,0l-4.428,-12.6l-3.078,0l-4.41,12.6l2.682,0l0.756,-2.268l5.022,0l0.756,2.268Zm-4.986,-4.59l1.728,-5.148l1.728,5.148l-3.456,0Z" style="fill:#fff;fill-rule:nonzero;"/><path d="M945.27,136.474l2.682,0l-2.79,-4.752c1.44,-0.666 2.43,-2.088 2.43,-3.672c0,-2.304 -1.872,-4.176 -4.194,-4.176l-5.04,0l0,12.6l2.484,0l0,-4.374l1.89,0l2.538,4.374Zm-4.428,-10.278l2.556,0c0.936,0 1.71,0.81 1.71,1.854c0,1.044 -0.774,1.872 -1.71,1.872l-2.556,0l0,-3.726Z" style="fill:#fff;fill-rule:nonzero;"/><path d="M951.894,134.098l0,-2.826l4.77,0l0,-2.34l-4.77,0l0,-2.682l5.22,0l0,-2.376l-7.704,0l0,12.6l7.794,0l0,-2.376l-5.31,0Z" style="fill:#fff;fill-rule:nonzero;"/></g></g><g><path d="M882.581,320.076l2.559,0l-2.662,-4.534c1.374,-0.636 2.318,-1.993 2.318,-3.504c0,-2.198 -1.786,-3.984 -4.002,-3.984l-4.809,0l0,12.022l2.371,0l0,-4.174l1.803,0l2.422,4.174Zm-4.225,-9.807l2.438,0c0.893,0 1.632,0.773 1.632,1.769c0,0.996 -0.739,1.786 -1.632,1.786l-2.438,0l0,-3.555Z" style="fill:#fff;fill-rule:nonzero;"/><path d="M888.901,317.809l0,-2.697l4.551,0l0,-2.232l-4.551,0l0,-2.559l4.981,0l0,-2.267l-7.351,0l0,12.022l7.437,0l0,-2.267l-5.067,0Z" style="fill:#fff;fill-rule:nonzero;"/><path d="M899.738,320.316c2.559,0 4.363,-1.374 4.363,-3.623c0,-2.457 -2.027,-3.092 -3.933,-3.693c-1.821,-0.55 -2.285,-0.945 -2.285,-1.683c0,-0.687 0.584,-1.203 1.581,-1.203c1.219,0 1.872,0.636 2.301,1.546l1.992,-1.15c-0.807,-1.684 -2.318,-2.697 -4.293,-2.697c-2.061,0 -3.951,1.305 -3.951,3.572c0,2.285 1.787,3.058 3.624,3.59c1.786,0.515 2.594,0.859 2.594,1.752c0,0.67 -0.498,1.271 -1.924,1.271c-1.494,0 -2.336,-0.722 -2.765,-1.838l-2.027,1.185c0.653,1.786 2.267,2.971 4.723,2.971Z" style="fill:#fff;fill-rule:nonzero;"/><path d="M913.17,308.054l-8.845,0l0,2.267l3.229,0l0,9.755l2.37,0l0,-9.755l3.246,0l0,-2.267Z" style="fill:#fff;fill-rule:nonzero;"/><path d="M926.515,320.076l2.577,0l-4.225,-12.022l-2.937,0l-4.208,12.022l2.559,0l0.721,-2.164l4.792,0l0.721,2.164Zm-4.757,-4.38l1.649,-4.912l1.648,4.912l-3.297,0Z" style="fill:#fff;fill-rule:nonzero;"/><path d="M934.742,308.054l-4.482,0l0,12.022l2.37,0l0,-3.95l2.112,0c2.319,0 4.105,-1.786 4.105,-4.036c0,-2.25 -1.786,-4.036 -4.105,-4.036Zm0,5.856l-2.112,0l0,-3.641l2.112,0c1.014,0 1.752,0.773 1.752,1.821c0,1.03 -0.738,1.82 -1.752,1.82Z" style="fill:#fff;fill-rule:nonzero;"/><rect x="940.393" y="308.054" width="2.37" height="12.022" style="fill:#fff;fill-rule:nonzero;"/></g><g><path d="M58.511,133.103l0,-2.826l4.77,0l0,-2.34l-4.77,0l0,-2.682l5.22,0l0,-2.376l-7.704,0l0,12.6l7.794,0l0,-2.376l-5.31,0Z" style="fill:#fff;fill-rule:nonzero;"/><path d="M70.571,122.879l-5.004,0l0,12.6l5.004,0c3.474,0 6.066,-2.754 6.066,-6.3c0,-3.546 -2.592,-6.3 -6.066,-6.3Zm0,10.224l-2.52,0l0,-7.848l2.52,0c2.178,0 3.69,1.602 3.69,3.924c0,2.322 -1.512,3.924 -3.69,3.924Z" style="fill:#fff;fill-rule:nonzero;"/><rect x="78.401" y="122.879" width="2.484" height="12.6" style="fill:#fff;fill-rule:nonzero;"/><path d="M91.559,122.879l-9.27,0l0,2.376l3.384,0l0,10.224l2.484,0l0,-10.224l3.402,0l0,-2.376Z" style="fill:#fff;fill-rule:nonzero;"/><path d="M98.183,135.731c3.636,0 6.552,-2.88 6.552,-6.552c0,-3.69 -2.916,-6.552 -6.552,-6.552c-3.636,0 -6.534,2.862 -6.534,6.552c0,3.672 2.898,6.552 6.534,6.552Zm0,-2.43c-2.286,0 -4.068,-1.71 -4.068,-4.122c0,-2.43 1.782,-4.14 4.068,-4.14c2.286,0 4.068,1.71 4.068,4.14c0,2.412 -1.782,4.122 -4.068,4.122Z" style="fill:#fff;fill-rule:nonzero;"/><path d="M113.393,135.479l2.682,0l-2.79,-4.752c1.44,-0.666 2.43,-2.088 2.43,-3.672c0,-2.304 -1.872,-4.176 -4.194,-4.176l-5.04,0l0,12.6l2.484,0l0,-4.374l1.89,0l2.538,4.374Zm-4.428,-10.278l2.556,0c0.936,0 1.71,0.81 1.71,1.854c0,1.044 -0.774,1.872 -1.71,1.872l-2.556,0l0,-3.726Z" style="fill:#fff;fill-rule:nonzero;"/><path d="M121.637,135.731c2.682,0 4.572,-1.44 4.572,-3.798c0,-2.574 -2.124,-3.24 -4.122,-3.87c-1.908,-0.576 -2.394,-0.99 -2.394,-1.764c0,-0.72 0.612,-1.26 1.656,-1.26c1.278,0 1.962,0.666 2.412,1.62l2.088,-1.206c-0.846,-1.764 -2.43,-2.826 -4.5,-2.826c-2.16,0 -4.14,1.368 -4.14,3.744c0,2.394 1.872,3.204 3.798,3.762c1.872,0.54 2.718,0.9 2.718,1.836c0,0.702 -0.522,1.332 -2.016,1.332c-1.566,0 -2.448,-0.756 -2.898,-1.926l-2.124,1.242c0.684,1.872 2.376,3.114 4.95,3.114Z" style="fill:#fff;fill-rule:nonzero;"/></g><g><path d="M70.051,309.411l2.7,0l-4.428,-12.6l-3.078,0l-4.41,12.6l2.682,0l0.756,-2.268l5.022,0l0.756,2.268Zm-4.986,-4.59l1.728,-5.148l1.728,5.148l-3.456,0Z" style="fill:#fff;fill-rule:nonzero;"/><path d="M78.979,296.811l-5.004,0l0,12.6l5.004,0c3.474,0 6.066,-2.754 6.066,-6.3c0,-3.546 -2.592,-6.3 -6.066,-6.3Zm0,10.224l-2.52,0l0,-7.848l2.52,0c2.178,0 3.69,1.602 3.69,3.924c0,2.322 -1.512,3.924 -3.69,3.924Z" style="fill:#fff;fill-rule:nonzero;"/><path d="M99.139,296.811l-2.556,0l-3.6,5.958l-3.618,-5.958l-2.556,0l0,12.6l2.484,0l0,-8.154l3.546,5.832l0.288,0l3.546,-5.85l0,8.172l2.466,0l0,-12.6Z" style="fill:#fff;fill-rule:nonzero;"/><rect x="101.479" y="296.811" width="2.484" height="12.6" style="fill:#fff;fill-rule:nonzero;"/><path d="M113.593,296.811l0,7.686l-5.4,-7.686l-1.89,0l0,12.6l2.484,0l0,-7.704l5.4,7.704l1.89,0l0,-12.6l-2.484,0Z" style="fill:#fff;fill-rule:nonzero;"/><g><rect x="39.507" y="317.359" width="2.484" height="12.6" style="fill:#fff;fill-rule:nonzero;"/><path d="M51.621,317.359l0,7.686l-5.4,-7.686l-1.89,0l0,12.6l2.484,0l0,-7.704l5.4,7.704l1.89,0l0,-12.6l-2.484,0Z" style="fill:#fff;fill-rule:nonzero;"/><path d="M64.779,317.359l-9.27,0l0,2.376l3.384,0l0,10.224l2.484,0l0,-10.224l3.402,0l0,-2.376Z" style="fill:#fff;fill-rule:nonzero;"/><path d="M68.649,327.583l0,-2.826l4.77,0l0,-2.34l-4.77,0l0,-2.682l5.22,0l0,-2.376l-7.704,0l0,12.6l7.794,0l0,-2.376l-5.31,0Z" style="fill:#fff;fill-rule:nonzero;"/><path d="M82.617,329.959l2.682,0l-2.79,-4.752c1.44,-0.666 2.43,-2.088 2.43,-3.672c0,-2.304 -1.872,-4.176 -4.194,-4.176l-5.04,0l0,12.6l2.484,0l0,-4.374l1.89,0l2.538,4.374Zm-4.428,-10.278l2.556,0c0.936,0 1.71,0.81 1.71,1.854c0,1.044 -0.774,1.872 -1.71,1.872l-2.556,0l0,-3.726Z" style="fill:#fff;fill-rule:nonzero;"/><path d="M94.281,319.735l0,-2.376l-7.524,0l0,12.6l2.484,0l0,-4.86l4.896,0l0,-2.376l-4.896,0l0,-2.988l5.04,0Z" style="fill:#fff;fill-rule:nonzero;"/><path d="M103.641,329.959l2.7,0l-4.428,-12.6l-3.078,0l-4.41,12.6l2.682,0l0.756,-2.268l5.022,0l0.756,2.268Zm-4.986,-4.59l1.728,-5.148l1.728,5.148l-3.456,0Z" style="fill:#fff;fill-rule:nonzero;"/><path d="M113.091,330.211c2.322,0 4.356,-1.17 5.418,-2.97l-2.142,-1.242c-0.594,1.098 -1.836,1.782 -3.276,1.782c-2.466,0 -4.086,-1.71 -4.086,-4.122c0,-2.43 1.62,-4.14 4.086,-4.14c1.44,0 2.664,0.684 3.276,1.8l2.142,-1.242c-1.08,-1.8 -3.114,-2.97 -5.418,-2.97c-3.816,0 -6.552,2.862 -6.552,6.552c0,3.672 2.736,6.552 6.552,6.552Z" style="fill:#fff;fill-rule:nonzero;"/><path d="M122.523,327.583l0,-2.826l4.77,0l0,-2.34l-4.77,0l0,-2.682l5.22,0l0,-2.376l-7.704,0l0,12.6l7.794,0l0,-2.376l-5.31,0Z" style="fill:#fff;fill-rule:nonzero;"/></g></g><g><path d="M350.102,392.596l0,-2.267l-7.18,0l0,12.023l2.371,0l0,-4.638l4.672,0l0,-2.267l-4.672,0l0,-2.851l4.809,0Z" style="fill:#fff;fill-rule:nonzero;"/><path d="M354.207,400.085l0,-9.756l-2.37,0l0,12.023l6.956,0l0,-2.267l-4.586,0Z" style="fill:#fff;fill-rule:nonzero;"/><path d="M362.503,400.085l0,-2.697l4.552,0l0,-2.233l-4.552,0l0,-2.559l4.981,0l0,-2.267l-7.351,0l0,12.023l7.437,0l0,-2.267l-5.067,0Z" style="fill:#fff;fill-rule:nonzero;"/><path d="M378.391,402.352l-3.693,-6.183l3.487,-5.84l-2.68,0l-2.147,3.607l-2.147,-3.607l-2.679,0l3.487,5.857l-3.676,6.166l2.679,0l2.336,-3.916l2.336,3.916l2.697,0Z" style="fill:#fff;fill-rule:nonzero;"/><rect x="379.713" y="390.329" width="2.37" height="12.023" style="fill:#fff;fill-rule:nonzero;"/><path d="M391.582,396.117c0.704,-0.567 1.134,-1.374 1.134,-2.405c0,-2.009 -1.632,-3.383 -3.659,-3.383l-4.74,0l0,12.023l5.101,0c2.078,0 3.744,-1.426 3.744,-3.487c0,-1.254 -0.618,-2.198 -1.58,-2.748Zm-2.525,-3.572c0.756,0 1.288,0.566 1.288,1.322c0,0.756 -0.549,1.323 -1.288,1.323l-2.37,0l0,-2.645l2.37,0Zm0.361,7.591l-2.731,0l0,-2.834l2.731,0c0.807,0 1.391,0.601 1.391,1.409c0,0.824 -0.584,1.425 -1.391,1.425Z" style="fill:#fff;fill-rule:nonzero;"/><path d="M397.078,400.085l0,-9.756l-2.37,0l0,12.023l6.956,0l0,-2.267l-4.586,0Z" style="fill:#fff;fill-rule:nonzero;"/><path d="M405.374,400.085l0,-2.697l4.552,0l0,-2.233l-4.552,0l0,-2.559l4.981,0l0,-2.267l-7.351,0l0,12.023l7.437,0l0,-2.267l-5.067,0Z" style="fill:#fff;fill-rule:nonzero;"/><path d="M418.772,400.085l0,-2.697l4.551,0l0,-2.233l-4.551,0l0,-2.559l4.981,0l0,-2.267l-7.352,0l0,12.023l7.438,0l0,-2.267l-5.067,0Z" style="fill:#fff;fill-rule:nonzero;"/><path d="M428.476,402.352l2.937,0l4.054,-12.023l-2.594,0l-2.92,9.24l-2.937,-9.24l-2.576,0l4.036,12.023Z" style="fill:#fff;fill-rule:nonzero;"/><path d="M438.988,400.085l0,-2.697l4.551,0l0,-2.233l-4.551,0l0,-2.559l4.981,0l0,-2.267l-7.351,0l0,12.023l7.437,0l0,-2.267l-5.067,0Z" style="fill:#fff;fill-rule:nonzero;"/><path d="M452.677,390.329l0,7.334l-5.153,-7.334l-1.803,0l0,12.023l2.37,0l0,-7.351l5.153,7.351l1.803,0l0,-12.023l-2.37,0Z" style="fill:#fff;fill-rule:nonzero;"/><path d="M465.233,390.329l-8.846,0l0,2.267l3.229,0l0,9.756l2.37,0l0,-9.756l3.247,0l0,-2.267Z" style="fill:#fff;fill-rule:nonzero;"/><path d="M475.624,390.329l-4.775,0l0,12.023l4.775,0c3.315,0 5.789,-2.628 5.789,-6.012c0,-3.383 -2.474,-6.011 -5.789,-6.011Zm0,9.756l-2.404,0l0,-7.489l2.404,0c2.079,0 3.521,1.529 3.521,3.744c0,2.216 -1.442,3.745 -3.521,3.745Z" style="fill:#fff;fill-rule:nonzero;"/><path d="M489.691,402.352l2.56,0l-2.663,-4.534c1.374,-0.636 2.319,-1.993 2.319,-3.504c0,-2.199 -1.786,-3.985 -4.002,-3.985l-4.809,0l0,12.023l2.37,0l0,-4.174l1.804,0l2.421,4.174Zm-4.225,-9.807l2.439,0c0.893,0 1.632,0.772 1.632,1.769c0,0.996 -0.739,1.786 -1.632,1.786l-2.439,0l0,-3.555Z" style="fill:#fff;fill-rule:nonzero;"/><rect x="493.642" y="390.329" width="2.37" height="12.023" style="fill:#fff;fill-rule:nonzero;"/><path d="M501.216,402.352l2.938,0l4.053,-12.023l-2.593,0l-2.92,9.24l-2.938,-9.24l-2.576,0l4.036,12.023Z" style="fill:#fff;fill-rule:nonzero;"/><path d="M511.728,400.085l0,-2.697l4.552,0l0,-2.233l-4.552,0l0,-2.559l4.981,0l0,-2.267l-7.351,0l0,12.023l7.437,0l0,-2.267l-5.067,0Z" style="fill:#fff;fill-rule:nonzero;"/><path d="M525.417,390.329l0,7.334l-5.152,-7.334l-1.804,0l0,12.023l2.37,0l0,-7.351l5.153,7.351l1.804,0l0,-12.023l-2.371,0Z" style="fill:#fff;fill-rule:nonzero;"/><path d="M542.044,402.352l2.576,0l-4.225,-12.023l-2.937,0l-4.208,12.023l2.559,0l0.721,-2.164l4.792,0l0.722,2.164Zm-4.758,-4.38l1.649,-4.912l1.649,4.912l-3.298,0Z" style="fill:#fff;fill-rule:nonzero;"/><path d="M552.384,402.352l2.559,0l-2.662,-4.534c1.374,-0.636 2.318,-1.993 2.318,-3.504c0,-2.199 -1.786,-3.985 -4.002,-3.985l-4.809,0l0,12.023l2.37,0l0,-4.174l1.804,0l2.422,4.174Zm-4.226,-9.807l2.439,0c0.894,0 1.632,0.772 1.632,1.769c0,0.996 -0.738,1.786 -1.632,1.786l-2.439,0l0,-3.555Z" style="fill:#fff;fill-rule:nonzero;"/><path d="M561.902,402.592c2.216,0 4.156,-1.116 5.17,-2.834l-2.044,-1.185c-0.567,1.048 -1.752,1.701 -3.126,1.701c-2.353,0 -3.899,-1.632 -3.899,-3.934c0,-2.318 1.546,-3.95 3.899,-3.95c1.374,0 2.542,0.653 3.126,1.718l2.044,-1.186c-1.031,-1.717 -2.972,-2.834 -5.17,-2.834c-3.641,0 -6.252,2.731 -6.252,6.252c0,3.504 2.611,6.252 6.252,6.252Z" style="fill:#fff;fill-rule:nonzero;"/><path d="M575.368,390.329l0,4.775l-4.466,0l0,-4.775l-2.37,0l0,12.023l2.37,0l0,-4.981l4.466,0l0,4.981l2.353,0l0,-12.023l-2.353,0Z" style="fill:#fff;fill-rule:nonzero;"/><rect x="579.954" y="390.329" width="2.37" height="12.023" style="fill:#fff;fill-rule:nonzero;"/><path d="M592.51,390.329l-8.846,0l0,2.267l3.229,0l0,9.756l2.37,0l0,-9.756l3.247,0l0,-2.267Z" style="fill:#fff;fill-rule:nonzero;"/><path d="M596.202,400.085l0,-2.697l4.552,0l0,-2.233l-4.552,0l0,-2.559l4.981,0l0,-2.267l-7.351,0l0,12.023l7.437,0l0,-2.267l-5.067,0Z" style="fill:#fff;fill-rule:nonzero;"/><path d="M608.552,402.592c2.216,0 4.156,-1.116 5.17,-2.834l-2.044,-1.185c-0.567,1.048 -1.752,1.701 -3.126,1.701c-2.353,0 -3.899,-1.632 -3.899,-3.934c0,-2.318 1.546,-3.95 3.899,-3.95c1.374,0 2.542,0.653 3.126,1.718l2.044,-1.186c-1.031,-1.717 -2.972,-2.834 -5.17,-2.834c-3.641,0 -6.252,2.731 -6.252,6.252c0,3.504 2.611,6.252 6.252,6.252Z" style="fill:#fff;fill-rule:nonzero;"/><path d="M623.084,390.329l-8.846,0l0,2.267l3.229,0l0,9.756l2.371,0l0,-9.756l3.246,0l0,-2.267Z" style="fill:#fff;fill-rule:nonzero;"/><path d="M628.889,402.592c2.646,0 4.604,-1.58 4.604,-4.173l0,-8.09l-2.371,0l0,7.901c0,1.168 -0.618,2.044 -2.233,2.044c-1.614,0 -2.232,-0.876 -2.232,-2.044l0,-7.901l-2.354,0l0,8.09c0,2.593 1.958,4.173 4.586,4.173Z" style="fill:#fff;fill-rule:nonzero;"/><path d="M642.218,402.352l2.559,0l-2.662,-4.534c1.374,-0.636 2.319,-1.993 2.319,-3.504c0,-2.199 -1.787,-3.985 -4.002,-3.985l-4.81,0l0,12.023l2.371,0l0,-4.174l1.803,0l2.422,4.174Zm-4.225,-9.807l2.439,0c0.893,0 1.631,0.772 1.631,1.769c0,0.996 -0.738,1.786 -1.631,1.786l-2.439,0l0,-3.555Z" style="fill:#fff;fill-rule:nonzero;"/><path d="M648.539,400.085l0,-2.697l4.551,0l0,-2.233l-4.551,0l0,-2.559l4.981,0l0,-2.267l-7.352,0l0,12.023l7.438,0l0,-2.267l-5.067,0Z" style="fill:#fff;fill-rule:nonzero;"/></g><g><path d="M62.302,530.816c2.291,0 3.792,-1.253 3.792,-3.165c0,-1.995 -1.781,-2.638 -3.825,-3.314c-1.649,-0.544 -2.82,-0.973 -2.82,-2.358c0,-1.286 1.006,-2.225 2.605,-2.225c1.649,0 2.539,0.956 2.968,1.995l0.742,-0.413c-0.561,-1.335 -1.814,-2.423 -3.71,-2.423c-1.962,0 -3.495,1.203 -3.495,3.099c0,2.012 1.731,2.556 3.66,3.182c1.764,0.561 2.984,1.088 2.984,2.473c0,1.319 -0.972,2.309 -2.901,2.309c-1.896,0 -3.067,-0.94 -3.463,-2.325l-0.758,0.445c0.527,1.632 2.061,2.72 4.221,2.72Z" style="fill:#fff;fill-rule:nonzero;"/><path d="M73.776,522.391l-2.869,7.337l-3.33,-7.337l-0.891,0l3.792,8.392l-0.181,0.446c-0.511,1.203 -1.352,2.027 -2.457,1.929l0,0.774c1.418,0.116 2.638,-0.956 3.265,-2.539l3.561,-9.002l-0.89,0Z" style="fill:#fff;fill-rule:nonzero;"/><path d="M84.954,522.21c-1.105,0 -2.16,0.528 -2.753,1.682c-0.429,-1.088 -1.369,-1.682 -2.572,-1.682c-1.056,0 -2.045,0.462 -2.655,1.599l0,-1.418l-0.824,0l0,8.244l0.824,0l0,-4.6c0,-2.11 1.204,-3.033 2.556,-3.033c1.269,0 2.11,0.84 2.11,2.407l0,5.226l0.824,0l0,-4.6c0,-2.11 1.089,-3.033 2.473,-3.033c1.286,0 2.193,0.84 2.193,2.407l0,5.226l0.825,0l0,-5.226c0,-2.061 -1.253,-3.199 -3.001,-3.199Z" style="fill:#fff;fill-rule:nonzero;"/><path d="M94.17,519.704l0,-0.791c-2.16,-0.165 -3.297,1.005 -3.297,3.033l0,0.445l-1.418,0l0,0.808l1.418,0l0,7.436l0.841,0l0,-7.436l2.456,0l0,-0.808l-2.456,0l0,-0.445c0,-1.599 0.774,-2.374 2.456,-2.242Z" style="fill:#fff;fill-rule:nonzero;"/><path d="M98.671,530.816c2.391,0 4.32,-1.863 4.32,-4.303c0,-2.44 -1.929,-4.303 -4.32,-4.303c-2.407,0 -4.336,1.863 -4.336,4.303c0,2.44 1.929,4.303 4.336,4.303Zm0,-0.791c-1.962,0 -3.495,-1.55 -3.495,-3.512c0,-1.962 1.533,-3.511 3.495,-3.511c1.962,0 3.479,1.549 3.479,3.511c0,1.962 -1.517,3.512 -3.479,3.512Z" style="fill:#fff;fill-rule:nonzero;"/><path d="M108.745,522.21c-1.27,0 -2.325,0.528 -2.952,1.748l0,-1.567l-0.824,0l0,8.244l0.824,0l0,-4.353c0,-2.225 1.27,-3.28 2.886,-3.28c1.549,0 2.423,0.989 2.423,2.506l0,5.127l0.841,0l0,-5.127c0,-1.995 -1.236,-3.298 -3.198,-3.298Z" style="fill:#fff;fill-rule:nonzero;"/><path d="M120.137,522.391l-2.869,7.337l-3.33,-7.337l-0.89,0l3.792,8.392l-0.182,0.446c-0.511,1.203 -1.352,2.027 -2.456,1.929l0,0.774c1.418,0.116 2.638,-0.956 3.264,-2.539l3.561,-9.002l-0.89,0Z" style="fill:#fff;fill-rule:nonzero;"/></g><path d="M177.996,522.211c-1.6,0 -2.869,0.824 -3.545,2.094l0,-1.913l-0.825,0l0,11.541l0.825,0l0,-5.209c0.676,1.269 1.945,2.093 3.545,2.093c2.357,0 4.27,-1.863 4.27,-4.303c0,-2.44 -1.913,-4.303 -4.27,-4.303Zm-0.05,7.815c-1.962,0 -3.495,-1.55 -3.495,-3.512c0,-1.962 1.533,-3.511 3.495,-3.511c1.962,0 3.495,1.549 3.495,3.511c0,1.962 -1.533,3.512 -3.495,3.512Z" style="fill:#fff;fill-rule:nonzero;"/><path d="M188.036,522.211c-1.269,0 -2.325,0.528 -2.951,1.748l0,-4.864l-0.824,0l0,11.541l0.824,0l0,-4.353c0,-2.225 1.269,-3.28 2.885,-3.28c1.55,0 2.424,0.989 2.424,2.506l0,5.127l0.841,0l0,-5.127c0,-1.995 -1.237,-3.298 -3.199,-3.298Z" style="fill:#fff;fill-rule:nonzero;"/><path d="M197.928,522.211c-1.599,0 -2.868,0.824 -3.544,2.094l0,-1.913l-0.825,0l0,11.541l0.825,0l0,-5.209c0.676,1.269 1.945,2.093 3.544,2.093c2.358,0 4.27,-1.863 4.27,-4.303c0,-2.44 -1.912,-4.303 -4.27,-4.303Zm-0.049,7.815c-1.962,0 -3.495,-1.55 -3.495,-3.512c0,-1.962 1.533,-3.511 3.495,-3.511c1.962,0 3.495,1.549 3.495,3.511c0,1.962 -1.533,3.512 -3.495,3.512Z" style="fill:#fff;fill-rule:nonzero;"/><path d="M657.695,519.095l-1.105,0l-4.122,6.826l-4.121,-6.826l-1.089,0l0,11.541l0.874,0l0,-10.255l4.27,7.089l0.149,0l4.27,-7.089l0,10.255l0.874,0l0,-11.541Z" style="fill:#fff;fill-rule:nonzero;"/><path d="M667.653,522.392l0,1.864c-0.693,-1.237 -1.962,-2.045 -3.545,-2.045c-2.341,0 -4.27,1.863 -4.27,4.303c0,2.44 1.929,4.303 4.27,4.303c1.583,0 2.852,-0.808 3.545,-2.044l0,1.863l0.841,0l0,-8.244l-0.841,0Zm-3.479,7.634c-1.962,0 -3.495,-1.55 -3.495,-3.512c0,-1.962 1.533,-3.511 3.495,-3.511c1.962,0 3.479,1.549 3.479,3.511c0,1.962 -1.517,3.512 -3.479,3.512Z" style="fill:#fff;fill-rule:nonzero;"/><path d="M671.857,524.008l0,-1.616l-0.824,0l0,8.244l0.824,0l0,-4.583c0,-2.111 1.335,-2.985 2.753,-2.985l0,-0.791c-1.121,0 -2.192,0.429 -2.753,1.731Z" style="fill:#fff;fill-rule:nonzero;"/><path d="M676.688,520.398c0.362,0 0.659,-0.297 0.659,-0.66c0,-0.346 -0.297,-0.643 -0.659,-0.643c-0.363,0 -0.66,0.297 -0.66,0.643c0,0.363 0.297,0.66 0.66,0.66Zm-0.413,10.238l0.825,0l0,-8.244l-0.825,0l0,8.244Z" style="fill:#fff;fill-rule:nonzero;"/><path d="M686.893,522.392l0,1.864c-0.692,-1.237 -1.962,-2.045 -3.545,-2.045c-2.341,0 -4.27,1.863 -4.27,4.303c0,2.44 1.929,4.303 4.27,4.303c1.583,0 2.853,-0.808 3.545,-2.044l0,1.863l0.841,0l0,-8.244l-0.841,0Zm-3.479,7.634c-1.962,0 -3.495,-1.55 -3.495,-3.512c0,-1.962 1.533,-3.511 3.495,-3.511c1.962,0 3.479,1.549 3.479,3.511c0,1.962 -1.517,3.512 -3.479,3.512Z" style="fill:#fff;fill-rule:nonzero;"/><path d="M694.774,519.095l-4.336,0l0,11.541l4.336,0c3.182,0 5.441,-2.588 5.441,-5.77c0,-3.182 -2.259,-5.771 -5.441,-5.771Zm0,10.717l-3.462,0l0,-9.893l3.462,0c2.72,0 4.583,2.21 4.583,4.947c0,2.736 -1.863,4.946 -4.583,4.946Z" style="fill:#fff;fill-rule:nonzero;"/><path d="M708.574,524.651c0.89,-0.478 1.483,-1.401 1.483,-2.522c0,-1.665 -1.352,-3.034 -3.033,-3.034l-4.6,0l0,11.541l4.979,0c1.748,0 3.149,-1.401 3.149,-3.149c0,-1.319 -0.824,-2.391 -1.978,-2.836Zm-1.55,-4.732c1.187,0 2.16,0.99 2.16,2.21c0,1.22 -0.973,2.209 -2.16,2.209l-3.726,0l0,-4.419l3.726,0Zm0.379,9.893l-4.105,0l0,-4.65l4.105,0c1.253,0 2.275,1.039 2.275,2.325c0,1.286 -1.022,2.325 -2.275,2.325Z" style="fill:#fff;fill-rule:nonzero;"/><g><path d="M787.979,519.095l-1.105,0l-4.122,6.826l-4.121,-6.826l-1.089,0l0,11.541l0.874,0l0,-10.255l4.27,7.089l0.149,0l4.27,-7.089l0,10.255l0.874,0l0,-11.541Z" style="fill:#fff;fill-rule:nonzero;"/><path d="M796.717,522.392l-2.869,7.337l-3.33,-7.337l-0.891,0l3.792,8.392l-0.181,0.446c-0.511,1.203 -1.352,2.027 -2.457,1.929l0,0.774c1.418,0.116 2.638,-0.956 3.265,-2.539l3.561,-9.002l-0.89,0Z" style="fill:#fff;fill-rule:nonzero;"/><path d="M802.454,530.817c2.291,0 3.792,-1.253 3.792,-3.165c0,-1.995 -1.781,-2.638 -3.825,-3.314c-1.649,-0.544 -2.82,-0.973 -2.82,-2.358c0,-1.286 1.006,-2.225 2.605,-2.225c1.649,0 2.539,0.956 2.968,1.995l0.742,-0.413c-0.561,-1.335 -1.814,-2.423 -3.71,-2.423c-1.962,0 -3.495,1.203 -3.495,3.099c0,2.012 1.731,2.556 3.66,3.182c1.764,0.561 2.984,1.088 2.984,2.473c0,1.319 -0.972,2.309 -2.901,2.309c-1.896,0 -3.067,-0.94 -3.463,-2.325l-0.758,0.445c0.527,1.632 2.061,2.72 4.221,2.72Z" style="fill:#fff;fill-rule:nonzero;"/><path d="M819.551,524.866c0,-3.298 -2.655,-5.952 -5.952,-5.952c-3.298,0 -5.952,2.654 -5.952,5.952c0,3.297 2.654,5.951 5.952,5.951c1.319,0 2.539,-0.428 3.512,-1.137l1.384,1.352l0.594,-0.544l-1.352,-1.336c1.121,-1.088 1.814,-2.605 1.814,-4.286Zm-5.952,5.111c-2.819,0 -5.078,-2.276 -5.078,-5.111c0,-2.836 2.259,-5.111 5.078,-5.111c2.819,0 5.078,2.275 5.078,5.111c0,1.45 -0.594,2.753 -1.55,3.693l-2.588,-2.556l-0.594,0.544l2.556,2.523c-0.825,0.577 -1.814,0.907 -2.902,0.907Z" style="fill:#fff;fill-rule:nonzero;"/><path d="M822.716,529.812l0,-10.717l-0.874,0l0,11.541l6.315,0l0,-0.824l-5.441,0Z" style="fill:#fff;fill-rule:nonzero;"/></g><g><path d="M862.766,522.211c-2.522,0 -4.27,1.88 -4.27,4.303c0,2.49 1.797,4.303 4.336,4.303c1.632,0 2.918,-0.742 3.594,-1.863l-0.725,-0.428c-0.478,0.873 -1.501,1.5 -2.852,1.5c-1.88,0 -3.298,-1.22 -3.496,-3.083l7.469,0c0,-0.132 0.016,-0.264 0.016,-0.396c0,-2.258 -1.566,-4.336 -4.072,-4.336Zm0,0.792c1.616,0 3.034,1.121 3.215,3.132l-6.628,0c0.165,-1.83 1.534,-3.132 3.413,-3.132Z" style="fill:#fff;fill-rule:nonzero;"/><rect x="868.767" y="518.6" width="0.824" height="12.036" style="fill:#fff;fill-rule:nonzero;"/><path d="M879.385,522.392l0,1.864c-0.692,-1.237 -1.962,-2.045 -3.545,-2.045c-2.341,0 -4.27,1.863 -4.27,4.303c0,2.44 1.929,4.303 4.27,4.303c1.583,0 2.853,-0.808 3.545,-2.044l0,1.863l0.841,0l0,-8.244l-0.841,0Zm-3.479,7.634c-1.962,0 -3.495,-1.55 -3.495,-3.512c0,-1.962 1.533,-3.511 3.495,-3.511c1.962,0 3.479,1.549 3.479,3.511c0,1.962 -1.517,3.512 -3.479,3.512Z" style="fill:#fff;fill-rule:nonzero;"/><path d="M883.325,524.552c0,-0.989 0.907,-1.549 1.979,-1.549c0.907,0 1.764,0.395 2.11,1.253l0.693,-0.396c-0.446,-1.006 -1.468,-1.649 -2.803,-1.649c-1.682,0 -2.803,1.039 -2.803,2.341c0,2.968 4.996,1.682 4.996,3.924c0,1.039 -0.973,1.55 -2.127,1.55c-1.237,0 -2.127,-0.561 -2.424,-1.451l-0.709,0.412c0.396,1.055 1.484,1.83 3.133,1.83c1.764,0 2.951,-0.989 2.951,-2.341c0,-3.017 -4.996,-1.714 -4.996,-3.924Z" style="fill:#fff;fill-rule:nonzero;"/><path d="M894.206,523.2l0,-0.808l-2.456,0l0,-2.308l-0.841,0.248l0,2.06l-1.814,0l0,0.808l1.814,0l0,5.359c0,1.879 1.137,2.407 3.297,2.077l0,-0.742c-1.682,0.148 -2.456,0.115 -2.456,-1.335l0,-5.359l2.456,0Z" style="fill:#fff;fill-rule:nonzero;"/><path d="M896.597,520.398c0.363,0 0.659,-0.297 0.659,-0.66c0,-0.346 -0.296,-0.643 -0.659,-0.643c-0.363,0 -0.66,0.297 -0.66,0.643c0,0.363 0.297,0.66 0.66,0.66Zm-0.412,10.238l0.824,0l0,-8.244l-0.824,0l0,8.244Z" style="fill:#fff;fill-rule:nonzero;"/><path d="M903.323,530.817c1.616,0 3.001,-0.824 3.661,-2.093l-0.693,-0.413c-0.544,1.023 -1.632,1.715 -2.968,1.715c-1.994,0 -3.495,-1.55 -3.495,-3.512c0,-1.962 1.501,-3.511 3.495,-3.511c1.319,0 2.441,0.675 2.919,1.714l0.676,-0.396c-0.594,-1.286 -1.979,-2.11 -3.595,-2.11c-2.489,0 -4.336,1.863 -4.336,4.303c0,2.44 1.847,4.303 4.336,4.303Z" style="fill:#fff;fill-rule:nonzero;"/><path d="M909.275,524.552c0,-0.989 0.907,-1.549 1.979,-1.549c0.907,0 1.764,0.395 2.11,1.253l0.693,-0.396c-0.446,-1.006 -1.468,-1.649 -2.803,-1.649c-1.682,0 -2.803,1.039 -2.803,2.341c0,2.968 4.995,1.682 4.995,3.924c0,1.039 -0.972,1.55 -2.126,1.55c-1.237,0 -2.127,-0.561 -2.424,-1.451l-0.709,0.412c0.396,1.055 1.484,1.83 3.133,1.83c1.764,0 2.951,-0.989 2.951,-2.341c0,-3.017 -4.996,-1.714 -4.996,-3.924Z" style="fill:#fff;fill-rule:nonzero;"/><path d="M919.727,522.211c-2.522,0 -4.27,1.88 -4.27,4.303c0,2.49 1.797,4.303 4.336,4.303c1.632,0 2.918,-0.742 3.594,-1.863l-0.725,-0.428c-0.478,0.873 -1.501,1.5 -2.852,1.5c-1.88,0 -3.298,-1.22 -3.496,-3.083l7.469,0c0,-0.132 0.016,-0.264 0.016,-0.396c0,-2.258 -1.566,-4.336 -4.072,-4.336Zm0,0.792c1.616,0 3.034,1.121 3.215,3.132l-6.628,0c0.165,-1.83 1.534,-3.132 3.413,-3.132Z" style="fill:#fff;fill-rule:nonzero;"/><path d="M932.983,522.392l0,1.864c-0.693,-1.237 -1.962,-2.045 -3.545,-2.045c-2.341,0 -4.27,1.863 -4.27,4.303c0,2.44 1.929,4.303 4.27,4.303c1.583,0 2.852,-0.808 3.545,-2.044l0,1.863l0.84,0l0,-8.244l-0.84,0Zm-3.479,7.634c-1.962,0 -3.495,-1.55 -3.495,-3.512c0,-1.962 1.533,-3.511 3.495,-3.511c1.962,0 3.479,1.549 3.479,3.511c0,1.962 -1.517,3.512 -3.479,3.512Z" style="fill:#fff;fill-rule:nonzero;"/><path d="M937.187,524.008l0,-1.616l-0.825,0l0,8.244l0.825,0l0,-4.583c0,-2.111 1.335,-2.985 2.753,-2.985l0,-0.791c-1.121,0 -2.193,0.429 -2.753,1.731Z" style="fill:#fff;fill-rule:nonzero;"/><path d="M944.886,530.817c1.616,0 3.001,-0.824 3.66,-2.093l-0.692,-0.413c-0.544,1.023 -1.633,1.715 -2.968,1.715c-1.995,0 -3.495,-1.55 -3.495,-3.512c0,-1.962 1.5,-3.511 3.495,-3.511c1.319,0 2.44,0.675 2.918,1.714l0.676,-0.396c-0.593,-1.286 -1.978,-2.11 -3.594,-2.11c-2.49,0 -4.336,1.863 -4.336,4.303c0,2.44 1.846,4.303 4.336,4.303Z" style="fill:#fff;fill-rule:nonzero;"/><path d="M954.135,522.211c-1.269,0 -2.324,0.528 -2.951,1.748l0,-4.864l-0.824,0l0,11.541l0.824,0l0,-4.353c0,-2.225 1.27,-3.28 2.885,-3.28c1.55,0 2.424,0.989 2.424,2.506l0,5.127l0.841,0l0,-5.127c0,-1.995 -1.237,-3.298 -3.199,-3.298Z" style="fill:#fff;fill-rule:nonzero;"/></g><g><path d="M291.496,524.008l0,-1.616l-0.825,0l0,8.244l0.825,0l0,-4.583c0,-2.111 1.335,-2.985 2.753,-2.985l0,-0.791c-1.121,0 -2.193,0.429 -2.753,1.731Z" style="fill:#fff;fill-rule:nonzero;"/><path d="M299.129,522.211c-2.522,0 -4.27,1.88 -4.27,4.303c0,2.49 1.797,4.303 4.336,4.303c1.632,0 2.918,-0.742 3.594,-1.863l-0.725,-0.428c-0.478,0.873 -1.501,1.5 -2.852,1.5c-1.88,0 -3.298,-1.22 -3.496,-3.083l7.469,0c0,-0.132 0.016,-0.264 0.016,-0.396c0,-2.258 -1.566,-4.336 -4.072,-4.336Zm0,0.792c1.616,0 3.034,1.121 3.215,3.132l-6.628,0c0.165,-1.83 1.534,-3.132 3.413,-3.132Z" style="fill:#fff;fill-rule:nonzero;"/><path d="M312.401,519.095l0,5.21c-0.676,-1.27 -1.945,-2.094 -3.545,-2.094c-2.357,0 -4.27,1.863 -4.27,4.303c0,2.44 1.913,4.303 4.27,4.303c1.6,0 2.869,-0.824 3.545,-2.093l0,1.912l0.824,0l0,-11.541l-0.824,0Zm-3.495,10.931c-1.962,0 -3.495,-1.55 -3.495,-3.512c0,-1.962 1.533,-3.511 3.495,-3.511c1.962,0 3.495,1.549 3.495,3.511c0,1.962 -1.533,3.512 -3.495,3.512Z" style="fill:#fff;fill-rule:nonzero;"/><path d="M316.177,520.398c0.362,0 0.659,-0.297 0.659,-0.66c0,-0.346 -0.297,-0.643 -0.659,-0.643c-0.363,0 -0.66,0.297 -0.66,0.643c0,0.363 0.297,0.66 0.66,0.66Zm-0.413,10.238l0.825,0l0,-8.244l-0.825,0l0,8.244Z" style="fill:#fff;fill-rule:nonzero;"/><path d="M319.688,524.552c0,-0.989 0.907,-1.549 1.979,-1.549c0.907,0 1.764,0.395 2.11,1.253l0.693,-0.396c-0.446,-1.006 -1.468,-1.649 -2.803,-1.649c-1.682,0 -2.803,1.039 -2.803,2.341c0,2.968 4.996,1.682 4.996,3.924c0,1.039 -0.973,1.55 -2.127,1.55c-1.237,0 -2.127,-0.561 -2.424,-1.451l-0.709,0.412c0.396,1.055 1.484,1.83 3.133,1.83c1.764,0 2.951,-0.989 2.951,-2.341c0,-3.017 -4.996,-1.714 -4.996,-3.924Z" style="fill:#fff;fill-rule:nonzero;"/></g><path d="M104.513,461.003c-1.31,0.047 -2.215,-0.735 -2.256,-1.926c-0.014,-0.437 0.099,-0.818 0.397,-1.264c0.293,-0.573 0.355,-0.637 0.348,-0.887c-0.027,-0.749 -1.16,-0.779 -1.469,-0.763c-4.249,0.139 -5.369,5.875 -6.277,10.537l-0.444,2.459c2.446,0.359 4.183,-0.083 5.152,-0.71c1.364,-0.883 -0.38,-1.793 -0.162,-2.801c0.224,-1.027 1.158,-1.522 1.9,-1.543c1.038,-0.024 1.78,1.052 1.756,2.146c-0.035,1.807 -2.435,4.291 -7.232,4.191c-0.584,-0.014 -1.122,-0.055 -1.624,-0.114l-0.904,4.995c-0.811,3.783 -1.888,8.952 -5.739,13.461c-3.309,3.935 -6.668,4.546 -8.171,4.599c-2.813,0.094 -4.679,-1.406 -4.746,-3.407c-0.065,-1.939 1.65,-2.998 2.775,-3.035c1.502,-0.051 2.541,1.037 2.581,2.292c0.038,1.061 -0.516,1.392 -0.882,1.592c-0.245,0.197 -0.614,0.398 -0.599,0.836c0.008,0.186 0.209,0.615 0.833,0.595c1.19,-0.04 1.979,-0.627 2.531,-1.021c2.741,-2.283 3.796,-6.262 5.177,-13.509l0.288,-1.756c0.471,-2.356 0.993,-4.984 1.791,-7.601c-1.932,-1.454 -3.091,-3.257 -5.689,-3.963c-1.78,-0.483 -2.867,-0.072 -3.631,0.893c-0.904,1.144 -0.604,2.631 0.27,3.504l1.443,1.596c1.77,2.045 2.737,3.635 2.373,5.775c-0.577,3.417 -4.648,6.038 -9.46,4.56c-4.107,-1.267 -4.874,-4.175 -4.381,-5.777c0.435,-1.411 1.555,-1.677 2.65,-1.341c1.175,0.362 1.633,1.789 1.297,2.885c-0.037,0.115 -0.096,0.311 -0.22,0.572c-0.135,0.305 -0.387,0.569 -0.496,0.92c-0.264,0.862 0.915,1.473 1.736,1.724c1.837,0.566 3.629,-0.396 4.085,-1.882c0.422,-1.367 -0.441,-2.321 -0.8,-2.685l-1.739,-1.864c-0.795,-0.887 -2.547,-3.358 -1.693,-6.134c0.329,-1.069 1.023,-2.206 2.029,-2.957c2.125,-1.583 4.436,-1.844 6.635,-1.212c2.846,0.82 4.215,2.702 5.989,4.156c0.992,-2.91 2.368,-5.762 4.437,-8.165c1.868,-2.192 4.378,-3.778 7.254,-3.878l-0.001,0c2.875,-0.094 5.045,1.207 5.117,3.266c0.028,0.877 -0.476,2.584 -2.229,2.641m-15.223,-16.381c-15.656,0 -28.347,12.691 -28.347,28.346c0,15.655 12.691,28.346 28.347,28.346c15.655,0 28.346,-12.691 28.346,-28.346c0,-15.655 -12.691,-28.346 -28.346,-28.346" style="fill:#fff;fill-rule:nonzero;"/><path d="M599.217,456.176l0,-1.315l-17.082,0c-2.178,0 -3.944,1.766 -3.944,3.941l0,18.4c0,2.176 1.766,3.941 3.944,3.941l13.141,0c2.175,0 3.941,-1.765 3.941,-3.941l0,-1.315l-15.067,0c-0.388,0 -0.701,-0.315 -0.701,-0.701l0,-4.555l11.827,0c2.175,0 3.941,-1.766 3.941,-3.944l0,-1.315l-15.768,0l0,-4.554c0,-0.388 0.313,-0.701 0.701,-0.701l11.126,0c2.175,0 3.941,-1.763 3.941,-3.941" style="fill:#fff;fill-rule:nonzero;"/><path d="M572.935,463.944c-0.062,-5.077 -4.372,-9.084 -9.449,-9.084l-12.889,0c-2.178,0 -3.944,1.766 -3.944,3.944l0,22.34l1.315,0c2.177,0 3.941,-1.766 3.941,-3.944l0,-3.943l10.405,0l3.793,6.57c0.47,0.814 1.337,1.317 2.275,1.317l4.553,0l-5.107,-8.845c3.059,-1.523 5.15,-4.696 5.107,-8.355m-20.237,-3.826l10.972,0c2.106,0 3.889,1.623 4.003,3.725c0.122,2.271 -1.692,4.16 -3.935,4.16l-11.829,0l0,-7.098c0,-0.435 0.354,-0.787 0.789,-0.787" style="fill:#fff;fill-rule:nonzero;"/><path d="M466.729,455.939l-8.876,8.876c-0.309,0.307 -0.808,0.307 -1.115,0l-8.863,-8.865c-0.699,-0.697 -1.645,-1.089 -2.63,-1.089c-2.054,0 -3.719,1.665 -3.719,3.717l0,22.566l1.315,0c2.176,0 3.942,-1.767 3.942,-3.944l0,-14.062c0,-0.311 0.377,-0.468 0.597,-0.247l7.127,7.126c1.541,1.542 4.036,1.542 5.575,0l7.127,-7.126c0.223,-0.221 0.6,-0.064 0.6,0.247l0,18.006l1.314,0c2.176,0 3.941,-1.767 3.941,-3.944l0,-18.659c0,-2.034 -1.648,-3.68 -3.679,-3.68l-0.054,0c-0.977,0 -1.912,0.388 -2.602,1.078" style="fill:#fff;fill-rule:nonzero;"/><path d="M432.327,481.143l-1.315,0l0,-22.34c0,-2.177 1.767,-3.942 3.944,-3.942l1.313,0l0,22.339c0,2.177 -1.764,3.943 -3.942,3.943" style="fill:#fff;fill-rule:nonzero;"/><path d="M416.317,454.861l-12.899,0c-2.176,0 -3.942,1.765 -3.942,3.943l0,22.338l1.312,0c2.18,0 3.944,-1.765 3.944,-3.941l0,-3.943l11.826,0c5.022,0 9.105,-4.022 9.198,-9.022c0.097,-5.156 -4.284,-9.375 -9.439,-9.375m0.126,13.141l-11.711,0l0,-7.096c0,-0.434 0.352,-0.79 0.789,-0.79l11.037,0c2.24,0 4.049,1.877 3.938,4.142c-0.103,2.118 -1.931,3.744 -4.053,3.744" style="fill:#fff;fill-rule:nonzero;"/><path d="M528.256,454.861c-4.58,0 -8.612,2.342 -10.965,5.896l-9.62,14.499c-2.357,3.546 -6.385,5.886 -10.953,5.886c-7.246,0 -13.141,-5.894 -13.141,-13.14c0,-7.247 5.895,-13.141 13.141,-13.141c4.523,0 8.52,2.297 10.885,5.785l1.727,2.602l3.156,-4.761l-0.466,-0.702c-3.3,-4.933 -8.921,-8.18 -15.302,-8.18c-10.16,0 -18.397,8.237 -18.397,18.397c0,10.162 8.237,18.396 18.397,18.396c6.408,0 12.051,-3.276 15.345,-8.243l3.578,-5.394l1.66,2.499c2.353,3.546 6.381,5.882 10.955,5.882c7.257,0 13.141,-5.882 13.141,-13.14c0,-7.257 -5.884,-13.141 -13.141,-13.141m0,21.026c-2.75,0 -5.177,-1.416 -6.589,-3.558l-2.87,-4.327l2.893,-4.358c1.413,-2.124 3.83,-3.528 6.566,-3.528c4.348,0 7.885,3.538 7.885,7.886c0,4.347 -3.537,7.885 -7.885,7.885" style="fill:#fff;fill-rule:nonzero;"/><path d="M170.5,465.549l-4.077,0l-1.568,9.408l3.763,0c2.823,-0.314 5.331,-1.254 5.645,-6.585c0,-1.882 -1.569,-2.823 -3.763,-2.823" style="fill:#fff;"/><path d="M212.521,465.549l-4.077,0l-1.568,9.408l3.764,0c2.822,-0.314 5.331,-1.254 5.644,-6.585c0,-1.882 -1.568,-2.823 -3.763,-2.823" style="fill:#fff;"/><path d="M211.267,479.661l-5.645,0l-1.254,6.586l-5.959,0l5.018,-25.402l11.603,0c5.018,0.314 7.526,2.823 7.526,7.213c0,7.526 -5.959,11.917 -11.289,11.603m-18.413,-14.112l-4.704,0l-2.823,14.112l-5.958,0l5.017,-25.401l5.958,0l-1.254,6.585l5.644,0c5.018,0.314 6.899,2.823 6.273,5.958l-2.196,12.858l-6.271,0l2.194,-11.603c0.314,-1.568 0.314,-2.509 -1.88,-2.509m-23.609,14.112l-5.644,0l-1.255,6.586l-5.958,0l5.017,-25.402l11.603,0c5.017,0.314 7.527,2.823 7.527,7.213c0,7.526 -5.959,11.917 -11.29,11.603m52.445,-24.378c-8.586,-4.47 -20.232,-6.981 -32.375,-6.981c-12.142,0 -23.788,2.511 -32.375,6.981c-8.585,4.469 -13.409,10.531 -13.409,16.852c0,6.321 4.824,12.383 13.409,16.852c8.587,4.47 20.233,6.981 32.375,6.981c12.143,0 23.789,-2.511 32.375,-6.981c8.586,-4.469 13.41,-10.531 13.41,-16.852c0,-6.321 -4.824,-12.383 -13.41,-16.852" style="fill:#fff;"/><path d="M731.611,443.772c-2.234,1.567 -4.682,3.075 -6.254,5.523c-1.611,2.507 -2.634,11.088 -5.132,19.562c-2.16,7.322 -5.42,14.561 -11.115,17.733c-0.595,-1.497 0.075,-4.261 -1.108,-5.169c-0.766,2.184 -1.631,4.267 -2.645,6.204c-3.342,6.386 -8.289,11.168 -16.557,12.628c3.923,-5.308 7.674,-10.789 7.755,-19.939c-2.761,0.597 -2.702,7.118 -5.539,8.862c-1.818,0.198 -3.661,0.197 -5.515,0.086c-7.615,-0.457 -15.426,-2.745 -22.55,-0.46c-4.85,1.557 -8.816,5.229 -12.924,7.01c-4.827,2.094 -8.483,2.955 -14.494,2.094c-0.763,-1.029 4.4,-2.355 4.091,-4.588c-2.352,-0.26 -3.718,0.31 -5.764,-0.619c0.226,-0.416 0.558,-0.762 0.976,-1.051c3.747,-2.594 14.394,-0.613 17.244,-3.41c1.758,-1.726 2.912,-3.532 4.107,-5.287c1.158,-1.705 2.356,-3.361 4.18,-4.854c0.704,-0.572 1.433,-1.115 2.184,-1.627c3.109,-2.127 6.956,-4.057 10.741,-5.388c5.157,-1.812 10.382,-1.962 15.878,-4.062c3.396,-1.298 7.088,-2.901 10.098,-5.144c0.709,-0.525 1.382,-1.097 2.016,-1.71c8.594,-8.379 10.298,-23.157 23.706,-24.534c1.622,-0.166 2.949,-0.112 4.158,-0.15c1.392,-0.041 2.625,-0.203 3.964,-0.958c0.397,1.349 1.016,1.968 3.693,2.216c-0.391,3.394 -2.655,5.251 -5.194,7.032m-11.885,46.929c-2.571,0.625 -6.998,-0.408 -8.135,-2.221c0.584,-2.619 3.621,-5.012 5.176,-6.657c0.16,2.561 1.646,7.642 2.959,8.878m16.619,-59.085c-1.648,0.053 -1.127,0.528 -4.685,1.404c-3.594,0.884 -7.983,0.612 -11.852,2.235c-11.552,4.845 -13.87,21.402 -24.371,27.334c-7.849,4.433 -15.768,4.787 -22.888,7.018c-4.679,1.467 -9.798,4.476 -14.037,8.129c-3.291,2.837 -3.376,5.332 -6.815,8.89c-3.677,3.805 -14.615,0.063 -19.573,5.888c1.596,1.615 2.297,2.066 5.444,1.648c-0.652,1.235 -4.493,2.275 -3.74,4.092c0.79,1.912 10.076,3.208 18.518,-1.888c3.931,-2.374 7.062,-5.795 13.185,-6.611c7.922,-1.057 17.049,0.677 26.221,2c-1.36,4.055 -4.09,6.751 -6.277,9.98c-0.678,0.73 1.36,0.812 3.685,0.371c4.182,-1.034 7.195,-1.866 10.351,-3.704c3.878,-2.256 4.466,-8.043 9.223,-9.296c2.65,4.075 9.86,5.037 14.333,1.778c-3.926,-1.111 -5.011,-9.466 -3.686,-13.148c1.255,-3.485 2.495,-9.059 3.76,-13.666c1.357,-4.948 1.857,-11.183 3.499,-13.704c2.471,-3.792 5.202,-5.093 7.572,-7.231c2.37,-2.138 4.54,-4.22 4.469,-9.112c-0.023,-1.576 -0.839,-2.454 -2.336,-2.407" style="fill:#fff;fill-rule:nonzero;"/><path d="M733.765,437.345c-0.504,1.059 -1.471,2.424 -1.471,5.12c-0.004,0.463 -0.351,0.78 -0.357,0.067c0.026,-2.635 0.723,-3.774 1.464,-5.271c0.345,-0.613 0.552,-0.36 0.364,0.084m-13.232,3.832c1.898,1.648 5.881,0.325 5.169,-2.954c-2.95,-0.244 -4.658,0.758 -5.169,2.954" style="fill:#fff;fill-rule:nonzero;"/><path d="M732.38,435.828c-0.806,0.852 -3.437,3.674 -4.267,6.239c-0.147,0.438 -0.576,0.634 -0.36,-0.047c0.836,-2.499 3.141,-5.19 4.307,-6.385c0.515,-0.478 0.635,-0.172 0.32,0.193m0.414,0.59c-0.678,0.956 -2.886,3.17 -3.348,5.826c-0.083,0.455 -0.48,0.709 -0.363,0.003c0.478,-2.591 2.381,-4.627 3.367,-5.974c0.442,-0.547 0.604,-0.261 0.344,0.145m0.463,0.529c-0.595,1.01 -2.029,2.853 -2.266,5.538c-0.044,0.461 -0.419,0.746 -0.362,0.034c0.258,-2.622 1.404,-4.262 2.274,-5.689c0.395,-0.58 0.581,-0.31 0.354,0.117" style="fill:#fff;fill-rule:nonzero;"/><path d="M827.026,460.9c-0.737,-0.531 -1.89,-0.505 -2.296,-0.1c-6.089,3.654 -15.022,5.685 -25.173,5.685c-10.151,0 -19.49,-2.03 -25.174,-5.685c-1.184,-0.816 -2.123,-0.358 -2.588,-0.021c-0.737,0.53 -1.222,0.976 -0.856,2.426c1.992,7.883 15.625,11.401 29.023,11.401c13.399,0 27.247,-3.478 28.132,-11.019c0.135,-1.141 -0.603,-2.351 -1.068,-2.687" style="fill:#fff;fill-rule:nonzero;"/><path d="M827.026,473.113c-0.737,-0.531 -1.89,-0.506 -2.296,-0.1c-6.089,3.654 -15.022,5.684 -25.173,5.684c-10.151,0 -19.49,-2.03 -25.174,-5.684c-1.184,-0.816 -2.123,-0.358 -2.588,-0.022c-0.737,0.53 -1.222,0.977 -0.856,2.427c1.992,7.883 15.625,11.4 29.023,11.4c13.399,0 27.247,-3.477 28.132,-11.018c0.135,-1.141 -0.603,-2.352 -1.068,-2.687" style="fill:#fff;fill-rule:nonzero;"/><path d="M827.026,485.447c-0.737,-0.531 -1.89,-0.505 -2.296,-0.1c-6.089,3.654 -15.022,5.685 -25.173,5.685c-10.151,0 -19.49,-2.03 -25.174,-5.685c-1.184,-0.816 -2.123,-0.357 -2.588,-0.021c-0.737,0.53 -1.222,0.977 -0.856,2.427c1.992,7.883 15.625,11.4 29.023,11.4c13.399,0 27.247,-3.478 28.132,-11.019c0.135,-1.14 -0.603,-2.351 -1.068,-2.687" style="fill:#fff;fill-rule:nonzero;"/><path d="M799.517,438.062c-13.804,0 -28.422,4.467 -28.422,12.181c0,7.715 14.618,12.181 28.422,12.181c13.805,0 28.422,-4.466 28.422,-12.181c0,-7.714 -14.617,-12.181 -28.422,-12.181" style="fill:#fff;fill-rule:nonzero;"/><g><clipPath id="_clip1"><path d="M873.612,467.952c0,16.408 13.3,29.708 29.707,29.708c16.408,0 29.709,-13.3 29.709,-29.708c0,-16.407 -13.301,-29.708 -29.709,-29.708c-16.407,0 -29.707,13.301 -29.707,29.708Z"/></clipPath><g clip-path="url(#_clip1)"><path d="M916.038,454.955l-40.57,0c-1.021,0 -1.857,-0.836 -1.857,-1.857l0,-12.997c0,-1.022 0.836,-1.857 1.857,-1.857l52.917,0c1.022,0 1.857,0.835 1.857,1.857l0,0.65c-0.093,7.798 -6.406,14.204 -14.204,14.204" style="fill:#fff;fill-rule:nonzero;"/><path d="M930.335,497.66l-56.538,0l0,-16.71l42.427,0c7.798,0 14.111,6.312 14.111,14.111l0,2.599Z" style="fill:#fff;fill-rule:nonzero;"/><path d="M912.696,476.307l-42.055,0l0,-16.711l42.055,0c4.642,0 8.355,3.714 8.355,8.356c0,4.642 -3.806,8.355 -8.355,8.355" style="fill:#fff;fill-rule:nonzero;"/><path d="M899.606,459.596l-27.48,0l0,16.711l27.48,0c0.65,-2.506 1.021,-5.292 1.021,-8.355c0,-3.063 -0.371,-5.849 -1.021,-8.356" style="fill:#ddd;fill-rule:nonzero;"/></g></g><path d="M888.373,442.236c-5.014,2.971 -9.192,7.427 -11.791,12.719l21.91,0c-2.228,-5.106 -5.756,-9.377 -10.119,-12.719" style="fill:#ddd;fill-rule:nonzero;"/><path d="M889.301,494.132c4.271,-3.435 7.705,-7.984 9.841,-13.183l-22.56,0c2.785,5.571 7.241,10.213 12.719,13.183" style="fill:#ddd;fill-rule:nonzero;"/><path d="M345.116,476.407c-4.367,2.276 -26.99,11.578 -31.807,14.089c-4.815,2.511 -7.491,2.486 -11.296,0.668c-3.805,-1.818 -27.879,-11.545 -32.216,-13.616c-2.213,-1.058 -3.313,-1.948 -3.301,-2.787c-0.001,0.001 -0.006,0.002 -0.006,0.002l0,8.271c0,0.826 1.139,1.701 3.306,2.737c4.338,2.073 28.413,11.798 32.217,13.616c3.805,1.82 6.481,1.844 11.297,-0.668c4.817,-2.511 27.44,-11.812 31.807,-14.089c2.223,-1.159 3.205,-2.055 3.205,-2.873l0.002,-8.154c-0.001,-0.001 -0.003,-0.002 -0.004,-0.002c0.007,0.795 -1.041,1.679 -3.204,2.806" style="fill:#fff;fill-rule:nonzero;"/><path d="M345.116,463.023c-4.367,2.276 -26.99,11.577 -31.807,14.089c-4.815,2.511 -7.491,2.486 -11.296,0.668c-3.805,-1.818 -27.879,-11.544 -32.216,-13.616c-2.213,-1.058 -3.314,-1.948 -3.301,-2.787c-0.001,0 -0.006,0.002 -0.006,0.002l0,8.272c0,0.826 1.139,1.7 3.306,2.736c4.338,2.073 28.412,11.798 32.217,13.616c3.805,1.819 6.481,1.844 11.297,-0.667c4.817,-2.512 27.44,-11.813 31.807,-14.09c2.223,-1.159 3.205,-2.055 3.205,-2.872l0.002,-8.157c-0.001,0 -0.003,0 -0.004,-0.001c0.007,0.795 -1.04,1.68 -3.204,2.807" style="fill:#fff;fill-rule:nonzero;"/><path d="M269.796,458.507c4.337,2.072 28.412,11.798 32.217,13.616c3.805,1.819 6.481,1.844 11.297,-0.667c4.817,-2.512 27.44,-11.814 31.807,-14.091c2.224,-1.158 3.206,-2.055 3.205,-2.872l0.002,-8.155c-0.001,0 -0.003,-0.001 -0.004,-0.001c0.007,0.794 -1.041,1.679 -3.204,2.806c-4.367,2.276 -26.99,11.578 -31.806,14.089c-4.816,2.511 -7.492,2.486 -11.297,0.668c-3.804,-1.819 -27.879,-11.545 -32.215,-13.617c-2.214,-1.057 -3.314,-1.947 -3.301,-2.786c-0.002,0 -0.008,0.002 -0.008,0.002l0,8.272c0,0.825 1.14,1.699 3.307,2.736" style="fill:#fff;fill-rule:nonzero;"/><path d="M306.252,441.387l2.544,4.229l1.575,-3.79l7.035,-0.73l-5.455,-2.043l1.446,-3.47l-5.351,1.752l-5.675,-2.22l1.819,3.356l-6.063,2.186l8.125,0.73Z" style="fill:#fff;fill-rule:nonzero;"/><path d="M290.171,450.999c5.554,0 10.056,-1.745 10.056,-3.899c0,-2.152 -4.502,-3.897 -10.056,-3.897c-5.554,0 -10.057,1.745 -10.057,3.897c0,2.154 4.503,3.899 10.057,3.899" style="fill:#fff;fill-rule:nonzero;"/><path d="M308.376,459.483l5.685,-8.335l-18.816,2.888l13.131,5.447Z" style="fill:#fff;fill-rule:nonzero;"/><path d="M336.857,446.532l-11.135,-4.4l0.01,8.797l11.125,-4.397Z" style="fill:#fff;fill-rule:nonzero;"/><path d="M324.523,451.401l1.208,-0.472l-0.009,-8.797l-12.32,4.873l11.121,4.396Z" style="fill:#fff;fill-rule:nonzero;"/><path d="M341.374,413.537l312.111,0" style="fill:none;stroke:#fff;stroke-width:2px;stroke-linecap:round;"/></svg>