<?xml version="1.0" encoding="utf-8"?>
<!-- Generator: Adobe Illustrator 22.1.0, SVG Export Plug-In . SVG Version: 6.00 Build 0)  -->
<svg version="1.1" id="Ebene_1" xmlns="http://www.w3.org/2000/svg" xmlns:xlink="http://www.w3.org/1999/xlink" x="0px" y="0px"
	 width="24px" height="24px" viewBox="0 0 24 24" style="enable-background:new 0 0 24 24;" xml:space="preserve">
<style type="text/css">
	.st0{fill:none;}
	.st1{fill:#FFFFFF;}
	.st2{fill:#28A050;}
</style>
<path class="st0" d="M0,0h24v24H0V0z"/>
<path class="st1" d="M3,20h18v-4H3V20z M4,17h2v2H4V17z M3,4v4h18V4H3z M6,7H4V5h2V7z M3,14h18v-4H3V14z M4,11h2v2H4V11z"/>
<circle class="st2" cx="18" cy="18" r="6"/>
<polygon class="st1" points="22,17 19,17 19,14 17,14 17,17 14,17 14,19 17,19 17,22 19,22 19,19 22,19 "/>
</svg>
