<?xml version="1.0" encoding="utf-8"?>
<!-- Generator: Adobe Illustrator 22.1.0, SVG Export Plug-In . SVG Version: 6.00 Build 0)  -->
<svg version="1.1" id="Ebene_1" xmlns="http://www.w3.org/2000/svg" xmlns:xlink="http://www.w3.org/1999/xlink" x="0px" y="0px"
	 width="24px" height="24px" viewBox="0 0 24 24" style="enable-background:new 0 0 24 24;" xml:space="preserve">
<style type="text/css">
	.st0{fill:#FFFFFF;}
</style>
<g>
	<path class="st0" d="M15,8.2v7.7l-1.8-1.4L12.7,14H12H9H7v2v3v-3v-2H5H4v-4h8h0.7l0.5-0.4L15,8.2 M17,4l-5,4H4c-1.1,0-2,0.9-2,2v4
		c0,1.1,0.9,2,2,2h1v4c0,0.6,0.4,1,1,1h2c0.6,0,1-0.4,1-1v-4h3l5,4V4L17,4z"/>
</g>
<g>
	<path class="st0" d="M19,8v8c1.8-0.7,3-2.3,3-4S20.8,8.8,19,8L19,8z"/>
</g>
</svg>
