<?xml version="1.0" encoding="utf-8"?>
<!-- Generator: Adobe Illustrator 22.1.0, SVG Export Plug-In . SVG Version: 6.00 Build 0)  -->
<svg version="1.1" id="Ebene_1" xmlns="http://www.w3.org/2000/svg" xmlns:xlink="http://www.w3.org/1999/xlink" x="0px" y="0px"
	 width="24px" height="24px" viewBox="0 0 24 24" style="enable-background:new 0 0 24 24;" xml:space="preserve">
<style type="text/css">
	.st0{fill:#FFFFFF;}
</style>
<g>
	<polygon class="st0" points="6,8 4,8 4,18 2,18 2,20 4,20 4,22 6,22 6,20 6,18 	"/>
	<polygon class="st0" points="6,6 16,6 16,4 6,4 6,2 4,2 4,4 2,4 2,6 4,6 	"/>
	<polygon class="st0" points="20,4 20,2 18,2 18,4 18,6 18,16 20,16 20,6 22,6 22,4 	"/>
	<polygon class="st0" points="18,18 8,18 8,20 18,20 18,22 20,22 20,20 22,20 22,18 20,18 	"/>
</g>
</svg>
