<?xml version="1.0" encoding="utf-8"?>
<!-- Generator: Adobe Illustrator 22.1.0, SVG Export Plug-In . SVG Version: 6.00 Build 0)  -->
<svg version="1.1" id="Ebene_1" xmlns="http://www.w3.org/2000/svg" xmlns:xlink="http://www.w3.org/1999/xlink" x="0px" y="0px"
	 width="24px" height="24px" viewBox="0 0 24 24" style="enable-background:new 0 0 24 24;" xml:space="preserve">
<style type="text/css">
	.st0{fill:#FFFFFF;}
</style>
<g>
	<path class="st0" d="M9,21c0,0.5,0.4,1,1,1h4c0.6,0,1-0.5,1-1v-1H9V21z"/>
</g>
<g>
	<path class="st0" d="M12,2C8.1,2,5,5.1,5,9c0,2.4,1.2,4.5,3,5.7V17c0,0.5,0.4,1,1,1h6c0.6,0,1-0.5,1-1v-2.3c1.8-1.3,3-3.4,3-5.7
		C19,5.1,15.9,2,12,2z M12,14c-2.8,0-5-2.2-5-5s2.2-5,5-5s5,2.2,5,5S14.8,14,12,14z"/>
</g>
<polygon class="st0" points="14.1,5.5 12,7.6 9.9,5.5 8.5,6.9 10.6,9 8.5,11.1 9.9,12.5 12,10.4 14.1,12.5 15.5,11.1 13.4,9 
	15.5,6.9 "/>
</svg>
