<?xml version="1.0" encoding="utf-8"?>
<!-- Generator: Adobe Illustrator 22.1.0, SVG Export Plug-In . SVG Version: 6.00 Build 0)  -->
<svg version="1.1" id="Ebene_1" xmlns="http://www.w3.org/2000/svg" xmlns:xlink="http://www.w3.org/1999/xlink" x="0px" y="0px"
	 width="24px" height="24px" viewBox="0 0 24 24" style="enable-background:new 0 0 24 24;" xml:space="preserve">
<style type="text/css">
	.st0{fill:#FFFFFF;}
</style>
<path class="st0" d="M13,5v2c0,1.2,0.4,2.2,0.7,2.8l0,0l0,0l4.9,9.2H5.4l4.9-9.2l0,0l0,0C10.6,9.2,11,8.2,11,7V5H13 M15,3H9v4
	c0,0.7-0.2,1.3-0.5,1.9l-5.3,9.9c-0.5,1,0.2,2.2,1.3,2.2h15c1.1,0,1.9-1.2,1.3-2.2l-5.3-9.9C15.2,8.3,15,7.7,15,7V3L15,3z"/>
<path class="st0" d="M12,12.4c0.7,0.5,1.2,1.6,1.2,2.7c0,1.1-0.5,2.2-1.2,2.7c-0.7-0.5-1.2-1.6-1.2-2.7C10.8,14,11.3,12.9,12,12.4z
	 M9,16.3c-0.5-1-0.7-2.2-0.3-3c0.4,0,0.9,0.3,1.3,0.5c-0.1,0.4-0.2,0.9-0.2,1.4c0,0.9,0.2,1.8,0.7,2.5C9.9,17.4,9.4,16.9,9,16.3z
	 M15,16.3c-0.4,0.7-0.9,1.1-1.5,1.4c0.4-0.7,0.7-1.6,0.7-2.5c0-0.5-0.1-0.9-0.2-1.4c0.4-0.3,0.8-0.5,1.3-0.5
	C15.7,14.1,15.6,15.3,15,16.3z"/>
</svg>
