<?xml version="1.0" encoding="utf-8"?>
<!-- Generator: Adobe Illustrator 22.1.0, SVG Export Plug-In . SVG Version: 6.00 Build 0)  -->
<svg version="1.1" id="Ebene_1" xmlns="http://www.w3.org/2000/svg" xmlns:xlink="http://www.w3.org/1999/xlink" x="0px" y="0px"
	 width="24px" height="24px" viewBox="0 0 24 24" style="enable-background:new 0 0 24 24;" xml:space="preserve">
<style type="text/css">
	.st0{fill:#FFFFFF;}
</style>
<path class="st0" d="M21,5c-1.1-0.3-2.3-0.5-3.5-0.5c-1.9,0-4.1,0.4-5.5,1.5c-1.4-1.1-3.6-1.5-5.5-1.5S2.5,4.9,1,6v14.6
	c0,0.3,0.3,0.5,0.5,0.5c0.1,0,0.1,0,0.3,0C3.1,20.5,5.1,20,6.5,20c1.9,0,4.1,0.4,5.5,1.5c1.4-0.9,3.8-1.5,5.5-1.5
	c1.6,0,3.4,0.3,4.8,1c0.1,0.1,0.1,0.1,0.3,0.1c0.3,0,0.5-0.3,0.5-0.5V6C22.4,5.6,21.8,5.3,21,5z M21,18.5c-1.1-0.4-2.3-0.5-3.5-0.5
	c-1.7,0-4.1,0.6-5.5,1.5V8c1.4-0.8,3.8-1.5,5.5-1.5c1.2,0,2.4,0.2,3.5,0.5V18.5z"/>
</svg>
