<?xml version="1.0" encoding="utf-8"?>
<!-- Generator: Adobe Illustrator 22.1.0, SVG Export Plug-In . SVG Version: 6.00 Build 0)  -->
<svg version="1.1" id="Ebene_1" xmlns="http://www.w3.org/2000/svg" xmlns:xlink="http://www.w3.org/1999/xlink" x="0px" y="0px"
	 width="24px" height="24px" viewBox="0 0 24 24" enable-background="new 0 0 24 24" xml:space="preserve">
<path fill="#FFFFFF" d="M19,5v13.4c0,0.3-0.1,0.5-0.2,0.6H5.2C5.1,18.9,5,18.7,5,18.4V5H19 M19,3H5C3.9,3,3,3.9,3,5v13.4
	C3,19.8,3.9,21,5,21h14c1.1,0,2-1.2,2-2.6V5C21,3.9,20.1,3,19,3L19,3z"/>
<polygon fill="#FFFFFF" points="18,1 16,1 16,3 18,3 "/>
<polygon fill="#FFFFFF" points="8,1 6,1 6,3 8,3 "/>
<path fill="#FFFFFF" d="M12,12.9c-2,0-6,1.1-6,3.6V18h12v-1.5C18,14,14,12.9,12,12.9z M8.3,16c0.7-0.6,2.4-1.1,3.7-1.1
	s3,0.6,3.7,1.1H8.3z"/>
<path fill="#FFFFFF" d="M12,6c-1.7,0-3,1.3-3,3s1.3,3,3,3s3-1.3,3-3S13.7,6,12,6z M12,10c-0.5,0-1-0.5-1-1s0.5-1,1-1s1,0.5,1,1
	S12.5,10,12,10z"/>
</svg>
