<?xml version="1.0" encoding="utf-8"?>
<!-- Generator: Adobe Illustrator 22.1.0, SVG Export Plug-In . SVG Version: 6.00 Build 0)  -->
<svg version="1.1" id="Ebene_1" xmlns="http://www.w3.org/2000/svg" xmlns:xlink="http://www.w3.org/1999/xlink" x="0px" y="0px"
	 width="24px" height="24px" viewBox="0 0 24 24" style="enable-background:new 0 0 24 24;" xml:space="preserve">
<style type="text/css">
	.st0{fill:#FFFFFF;}
</style>
<g>
	<path class="st0" d="M16,14.5C15.7,17,14.1,19,12,19s-3.7-2-4-4.5c-2.4,0.7-4,2-4,3.5v2h16v-2C20,16.5,18.4,15.2,16,14.5z"/>
</g>
<path class="st0" d="M17,8c0-2.8-2.2-5-5-5S7,5.2,7,8c0,0,0,0,0,0.1V13h3v-1.6c-1.2-0.7-2-2-2-3.4c0-0.4,0.1-0.7,0.2-1.1
	C8.4,7,8.7,7,9,7c1.7,0,3-0.9,3-2c0,1.1,1.3,2,3,2c0.3,0,0.6,0,0.8-0.1C15.9,7.3,16,7.6,16,8c0,1.5-0.8,2.8-2,3.4V13h3V8L17,8z"/>
</svg>
