<?xml version="1.0" encoding="utf-8"?>
<!-- Generator: Adobe Illustrator 22.1.0, SVG Export Plug-In . SVG Version: 6.00 Build 0)  -->
<svg version="1.1" id="Ebene_1" xmlns="http://www.w3.org/2000/svg" xmlns:xlink="http://www.w3.org/1999/xlink" x="0px" y="0px"
	 width="24px" height="24px" viewBox="0 0 24 24" enable-background="new 0 0 24 24" xml:space="preserve">
<g>
	<path fill="#FFFFFF" d="M6.5,5C6.6,5.9,6.8,6.8,7,7.6L5.8,8.8C5.4,7.6,5.1,6.3,5,5H6.5 M16.4,17c0.8,0.2,1.7,0.4,2.6,0.5V19
		c-1.3-0.1-2.6-0.3-3.8-0.8L16.4,17 M7.5,3H4C3.5,3,3,3.5,3,4c0,9.4,7.6,17,17,17c0.5,0,1-0.5,1-1v-3.5c0-0.5-0.5-1-1-1
		c-1.3,0-2.5-0.2-3.6-0.6c-0.1,0-0.2,0-0.3,0c-0.3,0-0.5,0.1-0.7,0.3l-2.2,2.2C10.4,16,8,13.6,6.6,10.8l2.2-2.2
		c0.3-0.3,0.4-0.7,0.3-1C8.7,6.5,8.5,5.3,8.5,4C8.5,3.5,8,3,7.5,3L7.5,3z"/>
</g>
<polygon fill="#FFFFFF" points="18,11 23,6 18,1 18,4 14,4 14,8 18,8 "/>
</svg>
