<?xml version="1.0" encoding="utf-8"?>
<!-- Generator: Adobe Illustrator 22.1.0, SVG Export Plug-In . SVG Version: 6.00 Build 0)  -->
<svg version="1.1" id="Ebene_1" xmlns="http://www.w3.org/2000/svg" xmlns:xlink="http://www.w3.org/1999/xlink" x="0px" y="0px"
	 width="24px" height="24px" viewBox="0 0 24 24" enable-background="new 0 0 24 24" xml:space="preserve">
<path fill="none" d="M0,0h24v24H0V0z"/>
<path fill="#FFFFFF" d="M17,10.5V8c0-0.5-0.5-1-1-1H8.4l2-2H16c0.6,0,1-0.4,1-1s-0.4-1-1-1h-6C9.7,3,9.5,3.1,9.3,3.3L5.6,7H4
	C3.5,7,3,7.5,3,8v8c0,0.5,0.5,1,1,1h3.6l-3.3,3.3c-0.4,0.4-0.4,1,0,1.4c0.4,0.4,1,0.4,1.4,0l4.3-4.3l4.3,4.3
	c0.2,0.2,0.5,0.3,0.7,0.3s0.5-0.1,0.7-0.3c0.4-0.4,0.4-1,0-1.4L12.4,17H16c0.5,0,1-0.5,1-1v-2.5l4,4v-11L17,10.5z M15,15H5V9h10V15z
	"/>
</svg>
