<?xml version="1.0" encoding="utf-8"?>
<!-- Generator: Adobe Illustrator 22.1.0, SVG Export Plug-In . SVG Version: 6.00 Build 0)  -->
<svg version="1.1" id="Ebene_1" xmlns="http://www.w3.org/2000/svg" xmlns:xlink="http://www.w3.org/1999/xlink" x="0px" y="0px"
	 width="24px" height="24px" viewBox="0 0 24 24" enable-background="new 0 0 24 24" xml:space="preserve">
<path fill="#FFFFFF" d="M14.2,4l1.4,1.4L16.2,6H17h3v12H4V6h3h0.8l0.6-0.6L9.8,4H14.2 M15,2H9L7,4H4C2.9,4,2,4.9,2,6v12
	c0,1.1,0.9,2,2,2h16c1.1,0,2-0.9,2-2V6c0-1.1-0.9-2-2-2h-3L15,2L15,2z"/>
<path fill="#FFFFFF" d="M12,7c-2.8,0-5,2.2-5,5s2.2,5,5,5s5-2.2,5-5S14.8,7,12,7z M12,15c-1.7,0-3-1.3-3-3s1.3-3,3-3s3,1.3,3,3
	S13.7,15,12,15z"/>
<circle fill="#2878F0" cx="18" cy="18" r="6"/>
<g>
	<path fill="#FFFFFF" d="M17.5,15c1.4,0,2.5,1.1,2.5,2.5S18.9,20,17.5,20S15,18.9,15,17.5S16.1,15,17.5,15 M17.5,14
		c-1.9,0-3.5,1.6-3.5,3.5s1.6,3.5,3.5,3.5s3.5-1.6,3.5-3.5S19.4,14,17.5,14L17.5,14z"/>
</g>
<g>
	<line fill="#FFFFFF" x1="21.5" y1="21.5" x2="19.7" y2="19.7"/>
	<path fill="#FFFFFF" d="M21.9,21.1l-1.6-1.6c0.4-0.6,0.7-1.3,0.7-2.1c0-1.9-1.6-3.5-3.5-3.5S14,15.6,14,17.5s1.6,3.5,3.5,3.5
		c0.8,0,1.5-0.3,2.1-0.7l1.6,1.6c0.1,0.1,0.2,0.1,0.4,0.1s0.3,0,0.4-0.1C22,21.7,22,21.3,21.9,21.1z M15,17.5c0-1.4,1.1-2.5,2.5-2.5
		s2.5,1.1,2.5,2.5S18.9,20,17.5,20S15,18.9,15,17.5z"/>
</g>
</svg>
