<?xml version="1.0" encoding="utf-8"?>
<!-- Generator: Adobe Illustrator 22.1.0, SVG Export Plug-In . SVG Version: 6.00 Build 0)  -->
<svg version="1.1" id="Ebene_1" xmlns="http://www.w3.org/2000/svg" xmlns:xlink="http://www.w3.org/1999/xlink" x="0px" y="0px"
	 width="48px" height="48px" viewBox="0 0 48 48" enable-background="new 0 0 48 48" xml:space="preserve">
<path fill="#FFFFFF" d="M26,6v2v2h2h3.3c0.4,0,0.7,0.3,0.8,0.8v30.6c0,0.4-0.3,0.7-0.7,0.7H16.7c-0.4,0-0.7-0.3-0.7-0.7V10.7
	c0-0.4,0.3-0.7,0.7-0.7H20h2V8V6H26 M28,4h-8v4h-3.3C15.2,8,14,9.2,14,10.7v30.7c0,1.5,1.2,2.7,2.7,2.7h14.7c1.5,0,2.7-1.2,2.7-2.7
	V10.7C34,9.2,32.8,8,31.3,8H28V4L28,4z"/>
<polygon fill="#FFFFFF" points="22,40 22,29 18,29 26,14 26,25 30,25 "/>
</svg>
