<?xml version="1.0" encoding="utf-8"?>
<!-- Generator: Adobe Illustrator 22.1.0, SVG Export Plug-In . SVG Version: 6.00 Build 0)  -->
<svg version="1.1" id="Ebene_1" xmlns="http://www.w3.org/2000/svg" xmlns:xlink="http://www.w3.org/1999/xlink" x="0px" y="0px"
	 width="24px" height="24px" viewBox="0 0 24 24" enable-background="new 0 0 24 24" xml:space="preserve">
<path fill="#FFFFFF" d="M18.5,6.1C18.5,4.4,17,3,15.3,3h-0.4c-0.5-1.2-1.6-2-2.9-2S9.6,1.8,9.1,3H8.7C6.9,3,5.5,4.4,5.5,6.1
	c0,0.7,0.3,1.4,0.7,2C5.8,8.6,5.5,9.3,5.5,10c0,1.7,1.5,3.1,3.2,3.1L9.1,13c0.5,1.2,1.6,2,2.9,2s2.4-0.9,2.9-2h0.4
	c1.8,0,3.2-1.4,3.2-3.1c0-0.7-0.3-1.4-0.7-1.9C18.2,7.5,18.5,6.8,18.5,6.1z M9.4,10.8C9.1,10.9,8.9,11,8.7,11C8,11,7.5,10.5,7.5,9.9
	c0-0.4,0.3-0.8,0.7-1l0.9-0.4c0.1,0.7,0.5,1.4,1.1,1.8L9.4,10.8z M9.1,7.5L8.2,7.1c-0.4-0.2-0.7-0.6-0.7-1c0-0.7,0.5-1.2,1.2-1.2
	c0.2,0,0.4,0.1,0.6,0.2l0.9,0.6C9.6,6.1,9.2,6.8,9.1,7.5z M12,13c-0.6,0-1.1-0.5-1.1-1.1l0.1-1.1c0.3,0.1,0.7,0.2,1,0.2
	s0.7-0.1,1-0.2l0.1,1.1C13.1,12.5,12.6,13,12,13z M13,5.2C12.7,5.1,12.4,5,12,5s-0.7,0.1-1,0.2l-0.1-1.1C10.9,3.5,11.4,3,12,3
	s1.1,0.5,1.1,1.1L13,5.2z M15.3,11.1c-0.2,0-0.4-0.1-0.7-0.1l-0.8-0.6c0.6-0.4,1-1.1,1.1-1.8L15.8,9c0.4,0.2,0.7,0.6,0.7,1
	C16.5,10.6,15.9,11.1,15.3,11.1z M15.9,7.1L15,7.5c-0.2-0.7-0.5-1.4-1.1-1.8l0.8-0.6C14.9,5,15.1,4.9,15.4,5c0.7,0,1.2,0.5,1.2,1.1
	C16.6,6.5,16.3,6.9,15.9,7.1z"/>
<path fill="#FFFFFF" d="M12,22c5,0,9-4,9-9C16,13,12,17,12,22z M14.4,19.6c0.7-1.9,2.3-3.5,4.1-4.1C17.8,17.4,16.3,18.9,14.4,19.6z"
	/>
<path fill="#FFFFFF" d="M3,13c0,5,4,9,9,9C12,17,8,13,3,13z M5.4,15.4c1.9,0.8,3.5,2.3,4.1,4.1C7.6,18.8,6.1,17.3,5.4,15.4z"/>
</svg>
