<?xml version="1.0" encoding="utf-8"?>
<!-- Generator: Adobe Illustrator 22.1.0, SVG Export Plug-In . SVG Version: 6.00 Build 0)  -->
<svg version="1.1" id="Ebene_1" xmlns="http://www.w3.org/2000/svg" xmlns:xlink="http://www.w3.org/1999/xlink" x="0px" y="0px"
	 width="24px" height="24px" viewBox="0 0 24 24" enable-background="new 0 0 24 24" xml:space="preserve">
<polygon fill="#FFFFFF" points="3,15 5.3,17.3 2.4,20.2 3.8,21.6 6.7,18.7 9,21 9,15 "/>
<polygon fill="#FFFFFF" points="15,21 17.3,18.7 20.2,21.6 21.6,20.2 18.7,17.3 21,15 15,15 "/>
<polygon fill="#FFFFFF" points="21,9 18.7,6.7 21.6,3.8 20.2,2.4 17.3,5.3 15,3 15,9 "/>
<polygon fill="#FFFFFF" points="9,3 6.7,5.3 3.8,2.4 2.4,3.8 5.3,6.7 3,9 9,9 "/>
<g>
	<circle fill="#FFFFFF" cx="12" cy="12" r="2"/>
</g>
</svg>
