<?xml version="1.0" encoding="utf-8"?>
<!-- Generator: Adobe Illustrator 22.1.0, SVG Export Plug-In . SVG Version: 6.00 Build 0)  -->
<svg version="1.1" id="Ebene_1" xmlns="http://www.w3.org/2000/svg" xmlns:xlink="http://www.w3.org/1999/xlink" x="0px" y="0px"
	 width="24px" height="24px" viewBox="0 0 24 24" enable-background="new 0 0 24 24" xml:space="preserve">
<path fill="#FFFFFF" d="M22,8c0-2.2-1.8-4-4-4c-0.9,0-1.8,0.3-2.4,0.9C14.5,4.3,13.3,4,12,4c-1.3,0-2.5,0.3-3.6,0.9
	C7.8,4.3,6.9,4,6,4C3.8,4,2,5.8,2,8c0,1.5,0.8,2.8,2,3.5c0,0.2,0,0.4,0,0.5c0,3,1.7,5.6,4.1,7c0.4,1.7,2,3,3.9,3
	c1.9,0,3.4-1.3,3.9-3c2.5-1.4,4.1-4,4.1-7c0-0.2,0-0.4,0-0.5C21.2,10.8,22,9.5,22,8z M18,5c0.6,0,1,0.4,1,1s-0.4,1-1,1s-1-0.4-1-1
	S17.4,5,18,5z M6,5c0.6,0,1,0.4,1,1S6.6,7,6,7S5,6.6,5,6S5.4,5,6,5z M4,9.1C4,8.4,5.3,8,6,8s2,0.4,2,1.1V10H4V9.1z M14,20h-4v-0.9
	c0-0.7,1.3-1.1,2-1.1s2,0.4,2,1.1V20z M11,16c0-0.6,0.4-1,1-1s1,0.4,1,1s-0.4,1-1,1S11,16.6,11,16z M19,12c0,2.4-1.2,4.5-3,5.7
	c-0.1-2.1-1.9-3.7-4-3.7c-2.1,0-3.8,1.7-4,3.7c-1.8-1.3-3-3.4-3-5.7c0,0,0-0.1,0-0.1C5.3,11.9,5.7,12,6,12c2.2,0,4-1.8,4-4
	c0-0.9-0.3-1.7-0.8-2.4C10,5.2,11,5,12,5c1,0,2,0.2,2.8,0.6C14.3,6.3,14,7.1,14,8c0,2.2,1.8,4,4,4c0.3,0,0.7-0.1,1-0.1
	C19,11.9,19,12,19,12z M20,10h-4V9.1C16,8.4,17.3,8,18,8s2,0.4,2,1.1V10z"/>
</svg>
