<?xml version="1.0" encoding="utf-8"?>
<!-- Generator: Adobe Illustrator 22.1.0, SVG Export Plug-In . SVG Version: 6.00 Build 0)  -->
<svg version="1.1" id="Ebene_1" xmlns="http://www.w3.org/2000/svg" xmlns:xlink="http://www.w3.org/1999/xlink" x="0px" y="0px"
	 width="24px" height="24px" viewBox="0 0 24 24" enable-background="new 0 0 24 24" xml:space="preserve">
<g>
	<g>
		<path fill="#FFFFFF" d="M12,7c0.8,0,1.5,0.7,1.5,1.5S12.8,10,12,10s-1.5-0.7-1.5-1.5S11.2,7,12,7 M12,5c-1.9,0-3.5,1.6-3.5,3.5
			S10.1,12,12,12s3.5-1.6,3.5-3.5S13.9,5,12,5L12,5z"/>
	</g>
	<g>
		<path fill="#FFFFFF" d="M4.7,14.6c-1.9,0.2-4.7,1.2-4.7,3V19h3v-1.9C3,16.1,3.7,15.2,4.7,14.6L4.7,14.6z"/>
	</g>
	<g>
		<path fill="#FFFFFF" d="M12,16c1.4,0,3.2,0.5,4.2,1H7.8C8.8,16.5,10.6,16,12,16 M12,14c-2.3,0-7,1.2-7,3.5V19h14v-1.5
			C19,15.2,14.3,14,12,14L12,14z"/>
	</g>
	<g>
		<path fill="#FFFFFF" d="M19.3,14.6c1,0.7,1.7,1.5,1.7,2.5V19h3v-1.5C24,15.8,21.2,14.8,19.3,14.6L19.3,14.6z"/>
	</g>
	<g>
		<path fill="#FFFFFF" d="M5.5,10C5.8,10,6,10.2,6,10.5S5.8,11,5.5,11S5,10.8,5,10.5S5.2,10,5.5,10 M5.5,8C4.1,8,3,9.1,3,10.5
			S4.1,13,5.5,13S8,11.9,8,10.5S6.9,8,5.5,8L5.5,8z"/>
	</g>
	<g>
		<path fill="#FFFFFF" d="M18.5,10c0.3,0,0.5,0.2,0.5,0.5S18.8,11,18.5,11S18,10.8,18,10.5S18.2,10,18.5,10 M18.5,8
			C17.1,8,16,9.1,16,10.5s1.1,2.5,2.5,2.5s2.5-1.1,2.5-2.5S19.9,8,18.5,8L18.5,8z"/>
	</g>
</g>
</svg>
