<?xml version="1.0" encoding="utf-8"?>
<!-- Generator: Adobe Illustrator 22.1.0, SVG Export Plug-In . SVG Version: 6.00 Build 0)  -->
<svg version="1.1" id="Ebene_1" xmlns="http://www.w3.org/2000/svg" xmlns:xlink="http://www.w3.org/1999/xlink" x="0px" y="0px"
	 width="24px" height="24px" viewBox="0 0 24 24" enable-background="new 0 0 24 24" xml:space="preserve">
<path fill="#FFFFFF" d="M10.1,10.9c0.1-0.3,0.2-0.6,0.3-0.9s0.3-0.5,0.6-0.6c0.2-0.1,0.5-0.2,0.9-0.2c0.2,0,0.4,0.1,0.6,0.1
	c0.2,0.1,0.4,0.2,0.5,0.4s0.3,0.3,0.3,0.5s0.1,0.4,0.1,0.6h1.8c0-0.5-0.1-0.9-0.3-1.3s-0.4-0.7-0.7-1s-0.5-0.5-1-0.7
	c-0.4-0.2-0.9-0.2-1.4-0.2c-0.6,0-1.2,0.1-1.7,0.3C9.7,8.2,9.3,8.5,9,8.9s-0.6,0.8-0.7,1.4S8,11.3,8,11.9v0.3c0,0.6,0.1,1.1,0.2,1.6
	s0.4,1,0.7,1.4s0.7,0.7,1.2,0.9s1.1,0.3,1.7,0.3c0.5,0,0.9-0.1,1.3-0.2s0.8-0.4,1.1-0.6s0.6-0.6,0.7-0.9s0.3-0.7,0.3-1.1h-1.8
	c0,0.2-0.1,0.4-0.1,0.6s-0.2,0.3-0.4,0.5s-0.3,0.2-0.5,0.3s-0.4,0.1-0.6,0.1c-0.4,0-0.7-0.1-0.9-0.2c-0.3-0.2-0.4-0.4-0.6-0.6
	S10,13.7,10,13.4s-0.1-0.7-0.1-1v-0.3C10,11.5,10,11.2,10.1,10.9z M12,2C6.5,2,2,6.5,2,12s4.5,10,10,10s10-4.5,10-10S17.5,2,12,2z
	 M12,20c-4.4,0-8-3.6-8-8s3.6-8,8-8s8,3.6,8,8S16.4,20,12,20z"/>
</svg>
