<?xml version="1.0" encoding="utf-8"?>
<!-- Generator: Adobe Illustrator 22.1.0, SVG Export Plug-In . SVG Version: 6.00 Build 0)  -->
<svg version="1.1" id="Ebene_1" xmlns="http://www.w3.org/2000/svg" xmlns:xlink="http://www.w3.org/1999/xlink" x="0px" y="0px"
	 width="24px" height="24px" viewBox="0 0 24 24" enable-background="new 0 0 24 24" xml:space="preserve">
<path fill="#FFFFFF" d="M14,11.9v0.3c0,0.3,0,0.7-0.1,1s-0.2,0.6-0.3,0.9s-0.3,0.5-0.6,0.6c-0.2,0.1-0.5,0.2-0.9,0.2
	c-0.2,0-0.4,0-0.6-0.1c-0.2-0.1-0.4-0.2-0.5-0.3s-0.3-0.3-0.4-0.5s-0.1-0.4-0.1-0.6H8.7c0,0.4,0.1,0.8,0.3,1.1s0.4,0.7,0.7,0.9
	s0.7,0.5,1.1,0.6c0.4,0.1,0.8,0.2,1.3,0.2c0.6,0,1.2-0.1,1.7-0.3s0.9-0.5,1.2-0.9s0.6-0.8,0.7-1.4s0.2-1.1,0.2-1.6v-0.3
	c0-0.6-0.1-1.1-0.2-1.6s-0.4-1-0.7-1.4S14.3,8.2,13.8,8s-1.1-0.3-1.7-0.3c-0.5,0-1,0.1-1.4,0.2C10.3,8,10,8.2,9.7,8.5S9.1,9.1,9,9.5
	s-0.3,0.8-0.3,1.3h1.8c0-0.2,0.1-0.4,0.1-0.6s0.2-0.4,0.3-0.5s0.3-0.3,0.5-0.4c0.2-0.1,0.4-0.1,0.6-0.1c0.4,0,0.7,0.1,0.9,0.2
	c0.3,0.2,0.4,0.4,0.6,0.6s0.3,0.5,0.3,0.9C14,11.2,14,11.5,14,11.9z M2,12c0,5.5,4.5,10,10,10s10-4.5,10-10S17.5,2,12,2S2,6.5,2,12z
	 M4,12c0-4.4,3.6-8,8-8s8,3.6,8,8s-3.6,8-8,8S4,16.4,4,12z"/>
</svg>
