<?xml version="1.0" encoding="utf-8"?>
<!-- Generator: Adobe Illustrator 22.1.0, SVG Export Plug-In . SVG Version: 6.00 Build 0)  -->
<svg version="1.1" id="Ebene_1" xmlns="http://www.w3.org/2000/svg" xmlns:xlink="http://www.w3.org/1999/xlink" x="0px" y="0px"
	 width="24px" height="24px" viewBox="0 0 24 24" enable-background="new 0 0 24 24" xml:space="preserve">
<g>
	<rect x="11" y="15" fill="#FFFFFF" width="2" height="1"/>
	<rect x="11" y="17" fill="#FFFFFF" width="2" height="1"/>
	<rect x="7" y="15" fill="#FFFFFF" width="2" height="1"/>
	<rect x="7" y="13" fill="#FFFFFF" width="2" height="1"/>
	<rect x="7" y="17" fill="#FFFFFF" width="2" height="1"/>
	<rect x="11" y="13" fill="#FFFFFF" width="2" height="1"/>
	<rect x="7" y="11" fill="#FFFFFF" width="2" height="1"/>
	<rect x="15" y="15" fill="#FFFFFF" width="2" height="1"/>
	<rect x="11" y="11" fill="#FFFFFF" width="2" height="1"/>
	<path fill="#FFFFFF" d="M14,2H6C4.9,2,4,2.9,4,4v16c0,1.1,0.9,2,2,2h12c1.1,0,2-0.9,2-2V8L14,2z M18,20H6V4h7.2H14v4h4V20z"/>
	<rect x="15" y="17" fill="#FFFFFF" width="2" height="1"/>
	<rect x="15" y="13" fill="#FFFFFF" width="2" height="1"/>
	<rect x="15" y="11" fill="#FFFFFF" width="2" height="1"/>
</g>
</svg>
