<?xml version="1.0" encoding="utf-8"?>
<!-- Generator: Adobe Illustrator 22.1.0, SVG Export Plug-In . SVG Version: 6.00 Build 0)  -->
<svg version="1.1" id="Ebene_1" xmlns="http://www.w3.org/2000/svg" xmlns:xlink="http://www.w3.org/1999/xlink" x="0px" y="0px"
	 width="24px" height="24px" viewBox="0 0 24 24" enable-background="new 0 0 24 24" xml:space="preserve">
<path fill="#FFFFFF" d="M20,10c-0.9,0-1.7,0.6-1.9,1.5h-3.1c-0.1-1-0.7-1.9-1.4-2.6l1.9-3C15.6,6,15.8,6,16,6c1.1,0,2-0.9,2-2
	s-0.9-2-2-2s-2,0.9-2,2c0,0.5,0.2,1,0.6,1.4l-1.9,3C12.2,8.1,11.6,8,11,8c-1,0-2,0.4-2.7,1.1L5.8,6.9C5.9,6.6,6,6.3,6,6
	c0-1.1-0.9-2-2-2S2,4.9,2,6s0.9,2,2,2c0.4,0,0.8-0.1,1.1-0.3l2.5,2.2C7.2,10.5,7,11.2,7,12c0,0.8,0.2,1.5,0.6,2.2l-2.5,2.2
	C4.8,16.1,4.4,16,4,16c-1.1,0-2,0.9-2,2s0.9,2,2,2s2-0.9,2-2c0-0.3-0.1-0.6-0.2-0.9l2.5-2.2C9,15.6,10,16,11,16
	c0.6,0,1.2-0.2,1.7-0.4l1.9,3C14.2,18.9,14,19.4,14,20c0,1.1,0.9,2,2,2s2-0.9,2-2s-0.9-2-2-2c-0.2,0-0.4,0-0.5,0.1l-1.9-3
	c0.8-0.6,1.3-1.5,1.4-2.5h3.1c0.2,0.9,1,1.5,1.9,1.5c1.1,0,2-0.9,2-2S21.1,10,20,10z M9,12c0-1.1,0.9-2,2-2s2,0.9,2,2s-0.9,2-2,2
	S9,13.1,9,12z"/>
</svg>
