<?xml version="1.0" encoding="utf-8"?>
<!-- Generator: Adobe Illustrator 22.1.0, SVG Export Plug-In . SVG Version: 6.00 Build 0)  -->
<svg version="1.1" id="Ebene_1" xmlns="http://www.w3.org/2000/svg" xmlns:xlink="http://www.w3.org/1999/xlink" x="0px" y="0px"
	 width="24px" height="24px" viewBox="0 0 24 24" enable-background="new 0 0 24 24" xml:space="preserve">
<path fill="none" d="M0,0h24v24H0V0z"/>
<path fill="#FFFFFF" d="M3,20h18v-4H3V20z M4,17h2v2H4V17z M3,4v4h18V4H3z M6,7H4V5h2V7z M3,14h18v-4H3V14z M4,11h2v2H4V11z"/>
<circle fill="#28A050" cx="18" cy="18" r="6"/>
<path fill="#FFFFFF" d="M13.9,18c0,2.2,1.8,4,4,4c1.9,0,3.5-1.3,3.9-3h-1c-0.4,1.2-1.5,2-2.8,2c-1.7,0-3-1.3-3-3s1.3-3,3-3
	c0.8,0,1.5,0.3,2,0.8L18.9,17h3v-3l-1.2,1.1C20,14.4,19.1,14,18,14C15.8,14,13.9,15.8,13.9,18z"/>
</svg>
