<?xml version="1.0" encoding="utf-8"?>
<!-- Generator: Adobe Illustrator 22.1.0, SVG Export Plug-In . SVG Version: 6.00 Build 0)  -->
<svg version="1.1" id="Ebene_1" xmlns="http://www.w3.org/2000/svg" xmlns:xlink="http://www.w3.org/1999/xlink" x="0px" y="0px"
	 width="24px" height="24px" viewBox="0 0 24 24" enable-background="new 0 0 24 24" xml:space="preserve">
<path fill="#FFFFFF" d="M20,10.6C19.8,9.7,19,9,18,9h-2.5C15.8,8.4,16,7.7,16,7c0-2.2-1.8-4-4-4S8,4.8,8,7c0,0.7,0.2,1.4,0.5,2H6
	c-1,0-1.8,0.7-2,1.6c-2,8-2,8.2-2,8.4c0,1.1,0.9,2,2,2h16c1.1,0,2-0.9,2-2C22,18.8,22,18.6,20,10.6z M12,5c1.1,0,2,0.9,2,2
	s-0.9,2-2,2s-2-0.9-2-2S10.9,5,12,5z M11.6,14c0.1,0.1,0.3,0.3,0.6,0.4c0.3,0.1,0.6,0.3,0.8,0.4c0.3,0.1,0.5,0.3,0.7,0.5
	c0.2,0.2,0.3,0.4,0.4,0.6c0.1,0.2,0.2,0.5,0.2,0.8c0,0.5-0.2,1-0.5,1.3c-0.3,0.3-0.8,0.5-1.4,0.6v1h-0.8v-1
	c-0.7-0.1-1.2-0.3-1.6-0.7c-0.4-0.4-0.6-0.9-0.6-1.6h1.6c0,0.4,0.1,0.6,0.2,0.8c0.2,0.2,0.4,0.3,0.7,0.3c0.2,0,0.4-0.1,0.5-0.2
	c0.1-0.1,0.2-0.3,0.2-0.5c0-0.2-0.1-0.4-0.2-0.6c-0.1-0.1-0.3-0.3-0.6-0.4c-0.3-0.1-0.6-0.3-0.9-0.4c-0.3-0.1-0.5-0.3-0.7-0.4
	c-0.2-0.2-0.3-0.4-0.4-0.6c-0.1-0.2-0.2-0.5-0.2-0.8c0-0.5,0.2-1,0.5-1.3s0.8-0.5,1.4-0.6v-1h0.8v1c0.6,0.1,1,0.3,1.4,0.7
	c0.3,0.4,0.5,0.9,0.5,1.5h-1.6c0-0.3-0.1-0.6-0.2-0.8c-0.1-0.2-0.3-0.3-0.5-0.3c-0.2,0-0.4,0.1-0.5,0.2c-0.1,0.1-0.2,0.3-0.2,0.5
	C11.4,13.7,11.5,13.8,11.6,14z"/>
</svg>
