<?xml version="1.0" encoding="utf-8"?>
<!-- Generator: Adobe Illustrator 22.1.0, SVG Export Plug-In . SVG Version: 6.00 Build 0)  -->
<svg version="1.1" id="Ebene_1" xmlns="http://www.w3.org/2000/svg" xmlns:xlink="http://www.w3.org/1999/xlink" x="0px" y="0px"
	 width="24px" height="24px" viewBox="0 0 24 24" enable-background="new 0 0 24 24" xml:space="preserve">
<g>
	<path fill="#FFFFFF" d="M12,2C8.1,2,5,5.1,5,9c0,2.4,1.2,4.5,3,5.7V17c0,0.5,0.4,1,1,1h6c0.6,0,1-0.5,1-1v-2.3c1.8-1.3,3-3.4,3-5.7
		C19,5.1,15.9,2,12,2z M12.8,15.7c-0.2,0.2-0.5,0.3-0.9,0.3c-0.4,0-0.6-0.1-0.9-0.3c-0.2-0.2-0.3-0.5-0.3-0.8c0-0.3,0.1-0.6,0.3-0.8
		c0.2-0.2,0.5-0.3,0.9-0.3s0.6,0.1,0.9,0.3c0.2,0.2,0.3,0.5,0.3,0.8C13.1,15.2,13,15.5,12.8,15.7z M15,9.1c-0.2,0.4-0.5,0.8-1,1.2
		l-0.6,0.6c-0.4,0.4-0.6,0.8-0.6,1.3l0,0.5h-1.9c0-0.7,0.1-1.2,0.3-1.7c0.2-0.4,0.5-0.8,0.9-1.2c0.4-0.4,0.7-0.7,0.9-1
		c0.1-0.2,0.2-0.5,0.2-0.8c0-0.8-0.4-1.3-1.2-1.3c-0.4,0-0.7,0.1-0.9,0.3c-0.2,0.2-0.3,0.5-0.3,0.9H8.7c0-0.9,0.3-1.7,0.9-2.2
		C10.2,5.3,11,5,12,5c1,0,1.9,0.3,2.4,0.8C15,6.3,15.3,7,15.3,7.9C15.3,8.3,15.2,8.7,15,9.1z"/>
	<path fill="#FFFFFF" d="M9,21c0,0.5,0.4,1,1,1h4c0.6,0,1-0.5,1-1v-1H9V21z"/>
</g>
</svg>
