<?xml version="1.0" encoding="utf-8"?>
<!-- Generator: Adobe Illustrator 22.1.0, SVG Export Plug-In . SVG Version: 6.00 Build 0)  -->
<svg version="1.1" id="Ebene_1" xmlns="http://www.w3.org/2000/svg" xmlns:xlink="http://www.w3.org/1999/xlink" x="0px" y="0px"
	 width="24px" height="24px" viewBox="0 0 24 24" enable-background="new 0 0 24 24" xml:space="preserve">
<path fill="#FFFFFF" d="M5,3v18h6v-3.5h2V21h6V3H5z M9,19H7v-2h2V19z M9,15H7v-2h2V15z M9,11H7V9h2V11z M9,7H7V5h2V7z M13,15h-2v-2
	h2V15z M13,11h-2V9h2V11z M13,7h-2V5h2V7z M17,19h-2v-2h2V19z M17,15h-2v-2h2V15z M17,11h-2V9h2V11z M17,7h-2V5h2V7z"/>
</svg>
