<?xml version="1.0" encoding="utf-8"?>
<!-- Generator: Adobe Illustrator 22.1.0, SVG Export Plug-In . SVG Version: 6.00 Build 0)  -->
<svg version="1.1" id="Ebene_1" xmlns="http://www.w3.org/2000/svg" xmlns:xlink="http://www.w3.org/1999/xlink" x="0px" y="0px"
	 width="24px" height="24px" viewBox="0 0 24 24" enable-background="new 0 0 24 24" xml:space="preserve">
<path fill="#FFFFFF" d="M20,20H4c-1.1,0-2-0.9-2-2V6c0-1.1,0.9-2,2-2h16c1.1,0,2,0.9,2,2v12C22,19.1,21.1,20,20,20z M6,9L4,7v10l2-2
	V9z M7,16l-2,2h5l-2-2H7z M9,15l2,2V7L9,9V15z M8,8l2-2H5l2,2H8z M15,9l-2-2v10l2-2V9z M16,16l-2,2h5l-2-2H16z M18,15l2,2V7l-2,2V15
	z M17,8l2-2h-5l2,2H17z"/>
</svg>
