<?xml version="1.0" encoding="utf-8"?>
<!-- Generator: Adobe Illustrator 22.1.0, SVG Export Plug-In . SVG Version: 6.00 Build 0)  -->
<svg version="1.1" id="Ebene_1" xmlns="http://www.w3.org/2000/svg" xmlns:xlink="http://www.w3.org/1999/xlink" x="0px" y="0px"
	 width="24px" height="24px" viewBox="0 0 24 24" enable-background="new 0 0 24 24" xml:space="preserve">
<g>
	<path fill="#FFFFFF" d="M11.6,6.3c0.1-0.3,0.7-0.3,0.8,0l1.4,3.8l6.1,6.1c0-0.1,0-0.1,0-0.2c0-2-1.4-3.6-3.3-3.9l-2.4-6.5
		C13.9,4.6,13,4,12,4c-1,0-1.9,0.6-2.3,1.6L9.6,5.9l1.6,1.6L11.6,6.3z"/>
	<path fill="#FFFFFF" d="M21,19.7L4.3,3L3,4.3l5.2,5.2l-1,2.6C5.4,12.4,4,14,4,16c0,2.2,1.8,4,4,4c0.2,0,0.5,0,0.7-0.1
		c0.2,0,0.3-0.1,0.4-0.2C9.8,20.5,10.9,21,12,21c1.1,0,2.2-0.5,2.9-1.3c0.1,0.1,0.3,0.2,0.4,0.2c0.2,0,0.5,0.1,0.7,0.1
		c0.8,0,1.5-0.2,2.1-0.6l1.6,1.6L21,19.7z M14,17c0,1.1-0.9,2-2,2c-1.1,0-2-0.9-2-2c0-0.6-0.4-1-1-1s-1,0.4-1,1c0,0.3,0.1,0.7,0.1,1
		c0,0-0.1,0-0.1,0c-1.1,0-2-0.9-2-2s0.9-2,2-2h0.7l1.1-2.9l5,5C14.3,16.1,14,16.5,14,17z M16,18c0,0-0.1,0-0.1,0
		c0.1-0.2,0.1-0.5,0.1-0.7l0.7,0.7C16.4,18,16.2,18,16,18z"/>
</g>
</svg>
