<?xml version="1.0" encoding="utf-8"?>
<!-- Generator: Adobe Illustrator 22.1.0, SVG Export Plug-In . SVG Version: 6.00 Build 0)  -->
<svg version="1.1" id="Ebene_1" xmlns="http://www.w3.org/2000/svg" xmlns:xlink="http://www.w3.org/1999/xlink" x="0px" y="0px"
	 width="24px" height="24px" viewBox="0 0 24 24" enable-background="new 0 0 24 24" xml:space="preserve">
<g>
	<path fill="#FFFFFF" d="M13,17.9v4c3-0.3,5.5-1.9,7.1-4.2l-3.5-2C15.7,16.9,14.5,17.7,13,17.9z"/>
	<path fill="#FFFFFF" d="M11,17.9C8.2,17.4,6,15,6,12s2.2-5.4,5-5.9v-4C5.9,2.6,2,6.8,2,12s3.9,9.4,9,9.9V17.9z"/>
	<path fill="#FFFFFF" d="M13,6.1c2.8,0.5,5,2.9,5,5.9c0,0.7-0.1,1.4-0.4,2l3.5,2c0.5-1.2,0.9-2.6,0.9-4c0-5.2-3.9-9.4-9-9.9V6.1z"/>
</g>
</svg>
