<?xml version="1.0" encoding="utf-8"?>
<!-- Generator: Adobe Illustrator 22.1.0, SVG Export Plug-In . SVG Version: 6.00 Build 0)  -->
<svg version="1.1" id="Ebene_1" xmlns="http://www.w3.org/2000/svg" xmlns:xlink="http://www.w3.org/1999/xlink" x="0px" y="0px"
	 width="24px" height="24px" viewBox="0 0 24 24" enable-background="new 0 0 24 24" xml:space="preserve">
<path fill="#FFFFFF" d="M20,4H4C2.9,4,2,4.9,2,6v9.4v2.1V18c0,1.1,0.9,2,2,2h16c1.1,0,2-0.9,2-2V8.6V6.5V6C22,4.9,21.1,4,20,4z
	 M20,18H4v-2.5L9.5,10l6,6l4.5-5.1V18z M15.5,13.9l-6-6L4,13.4V6h16v2.8L15.5,13.9z"/>
</svg>
