<?xml version="1.0" encoding="utf-8"?>
<!-- Generator: Adobe Illustrator 22.1.0, SVG Export Plug-In . SVG Version: 6.00 Build 0)  -->
<svg version="1.1" id="Ebene_1" xmlns="http://www.w3.org/2000/svg" xmlns:xlink="http://www.w3.org/1999/xlink" x="0px" y="0px"
	 width="24px" height="24px" viewBox="0 0 24 24" enable-background="new 0 0 24 24" xml:space="preserve">
<path fill="#FFFFFF" d="M12,5c-3.9,0-7,3.1-7,7h2c0-2.8,2.2-5,5-5s5,2.2,5,5h2C19,8.1,15.9,5,12,5 M13,14.3c0.9-0.4,1.5-1.3,1.5-2.3
	c0-1.4-1.1-2.5-2.5-2.5S9.5,10.6,9.5,12c0,1,0.6,1.9,1.5,2.3v3.3L7.6,21L9,22.4l3-3l3,3l1.4-1.4L13,17.6V14.3 M12,1
	C5.9,1,1,5.9,1,12h2c0-5,4-9,9-9s9,4,9,9h2C23,5.9,18.1,1,12,1z"/>
</svg>
