<?xml version="1.0" encoding="utf-8"?>
<!-- Generator: Adobe Illustrator 22.1.0, SVG Export Plug-In . SVG Version: 6.00 Build 0)  -->
<svg version="1.1" id="Ebene_1" xmlns="http://www.w3.org/2000/svg" xmlns:xlink="http://www.w3.org/1999/xlink" x="0px" y="0px"
	 width="24px" height="24px" viewBox="0 0 24 24" enable-background="new 0 0 24 24" xml:space="preserve">
<path fill="none" d="M0,0h24v24H0V0z"/>
<g>
	<path fill="#FFFFFF" d="M5.5,10.5v1.7c-0.7,0.4-1.4,0.9-1.9,1.3l-1.1-1.1C3.4,11.7,4.4,11,5.5,10.5 M18.6,10.5
		c1.1,0.5,2.1,1.2,3,1.9l-1.1,1.1c-0.6-0.5-1.2-0.9-2-1.3V10.5 M12,7C7.5,7,3.3,8.8,0.3,11.7C0.1,11.9,0,12.1,0,12.4
		s0.1,0.5,0.3,0.7l2.5,2.5c0.2,0.2,0.4,0.3,0.7,0.3s0.5-0.1,0.7-0.3c0.8-0.7,1.7-1.4,2.7-1.9c0.3-0.2,0.6-0.5,0.6-0.9V9.7
		C8.9,9.3,10.4,9,12,9s3.1,0.3,4.6,0.7v3.1c0,0.4,0.2,0.7,0.6,0.9c1,0.5,1.9,1.1,2.7,1.9c0.2,0.2,0.4,0.3,0.7,0.3
		c0.3,0,0.5-0.1,0.7-0.3l2.5-2.5c0.2-0.2,0.3-0.4,0.3-0.7s-0.1-0.5-0.3-0.7C20.7,8.8,16.5,7,12,7L12,7z"/>
</g>
</svg>
