<?xml version="1.0" encoding="utf-8"?>
<!-- Generator: Adobe Illustrator 22.1.0, SVG Export Plug-In . SVG Version: 6.00 Build 0)  -->
<svg version="1.1" id="Ebene_1" xmlns="http://www.w3.org/2000/svg" xmlns:xlink="http://www.w3.org/1999/xlink" x="0px" y="0px"
	 width="24px" height="24px" viewBox="0 0 24 24" enable-background="new 0 0 24 24" xml:space="preserve">
<path fill="#FFFFFF" d="M19.2,9l-1.5-0.1l-0.3-1.5C16.9,4.9,14.6,3,12,3C9.9,3,8.1,4.2,7.1,6L6.7,6.9L5.6,7C3.5,7.2,2,9,2,11
	c0,2.2,1.8,4,4,4h4v-4c0-1.1,0.9-2,2-2s2,0.9,2,2v4h2h2h1c1.7,0,3-1.3,3-3C22,10.4,20.8,9.1,19.2,9z"/>
<rect x="7" y="16" fill="#FFFFFF" width="10" height="1"/>
<rect x="5" y="18" fill="#FFFFFF" width="14" height="1"/>
<rect x="3" y="20" fill="#FFFFFF" width="18" height="1"/>
</svg>
