<?xml version="1.0" encoding="utf-8"?>
<!-- Generator: Adobe Illustrator 22.1.0, SVG Export Plug-In . SVG Version: 6.00 Build 0)  -->
<svg version="1.1" id="Ebene_1" xmlns="http://www.w3.org/2000/svg" xmlns:xlink="http://www.w3.org/1999/xlink" x="0px" y="0px"
	 width="48px" height="48px" viewBox="0 0 48 48" enable-background="new 0 0 48 48" xml:space="preserve">
<path fill="none" d="M0,0h48v48H0V0z"/>
<path fill="#FFFFFF" d="M24,4C13,4,4,13,4,24s9,20,20,20s20-9,20-20S35,4,24,4z M24,40c-8.8,0-16-7.2-16-16S15.2,8,24,8
	s16,7.2,16,16S32.8,40,24,40z"/>
<polygon fill="#FFFFFF" points="25,14 22,14 22,26 32.5,32.3 34,29.8 25,24.5 "/>
<path fill="#F03C28" d="M26.6,44h19c1.9,0,3.1-2.1,2.1-3.8l-9.5-16.3c-0.9-1.6-3.4-1.6-4.3,0l-9.5,16.3C23.4,41.9,24.6,44,26.6,44z"
	/>
<rect x="35" y="37.8" fill="#FFFFFF" width="2" height="2"/>
<rect x="35" y="29.8" fill="#FFFFFF" width="2" height="6"/>
</svg>
