<?xml version="1.0" encoding="utf-8"?>
<!-- Generator: Adobe Illustrator 22.1.0, SVG Export Plug-In . SVG Version: 6.00 Build 0)  -->
<svg version="1.1" id="Ebene_1" xmlns="http://www.w3.org/2000/svg" xmlns:xlink="http://www.w3.org/1999/xlink" x="0px" y="0px"
	 width="24px" height="24px" viewBox="0 0 24 24" enable-background="new 0 0 24 24" xml:space="preserve">
<polygon fill="#FFFFFF" points="12,1 8,5 11,5 11,14 13,14 13,5 16,5 "/>
<path fill="#FFFFFF" d="M15,6.6v2.2c1.8,1,3,3,3,5.2c0,3.3-2.7,6-6,6s-6-2.7-6-6c0-2.2,1.2-4.1,3-5.2V6.6C6.1,7.8,4,10.6,4,14
	c0,4.4,3.6,8,8,8s8-3.6,8-8C20,10.6,17.9,7.8,15,6.6z"/>
</svg>
