<?xml version="1.0" encoding="utf-8"?>
<!-- Generator: Adobe Illustrator 22.1.0, SVG Export Plug-In . SVG Version: 6.00 Build 0)  -->
<svg version="1.1" id="Ebene_1" xmlns="http://www.w3.org/2000/svg" xmlns:xlink="http://www.w3.org/1999/xlink" x="0px" y="0px"
	 width="24px" height="24px" viewBox="0 0 24 24" enable-background="new 0 0 24 24" xml:space="preserve">
<path fill="#FFFFFF" d="M21,8.3l-9-5.7L3,8.3c-0.6,0.3-1,1-1,1.7v10c0,1.1,0.9,2,2,2h16c1.1,0,2-0.9,2-2V10C22,9.3,21.6,8.6,21,8.3z
	 M7,7.5l1.8,1.8C9.8,8.5,11,8,12.3,8c2.3,0,4.4,1.5,5.2,4H16c-0.5-1.6-2-2.8-3.8-2.8c-1,0-1.8,0.3-2.5,1l1.8,1.8H7V7.5z M20,20H4
	v-7.6l8,5l8-5V20z"/>
</svg>
