<?xml version="1.0" encoding="utf-8"?>
<!-- Generator: Adobe Illustrator 22.1.0, SVG Export Plug-In . SVG Version: 6.00 Build 0)  -->
<svg version="1.1" id="Ebene_1" xmlns="http://www.w3.org/2000/svg" xmlns:xlink="http://www.w3.org/1999/xlink" x="0px" y="0px"
	 width="24px" height="24px" viewBox="0 0 24 24" enable-background="new 0 0 24 24" xml:space="preserve">
<path fill="#FFFFFF" d="M22.7,22.3L20.4,20c1-1.1,1.6-2.5,1.6-4c0-1.8-0.8-3.4-2-4.5V8l-6-6H6C4.9,2,4,2.9,4,4v16c0,1.1,0.9,2,2,2
	h10c0,0,0,0,0,0c1,0,2-0.3,2.9-0.7l2.4,2.4c0.4,0.4,1,0.4,1.4,0S23.1,22.7,22.7,22.3z M6,4h7.2H14v4h4v2.3c-0.6-0.2-1.3-0.3-2-0.3
	c-1.2,0-2.4,0.4-3.3,1H7v1h4.5c-0.3,0.3-0.5,0.6-0.7,1H7v1h3.3c-0.1,0.3-0.2,0.7-0.3,1H7v1h3c0,0,0,0,0,0c0,0.3,0,0.7,0.1,1H7v1h3.3
	c0.3,0.7,0.7,1.4,1.2,2H6V4z M16,20L16,20L16,20c-1.5,0-2.8-0.8-3.4-2H17v-2h-5c0-0.3,0.1-0.7,0.1-1H17v-2h-3.6c0.7-0.6,1.6-1,2.6-1
	c2.2,0,4,1.8,4,4S18.2,20,16,20z"/>
</svg>
