<?xml version="1.0" encoding="utf-8"?>
<!-- Generator: Adobe Illustrator 22.1.0, SVG Export Plug-In . SVG Version: 6.00 Build 0)  -->
<svg version="1.1" id="Ebene_1" xmlns="http://www.w3.org/2000/svg" xmlns:xlink="http://www.w3.org/1999/xlink" x="0px" y="0px"
	 width="24px" height="24px" viewBox="0 0 24 24" enable-background="new 0 0 24 24" xml:space="preserve">
<path fill="#FFFFFF" d="M5,15H3v4c0,1.1,0.9,2,2,2h4v-2H5V15z M5,5h4V3H5C3.9,3,3,3.9,3,5v4h2V5z M19,3h-4v2h4v4h2V5
	C21,3.9,20.1,3,19,3z M19,19h-4v2h4c1.1,0,2-0.9,2-2v-4h-2V19z"/>
<g>
	<path fill="#FFFFFF" d="M12,10c1.1,0,2,0.9,2,2s-0.9,2-2,2s-2-0.9-2-2S10.9,10,12,10 M12,8c-2.2,0-4,1.8-4,4s1.8,4,4,4s4-1.8,4-4
		S14.2,8,12,8L12,8z"/>
</g>
</svg>
