<?xml version="1.0" encoding="utf-8"?>
<!-- Generator: Adobe Illustrator 22.1.0, SVG Export Plug-In . SVG Version: 6.00 Build 0)  -->
<svg version="1.1" id="Ebene_1" xmlns="http://www.w3.org/2000/svg" xmlns:xlink="http://www.w3.org/1999/xlink" x="0px" y="0px"
	 width="24px" height="24px" viewBox="0 0 24 24" enable-background="new 0 0 24 24" xml:space="preserve">
<g>
	<path fill="#FFFFFF" d="M9,15v4H5v-4H9 M10,13H4c-0.6,0-1,0.4-1,1v6c0,0.6,0.4,1,1,1h6c0.6,0,1-0.4,1-1v-6C11,13.4,10.6,13,10,13
		L10,13z"/>
</g>
<g>
	<path fill="#FFFFFF" d="M19,5v4h-4V5H19 M20,3h-6c-0.6,0-1,0.4-1,1v6c0,0.6,0.4,1,1,1h6c0.6,0,1-0.4,1-1V4C21,3.4,20.6,3,20,3L20,3
		z"/>
</g>
<g>
	<path fill="#FFFFFF" d="M9,5v4H5V5H9 M10,3H4C3.4,3,3,3.4,3,4v6c0,0.6,0.4,1,1,1h6c0.6,0,1-0.4,1-1V4C11,3.4,10.6,3,10,3L10,3z"/>
</g>
<g>
	<path fill="#FFFFFF" d="M19,15v4h-4v-4H19 M20,13h-6c-0.6,0-1,0.4-1,1v6c0,0.6,0.4,1,1,1h6c0.6,0,1-0.4,1-1v-6
		C21,13.4,20.6,13,20,13L20,13z"/>
</g>
</svg>
