<?xml version="1.0" encoding="utf-8"?>
<!-- Generator: Adobe Illustrator 22.1.0, SVG Export Plug-In . SVG Version: 6.00 Build 0)  -->
<svg version="1.1" id="Ebene_1" xmlns="http://www.w3.org/2000/svg" xmlns:xlink="http://www.w3.org/1999/xlink" x="0px" y="0px"
	 width="24px" height="24px" viewBox="0 0 24 24" enable-background="new 0 0 24 24" xml:space="preserve">
<path fill="#FFFFFF" d="M20.4,5.6C20,5.2,19.5,5,19,5h-3l-4-4L8,5H5C4.5,5,4,5.2,3.6,5.6C3.2,6,3,6.5,3,7v11c0,0.5,0.2,1,0.6,1.4
	C4,19.8,4.5,20,5,20h14c0.5,0,1-0.2,1.4-0.6C20.8,19,21,18.5,21,18V7C21,6.5,20.8,6,20.4,5.6z M12,2.4L14.6,5H9.4L12,2.4z M19,18H5
	V7h14V18z"/>
<polyline fill="#FFFFFF" points="10,11.3 6.5,16 17.5,16 14.8,12.5 12.8,14.8 10,11.3 "/>
</svg>
