<?xml version="1.0" encoding="utf-8"?>
<!-- Generator: Adobe Illustrator 22.1.0, SVG Export Plug-In . SVG Version: 6.00 Build 0)  -->
<svg version="1.1" id="Ebene_2_1_" xmlns="http://www.w3.org/2000/svg" xmlns:xlink="http://www.w3.org/1999/xlink" x="0px" y="0px"
	 width="24px" height="24px" viewBox="0 0 24 24" enable-background="new 0 0 24 24" xml:space="preserve">
<path fill="#FFFFFF" d="M20.8,7.1c-0.1-0.2-0.3-0.4-0.5-0.5l-2.5-1.4l0,0l-1-0.5l-4.1-2.3c-0.2-0.1-0.4-0.2-0.7-0.2
	c-0.2,0-0.5,0-0.7,0.2L7.5,4.5L6.1,5.2l0.1,0L3.7,6.6C3.5,6.7,3.3,6.9,3.2,7.1C3.1,7.3,3,7.6,3,7.8v8.4c0,0.5,0.3,1,0.7,1.2l7.6,4.2
	c0.2,0.1,0.4,0.2,0.7,0.2s0.5-0.1,0.7-0.2l7.6-4.2c0.4-0.2,0.7-0.7,0.7-1.2V7.8C21,7.6,20.9,7.3,20.8,7.1z M12,4.3l2.3,1.3L12,6.8
	L9.7,5.6L12,4.3z M5,15.8V8.2l3.2-1.8l2.3,1.3l-3,1.7v7.8L5,15.8z M12,19.7L9,18v-7.7l3-1.7l3,1.7V18L12,19.7z M19,15.8l-2.5,1.4
	V9.4l-3-1.7l2.3-1.3L19,8.2V15.8z"/>
</svg>
