<?xml version="1.0" encoding="utf-8"?>
<!-- Generator: Adobe Illustrator 22.1.0, SVG Export Plug-In . SVG Version: 6.00 Build 0)  -->
<svg version="1.1" id="Ebene_1" xmlns="http://www.w3.org/2000/svg" xmlns:xlink="http://www.w3.org/1999/xlink" x="0px" y="0px"
	 width="24px" height="24px" viewBox="0 0 24 24" enable-background="new 0 0 24 24" xml:space="preserve">
<g>
	<path fill="#FFFFFF" d="M9,21c0,0.5,0.4,1,1,1h4c0.6,0,1-0.5,1-1v-1H9V21z"/>
	<path fill="#FFFFFF" d="M12,2C8.1,2,5,5.1,5,9c0,2.4,1.2,4.5,3,5.7V17c0,0.5,0.4,1,1,1h6c0.6,0,1-0.5,1-1v-2.3c1.8-1.3,3-3.4,3-5.7
		C19,5.1,15.9,2,12,2z M12,14c-2.8,0-5-2.2-5-5s2.2-5,5-5s5,2.2,5,5S14.8,14,12,14z"/>
</g>
<polygon fill="#FFFFFF" points="16,8 13,8 13,5 11,5 11,8 8,8 8,10 11,10 11,13 13,13 13,10 16,10 "/>
</svg>
