<?xml version="1.0" encoding="utf-8"?>
<!-- Generator: Adobe Illustrator 22.1.0, SVG Export Plug-In . SVG Version: 6.00 Build 0)  -->
<svg version="1.1" id="Ebene_1" xmlns="http://www.w3.org/2000/svg" xmlns:xlink="http://www.w3.org/1999/xlink" x="0px" y="0px"
	 width="24px" height="24px" viewBox="0 0 24 24" enable-background="new 0 0 24 24" xml:space="preserve">
<path fill="#FFFFFF" d="M3.2,19c0,1.6,1.3,2.9,2.9,2.9S9,20.6,9,19c0-0.2,0-0.4-0.1-0.6l7.1-4.2c0.5,0.5,1.2,0.8,2,0.8
	c1.7,0,3-1.3,3-3s-1.3-3-3-3c-0.8,0-1.5,0.3-2,0.8L8.9,5.7C9,5.5,9,5.2,9,5c0-1.7-1.3-3-3-3S3,3.3,3,5s1.3,3,3,3
	c0.8,0,1.5-0.3,2-0.8l7.1,4.1C15,11.5,15,11.8,15,12s0,0.5,0.1,0.7L8,16.9c-0.6-0.5-1.2-0.8-2-0.8C4.4,16.1,3.2,17.4,3.2,19z M7,5
	c0,0.6-0.5,1-1,1S5,5.6,5,5s0.5-1,1-1S7,4.4,7,5z M17,12c0-0.6,0.4-1,1-1s1,0.4,1,1s-0.4,1-1,1S17,12.6,17,12z M5,19
	c0-0.5,0.5-1,1-1s1,0.5,1,1s-0.5,1-1,1S5,19.5,5,19z"/>
<circle fill="#FFFFFF" cx="18" cy="12" r="4"/>
</svg>
