<?xml version="1.0" encoding="utf-8"?>
<!-- Generator: Adobe Illustrator 22.1.0, SVG Export Plug-In . SVG Version: 6.00 Build 0)  -->
<svg version="1.1" id="Ebene_1" xmlns="http://www.w3.org/2000/svg" xmlns:xlink="http://www.w3.org/1999/xlink" x="0px" y="0px"
	 width="24px" height="24px" viewBox="0 0 24 24" enable-background="new 0 0 24 24" xml:space="preserve">
<path fill="#FFFFFF" d="M21.4,10.6l-8-8C13,2.2,12.5,2,12,2s-1,0.2-1.4,0.6l-8,8c-0.8,0.8-0.8,2,0,2.8l8,8C11,21.8,11.5,22,12,22
	s1-0.2,1.4-0.6l8-8C22.2,12.6,22.2,11.4,21.4,10.6z M19.6,12.4l-7.3,7.3c-0.2,0.2-0.5,0.2-0.7,0l-7.3-7.3c-0.2-0.2-0.2-0.5,0-0.7
	l7.3-7.3c0.2-0.2,0.5-0.2,0.7,0l7.3,7.3C19.8,11.8,19.8,12.2,19.6,12.4z M11,15h2v2h-2V15z M11,7h2v6h-2V7z"/>
</svg>
