<?xml version="1.0" encoding="utf-8"?>
<!-- Generator: Adobe Illustrator 22.1.0, SVG Export Plug-In . SVG Version: 6.00 Build 0)  -->
<svg version="1.1" id="Ebene_1" xmlns="http://www.w3.org/2000/svg" xmlns:xlink="http://www.w3.org/1999/xlink" x="0px" y="0px"
	 width="24px" height="24px" viewBox="0 0 24 24" enable-background="new 0 0 24 24" xml:space="preserve">
<path fill="none" d="M0,0h24v24H0V0z"/>
<g>
	<path fill="#FFFFFF" d="M12.9,3v1v1h1h1.6c0.3,0,0.5,0.3,0.6,0.5v15.1c0,0.2-0.1,0.4-0.4,0.4H8.4C8.1,21,8,20.9,8,20.6V5.4
		C8,5.1,8.1,5,8.4,5h1.6h1V4V3H12.9 M13.9,2H9.9v2H8.4C7.6,4,7,4.6,7,5.4v15.2C7,21.4,7.6,22,8.4,22h7.3c0.8,0,1.4-0.6,1.4-1.4V5.4
		C16.8,4.6,16.2,4,15.4,4h-1.6V2L13.9,2z"/>
</g>
<path fill="#FFFFFF" d="M7,8v12.7C7,21.5,7.6,22,8.3,22h7.4c0.8,0,1.3-0.6,1.3-1.3V8H7z"/>
</svg>
