<?xml version="1.0" encoding="utf-8"?>
<!-- Generator: Adobe Illustrator 22.1.0, SVG Export Plug-In . SVG Version: 6.00 Build 0)  -->
<svg version="1.1" id="Ebene_1" xmlns="http://www.w3.org/2000/svg" xmlns:xlink="http://www.w3.org/1999/xlink" x="0px" y="0px"
	 width="24px" height="24px" viewBox="0 0 24 24" enable-background="new 0 0 24 24" xml:space="preserve">
<g>
	<path fill="#FFFFFF" d="M21,8h-3V4H6C4.9,4,4,4.9,4,6H0.3l0.8,1.5h7.3L9.1,9H1.3L2,10.5h5L7.6,12H2.3L3,13.5h1V17h2
		c0,1.7,1.3,3,3,3s3-1.3,3-3h4c0,1.7,1.3,3,3,3s3-1.3,3-3h2v-5L21,8z M9,18.5c-0.8,0-1.5-0.7-1.5-1.5s0.7-1.5,1.5-1.5
		s1.5,0.7,1.5,1.5S9.8,18.5,9,18.5z M19,18.5c-0.8,0-1.5-0.7-1.5-1.5s0.7-1.5,1.5-1.5s1.5,0.7,1.5,1.5S19.8,18.5,19,18.5z M18,12
		V9.5h2.5l2,2.5H18z"/>
</g>
</svg>
