<?xml version="1.0" encoding="utf-8"?>
<!-- Generator: Adobe Illustrator 22.1.0, SVG Export Plug-In . SVG Version: 6.00 Build 0)  -->
<svg version="1.1" id="Ebene_1" xmlns="http://www.w3.org/2000/svg" xmlns:xlink="http://www.w3.org/1999/xlink" x="0px" y="0px"
	 width="24px" height="24px" viewBox="0 0 24 24" enable-background="new 0 0 24 24" xml:space="preserve">
<path fill="#FFFFFF" d="M18,21H6c-1.7,0-3-1.3-3-3V6c0-1.7,1.3-3,3-3h12c1.7,0,3,1.3,3,3v12C21,19.7,19.7,21,18,21z M6,5
	C5.4,5,5,5.4,5,6v12c0,0.6,0.4,1,1,1h12c0.6,0,1-0.4,1-1V6c0-0.6-0.4-1-1-1H6z"/>
<path fill="#FFFFFF" d="M12,7c-2.8,0-5,2.2-5,5s2.2,5,5,5s5-2.2,5-5S14.8,7,12,7z M12,15c-1.7,0-3-1.3-3-3s1.3-3,3-3s3,1.3,3,3
	S13.7,15,12,15z"/>
<circle fill="#FFFFFF" cx="7" cy="7" r="1"/>
</svg>
