<?xml version="1.0" encoding="utf-8"?>
<!-- Generator: Adobe Illustrator 22.1.0, SVG Export Plug-In . SVG Version: 6.00 Build 0)  -->
<svg version="1.1" id="Ebene_1" xmlns="http://www.w3.org/2000/svg" xmlns:xlink="http://www.w3.org/1999/xlink" x="0px" y="0px"
	 width="24px" height="24px" viewBox="0 0 24 24" enable-background="new 0 0 24 24" xml:space="preserve">
<path fill="#FFFFFF" d="M21,8.3l-9-5.7L3,8.3c-0.6,0.3-1,1-1,1.7v10c0,1.1,0.9,2,2,2h16c1.1,0,2-0.9,2-2V10C22,9.3,21.6,8.6,21,8.3z
	 M10.2,7.3c0.7,0,1.4,0.3,1.8,0.8c0.4-0.5,1.1-0.8,1.8-0.8c1.2,0,2.2,1,2.2,2.2c0,1.5-1.4,2.8-3.4,4.6L12,14.7l-0.6-0.6
	C9.4,12.3,8,11,8,9.5C8,8.3,9,7.3,10.2,7.3z M20,20H4v-7.6l8,5l8-5V20z"/>
</svg>
