<?xml version="1.0" encoding="utf-8"?>
<!-- Generator: Adobe Illustrator 22.1.0, SVG Export Plug-In . SVG Version: 6.00 Build 0)  -->
<svg version="1.1" id="Ebene_1" xmlns="http://www.w3.org/2000/svg" xmlns:xlink="http://www.w3.org/1999/xlink" x="0px" y="0px"
	 width="24px" height="24px" viewBox="0 0 24 24" enable-background="new 0 0 24 24" xml:space="preserve">
<path fill="#FFFFFF" d="M18,1H6C4.9,1,4,1.9,4,3v18c0,1.1,0.9,2,2,2h12c1.1,0,2-0.9,2-2V3C20,1.9,19.1,1,18,1z M12,22
	c-0.6,0-1-0.4-1-1s0.4-1,1-1s1,0.4,1,1S12.6,22,12,22z M18,19H6V3h12V19z"/>
</svg>
