<?xml version="1.0" encoding="utf-8"?>
<!-- Generator: Adobe Illustrator 22.1.0, SVG Export Plug-In . SVG Version: 6.00 Build 0)  -->
<svg version="1.1" id="Ebene_1" xmlns="http://www.w3.org/2000/svg" xmlns:xlink="http://www.w3.org/1999/xlink" x="0px" y="0px"
	 width="24px" height="24px" viewBox="0 0 24 24" enable-background="new 0 0 24 24" xml:space="preserve">
<path fill="#FFFFFF" d="M15,1H8C6.6,1,5.5,2.1,5.5,3.5v17C5.5,21.9,6.6,23,8,23h7c1.4,0,2.5-1.1,2.5-2.5v-17C17.5,2.1,16.4,1,15,1z
	 M11.5,22c-0.8,0-1.5-0.7-1.5-1.5s0.7-1.5,1.5-1.5s1.5,0.7,1.5,1.5S12.3,22,11.5,22z M15.5,18h-8V4h8V18z"/>
</svg>
