<?xml version="1.0" encoding="utf-8"?>
<!-- Generator: Adobe Illustrator 22.1.0, SVG Export Plug-In . SVG Version: 6.00 Build 0)  -->
<svg version="1.1" id="Ebene_1" xmlns="http://www.w3.org/2000/svg" xmlns:xlink="http://www.w3.org/1999/xlink" x="0px" y="0px"
	 width="24px" height="24px" viewBox="0 0 24 24" enable-background="new 0 0 24 24" xml:space="preserve">
<g>
	<path fill="#FFFFFF" d="M10,16h4c0.5,0,1-0.5,1-1v-3c0-0.5-0.5-1-1-1v-1c0-1.1-0.9-2-2-2s-2,0.9-2,2v1c-0.5,0-1,0.5-1,1v3
		C9,15.5,9.5,16,10,16z M10.8,10c0-0.7,0.5-1.2,1.2-1.2s1.2,0.5,1.2,1.2v1h-2.4V10z"/>
	<path fill="#FFFFFF" d="M18,1H6C4.9,1,4,1.9,4,3v18c0,1.1,0.9,2,2,2h12c1.1,0,2-0.9,2-2V3C20,1.9,19.1,1,18,1z M18,20H6V4h12V20z"
		/>
</g>
</svg>
