<?xml version="1.0" encoding="utf-8"?>
<!-- Generator: Adobe Illustrator 22.1.0, SVG Export Plug-In . SVG Version: 6.00 Build 0)  -->
<svg version="1.1" id="Ebene_1" xmlns="http://www.w3.org/2000/svg" xmlns:xlink="http://www.w3.org/1999/xlink" x="0px" y="0px"
	 width="24px" height="24px" viewBox="0 0 24 24" enable-background="new 0 0 24 24" xml:space="preserve">
<path fill="#FFFFFF" d="M15.4,4h-1.6V2H9.9v2H8.4C7.6,4,7,4.6,7,5.4V17v3.6v0.1C7,21.5,7.6,22,8.3,22h0.1h7.3h0.1
	c0.8,0,1.3-0.6,1.3-1.3v-0.1V17V5.4C16.8,4.6,16.2,4,15.4,4z M8,17V5.4C8,5.1,8.1,5,8.4,5h1.6h1V4V3h1.9v1v1h1h1.6
	c0.3,0,0.5,0.3,0.6,0.5V17H8z"/>
</svg>
