<?xml version="1.0" encoding="utf-8"?>
<!-- Generator: Adobe Illustrator 22.1.0, SVG Export Plug-In . SVG Version: 6.00 Build 0)  -->
<svg version="1.1" id="Ebene_1" xmlns="http://www.w3.org/2000/svg" xmlns:xlink="http://www.w3.org/1999/xlink" x="0px" y="0px"
	 width="24px" height="24px" viewBox="0 0 24 24" enable-background="new 0 0 24 24" xml:space="preserve">
<path fill="#FFFFFF" d="M12,4c2.8,0,5,2.2,5,5c0,2.6-2.7,6.9-5,9.9c-2.1-2.7-5-7-5-9.9C7,6.2,9.2,4,12,4 M12,12c1.7,0,3-1.3,3-3
	s-1.3-3-3-3S9,7.3,9,9S10.3,12,12,12 M12,2C8.1,2,5,5.1,5,9c0,5.3,7,13,7,13s7-7.8,7-13C19,5.1,15.9,2,12,2L12,2z M12,10
	c-0.6,0-1-0.4-1-1s0.4-1,1-1s1,0.4,1,1S12.6,10,12,10L12,10z"/>
</svg>
