<?xml version="1.0" encoding="utf-8"?>
<!-- Generator: Adobe Illustrator 22.1.0, SVG Export Plug-In . SVG Version: 6.00 Build 0)  -->
<svg version="1.1" id="Ebene_1" xmlns="http://www.w3.org/2000/svg" xmlns:xlink="http://www.w3.org/1999/xlink" x="0px" y="0px"
	 width="24px" height="24px" viewBox="0 0 24 24" enable-background="new 0 0 24 24" xml:space="preserve">
<path fill="#FFFFFF" d="M21,8.3l-9-5.7L3,8.3c-0.6,0.3-1,1-1,1.7v10c0,1.1,0.9,2,2,2h16c1.1,0,2-0.9,2-2V10C22,9.3,21.6,8.6,21,8.3z
	 M12.8,11.1c-0.1-0.2-0.4-0.3-0.8-0.4s-0.7-0.3-0.9-0.4s-0.5-0.3-0.7-0.5S10.1,9.4,10,9.2S9.9,8.7,9.9,8.4c0-0.6,0.2-1,0.5-1.4
	s0.8-0.6,1.4-0.6v-1h0.8v1.1c0.6,0.1,1,0.3,1.4,0.7c0.3,0.4,0.5,0.9,0.5,1.6H13c0-0.4-0.1-0.7-0.2-0.9s-0.4-0.3-0.6-0.3
	c-0.3,0-0.5,0.1-0.6,0.2s-0.2,0.4-0.2,0.6c0,0.2,0.1,0.4,0.2,0.6s0.4,0.3,0.8,0.5s0.7,0.3,1,0.4s0.5,0.3,0.6,0.5s0.3,0.4,0.4,0.6
	c0.1,0.2,0.1,0.5,0.1,0.8c0,0.6-0.2,1-0.5,1.3c-0.3,0.3-0.8,0.5-1.4,0.6v1h-0.8v-1c-0.7-0.1-1.2-0.3-1.6-0.7
	c-0.4-0.4-0.5-0.9-0.5-1.6H11c0,0.4,0.1,0.7,0.3,0.9c0.2,0.2,0.4,0.3,0.8,0.3c0.3,0,0.5-0.1,0.7-0.2S13,12,13,11.7
	C13,11.5,12.9,11.2,12.8,11.1z M20,20H4v-7.6l8,5l8-5V20z"/>
</svg>
