<?xml version="1.0" encoding="utf-8"?>
<!-- Generator: Adobe Illustrator 22.1.0, SVG Export Plug-In . SVG Version: 6.00 Build 0)  -->
<svg version="1.1" id="Ebene_1" xmlns="http://www.w3.org/2000/svg" xmlns:xlink="http://www.w3.org/1999/xlink" x="0px" y="0px"
	 width="24px" height="24px" viewBox="0 0 24 24" enable-background="new 0 0 24 24" xml:space="preserve">
<path fill="#FFFFFF" d="M18,16c-0.8,0-1.6,0.3-2.1,0.9l-5.2-3.1c0.2-0.6,0.3-1.2,0.3-1.8c0-0.6-0.1-1.2-0.3-1.7L16,7.2
	C16.5,7.7,17.2,8,18,8c1.7,0,3-1.3,3-3s-1.3-3-3-3s-3,1.3-3,3c0,0.2,0,0.5,0.1,0.7L9.8,8.7C8.8,7.7,7.5,7,6,7c-2.8,0-5,2.2-5,5
	s2.2,5,5,5c1.5,0,2.8-0.7,3.7-1.7l5.3,3.2c0,0.2-0.1,0.3-0.1,0.5c0,1.7,1.3,3,3,3s3-1.3,3-3S19.7,16,18,16z M8,14.8l-2-1.2l-2,1.2
	l0.5-2.2l-1.7-1.5l2.3-0.3L6,8.8l0.9,2.1L9.1,11l-1.7,1.5L8,14.8z"/>
</svg>
