<?xml version="1.0" encoding="utf-8"?>
<!-- Generator: Adobe Illustrator 22.1.0, SVG Export Plug-In . SVG Version: 6.00 Build 0)  -->
<svg version="1.1" id="Ebene_1" xmlns="http://www.w3.org/2000/svg" xmlns:xlink="http://www.w3.org/1999/xlink" x="0px" y="0px"
	 width="24px" height="24px" viewBox="0 0 24 24" enable-background="new 0 0 24 24" xml:space="preserve">
<path fill="#FFFFFF" d="M17,18H3c-1.7,0-3-1.3-3-3V5c0-1.7,1.3-3,3-3h14c1.7,0,3,1.3,3,3v10C20,16.7,18.7,18,17,18z M3,4
	C2.4,4,2,4.4,2,5v10c0,0.6,0.4,1,1,1h14c0.6,0,1-0.4,1-1V5c0-0.6-0.4-1-1-1H3z M11,5c-2.8,0-5,2.2-5,5s2.2,5,5,5s5-2.2,5-5
	S13.8,5,11,5z M11,13c-1.7,0-3-1.3-3-3s1.3-3,3-3s3,1.3,3,3S12.7,13,11,13z M4,7L4,7C3.4,7,3,6.6,3,6l0,0c0-0.6,0.4-1,1-1h0
	c0.6,0,1,0.4,1,1l0,0C5,6.6,4.6,7,4,7z"/>
<g>
	<path fill="#FFFFFF" d="M22,6.2V19c0,0.6-0.4,1-1,1H4.2c0.4,1.2,1.5,2,2.8,2h14c1.7,0,3-1.3,3-3V9C24,7.7,23.2,6.6,22,6.2z"/>
</g>
</svg>
