<?xml version="1.0" encoding="utf-8"?>
<!-- Generator: Adobe Illustrator 22.1.0, SVG Export Plug-In . SVG Version: 6.00 Build 0)  -->
<svg version="1.1" id="Ebene_1" xmlns="http://www.w3.org/2000/svg" xmlns:xlink="http://www.w3.org/1999/xlink" x="0px" y="0px"
	 width="24px" height="24px" viewBox="0 0 24 24" enable-background="new 0 0 24 24" xml:space="preserve">
<g>
	<path fill="#FFFFFF" d="M14,16H4V5h16v2h2V5c0-1.1-0.9-2-2-2H4C2.9,3,2,3.9,2,5v11H0v1c0,1.1,0.9,2,2,2h12V16z"/>
	<path fill="#FFFFFF" d="M23,9h-0.5H22h-2h-3c-0.5,0-1,0.4-1,1v3.2V16v3v1c0,0.5,0.5,1,1,1h6c0.5,0,1-0.5,1-1V10C24,9.5,23.5,9,23,9
		z M22,18h-4v-7h4V18z"/>
</g>
</svg>
