<?xml version="1.0" encoding="utf-8"?>
<!-- Generator: Adobe Illustrator 22.1.0, SVG Export Plug-In . SVG Version: 6.00 Build 0)  -->
<svg version="1.1" id="Ebene_1" xmlns="http://www.w3.org/2000/svg" xmlns:xlink="http://www.w3.org/1999/xlink" x="0px" y="0px"
	 width="24px" height="24px" viewBox="0 0 24 24" enable-background="new 0 0 24 24" xml:space="preserve">
<g>
	<path fill="#FFFFFF" d="M23.2,21.8c-3.2-2-3.9-3-4-3.3c0.2-0.1,0.6-0.2,1.2-0.3c0.4,0,0.9-0.3,0.9-0.9c0-0.3-0.3-0.8-0.5-1
		c-0.6-0.4-1.5-0.8-2.1-1c-0.3-0.1-0.5-0.2-0.8-0.3c-0.6-0.2-1.1-0.4-1.4-0.8c-0.6-0.8-1.2-2-1.6-3.2c-0.2-1.1-0.7-2.2-1.3-3
		c-2.4-3.6-5.9-5.2-9.2-6.3C2.5,0.9,1.5,0.6,1,1.4C0.6,2.1,1,3,1.8,4.4L2,4.9c0.2,0.6,0.6,1.5,1,2.1c0.8,1.8,0.8,2.2,0.6,3.3
		c-0.2,0.5-0.2,0.9-0.2,1.7c0,0.1,0,2.6,0.9,3.8c0.3,0.6,0.8,0.6,1.3,0.6c0.5,0,1-0.5,1.1-1c0.1-0.2,0.1-0.4,0.2-0.6
		C6.8,14.5,6.9,14.3,7,14c0.3,0.6,0.7,1.2,1,1.9c0.7,1.4,1.3,2.4,2.1,3.4c0.3,0.3,0.9,0.3,1.2,0c0.1-0.1,0.2-0.4,0.2-0.6
		c0-0.2-0.1-0.4-0.2-0.6c-0.5-0.5-0.9-1.2-1.2-2c-0.2-0.4-0.4-0.7-0.6-1.1C9,13.7,8.3,12.7,7.7,12c-0.1-0.3-0.5-0.3-0.7-0.3
		c-0.2,0-0.6,0-0.7,0.4c-0.4,0.8-0.6,1.4-0.8,2c-0.1-0.7-0.1-1.5-0.1-1.9c0-0.3,0.1-0.7,0.1-0.9c0-0.3,0.1-0.5,0.1-0.7
		C5.8,9,5.8,8.3,4.7,6.2c-0.2-0.3-0.4-0.7-0.6-1c-0.2-0.4-0.4-0.7-0.6-1C3.4,3.8,3.2,3.5,3,3.3C2.9,3,2.7,2.7,2.6,2.4
		c0.2,0,0.6,0.1,1.2,0.4c4,1.3,6.4,2.6,8.3,5.7c0.4,0.8,0.8,1.6,1.2,2.7c0.4,1.1,1,2.7,1.9,3.8c0.8,0.8,1.7,1.3,2.8,1.7
		c0,0,0.1,0,0.1,0c0.2,0,0.3,0,0.4,0.1c-0.5,0.2-0.9,0.5-1.1,1.2c-0.2,1.3,1.1,2.8,4.9,5.2c0,0,0.1,0,0.1,0c0.1,0,0.1,0,0.2-0.1
		l0.4-0.4c0,0,0-0.1,0.1-0.1l0.2-0.6C23.4,22,23.3,21.8,23.2,21.8z"/>
	<path fill="#FFFFFF" d="M4.7,4.1l0.7,1.6C5.8,5.5,6,5,5.8,4.5C5.7,4.1,5.2,3.9,4.7,4.1z"/>
</g>
</svg>
