<?xml version="1.0" encoding="utf-8"?>
<!-- Generator: Adobe Illustrator 22.1.0, SVG Export Plug-In . SVG Version: 6.00 Build 0)  -->
<svg version="1.1" id="Ebene_1" xmlns="http://www.w3.org/2000/svg" xmlns:xlink="http://www.w3.org/1999/xlink" x="0px" y="0px"
	 width="24px" height="24px" viewBox="0 0 24 24" enable-background="new 0 0 24 24" xml:space="preserve">
<g>
	<path fill="#FFFFFF" d="M20,4H4C2.9,4,2,4.9,2,6v12c0,1.1,0.9,2,2,2h16c1.1,0,2-0.9,2-2V6C22,4.9,21.1,4,20,4z M20,18H4V6h16V18z"
		/>
	<path fill="#FFFFFF" d="M10,12c1.4,0,2.5-1.1,2.5-2.5S11.4,7,10,7C8.6,7,7.5,8.1,7.5,9.5S8.6,12,10,12z M10,8.5c0.5,0,1,0.5,1,1
		s-0.5,1-1,1s-1-0.5-1-1S9.5,8.5,10,8.5z"/>
	<path fill="#FFFFFF" d="M15,16c0-2.1-3.3-3-5-3c-1.7,0-5,0.9-5,3v1h10V16z M6.8,15.5c0.6-0.5,2-1,3.2-1c1.2,0,2.6,0.5,3.2,1H6.8z"
		/>
	<path fill="#FFFFFF" d="M18.4,10.4c0.8-0.8,0.8-2.1,0-2.9c-0.2-0.2-0.5-0.4-0.7-0.5c0.3,0.7,0.1,1.6-0.5,2.2
		C16.6,9.8,15.7,10,15,9.7c0.1,0.3,0.3,0.5,0.5,0.7C16.3,11.2,17.6,11.2,18.4,10.4z"/>
</g>
</svg>
