<?xml version="1.0" encoding="utf-8"?>
<!-- Generator: Adobe Illustrator 22.1.0, SVG Export Plug-In . SVG Version: 6.00 Build 0)  -->
<svg version="1.1" id="Ebene_1" xmlns="http://www.w3.org/2000/svg" xmlns:xlink="http://www.w3.org/1999/xlink" x="0px" y="0px"
	 width="24px" height="24px" viewBox="0 0 24 24" enable-background="new 0 0 24 24" xml:space="preserve">
<path fill="#FFFFFF" d="M18.4,7L17,5.6l2.1-2.1l1.4,1.4L18.4,7z M1,13h3v-2H1V13z M10.1,6.3L11.8,8c0.1,0,0.2,0,0.2,0
	c2.2,0,4,1.8,4,4c0,0.1,0,0.2,0,0.3l1.7,1.7c0.2-0.6,0.3-1.3,0.3-1.9c0-3.3-2.7-6-6-6C11.3,6,10.7,6.1,10.1,6.3z M13,1h-2v3h2V1z
	 M20,11v2h3v-2H20z M10,22c0,0.5,0.4,1,1,1h2c0.6,0,1-0.5,1-1v-1h-4V22z M19.7,21l-4.2-4.2c-0.2,0.1-0.4,0.3-0.6,0.4V19
	c0,0.5-0.4,1-1,1h-4c-0.6,0-1-0.5-1-1v-1.8c-1.8-1-3-3-3-5.2c0-1.3,0.4-2.6,1.2-3.6L3,4.3L4.3,3L21,19.7L19.7,21z M14.1,15.4
	L8.6,9.9C8.2,10.5,8,11.2,8,12c0,1.9,1.3,3.4,3,3.9V18h2v-2.1C13.4,15.8,13.8,15.6,14.1,15.4z"/>
</svg>
