<?xml version="1.0" encoding="utf-8"?>
<!-- Generator: Adobe Illustrator 22.1.0, SVG Export Plug-In . SVG Version: 6.00 Build 0)  -->
<svg version="1.1" id="Ebene_1" xmlns="http://www.w3.org/2000/svg" xmlns:xlink="http://www.w3.org/1999/xlink" x="0px" y="0px"
	 width="24px" height="24px" viewBox="0 0 24 24" enable-background="new 0 0 24 24" xml:space="preserve">
<path fill="#FFFFFF" d="M15.2,7.6C15.4,7.9,15.7,8,16,8h4c0.6,0,1-0.4,1-1V3c0-0.6-0.4-1-1-1h-4c-0.6,0-1,0.4-1,1v2.7L9.9,8.6
	C9.8,8.3,9.4,8,9,8H3C2.4,8,2,8.4,2,9v6c0,0.6,0.4,1,1,1h6c0.4,0,0.8-0.2,0.9-0.6l5.1,3V21c0,0.6,0.4,1,1,1h4c0.6,0,1-0.4,1-1v-4
	c0-0.6-0.4-1-1-1h-4c-0.4,0-0.6,0.2-0.8,0.5L10,13.4v-2.7L15.2,7.6z M17,4h2v2h-2V4z M7.4,12.5L8,14.8l-2-1.2l-2,1.2l0.5-2.2
	l-1.7-1.5l2.3-0.3L6,8.8l0.9,2.1L9.1,11L7.4,12.5z M17,18h2v2h-2V18z"/>
</svg>
