<?xml version="1.0" encoding="utf-8"?>
<!-- Generator: Adobe Illustrator 22.1.0, SVG Export Plug-In . SVG Version: 6.00 Build 0)  -->
<svg version="1.1" id="Ebene_1" xmlns="http://www.w3.org/2000/svg" xmlns:xlink="http://www.w3.org/1999/xlink" x="0px" y="0px"
	 width="24px" height="24px" viewBox="0 0 24 24" enable-background="new 0 0 24 24" xml:space="preserve">
<g>
	<path fill="#FFFFFF" d="M20,4h-3l-2-2H9L7,4H6V3H4v1C2.9,4,2,4.9,2,6v4h0l0,0v8c0,1.1,0.9,2,2,2h16c1.1,0,2-0.9,2-2v-8V9V6
		C22,4.9,21.1,4,20,4z M2.1,10L2.1,10L2.1,10L2.1,10z M20,9v1v8H4v-7v-1V6h3h0.8l0.6-0.6L9.8,4h4.3l1.4,1.4L16.2,6H17h3V9z"/>
	<path fill="#FFFFFF" d="M12,7c-2.8,0-5,2.2-5,5s2.2,5,5,5s5-2.2,5-5S14.8,7,12,7z M12,15c-1.7,0-3-1.3-3-3s1.3-3,3-3s3,1.3,3,3
		S13.7,15,12,15z"/>
	<circle fill="#FFFFFF" cx="18" cy="8" r="1"/>
</g>
</svg>
