<?xml version="1.0" encoding="utf-8"?>
<!-- Generator: Adobe Illustrator 22.1.0, SVG Export Plug-In . SVG Version: 6.00 Build 0)  -->
<svg version="1.1" id="Ebene_1" xmlns="http://www.w3.org/2000/svg" xmlns:xlink="http://www.w3.org/1999/xlink" x="0px" y="0px"
	 width="24px" height="24px" viewBox="0 0 24 24" enable-background="new 0 0 24 24" xml:space="preserve">
<path fill="#FFFFFF" d="M21,8c0.6,0,1-0.4,1-1V3c0-0.5-0.4-1-1-1h-4c-0.6,0-1,0.4-1,1v1H8V3c0-0.6-0.4-1-1-1H3C2.4,2,2,2.4,2,3v4
	c0,0.6,0.4,1,1,1h1v8H3c-0.6,0-1,0.4-1,1v4c0,0.6,0.4,1,1,1h4c0.6,0,1-0.4,1-1v-1h8v1c0,0.6,0.4,1,1,1h4c0.6,0,1-0.4,1-1v-4
	c0-0.6-0.4-1-1-1h-1V8H21z M4,4h2v2H4V4z M6,20H4v-2h2V20z M16,17v1H8v-1c0-0.6-0.4-1-1-1H6V8h1c0.6,0,1-0.4,1-1V6h8v1
	c0,0.6,0.4,1,1,1h1v8h-1C16.4,16,16,16.4,16,17z M20,20h-2v-2h2V20z M18,6V4h2v2H18z"/>
</svg>
