<?xml version="1.0" encoding="utf-8"?>
<!-- Generator: Adobe Illustrator 22.1.0, SVG Export Plug-In . SVG Version: 6.00 Build 0)  -->
<svg version="1.1" id="Ebene_1" xmlns="http://www.w3.org/2000/svg" xmlns:xlink="http://www.w3.org/1999/xlink" x="0px" y="0px"
	 width="12px" height="12px" viewBox="0 0 12 12" enable-background="new 0 0 12 12" xml:space="preserve">
<circle fill="#2878F0" cx="6" cy="6" r="6"/>
<path fill="#FFFFFF" d="M9,6c0-0.2,0-0.4-0.1-0.5l1-0.6L9,3.1L7.9,3.7C7.6,3.5,7.3,3.3,7,3.2V2H5v1.2C4.6,3.3,4.3,3.5,4,3.7L3,3.1
	L2,4.9l1,0.6C3,5.6,3,5.8,3,6s0,0.4,0.1,0.5L2,7.1l1,1.7l1-0.6c0.3,0.2,0.6,0.4,1,0.5V10h2V8.8c0.3-0.1,0.6-0.3,0.9-0.5L9,8.9l1-1.7
	l-1-0.6C9,6.4,9,6.2,9,6z M6,7C5.4,7,5,6.5,5,6s0.4-1,1-1c0.5,0,1,0.5,1,1S6.5,7,6,7z"/>
</svg>
