<?xml version="1.0" encoding="utf-8"?>
<!-- Generator: Adobe Illustrator 22.1.0, SVG Export Plug-In . SVG Version: 6.00 Build 0)  -->
<svg version="1.1" id="Ebene_1" xmlns="http://www.w3.org/2000/svg" xmlns:xlink="http://www.w3.org/1999/xlink" x="0px" y="0px"
	 width="24px" height="24px" viewBox="0 0 24 24" enable-background="new 0 0 24 24" xml:space="preserve">
<path fill="#FFFFFF" d="M12,4.8l0.6,0.6L14,6.8l1.4-1.4L16,4.8l0.6,0.6L18,6.8l0,0L18,20H6V6.8l0,0l1.4-1.4L8,4.8l0.6,0.6L10,6.8
	l1.4-1.4L12,4.8 M20,2l-2,2l-2-2l-2,2l-2-2l-2,2L8,2L6,4L4,2v18c0,1.1,0.9,2,2,2h12c1.1,0,2-0.9,2-2L20,2L20,2z"/>
<g>
	<path fill="#FFFFFF" d="M11,14.2c0-0.3-0.1-0.5-0.2-0.6s-0.4-0.3-0.7-0.4s-0.6-0.3-0.9-0.4c-0.2-0.1-0.5-0.3-0.6-0.4
		s-0.3-0.4-0.4-0.6c-0.1-0.2-0.1-0.5-0.1-0.8c0-0.5,0.2-1,0.5-1.3C8.8,9.3,9.2,9.1,9.8,9V8h0.8v1c0.6,0.1,1,0.3,1.3,0.7
		c0.3,0.4,0.5,0.9,0.5,1.5H11c0-0.4-0.1-0.7-0.2-0.8s-0.4-0.3-0.6-0.3c-0.3,0-0.5,0.1-0.6,0.2c-0.1,0.1-0.2,0.3-0.2,0.6
		c0,0.2,0.1,0.4,0.2,0.6c0.1,0.1,0.4,0.3,0.8,0.4c0.4,0.2,0.7,0.3,0.9,0.4c0.2,0.1,0.4,0.3,0.6,0.5c0.2,0.2,0.3,0.4,0.4,0.6
		c0.1,0.2,0.1,0.5,0.1,0.8c0,0.5-0.2,1-0.5,1.3c-0.3,0.3-0.8,0.5-1.4,0.6V17H9.7v-0.9c-0.6-0.1-1.1-0.3-1.5-0.7
		c-0.4-0.4-0.5-0.9-0.5-1.6H9c0,0.4,0.1,0.7,0.3,0.9c0.2,0.2,0.4,0.3,0.8,0.3c0.3,0,0.5-0.1,0.7-0.2C10.9,14.6,11,14.4,11,14.2z"/>
</g>
<circle fill="#28A050" cx="18" cy="18" r="6"/>
<polygon fill="#FFFFFF" points="20.6,14.7 16.3,19 14.9,17.6 13.5,19 16.3,21.8 22,16.1 "/>
</svg>
