<?xml version="1.0" encoding="utf-8"?>
<!-- Generator: Adobe Illustrator 22.1.0, SVG Export Plug-In . SVG Version: 6.00 Build 0)  -->
<svg version="1.1" id="Ebene_1" xmlns="http://www.w3.org/2000/svg" xmlns:xlink="http://www.w3.org/1999/xlink" x="0px" y="0px"
	 width="24px" height="24px" viewBox="0 0 24 24" enable-background="new 0 0 24 24" xml:space="preserve">
<path fill="#FFFFFF" d="M9,17H5V4h2v2h8V4h2v2h2V4c0-1.1-0.9-2-2-2h-3.2c-0.4-1.2-1.5-2-2.8-2S8.6,0.8,8.2,2H5C3.9,2,3,2.9,3,4v13
	c0,1.1,0.9,2,2,2h4V17z M11,2c0.6,0,1,0.4,1,1s-0.4,1-1,1c-0.6,0-1-0.4-1-1S10.4,2,11,2z"/>
<path fill="#FFFFFF" d="M17,7h-5.5C10.7,7,10,7.7,10,8.5v12c0,0.8,0.7,1.5,1.5,1.5h9c0.8,0,1.5-0.7,1.5-1.5V12L17,7z M12,20V9h4.2
	H17v3h3v8H12z"/>
</svg>
