<?xml version="1.0" encoding="utf-8"?>
<!-- Generator: Adobe Illustrator 22.1.0, SVG Export Plug-In . SVG Version: 6.00 Build 0)  -->
<svg version="1.1" id="Ebene_1" xmlns="http://www.w3.org/2000/svg" xmlns:xlink="http://www.w3.org/1999/xlink" x="0px" y="0px"
	 width="24px" height="24px" viewBox="0 0 24 24" enable-background="new 0 0 24 24" xml:space="preserve">
<path fill="#FFFFFF" d="M10.8,11.1c0,0-0.3,1.6-1.9,4.2c0,0-3.1,1.6-2.4,2.8c0.6,1,2,0,3.3-2.4c0,0,1.6-0.5,3.7-0.7
	c0,0,3.4,1.5,3.9-0.1c0.4-1.7-2.7-1.2-3.3-1.2c0,0-1.8-1.2-2.2-2.8c0,0,1-3.5-0.5-3.5C10,7.6,10.5,10.3,10.8,11.1 M11.5,12.1
	c0,0,0.4,1.1,1.7,2.2c0,0-2,0.4-3,0.8C10.1,15,11,13.5,11.5,12.1 M15,14.5c0.5-0.2,2,0.2,2,0.4C16.9,15.2,15,14.5,15,14.5 M8.7,16.1
	c-0.4,1.1-1.2,1.8-1.5,1.8S7.8,16.5,8.7,16.1 M11.5,10c0-0.1-0.4-1.9,0-1.9C12,8.1,11.5,9.9,11.5,10z M14,2H6C4.9,2,4,2.9,4,4v16
	c0,1.1,0.9,2,2,2h12c1.1,0,2-0.9,2-2V8L14,2z M6,20V4h7.2H14v4h4v12H6z"/>
</svg>
