<?xml version="1.0" encoding="utf-8"?>
<!-- Generator: Adobe Illustrator 22.1.0, SVG Export Plug-In . SVG Version: 6.00 Build 0)  -->
<svg version="1.1" id="Ebene_1" xmlns="http://www.w3.org/2000/svg" xmlns:xlink="http://www.w3.org/1999/xlink" x="0px" y="0px"
	 width="24px" height="24px" viewBox="0 0 24 24" enable-background="new 0 0 24 24" xml:space="preserve">
<g>
	<path fill="#FFFFFF" d="M6.6,10.7H5.5l-0.4,2.5h1c0.7-0.1,1.4-0.3,1.5-1.8C7.6,10.9,7.2,10.7,6.6,10.7z"/>
	<path fill="#FFFFFF" d="M18.6,10.7h-1.1l-0.4,2.5h1c0.7-0.1,1.4-0.3,1.5-1.8C19.6,10.9,19.2,10.7,18.6,10.7z"/>
	<path fill="#FFFFFF" d="M12,5C5.4,5,0,8.1,0,12s5.4,7,12,7s12-3.1,12-7S18.6,5,12,5z M6.3,14.4H4.8l-0.3,1.8H2.9l1.3-6.7h3
		c1.3,0.1,2,0.8,2.1,1.9C9.3,13.4,7.7,14.5,6.3,14.4z M12.9,14.5l0.6-3c0.1-0.4,0.1-0.7-0.5-0.7h-1.2L11,14.5H9.4l1.3-6.7h1.6
		L12,9.5h1.5c1.3,0.1,1.8,0.7,1.6,1.6l-0.6,3.4H12.9z M18.3,14.4h-1.5l-0.3,1.8h-1.6l1.3-6.7h3c1.3,0.1,2,0.8,2.1,1.9
		C21.3,13.4,19.7,14.5,18.3,14.4z"/>
</g>
</svg>
