<?xml version="1.0" encoding="utf-8"?>
<!-- Generator: Adobe Illustrator 22.1.0, SVG Export Plug-In . SVG Version: 6.00 Build 0)  -->
<svg version="1.1" id="Ebene_1" xmlns="http://www.w3.org/2000/svg" xmlns:xlink="http://www.w3.org/1999/xlink" x="0px" y="0px"
	 width="30px" height="30px" viewBox="0 0 30 30" enable-background="new 0 0 30 30" xml:space="preserve">
<path fill="#FFFFFF" d="M16.7,3L17,5.6l0.2,1.1l1.1,0.4c0.7,0.3,1.3,0.6,1.9,1.1L21.1,9l1.1-0.4l2.4-1l1.7,2.9l-2.1,1.6l-0.9,0.7
	l0.1,1.1c0.1,0.5,0.1,0.8,0.1,1.1s0,0.7-0.1,1.1l-0.1,1.1l0.9,0.7l2.1,1.6l-1.7,2.9l-2.4-1l-1-0.4l-0.9,0.7
	c-0.7,0.5-1.3,0.9-1.9,1.1l-1.1,0.4L17,24.4L16.7,27h-3.3L13,24.4l-0.2-1.1l-1.1-0.4c-0.7-0.3-1.3-0.6-1.9-1.1L8.9,21l-1.1,0.4
	l-2.4,1l-1.7-2.9l2.1-1.6l0.9-0.7l-0.1-1.1c-0.1-0.5-0.1-0.8-0.1-1.1s0-0.7,0.1-1.1l0.1-1.1l-0.9-0.7l-2.1-1.6l1.7-2.9l2.4,1l1,0.4
	l0.9-0.7c0.7-0.5,1.3-0.9,1.9-1.1l1.1-0.4L13,5.6L13.3,3H16.7 M17.8,1h-5.6c-0.3,0-0.6,0.3-0.7,0.6L11,5.3c-0.9,0.4-1.6,0.8-2.4,1.4
	L5.1,5.3c-0.1,0-0.2,0-0.3,0c-0.2,0-0.5,0.1-0.6,0.3l-2.8,4.8c-0.2,0.3-0.1,0.7,0.2,0.9l3,2.3c-0.1,0.4-0.1,0.9-0.1,1.4
	s0,0.9,0.1,1.4l-3,2.3c-0.3,0.2-0.3,0.6-0.2,0.9l2.8,4.8c0.1,0.2,0.4,0.4,0.6,0.4c0.1,0,0.2,0,0.2,0l3.5-1.4c0.7,0.6,1.5,1,2.4,1.4
	l0.5,3.7c0,0.3,0.3,0.6,0.7,0.6h5.6c0.4,0,0.6-0.3,0.7-0.6l0.5-3.7c0.9-0.4,1.6-0.8,2.4-1.4l3.5,1.4c0.1,0,0.2,0,0.3,0
	c0.2,0,0.5-0.1,0.6-0.4l2.8-4.8c0.2-0.3,0.1-0.7-0.2-0.9l-3-2.3c0.1-0.4,0.1-0.9,0.1-1.4s0-0.9-0.1-1.4l3-2.3
	c0.3-0.2,0.3-0.6,0.2-0.9l-2.8-4.8c-0.1-0.2-0.4-0.3-0.6-0.3c-0.1,0-0.2,0-0.2,0l-3.5,1.4c-0.7-0.6-1.5-1-2.4-1.4l-0.5-3.7
	C18.4,1.3,18.2,1,17.8,1L17.8,1z M15,12c1.7,0,3,1.3,3,3s-1.3,3-3,3s-3-1.3-3-3S13.3,12,15,12 M15,10c-2.8,0-5,2.2-5,5s2.2,5,5,5
	s5-2.2,5-5S17.8,10,15,10L15,10z"/>
</svg>
