<?xml version="1.0" encoding="utf-8"?>
<!-- Generator: Adobe Illustrator 22.1.0, SVG Export Plug-In . SVG Version: 6.00 Build 0)  -->
<svg version="1.1" id="Ebene_1" xmlns="http://www.w3.org/2000/svg" xmlns:xlink="http://www.w3.org/1999/xlink" x="0px" y="0px"
	 width="30px" height="30px" viewBox="0 0 30 30" enable-background="new 0 0 30 30" xml:space="preserve">
<path fill="#FFFFFF" d="M11,14H5c-1.7,0-3-1.3-3-3V5c0-1.7,1.3-3,3-3h6c1.7,0,3,1.3,3,3v6C14,12.7,12.7,14,11,14z M5,4
	C4.4,4,4,4.4,4,5v6c0,0.6,0.4,1,1,1h6c0.6,0,1-0.4,1-1V5c0-0.6-0.4-1-1-1H5z"/>
<path fill="#FFFFFF" d="M25,14h-6c-1.7,0-3-1.3-3-3V5c0-1.7,1.3-3,3-3h6c1.7,0,3,1.3,3,3v6C28,12.7,26.7,14,25,14z M19,4
	c-0.6,0-1,0.4-1,1v6c0,0.6,0.4,1,1,1h6c0.6,0,1-0.4,1-1V5c0-0.6-0.4-1-1-1H19z"/>
<path fill="#FFFFFF" d="M25,28h-6c-1.7,0-3-1.3-3-3v-6c0-1.7,1.3-3,3-3h6c1.7,0,3,1.3,3,3v6C28,26.7,26.7,28,25,28z M19,18
	c-0.6,0-1,0.4-1,1v6c0,0.6,0.4,1,1,1h6c0.6,0,1-0.4,1-1v-6c0-0.6-0.4-1-1-1H19z"/>
<path fill="#FFFFFF" d="M11,28H5c-1.7,0-3-1.3-3-3v-6c0-1.7,1.3-3,3-3h6c1.7,0,3,1.3,3,3v6C14,26.7,12.7,28,11,28z M5,18
	c-0.6,0-1,0.4-1,1v6c0,0.6,0.4,1,1,1h6c0.6,0,1-0.4,1-1v-6c0-0.6-0.4-1-1-1H5z"/>
</svg>
