<?xml version="1.0" encoding="utf-8"?>
<!-- Generator: Adobe Illustrator 22.1.0, SVG Export Plug-In . SVG Version: 6.00 Build 0)  -->
<svg version="1.1" id="Ebene_1" xmlns="http://www.w3.org/2000/svg" xmlns:xlink="http://www.w3.org/1999/xlink" x="0px" y="0px"
	 width="24px" height="24px" viewBox="0 0 24 24" enable-background="new 0 0 24 24" xml:space="preserve">
<path fill="#FFFFFF" d="M19,15c-1.1,0-2-0.5-2.5-1.3L15.4,12l1.1-1.7C17,9.5,18,9,19,9c1.7,0,3,1.3,3,3S20.7,15,19,15 M19,7
	c-1.7,0-3.3,0.9-4.2,2.3l-3.7,5.5C10.2,16.1,8.7,17,7,17c-2.8,0-5-2.3-5-5s2.3-5,5-5c1.7,0,3.2,0.9,4.1,2.2l0.7,1L13,8.3l-0.1-0.2
	C11.6,6.2,9.5,5,7,5c-3.9,0-7,3.1-7,7s3.1,7,7,7c2.5,0,4.6-1.3,5.9-3.1l1.3-2l0.6,0.9c0.9,1.3,2.5,2.3,4.2,2.3c2.8,0,5-2.3,5-5
	S21.7,7,19,7"/>
</svg>
