<?xml version="1.0" encoding="utf-8"?>
<!-- Generator: Adobe Illustrator 22.1.0, SVG Export Plug-In . SVG Version: 6.00 Build 0)  -->
<svg version="1.1" id="Ebene_1" xmlns="http://www.w3.org/2000/svg" xmlns:xlink="http://www.w3.org/1999/xlink" x="0px" y="0px"
	 width="30px" height="30px" viewBox="0 0 30 30" enable-background="new 0 0 30 30" xml:space="preserve">
<path fill="#FFFFFF" d="M26.7,8.3l-8-8C18.5,0.1,18.3,0,18,0H6C4.3,0,3,1.3,3,3v24c0,1.7,1.3,3,3,3h18c1.7,0,3-1.3,3-3V9
	C27,8.7,26.9,8.5,26.7,8.3z M23.6,8H19V3.4L23.6,8z M24,28H6c-0.6,0-1-0.4-1-1V3c0-0.6,0.4-1,1-1h11l0,0v7c0,0.6,0.4,1,1,1h7v17
	C25,27.6,24.6,28,24,28z M21,16H9c-0.6,0-1-0.4-1-1s0.4-1,1-1h12c0.6,0,1,0.4,1,1S21.6,16,21,16z M21,20H9c-0.6,0-1-0.4-1-1
	s0.4-1,1-1h12c0.6,0,1,0.4,1,1S21.6,20,21,20z M15,24H9c-0.6,0-1-0.4-1-1s0.4-1,1-1h6c0.6,0,1,0.4,1,1S15.6,24,15,24z"/>
</svg>
