<?xml version="1.0" encoding="utf-8"?>
<!-- Generator: Adobe Illustrator 22.1.0, SVG Export Plug-In . SVG Version: 6.00 Build 0)  -->
<svg version="1.1" id="Ebene_1" xmlns="http://www.w3.org/2000/svg" xmlns:xlink="http://www.w3.org/1999/xlink" x="0px" y="0px"
	 width="30px" height="30px" viewBox="0 0 30 30" enable-background="new 0 0 30 30" xml:space="preserve">
<path fill="#FFFFFF" d="M29.6,9.1l-3-3c0,0-0.1,0-0.1-0.1c-0.2-0.1-0.3-0.3-0.5-0.4L16,0.2C15.7,0.1,15.3,0,15,0s-0.7,0.1-1,0.2
	L4,5.7C3.8,5.8,3.6,5.9,3.4,6.1c0,0,0,0,0,0l0,0C3.3,6.2,3.2,6.3,3.2,6.3L0.4,9.1C0.2,9.3,0.1,9.7,0.1,10s0.2,0.6,0.5,0.7L3,12v10.6
	c0,0.7,0.4,1.4,1,1.8l10,5.4c0.3,0.2,0.6,0.2,1,0.2s0.7-0.1,1-0.2l10-5.4c0.6-0.3,1-1,1-1.8V12l2.4-1.3c0.3-0.2,0.5-0.4,0.5-0.7
	C29.9,9.7,29.8,9.3,29.6,9.1z M15,2l8.9,4.8L15,11.6L6.1,6.8L15,2z M4.3,8.1l9.1,4.9l-1.5,1.5L2.8,9.6L4.3,8.1z M5,13.1l6.5,3.5
	c0.1,0.1,0.3,0.1,0.5,0.1c0.3,0,0.5-0.1,0.7-0.3l1.3-1.3v12.3l-9-4.9V13.1z M25,22.6l-9,4.9V15.1l1.3,1.3c0.2,0.2,0.4,0.3,0.7,0.3
	c0.2,0,0.3,0,0.5-0.1l6.5-3.5V22.6z M18.2,14.5L16.7,13l9.1-4.9l1.5,1.5L18.2,14.5z"/>
</svg>
