<?xml version="1.0" encoding="utf-8"?>
<!-- Generator: Adobe Illustrator 22.1.0, SVG Export Plug-In . SVG Version: 6.00 Build 0)  -->
<svg version="1.1" id="Ebene_1" xmlns="http://www.w3.org/2000/svg" xmlns:xlink="http://www.w3.org/1999/xlink" x="0px" y="0px"
	 width="24px" height="24px" viewBox="0 0 24 24" enable-background="new 0 0 24 24" xml:space="preserve">
<g>
	<path fill="#FFFFFF" d="M21,6c0-1.1-0.9-2-2-2h-1V2h-2v2H8V2H6v2H5C3.9,4,3,4.9,3,6h0v0v2v12c0,1.1,0.9,2,2,2h14c1.1,0,2-0.9,2-2V8
		L21,6L21,6L21,6z M19,20H5V8h14V20z"/>
	<polygon fill="#FFFFFF" points="9.9,17.5 12,15.4 14.1,17.5 15.5,16.1 13.4,14 15.5,11.9 14.1,10.5 12,12.6 9.9,10.5 8.5,11.9 
		10.6,14 8.5,16.1 	"/>
</g>
</svg>
