<?xml version="1.0" encoding="utf-8"?>
<!-- Generator: Adobe Illustrator 22.1.0, SVG Export Plug-In . SVG Version: 6.00 Build 0)  -->
<svg version="1.1" id="Ebene_1" xmlns="http://www.w3.org/2000/svg" xmlns:xlink="http://www.w3.org/1999/xlink" x="0px" y="0px"
	 viewBox="0 0 24 24" enable-background="new 0 0 24 24" xml:space="preserve">
<path fill="#28A050" d="M2.6,11.4l8-8c0.8-0.8,2-0.8,2.8,0l8,8c0.4,0.4,0.6,0.9,0.6,1.4V20c0,1.1-0.9,2-2,2H4c-1.1,0-2-0.9-2-2v-7.2
	C2,12.3,2.2,11.8,2.6,11.4z"/>
<polygon fill="#FFFFFF" points="11,15 11,19 13,19 13,15 17,15 17,13 13,13 13,9 11,9 11,13 7,13 7,15 "/>
</svg>
