<?xml version="1.0" encoding="utf-8"?>
<!-- Generator: Adobe Illustrator 22.1.0, SVG Export Plug-In . SVG Version: 6.00 Build 0)  -->
<svg version="1.1" id="Ebene_1" xmlns="http://www.w3.org/2000/svg" xmlns:xlink="http://www.w3.org/1999/xlink" x="0px" y="0px"
	 width="24px" height="24px" viewBox="0 0 24 24" enable-background="new 0 0 24 24" xml:space="preserve">
<path fill="#FFFFFF" d="M12.6,11.3h-2v3.2h2.1c0.6,0,0.9-0.2,1.2-0.5s0.4-0.6,0.4-1.1s-0.1-0.8-0.4-1.1
	C13.6,11.5,13.2,11.3,12.6,11.3 M15.2,15c-0.6,0.5-1.1,0.7-2.4,0.7h-2.2V18H9v-8h3.8c1.3,0,1.9,0.3,2.4,0.8c0.6,0.6,0.8,1.2,0.8,2.1
	C16,13.8,15.8,14.5,15.2,15 M14,2H6C4.9,2,4,2.9,4,4v16c0,1.1,0.9,2,2,2h12c1.1,0,2-0.9,2-2V8L14,2z M6,20V4h7.2H14v4h4v12H6z"/>
</svg>
