<?xml version="1.0" encoding="utf-8"?>
<!-- Generator: Adobe Illustrator 22.1.0, SVG Export Plug-In . SVG Version: 6.00 Build 0)  -->
<svg version="1.1" id="Ebene_1" xmlns="http://www.w3.org/2000/svg" xmlns:xlink="http://www.w3.org/1999/xlink" x="0px" y="0px"
	 width="24px" height="24px" viewBox="0 0 24 24" enable-background="new 0 0 24 24" xml:space="preserve">
<g>
	<path fill="#FFFFFF" d="M19.9,11H18V7c0-0.6-0.4-1-1-1h-3V4.1c0-1-0.7-1.9-1.7-2.1C11.1,1.8,10,2.8,10,4v2H7C6.4,6,6,6.4,6,7v4h1.9
		c1,0,1.9,0.7,2.1,1.7C10.2,14,9.2,15,8,15H6v4c0,0.6,0.4,1,1,1h3v-1.9c0-1,0.7-1.9,1.7-2.1c1.3-0.2,2.3,0.8,2.3,2v2h3
		c0.6,0,1-0.4,1-1v-4h2c1.2,0,2.2-1.1,2-2.3C21.8,11.7,20.9,11,19.9,11z"/>
</g>
</svg>
