<?xml version="1.0" encoding="utf-8"?>
<!-- Generator: Adobe Illustrator 22.1.0, SVG Export Plug-In . SVG Version: 6.00 Build 0)  -->
<svg version="1.1" id="Ebene_1" xmlns="http://www.w3.org/2000/svg" xmlns:xlink="http://www.w3.org/1999/xlink" x="0px" y="0px"
	 width="24px" height="24px" viewBox="0 0 24 24" enable-background="new 0 0 24 24" xml:space="preserve">
<path fill="#FFFFFF" d="M3,11h2v2H3V11 M11,5h2v4h-2V5 M9,11h4v4h-2v-2H9V11 M15,11h2v2h2v-2h2v2h-2v2h2v4h-2v2h-2v-2h-4v2h-2v-4h4
	v-2h2v-2h-2V11 M19,19v-4h-2v4H19 M15,3h6v6h-6V3 M17,5v2h2V5H17 M3,3h6v6H3V3 M5,5v2h2V5H5 M3,15h6v6H3V15 M5,17v2h2v-2H5z"/>
</svg>
