<?xml version="1.0" encoding="utf-8"?>
<!-- Generator: Adobe Illustrator 22.1.0, SVG Export Plug-In . SVG Version: 6.00 Build 0)  -->
<svg version="1.1" id="Ebene_1" xmlns="http://www.w3.org/2000/svg" xmlns:xlink="http://www.w3.org/1999/xlink" x="0px" y="0px"
	 width="24px" height="24px" viewBox="0 0 24 24" enable-background="new 0 0 24 24" xml:space="preserve">
<path fill="#FFFFFF" d="M20,4v12H6H5.2l-0.6,0.6L4,17.2V4H20 M20,2H4C2.9,2,2,2.9,2,4v18l4-4h14c1.1,0,2-0.9,2-2V4
	C22,2.9,21.1,2,20,2L20,2z"/>
<g>
	<path fill="#FFFFFF" d="M11,11.9c0-0.6,0.1-1.1,0.2-1.5c0.2-0.4,0.4-0.7,0.8-1.1c0.4-0.4,0.7-0.7,0.8-0.9C13,8.2,13.1,8,13.1,7.7
		c0-0.8-0.3-1.1-1-1.1c-0.3,0-0.6,0.1-0.8,0.3c-0.2,0.2-0.3,0.5-0.3,0.8H9c0-0.9,0.3-1.5,0.8-2C10.3,5.2,11.1,5,12,5
		c0.9,0,1.7,0.2,2.2,0.7C14.8,6.1,15,6.8,15,7.6c0,0.4-0.1,0.7-0.3,1.1c-0.2,0.3-0.5,0.7-0.9,1.1l-0.5,0.5c-0.3,0.3-0.5,0.7-0.6,1.2
		l0,0.4H11z M10.8,14c0-0.3,0.1-0.5,0.3-0.7c0.2-0.2,0.5-0.3,0.8-0.3c0.3,0,0.6,0.1,0.8,0.3c0.2,0.2,0.3,0.4,0.3,0.7
		c0,0.3-0.1,0.5-0.3,0.7c-0.2,0.2-0.5,0.3-0.8,0.3c-0.3,0-0.6-0.1-0.8-0.3C10.9,14.5,10.8,14.3,10.8,14z"/>
</g>
</svg>
