<?xml version="1.0" encoding="utf-8"?>
<!-- Generator: Adobe Illustrator 22.1.0, SVG Export Plug-In . SVG Version: 6.00 Build 0)  -->
<svg version="1.1" id="Ebene_1" xmlns="http://www.w3.org/2000/svg" xmlns:xlink="http://www.w3.org/1999/xlink" x="0px" y="0px"
	 width="24px" height="24px" viewBox="0 0 24 24" enable-background="new 0 0 24 24" xml:space="preserve">
<path fill="#FFFFFF" d="M20,4v12H6H5.2l-0.6,0.6L4,17.2V4H20 M20,2H4C2.9,2,2,2.9,2,4v18l4-4h14c1.1,0,2-0.9,2-2V4
	C22,2.9,21.1,2,20,2L20,2z M14.3,13.5L12,12.1l-2.3,1.4l0.6-2.6l-2-1.7L11,8.9l1-2.4l1,2.4l2.7,0.3l-2,1.7L14.3,13.5z"/>
</svg>
