<?xml version="1.0" encoding="utf-8"?>
<!-- Generator: Adobe Illustrator 22.1.0, SVG Export Plug-In . SVG Version: 6.00 Build 0)  -->
<svg version="1.1" id="Ebene_1" xmlns="http://www.w3.org/2000/svg" xmlns:xlink="http://www.w3.org/1999/xlink" x="0px" y="0px"
	 width="24px" height="24px" viewBox="0 0 24 24" enable-background="new 0 0 24 24" xml:space="preserve">
<path fill="none" d="M0,0h24v24H0V0z"/>
<path fill="#FFFFFF" d="M18,4l-4,4h3v7c0,1.1-0.9,2-2,2s-2-0.9-2-2V8c0-2.2-1.8-4-4-4S5,5.8,5,8v7H2l4,4l4-4H7V8c0-1.1,0.9-2,2-2
	s2,0.9,2,2v7c0,2.2,1.8,4,4,4s4-1.8,4-4V8h3L18,4z"/>
</svg>
