<?xml version="1.0" encoding="utf-8"?>
<!-- Generator: Adobe Illustrator 22.1.0, SVG Export Plug-In . SVG Version: 6.00 Build 0)  -->
<svg version="1.1" id="Ebene_1" xmlns="http://www.w3.org/2000/svg" xmlns:xlink="http://www.w3.org/1999/xlink" x="0px" y="0px"
	 width="24px" height="24px" viewBox="0 0 24 24" enable-background="new 0 0 24 24" xml:space="preserve">
<path fill="none" d="M0,0h24v24H0V0z"/>
<path opacity="0.5" fill="#FFFFFF" enable-background="new    " d="M22,10"/>
<path fill="#FFFFFF" d="M20,6v12H4V6H20 M20,4H4C2.9,4,2,4.9,2,6v12c0,1.1,0.9,2,2,2h16c1.1,0,2-0.9,2-2V6C22,4.9,21.1,4,20,4L20,4z
	 M11,14.5l-2.5-3L5,16h14l-4.5-6L11,14.5z M5,8.5C5,9.3,5.7,10,6.5,10S8,9.3,8,8.5S7.3,7,6.5,7S5,7.7,5,8.5z"/>
<circle fill="#F03C28" cx="18" cy="18" r="6"/>
<polygon fill="#FFFFFF" points="20.1,14.5 18,16.6 15.9,14.5 14.5,15.9 16.6,18 14.5,20.1 15.9,21.5 18,19.4 20.1,21.5 21.5,20.1 
	19.4,18 21.5,15.9 "/>
</svg>
