<?xml version="1.0" encoding="utf-8"?>
<!-- Generator: Adobe Illustrator 22.1.0, SVG Export Plug-In . SVG Version: 6.00 Build 0)  -->
<svg version="1.1" id="Ebene_1" xmlns="http://www.w3.org/2000/svg" xmlns:xlink="http://www.w3.org/1999/xlink" x="0px" y="0px"
	 width="24px" height="24px" viewBox="0 0 24 24" enable-background="new 0 0 24 24" xml:space="preserve">
<path fill="#FFFFFF" d="M14,9c2.8,0,5,2.2,5,5v2h2v1h-2v2v1H5v-1v-2H3v-1h2v-2c0-2.8,2.2-5,5-5h1h2H14 M12,2c-1.1,0-2,0.9-2,2
	c0,0.7,0.4,1.4,1,1.7V7h-1c-3.9,0-7,3.1-7,7H2c-0.6,0-1,0.4-1,1v3c0,0.6,0.4,1,1,1h1v1c0,1.1,0.9,2,2,2h14c1.1,0,2-0.9,2-2v-1h1
	c0.6,0,1-0.4,1-1v-3c0-0.6-0.4-1-1-1h-1c0-3.9-3.1-7-7-7h-1V5.7c0.6-0.3,1-1,1-1.7C14,2.9,13.1,2,12,2L12,2z M8,13c-1.1,0-2,0.9-2,2
	s0.9,2,2,2s2-0.9,2-2S9.1,13,8,13 M16,13c1.1,0,2,0.9,2,2s-0.9,2-2,2s-2-0.9-2-2S14.9,13,16,13z"/>
</svg>
