<?xml version="1.0" encoding="utf-8"?>
<!-- Generator: Adobe Illustrator 22.1.0, SVG Export Plug-In . SVG Version: 6.00 Build 0)  -->
<svg version="1.1" id="Ebene_1" xmlns="http://www.w3.org/2000/svg" xmlns:xlink="http://www.w3.org/1999/xlink" x="0px" y="0px"
	 width="24px" height="24px" viewBox="0 0 24 24" enable-background="new 0 0 24 24" xml:space="preserve">
<g>
	<rect x="10" y="19" fill="#FFFFFF" width="4" height="1"/>
	<rect x="10" y="17" fill="#FFFFFF" width="4" height="1"/>
	<rect x="10" y="15" fill="#FFFFFF" width="4" height="1"/>
	<rect x="10" y="13" fill="#FFFFFF" width="4" height="1"/>
	<rect x="10" y="11" fill="#FFFFFF" width="4" height="1"/>
	<rect x="10" y="9" fill="#FFFFFF" width="4" height="1"/>
	<rect x="10" y="7" fill="#FFFFFF" width="4" height="1"/>
	<rect x="10" y="5" fill="#FFFFFF" width="4" height="1"/>
</g>
<g>
	<rect x="16" y="19" fill="#FFFFFF" width="4" height="1"/>
	<rect x="16" y="17" fill="#FFFFFF" width="4" height="1"/>
	<rect x="16" y="15" fill="#FFFFFF" width="4" height="1"/>
	<rect x="16" y="13" fill="#FFFFFF" width="4" height="1"/>
	<rect x="16" y="11" fill="#FFFFFF" width="4" height="1"/>
</g>
<g>
	<rect x="4" y="19" fill="#FFFFFF" width="4" height="1"/>
	<rect x="4" y="17" fill="#FFFFFF" width="4" height="1"/>
	<rect x="4" y="15" fill="#FFFFFF" width="4" height="1"/>
</g>
</svg>
