<?xml version="1.0" encoding="utf-8"?>
<!-- Generator: Adobe Illustrator 22.1.0, SVG Export Plug-In . SVG Version: 6.00 Build 0)  -->
<svg version="1.1" id="Ebene_1" xmlns="http://www.w3.org/2000/svg" xmlns:xlink="http://www.w3.org/1999/xlink" x="0px" y="0px"
	 width="24px" height="24px" viewBox="0 0 24 24" enable-background="new 0 0 24 24" xml:space="preserve">
<g>
	<path fill="#FFFFFF" d="M12,6.5c3.8,0,7.2,2.1,8.8,5.5c-1.6,3.4-5,5.5-8.8,5.5S4.8,15.4,3.2,12C4.8,8.6,8.2,6.5,12,6.5 M12,4.5
		C7,4.5,2.7,7.6,1,12c1.7,4.4,6,7.5,11,7.5s9.3-3.1,11-7.5C21.3,7.6,17,4.5,12,4.5L12,4.5z"/>
</g>
<g>
	<path fill="#FFFFFF" d="M12,10c1.1,0,2,0.9,2,2s-0.9,2-2,2s-2-0.9-2-2S10.9,10,12,10 M12,8c-2.2,0-4,1.8-4,4s1.8,4,4,4s4-1.8,4-4
		S14.2,8,12,8L12,8z"/>
</g>
</svg>
