<?xml version="1.0" encoding="utf-8"?>
<!-- Generator: Adobe Illustrator 22.1.0, SVG Export Plug-In . SVG Version: 6.00 Build 0)  -->
<svg version="1.1" id="Ebene_1" xmlns="http://www.w3.org/2000/svg" xmlns:xlink="http://www.w3.org/1999/xlink" x="0px" y="0px"
	 width="24px" height="24px" viewBox="0 0 24 24" enable-background="new 0 0 24 24" xml:space="preserve">
<g>
	<rect x="6" y="12" fill="#FFFFFF" width="2" height="1"/>
	<path fill="#FFFFFF" d="M20,4H4C2.9,4,2,4.9,2,6v12c0,1.1,0.9,2,2,2h8v2h7v-2h1c1.1,0,2-0.9,2-2V6C22,4.9,21.1,4,20,4z M12,18H6v-1
		h6V18z M18,21h-5v-4h5V21z M20,15H4V6h16V15z"/>
	<rect x="9" y="10" fill="#FFFFFF" width="9" height="1"/>
	<rect x="9" y="8" fill="#FFFFFF" width="9" height="1"/>
	<rect x="6" y="10" fill="#FFFFFF" width="2" height="1"/>
	<rect x="6" y="8" fill="#FFFFFF" width="2" height="1"/>
	<rect x="9" y="12" fill="#FFFFFF" width="9" height="1"/>
</g>
</svg>
