<?xml version="1.0" encoding="utf-8"?>
<!-- Generator: Adobe Illustrator 22.1.0, SVG Export Plug-In . SVG Version: 6.00 Build 0)  -->
<svg version="1.1" id="Ebene_1" xmlns="http://www.w3.org/2000/svg" xmlns:xlink="http://www.w3.org/1999/xlink" x="0px" y="0px"
	 width="24px" height="24px" viewBox="0 0 24 24" enable-background="new 0 0 24 24" xml:space="preserve">
<path fill="#FFFFFF" d="M21,9h-1V8c0-1.7-1.3-3-3-3h-1.2c-0.4-1.2-1.5-2-2.8-2c-1.3,0-2.4,0.8-2.8,2H8V4c0-0.6-0.4-1-1-1H3
	C2.4,3,2,3.4,2,4v4c0,0.6,0.4,1,1,1h4c0.6,0,1-0.4,1-1V7h2.2c0.4,1.2,1.5,2,2.8,2c1.3,0,2.4-0.8,2.8-2H17c0.6,0,1,0.4,1,1v1h-1
	c-0.6,0-1,0.4-1,1v4c0,0.6,0.4,1,1,1h1v1c0,0.3-0.1,0.5-0.3,0.7C17.5,16.9,17.3,17,17,17c0,0,0,0,0,0l-1.2,0c-0.4-1.2-1.5-2-2.8-2
	c-1.3,0-2.4,0.8-2.8,2H8v-1c0-0.6-0.4-1-1-1H3c-0.6,0-1,0.4-1,1v4c0,0.6,0.4,1,1,1h4c0.6,0,1-0.4,1-1v-1h2.2c0.4,1.2,1.5,2,2.8,2
	c1.3,0,2.4-0.8,2.8-2l1.2,0c0,0,0,0,0,0c0.8,0,1.6-0.3,2.1-0.9S20,16.8,20,16v-1h1c0.6,0,1-0.4,1-1v-4C22,9.4,21.6,9,21,9z M6,7H4V5
	h2V7z M13,7c-0.6,0-1-0.4-1-1s0.4-1,1-1c0.6,0,1,0.4,1,1S13.6,7,13,7z M6,19H4v-2h2V19z M13,19c-0.6,0-1-0.4-1-1s0.4-1,1-1
	c0.6,0,1,0.4,1,1S13.6,19,13,19z M20,13h-2v-2h2V13z"/>
</svg>
