<?xml version="1.0" encoding="utf-8"?>
<!-- Generator: Adobe Illustrator 22.1.0, SVG Export Plug-In . SVG Version: 6.00 Build 0)  -->
<svg version="1.1" id="Ebene_1" xmlns="http://www.w3.org/2000/svg" xmlns:xlink="http://www.w3.org/1999/xlink" x="0px" y="0px"
	 width="24px" height="24px" viewBox="0 0 24 24" enable-background="new 0 0 24 24" xml:space="preserve">
<g>
	<rect x="2" y="17" fill="#FFFFFF" width="20" height="2"/>
	<path fill="#FFFFFF" d="M14,7.2c0-0.1,0-0.1,0-0.2c0-1.1-0.9-2-2-2s-2,0.9-2,2c0,0.1,0,0.2,0,0.2C6,8.1,3,11.7,3,16h18
		C21,11.7,18,8.1,14,7.2z M12,9c3.2,0,5.8,2.1,6.7,5H5.3C6.2,11.1,8.8,9,12,9z"/>
</g>
</svg>
