<?xml version="1.0" encoding="utf-8"?>
<!-- Generator: Adobe Illustrator 22.1.0, SVG Export Plug-In . SVG Version: 6.00 Build 0)  -->
<svg version="1.1" id="Ebene_1" xmlns="http://www.w3.org/2000/svg" xmlns:xlink="http://www.w3.org/1999/xlink" x="0px" y="0px"
	 width="24px" height="24px" viewBox="0 0 24 24" enable-background="new 0 0 24 24" xml:space="preserve">
<path fill="#FFFFFF" d="M21,8h-5V4H6C4.9,4,4,4.9,4,6H0.3l0.8,1.5H4V9H1.3L2,10.5h2V12H2.3L3,13.5h1V17h2c0,1.7,1.3,3,3,3s3-1.3,3-3
	h4c0,1.7,1.3,3,3,3s3-1.3,3-3h2v-5L21,8z M9,18.5c-0.8,0-1.5-0.7-1.5-1.5s0.7-1.5,1.5-1.5s1.5,0.7,1.5,1.5S9.8,18.5,9,18.5z
	 M8.3,13.8L5.5,11l1.4-1.4L8.3,11l4.3-4.3L14,8.1L8.3,13.8z M19,18.5c-0.8,0-1.5-0.7-1.5-1.5s0.7-1.5,1.5-1.5s1.5,0.7,1.5,1.5
	S19.8,18.5,19,18.5z M18,12V9.5h2.5l2,2.5H18z"/>
</svg>
