<?xml version="1.0" encoding="utf-8"?>
<!-- Generator: Adobe Illustrator 22.1.0, SVG Export Plug-In . SVG Version: 6.00 Build 0)  -->
<svg version="1.1" id="Ebene_1" xmlns="http://www.w3.org/2000/svg" xmlns:xlink="http://www.w3.org/1999/xlink" x="0px" y="0px"
	 width="24px" height="24px" viewBox="0 0 24 24" enable-background="new 0 0 24 24" xml:space="preserve">
<path fill="#FFFFFF" d="M15.5,13c0.8,0,1.4-0.4,1.8-1l3.6-6.5C21.3,4.8,20.8,4,20,4H5.2L4.3,2H1v2h2l3.6,7.6L5.3,14
	c-0.7,1.3,0.2,3,1.8,3h12v-2H7l1.1-2H15.5z M6.2,6h12.2l-2.8,5h-7L6.2,6z"/>
<path fill="#FFFFFF" d="M7,18c-1.1,0-2,0.9-2,2s0.9,2,2,2s2-0.9,2-2S8.1,18,7,18z"/>
<path fill="#FFFFFF" d="M17,18c-1.1,0-2,0.9-2,2s0.9,2,2,2s2-0.9,2-2S18.1,18,17,18z"/>
</svg>
