<?xml version="1.0" encoding="utf-8"?>
<!-- Generator: Adobe Illustrator 22.1.0, SVG Export Plug-In . SVG Version: 6.00 Build 0)  -->
<svg version="1.1" id="Ebene_1" xmlns="http://www.w3.org/2000/svg" xmlns:xlink="http://www.w3.org/1999/xlink" x="0px" y="0px"
	 width="24px" height="24px" viewBox="0 0 24 24" enable-background="new 0 0 24 24" xml:space="preserve">
<path fill="#FFFFFF" d="M19,9h-4c-1.1,0-2,0.9-2,2v9c0,1.1,0.9,2,2,2h4c1.1,0,2-0.9,2-2v-9C21,9.9,20.1,9,19,9z M18,21h-2v-1h2V21z
	 M19,19h-4v-8h4V19z"/>
<path fill="#FFFFFF" d="M11,17H5V4h8v3h2V4c0-1.1-0.9-2-2-2H5C3.9,2,3,2.9,3,4v14c0,1.1,0.9,2,2,2h6V17z M8,19v-1h2v1H8z"/>
</svg>
