<?xml version="1.0" encoding="utf-8"?>
<!-- Generator: Adobe Illustrator 22.1.0, SVG Export Plug-In . SVG Version: 6.00 Build 0)  -->
<svg version="1.1" id="Ebene_1" xmlns="http://www.w3.org/2000/svg" xmlns:xlink="http://www.w3.org/1999/xlink" x="0px" y="0px"
	 width="24px" height="24px" viewBox="0 0 24 24" enable-background="new 0 0 24 24" xml:space="preserve">
<path fill="#FFFFFF" d="M20,4v12H6H5.2l-0.6,0.6L4,17.2V4H20 M20,2H4C2.9,2,2,2.9,2,4v18l4-4h14c1.1,0,2-0.9,2-2V4
	C22,2.9,21.1,2,20,2L20,2z"/>
<polygon fill="#FFFFFF" points="9,9 7,9 7,11 9,11 9,9 "/>
<polygon fill="#FFFFFF" points="13,9 11,9 11,11 13,11 13,9 "/>
<polygon fill="#FFFFFF" points="17,9 15,9 15,11 17,11 17,9 "/>
</svg>
