<?xml version="1.0" encoding="utf-8"?>
<!-- Generator: Adobe Illustrator 22.1.0, SVG Export Plug-In . SVG Version: 6.00 Build 0)  -->
<svg version="1.1" id="Ebene_1" xmlns="http://www.w3.org/2000/svg" xmlns:xlink="http://www.w3.org/1999/xlink" x="0px" y="0px"
	 width="24px" height="24px" viewBox="0 0 24 24" enable-background="new 0 0 24 24" xml:space="preserve">
<g>
	<polygon fill="#FFFFFF" points="11,17 9,15 11,13 11,11 7,15 11,19 	"/>
	<polygon fill="#FFFFFF" points="13,11 13,13 15,15 13,17 13,19 17,15 	"/>
</g>
<path fill="#FFFFFF" d="M14,2H6C4.9,2,4,2.9,4,4v16c0,1.1,0.9,2,2,2h12c1.1,0,2-0.9,2-2V8L14,2z M6,20V4h7.2H14v4h4v12H6z"/>
</svg>
