<?xml version="1.0" encoding="utf-8"?>
<!-- Generator: Adobe Illustrator 22.1.0, SVG Export Plug-In . SVG Version: 6.00 Build 0)  -->
<svg version="1.1" id="Ebene_1" xmlns="http://www.w3.org/2000/svg" xmlns:xlink="http://www.w3.org/1999/xlink" x="0px" y="0px"
	 width="24px" height="24px" viewBox="0 0 24 24" enable-background="new 0 0 24 24" xml:space="preserve">
<path fill="#FFFFFF" d="M16.5,5.5c1.1,0,2-0.9,2-2s-0.9-2-2-2s-2,0.9-2,2S15.4,5.5,16.5,5.5"/>
<path fill="#FFFFFF" d="M12.9,19.4l1-4.4l2.1,2v6h2v-7.5l-2.1-2l0.6-3c1.4,1.6,3.4,2.5,5.5,2.5v-2c-1.8,0-3.4-0.9-4.3-2.4l-1-1.6
	c-0.4-0.6-1-1-1.7-1c-0.3,0-0.5,0.1-0.8,0.1L9,8.3V13h2V9.6l1.8-0.7L11.2,17l-4.9-1l-0.4,2L12.9,19.4"/>
<path fill="#FFFFFF" d="M4,9C3.5,9,3,8.6,3,8s0.5-1,1-1h3v2H4"/>
<path fill="#FFFFFF" d="M5,5C4.4,5,4,4.6,4,4s0.4-1,1-1h5v2H5"/>
<path fill="#FFFFFF" d="M3,13c-0.5,0-1-0.4-1-1s0.5-1,1-1h4v2H3z"/>
</svg>
