<?xml version="1.0" encoding="utf-8"?>
<!-- Generator: Adobe Illustrator 22.1.0, SVG Export Plug-In . SVG Version: 6.00 Build 0)  -->
<svg version="1.1" id="Ebene_1" xmlns="http://www.w3.org/2000/svg" xmlns:xlink="http://www.w3.org/1999/xlink" x="0px" y="0px"
	 width="24px" height="24px" viewBox="0 0 24 24" enable-background="new 0 0 24 24" xml:space="preserve">
<path fill="#FFFFFF" d="M5.6,18C4.7,18,4,17.3,4,16.4V8H3.6C2.7,8,2,8.7,2,9.5v8.9C2,19.3,2.7,20,3.6,20h12.8c0.9,0,1.6-0.7,1.6-1.5
	V18H5.6z"/>
<g>
	<polygon fill="#FFFFFF" points="12,13 17,10 12,7 	"/>
	<path fill="#FFFFFF" d="M20.4,4H7.6C6.7,4,6,4.7,6,5.5v8.9C6,15.3,6.7,16,7.6,16h12.8c0.9,0,1.6-0.7,1.6-1.5v-9
		C22,4.7,21.3,4,20.4,4z M14,15c-2.8,0-5-2.2-5-5s2.2-5,5-5s5,2.2,5,5S16.8,15,14,15z"/>
</g>
</svg>
