<?xml version="1.0" encoding="utf-8"?>
<!-- Generator: Adobe Illustrator 22.1.0, SVG Export Plug-In . SVG Version: 6.00 Build 0)  -->
<svg version="1.1" id="Ebene_1" xmlns="http://www.w3.org/2000/svg" xmlns:xlink="http://www.w3.org/1999/xlink" x="0px" y="0px"
	 width="24px" height="24px" viewBox="0 0 24 24" enable-background="new 0 0 24 24" xml:space="preserve">
<rect x="2" y="17" transform="matrix(4.479268e-11 -1 1 4.479268e-11 -14.9982 23.0102)" fill="#FFFFFF" width="4" height="4"/>
<rect x="2" y="12" transform="matrix(4.479268e-11 -1 1 4.479268e-11 -9.9952 18.0072)" fill="#FFFFFF" width="4" height="4"/>
<rect x="2" y="7" transform="matrix(4.479268e-11 -1 1 4.479268e-11 -4.9922 13.0042)" fill="#FFFFFF" width="4" height="4"/>
<rect x="2" y="2" transform="matrix(4.479268e-11 -1 1 4.479268e-11 1.077732e-02 8.0012)" fill="#FFFFFF" width="4" height="4"/>
<rect x="-0.5" y="9.5" transform="matrix(4.485307e-11 -1 1 4.485307e-11 -2.5012 20.5096)" fill="#FFFFFF" width="19" height="4"/>
<rect x="12" y="17" transform="matrix(4.502005e-11 -1 1 4.502005e-11 -5.0012 33.0096)" fill="#FFFFFF" width="4" height="4"/>
<rect x="12" y="12" transform="matrix(4.502005e-11 -1 1 4.502005e-11 1.796220e-03 28.0066)" fill="#FFFFFF" width="4" height="4"/>
<rect x="12" y="7" transform="matrix(4.456530e-11 -1 1 4.456530e-11 5.0048 23.0036)" fill="#FFFFFF" width="4" height="4"/>
<rect x="12" y="2" transform="matrix(4.502005e-11 -1 1 4.502005e-11 10.0078 18.0006)" fill="#FFFFFF" width="4" height="4"/>
<rect x="17" y="17" transform="matrix(4.502005e-11 -1 1 4.502005e-11 -1.529049e-09 38.0084)" fill="#FFFFFF" width="4" height="4"/>
<rect x="17" y="12" transform="matrix(4.502005e-11 -1 1 4.502005e-11 5.003 33.0054)" fill="#FFFFFF" width="4" height="4"/>
<rect x="17" y="7" transform="matrix(4.456530e-11 -1 1 4.456530e-11 10.006 28.0024)" fill="#FFFFFF" width="4" height="4"/>
<rect x="17" y="2" transform="matrix(4.502005e-11 -1 1 4.502005e-11 15.009 22.9994)" fill="#FFFFFF" width="4" height="4"/>
</svg>
