<?xml version="1.0" encoding="utf-8"?>
<!-- Generator: Adobe Illustrator 22.1.0, SVG Export Plug-In . SVG Version: 6.00 Build 0)  -->
<svg version="1.1" id="Ebene_1" xmlns="http://www.w3.org/2000/svg" xmlns:xlink="http://www.w3.org/1999/xlink" x="0px" y="0px"
	 width="24px" height="24px" viewBox="0 0 24 24" enable-background="new 0 0 24 24" xml:space="preserve">
<path fill="none" d="M0,0h24v24H0V0z"/>
<path fill="#FFFFFF" d="M22.6,19l-9.1-9.1c0.9-2.3,0.4-5.1-1.4-7C9.8,0.6,6.2,0.4,3.7,2.3l3.8,3.9L6.1,7.5L2.3,3.7
	C0.4,6.2,0.7,9.8,3,12.1c1.9,1.9,4.6,2.3,6.9,1.5l9.1,9.1c0.4,0.4,1,0.4,1.4,0l2.3-2.3C23,20,23,19.4,22.6,19z M19.6,20.6l-9.5-9.5
	c-0.6,0.4-1.3,0.7-2,0.8c-1.4,0.2-2.8-0.2-3.8-1.3C3.4,9.8,2.9,8.5,3,7.3l3.1,3.1l4.2-4.2L7.2,3c1.3,0,2.5,0.4,3.5,1.3
	c1.1,1.1,1.5,2.6,1.2,4c-0.1,0.7-0.4,1.4-0.9,2l9.4,9.5L19.6,20.6z"/>
</svg>
