<?xml version="1.0" encoding="utf-8"?>
<!-- Generator: Adobe Illustrator 22.1.0, SVG Export Plug-In . SVG Version: 6.00 Build 0)  -->
<svg version="1.1" id="Ebene_1" xmlns="http://www.w3.org/2000/svg" xmlns:xlink="http://www.w3.org/1999/xlink" x="0px" y="0px"
	 width="24px" height="24px" viewBox="0 0 24 24" enable-background="new 0 0 24 24" xml:space="preserve">
<path fill="#FFFFFF" d="M18.2,12.4l-2.6-1.2c0.9-1,1.4-2.2,1.4-3.7c0-3-2.5-5.5-5.5-5.5S6,4.5,6,7.5c0,2.1,1.2,4,3,4.9v2.3l-1.8-0.4
	H7.1c-0.1,0-0.2,0-0.3,0c-0.5,0-1,0.2-1.4,0.6L4,16.3l5,5c0.4,0.4,1,0.7,1.6,0.7H17c1,0,1.8-0.7,2-1.7l0.8-4.7
	C20,14.3,19.4,13,18.2,12.4z M8,7.5C8,5.6,9.6,4,11.5,4S15,5.6,15,7.5c0,0.9-0.4,1.8-1,2.4V7.5C14,6.1,12.9,5,11.5,5S9,6.1,9,7.5
	v2.4C8.4,9.3,8,8.4,8,7.5z M18.4,15.3L17.5,20c0,0.1-0.1,0.5-0.5,0.5h-6.4c-0.2,0-0.4-0.1-0.5-0.3l-3.9-3.9L6.5,16
	c0.1-0.1,0.2-0.2,0.3-0.2H7l1.6,0.4l1.8,0.4v-1.9V7.5c0.1-0.6,0.5-1,1.1-1s1,0.4,1,1v2.9v0.9l0.9,0.4l4.2,2
	C18.2,14,18.5,14.6,18.4,15.3z"/>
</svg>
