<?xml version="1.0" encoding="utf-8"?>
<!-- Generator: Adobe Illustrator 22.1.0, SVG Export Plug-In . SVG Version: 6.00 Build 0)  -->
<svg version="1.1" id="Ebene_1" xmlns="http://www.w3.org/2000/svg" xmlns:xlink="http://www.w3.org/1999/xlink" x="0px" y="0px"
	 width="24px" height="24px" viewBox="0 0 24 24" enable-background="new 0 0 24 24" xml:space="preserve">
<path fill="#FFFFFF" d="M12.9,15.1l-2.5-2.5l0,0c1.7-1.9,3-4.2,3.7-6.5H17V4h-7V2H8v2H1v2h11.2c-0.7,1.9-1.7,3.8-3.2,5.4
	c-0.9-1-1.7-2.2-2.3-3.4h-2c0.7,1.6,1.7,3.2,3,4.6l-5.1,5L4,19l5-5l3.1,3.1L12.9,15.1z M18.5,10h-2L12,22h2l1.1-3h4.7l1.1,3h2
	L18.5,10z M15.9,17l1.6-4.3l1.6,4.3H15.9z"/>
</svg>
