<?xml version="1.0" encoding="utf-8"?>
<!-- Generator: Adobe Illustrator 22.1.0, SVG Export Plug-In . SVG Version: 6.00 Build 0)  -->
<svg version="1.1" id="Ebene_1" xmlns="http://www.w3.org/2000/svg" xmlns:xlink="http://www.w3.org/1999/xlink" x="0px" y="0px"
	 viewBox="0 0 24 24" enable-background="new 0 0 24 24" xml:space="preserve">
<path fill="none" d="M0,0h24v24H0V0z"/>
<polygon fill="#FFFFFF" points="10.6,20 13.5,20 13.5,14 16,14 12,10 8,14 10.6,14 "/>
<path fill="#FFFFFF" d="M19.3,10c-0.7-3.4-3.7-6-7.3-6C9.1,4,6.6,5.6,5.3,8C2.3,8.4,0,10.9,0,14c0,3.3,2.7,6,6,6h2v-2H6
	c-2.2,0-4-1.8-4-4c0-2,1.5-3.8,3.6-4l1.1-0.1L7.1,9c1-1.8,2.8-3,4.9-3c2.6,0,4.9,1.9,5.4,4.4l0.3,1.5l1.5,0.1c1.6,0.1,2.8,1.4,2.8,3
	c0,1.7-1.3,3-3,3h-3v2h3c2.8,0,5-2.2,5-5C24,12.4,22,10.2,19.3,10z"/>
</svg>
