<?xml version="1.0" encoding="utf-8"?>
<!-- Generator: Adobe Illustrator 22.1.0, SVG Export Plug-In . SVG Version: 6.00 Build 0)  -->
<svg version="1.1" id="Ebene_1" xmlns="http://www.w3.org/2000/svg" xmlns:xlink="http://www.w3.org/1999/xlink" x="0px" y="0px"
	 width="24px" height="24px" viewBox="0 0 24 24" enable-background="new 0 0 24 24" xml:space="preserve">
<path fill="#FFFFFF" d="M20,6v2.5c-1.2,0.7-2,2-2,3.5s0.8,2.8,2,3.5V18H4v-2.5c1.2-0.7,2-2,2-3.5S5.2,9.2,4,8.5V6H20 M20,4H4
	C2.9,4,2,4.9,2,6v4c1.1,0,2,0.9,2,2s-0.9,2-2,2v4c0,1.1,0.9,2,2,2h16c1.1,0,2-0.9,2-2v-4c-1.1,0-2-0.9-2-2s0.9-2,2-2V6
	C22,4.9,21.1,4,20,4L20,4z M14,12.4l2.7-2.2L13.2,10L12,6.8L10.8,10l-3.5,0.2l2.7,2.2l-0.9,3.4l2.9-1.9l2.9,1.9L14,12.4z"/>
</svg>
