<?xml version="1.0" encoding="utf-8"?>
<!-- Generator: Adobe Illustrator 22.1.0, SVG Export Plug-In . SVG Version: 6.00 Build 0)  -->
<svg version="1.1" id="Ebene_1" xmlns="http://www.w3.org/2000/svg" xmlns:xlink="http://www.w3.org/1999/xlink" x="0px" y="0px"
	 width="24px" height="24px" viewBox="0 0 24 24" enable-background="new 0 0 24 24" xml:space="preserve">
<g>
	<g>
		<path fill="#FFFFFF" d="M9,7c1.1,0,2,0.9,2,2s-0.9,2-2,2s-2-0.9-2-2S7.9,7,9,7 M9,5C6.8,5,5,6.8,5,9s1.8,4,4,4s4-1.8,4-4
			S11.2,5,9,5L9,5z"/>
	</g>
	<g>
		<path fill="#FFFFFF" d="M9,17c2.9,0,6,1.4,6,2H3C3,18.4,6.1,17,9,17 M9,15c-2.7,0-8,1.3-8,4v2h16v-2C17,16.3,11.7,15,9,15L9,15z"
			/>
	</g>
	<g>
		<path fill="#FFFFFF" d="M16.8,5.4l-1.7,1.7c0.8,1.2,0.8,2.7,0,3.9l1.7,1.7C18.8,10.6,18.8,7.6,16.8,5.4L16.8,5.4z"/>
	</g>
	<g>
		<path fill="#FFFFFF" d="M20.1,2l-1.6,1.7c2.8,3,2.8,7.5,0,10.7l1.6,1.6C24,12.1,24,6.1,20.1,2L20.1,2z"/>
	</g>
</g>
</svg>
