<?xml version="1.0" encoding="utf-8"?>
<!-- Generator: Adobe Illustrator 22.1.0, SVG Export Plug-In . SVG Version: 6.00 Build 0)  -->
<svg version="1.1" id="Ebene_1" xmlns="http://www.w3.org/2000/svg" xmlns:xlink="http://www.w3.org/1999/xlink" x="0px" y="0px"
	 width="24px" height="24px" viewBox="0 0 24 24" enable-background="new 0 0 24 24" xml:space="preserve">
<path fill="#FFFFFF" d="M18.5,15c-1.9,0-3.5-1.6-3.5-3.5S16.6,8,18.5,8S22,9.6,22,11.5S20.4,15,18.5,15 M5.5,15
	C3.6,15,2,13.4,2,11.5S3.6,8,5.5,8S9,9.6,9,11.5S7.4,15,5.5,15 M18.5,6c-3,0-5.5,2.5-5.5,5.5c0,1.3,0.5,2.6,1.3,3.5H9.7
	c0.8-0.9,1.3-2.2,1.3-3.5C11,8.5,8.5,6,5.5,6S0,8.5,0,11.5S2.5,17,5.5,17h13c3,0,5.5-2.5,5.5-5.5S21.5,6,18.5,6z"/>
</svg>
