<?xml version="1.0" encoding="utf-8"?>
<!-- Generator: Adobe Illustrator 22.1.0, SVG Export Plug-In . SVG Version: 6.00 Build 0)  -->
<svg version="1.1" id="Ebene_1" xmlns="http://www.w3.org/2000/svg" xmlns:xlink="http://www.w3.org/1999/xlink" x="0px" y="0px"
	 width="24px" height="24px" viewBox="0 0 24 24" enable-background="new 0 0 24 24" xml:space="preserve">
<path fill="#FFFFFF" d="M21.3,18L13.7,5c-0.4-0.7-1-1-1.7-1s-1.3,0.3-1.7,1L2.7,18c-0.7,1.3,0.2,3,1.8,3h15.1
	C21.1,21,22.1,19.3,21.3,18z M5,19c-0.1-0.2-0.1-0.3-0.3-0.5l7-12.1c0.1-0.2,0.4-0.2,0.5,0l7,12.1c0.1,0.2,0,0.5-0.3,0.5L5,19z
	 M11,16h2v2h-2V16z M11,10h2v5h-2V10z"/>
</svg>
