<?xml version="1.0" encoding="utf-8"?>
<!-- Generator: Adobe Illustrator 22.1.0, SVG Export Plug-In . SVG Version: 6.00 Build 0)  -->
<svg version="1.1" id="Ebene_1" xmlns="http://www.w3.org/2000/svg" xmlns:xlink="http://www.w3.org/1999/xlink" x="0px" y="0px"
	 width="24px" height="24px" viewBox="0 0 24 24" enable-background="new 0 0 24 24" xml:space="preserve">
<path fill="#FFFFFF" d="M15.3,18h-1.4l-1.8-6l-1.8,6H8.9l-2.2-8h1.5l1.4,6l1.8-6h1.3l1.7,6l1.5-6h1.5L15.3,18 M20,8v12
	c0,1.1-0.9,2-2,2H6c-1.1,0-2-0.9-2-2V4c0-1.1,0.9-2,2-2h8L20,8z M18,20V8h-4V4h-0.8H6v16H18z"/>
</svg>
