<?xml version="1.0" encoding="utf-8"?>
<!-- Generator: Adobe Illustrator 22.1.0, SVG Export Plug-In . SVG Version: 6.00 Build 0)  -->
<svg version="1.1" id="Ebene_1" xmlns="http://www.w3.org/2000/svg" xmlns:xlink="http://www.w3.org/1999/xlink" x="0px" y="0px"
	 width="24px" height="24px" viewBox="0 0 24 24" enable-background="new 0 0 24 24" xml:space="preserve">
<path fill="#FFFFFF" d="M8,5.5C8,6.9,6.9,8,5.5,8S3,6.9,3,5.5S4.1,3,5.5,3S8,4.1,8,5.5z M18.5,16c-1.4,0-2.5,1.1-2.5,2.5
	c0,1.4,1.1,2.5,2.5,2.5c1.4,0,2.5-1.1,2.5-2.5C21,17.1,19.9,16,18.5,16z M21,7V4c0-0.6-0.4-1-1-1h-3c-0.6,0-1,0.4-1,1v3
	c0,0.6,0.4,1,1,1h3C20.6,8,21,7.6,21,7z M4.8,15.7l-2.1,2.1c-0.4,0.4-0.4,1,0,1.4l2.1,2.1c0.4,0.4,1,0.4,1.4,0l2.1-2.1
	c0.4-0.4,0.4-1,0-1.4l-2.1-2.1C5.8,15.3,5.2,15.3,4.8,15.7z M5.5,9.5L4,11h1l0,3h1l0-3h1L5.5,9.5z M14.5,5.5L13,4v1l-3,0v1l3,0v1
	L14.5,5.5z M18.5,14.5L20,13h-1l0-3h-1l0,3h-1L18.5,14.5z"/>
</svg>
