<?xml version="1.0" encoding="utf-8"?>
<!-- Generator: Adobe Illustrator 22.1.0, SVG Export Plug-In . SVG Version: 6.00 Build 0)  -->
<svg version="1.1" id="Ebene_1" xmlns="http://www.w3.org/2000/svg" xmlns:xlink="http://www.w3.org/1999/xlink" x="0px" y="0px"
	 width="24px" height="24px" viewBox="0 0 24 24" enable-background="new 0 0 24 24" xml:space="preserve">
<path fill="#FFFFFF" d="M10,4v2h8V4H10 M10,8v2h8V8H10 M21,10.1c-0.1,0-0.3,0.1-0.4,0.2l-1,1l2.1,2.1l1-1c0.2-0.2,0.2-0.6,0-0.8
	l-1.3-1.3C21.3,10.2,21.2,10.1,21,10.1 M19.1,11.9L13,17.9V20h2.1l6.1-6.1L19.1,11.9 M2,12v2h12v-2H2z M10,16v2H2v-2H10z M6,6v2H4V6
	H6 M8,4H2v6h6V4L8,4z"/>
</svg>
