<?xml version="1.0" encoding="utf-8"?>
<!-- Generator: Adobe Illustrator 19.2.1, SVG Export Plug-In . SVG Version: 6.00 Build 0)  -->
<svg version="1.1" id="Ebene_1" xmlns="http://www.w3.org/2000/svg" xmlns:xlink="http://www.w3.org/1999/xlink" x="0px" y="0px"
	 viewBox="0 0 238 250" style="enable-background:new 0 0 238 250;" xml:space="preserve">
<style type="text/css">
	.st0{fill:#EE2233;}
	.st1{fill:#FFFFFF;}
</style>
<path class="st0" d="M108,63l41-48l39-3l43,71L109,237L8,141l27-96l44-10L108,63z"/>
<path class="st1" d="M225.6,104c-16.1,20.4-32.2,40.8-48.3,61.2c-13.9-5.9-37.9-14.1-68.7-13.7c-40.3,0.5-70.1,15.4-83.8,23.5
	c-4.2-20.3-8.3-40.6-12.5-61c19.8-10.1,54-24.4,98.8-27.7C163.2,82.6,204,95.4,225.6,104z"/>
<path d="M22.8,113.9c0.6-53.8,30.8-73,46.1-73c21.3,0,30.1,16.3,31.5,23.4c1.4,7.2,9.5,12.9,12.1,1.1c2.6-11.8,27.6-47.8,58.4-47.8
	c28.2,0,42.7,36,41.9,60.7c-2.3,67.3-93.8,114.1-105.2,148.1C97.4,205.9,22,178.6,22.8,113.9L22.8,113.9z M180.9,1
	c-25.3,0-55.3,18.7-73.4,49.8c-4.9-11.2-22.3-23.5-43-23.5C47.8,27.3,1,48.2,1,115.5c0,86.9,87.9,104.7,105.7,131.7
	c1.2,1.9,5.2,3.3,6.7-1.2c14.2-41.8,124.1-89.1,124.1-174.3C237.4,24,206.3,1,180.9,1z"/>
</svg>
