<?xml version="1.0" encoding="utf-8"?>
<!-- Generator: Adobe Illustrator 19.2.1, SVG Export Plug-In . SVG Version: 6.00 Build 0)  -->
<svg version="1.1" id="Ebene_1" xmlns="http://www.w3.org/2000/svg" xmlns:xlink="http://www.w3.org/1999/xlink" x="0px" y="0px"
	 viewBox="0 0 48 48" style="enable-background:new 0 0 48 48;" xml:space="preserve">
<style type="text/css">
	.st0{fill:#1565C0;}
	.st1{fill:#2196F3;}
	.st2{fill:#FFA726;}
	.st3{fill:#607D8B;}
	.st4{fill:#FFCA28;}
</style>
<path class="st0" d="M25,22h13l6,6V11c0-2.2-1.8-4-4-4H25c-2.2,0-4,1.8-4,4v7C21,20.2,22.8,22,25,22z"/>
<path class="st1" d="M23,19H10l-6,6V8c0-2.2,1.8-4,4-4h15c2.2,0,4,1.8,4,4v7C27,17.2,25.2,19,23,19z"/>
<g>
	<circle class="st2" cx="12" cy="31" r="5"/>
	<circle class="st2" cx="36" cy="31" r="5"/>
</g>
<g>
	<path class="st3" d="M20,42c0,0-2.2-4-8-4s-8,4-8,4v2h16V42z"/>
	<path class="st3" d="M44,42c0,0-2.2-4-8-4s-8,4-8,4v2h16V42z"/>
</g>
<polygon class="st4" points="39.5,31 42.1,36.3 48,37.2 43.8,41.3 44.8,47.2 39.5,44.4 34.2,47.2 35.3,41.3 31,37.2 36.9,36.3 "/>
</svg>
