<?xml version="1.0" encoding="utf-8"?>
<!-- Generator: Adobe Illustrator 19.2.1, SVG Export Plug-In . SVG Version: 6.00 Build 0)  -->
<svg version="1.1" id="Ebene_1" xmlns="http://www.w3.org/2000/svg" xmlns:xlink="http://www.w3.org/1999/xlink" x="0px" y="0px"
	 viewBox="0 0 48 48" style="enable-background:new 0 0 48 48;" xml:space="preserve">
<style type="text/css">
	.st0{fill:#546E7A;}
</style>
<path class="st0" d="M8.3,23.4l12.1,12.9l-5.8-12.9H8.3z M24,38.3l6.8-15H17.2L24,38.3z M14.6,20.9l4-7.4h-5.1l-5.6,7.4H14.6z
	 M27.7,36.2l12.1-12.9h-6.3L27.7,36.2z M17.4,20.9h13.2l-4-7.4h-5.3L17.4,20.9z M33.4,20.9h6.7l-5.6-7.4h-5.1L33.4,20.9z M36.1,11.5
	l7.4,9.9c0.2,0.2,0.3,0.5,0.3,0.8s-0.1,0.6-0.3,0.8L24.9,42.8c-0.2,0.3-0.5,0.4-0.9,0.4c-0.4,0-0.7-0.1-0.9-0.4L4.5,23
	c-0.2-0.2-0.3-0.5-0.3-0.8s0.1-0.6,0.3-0.8l7.4-9.9c0.2-0.3,0.6-0.5,1-0.5h22.3C35.6,11,35.9,11.1,36.1,11.5z"/>
</svg>
