<?xml version="1.0" encoding="utf-8"?>
<!-- Generator: Adobe Illustrator 19.2.1, SVG Export Plug-In . SVG Version: 6.00 Build 0)  -->
<svg version="1.1" id="Ebene_1" xmlns="http://www.w3.org/2000/svg" xmlns:xlink="http://www.w3.org/1999/xlink" x="0px" y="0px"
	 viewBox="0 0 48 48" style="enable-background:new 0 0 48 48;" xml:space="preserve">
<style type="text/css">
	.st0{fill:#90CAF9;}
</style>
<path class="st0" d="M43,20v-9.1c0-1.7-1.8-3-4-3H9c-2.2,0-4,1.4-4,3V20c0,1.7,1.8,3,4,3h30C41.2,23,43,21.6,43,20z M9,10.9h30V20H9
	V10.9z"/>
<path class="st0" d="M43,38.3v-9.1c0-1.7-1.8-3-4-3H9c-2.2,0-4,1.4-4,3v9.1c0,1.7,1.8,3,4,3h30C41.2,41.3,43,40,43,38.3z M9,29.2h30
	v9.1H9V29.2z"/>
</svg>
