<?xml version="1.0" encoding="utf-8"?>
<!-- Generator: Adobe Illustrator 19.2.1, SVG Export Plug-In . SVG Version: 6.00 Build 0)  -->
<svg version="1.0" id="Ebene_1" xmlns="http://www.w3.org/2000/svg" xmlns:xlink="http://www.w3.org/1999/xlink" x="0px" y="0px"
	 viewBox="0 0 48 48" style="enable-background:new 0 0 48 48;" xml:space="preserve">
<g>
	<polygon style="fill:#FFCC80;" points="29,19.3 19,19.3 7,5.3 41,5.3 	"/>
	<polygon style="fill:#FFCC80;" points="29,34.3 19,40.3 19,19.3 29,19.3 	"/>
	<path style="fill:#FFCC80;" d="M41.5,5.3h-35C5.7,5.3,5,4.6,5,3.8l0,0C5,3,5.7,2.3,6.5,2.3h35C42.3,2.3,43,3,43,3.8l0,0
		C43,4.6,42.3,5.3,41.5,5.3z"/>
	<polygon style="fill:#FFCC80;" points="41,42.8 7,42.8 19,28.8 29,28.8 	"/>
	<path style="fill:#FFCC80;" d="M43,44.3L43,44.3c0,0.8-0.7,1.5-1.5,1.5h-35c-0.8,0-1.5-0.7-1.5-1.5l0,0c0-0.8,0.7-1.5,1.5-1.5h35
		C42.3,42.8,43,43.5,43,44.3z"/>
</g>
</svg>
