<?xml version="1.0" encoding="utf-8"?>
<!-- Generator: Adobe Illustrator 19.2.1, SVG Export Plug-In . SVG Version: 6.00 Build 0)  -->
<svg version="1.0" id="Ebene_1" xmlns="http://www.w3.org/2000/svg" xmlns:xlink="http://www.w3.org/1999/xlink" x="0px" y="0px"
	 viewBox="0 0 48 48" style="enable-background:new 0 0 48 48;" xml:space="preserve">
<path style="fill:#FFCC80;" d="M13.2,14.9c0-0.8-0.3-1.5-0.8-2c-0.6-0.6-1.2-0.8-2-0.8c-0.8,0-1.5,0.3-2,0.8c-0.6,0.6-0.8,1.2-0.8,2
	c0,0.8,0.3,1.5,0.8,2c0.6,0.6,1.2,0.8,2,0.8c0.8,0,1.5-0.3,2-0.8C12.9,16.3,13.2,15.7,13.2,14.9z M37.1,27.8c0,0.8-0.3,1.5-0.8,2
	l-11,11c-0.6,0.6-1.3,0.8-2,0.8c-0.8,0-1.5-0.3-2-0.8l-16-16c-0.6-0.6-1-1.3-1.4-2.3c-0.4-1-0.6-1.8-0.6-2.6v-9.3
	c0-0.8,0.3-1.4,0.9-2C4.6,8,5.2,7.7,6,7.7h9.3c0.8,0,1.7,0.2,2.6,0.6c1,0.4,1.7,0.9,2.3,1.4l16,16C36.8,26.3,37.1,27,37.1,27.8z
	 M45.7,27.8c0,0.8-0.3,1.5-0.8,2l-11,11c-0.6,0.6-1.3,0.8-2,0.8c-0.5,0-1-0.1-1.3-0.3s-0.7-0.5-1.2-1l10.5-10.5
	c0.6-0.6,0.8-1.2,0.8-2c0-0.8-0.3-1.5-0.8-2l-16-16c-0.6-0.6-1.3-1-2.3-1.4c-1-0.4-1.8-0.6-2.6-0.6h5c0.8,0,1.7,0.2,2.6,0.6
	s1.7,0.9,2.3,1.4l16,16C45.4,26.3,45.7,27,45.7,27.8z"/>
</svg>
