<?xml version="1.0" encoding="utf-8"?>
<!-- Generator: Adobe Illustrator 19.2.1, SVG Export Plug-In . SVG Version: 6.00 Build 0)  -->
<svg version="1.1" id="Ebene_1" xmlns="http://www.w3.org/2000/svg" xmlns:xlink="http://www.w3.org/1999/xlink" x="0px" y="0px"
	 viewBox="0 0 48 48" style="enable-background:new 0 0 48 48;" xml:space="preserve">
<style type="text/css">
	.st0{fill:#F44336;}
</style>
<path class="st0" d="M20.3,38.8c0,0.1,0,0.3,0,0.5c0,0.3,0,0.5,0,0.7c0,0.2,0,0.4-0.1,0.6c0,0.2-0.1,0.4-0.3,0.5s-0.3,0.2-0.6,0.2
	h-8.7c-2.2,0-4-0.8-5.5-2.3C3.8,37.5,3,35.7,3,33.5V14.5c0-2.2,0.8-4,2.3-5.5s3.4-2.3,5.5-2.3h8.7c0.2,0,0.4,0.1,0.6,0.3
	c0.2,0.2,0.3,0.4,0.3,0.6c0,0.1,0,0.3,0,0.5c0,0.3,0,0.5,0,0.7s0,0.4-0.1,0.6c0,0.2-0.1,0.4-0.3,0.5s-0.3,0.2-0.6,0.2h-8.7
	c-1.2,0-2.2,0.4-3.1,1.3c-0.8,0.8-1.3,1.9-1.3,3.1v19.1c0,1.2,0.4,2.2,1.3,3.1c0.8,0.8,1.9,1.3,3.1,1.3h8.5l0.3,0l0.3,0.1l0.2,0.1
	l0.2,0.2L20.3,38.8z M45.5,24c0,0.5-0.2,0.9-0.5,1.2L30.2,40c-0.3,0.3-0.8,0.5-1.2,0.5c-0.5,0-0.9-0.2-1.2-0.5
	c-0.3-0.3-0.5-0.8-0.5-1.2v-7.8H15.1c-0.5,0-0.9-0.2-1.2-0.5s-0.5-0.8-0.5-1.2V18.8c0-0.5,0.2-0.9,0.5-1.2s0.8-0.5,1.2-0.5h12.1V9.2
	c0-0.5,0.2-0.9,0.5-1.2c0.3-0.3,0.8-0.5,1.2-0.5c0.5,0,0.9,0.2,1.2,0.5L45,22.8C45.3,23.1,45.5,23.5,45.5,24z"/>
</svg>
