<?xml version="1.0" encoding="UTF-8" standalone="no"?><!DOCTYPE svg PUBLIC "-//W3C//DTD SVG 1.1//EN"
    "http://www.w3.org/Graphics/SVG/1.1/DTD/svg11.dtd">
<svg width="100%" height="100%" viewBox="0 0 48 48" version="1.1" xmlns="http://www.w3.org/2000/svg"  xml:space="preserve" style="fill-rule:evenodd;clip-rule:evenodd;stroke-linejoin:round;stroke-miterlimit:1.41421;"><path d="M24,37l-5,-6l0,-6l10,0l0,6l-5,6Z" style="fill:#b2b2b2;fill-rule:nonzero;"/><g><circle cx="33" cy="19" r="2" style="fill:#bcbcbc;"/><circle cx="15" cy="19" r="2" style="fill:#bcbcbc;"/></g><path d="M33,13c0,-7.6 -18,-5 -18,0c0,1.1 0,5.9 0,7c0,5 4,9 9,9c5,0 9,-4 9,-9c0,-1.1 0,-5.9 0,-7Z" style="fill:#c6c6c6;fill-rule:nonzero;"/><path d="M24,4c-6.1,0 -10,4.9 -10,11c0,0.8 0,2.3 0,2.3l2,1.7l0,-5l12,-4l4,4l0,5l2,-1.7c0,0 0,-1.5 0,-2.3c0,-4 -1,-8 -6,-9l-1,-2l-3,0Z" style="fill:#939393;fill-rule:nonzero;"/><g><circle cx="28" cy="19" r="1" style="fill:#535353;"/><circle cx="20" cy="19" r="1" style="fill:#535353;"/></g><path d="M29,31l-5,1l-5,-1c0,0 -11,2 -11,13l32,0c0,-11 -11,-13 -11,-13Z" style="fill:#d6d6d6;fill-rule:nonzero;"/><path d="M23,35l-1,9l4,0l-1,-9l1,-1l-2,-2l-2,2l1,1Z" style="fill:#585858;fill-rule:nonzero;"/></svg>
