<?xml version="1.0" encoding="utf-8"?>
<!-- Generator: Adobe Illustrator 19.2.1, SVG Export Plug-In . SVG Version: 6.00 Build 0)  -->
<svg version="1.1" id="Ebene_1" xmlns="http://www.w3.org/2000/svg" xmlns:xlink="http://www.w3.org/1999/xlink" x="0px" y="0px"
	 viewBox="0 0 48 48" style="enable-background:new 0 0 48 48;" xml:space="preserve">
<style type="text/css">
	.st0{fill:#00546B;}
</style>
<g id="g2191" transform="matrix(2.0645171,0,0,2.0645171,-422.69056,-168.66908)">
	<g id="g3027" transform="translate(0.33268332,-3.146593)">
		<path id="path16" class="st0" d="M224.8,102c-1.1,0-2,0.1-2.7,0.4c-0.2,0.1-0.5,0.1-0.6,0.4
			c0.1,0.1,0.1,0.3,0.2,0.4c0.2,0.3,0.5,0.7,0.7,0.9c0.3,0.2,0.6,0.4,0.9,0.6c0.5,0.3,1.2,0.5,1.7,0.9c0.3,0.2,0.6,0.4,0.9,0.7
			c0.2,0.1,0.3,0.3,0.4,0.4c0,0,0,0,0,0c-0.1-0.1-0.1-0.3-0.2-0.4c-0.1-0.1-0.3-0.3-0.4-0.4c-0.4-0.5-0.9-1-1.5-1.4
			c-0.4-0.3-1.4-0.7-1.6-1.2c0,0,0,0,0,0c0.3,0,0.7-0.1,1-0.2c0.5-0.1,0.9-0.1,1.4-0.2c0.2-0.1,0.4-0.1,0.7-0.2c0,0,0-0.1,0-0.1
			c-0.3-0.3-0.4-0.6-0.7-0.8c-0.7-0.6-1.5-1.2-2.3-1.7c-0.4-0.3-1-0.5-1.5-0.7c-0.2-0.1-0.4-0.1-0.5-0.3c-0.3-0.3-0.4-0.7-0.6-1.1
			c-0.4-0.8-0.8-1.6-1.1-2.4c-0.3-0.5-0.4-1.1-0.7-1.6c-1.4-2.4-3-3.8-5.4-5.2c-0.5-0.3-1.1-0.4-1.8-0.6c-0.4,0-0.7,0-1.1-0.1
			c-0.2-0.1-0.4-0.4-0.6-0.5c-0.8-0.5-2.9-1.6-3.4-0.2c-0.4,0.9,0.6,1.8,0.9,2.3c0.2,0.3,0.5,0.7,0.7,1.1c0.1,0.2,0.1,0.5,0.2,0.7
			c0.2,0.6,0.4,1.3,0.7,1.9c0.2,0.3,0.3,0.6,0.5,0.9c0.1,0.2,0.3,0.2,0.4,0.5c-0.2,0.3-0.2,0.7-0.3,1.1c-0.5,1.6-0.3,3.5,0.4,4.7
			c0.2,0.4,0.8,1.1,1.5,0.8c0.6-0.3,0.5-1.1,0.7-1.8c0-0.2,0-0.3,0.1-0.4c0,0,0,0,0,0c0.2,0.4,0.4,0.8,0.6,1.2
			c0.4,0.7,1.2,1.4,1.8,1.9c0.3,0.3,0.6,0.7,1,0.8c0,0,0,0,0,0c0,0,0,0,0,0c-0.1-0.1-0.2-0.2-0.3-0.3c-0.3-0.3-0.5-0.6-0.7-0.8
			c-0.6-0.8-1.1-1.7-1.6-2.5c-0.2-0.4-0.4-0.9-0.6-1.3c-0.1-0.2-0.1-0.4-0.2-0.5c-0.2,0.3-0.5,0.6-0.7,1c-0.3,0.6-0.3,1.3-0.4,2.1
			c-0.1,0,0,0-0.1,0c-0.4-0.1-0.6-0.6-0.8-1c-0.4-1-0.5-2.6-0.1-3.7c0.1-0.3,0.5-1.2,0.4-1.5c-0.1-0.3-0.4-0.4-0.5-0.6
			c-0.2-0.3-0.4-0.6-0.5-0.9c-0.3-0.8-0.5-1.7-0.9-2.4c-0.2-0.4-0.5-0.7-0.7-1.1c-0.3-0.4-0.6-0.6-0.8-1.1c-0.1-0.2-0.2-0.4-0.1-0.6
			c0-0.1,0.1-0.2,0.2-0.2c0.2-0.2,0.7,0,0.9,0.1c0.5,0.2,1,0.4,1.4,0.7c0.2,0.1,0.4,0.4,0.7,0.5c0.1,0,0.2,0,0.3,0
			c0.4,0.1,1,0,1.4,0.2c0.7,0.2,1.4,0.6,2,1c1.8,1.2,3.3,2.8,4.4,4.8c0.2,0.3,0.2,0.6,0.4,1c0.3,0.7,0.7,1.4,1,2.1
			c0.3,0.7,0.6,1.3,1,1.9c0.2,0.3,1.1,0.4,1.4,0.6c0.3,0.1,0.7,0.2,1,0.4c0.5,0.3,1,0.6,1.4,1C224,101.4,224.7,101.7,224.8,102
			L224.8,102L224.8,102z"/>
		<path id="path18" class="st0" d="M210.5,89.8c-0.2,0-0.4,0-0.6,0.1c0,0,0,0,0,0c0,0,0,0,0,0
			c0.1,0.2,0.3,0.4,0.4,0.6c0.1,0.2,0.2,0.4,0.3,0.7c0,0,0,0,0,0c0.2-0.1,0.3-0.4,0.3-0.7c-0.1-0.1-0.1-0.2-0.2-0.3
			C210.8,90,210.6,89.9,210.5,89.8L210.5,89.8z"/>
	</g>
</g>
</svg>
