<?xml version="1.0" encoding="utf-8"?>
<!-- Generator: Adobe Illustrator 19.2.1, SVG Export Plug-In . SVG Version: 6.00 Build 0)  -->
<svg version="1.1" id="Ebene_1" xmlns="http://www.w3.org/2000/svg" xmlns:xlink="http://www.w3.org/1999/xlink" x="0px" y="0px"
	 viewBox="0 0 48 48" style="enable-background:new 0 0 48 48;" xml:space="preserve">
<style type="text/css">
	.st0{fill:#FF9800;}
	.st1{fill:#8A5100;}
	.st2{fill:#455A64;}
	.st3{fill:#FFFFFF;}
	.st4{fill:#90A4AE;}
</style>
<path class="st0" d="M38,42H10c-2.2,0-4-1.8-4-4V10c0-2.2,1.8-4,4-4h28c2.2,0,4,1.8,4,4v28C42,40.2,40.2,42,38,42z"/>
<path class="st1" d="M29.5,16h-11c-0.8,0-1.5-0.7-1.5-1.5l0,0c0-0.8,0.7-1.5,1.5-1.5h11c0.8,0,1.5,0.7,1.5,1.5l0,0
	C31,15.3,30.3,16,29.5,16z"/>
<path class="st2" d="M42.7,23.8h-5.3c0,0.6-0.5,1.1-1.1,1.1c-0.6,0-1.1-0.5-1.1-1.1h-5.3c-1.2,0-2.1,1-2.1,2.1v17
	c0,1.2,1,2.1,2.1,2.1h12.8c1.2,0,2.1-1,2.1-2.1V26C44.8,24.8,43.8,23.8,42.7,23.8z"/>
<path class="st3" d="M42.7,43.5H29.9c-0.3,0-0.5-0.2-0.5-0.5V26c0-0.3,0.2-0.5,0.5-0.5h12.8c0.3,0,0.5,0.2,0.5,0.5v17
	C43.2,43.3,43,43.5,42.7,43.5z"/>
<g>
	<path class="st4" d="M37.3,23.8c0,0.6-0.5,1.1-1.1,1.1c-0.6,0-1.1-0.5-1.1-1.1h-3.7V26c0,0.6,0.5,1.1,1.1,1.1H40
		c0.6,0,1.1-0.5,1.1-1.1v-2.1H37.3z"/>
	<path class="st4" d="M36.3,21.7c-1.2,0-2.1,1-2.1,2.1c0,1.2,1,2.1,2.1,2.1c1.2,0,2.1-1,2.1-2.1C38.4,22.7,37.4,21.7,36.3,21.7z
		 M36.3,24.9c-0.6,0-1.1-0.5-1.1-1.1s0.5-1.1,1.1-1.1c0.6,0,1.1,0.5,1.1,1.1S36.9,24.9,36.3,24.9z"/>
</g>
</svg>
