<?xml version="1.0" encoding="utf-8"?>
<!-- Generator: Adobe Illustrator 19.2.1, SVG Export Plug-In . SVG Version: 6.00 Build 0)  -->
<svg version="1.1" id="Ebene_1" xmlns="http://www.w3.org/2000/svg" xmlns:xlink="http://www.w3.org/1999/xlink" x="0px" y="0px"
	 viewBox="0 0 48 48" style="enable-background:new 0 0 48 48;" xml:space="preserve">
<style type="text/css">
	.st0{fill:#FFFFFF;}
	.st1{fill:#F94646;}
</style>
<g>
	<path class="st0" d="M8,41.7c-1.1,0-2-1.3-2-2.7V8.1c0-1.5,0.9-2.7,2-2.7h32c1.1,0,2,1.3,2,2.7v30.8c0,1.5-0.9,2.7-2,2.7H8z"/>
	<path class="st1" d="M39.8,7.3C39.9,7.4,40,7.7,40,8.1v30.8c0,0.4-0.1,0.6-0.2,0.7H8.2C8.1,39.6,8,39.3,8,38.9V8.1
		c0-0.4,0.1-0.6,0.2-0.7H39.8 M40,3.3H8c-2.2,0-4,2.1-4,4.7v30.8c0,2.6,1.8,4.7,4,4.7h32c2.2,0,4-2.1,4-4.7V8.1
		C44,5.5,42.2,3.3,40,3.3L40,3.3z"/>
</g>
<g>
	<g>
		<path class="st1" d="M14.1,35.4c-1.2,0-2-0.9-2.3-1.4c-0.3-0.5-0.9-2.1,1-4.1c0.8-0.8,2.3-2.3,6.1-3.7c0.5-1,1-2.1,1.5-3.3
			c0.6-1.3,1.1-2.4,1.5-3.4c-1.5-2.5-1.8-4.3-1.8-6.4c0.1-2.4,1.7-3.3,2.7-3.3c0.7,0,2.6,0.7,2.7,3.8c0.1,1.2-0.1,2.7-1.2,5.7
			c0.8,1.1,1.8,2.4,3.1,3.9c0.4,0.5,0.9,0.9,1.2,1.3c4.1-0.1,6.1,0.7,6.9,1.2c1.7,1,1.5,2.7,1.2,3.4c-0.2,0.6-1,1.6-2.7,1.6
			c-0.4,0-0.8-0.1-1.2-0.1c-1.3-0.4-2.3-0.9-5.1-3.9c-1.3,0.1-2.7,0.3-4.2,0.6c-1.2,0.2-2.3,0.5-3.2,0.8c-3.1,6.2-4.7,6.9-5.2,7.1
			C14.9,35.4,14.5,35.4,14.1,35.4z M17.4,29.4c-1.6,0.8-2.4,1.6-2.9,2.1c-0.9,0.9-0.7,1.4-0.7,1.4l0.1,0.2c0,0,0.1,0.1,0.2,0.1
			c0.1,0,0.1,0,0.3-0.1C14.6,33.1,15.5,32.7,17.4,29.4z M30.9,26.7c1.5,1.4,2,1.6,2.6,1.8c0.2,0.1,0.4,0.1,0.7,0.1
			c0.5,0,0.7-0.2,0.7-0.2c0.1-0.3,0-0.6-0.4-0.8C34.3,27.3,33.3,26.8,30.9,26.7z M22,25.4l-0.1,0.1c0.5-0.1,0.9-0.2,1.5-0.3
			c0.9-0.1,1.8-0.4,2.7-0.4L26,24.7l0,0l0,0c-0.9-1-1.8-2-2.5-2.9l-0.1,0.1v-0.1c-0.3,0.7-0.6,1.3-0.9,2.1
			C22.3,24.4,22.1,24.9,22,25.4L22,25.4z M22.9,12.1c-0.3,0.1-0.4,0.5-0.4,1.1c0,1.1,0,2.2,0.6,3.6c0.5-1.6,0.5-2.4,0.5-3
			C23.5,12.6,23.1,12.2,22.9,12.1z"/>
	</g>
</g>
</svg>
