<?xml version="1.0" encoding="utf-8"?>
<!-- Generator: Adobe Illustrator 19.2.1, SVG Export Plug-In . SVG Version: 6.00 Build 0)  -->
<svg version="1.1" id="Ebene_1" xmlns="http://www.w3.org/2000/svg" xmlns:xlink="http://www.w3.org/1999/xlink" x="0px" y="0px"
	 viewBox="0 0 48 48" style="enable-background:new 0 0 48 48;" xml:space="preserve">
<style type="text/css">
	.st0{fill:#E65100;}
</style>
<path class="st0" d="M37.3,34.3c0-0.9-0.3-1.7-1-2.3c-0.7-0.7-1.4-1-2.3-1s-1.7,0.3-2.3,1c-0.7,0.7-1,1.4-1,2.3s0.3,1.7,1,2.3
	s1.4,1,2.3,1s1.7-0.3,2.3-1S37.3,35.2,37.3,34.3z M17.4,14.5c0-0.9-0.3-1.7-1-2.3c-0.7-0.7-1.4-1-2.3-1c-0.9,0-1.7,0.3-2.3,1
	c-0.7,0.7-1,1.4-1,2.3c0,0.9,0.3,1.7,1,2.3c0.7,0.7,1.4,1,2.3,1c0.9,0,1.7-0.3,2.3-1C17.1,16.2,17.4,15.4,17.4,14.5z M43.9,34.3
	c0,2.7-1,5.1-2.9,7c-1.9,1.9-4.3,2.9-7,2.9s-5.1-1-7-2.9c-1.9-1.9-2.9-4.3-2.9-7c0-2.7,1-5.1,2.9-7s4.3-2.9,7-2.9s5.1,1,7,2.9
	C42.9,29.3,43.9,31.6,43.9,34.3z M41.4,6.2c0,0.3-0.1,0.7-0.3,1L13.8,43.6c-0.3,0.4-0.8,0.7-1.3,0.7H8.3c-0.4,0-0.8-0.2-1.2-0.5
	c-0.3-0.3-0.5-0.7-0.5-1.2c0-0.3,0.1-0.7,0.3-1L34.3,5.2c0.3-0.4,0.8-0.7,1.3-0.7h4.1c0.4,0,0.8,0.2,1.2,0.5
	C41.2,5.4,41.4,5.8,41.4,6.2z M24,14.5c0,2.7-1,5.1-2.9,7s-4.3,2.9-7,2.9s-5.1-1-7-2.9s-2.9-4.3-2.9-7s1-5.1,2.9-7s4.3-2.9,7-2.9
	s5.1,1,7,2.9S24,11.8,24,14.5z"/>
</svg>
