<?xml version="1.0" encoding="utf-8"?>
<!-- Generator: Adobe Illustrator 21.1.0, SVG Export Plug-In . SVG Version: 6.00 Build 0)  -->
<svg version="1.1" id="Ebene_1" xmlns="http://www.w3.org/2000/svg" xmlns:xlink="http://www.w3.org/1999/xlink" x="0px" y="0px"
	 viewBox="0 0 48 48" style="enable-background:new 0 0 48 48;" xml:space="preserve">
<style type="text/css">
	.st0{fill:#6428B4;}
</style>
<path class="st0" d="M37.4,29.2c-2,0-3.8-1-4.8-2.6l-2.1-3.2l2.1-3.2c1-1.5,2.8-2.6,4.8-2.6c3.2,0,5.8,2.6,5.8,5.8
	S40.6,29.2,37.4,29.2 M37.4,13.8c-3.3,0-6.3,1.7-8,4.3l-7,10.6c-1.7,2.6-4.7,4.3-8,4.3c-5.3,0-9.6-4.3-9.6-9.6s4.3-9.6,9.6-9.6
	c3.3,0,6.2,1.7,7.9,4.2l1.3,1.9l2.3-3.5L25.6,16c-2.4-3.6-6.5-6-11.2-6C7,10,1,16,1,23.4c0,7.4,6,13.4,13.4,13.4
	c4.7,0,8.8-2.4,11.2-6l2.6-3.9l1.2,1.8c1.7,2.6,4.7,4.3,8,4.3c5.3,0,9.6-4.3,9.6-9.6C47,18.1,42.7,13.8,37.4,13.8"/>
</svg>
