<?xml version="1.0" encoding="utf-8"?>
<!-- Generator: Adobe Illustrator 19.2.1, SVG Export Plug-In . SVG Version: 6.00 Build 0)  -->
<svg version="1.1" id="Ebene_1" xmlns="http://www.w3.org/2000/svg" xmlns:xlink="http://www.w3.org/1999/xlink" x="0px" y="0px"
	 viewBox="0 0 48 48" style="enable-background:new 0 0 48 48;" xml:space="preserve">
<style type="text/css">
	.st0{fill:#43A047;}
</style>
<path class="st0" d="M35.6,24.7v-3.3c0-0.4-0.2-0.8-0.5-1.2s-0.7-0.5-1.2-0.5h-6.6v-6.6c0-0.4-0.2-0.8-0.5-1.2
	c-0.3-0.3-0.7-0.5-1.2-0.5h-3.3c-0.4,0-0.8,0.2-1.2,0.5c-0.3,0.3-0.5,0.7-0.5,1.2v6.6h-6.6c-0.4,0-0.8,0.2-1.2,0.5
	c-0.3,0.3-0.5,0.7-0.5,1.2v3.3c0,0.4,0.2,0.8,0.5,1.2c0.3,0.3,0.7,0.5,1.2,0.5h6.6v6.6c0,0.4,0.2,0.8,0.5,1.2s0.7,0.5,1.2,0.5h3.3
	c0.4,0,0.8-0.2,1.2-0.5s0.5-0.7,0.5-1.2v-6.6h6.6c0.4,0,0.8-0.2,1.2-0.5C35.4,25.5,35.6,25.1,35.6,24.7z M43.8,23
	c0,3.6-0.9,6.9-2.7,10c-1.8,3-4.2,5.4-7.2,7.2c-3,1.8-6.4,2.7-10,2.7s-6.9-0.9-10-2.7C11,38.4,8.6,36,6.8,33s-2.7-6.4-2.7-10
	S5,16.1,6.8,13S11,7.6,14,5.8s6.4-2.7,10-2.7S30.9,4,34,5.8s5.4,4.2,7.2,7.2C43,16.1,43.8,19.4,43.8,23z"/>
</svg>
