<?xml version="1.0" encoding="utf-8"?>
<!-- Generator: Adobe Illustrator 19.2.1, SVG Export Plug-In . SVG Version: 6.00 Build 0)  -->
<svg version="1.1" id="Ebene_1" xmlns="http://www.w3.org/2000/svg" xmlns:xlink="http://www.w3.org/1999/xlink" x="0px" y="0px"
	 viewBox="0 0 48 48" style="enable-background:new 0 0 48 48;" xml:space="preserve">
<style type="text/css">
	.st0{fill:#4CAF50;}
	.st1{fill:#CCFF90;}
</style>
<polygon class="st0" points="24,3 28.7,6.6 34.5,5.8 36.7,11.3 42.2,13.5 41.4,19.3 45,24 41.4,28.7 42.2,34.5 36.7,36.7 34.5,42.2 
	28.7,41.4 24,45 19.3,41.4 13.5,42.2 11.3,36.7 5.8,34.5 6.6,28.7 3,24 6.6,19.3 5.8,13.5 11.3,11.3 13.5,5.8 19.3,6.6 "/>
<polygon class="st1" points="34.6,14.6 21,28.2 15.4,22.6 12.6,25.4 21,33.8 37.4,17.4 "/>
</svg>
