<?xml version="1.0" encoding="utf-8"?>
<!-- Generator: Adobe Illustrator 19.2.1, SVG Export Plug-In . SVG Version: 6.00 Build 0)  -->
<svg version="1.1" id="Ebene_1" xmlns="http://www.w3.org/2000/svg" xmlns:xlink="http://www.w3.org/1999/xlink" x="0px" y="0px"
	 viewBox="0 0 48 48" style="enable-background:new 0 0 48 48;" xml:space="preserve">
<style type="text/css">
	.st0{fill:#37474F;}
</style>
<path class="st0" d="M23,21.6c0-0.4,0.1-0.7,0.4-1s0.6-0.4,1-0.4c0.4,0,0.7,0.1,1,0.4s0.4,0.6,0.4,1c0,0.4-0.1,0.7-0.4,1
	s-0.6,0.4-1,0.4c-0.4,0-0.7-0.1-1-0.4S23,22,23,21.6z M24.5,14.9l8.8-11.2c0.3-0.4,0.7-0.6,1.2-0.6c0.5,0.1,0.9,0.3,1.1,0.8l1.4,2.8
	c0.1,0.2,0.2,0.4,0.2,0.6c0,0.3-0.1,0.5-0.2,0.7l-8.6,15.3l1.5,2.4C30,25.9,30,26,30,26.1c0.7-0.2,1.4-0.3,2.1-0.2
	c1.1,0.1,2.2,0.5,3.3,1.2c1,0.7,2,1.7,2.7,2.9c1.2,1.9,1.9,4,1.9,6.1c0,2-0.6,3.6-1.7,4.9c-1.2,1.3-2.8,1.9-4.6,1.7
	c-1.1-0.1-2.2-0.5-3.3-1.2c-1-0.7-2-1.7-2.7-2.9c-1.2-1.9-1.9-4-1.9-6.2c0-1.2,0.2-2.3,0.7-3.3c-0.2-0.1-0.4-0.3-0.5-0.5L24.5,26
	l-1.6,2.7c-0.1,0.2-0.3,0.4-0.5,0.5c0.5,1,0.7,2.1,0.7,3.3c0,2.2-0.6,4.2-1.9,6.2c-0.8,1.2-1.7,2.2-2.7,2.9s-2.1,1.1-3.3,1.2
	c-0.9,0.1-1.7,0-2.5-0.3c-0.8-0.3-1.5-0.8-2.1-1.4c-1.2-1.3-1.7-2.9-1.7-4.9c0-2.1,0.6-4.2,1.9-6.1c0.8-1.2,1.7-2.2,2.7-2.9
	s2.1-1.1,3.3-1.2c0.7-0.1,1.4,0,2.1,0.2c0-0.1,0.1-0.1,0.1-0.3l1.5-2.4L11.9,8.1c-0.1-0.2-0.2-0.4-0.2-0.7c0-0.2,0.1-0.5,0.2-0.6
	l1.4-2.8c0.2-0.4,0.6-0.7,1.1-0.8c0.5,0,0.9,0.1,1.2,0.6L24.5,14.9z M18.7,30c-0.6-0.7-1.4-0.8-2.4-0.5s-1.8,1.2-2.6,2.3
	c-0.9,1.4-1.3,2.8-1.3,4.3c0,1.1,0.3,1.9,0.8,2.5c0.6,0.7,1.4,0.8,2.4,0.5c1-0.4,1.8-1.2,2.6-2.3c0.9-1.4,1.3-2.8,1.3-4.3
	C19.5,31.4,19.2,30.6,18.7,30z M35.2,31.9c-0.8-1.2-1.6-2-2.6-2.3c-1-0.4-1.8-0.2-2.4,0.5c-0.5,0.6-0.8,1.4-0.8,2.5
	c0,1.5,0.4,2.9,1.3,4.3c0.8,1.2,1.6,2,2.6,2.3c1,0.4,1.8,0.2,2.4-0.5c0.5-0.6,0.8-1.4,0.8-2.5C36.5,34.7,36.1,33.3,35.2,31.9z
	 M21.6,28l1.3-2.1h-0.2c-0.5,0-0.9-0.2-1.2-0.7l-0.2-0.3l-1,1.7l0.6,0.6c0,0,0.1,0.1,0.2,0.2c0.1,0.1,0.2,0.2,0.3,0.3
	c0,0,0.1,0.1,0.1,0.1c0,0,0,0.1,0.1,0.1L21.6,28z M26.6,23l0.7-2.1L14.5,4.6l-1.4,2.8l9.5,17h2.5l2.1,3.5l0.2-0.2
	c0,0,0.1-0.1,0.1-0.2c0.1-0.1,0.1-0.1,0.3-0.2c0.1-0.1,0.2-0.2,0.3-0.2l0.6-0.6L26.6,23z M35.8,7.4l-1.4-2.8l-9,11.5l3.1,3.9
	c0,0,0.1,0.1,0.2,0.3L35.8,7.4z"/>
</svg>
