<?xml version="1.0" encoding="utf-8"?>
<!-- Generator: Adobe Illustrator 19.2.1, SVG Export Plug-In . SVG Version: 6.00 Build 0)  -->
<svg version="1.1" id="Ebene_1" xmlns="http://www.w3.org/2000/svg" xmlns:xlink="http://www.w3.org/1999/xlink" x="0px" y="0px"
	 viewBox="0 0 48 48" style="enable-background:new 0 0 48 48;" xml:space="preserve">
<style type="text/css">
	.st0{fill:#F44336;}
</style>
<path class="st0" d="M32.3,31.4V16.6c0-0.2-0.1-0.4-0.2-0.6c-0.2-0.2-0.4-0.2-0.6-0.2H16.6c-0.2,0-0.4,0.1-0.6,0.2
	c-0.2,0.2-0.2,0.4-0.2,0.6v14.9c0,0.2,0.1,0.4,0.2,0.6c0.2,0.2,0.4,0.2,0.6,0.2h14.9c0.2,0,0.4-0.1,0.6-0.2
	C32.2,31.9,32.3,31.7,32.3,31.4z M43.9,24c0,3.6-0.9,6.9-2.7,10s-4.2,5.4-7.2,7.2c-3,1.8-6.4,2.7-10,2.7c-3.6,0-6.9-0.9-10-2.7
	C11,39.4,8.6,37,6.9,34s-2.7-6.4-2.7-10s0.9-6.9,2.7-10s4.2-5.4,7.2-7.2s6.4-2.7,10-2.7c3.6,0,6.9,0.9,10,2.7s5.4,4.2,7.2,7.2
	S43.9,20.4,43.9,24z"/>
</svg>
