<?xml version="1.0" encoding="utf-8"?>
<!-- Generator: Adobe Illustrator 19.2.1, SVG Export Plug-In . SVG Version: 6.00 Build 0)  -->
<svg version="1.1" id="Ebene_1" xmlns="http://www.w3.org/2000/svg" xmlns:xlink="http://www.w3.org/1999/xlink" x="0px" y="0px"
	 viewBox="0 0 48 48" style="enable-background:new 0 0 48 48;" xml:space="preserve">
<style type="text/css">
	.st0{fill:#AD1356;}
</style>
<path class="st0" d="M12.7,28.3c0-0.8-0.3-1.5-0.8-2c-0.6-0.6-1.2-0.8-2-0.8s-1.5,0.3-2,0.8c-0.6,0.6-0.8,1.2-0.8,2
	c0,0.8,0.3,1.5,0.8,2c0.6,0.6,1.2,0.8,2,0.8s1.5-0.3,2-0.8C12.4,29.7,12.7,29,12.7,28.3z M16.9,18.3c0-0.8-0.3-1.5-0.8-2
	c-0.6-0.6-1.2-0.8-2-0.8s-1.5,0.3-2,0.8c-0.6,0.6-0.8,1.2-0.8,2s0.3,1.5,0.8,2c0.6,0.6,1.2,0.8,2,0.8s1.5-0.3,2-0.8
	C16.6,19.8,16.9,19.1,16.9,18.3z M26.4,29l2.2-8.5c0.1-0.4,0-0.7-0.2-1.1c-0.2-0.3-0.5-0.5-0.9-0.7c-0.4-0.1-0.7-0.1-1.1,0.1
	c-0.3,0.2-0.6,0.5-0.7,0.9l-2.2,8.5c-0.9,0.1-1.7,0.4-2.4,1s-1.2,1.3-1.4,2.2c-0.3,1.1-0.1,2.2,0.4,3.2c0.6,1,1.5,1.7,2.6,2
	s2.2,0.1,3.2-0.4c1-0.6,1.7-1.5,2-2.6c0.2-0.9,0.2-1.7-0.1-2.6C27.7,30.2,27.1,29.5,26.4,29z M41,28.3c0-0.8-0.3-1.5-0.8-2
	c-0.6-0.6-1.2-0.8-2-0.8s-1.5,0.3-2,0.8c-0.6,0.6-0.8,1.2-0.8,2c0,0.8,0.3,1.5,0.8,2c0.6,0.6,1.2,0.8,2,0.8s1.5-0.3,2-0.8
	C40.7,29.7,41,29,41,28.3z M26.8,14.1c0-0.8-0.3-1.5-0.8-2c-0.6-0.6-1.2-0.8-2-0.8s-1.5,0.3-2,0.8c-0.6,0.6-0.8,1.2-0.8,2
	c0,0.8,0.3,1.5,0.8,2c0.6,0.6,1.2,0.8,2,0.8s1.5-0.3,2-0.8C26.6,15.5,26.8,14.9,26.8,14.1z M36.8,18.3c0-0.8-0.3-1.5-0.8-2
	c-0.6-0.6-1.2-0.8-2-0.8c-0.8,0-1.5,0.3-2,0.8c-0.6,0.6-0.8,1.2-0.8,2s0.3,1.5,0.8,2c0.6,0.6,1.2,0.8,2,0.8c0.8,0,1.5-0.3,2-0.8
	S36.8,19.1,36.8,18.3z M43.8,28.3c0,3.9-1,7.4-3.1,10.7c-0.3,0.4-0.7,0.6-1.2,0.6h-31c-0.5,0-0.9-0.2-1.2-0.6
	c-2.1-3.3-3.1-6.8-3.1-10.7c0-2.7,0.5-5.3,1.6-7.7S8.2,16,10,14.2s3.9-3.2,6.3-4.2s5-1.6,7.7-1.6s5.3,0.5,7.7,1.6s4.6,2.5,6.3,4.2
	c1.8,1.8,3.2,3.9,4.2,6.3S43.8,25.6,43.8,28.3z"/>
</svg>
