<?xml version="1.0" encoding="utf-8"?>
<!-- Generator: Adobe Illustrator 19.2.1, SVG Export Plug-In . SVG Version: 6.00 Build 0)  -->
<svg version="1.1" id="Ebene_1" xmlns="http://www.w3.org/2000/svg" xmlns:xlink="http://www.w3.org/1999/xlink" x="0px" y="0px"
	 viewBox="0 0 48 48" style="enable-background:new 0 0 48 48;" xml:space="preserve">
<style type="text/css">
	.st0{fill:#5CC9EA;}
</style>
<path class="st0" d="M44.7,11L36,19.6c0,0-2.6,0-5.2-2.6s-2.6-5.2-2.6-5.2l8.7-8.7c-4.9-1.2-10.8,0.4-14.4,4
	c-5.4,5.4-0.6,12.3-2,13.7C12.9,28.7,5.1,34.7,4.9,35c-2.3,2.3-2.4,6-0.2,8.2s5.9,2.1,8.2-0.2c0.3-0.3,6.7-8.4,14.2-15.9
	c1.4-1.4,8,3.7,13.6-1.8C44.2,21.7,45.9,15.9,44.7,11z M9.4,41.1c-1.4,0-2.5-1.1-2.5-2.5C6.9,37.1,8,36,9.4,36s2.5,1.1,2.5,2.5
	S10.8,41.1,9.4,41.1z"/>
</svg>
