<?xml version="1.0" encoding="UTF-8" standalone="no"?><!DOCTYPE svg PUBLIC "-//W3C//DTD SVG 1.1//EN" "http://www.w3.org/Graphics/SVG/1.1/DTD/svg11.dtd"><svg width="100%" height="100%" viewBox="0 0 48 48" version="1.1" xmlns="http://www.w3.org/2000/svg" xmlns:xlink="http://www.w3.org/1999/xlink" xml:space="preserve" xmlns:serif="http://www.serif.com/" style="fill-rule:evenodd;clip-rule:evenodd;stroke-linecap:round;stroke-linejoin:round;stroke-miterlimit:1.5;"><g><circle cx="10" cy="26" r="4" style="fill:#ffa726;"/><circle cx="38" cy="26" r="4" style="fill:#ffa726;"/></g><path d="M39,19c0,-12.7 -30,-8.3 -30,0c0,1.8 0,8.2 0,10c0,8.3 6.7,15 15,15c8.3,0 15,-6.7 15,-15c0,-1.8 0,-8.2 0,-10Z" style="fill:#ffb74d;fill-rule:nonzero;"/><path d="M24,3c-9.4,0 -17,7.6 -17,17c0,1.2 0,3.4 0,3.4l2,1.6l0,-3l21,-9.8l9,9.8l0,3l2,-1.6c0,0 0,-2.1 0,-3.4c0,-8 -5.7,-17 -17,-17Z" style="fill:#ff5722;fill-rule:nonzero;"/><g><path d="M18.068,36c0,2.16 2.651,3.914 5.917,3.914c3.265,0 5.916,-1.754 5.916,-3.914c-1.38,0.648 -3.556,1.174 -5.916,1.174c-2.36,0 -4.536,-0.526 -5.917,-1.174Z" style="fill:#37474f;"/><path d="M40.779,19.949c0,-1.833 -1.489,-3.322 -3.323,-3.322l-26.245,0c-1.834,0 -3.322,1.489 -3.322,3.322l0,6.645c0,1.834 1.488,3.323 3.322,3.323c0,0 6.624,0.546 8.822,0c1.403,-0.349 3.019,-3.692 4.361,-3.702c1.343,-0.01 2.32,3.296 3.695,3.641c2.177,0.546 9.367,0.061 9.367,0.061c1.834,0 3.323,-1.489 3.323,-3.323l0,-6.645Z" style="fill:#37474f;"/><path d="M8.1,21.542c0,-0.368 -0.299,-0.667 -0.668,-0.667l-1.335,0c-0.368,0 -0.667,0.299 -0.667,0.667l0,4.066c0,0.368 0.299,0.668 0.667,0.668l1.335,0c0.369,0 0.668,-0.3 0.668,-0.668l0,-4.066Z" style="fill:#37474f;"/><path d="M43.053,21.36c0,-0.368 -0.299,-0.667 -0.667,-0.667l-1.335,0c-0.369,0 -0.668,0.299 -0.668,0.667l0,4.066c0,0.368 0.299,0.668 0.668,0.668l1.335,0c0.368,0 0.667,-0.3 0.667,-0.668l0,-4.066Z" style="fill:#37474f;"/><path d="M10.284,28.035c0.182,-6.857 -0.606,-9.83 8.375,-9.223" style="fill:none;stroke:#057;stroke-width:0.75px;"/><path d="M37.927,28.096c-0.182,-6.857 0.607,-9.831 -8.375,-9.224" style="fill:none;stroke:#057;stroke-width:0.75px;"/></g></svg>