<?xml version="1.0" encoding="utf-8"?>
<!-- Generator: Adobe Illustrator 20.0.0, SVG Export Plug-In . SVG Version: 6.00 Build 0)  -->
<svg version="1.1" id="Ebene_1" xmlns="http://www.w3.org/2000/svg" xmlns:xlink="http://www.w3.org/1999/xlink" x="0px" y="0px"
	 viewBox="0 0 48 48" style="enable-background:new 0 0 48 48;" xml:space="preserve">
<style type="text/css">
	.st0{fill:#FFC107;}
	.st1{fill:#263238;}
</style>
<path class="st0" d="M1.8,38.5L21.7,5.1c1.1-1.8,3.7-1.8,4.7,0l19.9,33.4c1.1,1.8-0.3,4.2-2.4,4.2H4.2C2.1,42.6,0.7,40.3,1.8,38.5z"
	/>
<path class="st1" d="M21.9,35.6c0-0.3,0-0.6,0.1-0.8c0.1-0.3,0.3-0.4,0.4-0.7c0.1-0.3,0.4-0.3,0.7-0.4c0.3-0.1,0.6-0.1,0.8-0.1
	s0.7,0,1,0.1c0.3,0.1,0.6,0.3,0.7,0.4c0.1,0.1,0.3,0.4,0.4,0.7c0.1,0.3,0.1,0.6,0.1,0.8s0,0.6-0.1,0.8c-0.1,0.3-0.3,0.4-0.4,0.7
	c-0.1,0.3-0.4,0.3-0.7,0.4c-0.3,0.1-0.6,0.1-1,0.1s-0.7,0-0.8-0.1c-0.1-0.1-0.6-0.3-0.7-0.4c-0.1-0.1-0.3-0.4-0.4-0.7
	C21.9,36.1,21.9,35.9,21.9,35.6z M25.8,31.3h-3.2L22,17.7h4.2L25.8,31.3z"/>
</svg>
