<?xml version="1.0" encoding="utf-8"?>
<!-- Generator: Adobe Illustrator 21.1.0, SVG Export Plug-In . SVG Version: 6.00 Build 0)  -->
<svg version="1.1" id="Ebene_1" xmlns="http://www.w3.org/2000/svg" xmlns:xlink="http://www.w3.org/1999/xlink" x="0px" y="0px"
	 viewBox="0 0 150 150" style="enable-background:new 0 0 150 150; background-color:#EDF2F4;" xml:space="preserve">
<style type="text/css">
	.st0{fill:#8CBCD6;}
	.st1{fill:#FFFFFF;}
	.st2{fill:#E1F5FE;}
	.st3{fill:#78909C;}
</style>
<path class="st0" d="M91,95.2H59c-2.2,0-4-2.1-4-4.7V59.5c0-2.6,1.8-4.7,4-4.7h32c2.2,0,4,2.1,4,4.7v30.8C95,92.9,93.2,95.2,91,95.2
	z"/>
<circle class="st1" cx="86" cy="67.4" r="3"/>
<polygon class="st2" points="71,67.4 60,83.4 82,83.4 "/>
<polygon class="st1" points="82,73.4 74,83.4 90,83.4 "/>
<circle class="st3" cx="92" cy="92.4" r="7"/>
<g>
	<rect x="91" y="88.3" transform="matrix(0.7071 -0.7071 0.7071 0.7071 -38.4242 92.1358)" class="st1" width="2.1" height="8.4"/>
	
		<rect x="87.8" y="91.4" transform="matrix(0.7071 -0.7071 0.7071 0.7071 -38.4298 92.1334)" class="st1" width="8.4" height="2.1"/>
</g>
</svg>
