<?xml version="1.0" encoding="utf-8"?>
<!-- Generator: Adobe Illustrator 21.1.0, SVG Export Plug-In . SVG Version: 6.00 Build 0)  -->
<svg version="1.1" id="Ebene_1" xmlns="http://www.w3.org/2000/svg" xmlns:xlink="http://www.w3.org/1999/xlink" x="0px" y="0px"
	 viewBox="0 0 48 48" style="enable-background:new 0 0 48 48;" xml:space="preserve">
<style type="text/css">
	.st0{fill:#FFFFFF;}
</style>
<path class="st0" d="M24,4C13,4,4,13,4,24c0,8.8,5.7,16.3,13.7,19c1,0.2,1.4-0.4,1.4-1c0-0.5,0-2.1,0-3.7c-5.6,1.2-6.7-2.4-6.7-2.4
	c-0.9-2.3-2.2-2.9-2.2-2.9c-1.8-1.2,0.1-1.2,0.1-1.2c2,0.1,3.1,2.1,3.1,2.1c1.8,3.1,4.7,2.2,5.8,1.7c0.2-1.3,0.7-2.2,1.3-2.7
	c-4.4-0.5-9.1-2.2-9.1-9.9c0-2.2,0.8-4,2.1-5.4c-0.2-0.5-0.9-2.5,0.2-5.3c0,0,1.7-0.5,5.5,2.1c1.6-0.4,3.3-0.7,5-0.7
	c1.7,0,3.4,0.2,5,0.7c3.8-2.6,5.5-2.1,5.5-2.1c1.1,2.8,0.4,4.8,0.2,5.3c1.3,1.4,2.1,3.2,2.1,5.4c0,7.7-4.7,9.4-9.1,9.9
	c0.7,0.6,1.4,1.8,1.4,3.7c0,2.7,0,4.8,0,5.5c0,0.5,0.4,1.2,1.4,1C38.3,40.3,44,32.8,44,24C44,13,35,4,24,4z"/>
</svg>
