<?xml version="1.0" encoding="utf-8"?>
<!-- Generator: Adobe Illustrator 21.1.0, SVG Export Plug-In . SVG Version: 6.00 Build 0)  -->
<svg version="1.1" id="pimcore_big_p" xmlns="http://www.w3.org/2000/svg" xmlns:xlink="http://www.w3.org/1999/xlink" x="0px"
	 y="0px" viewBox="0 0 660 116.1" style="enable-background:new 0 0 660 116.1;" xml:space="preserve">
<style type="text/css">
	.st0{fill:#ffffff;}
</style>
<g>
	<path class="st0" d="M626.1,21.6v-4.1h-53.5c-6.8,0-12.3,5.5-12.3,12.3v57.6c0,6.8,5.5,12.3,12.3,12.3h41.1
		c6.8,0,12.3-5.5,12.3-12.3v-4.1h-47.2c-1.2,0-2.2-1-2.2-2.2V66.8h37c6.8,0,12.3-5.5,12.3-12.3v-4.1h-49.3V36.1c0-1.2,1-2.2,2.2-2.2
		h34.8C620.6,33.9,626.1,28.4,626.1,21.6"/>
	<path class="st0" d="M480.5,33.9h34.3c6.6,0,12.2,5.1,12.5,11.7c0.4,7.1-5.3,13-12.3,13h-37V36.4C478,35,479.2,33.9,480.5,33.9
		 M543.8,45.9c-0.2-15.9-13.7-28.4-29.6-28.4h-40.3c-6.8,0-12.3,5.5-12.3,12.3v69.9h4.1c6.8,0,12.3-5.5,12.3-12.3V75h32.6l11.9,20.6
		c1.5,2.5,4.2,4.1,7.1,4.1h14.3l-16-27.7C537.4,67.3,544,57.3,543.8,45.9"/>
	<path class="st0" d="M211.5,20.8l-27.8,27.8c-1,1-2.5,1-3.5,0l-27.7-27.7c-2.2-2.2-5.1-3.4-8.2-3.4c-6.4,0-11.6,5.2-11.6,11.6v70.6
		h4.1c6.8,0,12.3-5.5,12.3-12.3v-44c0-1,1.2-1.5,1.9-0.8l22.3,22.3c4.8,4.8,12.6,4.8,17.4,0L213,42.6c0.7-0.7,1.9-0.2,1.9,0.8v56.3
		h4.1c6.8,0,12.3-5.5,12.3-12.3V29c0-6.4-5.2-11.5-11.5-11.5h-0.2C216.6,17.5,213.6,18.7,211.5,20.8"/>
	<path class="st0" d="M103.8,99.7h-4.1V29.8c0-6.8,5.5-12.3,12.3-12.3h4.1v69.9C116.1,94.2,110.6,99.7,103.8,99.7"/>
	<path class="st0" d="M54.1,58.6H17.4V36.4c0-1.4,1.1-2.5,2.5-2.5h34.5c7,0,12.7,5.9,12.3,13C66.5,53.5,60.7,58.6,54.1,58.6
		 M53.7,17.4H13.3C6.5,17.4,1,23,1,29.8v69.9h4.1c6.8,0,12.3-5.5,12.3-12.3V75h37C70.2,75,83,62.4,83.2,46.8
		C83.5,30.7,69.8,17.4,53.7,17.4"/>
	<path class="st0" d="M404,83.3c-8.6,0-16.2-4.4-20.6-11.1l-9-13.5l9.1-13.6c4.4-6.6,12-11,20.5-11c13.6,0,24.7,11.1,24.7,24.7
		S417.6,83.3,404,83.3 M404,17.4c-14.3,0-27,7.3-34.3,18.5l-30.1,45.4c-7.4,11.1-20,18.4-34.3,18.4c-22.7,0-41.1-18.4-41.1-41.1
		s18.4-41.1,41.1-41.1c14.2,0,26.7,7.2,34.1,18.1l5.4,8.1l9.9-14.9l-1.5-2.2C342.9,11.2,325.3,1,305.3,1
		c-31.8,0-57.6,25.8-57.6,57.6c0,31.8,25.8,57.6,57.6,57.6c20.1,0,37.7-10.3,48-25.8l11.2-16.9l5.2,7.8c7.4,11.1,20,18.4,34.3,18.4
		c22.7,0,41.1-18.4,41.1-41.1C445.1,35.9,426.7,17.4,404,17.4"/>
	<path class="st0" d="M648.7,23.3h3.2c0.6,0,1.2,0.5,1.2,1.1c0.1,0.7-0.5,1.3-1.2,1.3h-3.5v-2.1L648.7,23.3z M654.7,24.4
		c-0.1-1.5-1.3-2.6-2.8-2.6H648c-0.6,0-1.1,0.5-1.1,1.1v6.7h0.8l0.8-0.8v-1.6h3.1l1.3,2.2l0.2,0.1h1.6l-1.5-2.6
		C654.1,26.5,654.7,25.5,654.7,24.4"/>
	<path class="st0" d="M650.8,17.4c-4.5,0-8.2,3.7-8.2,8.2c0,4.5,3.7,8.2,8.2,8.2c4.5,0,8.2-3.7,8.2-8.2
		C659,21.1,655.3,17.4,650.8,17.4 M650.8,19c3.7,0,6.7,3,6.7,6.7c0,3.7-3,6.7-6.7,6.7c-3.7,0-6.7-3-6.7-6.7
		C644.1,22,647.1,19,650.8,19"/>
</g>
</svg>
