<svg id="Ebene_1" data-name="Ebene 1" xmlns="http://www.w3.org/2000/svg" viewBox="0 0 210 57.5"><defs><style>.cls-1{fill:#ffffff;}.cls-2{opacity:0;}</style></defs><title>logo_claim-gray</title><path class="cls-1" d="M190,6.25V5H173.75A3.75,3.75,0,0,0,170,8.75v17.5A3.75,3.75,0,0,0,173.75,30h12.5A3.75,3.75,0,0,0,190,26.25V25H175.67a.67.67,0,0,1-.67-.67V20h11.25A3.75,3.75,0,0,0,190,16.25V15H175V10.67a.67.67,0,0,1,.67-.67h10.58A3.75,3.75,0,0,0,190,6.25" transform="translate(10)"/><path class="cls-1" d="M145.75,10h10.44a3.75,3.75,0,1,1,.06,7.5H145V10.75a.75.75,0,0,1,.75-.75M165,13.64A8.91,8.91,0,0,0,156,5H143.75A3.75,3.75,0,0,0,140,8.75V30h1.25A3.75,3.75,0,0,0,145,26.25V22.5h9.9l3.61,6.25A2.5,2.5,0,0,0,160.67,30H165l-4.86-8.41A8.75,8.75,0,0,0,165,13.64" transform="translate(10)"/><path class="cls-1" d="M64,6l-8.44,8.44a.75.75,0,0,1-1.06,0L46,6a3.54,3.54,0,0,0-6,2.5V30h1.25A3.75,3.75,0,0,0,45,26.25V12.87a.33.33,0,0,1,.57-.24l6.78,6.78a3.75,3.75,0,0,0,5.3,0l6.78-6.78a.33.33,0,0,1,.57.24V30h1.25A3.75,3.75,0,0,0,70,26.25V8.5A3.5,3.5,0,0,0,66.5,5h-.05A3.5,3.5,0,0,0,64,6" transform="translate(10)"/><path class="cls-1" d="M31.25,30H30V8.75A3.75,3.75,0,0,1,33.75,5H35V26.25A3.75,3.75,0,0,1,31.25,30" transform="translate(10)"/><path class="cls-1" d="M16.14,17.5H5V10.75A.75.75,0,0,1,5.75,10h10.5A3.75,3.75,0,0,1,20,13.94a3.82,3.82,0,0,1-3.86,3.56M16,5H3.75A3.75,3.75,0,0,0,0,8.75V30H1.25A3.75,3.75,0,0,0,5,26.25V22.5H16.25A8.75,8.75,0,0,0,25,13.92,8.94,8.94,0,0,0,16,5" transform="translate(10)"/><path class="cls-1" d="M122.5,25a7.5,7.5,0,0,1-6.27-3.38L113.5,17.5l2.75-4.15A7.5,7.5,0,1,1,122.5,25m0-20a12.49,12.49,0,0,0-10.43,5.61L102.92,24.4a12.5,12.5,0,1,1-.06-13.9L104.5,13l3-4.53-.44-.67a17.5,17.5,0,1,0,0,19.38L110.5,22l1.58,2.38A12.5,12.5,0,1,0,122.5,5" transform="translate(10)"/><path class="cls-1" d="M196.87,6.78h1a.37.37,0,0,1,.37.32.36.36,0,0,1-.36.39h-1.07V6.87Zm1.82.32a.85.85,0,0,0-.86-.79h-1.19a.33.33,0,0,0-.33.33v2h.24l.24-.24V8h.94l.39.67.07,0h.5l-.46-.8a.84.84,0,0,0,.46-.79" transform="translate(10)"/><path class="cls-1" d="M197.5,5A2.5,2.5,0,1,0,200,7.5,2.5,2.5,0,0,0,197.5,5m0,.48a2,2,0,1,1-2,2,2,2,0,0,1,2-2" transform="translate(10)"/><g class="cls-2"><path class="cls-1" d="M-7.17,26.31H-8.36a.33.33,0,0,0-.33.33v2h.24l.24-.24V28h.94l.39.67.07,0h.5l-.46-.8a.83.83,0,0,0,.46-.79.85.85,0,0,0-.86-.79m-1,1.19v-.63l.08-.08h1a.37.37,0,0,1,.37.32.36.36,0,0,1-.35.39Z" transform="translate(10)"/><path class="cls-1" d="M-7.5,25A2.5,2.5,0,0,0-10,27.5,2.5,2.5,0,0,0-7.5,30,2.5,2.5,0,0,0-5,27.5,2.5,2.5,0,0,0-7.5,25m0,4.52a2,2,0,0,1-2-2,2,2,0,0,1,2-2,2,2,0,0,1,2,2,2,2,0,0,1-2,2" transform="translate(10)"/></g><path class="cls-1" d="M31.64,50.34a3.72,3.72,0,1,0-3.72,3.75,3.69,3.69,0,0,0,3.72-3.75m-8.33,0A4.61,4.61,0,1,1,27.92,55a4.58,4.58,0,0,1-4.61-4.61" transform="translate(10)"/><polygon class="cls-1" points="53.26 48.43 51.3 54.8 50.38 54.8 48.74 49.66 47.1 54.8 46.18 54.8 44.22 48.43 45.08 48.43 46.65 53.72 48.32 48.43 49.16 48.43 50.83 53.72 52.4 48.43 53.26 48.43"/><path class="cls-1" d="M50.78,50.89V54.8h-.84V50.89a1.61,1.61,0,0,0-1.73-1.8c-1.12,0-2.06.66-2.06,2.37V54.8H45.3V48.43h.84v1a2.52,2.52,0,0,1,4.64,1.46" transform="translate(10)"/><path class="cls-1" d="M58.28,49.24V53.1c0,1.1.6,1,1.84,1v.74c-1.72.25-2.68-.16-2.68-1.7V49.24H56.1v-.82h1.34V46.9l.84-.25v1.78h1.84v.82Z" transform="translate(10)"/><path class="cls-1" d="M67.68,50.89V54.8h-.84V50.89a1.61,1.61,0,0,0-1.73-1.8c-1.12,0-2.06.66-2.06,2.37V54.8H62.2V45.88H63v3.54a2.35,2.35,0,0,1,2.14-1.15,2.37,2.37,0,0,1,2.5,2.61" transform="translate(10)"/><path class="cls-1" d="M70.73,51.22h4.75a2.28,2.28,0,0,0-2.29-2.13,2.38,2.38,0,0,0-2.46,2.13m5.62.42,0,.4H70.73a2.39,2.39,0,0,0,2.53,2.1,2.26,2.26,0,0,0,2.05-1.08l.74.43A3.19,3.19,0,0,1,73.26,55a3.34,3.34,0,1,1,3.09-3.31" transform="translate(10)"/><path class="cls-1" d="M88.92,50.34a3.39,3.39,0,0,0-3.34-3.62H83V54h2.55a3.39,3.39,0,0,0,3.34-3.62m.87,0a4.25,4.25,0,0,1-4.21,4.46H82.15V45.88h3.44a4.25,4.25,0,0,1,4.21,4.46" transform="translate(10)"/><path class="cls-1" d="M92.12,48.43H93V54.8h-.84Zm-.19-2a.61.61,0,1,1,.61.61.61.61,0,0,1-.61-.61" transform="translate(10)"/><path class="cls-1" d="M101.07,51.61a2.51,2.51,0,1,0-2.51,2.52,2.48,2.48,0,0,0,2.51-2.52m.84-3.18v6.11a3,3,0,0,1-3.2,3,3.13,3.13,0,0,1-3-1.55l.74-.42a2.2,2.2,0,0,0,2.28,1.16,2.09,2.09,0,0,0,2.36-2.14v-1A3,3,0,0,1,98.5,55a3.34,3.34,0,0,1,0-6.68,3,3,0,0,1,2.57,1.4V48.43Z" transform="translate(10)"/><path class="cls-1" d="M104.58,48.43h.84V54.8h-.84Zm-.19-2a.61.61,0,1,1,.61.61.61.61,0,0,1-.61-.61" transform="translate(10)"/><path class="cls-1" d="M109.54,49.24V53.1c0,1.1.6,1,1.83,1v.74c-1.72.25-2.68-.16-2.68-1.7V49.24h-1.34v-.82h1.34V46.9l.84-.25v1.78h1.83v.82Z" transform="translate(10)"/><path class="cls-1" d="M118.77,51.61a2.51,2.51,0,1,0-2.51,2.52,2.48,2.48,0,0,0,2.51-2.52m.84-3.18V54.8h-.84V53.55A3,3,0,0,1,116.2,55a3.34,3.34,0,0,1,0-6.68,3,3,0,0,1,2.57,1.4V48.43Z" transform="translate(10)"/><rect class="cls-1" x="132.28" y="45.5" width="0.84" height="9.3"/><polygon class="cls-1" points="138.72 45.88 139.67 45.88 141.87 53.59 144.19 45.88 145.23 45.88 147.55 53.59 149.76 45.88 150.7 45.88 148.11 54.8 147.04 54.8 144.71 47.05 142.38 54.8 141.31 54.8 138.72 45.88"/><path class="cls-1" d="M147.84,51.61a2.51,2.51,0,1,0-2.51,2.52,2.48,2.48,0,0,0,2.51-2.52m-5.86,0A3.35,3.35,0,1,1,145.33,55,3.31,3.31,0,0,1,142,51.61" transform="translate(10)"/><path class="cls-1" d="M153.83,48.33v.82a1.88,1.88,0,0,0-2,2.11V54.8H151V48.43h.84v1.06a2.05,2.05,0,0,1,2-1.16" transform="translate(10)"/><path class="cls-1" d="M164.76,51.61a2.51,2.51,0,1,0-2.51,2.52,2.49,2.49,0,0,0,2.51-2.52m.84-5.73V54.8h-.84V53.55a3,3,0,0,1-2.57,1.4,3.34,3.34,0,0,1,0-6.68,3,3,0,0,1,2.57,1.4v-3.8Z" transform="translate(10)"/><rect class="cls-1" x="165.78" y="45.5" width="0.84" height="9.3"/></svg>