<?xml version="1.0" encoding="utf-8"?>
<!-- Generator: Adobe Illustrator 19.2.1, SVG Export Plug-In . SVG Version: 6.00 Build 0)  -->
<svg version="1.1" id="Ebene_1" xmlns="http://www.w3.org/2000/svg" xmlns:xlink="http://www.w3.org/1999/xlink" x="0px" y="0px"
	 viewBox="0 0 48 48" style="enable-background:new 0 0 48 48;" xml:space="preserve">
<style type="text/css">
	.st0{fill:#BBDEFB;}
	.st1{fill:#37474F;}
</style>
<g>
	<path class="st0" d="M35.1,22.3V10.6c0-0.3-0.2-0.6-0.6-0.6H15.1c-0.3,0-0.6,0.2-0.6,0.6v11.7c0,0.3,0.2,0.6,0.6,0.6h19.4
		C34.8,22.8,35.1,22.6,35.1,22.3z"/>
	<path class="st1" d="M43.2,14c0.6,0.9,0.8,1.9,0.4,3.1l-6.6,21.6c-0.3,1-0.9,1.9-1.8,2.6s-1.9,1-2.9,1h-22c-1.2,0-2.4-0.4-3.5-1.3
		s-1.9-1.9-2.4-3.1c-0.4-1.1-0.4-2.1,0-3c0-0.1,0-0.3,0.1-0.6c0-0.4,0.1-0.7,0.1-0.9c0-0.1,0-0.3-0.1-0.5s-0.1-0.4-0.1-0.5
		c0-0.2,0.1-0.3,0.2-0.5s0.2-0.3,0.4-0.6c0.2-0.2,0.3-0.4,0.4-0.6c0.4-0.6,0.7-1.3,1.1-2.2s0.6-1.6,0.7-2.2c0-0.2,0.1-0.4,0-0.7
		c0-0.3,0-0.5,0-0.7c0-0.2,0.2-0.4,0.4-0.7C7.8,24.1,8,23.9,8,23.8c0.3-0.6,0.7-1.3,1-2.2c0.3-0.9,0.5-1.6,0.6-2.1
		c0-0.1,0-0.4-0.1-0.8c-0.1-0.4-0.1-0.6,0-0.7c0.1-0.2,0.2-0.4,0.5-0.7c0.3-0.3,0.5-0.5,0.5-0.5c0.3-0.4,0.6-1.1,1-2
		c0.4-0.9,0.6-1.7,0.7-2.3c0-0.1,0-0.3-0.1-0.6s-0.1-0.5,0-0.6c0-0.1,0.1-0.3,0.2-0.4c0.1-0.2,0.3-0.3,0.4-0.5
		c0.2-0.2,0.3-0.4,0.4-0.5c0.1-0.2,0.3-0.4,0.4-0.7c0.1-0.3,0.3-0.6,0.4-0.8c0.1-0.3,0.2-0.5,0.4-0.9c0.2-0.3,0.3-0.6,0.5-0.8
		C15,6.3,15.2,6.2,15.4,6c0.3-0.2,0.5-0.3,0.9-0.3c0.3,0,0.7,0,1.1,0.1l0,0.1c0.6-0.1,1-0.2,1.2-0.2h18.1c1.2,0,2.1,0.4,2.7,1.3
		s0.8,1.9,0.4,3.1l-6.5,21.6c-0.6,1.9-1.1,3.1-1.7,3.7c-0.6,0.5-1.6,0.8-3.1,0.8H7.9c-0.4,0-0.7,0.1-0.9,0.4c-0.2,0.3-0.2,0.6,0,1
		c0.4,1.1,1.5,1.7,3.4,1.7h22c0.5,0,0.9-0.1,1.3-0.4s0.7-0.6,0.8-1l7.1-23.5c0.1-0.3,0.2-0.8,0.1-1.4C42.4,13.3,42.9,13.6,43.2,14z
		 M17.9,14.1c-0.1,0.2,0,0.4,0,0.5c0.1,0.2,0.3,0.2,0.5,0.2h14.5c0.2,0,0.4-0.1,0.6-0.2s0.3-0.3,0.4-0.5l0.5-1.5
		c0.1-0.2,0-0.4,0-0.5s-0.3-0.2-0.5-0.2H19.4c-0.2,0-0.4,0.1-0.6,0.2c-0.2,0.2-0.3,0.3-0.4,0.5L17.9,14.1z M15.9,20.2
		c-0.1,0.2,0,0.4,0,0.5c0.1,0.2,0.3,0.2,0.5,0.2h14.5c0.2,0,0.4-0.1,0.6-0.2c0.2-0.2,0.3-0.3,0.4-0.5l0.5-1.5c0.1-0.2,0-0.4,0-0.5
		c-0.1-0.2-0.3-0.2-0.5-0.2H17.4c-0.2,0-0.4,0.1-0.6,0.2c-0.2,0.2-0.3,0.3-0.4,0.5L15.9,20.2z"/>
</g>
</svg>
