<?xml version="1.0" encoding="utf-8"?>
<!-- Generator: Adobe Illustrator 19.2.1, SVG Export Plug-In . SVG Version: 6.00 Build 0)  -->
<svg version="1.1" id="Ebene_1" xmlns="http://www.w3.org/2000/svg" xmlns:xlink="http://www.w3.org/1999/xlink" x="0px" y="0px"
	 viewBox="0 0 48 48" style="enable-background:new 0 0 48 48;" xml:space="preserve">
<style type="text/css">
	.st0{fill:#FF9801;}
</style>
<path class="st0" d="M28.2,37.7V19.2h-8.3v18.5c0,0.4,0.2,0.8,0.5,1c0.3,0.2,0.7,0.3,1.2,0.3h5c0.5,0,0.9-0.1,1.2-0.3
	C28,38.5,28.2,38.1,28.2,37.7z M16.4,15.9h5l-3.3-4.2c-0.4-0.5-1-0.8-1.8-0.8c-0.7,0-1.3,0.2-1.8,0.7c-0.5,0.5-0.7,1.1-0.7,1.8
	s0.2,1.3,0.7,1.8C15.1,15.7,15.7,15.9,16.4,15.9z M34.2,13.4c0-0.7-0.2-1.3-0.7-1.8c-0.5-0.5-1.1-0.7-1.8-0.7
	c-0.7,0-1.3,0.3-1.8,0.8l-3.2,4.2h5c0.7,0,1.3-0.2,1.8-0.7C33.9,14.7,34.2,14.1,34.2,13.4z M43.9,20v8.3c0,0.2-0.1,0.4-0.2,0.6
	c-0.2,0.2-0.4,0.2-0.6,0.2h-2.5v10.7c0,0.7-0.2,1.3-0.7,1.8c-0.5,0.5-1.1,0.7-1.8,0.7H10c-0.7,0-1.3-0.2-1.8-0.7
	c-0.5-0.5-0.7-1.1-0.7-1.8V29.1H5c-0.2,0-0.4-0.1-0.6-0.2s-0.2-0.4-0.2-0.6V20c0-0.2,0.1-0.4,0.2-0.6s0.4-0.2,0.6-0.2h11.4
	c-1.6,0-3-0.6-4.1-1.7c-1.1-1.1-1.7-2.5-1.7-4.1s0.6-3,1.7-4.1s2.5-1.7,4.1-1.7c1.8,0,3.3,0.7,4.3,2l3.3,4.3l3.3-4.3
	c1.1-1.3,2.5-2,4.3-2c1.6,0,3,0.6,4.1,1.7c1.1,1.1,1.7,2.5,1.7,4.1s-0.6,3-1.7,4.1c-1.1,1.1-2.5,1.7-4.1,1.7h11.4
	c0.2,0,0.4,0.1,0.6,0.2C43.8,19.6,43.9,19.8,43.9,20z"/>
</svg>
