<?xml version="1.0" encoding="utf-8"?>
<!-- Generator: Adobe Illustrator 19.2.1, SVG Export Plug-In . SVG Version: 6.00 Build 0)  -->
<svg version="1.1" id="Ebene_1" xmlns="http://www.w3.org/2000/svg" xmlns:xlink="http://www.w3.org/1999/xlink" x="0px" y="0px"
	 viewBox="0 0 48 48" style="enable-background:new 0 0 48 48;" xml:space="preserve">
<style type="text/css">
	.st0{fill:#7CB342;}
	.st1{fill:#0277BD;}
</style>
<path class="st0" d="M24,4C13,4,4,13,4,24s9,20,20,20s20-9,20-20S35,4,24,4z"/>
<path class="st1" d="M45,24c0,11.7-9.5,21-21,21S3,35.7,3,24S12.3,3,24,3S45,12.3,45,24z M23.8,33.7c0-0.4-0.2-0.6-0.6-0.8
	c-1.3-0.4-2.5-0.4-3.6-1.5c-0.2-0.4-0.2-0.8-0.4-1.3c-0.4-0.4-1.5-0.6-2.1-0.8c-0.8,0-1.7,0-2.7,0c-0.4,0-1.1,0-1.5,0
	c-0.6-0.2-1.1-1.1-1.5-1.7c0-0.2,0-0.6-0.4-0.6c-0.4-0.2-0.8,0.2-1.3,0c-0.2-0.2-0.2-0.4-0.2-0.6c0-0.6,0.4-1.3,0.8-1.7
	c0.6-0.4,1.3,0.2,1.9,0.2c0.2,0,0.2,0,0.4,0.2c0.6,0.2,0.8,1,0.8,1.7c0,0.2,0,0.4,0,0.4c0,0.2,0.2,0.2,0.4,0.2
	c0.2-1.1,0.2-2.1,0.4-3.2c0-1.3,1.3-2.5,2.3-2.9c0.4-0.2,0.6,0.2,1.1,0c1.3-0.4,4.4-1.7,3.8-3.4C21,16.4,19.7,15,18,15.2
	c-0.4,0.2-0.6,0.4-1,0.6c-0.6,0.4-1.9,1.7-2.5,1.7c-1.1-0.2-1.1-1.7-0.8-2.3c0.2-0.8,2.1-3.6,3.4-3.1c0.2,0.2,0.6,0.6,0.8,0.8
	c0.4,0.2,1.1,0.2,1.7,0.2c0.2,0,0.4,0,0.6-0.2s0.2-0.2,0.2-0.4c0-0.6-0.6-1.3-1-1.7s-1.1-0.8-1.7-1.1c-2.1-0.6-5.5,0.2-7.1,1.7
	s-2.9,4-3.8,6.1c-0.4,1.3-0.8,2.9-1,4.4c-0.2,1-0.4,1.9,0.2,2.9c0.6,1.3,1.9,2.5,3.2,3.4c0.8,0.6,2.5,0.6,3.4,1.7
	c0.6,0.8,0.4,1.9,0.4,2.9c0,1.3,0.8,2.3,1.3,3.4c0.2,0.6,0.4,1.5,0.6,2.1c0,0.2,0.2,1.5,0.2,1.7c1.3,0.6,2.3,1.3,3.8,1.7
	c0.2,0,1-1.3,1-1.5c0.6-0.6,1.1-1.5,1.7-1.9c0.4-0.2,0.8-0.4,1.3-0.8c0.4-0.4,0.6-1.3,0.8-1.9C23.8,35.1,24,34.3,23.8,33.7z
	 M24.2,14.3c0.2,0,0.4-0.2,0.8-0.4c0.6-0.4,1.3-1.1,1.9-1.5s1.3-1.1,1.7-1.5c0.6-0.4,1.1-1.3,1.3-1.9c0.2-0.4,0.8-1.3,0.6-1.9
	c-0.2-0.4-1.3-0.6-1.7-0.8c-1.7-0.4-3.1-0.6-4.8-0.6c-0.6,0-1.5,0.2-1.7,0.8c-0.2,1.1,0.6,0.8,1.5,1.1c0,0,0.2,1.7,0.2,1.9
	c0.2,1-0.4,1.7-0.4,2.7c0,0.6,0,1.7,0.4,2.1L24.2,14.3z M41.8,29c0.2-0.4,0.2-1.1,0.4-1.5c0.2-1,0.2-2.1,0.2-3.1
	c0-2.1-0.2-4.2-0.8-6.1c-0.4-0.6-0.6-1.3-0.8-1.9c-0.4-1.1-1-2.1-1.9-2.9c-0.8-1.1-1.9-4-3.8-3.1c-0.6,0.2-1,1-1.5,1.5
	c-0.4,0.6-0.8,1.3-1.3,1.9c-0.2,0.2-0.4,0.6-0.2,0.8c0,0.2,0.2,0.2,0.4,0.2c0.4,0.2,0.6,0.2,1,0.4c0.2,0,0.4,0.2,0.2,0.4
	c0,0,0,0.2-0.2,0.2c-1,1.1-2.1,1.9-3.1,2.9c-0.2,0.2-0.4,0.6-0.4,0.8c0,0.2,0.2,0.2,0.2,0.4c0,0.2-0.2,0.2-0.4,0.4
	c-0.4,0.2-0.8,0.4-1.1,0.6c-0.2,0.4,0,1.1-0.2,1.5c-0.2,1.1-0.8,1.9-1.3,2.9c-0.4,0.6-0.6,1.3-1,1.9c0,0.8-0.2,1.5,0.2,2.1
	c1,1.5,2.9,0.6,4.4,1.3c0.4,0.2,0.8,0.2,1.1,0.6c0.6,0.6,0.6,1.7,0.8,2.3c0.2,0.8,0.4,1.7,0.8,2.5c0.2,1,0.6,2.1,0.8,2.9
	c1.9-1.5,3.6-3.1,4.8-5.2C40.6,32.4,41.2,30.7,41.8,29z"/>
</svg>
