<?xml version="1.0" encoding="utf-8"?>
<!-- Generator: Adobe Illustrator 19.2.1, SVG Export Plug-In . SVG Version: 6.00 Build 0)  -->
<svg version="1.1" id="Ebene_1" xmlns="http://www.w3.org/2000/svg" xmlns:xlink="http://www.w3.org/1999/xlink" x="0px" y="0px"
	 viewBox="0 0 48 48" style="enable-background:new 0 0 48 48;" xml:space="preserve">
<style type="text/css">
	.st0{fill:#4285F4;}
	.st1{fill:#34A853;}
	.st2{fill:#FBBC05;}
	.st3{fill:#EB4335;}
</style>
<g>
	<path class="st0" d="M43.8,24.4c0-1.7-0.1-2.9-0.4-4.1h-19v7.5h11.2c-0.2,1.9-1.4,4.7-4.1,6.6l0,0.3l6,4.7l0.4,0
		C41.6,35.8,43.8,30.6,43.8,24.4"/>
	<path class="st1" d="M24.4,44.2c5.5,0,10.1-1.8,13.4-4.9l-6.4-4.9c-1.7,1.2-4,2-7,2c-5.4,0-9.9-3.5-11.5-8.4l-0.2,0l-6.2,4.8
		l-0.1,0.2C9.6,39.7,16.5,44.2,24.4,44.2"/>
	<path class="st2" d="M12.9,28c-0.4-1.3-0.7-2.6-0.7-4c0-1.4,0.2-2.7,0.7-4l0-0.3l-6.3-4.9l-0.2,0.1c-1.4,2.7-2.2,5.8-2.2,9.1
		c0,3.3,0.8,6.3,2.2,9.1L12.9,28"/>
	<path class="st3" d="M24.4,11.6c3.8,0,6.4,1.6,7.8,3L37.9,9c-3.5-3.3-8.1-5.3-13.5-5.3c-7.9,0-14.8,4.5-18.1,11.2l6.5,5.1
		C14.5,15.1,19.1,11.6,24.4,11.6"/>
</g>
</svg>
