<?xml version="1.0" encoding="utf-8"?>
<!-- Generator: Adobe Illustrator 19.2.1, SVG Export Plug-In . SVG Version: 6.00 Build 0)  -->
<svg version="1.1" id="Ebene_1" xmlns="http://www.w3.org/2000/svg" xmlns:xlink="http://www.w3.org/1999/xlink" x="0px" y="0px"
	 viewBox="0 0 48 48" style="enable-background:new 0 0 48 48;" xml:space="preserve">
<style type="text/css">
	.st0{fill:#FFA000;}
	.st1{fill:#D68600;}
</style>
<g>
	<polygon class="st0" points="23,41 19,45 15,45 11,41 11,21 23,21 23,29 21,31 23,33 23,35 21,37 23,39 	"/>
	<path class="st0" d="M31,7.8c-0.5-1.8-2-3.1-3.7-3.6C24.9,3.7,21.2,3,17,3S9.1,3.7,6.7,4.2C5,4.7,3.5,6,3,7.8c-0.5,1.7-1,4.1-1,6.7
		s0.5,5,1,6.7c0.5,1.8,1.9,3.1,3.7,3.5C9.1,25.3,12.8,26,17,26s7.9-0.7,10.3-1.2c1.8-0.4,3.2-1.8,3.7-3.5s1-4.1,1-6.7
		C32,11.9,31.5,9.5,31,7.8z M22,13H12c-1.1,0-2-0.9-2-2V9c0-0.6,3.1-1,7-1s7,0.4,7,1v2C24,12.1,23.1,13,22,13z"/>
</g>
<g>
	<polygon class="st1" points="41,39.2 39.2,42.8 36.5,43.6 32.9,41.7 28.8,27.7 36.9,25.3 38.5,30.9 37.6,32.7 39.4,33.7 39.8,35.1 
		38.9,36.9 40.6,37.8 	"/>
	<path class="st1" d="M39.6,14.5c-0.7-1.2-2-1.8-3.3-1.8c-1.7,0.1-4.4,0.4-7.2,1.2c-2.8,0.8-5.2,2.1-6.7,2.9c-1,0.7-1.8,1.9-1.8,3.3
		c0,1.3,0.2,3.1,0.7,4.9c0.5,1.8,1.4,3.4,2.1,4.5c0.7,1.2,1.9,1.8,3.2,1.7c1.7-0.1,4.4-0.3,7.2-1.2s5.2-2.1,6.7-2.9
		c1.1-0.6,1.8-1.9,1.8-3.2c0-1.3-0.2-3.1-0.7-4.9C41.1,17.2,40.3,15.6,39.6,14.5z M34.6,19.9l-6.8,2c-0.7,0.2-1.5-0.2-1.8-1
		l-0.4-1.4c-0.1-0.4,1.9-1.3,4.5-2.1c2.6-0.8,4.8-1.1,4.9-0.7l0.4,1.4C35.7,18.9,35.3,19.7,34.6,19.9z"/>
</g>
</svg>
