<?xml version="1.0" encoding="utf-8"?>
<!-- Generator: Adobe Illustrator 19.2.1, SVG Export Plug-In . SVG Version: 6.00 Build 0)  -->
<svg version="1.1" id="Ebene_1" xmlns="http://www.w3.org/2000/svg" xmlns:xlink="http://www.w3.org/1999/xlink" x="0px" y="0px"
	 viewBox="0 0 48 48" style="enable-background:new 0 0 48 48;" xml:space="preserve">
<style type="text/css">
	.st0{fill:#546E7A;}
	.st1{fill:#BBDEFB;}
	.st2{fill:#37474F;}
</style>
<path class="st0" d="M4.9,32.8V11.5c0-2.3,1.9-4.3,4.3-4.3h29.8c2.3,0,4.3,1.9,4.3,4.3v21.3c0,2.3-1.9,4.3-4.3,4.3H9.1
	C6.8,37,4.9,35.1,4.9,32.8z"/>
<path class="st1" d="M38.9,10.5H9.1c-0.6,0-1.1,0.4-1.1,1.1v21.3c0,0.6,0.4,1.1,1.1,1.1h29.8c0.6,0,1.1-0.4,1.1-1.1V11.5
	C39.9,10.9,39.5,10.5,38.9,10.5z"/>
<path class="st2" d="M41,38.1H7c-2.3,0-4.3-1.9-4.3-4.3l0,0h42.5l0,0C45.3,36.2,43.3,38.1,41,38.1z"/>
</svg>
