<?xml version="1.0" encoding="utf-8"?>
<!-- Generator: Adobe Illustrator 19.2.1, SVG Export Plug-In . SVG Version: 6.00 Build 0)  -->
<svg version="1.1" id="Ebene_1" xmlns="http://www.w3.org/2000/svg" xmlns:xlink="http://www.w3.org/1999/xlink" x="0px" y="0px"
	 viewBox="0 0 48 48" style="enable-background:new 0 0 48 48;" xml:space="preserve">
<style type="text/css">
	.st0{fill:#F44336;}
</style>
<path class="st0" d="M30.9,16.3c0-2-0.7-3.6-2.1-5c-1.4-1.4-3.1-2.1-5-2.1s-3.6,0.7-5,2.1c-1.4,1.4-2.1,3.1-2.1,5s0.7,3.6,2.1,5
	c1.4,1.4,3.1,2.1,5,2.1s3.6-0.7,5-2.1C30.2,19.9,30.9,18.3,30.9,16.3z M38,16.3c0,2-0.3,3.7-0.9,5L27,42.7c-0.3,0.6-0.7,1.1-1.3,1.4
	s-1.2,0.5-1.9,0.5c-0.7,0-1.3-0.2-1.9-0.5s-1-0.8-1.3-1.4L10.6,21.3c-0.6-1.3-0.9-2.9-0.9-5c0-3.9,1.4-7.3,4.2-10s6.1-4.2,10-4.2
	s7.3,1.4,10,4.2S38,12.4,38,16.3z"/>
</svg>
