<?xml version="1.0" encoding="utf-8"?>
<!-- Generator: Adobe Illustrator 19.2.1, SVG Export Plug-In . SVG Version: 6.00 Build 0)  -->
<svg version="1.1" id="Ebene_1" xmlns="http://www.w3.org/2000/svg" xmlns:xlink="http://www.w3.org/1999/xlink" x="0px" y="0px"
	 viewBox="0 0 48 48" style="enable-background:new 0 0 48 48;" xml:space="preserve">
<style type="text/css">
	.st0{fill:#8993BE;}
	.st1{fill:#232531;}
</style>
<g>
	<ellipse class="st0" cx="24.4" cy="24.2" rx="19.8" ry="10.3"/>
	<path class="st1" d="M10.1,30.3l2.2-11h5c2.2,0.1,3.3,1.2,3.3,3.1c0,3.3-2.6,5.2-4.9,5h-2.4l-0.5,2.9H10.1L10.1,30.3z M13.8,25.4
		l0.7-4.1h1.8c1,0,1.6,0.4,1.6,1.2c-0.1,2.3-1.2,2.7-2.4,2.9H13.8L13.8,25.4z"/>
	<path class="st1" d="M20.1,27.4l2.2-11h2.6l-0.5,2.9h2.4c2.2,0.1,3,1.2,2.7,2.6l-1,5.6h-2.7l1-5c0.1-0.7,0.1-1.1-0.8-1.1h-2
		l-1.2,6.1H20.1L20.1,27.4z"/>
	<path class="st1" d="M28.3,30.3l2.2-11h5c2.2,0.1,3.3,1.2,3.3,3.1c0,3.3-2.6,5.2-4.9,5h-2.4l-0.5,2.9H28.3L28.3,30.3z M32,25.4
		l0.7-4.1h1.8c1,0,1.6,0.4,1.6,1.2c-0.1,2.3-1.2,2.7-2.4,2.9H32L32,25.4z"/>
</g>
</svg>
