<?xml version="1.0" encoding="utf-8"?>
<!-- Generator: Adobe Illustrator 19.2.1, SVG Export Plug-In . SVG Version: 6.00 Build 0)  -->
<svg version="1.1" id="Ebene_1" xmlns="http://www.w3.org/2000/svg" xmlns:xlink="http://www.w3.org/1999/xlink" x="0px" y="0px"
	 viewBox="0 0 48 48" style="enable-background:new 0 0 48 48;" xml:space="preserve">
<style type="text/css">
	.st0{fill:#90CAF9;}
	.st1{fill:#00BCD4;}
	.st2{fill:#0097A7;}
</style>
<path class="st0" d="M7,7v34h34V7H7z M39,15h-6V9h6V15z M25,15V9h6v6H25z M31,17v6h-6v-6H31z M23,15h-6V9h6V15z M23,17v6h-6v-6H23z
	 M15,23H9v-6h6V23z M15,25v6H9v-6H15z M17,25h6v6h-6V25z M23,33v6h-6v-6H23z M25,33h6v6h-6V33z M25,31v-6h6v6H25z M33,25h6v6h-6V25z
	 M33,23v-6h6v6H33z M15,9v6H9V9H15z M9,33h6v6H9V33z M33,39v-6h6v6H33z"/>
<polyline class="st1" points="16,24 40,24 40,16 8,16 8,24 "/>
<path class="st2" d="M17,25h24V15H7v10 M17,17h6v6h-6V17z M25,17h6v6h-6V17z M15,17v6H9v-6H15z M39,23h-6v-6h6V23z"/>
</svg>
