<?xml version="1.0" encoding="utf-8"?>
<!-- Generator: Adobe Illustrator 19.2.1, SVG Export Plug-In . SVG Version: 6.00 Build 0)  -->
<svg version="1.1" id="Ebene_1" xmlns="http://www.w3.org/2000/svg" xmlns:xlink="http://www.w3.org/1999/xlink" x="0px" y="0px"
	 viewBox="0 0 48 48" style="enable-background:new 0 0 48 48;" xml:space="preserve">
<style type="text/css">
	.st0{fill:#FFFFFF;}
	.st1{fill:#757373;}
</style>
<g>
	<path class="st0" d="M8,41.7c-1.1,0-2-1.3-2-2.7V8.1c0-1.5,0.9-2.7,2-2.7h32c1.1,0,2,1.3,2,2.7v30.8c0,1.5-0.9,2.7-2,2.7L8,41.7
		L8,41.7z"/>
	<path class="st1" d="M39.8,7.3C39.9,7.4,40,7.7,40,8.1v30.8c0,0.4-0.1,0.6-0.2,0.7H8.2c-0.1,0-0.2-0.3-0.2-0.7V8.1
		c0-0.4,0.1-0.6,0.2-0.7h31.6 M40,3.3H8C5.8,3.3,4,5.4,4,8v30.8c0,2.6,1.8,4.7,4,4.7h32c2.2,0,4-2.1,4-4.7V8.1
		C44,5.5,42.2,3.3,40,3.3L40,3.3z"/>
</g>
<g>
	<path class="st1" d="M26.9,28.3h-6.1v-0.6c0-1,0.1-1.9,0.4-2.5c0.2-0.6,0.6-1.2,1.1-1.8c0.5-0.5,1.5-1.5,3.1-2.8
		c0.9-0.7,1.3-1.4,1.3-1.9s-0.2-1-0.5-1.4c-0.3-0.3-0.9-0.5-1.6-0.5c-0.8,0-1.4,0.3-1.9,0.8c-0.5,0.5-0.8,1.4-1,2.6l-6.3-0.8
		c0.2-2.3,1-4.1,2.5-5.6c1.5-1.4,3.7-2.1,6.7-2.1c2.3,0,4.2,0.5,5.7,1.5c2,1.3,2.9,3.1,2.9,5.3c0,0.9-0.3,1.8-0.8,2.6
		c-0.5,0.8-1.5,1.9-3.1,3.1c-1.1,0.9-1.8,1.5-2.1,2.1C27,26.8,26.9,27.5,26.9,28.3z M20.6,29.9h6.6v5.8h-6.6V29.9z"/>
</g>
</svg>
