<?xml version="1.0" encoding="utf-8"?>
<!-- Generator: Adobe Illustrator 19.2.1, SVG Export Plug-In . SVG Version: 6.00 Build 0)  -->
<svg version="1.1" id="Ebene_1" xmlns="http://www.w3.org/2000/svg" xmlns:xlink="http://www.w3.org/1999/xlink" x="0px" y="0px"
	 viewBox="0 0 48 48" style="enable-background:new 0 0 48 48;" xml:space="preserve">
<style type="text/css">
	.st0{fill:#FFFFFF;}
	.st1{fill:#3F3F3F;}
	.st2{fill:#686868;}
	.st3{fill:#2196F3;}
</style>
<g>
	<path class="st0" d="M8,41.7c-1.1,0-2-1.3-2-2.7V8.1c0-1.5,0.9-2.7,2-2.7h32c1.1,0,2,1.3,2,2.7v30.8c0,1.5-0.9,2.7-2,2.7L8,41.7
		L8,41.7z"/>
	<path class="st1" d="M39.8,7.3C39.9,7.4,40,7.7,40,8.1v30.8c0,0.4-0.1,0.6-0.2,0.7H8.2c-0.1,0-0.2-0.3-0.2-0.7V8.1
		c0-0.4,0.1-0.6,0.2-0.7h31.6 M40,3.3H8C5.8,3.3,4,5.4,4,8v30.8c0,2.6,1.8,4.7,4,4.7h32c2.2,0,4-2.1,4-4.7V8.1
		C44,5.5,42.2,3.3,40,3.3L40,3.3z"/>
</g>
<g>
	<rect x="12.3" y="9.7" class="st2" width="22.7" height="2.7"/>
	<rect x="12.3" y="19.9" class="st2" width="8.8" height="2.7"/>
	<rect x="12.3" y="25.3" class="st2" width="22.7" height="2.7"/>
	<rect x="12.3" y="14.9" class="st2" width="10.1" height="2.7"/>
</g>
<rect x="12.3" y="29.5" class="st2" width="22.7" height="2.7"/>
<rect x="12.3" y="33.6" class="st2" width="22.7" height="2.7"/>
<g>
	<rect x="23.6" y="13.3" class="st3" width="11.4" height="10.7"/>
</g>
</svg>
